<?xml version="1.0" encoding="utf-8"?>
<!-- Generator: Adobe Illustrator 16.0.0, SVG Export Plug-In . SVG Version: 6.00 Build 0)  -->
<!DOCTYPE svg PUBLIC "-//W3C//DTD SVG 1.1//EN" "http://www.w3.org/Graphics/SVG/1.1/DTD/svg11.dtd">
<svg version="1.1" id="Layer_1" xmlns="http://www.w3.org/2000/svg" xmlns:xlink="http://www.w3.org/1999/xlink" x="0px" y="0px"
	 width="141.732px" height="141.73px" viewBox="0 0 141.732 141.73" enable-background="new 0 0 141.732 141.73"
	 xml:space="preserve">
<g>
	<g>
		<path id="path2475" fill="#F4E5F3" d="M68.099,75.143c-0.846-2.391,0.482-2.457,14.298-2.96
			c13.824-0.501,15.037,0.157,11.592,5.555c-3.438,5.399-0.692,4.901-22.464,3.858C49.738,80.552,68.944,77.53,68.099,75.143z"/>
		<path fill="#EE8EBB" d="M65.125,118.172c-10.895-4.739-13.309-6.387-16.243-11.098c-1.932-3.098-1.847-4.89,0.256-5.38
			c2.125-0.495,4.829,0.058,12.328,2.524c5.975,1.969,5.894,1.95,5.202,1.146c-0.29-0.336-0.569-0.806-0.627-1.043
			c-0.142-0.6,0.696-1.88,1.326-2.026c1.093-0.256,0.047-0.718-3.975-1.757c-6.93-1.792-9.448-3.202-10.272-5.758
			c-0.331-1.022-0.355-1.556-0.119-2.55c0.607-2.553,7.581-5.455,12.684-9.691c4.772-3.967,3.792-3.839,3.362-5.669
			c-0.306-1.311,1.161-4.135-3.523-4.773c-5.759-0.785-14.8-1.566-18.417-4.342c-2.843-2.185-4.521-4.623-5.232-7.617
			c-0.597-2.515-0.748-12.784-0.303-20.643c0.209-3.688,0.307-3.97,2.119-6.021c2.893-3.274,8.438-9.925,8.986-10.771
			c0.291-0.45,0.476-0.852,0.409-0.893c-0.064-0.041-0.702,0.192-1.417,0.518c-2.512,1.146-2.688,0.674-1.465-3.954
			c0.494-1.868,0.839-3.433,0.77-3.477c-0.121-0.074-0.634,1.072-3.639,8.154c-1.174,2.768-1.93,3.777-3.022,4.032
			c-1.07,0.251-1.714-0.786-2.431-3.908c-0.519-2.267-0.642-3.739-0.808-9.698c-0.19-6.847-0.489-12.637-0.69-13.364
			c-0.155-0.562-0.415,1.014-0.629,3.81c-0.27,3.583-0.49,4.622-1.309,6.179c-0.799,1.521-0.819,1.084,0.371,8.289
			c0.899,5.456,1.319,13.578,1.018,19.847c-0.19,3.997-1.344,16.567-1.515,16.543c-0.458-0.062-5.484-3.743-6.426-4.707
			c-0.578-0.591-1.321-1.654-1.653-2.365c-0.557-1.194-0.586-1.453-0.399-3.47c0.318-3.391,1.059-7.128,3.116-15.779
			c1.047-4.396,1.921-8.241,1.944-8.544c0.034-0.476-0.039-0.517-0.535-0.294c-0.452,0.2-0.707,0.117-1.214-0.399l-0.641-0.653
			l0.21,1.636c0.319,2.498-0.005,4.229-1.098,5.863c-0.518,0.774-0.911,1.541-0.875,1.702c0.038,0.163-0.064,0.7-0.228,1.195
			c-0.208,0.633-0.479,0.944-0.907,1.044c-0.761,0.178-0.793,0.04-0.717-3.051c0.034-1.359-0.063-2.714-0.217-3.013
			c-0.153-0.296-0.699-0.729-1.216-0.96c-1.127-0.505-2.847-0.906-2.979-0.693c-0.05,0.083,0.498,1.673,1.223,3.534
			c0.725,1.859,1.781,5.115,2.35,7.233c1.167,4.356,1.235,5.72,0.344,6.779c-0.491,0.581-0.592,0.616-1.185,0.398
			c-0.673-0.244-0.977-0.556-2.246-2.299c-0.846-1.162-1.474-1.23-1.615-0.182c-0.148,1.109,0.371,2.81,1.601,5.25
			c1.534,3.04,2.886,5.062,6.424,9.619c1.619,2.084,3.431,4.612,4.021,5.617c3.785,6.414,4.415,11.446,1.695,13.541
			c-1.136,0.871-1.784,1.021-3.833,0.878c-3.588-0.251-10.787-3.765-14.365-7.009c-2.199-1.992-4.237-4.496-5.649-6.936
			c-1.001-1.732-1.244-2.403-1.979-5.487c-1.582-6.635-1.088-8.921,4.639-21.458c0.169-0.374,0.211-0.657,0.089-0.629
			c-0.12,0.028-0.795,1.159-1.5,2.515c-1.896,3.644-3.852,5.207-5.422,4.337c-0.539-0.299-0.665-0.556-0.854-1.75
			c-0.267-1.676,0.426-3.984,2.628-8.77c2.415-5.247,2.624-6.23,1.247-5.91c-0.819,0.191-1.753-0.268-2.172-1.064
			c-0.36-0.688-0.382-0.652-1.511,2.45c-0.631,1.729-1.51,3.732-1.954,4.448c-0.774,1.246-0.871,1.316-2.264,1.642
			c-0.831,0.193-1.325,0.299-1.508,0.787c-0.019,0.349-0.031,0.696-0.048,1.045c0.121,1.006,0.559,2.657,1.308,5.505
			C6.085,44.5,6.666,49.481,5.599,50.541c-0.646,0.64-1.609,0.349-2.87-0.847c0.176,2.274,0.428,4.543,0.775,6.809
			c0.049,0.267,0.082,0.539,0.126,0.808c0.056,0.336,0.098,0.674,0.157,1.011c-0.004,0-0.008,0.002-0.013,0.002
			c0.052,0.361,0.101,0.724,0.154,1.084c2.45,2.136,4.979,4.633,6.711,6.703c4.471,5.352,7.664,11.717,7.991,15.934
			c0.212,2.739-0.508,5.363-1.77,6.438c-0.666,0.569-1.721,0.349-4.396-0.92c-1.195-0.567-2.432-1.099-2.742-1.184
			c-0.525-0.14-0.559-0.067-0.468,1.035c0.227,2.71-0.956,2.981-7.194,1.661c-0.017-0.002-0.03-0.006-0.046-0.01
			c0.286,0.795,0.571,1.591,0.855,2.388c0.036,0.017,0.084,0.038,0.115,0.055c1.087,0.585,1.149,0.665,0.867,1.121
			c-0.084,0.135-0.229,0.284-0.408,0.437c0.36,1.018,0.72,2.033,1.078,3.051c1.364-0.833,2.72-1.314,4.517-1.637
			c2.611-0.47,3.812-0.143,7.201,1.963c4.301,2.673,6.089,5.693,5.151,8.71c-0.787,2.528-2.396,4.062-8.109,7.729
			c-0.676,0.435-1.402,0.906-2.148,1.393c0.374,0.971,0.743,1.941,1.105,2.915c1.871-2.003,4.48-3.164,8.318-3.835
			c3.723-0.649,4.55-0.604,6.192,0.355l1.367,0.795l0.37,1.786c0.745,3.601,0.128,9.037-1.692,14.908
			c-0.647,2.094-1.166,3.864-1.149,3.934c0.016,0.069,0.484,0.093,1.044,0.054c1.619-0.115,1.937,0.528,1.528,3.089
			c-0.403,2.526-0.321,2.942,0.653,3.271c1.774,0.6,2.058-0.083,1.829-4.422c-0.277-5.281,0.582-11.797,1.792-13.602
			c0.471-0.702,0.51-0.716,1.224-0.455c0.406,0.147,0.992,0.545,1.304,0.88c0.312,0.338,0.659,0.593,0.772,0.566
			c0.117-0.026-0.306-1.836-0.947-4.062c-1.928-6.687-2.517-9.486-2.183-10.398c0.519-1.417,1.458-1.891,5.762-2.905
			c3.546-0.836,3.979-0.888,5.007-0.612c2.187,0.586,3.406,1.861,6.563,6.87c3.92,6.22,5.082,7.627,6.098,7.389
			c0.849-0.197,2.426,0.352,5.268,1.834c3.771,1.967,4.035,2.026,5.006,1.097c0.62-0.594,1.296-0.886,3.495-1.521l2.727-0.785
			L65.125,118.172z"/>
		<path id="path2448" fill="#EC008C" d="M45.092,96.393c-0.852,0.021-2.013-0.253-4.587-1.081c-2.969-0.955-4.151-1.44-6.08-2.499
			c-1.448-0.794-2.203-1.3-3.15-2.104c-1.738-1.479-2.715-3.038-2.732-4.361c-0.006-0.61,0.275-1.312,0.699-1.731
			c1.037-1.037,2.938-1.481,5.665-1.329c1.187,0.066,2.655,0.28,3.312,0.483c1.384,0.425,3.031,1.423,4.478,2.717
			c2.07,1.847,3.552,4.037,3.99,5.894c0.167,0.709,0.179,0.992,0.082,1.78c-0.127,1.013-0.396,1.697-0.775,1.976
			C45.791,96.279,45.427,96.384,45.092,96.393z"/>
		<path id="path2483_1_" fill="#EE8EBB" d="M139.717,87.106c-3.095,0.728-6.575,1.325-11.258,1.986
			c-3.436,0.485-8.544,0.938-11.35,1.005c-6.967,0.168-18.33-2.053-22.442-4.38c-2.918-1.657-3.444-2.281-4.027-4.78
			c-0.554-2.363-0.362-3.371,1.087-5.704c1.24-1.996,2.418-3.014,4-3.451c9.672-2.686,29.983-4.784,41.943-4.713L139.717,87.106z"/>
		<path id="path2557" fill="#EC008C" d="M133.946,77.955c1.396,1.899-1.024,4.301-5.409,5.365c-4.38,1.066-9.068,0.389-10.461-1.513
			c-0.004,0.002-0.004,0-0.004,0c-1.396-1.9,1.025-4.301,5.409-5.368c4.384-1.065,9.064-0.389,10.462,1.509
			C133.943,77.951,133.943,77.951,133.946,77.955z"/>
	</g>
	<g>
		<polygon fill="none" stroke="#EC008C" stroke-width="0.9446" stroke-miterlimit="10" points="67.142,81.12 58.799,86.077 
			50.334,81.33 50.212,71.625 58.556,66.668 67.021,71.415 		"/>
		
			<line fill="none" stroke="#EC008C" stroke-width="0.9446" stroke-miterlimit="10" x1="58.556" y1="66.668" x2="58.556" y2="62.024"/>
		
			<line fill="none" stroke="#EC008C" stroke-width="0.9446" stroke-miterlimit="10" x1="58.361" y1="62.416" x2="62.726" y2="59.632"/>
		
			<line fill="none" stroke="#EC008C" stroke-width="0.9446" stroke-miterlimit="10" x1="62.198" y1="59.632" x2="65.665" y2="62.416"/>
		
			<line fill="none" stroke="#EC008C" stroke-width="0.9446" stroke-miterlimit="10" x1="58.677" y1="90.721" x2="58.677" y2="86.077"/>
		
			<line fill="none" stroke="#EC008C" stroke-width="0.9446" stroke-miterlimit="10" x1="70.917" y1="83.774" x2="67.142" y2="81.07"/>
		<text transform="matrix(1 0 0 1 56.3669 93.4553)" fill="#EC008C" font-family="'MyriadPro-Bold'" font-size="2.8339">OH</text>
		<text transform="matrix(1 0 0 1 71.7166 85.5051)" fill="#EC008C" font-family="'MyriadPro-Bold'" font-size="2.8339">OH</text>
		<text transform="matrix(1 0 0 1 65.6619 65.3528)" fill="#EC008C" font-family="'MyriadPro-Bold'" font-size="2.8339">NH</text>
		<text transform="matrix(1 0 0 1 69.5701 65.3528)" fill="#EC008C" font-family="'MyriadPro-Bold'" font-size="2.3616">2</text>
		
			<line fill="none" stroke="#EC008C" stroke-width="0.9446" stroke-miterlimit="10" x1="51.96" y1="80.388" x2="51.96" y2="72.358"/>
		
			<line fill="none" stroke="#EC008C" stroke-width="0.9446" stroke-miterlimit="10" x1="58.53" y1="84.247" x2="65.394" y2="80.076"/>
		
			<line fill="none" stroke="#EC008C" stroke-width="0.9446" stroke-miterlimit="10" x1="65.337" y1="72.358" x2="58.246" y2="68.594"/>
		<text transform="matrix(1 0 0 1 55.2644 80.387)" fill="#EC008C" font-family="'MyriadPro-Bold'" font-size="11.3357">D</text>
		<text transform="matrix(1 0 0 1 69.1208 80.387)" fill="#EC008C" font-family="'MyriadPro-Bold'" font-size="11.3357">opamine</text>
	</g>
	<g>
		<g>
			<path fill="#F4E5F3" d="M81.057,52.85l2.671-2.672l0.486,0.486c0,0,9.113-9.114,11.435-11.434
				c2.317-2.317-2.113-6.849,3.828-12.79l19.89-19.155c0,0,7.725,7.346,8.009,7.551L85.089,56.883L81.057,52.85z"/>
			<path fill="#EC008C" d="M133.784,20.785L114.01,40.974c-6.088,6.087-10.664,1.509-12.886,3.731
				C99.288,46.542,89.69,56.139,89.69,56.139l0.512,0.512l-2.672,2.673l-2.44-2.44l42.286-42.047
				C128.923,15.949,133.784,20.785,133.784,20.785z"/>
		</g>
		<path fill="#EC008C" d="M87.283,66.049c0-1.526-0.449-2.82-0.849-3.277c0.288-0.442,0.49-1.549,0.49-2.841
			c0-1.683-0.345-3.048-0.771-3.048s-0.771,1.365-0.771,3.048c0,1.298,0.203,2.405,0.493,2.845
			c-0.381,0.462-0.787,1.751-0.787,3.273c0,1.338,0.315,2.499,0.649,3.071c-0.214,0.483-0.355,1.335-0.355,2.302
			c0,1.505,0.346,2.729,0.771,2.729c0.427,0,0.771-1.224,0.771-2.729c0-0.959-0.14-1.803-0.351-2.289
			C86.932,68.565,87.283,67.397,87.283,66.049z"/>
	</g>
	<g>
		<g>
			<g>
				<path fill="#F4E5F3" d="M55.559,40.712c2.675,2.666,5.35,5.333,8.023,8c3.543,3.531,7.082,7.061,10.625,10.591
					c0.098-0.101,0.195-0.202,0.292-0.303c0.307-0.315,0.609-0.629,0.912-0.943c0.402-0.416,0.803-0.83,1.204-1.246
					c-3.523-3.532-7.048-7.064-10.57-10.598c-2.661-2.668-5.322-5.336-7.983-8.004c-0.417,0.416-0.834,0.833-1.25,1.25
					c-0.315,0.315-0.632,0.632-0.948,0.948C55.762,40.509,55.661,40.61,55.559,40.712z"/>
				<path fill="#EC008C" d="M47.829,33.088c1.296,1.292,2.591,2.583,3.887,3.875c1.31,1.305,2.617,2.607,3.926,3.913
					c0.112-0.113,0.227-0.228,0.34-0.34c0.294-0.295,0.589-0.591,0.884-0.886c0.292-0.292,0.584-0.583,0.875-0.875
					c0.134-0.134,0.269-0.268,0.402-0.401c-1.304-1.295-2.607-2.59-3.91-3.887c-1.292-1.282-2.582-2.564-3.873-3.848
					c0,0-0.065-0.041-0.189-0.06c-0.271-0.043-0.824,0.012-1.607,0.795c0,0-0.575,0.532-0.756,1.09
					C47.739,32.677,47.727,32.896,47.829,33.088z"/>
				<path fill="#EC008C" d="M76.825,60.976c-0.971-0.287-3.123-2.178-3.123-2.178l2.391-2.429c0,0,3.11,2.725,2.806,3.883
					C78.741,60.845,77.413,61.149,76.825,60.976z"/>
			</g>
			<g opacity="0.6">
				<path fill="#EC008C" d="M77.369,60.919c-0.144,0.185-0.076,0.443,0.02,0.635c-0.081,0.079-0.282,0.25-0.17,0.384
					c0.132,0.151,0.269-0.043,0.311-0.15c0.07-0.169,0.039-0.755-0.115-0.867"/>
				<path fill="#EC008C" d="M77.303,62.268c-0.158-0.169-0.253,0.105-0.119,0.24c-0.346-0.064-0.173,0.437,0.203,0.288
					c0.01-0.187-0.008-0.362-0.062-0.528"/>
				<path fill="#EC008C" d="M77.48,62.821c-0.094,0.069-0.209,0.165-0.163,0.29c-0.075,0.021-0.154,0.023-0.232,0
					c-0.024,0.144,0.021,0.26,0.101,0.371c-0.066-0.011-0.125,0.025-0.188,0.029c0.015,0.031,0.016,0.112,0.037,0.143
					c-0.229-0.086-0.059,0.323-0.111,0.426c-0.205,0.05-0.221,0.41-0.124,0.554c0.102-0.057,0.092-0.177,0.085-0.283
					c0.027,0,0.058-0.004,0.084-0.005c0.009-0.156,0.186-0.183,0.16-0.348c0.104,0.018,0.192-0.03,0.224-0.135
					c0.103,0.103,0.114,0.249,0.109,0.394c0.353,0.101-0.03-0.339,0.191-0.375c0.014-0.068-0.004-0.139-0.046-0.194
					c-0.038,0.021-0.088,0.004-0.124,0.018c-0.038-0.116-0.067-0.248-0.067-0.37c0.147-0.016,0.155-0.36,0.107-0.468"/>
				<path fill="#EC008C" d="M77.236,65.365c-0.174,0.186-0.014,0.27,0.044,0.422c0.054,0.139-0.038,0.395,0.174,0.416
					c0.012-0.216,0-0.438-0.02-0.64c-0.02-0.213-0.131-0.309-0.02-0.521c-0.077,0.112-0.126,0.244-0.224,0.346"/>
			</g>
			<g opacity="0.6">
				<path fill="#EC008C" d="M78.521,60.827c-0.096,0.07-0.21,0.167-0.164,0.29c-0.075,0.021-0.155,0.024-0.232,0
					c-0.024,0.144,0.021,0.259,0.101,0.37c-0.065-0.011-0.125,0.025-0.188,0.029c0.014,0.031,0.016,0.113,0.038,0.145
					c-0.232-0.086-0.06,0.321-0.111,0.424c-0.205,0.05-0.222,0.41-0.125,0.554c0.102-0.056,0.092-0.176,0.086-0.281
					c0.026,0,0.058-0.006,0.083-0.007c0.009-0.155,0.187-0.183,0.161-0.348c0.103,0.018,0.191-0.03,0.224-0.133
					c0.101,0.101,0.114,0.249,0.108,0.392c0.353,0.101-0.029-0.339,0.192-0.375c0.013-0.067-0.004-0.138-0.046-0.193
					c-0.039,0.02-0.089,0.003-0.125,0.018c-0.037-0.117-0.066-0.248-0.066-0.37c0.147-0.017,0.155-0.361,0.106-0.468"/>
				<path fill="#EC008C" d="M78.277,63.371c-0.175,0.188-0.014,0.27,0.044,0.422c0.054,0.139-0.039,0.395,0.173,0.416
					c0.012-0.216,0-0.438-0.019-0.64c-0.02-0.211-0.133-0.308-0.021-0.521c-0.076,0.114-0.124,0.244-0.223,0.346"/>
			</g>
			<g opacity="0.6">
				<path fill="#EC008C" d="M78.576,64.68c-0.094,0.071-0.211,0.166-0.162,0.29c-0.078,0.021-0.156,0.025-0.232,0
					c-0.025,0.143,0.021,0.259,0.099,0.371c-0.065-0.011-0.124,0.025-0.188,0.029c0.018,0.03,0.018,0.111,0.038,0.144
					c-0.23-0.086-0.058,0.322-0.109,0.424c-0.204,0.05-0.221,0.409-0.123,0.555c0.099-0.058,0.09-0.177,0.086-0.281
					c0.025,0,0.056-0.006,0.081-0.007c0.007-0.156,0.187-0.184,0.162-0.349c0.103,0.019,0.189-0.029,0.223-0.133
					c0.1,0.102,0.115,0.248,0.107,0.393c0.353,0.101-0.029-0.34,0.192-0.375c0.015-0.067-0.003-0.14-0.046-0.194
					c-0.04,0.02-0.088,0.004-0.123,0.017c-0.039-0.116-0.067-0.248-0.066-0.37c0.146-0.016,0.152-0.359,0.106-0.468"/>
				<path fill="#EC008C" d="M78.333,67.224c-0.174,0.188-0.015,0.271,0.043,0.421c0.055,0.141-0.037,0.396,0.175,0.417
					c0.012-0.216,0-0.438-0.019-0.639c-0.021-0.212-0.132-0.309-0.021-0.522c-0.075,0.113-0.125,0.244-0.224,0.347"/>
			</g>
			<g opacity="0.6">
				<path fill="#EC008C" d="M78.572,68.866c-0.144,0.185-0.075,0.443,0.019,0.635c-0.08,0.079-0.282,0.25-0.169,0.383
					c0.13,0.151,0.268-0.042,0.312-0.15c0.067-0.17,0.038-0.755-0.115-0.866"/>
				<path fill="#EC008C" d="M78.505,70.215c-0.157-0.171-0.25,0.104-0.119,0.24c-0.343-0.066-0.172,0.436,0.204,0.288
					c0.012-0.188-0.007-0.363-0.062-0.528"/>
				<path fill="#EC008C" d="M78.683,70.769c-0.094,0.069-0.21,0.165-0.162,0.289c-0.077,0.021-0.156,0.024-0.233-0.001
					c-0.024,0.145,0.021,0.259,0.1,0.371c-0.064-0.011-0.123,0.027-0.188,0.03c0.015,0.029,0.015,0.111,0.038,0.144
					c-0.232-0.086-0.058,0.321-0.111,0.425c-0.204,0.049-0.22,0.409-0.123,0.553c0.1-0.056,0.092-0.176,0.085-0.281
					c0.027,0,0.058-0.005,0.082-0.005c0.009-0.157,0.188-0.184,0.162-0.349c0.104,0.019,0.19-0.031,0.224-0.134
					c0.1,0.102,0.114,0.249,0.107,0.394c0.353,0.101-0.03-0.342,0.192-0.377c0.014-0.066-0.003-0.138-0.046-0.192
					c-0.039,0.019-0.089,0.004-0.123,0.016c-0.038-0.115-0.068-0.247-0.067-0.369c0.147-0.016,0.154-0.36,0.107-0.468"/>
				<path fill="#EC008C" d="M78.44,73.312c-0.174,0.187-0.016,0.269,0.043,0.421c0.054,0.14-0.037,0.396,0.175,0.417
					c0.011-0.216,0-0.438-0.02-0.639c-0.021-0.213-0.132-0.31-0.021-0.522c-0.076,0.112-0.126,0.242-0.225,0.346"/>
			</g>
		</g>
	</g>
</g>
</svg>
