<?xml version="1.0" encoding="utf-8"?>
<!-- Generator: Adobe Illustrator 16.0.0, SVG Export Plug-In . SVG Version: 6.00 Build 0)  -->
<!DOCTYPE svg PUBLIC "-//W3C//DTD SVG 1.1//EN" "http://www.w3.org/Graphics/SVG/1.1/DTD/svg11.dtd">
<svg version="1.1" id="Layer_1" xmlns="http://www.w3.org/2000/svg" xmlns:xlink="http://www.w3.org/1999/xlink" x="0px" y="0px"
	 width="141.732px" height="141.732px" viewBox="0 0 141.732 141.732" enable-background="new 0 0 141.732 141.732"
	 xml:space="preserve">
<linearGradient id="SVGID_1_" gradientUnits="userSpaceOnUse" x1="58.5774" y1="9.0139" x2="58.5774" y2="80.9143">
	<stop  offset="0" style="stop-color:#FFFFFF"/>
	<stop  offset="0.8229" style="stop-color:#FFFFFF"/>
	<stop  offset="0.9191" style="stop-color:#FFFFFF;stop-opacity:0"/>
</linearGradient>
<path fill="url(#SVGID_1_)" d="M100.699,54.366C96.366,6.699,67.909,9.032,51.698,9.033c-16.209,0-35.333,21.076-35.333,37
	c0,14.768,9.426,28.335,20.72,34.881c0.499-1.052,1.167-1.931,1.973-2.66c2.611-3.253,6.229-4.753,10.484-4.161
	c1.736-0.191,3.459-0.212,5.176-0.122c1.162,0.038,2.325,0.131,3.489,0.242c0.9-0.002,1.791,0.014,2.652,0.062
	c3,0.169,6.487,0.456,10.045,1.009c1.883,0.006,3.762,0.047,5.619,0.171c3.494,0.233,7.697,0.902,11.442,0.371
	C95.979,71.046,101.586,64.117,100.699,54.366z"/>
<g opacity="0.1">
	<path fill="none" d="M30.846,66.282c0,0,0-2.052,1.333-2.463c0,0,0.204-1.847-1.949-1.025c0,0-4.412,0.205-6.258-0.923
		c-1.848-1.13-0.104-1.23,1.437-0.821c1.54,0.41,6.054,0.821,9.233-0.819c0,0,1.846-0.924-2.668-1.849
		c-4.515-0.923-4.411-3.591-10.26-2.563c0,0-3.283,2.257-0.309,6.874c0,0-0.186,0.665-0.27,1.534
		c0.684,1.269,1.435,2.494,2.233,3.681C25.629,68.382,29.681,68.831,30.846,66.282z"/>
	<path fill="none" d="M18.431,54.997c-0.292,0-0.612-0.05-0.943-0.135c0.146,0.583,0.307,1.161,0.479,1.736
		C19.051,55.773,19.561,54.997,18.431,54.997z"/>
	<path fill="none" d="M22.125,54.177c5.335-1.23,6.977,1.23,9.233,2.154c2.257,0.923,4.719,1.743,4.719,0.718
		s-1.539-3.796-3.693-4.104c-2.153-0.308-4.104-0.924-6.259-4.515c-2.152-3.593-3.282-3.078-3.282-3.078
		c0.514,1.334-0.615,3.897-0.615,3.897c-2.153,3.078-1.23,0.205-1.23,0.205c1.23-4.309-1.229-8.412-3.488-8.412
		c-0.189,0-0.387,0.042-0.586,0.102c-0.254,1.175-0.427,2.338-0.504,3.479c0.725-0.015,0.781,1.037,0.781,1.037
		c-0.335,0.271-0.594,0.58-0.818,0.904c0.031,2.002,0.234,3.979,0.592,5.92C18.131,53.842,19.951,54.678,22.125,54.177z"/>
	<path fill="none" d="M29.615,71.105c0.41-1.539-1.95-1.23-1.95-1.23c-0.91,0.354-1.868,0.407-2.606,0.372
		c0.76,0.983,1.557,1.93,2.387,2.838C28.746,72.905,29.286,72.337,29.615,71.105z"/>
	<path fill="none" d="M18.522,58.295c0.003,0.011,0.006,0.02,0.01,0.028c0.002-0.027,0.003-0.043,0.003-0.043
		C18.531,58.285,18.526,58.29,18.522,58.295z"/>
	<path fill="none" d="M82.522,70.885c0.279-0.193,0.549-0.398,0.809-0.617c0.663-0.52,1.389-0.86,2.126-1.055
		c-1.632,0.299-3.276,0.741-4.47,0.94c-0.818,0.136-1.441,0.32-1.916,0.603c0.098-0.006,0.196-0.007,0.295-0.015
		c0.808-0.063,1.509,0.075,2.123,0.336c0.068,0.001,0.137-0.002,0.205,0c0.219,0.008,0.402,0.02,0.561,0.034
		C82.321,71.045,82.406,70.97,82.522,70.885z"/>
	<path fill="none" d="M80.987,68.923c2.231-0.23,4.848-1.925,7.465-1.386c2.615,0.538,1.154,1.539,1.154,1.539
		c-0.835-0.223-1.895-0.189-3.012-0.043c1.355-0.074,2.663,0.346,3.64,1.162c0.072-0.117,0.148-0.229,0.218-0.349
		c1.693-2.925,1.309-11.234,1.23-13.773c-0.076-2.54-3.31-3.771-4.693-3.616c-1.385,0.153-3.539,1.461-5.771,2.692
		c-2.229,1.23-0.77,1.924-2,3.925c-1.229,2-1.229,2.385-1.229,2.385c0.539-0.615,2.77-0.69,4.463-0.615c1.693,0.077,0.691,1,0.691,1
		c-2.461,1.616-10.08-0.923-9.388,4.079C74.448,70.923,78.757,69.153,80.987,68.923z M84.196,65.359
		c0.512-3.078,3.078-2.154,2.975-4.104c-0.102-1.949,2.259-4.412,2.259-4.412c0.409,0.103,1.64-0.308,0.101,1.129
		c-1.539,1.438-0.924,4.515-1.641,5.231c-0.72,0.719-1.644,1.539-2.154,1.847C85.221,65.359,83.682,68.437,84.196,65.359z"/>
	<path fill="none" d="M94.816,29.807c-0.195,0.947-0.24,1.984-0.053,2.797c0.463,2,2.616,3.616,1.848,7.617
		c-0.77,4.001-1.617,2.924-1.617,2.924c0.387-0.923-0.152-6.001-0.152-6.001c-2.625-4.114-1.522-7.181-0.975-9.263
		c-0.695-1.336-1.428-2.576-2.197-3.73c-1.186,1.155-0.024,3.04-1.6,4.683c-1.771,1.848-1.076,2.077-1.076,2.077
		c0.846-0.308,2.461,0,2.461,0c0.693,1.077-1.076,1.154-2.848,1.771c-1.771,0.614-1.23,6.231-1.076,8.387s1,2.924,0,2.924
		s-1.693-3.924-1.693-8.771c0-4.848,2.925-6.85,3.156-9.389c0.23-2.54-2.387-3.463-3.156-4.078s-2.385-2.386,0.463-1.23
		c2.847,1.154,2.308,1.924,3.076,2.001c0.361,0.036,0.605-0.132,0.904-0.319c-0.76-0.99-1.545-1.906-2.355-2.754
		c-2.849,0.365-5.782-1.16-5.782-1.16c-2.463-1.77-4.771,1.309-3.154,1.771c3.283,0.938,4.848,2.692,5.539,3.001
		c0.693,0.308,1.771,1.385,0.387,1.385c-1.387,0-3.309-1.77-3.309-1.77c-3.849-1.154-5.771-0.924-6.388,0.847
		c-0.616,1.77,0.076,4.848,2.076,5.31c2.002,0.461,2.154,3.078,2.154,3.078c-0.23,1.923-1,0.23-1.385-0.692
		c-0.385-0.924-3.693-1.692-4.385,0.692c-0.693,2.385-1.771,1.923-1.771,1.923c-3.925,0.692-5.08,4.155-5.925,5.617
		c-0.849,1.462-3.541,5.387-2.078,7.464c1.462,2.078,2.924-1.308,2.924-1.308c2.154-2.693,3.154-1.077,5.311-1.462
		c2.153-0.385,0-2.924,3.229-3.54c3.232-0.615,4.31-4.693,4.31-4.693c1.309-0.385,1.463-1.386,1.463-1.386
		c0.924-4.386-1.386-7.848-2.154-8.849c-0.771-1-0.154-1.386-0.154-1.386c1.849,0,4.232,4.849,4.154,6.771
		c-0.076,1.923,0.693,4.001,0.693,4.001c1.077-0.154,0.77,0.691,0.77,0.691c-0.693,0.463-1.924,0.616-1.924,0.616
		c-2.615,0.385-4.617,5.771-5.771,6.232c-1.155,0.461-1.616,2.309-0.924,2.77c0.691,0.462,3.463,2.849,5.617,3.155
		s0.77,0.923,0.77,0.923c-1.385,0.231-4.463-0.615-7.465-2.615c-3-2.001-4.54-1.001-4.54-1.001c-2.925,0-2.925,3.231-2.615,4.001
		c0.308,0.771,1.924,4.54,2.539,5.465c0.614,0.923,1.076,2.692-0.539,1.462c-1.615-1.231-1.847-4.926-4.693-6.927
		c-2.848-2-3.898,0.438-3.898,0.438c-0.614,0.615-0.924,2.77-2.153,2.052c-1.231-0.718-3.283-0.513-3.283-0.513
		c-1.23,1.334-2.668,1.538-2.668,1.538c-4.002,0.104-5.129,2.154-5.129,2.154c-0.515,3.282-3.283,3.182-3.283,3.182
		c-6.055-1.539-7.387,2.153-7.387,2.153c-3.593,1.335-4.311,4.822-4.311,4.822c0.514,0.743,0.18,2.41,0.18,2.41
		c-1.848,1.386-1.848,4.925-1.848,4.925c0.712,3.013,1.423,4.588,2.154,5.392c0.272,0.205,0.548,0.405,0.824,0.604
		c1.25,0.527,2.579-0.425,4.081,0.177c0.247-0.303,0.522-0.576,0.807-0.84c0.312-0.395,0.641-0.761,0.982-1.104
		c0.6-2.134,2.444-3.79,4.918-3.605c2.886-1.725,6.138-2.549,9.104-4.83c2.268-1.743,5.393-3.024,8.143-1.494
		c1.773,0.986,2.423,3.022,3.999,3.999c1.339,0.016,2.678,0.11,4.012,0.271c0.75-0.536,1.716-0.855,2.903-0.828
		c0.858,0.019,1.714,0.047,2.568,0.066c0.037-0.004,0.078,0.002,0.116,0c-1.101-0.702-4.062-1.83-4.062-3.577
		c0-1.847-0.922-2.23-0.922-2.23c-2.539,0.154-5.002-0.308-5.002-0.308c-3.153-1.385-4.924-1.077-7.617-0.771
		c-2.692,0.308-3.23,2.155-6.694,3.078c-3.462,0.924-5.924,2.463-5.924,2.463c-2.771,2.925-4.463,4.155-7.617,4.618
		c-3.155,0.461-2.155-0.924-2.155-0.924c3.231,0.307,4.848-1.309,4.848-1.309c1.309-1.539-0.847-2.386-1.615-3.693
		C38.206,66.847,39.515,67,39.515,67c2.153,0.154,0.924,3.232,3.386,3.002s2.077-2.616,4.616-3.386
		c2.54-0.77,5.771-2.463,7.388-4.156c1.616-1.69,0.077-2.461,0.847-4.848c0.771-2.385,0.308-2.539-0.309-4.078
		c-0.615-1.538,2.385-0.461,2.154,2.848c-0.231,3.31-2.076,2.849,0.692,4.693c2.771,1.847,3.31-0.076,3.385-1.77
		c0.077-1.693,1.464-0.925,1.154-2.463c-0.308-1.538-0.385-2.001-0.385-2.001c1.386-1.153,1.616,1.231,1.77,3.078
		c0.154,1.848-2,4.539,2.539,5.078c4.541,0.539,9.467-1.077,10.236-3.924c0.77-2.848,2.846-4.848,4.77-6.079
		c1.925-1.23,2.078-1.077,2.154-3.616c0.078-2.539-3.385-4.693-4.848-4.771c-1.461-0.076-1-1.309-1-1.309
		c4.617-0.385,5.926,3.387,6.926,4.54c1,1.154,0.154,4.31,2.846,2.077c2.695-2.23,3.078-8.002,3.078-9.618
		c0-1.615-0.229-2.153,0.771-2.309c1.832-0.281,0.309,6.849-1.152,10.388c-1.463,3.54-1.156,3.155,0.537,3.232
		s5.695-2.078,6.926-9.312c0.176-1.037,0.244-1.914,0.25-2.679C97.291,35.923,96.137,32.666,94.816,29.807z M74.757,36.119
		c-0.307,1.128-2.358,1.128-1.539,2.872c0.822,1.745-0.717,2.155-1.848,1.539c0,0-0.82-2.154,0.924-3.591
		C74.04,35.504,75.065,34.991,74.757,36.119z M47.056,66.077c-1.438-0.308-2.565-2.359-2.565-3.488c0,0-0.82-3.077,0.411-3.18
		c1.229-0.104,0.718,2.051,1.229,3.385C46.646,64.128,48.491,66.385,47.056,66.077z M75.68,53.868
		c-0.515,1.334-0.82,2.463-1.642,1.334c-0.822-1.129,0.308-1.642,0.103-3.488c0,0-1.23-1.642-0.205-1.847
		C74.962,49.661,76.192,52.534,75.68,53.868z"/>
	<path fill="none" d="M99.79,58.793c0.205-3.386-0.512-3.796-3.283-3.796c-2.77,0-3.282,3.182-3.282,3.182
		c0.616,10.465-0.72,11.388-0.72,11.388c1.336,0.41,2.156-0.82,3.183-2.052c1.025-1.232,1.231-1.438,0.41-2.053
		c-0.82-0.614-0.515-3.692-0.41-5.438c0.104-1.745,1.539-2.771,1.539-0.411c0,2.1,0.01,4.6,1.311,5.849
		c0.537-1.012,0.996-2.063,1.348-3.17C99.753,61.388,99.702,60.262,99.79,58.793z"/>
	<path fill="none" d="M99.071,46.532c0.174-0.141,0.371-0.236,0.578-0.307c-0.104-0.613-0.215-1.217-0.328-1.811
		c-0.012,0.121-0.018,0.192-0.018,0.192C98.225,45.917,99.071,46.532,99.071,46.532z"/>
	<path fill="none" d="M39.976,20.935c4.002-1.334,3.282-4.001,4.311-5.027c1.025-1.025,3.076-3.078,8.002-1.333
		c0,0,1.437-1.642-0.82-2.668c-2.258-1.026-6.565-0.41-8.413,1.539c0,0-1.437,1.129-3.078,0.923c0,0-1.642,1.129-1.743,3.078
		c-0.103,1.949-0.104,4.309-3.386,4.515c0,0-4.104-1.025-4.207,2.359c-0.103,3.386,0,1.026,2.463,5.438
		c2.462,4.412,4.104-1.024,3.692-2.871C36.385,25.04,35.976,22.269,39.976,20.935z"/>
	<path fill="none" d="M45.209,51.817c0,0-1.437,1.229-1.745,2.462c0,0-2.052,1.744-1.129-1.025c0,0,1.745-0.82,0.412-4.72
		c-1.335-3.898-1.848-6.771-1.643-8.413c0.206-1.642-0.82-2.77-2.154-1.129c0,0-4.925,10.465-1.437,16.416c0,0,3.181,2.463,7.898,0
		C45.413,55.407,47.876,52.432,45.209,51.817z"/>
	<path fill="none" d="M97.739,48.739c-0.719,1.744-1.129,1.949-3.387,2.976c-2.256,1.025-1.025,2.464-1.025,2.464
		c0.924,0,1.744-1.335,1.744-1.335c1.436-0.821,3.797,0.104,3.797,0.104c0.809,0.675,1.361,0.934,1.783,0.948
		c-0.193-2.047-0.43-4.006-0.711-5.87C98.87,47.928,97.989,48.129,97.739,48.739z"/>
	<path fill="none" d="M64.394,19.807c-4.31,1.436-7.488,8.002-7.078,11.388s2.154,3.386,2.77,7.592
		c0.616,4.207,5.336,0.821,5.336-2.257s-1.129-3.283-1.848-3.796c0,0-1.743-1.643-0.719-2.258c0,0,0.616-0.204,1.539,1.23
		c0.924,1.438,3.078,2.36,5.026,0.515c1.949-1.848,2.462-1.949,3.796-2.155c0,0,1.849-1.23,1.025-1.848
		c-0.82-0.614-1.846-4.925-0.615-6.359C74.86,20.422,68.704,18.37,64.394,19.807z M69.73,23.705c0,0,0.924-1.129,1.024,0.82
		c0.104,1.949-0.819,2.052-1.641,2.668c-0.822,0.615-1.23-0.205-2.463-0.411c0,0-1.282-0.705-1.744-0.615
		c0,0-1.129-0.205-1.641-0.103c-0.515,0.103-1.026-1.231,1.024-1.231C66.345,24.833,67.884,27.604,69.73,23.705z"/>
	<path fill="none" d="M54.443,10.06c0.796-0.106,1.339-0.562,2.045-1.046c-1.682-0.001-3.287,0.019-4.788,0.019
		c-0.285,0-0.573,0.021-0.86,0.034C52.118,9.55,53.162,10.231,54.443,10.06z"/>
	<path fill="none" d="M53.109,20.73c-1.539,0.819-1.846,3.181-1.846,3.181c0.204,2.052-1.745,4.001-1.745,4.001
		c-3.693,3.18-0.719,7.078-0.719,7.078c0.515,8.105,1.949,8.823,1.949,8.823c2.359,1.744,1.644,2.154,1.644,2.154
		c-2.054,0.103-2.463-1.129-3.694-3.488S47.26,34.99,47.26,34.99c-1.436-1.333-1.436-4.206-1.334-5.54
		c0.104-1.334,2.976-3.796,2.976-3.796c-0.103-1.642-0.307-2.154,1.438-4.72c1.744-2.564,0.925-4.31,0.925-4.31
		c-1.539-3.078-5.336,0.41-5.336,0.41c-2.154,4.514-4.206,5.745-6.155,6.566c-1.95,0.819-1.335,4.719-1.335,4.719
		c-1.127,4.104,0.616,3.797,0.616,3.797c0.41,0-0.104-1.744,0.615-2.36c0.72-0.614,0.923-1.539,0.41-2.257
		c-0.514-0.719,0.205-1.539,0.205-1.539c1.949,0.309,1.334,3.693,1.334,3.693c-1.229,0.718-0.82,4.104-0.82,4.104
		c2.666,5.232,2.463,8.619,2.463,8.619c-0.104,8.927,5.025,10.261,7.078,9.746c2.054-0.513,3.078-2.154,6.259-2.154
		c3.182,0,4.309-2.358,4.925-4.821c0.616-2.462-2.462-4.411-2.977-5.232c-0.512-0.819,0.104-2.153-1.229-4.309
		s-1.744-5.027-1.643-7.08c0.104-2.052-0.615-2.257-1.437-4.104c-0.821-1.847,0-2.975,0.615-2.462
		c0.614,0.514,0.719,1.949,0.719,1.949c1.025,2.462,2.256,1.231,2.256,1.231c-0.615-3.488,1.232-3.899,2.566-4.207
		c1.334-0.309-1.027-1.334-1.027-1.334c-1.436-0.309-0.512-1.23-0.512-1.23c1.949,0.513,3.59,0.513,5.848-0.924
		c2.258-1.438,6.053-0.205,6.053-0.205c3.488,1.437,2.667-1.539,2.667-1.539c0-3.283-1.846-5.54-4.207-5.643
		c-2.358-0.104-1.229,1.437-1.229,1.437c1.539,1.949,0.103,4.206-1.641,4.206c-1.745,0-0.515-2.052-0.515-2.052
		c0.718-2.462-1.949-3.078-1.949-3.078c-6.67-1.333-7.798,2.668-9.645,3.796C52.392,15.497,53.109,20.73,53.109,20.73z"/>
	<path fill="none" d="M39.754,12.362c-0.104,0.055-0.208,0.104-0.311,0.16c0.023,0,0.047-0.001,0.071,0
		C39.515,12.522,39.605,12.46,39.754,12.362z"/>
	<path fill="none" d="M27.46,32.118c0.82-0.513,1.642-1.643,1.642-1.643c2.463,0.82,1.848-1.025,1.848-1.025
		c-0.719-2.052-2.258,0-2.053-3.078S28.178,23.5,28.178,23.5c-1.05,0-1.994,0.438-2.795,1.021c-0.918,1.139-1.777,2.312-2.584,3.51
		c0.354,0.427,1.377,0.599,1.377,0.599C25.614,29.758,27.46,32.118,27.46,32.118z"/>
	<path fill="none" d="M74.655,13.138c0.924,2.153,0.205,4.615,0.205,4.615c-1.232,1.745-0.514,2.155,0.922,2.155
		c1.438,0,0.822-2.36,1.336-3.592c0.512-1.23,2.152-2.564,4.924-0.41c1.75,1.36,3.008,1.697,4.008,1.736
		c-2.756-2.438-5.733-4.191-8.805-5.45c-0.115-0.027-0.213-0.056-0.334-0.082C73.218,11.291,74.655,13.138,74.655,13.138z"/>
	<path fill="none" d="M34.437,20.01c0,0,2.461,0.104,2.051-3.281c0,0,0.104-1.438,0.822-1.643c0,0-0.31-0.924-2.259,0.41
		c0,0-1.743,1.539-2.358,2.564c0,0-0.431-0.025-1.13,0.018c-1.348,1.181-2.643,2.441-3.869,3.771c0.378-0.135,0.771-0.269,1.202-0.4
		C28.896,21.448,31.564,19.909,34.437,20.01z"/>
	<path fill="none" d="M20.175,38.069c0.821-1.129,1.131,0.103,1.131,0.103c-0.925,4.617,1.846,5.438,1.846,5.438
		c4.412,1.847,4.31-2.872,4.206-5.54s1.129-2.154,1.129-1.539c0,0.616,0,4.515,0.615,6.259s3.692,3.796,1.745,3.693
		c-1.95-0.104-0.411-1.744-3.183-1.539c-2.77,0.205-0.308,3.488,3.798,5.745c4.104,2.257,3.59-1.539,3.59-4.001
		c0-2.463,0.925-7.489,2.771-9.336c1.848-1.848,0.411-3.899,0.411-3.899c-3.694-2.052-4.001,1.231-4.925,3.488
		c-0.925,2.258-1.949,1.539-0.925-1.128c1.027-2.668,0.615-3.488-2.461-3.283c-3.079,0.205-3.693,5.438-4.72,6.874
		c-1.027,1.437-1.027,0.103-0.104-3.488c0.923-3.591-0.309-3.898-1.643-5.438c-0.678-0.782-1.274-0.9-1.7-0.828
		c-1.811,2.937-3.244,5.979-4.176,8.987c0.269-0.042,0.438-0.055,0.438-0.055C20.278,39.403,20.175,38.069,20.175,38.069z"/>
	<path fill="#231F20" d="M72.294,36.94c-1.744,1.437-0.924,3.591-0.924,3.591c1.131,0.616,2.67,0.206,1.848-1.539
		c-0.819-1.744,1.232-1.744,1.539-2.872C75.065,34.991,74.04,35.504,72.294,36.94z"/>
	<path fill="#231F20" d="M73.936,49.867c-1.025,0.205,0.205,1.847,0.205,1.847c0.205,1.848-0.925,2.359-0.103,3.488
		c0.82,1.129,1.127,0,1.642-1.334C76.192,52.534,74.962,49.661,73.936,49.867z"/>
	<path fill="#231F20" d="M89.428,56.844c0,0-2.359,2.463-2.259,4.412c0.104,1.948-2.463,1.024-2.975,4.104
		c-0.514,3.078,1.025,0,1.539-0.309c0.512-0.308,1.436-1.128,2.154-1.847c0.717-0.718,0.102-3.795,1.641-5.231
		C91.069,56.536,89.839,56.946,89.428,56.844z"/>
	<path fill="#231F20" d="M44.902,59.409c-1.231,0.102-0.411,3.18-0.411,3.18c0,1.129,1.129,3.182,2.565,3.488
		c1.436,0.308-0.41-1.949-0.925-3.283C45.619,61.46,46.132,59.306,44.902,59.409z"/>
	<path fill="#231F20" d="M38.182,79.176c-1.5-0.599-2.829,0.352-4.079-0.176c0.976,0.694,1.975,1.323,2.986,1.903
		C37.393,80.265,37.761,79.692,38.182,79.176z"/>
	<path fill="#231F20" d="M100.696,54.37c-0.016-0.16-0.033-0.312-0.049-0.473c-0.422-0.016-0.976-0.273-1.783-0.948
		c0,0-2.361-0.925-3.797-0.103c0,0-0.82,1.334-1.744,1.334c0,0-1.23-1.438,1.025-2.464c2.258-1.025,2.668-1.23,3.387-2.976
		c0.25-0.609,1.131-0.811,2.201-0.715c-0.093-0.609-0.189-1.207-0.291-1.798c-0.207,0.069-0.404,0.166-0.578,0.307
		c0,0-0.846-0.615,0.231-1.924c0,0,0.007-0.071,0.019-0.192c-0.322-1.677-0.685-3.271-1.076-4.794
		c-0.002,0.763-0.07,1.639-0.246,2.676c-1.229,7.232-5.231,9.389-6.926,9.312s-2,0.308-0.537-3.232
		c1.461-3.539,2.984-10.669,1.152-10.388c-1,0.154-0.771,0.692-0.771,2.309c0,1.617-0.383,7.388-3.078,9.618
		c-2.69,2.231-1.846-0.923-2.846-2.077c-1-1.153-2.309-4.925-6.926-4.54c0,0-0.461,1.231,1,1.309
		c1.463,0.077,4.926,2.231,4.848,4.771c-0.076,2.539-0.229,2.386-2.154,3.616c-1.924,1.231-4,3.231-4.77,6.079
		c-0.771,2.847-5.695,4.463-10.236,3.924c-4.539-0.539-2.385-3.23-2.539-5.078c-0.152-1.847-0.384-4.231-1.77-3.078
		c0,0,0.077,0.463,0.385,2.002c0.31,1.537-1.077,0.769-1.154,2.462c-0.075,1.692-0.614,3.615-3.385,1.77
		c-2.77-1.846-0.924-1.385-0.692-4.693c0.23-3.308-2.771-4.386-2.154-2.848c0.615,1.539,1.078,1.693,0.309,4.078
		c-0.77,2.387,0.771,3.156-0.847,4.848c-1.616,1.693-4.848,3.388-7.388,4.156c-2.539,0.771-2.154,3.154-4.616,3.386
		c-2.462,0.23-1.231-2.848-3.386-3.002c0,0-1.31-0.152-0.539,1.155c0.77,1.308,2.924,2.154,1.615,3.693c0,0-1.615,1.614-4.848,1.309
		c0,0-1,1.385,2.155,0.924c3.153-0.463,4.848-1.692,7.617-4.618c0,0,2.462-1.539,5.924-2.463c3.464-0.923,4.002-2.77,6.694-3.077
		c2.693-0.307,4.464-0.614,7.617,0.771c0,0,2.463,0.462,5.002,0.308c0,0,0.923,0.386,0.923,2.231c0,1.744,2.951,2.871,4.056,3.573
		c0.246-0.02,0.496-0.03,0.76-0.003c0.033,0.003,0.08,0.012,0.118,0.017c0.822,0.006,1.645-0.011,2.469-0.064
		c0.475-0.28,1.095-0.463,1.908-0.599c1.187-0.198,2.821-0.637,4.444-0.936c0.402-0.108,0.807-0.17,1.209-0.189
		c1.101-0.141,2.143-0.171,2.966,0.048c0,0,1.461-1.001-1.154-1.539c-2.617-0.539-5.232,1.154-7.465,1.386
		c-2.23,0.23-6.539,2-7.232-3.001c-0.692-5.002,6.927-2.463,9.388-4.078c0,0,1.002-0.924-0.691-1s-3.924,0-4.463,0.614
		c0,0,0-0.385,1.229-2.385c1.23-2.001-0.229-2.693,2-3.925c2.232-1.231,4.388-2.539,5.771-2.692
		c1.385-0.153,4.617,1.076,4.693,3.616c0.077,2.539,0.463,10.85-1.23,13.773c-0.068,0.119-0.145,0.23-0.216,0.346
		c0.846,0.706,1.436,1.703,1.58,2.937c0.162-0.11,0.322-0.226,0.493-0.322c2.6-2.115,4.741-4.552,6.225-7.344
		c-1.301-1.249-1.311-3.749-1.311-5.849c0-2.359-1.437-1.333-1.539,0.411c-0.104,1.744-0.41,4.822,0.409,5.438
		c0.822,0.615,0.615,0.82-0.409,2.053c-1.025,1.231-1.847,2.462-3.183,2.052c0,0,1.336-0.923,0.72-11.388
		c0,0,0.514-3.182,3.282-3.182c2.771,0,3.488,0.41,3.283,3.796c-0.088,1.47-0.037,2.596,0.094,3.499
		C100.648,59.888,100.958,57.253,100.696,54.37z"/>
	<path fill="#231F20" d="M50.839,9.067c-3.651,0.165-7.428,1.355-11.085,3.295c-0.148,0.099-0.238,0.16-0.238,0.16
		c-0.024-0.001-0.048,0-0.071,0c-2.734,1.481-5.395,3.379-7.881,5.558c0.699-0.043,1.13-0.018,1.13-0.018
		c0.615-1.025,2.358-2.564,2.358-2.564c1.949-1.334,2.259-0.41,2.259-0.41c-0.72,0.205-0.822,1.643-0.822,1.643
		c0.41,3.386-2.051,3.282-2.051,3.282c-2.873-0.103-5.541,1.438-5.541,1.438c-0.431,0.133-0.824,0.267-1.202,0.4
		c-0.8,0.865-1.572,1.758-2.311,2.673c0.801-0.583,1.745-1.021,2.795-1.021c0,0,0.923-0.206,0.718,2.872s1.334,1.026,2.053,3.078
		c0,0,0.615,1.847-1.848,1.025c0,0-0.82,1.13-1.642,1.643c0,0-1.847-2.36-3.283-3.488c0,0-1.023-0.172-1.377-0.599
		c-0.359,0.534-0.707,1.073-1.042,1.616c0.426-0.072,1.022,0.046,1.7,0.828c1.334,1.539,2.565,1.848,1.643,5.438
		c-0.924,3.59-0.925,4.925,0.104,3.488c1.025-1.438,1.642-6.669,4.72-6.874c3.076-0.205,3.488,0.615,2.461,3.283
		c-1.024,2.667,0,3.386,0.925,1.128c0.924-2.257,1.229-5.54,4.925-3.488c0,0,1.437,2.053-0.411,3.899
		c-1.846,1.847-2.77,6.873-2.77,9.336c0,2.462,0.514,6.258-3.591,4.001s-6.566-5.54-3.798-5.745
		c2.771-0.205,1.231,1.437,3.183,1.539c1.947,0.103-1.13-1.949-1.745-3.693s-0.615-5.643-0.615-6.259
		c0-0.615-1.231-1.129-1.129,1.539c0.104,2.668,0.206,7.387-4.206,5.54c0,0-2.771-0.82-1.846-5.438c0,0-0.31-1.23-1.131-0.103
		c0,0,0.104,1.334-2.153,0.513c0,0-0.171,0.012-0.438,0.054c-0.26,0.842-0.48,1.679-0.66,2.511c0.199-0.06,0.396-0.102,0.586-0.102
		c2.259,0,4.72,4.104,3.488,8.412c0,0-0.923,2.873,1.23-0.205c0,0,1.129-2.563,0.615-3.897c0,0,1.13-0.515,3.282,3.078
		c2.155,3.591,4.104,4.207,6.259,4.515c2.155,0.308,3.693,3.077,3.693,4.104c0,1.025-2.462,0.205-4.719-0.718
		c-2.258-0.924-3.898-3.386-9.233-2.153c-2.174,0.501-3.994-0.336-5.152-1.691c0.146,0.799,0.317,1.592,0.516,2.377
		c0.331,0.085,0.651,0.135,0.943,0.135c1.13,0,0.619,0.775-0.465,1.603c0.173,0.569,0.357,1.136,0.556,1.695
		c0.004-0.005,0.009-0.01,0.013-0.015c0,0-0.001,0.016-0.003,0.043c0.717,2.037,1.588,4.014,2.605,5.902
		c0.084-0.869,0.27-1.534,0.27-1.534c-2.976-4.617,0.309-6.874,0.309-6.874c5.849-1.026,5.745,1.642,10.26,2.563
		c4.514,0.925,2.668,1.849,2.668,1.849c-3.181,1.642-7.694,1.229-9.233,0.819c-1.539-0.409-3.283-0.309-1.437,0.821
		c1.846,1.128,6.258,0.923,6.258,0.923c2.154-0.82,1.949,1.025,1.949,1.025c-1.333,0.411-1.333,2.463-1.333,2.463
		c-1.165,2.549-5.218,2.1-7.476,1.624c0.539,0.8,1.101,1.581,1.687,2.34c0.738,0.035,1.696-0.019,2.606-0.372
		c0,0,2.36-0.309,1.95,1.23c-0.328,1.231-0.868,1.8-2.171,1.979c1.811,1.978,3.772,3.758,5.838,5.31
		c-0.731-0.804-1.442-2.379-2.154-5.392c0,0,0-3.54,1.848-4.925c0,0,0.334-1.667-0.18-2.41c0,0,0.719-3.487,4.311-4.821
		c0,0,1.332-3.693,7.387-2.154c0,0,2.771,0.102,3.283-3.182c0,0,1.127-2.052,5.129-2.154c0,0,1.438-0.204,2.668-1.538
		c0,0,2.052-0.205,3.283,0.513c1.229,0.718,1.539-1.437,2.154-2.052c0,0,1.051-2.438,3.897-0.438
		c2.848,2.001,3.078,5.694,4.693,6.927c1.615,1.23,1.153-0.539,0.539-1.462c-0.615-0.925-2.231-4.694-2.539-5.465
		c-0.31-0.77-0.31-4.001,2.615-4.001c0,0,1.54-1,4.54,1.001c3.002,2,6.08,2.848,7.466,2.615c0,0,1.385-0.615-0.771-0.923
		s-4.926-2.693-5.617-3.155c-0.692-0.461-0.231-2.309,0.924-2.77c1.152-0.462,3.154-5.849,5.771-6.232c0,0,1.229-0.153,1.924-0.616
		c0,0,0.31-0.847-0.77-0.691c0,0-0.771-2.078-0.693-4.001c0.078-1.924-2.307-6.771-4.154-6.771c0,0-0.614,0.386,0.154,1.386
		c0.771,1.001,3.078,4.463,2.154,8.849c0,0-0.154,1.001-1.463,1.386c0,0-1.076,4.078-4.31,4.693
		c-3.229,0.616-1.076,3.155-3.229,3.54c-2.156,0.385-3.156-1.231-5.311,1.462c0,0-1.462,3.386-2.924,1.308
		c-1.463-2.077,1.23-6.002,2.078-7.464c0.846-1.462,2-4.925,5.925-5.617c0,0,1.076,0.462,1.771-1.923
		c0.69-2.386,4-1.616,4.385-0.692s1.154,2.615,1.385,0.692c0,0-0.152-2.617-2.154-3.078c-2-0.462-2.692-3.54-2.075-5.31
		c0.614-1.771,2.539-2.001,6.387-0.847c0,0,1.922,1.77,3.309,1.77c1.386,0,0.308-1.077-0.387-1.385
		c-0.691-0.309-2.256-2.062-5.539-3.001c-1.617-0.462,0.691-3.539,3.154-1.771c0,0,2.934,1.524,5.781,1.159
		c-0.611-0.641-1.236-1.244-1.875-1.809c-1-0.039-2.259-0.376-4.009-1.736c-2.771-2.154-4.412-0.82-4.924,0.41
		c-0.514,1.23,0.103,3.592-1.336,3.592c-1.436,0-2.154-0.41-0.922-2.155c0,0,0.719-2.462-0.205-4.615c0,0-1.438-1.848,2.256-1.026
		c0.121,0.026,0.219,0.055,0.334,0.082C70.276,9.336,62.84,9.02,56.488,9.014c-0.706,0.484-1.249,0.938-2.045,1.046
		C53.162,10.231,52.118,9.55,50.839,9.067z M36.796,26.885c0.41,1.848-1.23,7.284-3.692,2.872c-2.463-4.41-2.564-2.052-2.463-5.438
		c0.104-3.386,4.207-2.359,4.207-2.359c3.282-0.206,3.282-2.564,3.386-4.515c0.103-1.95,1.743-3.078,1.743-3.078
		c1.643,0.206,3.078-0.923,3.078-0.923c1.848-1.949,6.155-2.565,8.413-1.539c2.257,1.026,0.82,2.668,0.82,2.668
		c-4.926-1.745-6.977,0.308-8.002,1.333c-1.027,1.026-0.309,3.693-4.311,5.027C35.976,22.269,36.385,25.039,36.796,26.885z
		 M45.413,55.407c-4.719,2.463-7.898,0-7.898,0c-3.488-5.951,1.437-16.416,1.437-16.416c1.334-1.641,2.36-0.513,2.154,1.129
		c-0.205,1.644,0.308,4.515,1.643,8.413c1.333,3.898-0.412,4.72-0.412,4.72c-0.923,2.771,1.129,1.025,1.129,1.025
		c0.31-1.231,1.745-2.462,1.745-2.462C47.876,52.432,45.413,55.407,45.413,55.407z M73.628,21.859
		c-1.229,1.436-0.205,5.745,0.615,6.359c0.822,0.616-1.025,1.848-1.025,1.848c-1.334,0.206-1.848,0.309-3.796,2.155
		s-4.104,0.923-5.026-0.515c-0.923-1.436-1.539-1.23-1.539-1.23c-1.024,0.615,0.719,2.258,0.719,2.258
		c0.719,0.513,1.848,0.718,1.848,3.796s-4.72,6.464-5.336,2.257c-0.614-4.206-2.358-4.206-2.77-7.592s2.77-9.952,7.078-11.388
		C68.704,18.37,74.86,20.422,73.628,21.859z M63.882,10.573c0,0,2.667,0.616,1.949,3.078c0,0-1.23,2.052,0.515,2.052
		c1.742,0,3.18-2.257,1.641-4.206c0,0-1.129-1.539,1.229-1.437c2.361,0.103,4.207,2.358,4.207,5.643c0,0,0.82,2.977-2.667,1.539
		c0,0-3.795-1.231-6.053,0.205c-2.258,1.436-3.897,1.437-5.848,0.924c0,0-0.924,0.923,0.512,1.23c0,0,2.361,1.025,1.027,1.334
		c-1.334,0.308-3.183,0.719-2.566,4.207c0,0-1.229,1.229-2.256-1.231c0,0-0.104-1.437-0.719-1.949
		c-0.615-0.512-1.437,0.615-0.615,2.462c0.821,1.848,1.539,2.053,1.437,4.104c-0.103,2.053,0.309,4.925,1.643,7.08
		c1.334,2.154,0.719,3.488,1.229,4.309c0.515,0.821,3.593,2.771,2.977,5.232c-0.616,2.463-1.743,4.822-4.925,4.822
		c-3.181,0-4.205,1.642-6.259,2.153c-2.053,0.515-7.182-0.819-7.079-9.746c0,0,0.204-3.387-2.462-8.619c0,0-0.409-3.386,0.82-4.104
		c0,0,0.615-3.386-1.334-3.693c0,0-0.719,0.82-0.205,1.539c0.513,0.719,0.31,1.643-0.41,2.257c-0.719,0.616-0.205,2.36-0.615,2.36
		c0,0-1.743,0.308-0.616-3.797c0,0-0.615-3.898,1.335-4.719c1.949-0.821,4.001-2.054,6.155-6.566c0,0,3.797-3.488,5.336-0.41
		c0,0,0.819,1.744-0.925,4.31c-1.743,2.564-1.539,3.078-1.438,4.72c0,0-2.871,2.462-2.976,3.796
		c-0.102,1.334-0.102,4.207,1.334,5.54c0,0,0.205,5.13,1.438,7.489c1.231,2.359,1.642,3.591,3.694,3.489
		c0,0,0.717-0.411-1.644-2.155c0,0-1.436-0.718-1.949-8.823c0,0-2.975-3.898,0.719-7.079c0,0,1.949-1.949,1.745-4.001
		c0,0,0.307-2.36,1.846-3.181c0,0-0.717-5.232,1.129-6.361C56.084,13.24,57.212,9.24,63.882,10.573z"/>
	<path fill="#231F20" d="M17.199,45.661c0,0-0.058-1.052-0.781-1.037c-0.032,0.474-0.052,0.943-0.052,1.408
		c0,0.179,0.013,0.355,0.015,0.533C16.606,46.241,16.865,45.932,17.199,45.661z"/>
	<path fill="#231F20" d="M94.841,37.146c0,0,0.539,5.078,0.152,6.001c0,0,0.848,1.077,1.617-2.924
		c0.769-4.001-1.385-5.617-1.848-7.617c-0.188-0.812-0.144-1.85,0.053-2.797c-0.308-0.664-0.625-1.303-0.949-1.926
		C93.317,29.966,92.216,33.031,94.841,37.146z"/>
	<path fill="#231F20" d="M86.3,20.525c-2.848-1.154-1.231,0.615-0.463,1.23c0.771,0.615,3.388,1.538,3.156,4.078
		c-0.231,2.539-3.156,4.54-3.156,9.389c0,4.848,0.693,8.771,1.693,8.771s0.154-0.77,0-2.924s-0.693-7.771,1.076-8.387
		c1.771-0.616,3.541-0.693,2.848-1.771c0,0-1.615-0.308-2.461,0c0,0-0.693-0.229,1.076-2.077c1.574-1.643,0.414-3.526,1.6-4.683
		c-0.451-0.679-0.914-1.327-1.389-1.946c-0.299,0.188-0.543,0.355-0.904,0.319C88.606,22.448,89.145,21.679,86.3,20.525z"/>
	<path fill="#231F20" d="M64.292,24.833c-2.052,0-1.539,1.334-1.024,1.231c0.512-0.104,1.641,0.103,1.641,0.103
		c0.462-0.09,1.744,0.615,1.744,0.615c1.231,0.206,1.641,1.026,2.463,0.411c0.82-0.616,1.744-0.719,1.641-2.668
		c-0.102-1.949-1.024-0.82-1.024-0.82C67.884,27.604,66.345,24.833,64.292,24.833z"/>
</g>
</svg>
