<?xml version="1.0" encoding="utf-8"?>
<!-- Generator: Adobe Illustrator 16.0.0, SVG Export Plug-In . SVG Version: 6.00 Build 0)  -->
<!DOCTYPE svg PUBLIC "-//W3C//DTD SVG 1.1//EN" "http://www.w3.org/Graphics/SVG/1.1/DTD/svg11.dtd">
<svg version="1.1" id="Layer_1" xmlns="http://www.w3.org/2000/svg" xmlns:xlink="http://www.w3.org/1999/xlink" x="0px" y="0px"
	 width="2048px" height="1453px" viewBox="0 0 2048 1453" enable-background="new 0 0 2048 1453" xml:space="preserve">
<image overflow="visible" width="2048" height="1453" xlink:href="A9543EF049F8F9EE.jpg" >
</image>
<text transform="matrix(1 0 0 1 461.1289 223.5059)"><tspan x="0" y="0" font-family="'Apple-Chancery'" font-size="200">Inloopochtend</tspan><tspan x="-341.992" y="240" font-family="'Apple-Chancery'" font-size="200">Autisme en Opvoeding</tspan></text>
<path opacity="0.6" stroke="#FFFFFF" stroke-width="1.0802" stroke-miterlimit="10" d="M1974.809,552.928
	c0,7.732-5.373,14.002-12,14.002H85.189c-6.627,0-12-6.27-12-14.002V14.001c0-7.732,5.373-14.001,12-14.001h1877.62
	c6.627,0,12,6.269,12,14.001V552.928z"/>
<text transform="matrix(1 0 0 1 445.0449 223.5059)"><tspan x="0" y="0" fill="#F1F2F2" font-family="'Apple-Chancery'" font-size="200">Inloopochtend</tspan><tspan x="-341.992" y="240" fill="#F1F2F2" font-family="'Apple-Chancery'" font-size="200">Autisme en Opvoeding</tspan></text>
<g>
	<path fill="#6BC9CA" d="M566.886,1325.855c-5.357,9.645-5.539,22.022-5.539,22.022s-7.395-14.652-0.221-30.059
		c7.944-17.061,20.551-34.671,43.969-55.375c0.733-0.649,4.791-3.532,1.684-6.391c-1.704-1.567-4.77-3.512-7.129-5.912
		c-1.03-1.049-7.27-5.666,1.369-14.434c19.745-20.039,16.449-34.788,13.62-44.194c-0.424-1.41,15.007,7.205,9.219-8.115
		c-7.515-19.893-12.748,0.362-14.073-1.241c-7.281-8.814-27.146-9.851-35.878-4.947c-4.8,2.694-8.543,6.881-11.253,11.727
		c-0.411,0.736,1.193,4.364,0.975,5.182c-0.442,1.658-3.788,0.962-4.13,1.822c-0.991,2.496-5.112,3.143-5.631,5.729
		c-0.558,2.781,3.389,5.293,3.389,7.957c0,5.452,4.378,7.788,7.22,8.03c1.548,0.133,5.847-1.735,5.747-1.474
		c-1.18,3.095-10.757,1.916-10.757,1.916c-0.736,8.473,12.808,16.389,13.261,18.346c2.177,9.394-1.83,16.765-5.727,20.327
		c-4.303,3.933-15.56,9.092-21.385,9.29c-6.471,0.22-19.596-4.71-24.17-9.29c-3.397-3.401-7.819-14.803-7.215-17.823
		c1.473-7.367,11.787-1.326,13.703-12.672c0.428-2.53,4.71-3.23,4.862-5.968c0.073-1.304-8.841-1.988-9.725-3.463
		c-0.753-1.254,9.504-3.167,8.398-6.925c-0.558-1.896-6.483-0.59-6.631-3.39c-0.037-0.697,5.604-1.475,5.901-3.269
		c0.582-3.509-7.117-4.945-7.117-8.372c0-1.84,3.856-2.174,3.691-4.582c-0.187-2.707-3.289-9.413-11.054-13.72
		c-14.556-8.074-29.021-4.325-36.697,2.629c-1.654,1.498-4.237-6.759-12.589-4.839c-2.697,0.62,8.995,4.234,4.986,14.03
		c-7.535,18.417-2.083,36.983,17.515,48.771c3.523,2.119,0.689,8.984-1.563,11.634c-2.816,3.312-9.462,2.655-6.81,9.286
		c5.783,14.456,37.12,38.156,49.316,59.39c45.872,79.856-52.49,96.909-52.49,96.909s49.146-19.999,49.121-58.158
		c-0.021-30.396-50.998-59.757-69.914-99.469c-10.816-22.706-16.058-49.633-5.817-73.211c1.334-3.07,2.94-5.44,2.94-5.44
		c-5.681-35.792-20.846-27.896-19.331-28.496c20.438-8.08,26.009,14.568,37.474,8.975c48.709-23.767,71.822,17.952,71.822,17.952
		s42.503-48.853,80.928-8.288c20.721,21.874,30.008,50.41,6.16,88.509c-6.599,10.542-25.984,24.486-33.213,31.535
		C574.228,1311.59,568.898,1322.234,566.886,1325.855z"/>
	<path fill="#416F80" d="M560.241,1326.519c-5.357,9.645-5.538,22.022-5.538,22.022s-7.396-14.652-0.222-30.059
		c7.944-17.06,20.551-34.671,43.969-55.375c0.734-0.649,4.791-3.532,1.684-6.391c-1.704-1.567-4.77-3.512-7.129-5.912
		c-1.03-1.049-7.27-5.666,1.369-14.434c19.745-20.04,16.449-34.788,13.62-44.194c-0.424-1.41,15.008,7.205,9.219-8.115
		c-7.515-19.893-12.748,0.362-14.073-1.241c-7.281-8.814-27.145-9.851-35.879-4.947c-4.799,2.694-8.541,6.881-11.252,11.727
		c-0.411,0.736,1.193,4.364,0.975,5.182c-0.441,1.658-3.788,0.962-4.13,1.822c-0.991,2.496-5.112,3.143-5.631,5.729
		c-0.558,2.781,3.389,5.293,3.389,7.957c0,5.452,4.378,7.788,7.22,8.031c1.549,0.132,5.847-1.736,5.747-1.475
		c-1.18,3.095-10.757,1.916-10.757,1.916c-0.736,8.473,12.808,16.389,13.261,18.346c2.177,9.394-1.829,16.765-5.726,20.327
		c-4.304,3.933-15.561,9.092-21.386,9.29c-6.47,0.22-19.597-4.71-24.171-9.29c-3.396-3.401-7.819-14.803-7.214-17.823
		c1.473-7.367,11.787-1.326,13.703-12.672c0.428-2.53,4.71-3.23,4.863-5.967c0.072-1.305-8.842-1.99-9.726-3.464
		c-0.753-1.254,9.504-3.167,8.399-6.925c-0.559-1.896-6.483-0.59-6.631-3.39c-0.037-0.696,5.604-1.475,5.901-3.269
		c0.582-3.509-7.117-4.945-7.117-8.372c0-1.84,3.855-2.174,3.69-4.581c-0.186-2.708-3.289-9.414-11.054-13.721
		c-14.555-8.074-29.021-4.325-36.697,2.629c-1.653,1.498-4.237-6.758-12.589-4.839c-2.697,0.62,8.994,4.233,4.986,14.03
		c-7.536,18.417-2.084,36.983,17.514,48.771c3.523,2.118,0.689,8.984-1.563,11.634c-2.816,3.312-9.462,2.655-6.81,9.286
		c5.782,14.456,37.119,38.156,49.316,59.39c45.871,79.856-52.489,96.909-52.489,96.909s49.146-19.999,49.12-58.158
		c-0.021-30.396-50.998-59.757-69.914-99.469c-10.815-22.706-16.058-49.633-5.817-73.211c1.333-3.07,2.939-5.44,2.939-5.44
		c-5.68-35.792-20.845-27.896-19.331-28.496c20.439-8.079,26.009,14.568,37.474,8.975c48.71-23.767,71.822,17.952,71.822,17.952
		s42.502-48.853,80.927-8.288c20.722,21.874,30.009,50.41,6.161,88.509c-6.599,10.542-25.985,24.486-33.213,31.535
		C567.582,1312.253,562.252,1322.897,560.241,1326.519z"/>
</g>
</svg>
