<?xml version="1.0" encoding="utf-8"?>
<!-- Generator: Adobe Illustrator 16.0.0, SVG Export Plug-In . SVG Version: 6.00 Build 0)  -->
<!DOCTYPE svg PUBLIC "-//W3C//DTD SVG 1.1//EN" "http://www.w3.org/Graphics/SVG/1.1/DTD/svg11.dtd">
<svg version="1.1" id="Layer_1" xmlns="http://www.w3.org/2000/svg" xmlns:xlink="http://www.w3.org/1999/xlink" x="0px" y="0px"
	 width="2800px" height="900px" viewBox="0 0 2800 900" enable-background="new 0 0 2800 900" xml:space="preserve">
<g>
	<g>
		<defs>
			<path id="SVGID_1_" d="M1398.012,734.231c-3.947-54.936,108.617-113.77,251.396-131.502
				c142.762-17.712,261.664,12.453,265.566,67.389c3.896,54.896-108.66,113.77-251.422,131.486
				C1520.779,819.317,1401.908,789.134,1398.012,734.231"/>
		</defs>
		<clipPath id="SVGID_2_">
			<use xlink:href="#SVGID_1_"  overflow="visible"/>
		</clipPath>
		
			<radialGradient id="SVGID_3_" cx="1143.5605" cy="718.7891" r="8.3469" gradientTransform="matrix(39.3289 0 0 -39.3289 -43328.7773 28853.0859)" gradientUnits="userSpaceOnUse">
			<stop  offset="0" style="stop-color:#FFFFFF"/>
			<stop  offset="0.1404" style="stop-color:#FFFFFF"/>
			<stop  offset="0.3315" style="stop-color:#61A137"/>
			<stop  offset="1" style="stop-color:#61A137"/>
		</radialGradient>
		<rect x="1394.065" y="585.018" clip-path="url(#SVGID_2_)" fill="url(#SVGID_3_)" width="524.796" height="234.3"/>
	</g>
	<path fill="#F26522" d="M317.703,513.56c16.712,11.41,39.345,7.053,50.766-9.811c11.375-16.606,7.012-39.43-9.88-50.716
		c-16.643-11.487-39.357-7.015-50.789,9.778C296.545,479.608,300.856,502.274,317.703,513.56"/>
	<path fill="#662D91" d="M400.594,421.474c0-16.624-6.775-23.401-21.552-23.401l7.394-22.78h140.09V422.7l-28.94,7.396
		c0-25.246-8.621-30.79-36.338-30.79c-18.773,0-21.235,1.844-21.235,22.168v41.257c4.922,0.611,9.236,0.611,13.854,0.611
		c11.077,0,18.473-2.151,19.389-14.773l27.102-6.77v64.958l-25.558,6.471c0-21.555-5.232-25.861-13.852-25.861h-20.935v57.885
		c8.919,2.463,18.775,3.073,27.702,3.073c20.946,0,28.947-6.773,32.023-27.405l28.947-9.24v60.666H377.806l7.395-22.791
		c8.618,0,15.393-3.685,15.393-18.465V421.474z"/>
	<path fill="#662D91" d="M542.5,572.345l7.394-20.932c11.083-1.24,14.468-4.322,14.468-17.861v-58.508
		c0-20.936-3.386-22.783-20.933-24.623l7.382-20.943c14.785-0.926,32.334-2.771,53.27-6.155l-1.226,23.095
		c13.241-13.858,28.019-23.095,45.567-23.095c31.713,0,43.105,25.246,43.105,56.04v55.418c0,14.162,4.005,16.633,16.321,16.633
		l-7.084,20.932h-70.819l6.16-20.932c13.861-1.859,17.238-8.011,17.238-25.865v-39.416c0-17.85-5.231-28.33-24.323-28.33
		c-18.783,0-26.475,16.021-26.475,40.645v36.334c0,12.934,2.772,16.011,21.243,16.633l-7.394,20.932H542.5z"/>
	<path fill="#662D91" d="M807.971,429.478l-7.704,24.014h-33.87v70.828c0,16.002,3.08,21.55,19.091,21.55
		c8.011,0,15.707-1.237,23.408-3.396l-11.09,30.182c-9.545,1.849-19.39,3.389-29.246,3.389c-24.322,0-40.334-11.709-40.334-39.415
		v-83.138h-21.244l7.074-20.933c11.709-0.622,18.477-7.692,27.093-35.712l27.103-7.396c-1.234,8.314-1.854,16.633-1.854,24.943
		v15.084H807.971z"/>
	<path fill="#662D91" d="M894.581,572.345h-80.056l7.396-20.932c11.697,0,15.087-6.162,15.087-27.094v-48.038
		c0-22.173-3.39-24.021-20.947-25.86l7.085-20.943c16.631-1.841,33.25-3.078,49.572-6.155c-0.31,11.384-0.62,23.398-0.62,35.409
		h0.62c3.08-24.947,22.172-35.409,52.96-35.409l-12.626,35.708c-32.642,0-37.874,4.93-37.874,54.814
		c0,30.169,2.77,36.946,26.792,37.568L894.581,572.345z"/>
	<path fill="#662D91" d="M1044.433,566.193c-17.238,7.692-33.871,9.851-50.799,9.851c-42.808,0-72.978-28.33-72.978-67.738
		c0-53.274,34.484-84.983,76.355-84.983c47.421,0,58.808,41.878,58.808,76.354h-20.008c-33.25,0-55.729,0.929-73.275,3.088
		c1.226,27.705,18.163,40.638,40.026,40.638c19.699,0,37.555-5.54,52.032-9.851L1044.433,566.193z M964.377,479.981
		c44.959-1.859,47.73-4.938,47.73-10.478c0-11.702-8.629-19.706-20.946-19.706C969.918,449.798,964.072,460.271,964.377,479.981"/>
	<path fill="#662D91" d="M1060.469,642.544l8.629-20.932c14.468-0.312,16.012-6.471,16.012-19.402V479.362
		c0-22.791-3.397-24.631-21.87-26.482l7.396-20.943c17.543-2.459,35.098-3.992,52.342-8.614c-1.846,6.773-1.227,14.466-1.227,22.165
		c13.543-12.621,26.474-19.706,43.402-19.706c33.264,0,57.587,28.95,57.587,65.28c0,52.952-41.574,84.982-71.128,84.982h-28.33
		v12.934c0,28.323,9.24,32.635,36.64,32.635l-7.692,20.932H1060.469z M1123.281,547.714h30.485
		c19.397,0,27.102-12.015,27.102-44.649c0-29.554-9.547-48.956-29.257-48.956c-16.627,0-28.33,13.862-28.33,42.187V547.714z"/>
	<path fill="#662D91" d="M1308.265,572.345h-80.054l7.395-20.932c11.697,0,15.083-6.162,15.083-27.094v-48.038
		c0-22.173-3.386-24.021-20.933-25.86l7.077-20.943c16.626-1.841,33.258-3.078,49.571-6.155c-0.31,11.384-0.619,23.398-0.619,35.409
		h0.619c3.077-24.947,22.168-35.409,52.957-35.409l-12.622,35.708c-32.643,0-37.866,4.93-37.866,54.814
		c0,30.169,2.771,36.946,26.784,37.568L1308.265,572.345z"/>
	<path fill="#662D91" d="M1458.119,566.193c-17.238,7.692-33.875,9.851-50.803,9.851c-42.806,0-72.977-28.33-72.977-67.738
		c0-53.274,34.485-84.983,76.365-84.983c47.414,0,58.807,41.878,58.807,76.354h-20.014c-33.252,0-55.737,0.929-73.283,3.088
		c1.226,27.705,18.167,40.638,40.031,40.638c19.693,0,37.562-5.54,52.035-9.851L1458.119,566.193z M1378.061,479.981
		c44.955-1.859,47.728-4.938,47.728-10.478c0-11.702-8.621-19.706-20.945-19.706C1383.61,449.798,1377.752,460.271,1378.061,479.981
		"/>
	<path fill="#662D91" d="M1478.068,572.345l7.391-20.932c11.082-1.24,14.471-4.322,14.471-17.861v-58.508
		c0-20.936-3.389-22.783-20.939-24.623l7.389-20.943c14.779-0.926,32.334-2.771,53.27-6.155l-1.234,23.095
		c13.244-13.858,28.025-23.095,45.568-23.095c31.717,0,43.111,25.246,43.111,56.04v55.418c0,14.162,4.004,16.633,16.314,16.633
		l-7.078,20.932h-70.82l6.158-20.932c13.855-1.859,17.244-8.011,17.244-25.865v-39.416c0-17.85-5.234-28.33-24.322-28.33
		c-18.783,0-26.486,16.021-26.486,40.645v36.334c0,12.934,2.773,16.011,21.262,16.633l-7.4,20.932H1478.068z"/>
	<path fill="#F26522" d="M1677.807,429.17c12.619-3.7,26.164-5.848,36.635-5.848c36.334,0,53.576,10.462,53.576,34.479v81.598
		c0,7.073,7.389,12.014,18.473,12.014l-7.391,20.932h-45.875v-13.551h-0.613c-8.932,13.861-20.322,17.25-37.262,17.25
		c-27.705,0-43.408-14.791-43.408-36.342c0-30.175,17.543-40.637,77.898-62.18c0-16.951-5.549-21.562-22.791-21.562
		c-9.23,0-28.014,3.382-40.637,5.23L1677.807,429.17z M1729.84,503.064c-32.021,13.862-36.023,16.325-36.023,29.876
		c0,11.073,5.852,14.773,16.312,14.773c14.783,0,19.711-6.773,19.711-22.166V503.064z"/>
	<path fill="#F26522" d="M1798.428,524.618l26.482-11.391v11.391c0,14.474,5.539,24.324,25.555,24.324
		c12.01,0,17.859-3.691,18.17-13.854c-0.311-32.324-74.209-18.781-74.209-68.666c0-23.395,20.633-43.101,53.268-43.101
		c12.932,0,40.023,4.314,52.346,5.54v32.328l-26.482,11.702c-1.23-18.161-8.004-24.324-21.553-24.324
		c-12.934,0-19.395,3.692-19.395,10.163c0,23.401,74.199,18.168,74.199,65.887c0,35.724-24.014,49.574-57.887,49.574
		c-16.621,0-35.713-1.848-50.494-3.077V524.618z"/>
	<path fill="#F26522" d="M1913.338,572.345l7.691-20.932c11.092-1.859,15.092-3.699,15.092-17.861v-63.43
		c0-14.162-4-16.014-19.402-17.861l6.471-20.932c17.549-1.852,36.635-4.314,53.266-8.007c-1.848,14.466-2.158,30.786-2.158,46.8
		v50.797c0,26.483,3.078,29.564,19.709,30.494l-9.238,20.932H1913.338z M1934.27,412.86c1.232-6.777,1.852-17.247,1.852-27.105
		c0-12.933,7.391-17.854,24.014-17.854c10.471,0,16.012,5.848,16.012,16.932C1976.146,399.924,1973.064,407.309,1934.27,412.86"/>
	<path fill="#F26522" d="M2000.248,429.478c16.314-0.926,32.643-3.078,50.799-6.155c-1.842,14.466-2.152,30.786-2.152,46.8v52.345
		c0,16.625,7.084,22.165,19.705,22.165c18.164,0,25.242-8.003,25.242-24.006v-52.344c0-11.711-3.381-17.861-21.551-17.861
		l6.16-20.943c18.783-0.926,37.562-3.385,55.729-6.155c-1.842,14.466-2.152,30.786-2.152,46.8v53.574
		c0,24.018,3.389,25.857,20.322,27.717l-7.082,20.932h-49.885V558.19h-0.611c-8.932,11.385-22.783,17.854-38.184,17.854
		c-28.324,0-45.875-15.702-45.875-46.186v-57.895c0-13.544-3.383-21.543-17.553-21.543L2000.248,429.478z"/>
	<path fill="#F26522" d="M2345.99,486.132c0-17.85-5.24-28.33-20.633-28.33c-17.859,0-25.553,16.021-25.553,40.645v36.334
		c0,14.162,5.23,16.633,18.783,16.633l-7.084,20.932h-72.049l6.154-20.932c13.861-1.859,16.01-8.011,16.01-25.865v-39.416
		c0-17.85-5.229-28.33-20.621-28.33c-17.863,0-25.562,16.021-25.562,40.645v36.334c0,14.162,5.238,16.633,18.781,16.633
		l-7.08,20.932h-71.43l7.389-20.932c11.084-1.24,14.162-4.322,14.162-17.861v-58.508c0-20.936-3.078-22.783-20.631-23.395
		l7.393-18.473c17.238-2.162,39.104-6.777,53.266-9.854v23.095c12.01-13.858,26.791-23.095,42.186-23.095
		c21.861,0,32.324,10.462,36.941,26.787c19.402-16.933,29.564-26.787,51.729-26.787c24.633,0,36.025,19.095,36.025,56.04v55.418
		c0,14.162,4.002,16.633,16.32,16.633l-7.08,20.932h-69.588l6.158-20.932c12.623-1.859,16.014-8.011,16.014-25.865V486.132z"/>
	<path fill="#FFFFFF" d="M1642.734,405.798c-8.908,1.734-14.873,10.422-13.123,19.347c1.697,9.021,10.342,14.847,19.395,13.13
		c8.893-1.665,14.822-10.312,13.105-19.332C1660.438,409.987,1651.809,404.128,1642.734,405.798"/>
	<g enable-background="new    ">
		<g>
			<defs>
				<rect id="SVGID_4_" x="1628.727" y="369.426" width="30.102" height="30.095"/>
			</defs>
			<clipPath id="SVGID_5_">
				<use xlink:href="#SVGID_4_"  overflow="visible"/>
			</clipPath>
			<path clip-path="url(#SVGID_5_)" fill="#F5F9F3" d="M1642.977,399.499c3.969,0.23,7.801-1.102,10.787-3.766
				c3.016-2.675,4.809-6.371,5.027-10.414c0.246-4.011-1.09-7.857-3.754-10.843c-2.672-3.012-6.389-4.793-10.443-5.024
				c-3.971-0.223-7.816,1.12-10.818,3.795c-3.016,2.693-4.797,6.386-5.027,10.393
				C1628.295,392.03,1634.545,398.998,1642.977,399.499"/>
		</g>
	</g>
	<g enable-background="new    ">
		<g>
			<defs>
				<rect id="SVGID_6_" x="1633.184" y="334.673" width="27.547" height="27.511"/>
			</defs>
			<clipPath id="SVGID_7_">
				<use xlink:href="#SVGID_6_"  overflow="visible"/>
			</clipPath>
			<path clip-path="url(#SVGID_7_)" fill="#EEF4EA" d="M1633.184,348.516c0,5.76,3.652,11.022,9.518,12.973
				c3.455,1.153,7.154,0.868,10.422-0.765c3.289-1.661,5.742-4.498,6.902-8.01c1.156-3.48,0.889-7.202-0.758-10.462
				c-1.654-3.279-4.508-5.734-8.043-6.895c-3.455-1.146-7.174-0.849-10.463,0.812c-3.293,1.658-5.738,4.494-6.869,7.963
				C1633.418,345.604,1633.184,347.071,1633.184,348.516"/>
		</g>
	</g>
	<g enable-background="new    ">
		<g>
			<defs>
				<rect id="SVGID_8_" x="1642.316" y="301.354" width="25.416" height="25.36"/>
			</defs>
			<clipPath id="SVGID_9_">
				<use xlink:href="#SVGID_8_"  overflow="visible"/>
			</clipPath>
			<path clip-path="url(#SVGID_9_)" fill="#E8F0E2" d="M1667.496,311.593c-0.652-3.319-2.574-6.195-5.418-8.109
				c-2.797-1.859-6.162-2.536-9.492-1.885c-3.334,0.655-6.211,2.558-8.084,5.365c-1.475,2.2-2.186,4.655-2.186,7.081
				c0,4.059,1.98,8.018,5.68,10.517c2.764,1.877,6.127,2.555,9.438,1.918c3.334-0.652,6.217-2.569,8.125-5.398
				C1667.465,318.286,1668.139,314.897,1667.496,311.593"/>
		</g>
	</g>
	<g enable-background="new    ">
		<g>
			<defs>
				<rect id="SVGID_10_" x="1655.754" y="269.539" width="23.795" height="23.739"/>
			</defs>
			<clipPath id="SVGID_11_">
				<use xlink:href="#SVGID_10_"  overflow="visible"/>
			</clipPath>
			<path clip-path="url(#SVGID_11_)" fill="#E2ECDA" d="M1676.705,273.725c-2.029-2.397-4.889-3.868-8.061-4.135
				c-3.17-0.267-6.248,0.71-8.652,2.734c-5.061,4.292-5.672,11.641-1.387,16.749c2.023,2.4,4.857,3.879,7.996,4.157
				c3.16,0.274,6.258-0.707,8.701-2.756c2.438-2.042,3.928-4.907,4.195-8.043C1679.777,279.276,1678.781,276.191,1676.705,273.725"
				/>
		</g>
	</g>
	<g enable-background="new    ">
		<g>
			<defs>
				<rect id="SVGID_12_" x="1673.119" y="239.345" width="22.734" height="22.71"/>
			</defs>
			<clipPath id="SVGID_13_">
				<use xlink:href="#SVGID_12_"  overflow="visible"/>
			</clipPath>
			<path clip-path="url(#SVGID_13_)" fill="#DDE8D3" d="M1695.119,254.722c1.076-2.814,0.971-5.91-0.293-8.706
				c-2.584-5.705-9.312-8.241-15.008-5.672c-5.777,2.609-8.273,9.204-5.664,15.029c1.223,2.752,3.455,4.856,6.273,5.932
				c2.838,1.083,5.934,0.992,8.711-0.26C1691.926,259.793,1694.055,257.547,1695.119,254.722"/>
		</g>
	</g>
	<g enable-background="new    ">
		<g>
			<defs>
				<rect id="SVGID_14_" x="1694.035" y="210.896" width="22.262" height="22.271"/>
			</defs>
			<clipPath id="SVGID_15_">
				<use xlink:href="#SVGID_14_"  overflow="visible"/>
			</clipPath>
			<path clip-path="url(#SVGID_15_)" fill="#D7E5CC" d="M1694.174,223.763c0.451,2.924,2.006,5.5,4.402,7.253
				c2.396,1.76,5.346,2.477,8.295,2.016c2.965-0.458,5.564-2.023,7.309-4.42c1.752-2.419,2.445-5.332,1.979-8.296
				c-0.943-6.064-6.641-10.229-12.703-9.284C1697.312,211.991,1693.229,217.579,1694.174,223.763"/>
		</g>
	</g>
	<g enable-background="new    ">
		<g>
			<defs>
				<rect id="SVGID_16_" x="1718.164" y="184.345" width="22.4" height="22.413"/>
			</defs>
			<clipPath id="SVGID_17_">
				<use xlink:href="#SVGID_16_"  overflow="visible"/>
			</clipPath>
			<path clip-path="url(#SVGID_17_)" fill="#D2E1C4" d="M1728.244,206.703c3.006,0.308,5.932-0.567,8.238-2.455
				c2.307-1.886,3.73-4.583,4.025-7.586c0.293-2.979-0.605-5.916-2.525-8.242c-1.893-2.307-4.557-3.733-7.5-4.014
				c-6.23-0.627-11.617,3.776-12.262,10.043v0.008c-0.301,2.961,0.564,5.866,2.445,8.176
				C1722.555,204.957,1725.254,206.399,1728.244,206.703"/>
		</g>
	</g>
	<g enable-background="new    ">
		<g>
			<defs>
				<rect id="SVGID_18_" x="1745.176" y="159.806" width="23.086" height="23.129"/>
			</defs>
			<clipPath id="SVGID_19_">
				<use xlink:href="#SVGID_18_"  overflow="visible"/>
			</clipPath>
			<path clip-path="url(#SVGID_19_)" fill="#CCDEBD" d="M1760.527,160.483c-6.094-2.128-12.555,1-14.697,7.118
				c-1.02,2.903-0.85,6.021,0.488,8.783c1.336,2.778,3.689,4.874,6.615,5.892c2.949,1.027,6.104,0.852,8.875-0.489
				c2.744-1.336,4.814-3.69,5.816-6.621C1769.711,169.145,1766.525,162.552,1760.527,160.483"/>
		</g>
	</g>
	<g enable-background="new    ">
		<g>
			<defs>
				<rect id="SVGID_20_" x="1774.805" y="137.511" width="24.193" height="24.262"/>
			</defs>
			<clipPath id="SVGID_21_">
				<use xlink:href="#SVGID_20_"  overflow="visible"/>
			</clipPath>
			<path clip-path="url(#SVGID_21_)" fill="#C7DBB6" d="M1793.246,139.329c-5.795-3.528-13.104-1.769-16.648,4.022h-0.01
				c-1.686,2.762-2.199,5.993-1.449,9.122c0.748,3.146,2.695,5.806,5.475,7.5c2.777,1.712,6.039,2.229,9.174,1.459
				c3.115-0.75,5.764-2.693,7.441-5.472C1800.701,150.244,1798.914,142.784,1793.246,139.329"/>
		</g>
	</g>
	<g enable-background="new    ">
		<g>
			<defs>
				<rect id="SVGID_22_" x="1806.715" y="117.6" width="25.709" height="25.766"/>
			</defs>
			<clipPath id="SVGID_23_">
				<use xlink:href="#SVGID_22_"  overflow="visible"/>
			</clipPath>
			<path clip-path="url(#SVGID_23_)" fill="#C2D7AF" d="M1828.283,121.032c-5.307-4.864-13.291-4.515-18.18,0.782
				c-2.201,2.38-3.389,5.436-3.389,8.653c0,0.176,0.008,0.359,0.008,0.543c0.146,3.43,1.629,6.607,4.172,8.955
				c2.559,2.335,5.85,3.544,9.281,3.393c3.396-0.146,6.543-1.633,8.867-4.18C1833.832,133.939,1833.488,125.794,1828.283,121.032"/>
		</g>
	</g>
	<g enable-background="new    ">
		<g>
			<defs>
				<rect id="SVGID_24_" x="1840.609" y="100.306" width="27.52" height="27.518"/>
			</defs>
			<clipPath id="SVGID_25_">
				<use xlink:href="#SVGID_24_"  overflow="visible"/>
			</clipPath>
			<path clip-path="url(#SVGID_25_)" fill="#BDD4A8" d="M1865.326,105.704c-4.613-6.025-13.273-7.187-19.295-2.595l-0.01,0.007
				c-2.918,2.221-4.799,5.44-5.287,9.07c-0.49,3.647,0.473,7.261,2.721,10.199c2.242,2.946,5.484,4.831,9.127,5.312
				c3.625,0.486,7.219-0.48,10.145-2.725C1868.756,120.339,1869.912,111.693,1865.326,105.704"/>
		</g>
	</g>
	<g enable-background="new    ">
		<g>
			<defs>
				<rect id="SVGID_26_" x="1876.172" y="85.659" width="29.514" height="29.575"/>
			</defs>
			<clipPath id="SVGID_27_">
				<use xlink:href="#SVGID_26_"  overflow="visible"/>
			</clipPath>
			<path clip-path="url(#SVGID_27_)" fill="#B8D1A2" d="M1883.986,87.386c-3.488,1.863-6.037,4.967-7.18,8.74
				c-1.139,3.776-0.74,7.765,1.133,11.265c1.875,3.512,4.996,6.071,8.777,7.208c3.754,1.137,7.742,0.725,11.213-1.154
				c5.084-2.733,7.877-8.034,7.748-13.433c-0.244-0.557-0.57-1.067-0.773-1.649c-0.645-1.798-1.033-3.623-1.264-5.46
				C1899.607,86.168,1890.969,83.658,1883.986,87.386"/>
		</g>
	</g>
	<g enable-background="new    ">
		<g>
			<defs>
				<rect id="SVGID_28_" x="1913.078" y="73.88" width="30.814" height="31.816"/>
			</defs>
			<clipPath id="SVGID_29_">
				<use xlink:href="#SVGID_28_"  overflow="visible"/>
			</clipPath>
			<path clip-path="url(#SVGID_29_)" fill="#B3CE9B" d="M1923.635,74.789c-4.008,1.418-7.219,4.314-9.025,8.145
				c-1.02,2.151-1.531,4.453-1.531,6.775c0,1.81,0.309,3.639,0.943,5.399c1.436,4.029,4.344,7.26,8.189,9.069
				c3.82,1.8,8.125,2.004,12.107,0.566c4.67-1.675,8.02-5.346,9.574-9.685c-1.203-2.281-2.205-4.681-2.746-7.284
				c-0.584-2.866-0.592-5.725-0.293-8.537C1936.658,74.549,1929.91,72.56,1923.635,74.789"/>
		</g>
	</g>
	<g enable-background="new    ">
		<g>
			<defs>
				<rect id="SVGID_30_" x="1950.998" y="65.101" width="31.09" height="34.236"/>
			</defs>
			<clipPath id="SVGID_31_">
				<use xlink:href="#SVGID_30_"  overflow="visible"/>
			</clipPath>
			<path clip-path="url(#SVGID_31_)" fill="#AECB94" d="M1964.641,65.45c-4.475,0.921-8.312,3.513-10.822,7.318
				c-1.855,2.831-2.82,6.059-2.82,9.371c0,1.169,0.125,2.347,0.367,3.521c0.93,4.514,3.555,8.388,7.391,10.89
				c3.789,2.498,8.336,3.345,12.787,2.42c4.457-0.933,8.123-3.545,10.545-7c-1.99-3.663-3.262-7.712-3.562-11.999
				c-0.252-3.528,0.203-6.975,1.148-10.271C1975.746,66.086,1970.238,64.31,1964.641,65.45"/>
		</g>
	</g>
	<g enable-background="new    ">
		<g>
			<defs>
				<rect id="SVGID_32_" x="1989.621" y="59.51" width="30.658" height="36.75"/>
			</defs>
			<clipPath id="SVGID_33_">
				<use xlink:href="#SVGID_32_"  overflow="visible"/>
			</clipPath>
			<path clip-path="url(#SVGID_33_)" fill="#A9C88E" d="M2006.672,59.56c-4.891,0.333-9.354,2.562-12.566,6.258
				c-3.211,3.707-4.791,8.446-4.432,13.351c0.348,4.943,2.59,9.427,6.312,12.65c3.684,3.187,8.402,4.746,13.275,4.389
				c4.285-0.318,8.066-2.127,11.018-4.812c-2.568-4.982-3.887-10.532-3.553-16.28c0.221-4.013,1.23-7.835,2.852-11.383
				c-3.506-2.876-8.043-4.515-12.9-4.172H2006.672z"/>
		</g>
	</g>
	<g enable-background="new    ">
		<g>
			<defs>
				<rect id="SVGID_34_" x="2028.592" y="57.226" width="31.598" height="39.384"/>
			</defs>
			<clipPath id="SVGID_35_">
				<use xlink:href="#SVGID_34_"  overflow="visible"/>
			</clipPath>
			<path clip-path="url(#SVGID_35_)" fill="#A4C588" d="M2035.174,62.178c-3.926,3.509-6.25,8.328-6.553,13.613
				c-0.301,5.28,1.467,10.36,4.98,14.3c3.486,3.895,8.287,6.202,13.518,6.482c4.031,0.229,7.855-0.791,11.098-2.701
				c-3.021-6.375-4.064-13.478-2.754-20.559c0.801-4.344,2.43-8.388,4.727-12.003c-3.023-2.334-6.74-3.814-10.82-4.055
				C2044.129,56.948,2039.094,58.7,2035.174,62.178"/>
		</g>
	</g>
	<g enable-background="new    ">
		<g>
			<defs>
				<rect id="SVGID_36_" x="2067.557" y="58.394" width="33.553" height="42.087"/>
			</defs>
			<clipPath id="SVGID_37_">
				<use xlink:href="#SVGID_36_"  overflow="visible"/>
			</clipPath>
			<path clip-path="url(#SVGID_37_)" fill="#9FC282" d="M2092.4,58.752c-5.508-1.026-11.09,0.151-15.701,3.32
				c-4.645,3.179-7.758,7.995-8.785,13.543c-1.027,5.583,0.172,11.212,3.389,15.869c3.172,4.587,7.945,7.668,13.455,8.662
				c3.789,0.701,7.496,0.249,10.877-0.969c-3.186-7.773-3.715-16.306-1.131-24.43c1.424-4.489,3.682-8.563,6.605-12.083
				c-2.506-1.887-5.418-3.296-8.701-3.904L2092.4,58.752z"/>
		</g>
	</g>
	<g enable-background="new    ">
		<g>
			<defs>
				<rect id="SVGID_38_" x="2106.203" y="63.14" width="35.896" height="44.841"/>
			</defs>
			<clipPath id="SVGID_39_">
				<use xlink:href="#SVGID_38_"  overflow="visible"/>
			</clipPath>
			<path clip-path="url(#SVGID_39_)" fill="#9ABF7C" d="M2135.41,64.216c-5.672-1.825-11.719-1.324-17.023,1.41
				c-5.336,2.755-9.281,7.436-11.107,13.177c-1.834,5.765-1.303,11.889,1.475,17.229c2.746,5.293,7.385,9.18,13.078,10.956
				c3.447,1.097,6.943,1.218,10.293,0.685c-3.111-9.253-2.664-19.173,1.459-28.092c2.086-4.523,4.994-8.495,8.516-11.8
				c-1.973-1.504-4.172-2.763-6.666-3.557L2135.41,64.216z"/>
		</g>
	</g>
	<g enable-background="new    ">
		<g>
			<defs>
				<rect id="SVGID_40_" x="2144.191" y="71.627" width="38.633" height="47.71"/>
			</defs>
			<clipPath id="SVGID_41_">
				<use xlink:href="#SVGID_40_"  overflow="visible"/>
			</clipPath>
			<path clip-path="url(#SVGID_41_)" fill="#95BC76" d="M2178.035,73.855c-5.746-2.68-12.191-2.954-18.15-0.769
				c-5.996,2.195-10.771,6.608-13.459,12.426c-2.699,5.83-2.959,12.356-0.732,18.363c2.191,5.944,6.566,10.666,12.328,13.302
				c3.109,1.435,6.379,2.11,9.605,2.159c-0.08-0.302-0.219-0.566-0.293-0.868c-2.428-10.495-0.611-21.325,5.117-30.488
				c2.762-4.408,6.309-8.127,10.373-11.097c-1.451-1.162-3.016-2.213-4.766-3.019L2178.035,73.855z"/>
		</g>
	</g>
	<g enable-background="new    ">
		<g>
			<defs>
				<rect id="SVGID_42_" x="2181.186" y="83.992" width="41.73" height="50.174"/>
			</defs>
			<clipPath id="SVGID_43_">
				<use xlink:href="#SVGID_42_"  overflow="visible"/>
			</clipPath>
			<path clip-path="url(#SVGID_43_)" fill="#90B970" d="M2219.9,87.871c-5.703-3.577-12.436-4.729-18.994-3.235
				c-6.6,1.5-12.223,5.496-15.824,11.253c-3.619,5.777-4.768,12.602-3.234,19.227c1.516,6.543,5.49,12.101,11.193,15.653
				c2.814,1.744,5.838,2.836,8.908,3.397c-0.154-0.928-0.457-1.812-0.545-2.754c-1.127-11.314,2.24-22.388,9.477-31.192
				c3.396-4.14,7.504-7.46,12.035-10.002c-0.953-0.82-1.908-1.654-3-2.338L2219.9,87.871z"/>
		</g>
	</g>
	<g enable-background="new    ">
		<g>
			<defs>
				<rect id="SVGID_44_" x="2216.836" y="100.364" width="45.24" height="51.926"/>
			</defs>
			<clipPath id="SVGID_45_">
				<use xlink:href="#SVGID_44_"  overflow="visible"/>
			</clipPath>
			<path clip-path="url(#SVGID_45_)" fill="#8CB76A" d="M2260.578,106.454c-5.484-4.53-12.41-6.649-19.492-5.965
				c-7.129,0.693-13.566,4.124-18.129,9.668c-4.572,5.558-6.699,12.569-5.99,19.711c0.701,7.077,4.113,13.449,9.615,17.947
				c2.494,2.045,5.264,3.462,8.141,4.475c-0.098-1.496-0.344-2.963-0.295-4.482c0.375-11.958,5.396-23.057,14.148-31.25
				c3.994-3.736,8.586-6.559,13.5-8.583c-0.512-0.501-0.936-1.052-1.49-1.511L2260.578,106.454z"/>
		</g>
	</g>
	<g enable-background="new    ">
		<g>
			<defs>
				<rect id="SVGID_46_" x="2250.791" y="120.865" width="49.268" height="53.06"/>
			</defs>
			<clipPath id="SVGID_47_">
				<use xlink:href="#SVGID_46_"  overflow="visible"/>
			</clipPath>
			<path clip-path="url(#SVGID_47_)" fill="#87B463" d="M2299.633,129.8c-5.107-5.489-12.061-8.658-19.564-8.919
				c-7.553-0.249-14.764,2.453-20.297,7.635c-5.541,5.199-8.729,12.23-8.965,19.809c-0.234,7.501,2.461,14.634,7.604,20.094
				c2.191,2.326,4.729,4.086,7.406,5.505c0.066-2.001,0.059-4.014,0.393-6.031c2.027-12.402,8.775-23.265,19.002-30.589
				c4.562-3.263,9.607-5.5,14.848-6.959c-0.148-0.167-0.254-0.371-0.41-0.538L2299.633,129.8z"/>
		</g>
	</g>
	<g enable-background="new    ">
		<g>
			<defs>
				<rect id="SVGID_48_" x="2282.709" y="145.641" width="53.479" height="53.583"/>
			</defs>
			<clipPath id="SVGID_49_">
				<use xlink:href="#SVGID_48_"  overflow="visible"/>
			</clipPath>
			<path clip-path="url(#SVGID_49_)" fill="#82B15D" d="M2317.432,146.055c-7.848-1.32-15.752,0.526-22.248,5.174
				c-6.494,4.654-10.781,11.556-12.076,19.434c-1.277,7.799,0.555,15.617,5.174,22.017c1.893,2.62,4.184,4.724,6.658,6.543
				c0.352-2.444,0.834-4.872,1.559-7.276c3.805-12.609,12.295-22.97,23.92-29.188c5.006-2.668,10.336-4.372,15.77-5.214
				C2331.617,151.421,2325,147.314,2317.432,146.055"/>
		</g>
	</g>
	<g enable-background="new    ">
		<g>
			<defs>
				<rect id="SVGID_50_" x="2312.264" y="174.807" width="57.936" height="53.812"/>
			</defs>
			<clipPath id="SVGID_51_">
				<use xlink:href="#SVGID_50_"  overflow="visible"/>
			</clipPath>
			<path clip-path="url(#SVGID_51_)" fill="#7EAF56" d="M2352.713,176.177c-7.996-2.437-16.467-1.601-23.867,2.348
				c-7.406,3.964-12.818,10.563-15.236,18.59c-2.404,7.949-1.564,16.347,2.363,23.655c1.629,3.044,3.787,5.599,6.166,7.85
				c0.725-2.818,1.646-5.606,2.869-8.318c5.648-12.556,15.85-22.169,28.748-27.053c5.354-2.017,10.895-3.068,16.443-3.261
				C2366.24,183.371,2360.152,178.446,2352.713,176.177"/>
		</g>
	</g>
	<g enable-background="new    ">
		<g>
			<defs>
				<rect id="SVGID_52_" x="2339.104" y="208.525" width="62.484" height="53.805"/>
			</defs>
			<clipPath id="SVGID_53_">
				<use xlink:href="#SVGID_52_"  overflow="visible"/>
			</clipPath>
			<path clip-path="url(#SVGID_53_)" fill="#79AC50" d="M2385.486,211.457c-7.984-3.616-16.916-3.897-25.139-0.791
				c-8.238,3.122-14.756,9.251-18.357,17.269c-3.568,7.945-3.84,16.79-0.742,24.917c1.369,3.597,3.389,6.708,5.744,9.478
				c1.172-3.103,2.633-6.129,4.4-9.028c7.49-12.266,19.312-20.877,33.311-24.258c5.615-1.339,11.295-1.734,16.885-1.292
				C2398.336,220.542,2392.764,214.753,2385.486,211.457"/>
		</g>
	</g>
	<g enable-background="new    ">
		<g>
			<defs>
				<rect id="SVGID_54_" x="2362.896" y="246.909" width="66.924" height="53.837"/>
			</defs>
			<clipPath id="SVGID_55_">
				<use xlink:href="#SVGID_54_"  overflow="visible"/>
			</clipPath>
			<path clip-path="url(#SVGID_55_)" fill="#74AA4A" d="M2415.221,251.992c-7.824-4.79-17.055-6.258-25.986-4.113
				c-8.955,2.152-16.523,7.67-21.316,15.52c-4.752,7.776-6.193,16.936-4.049,25.781c1.041,4.292,2.908,8.153,5.297,11.567
				c1.678-3.304,3.691-6.466,6.037-9.445c9.289-11.758,22.611-19.194,37.514-20.928c5.795-0.67,11.539-0.414,17.104,0.651
				C2427.387,263.105,2422.348,256.375,2415.221,251.992"/>
		</g>
	</g>
	<g enable-background="new    ">
		<g>
			<defs>
				<rect id="SVGID_56_" x="2383.293" y="290.108" width="71.023" height="53.962"/>
			</defs>
			<clipPath id="SVGID_57_">
				<use xlink:href="#SVGID_56_"  overflow="visible"/>
			</clipPath>
			<path clip-path="url(#SVGID_57_)" fill="#70A745" d="M2441.484,297.881c-7.506-5.961-16.9-8.632-26.443-7.531
				c-9.559,1.116-18.105,5.884-24.062,13.416c-5.906,7.476-8.549,16.8-7.438,26.234c0.609,5.149,2.32,9.88,4.805,14.071
				c2.193-3.378,4.725-6.576,7.637-9.5c11.008-11.051,25.66-17.167,41.279-17.192c5.869-0.011,11.604,0.849,17.055,2.503
				C2452.865,311.194,2448.434,303.407,2441.484,297.881"/>
		</g>
	</g>
	<g enable-background="new    ">
		<g>
			<defs>
				<rect id="SVGID_58_" x="2399.941" y="338.226" width="74.633" height="54.229"/>
			</defs>
			<clipPath id="SVGID_59_">
				<use xlink:href="#SVGID_58_"  overflow="visible"/>
			</clipPath>
			<path clip-path="url(#SVGID_59_)" fill="#6BA53F" d="M2463.793,349.175c-7.064-7.066-16.484-10.956-26.5-10.949
				c-10.037,0.022-19.457,3.948-26.531,11.048c-7.008,7.055-10.854,16.387-10.82,26.3c0.018,6.107,1.641,11.79,4.262,16.881
				c2.656-3.305,5.662-6.371,9.047-9.12c12.596-10.199,28.404-14.886,44.537-13.185c5.867,0.629,11.49,2.079,16.787,4.267
				C2474.312,364.889,2470.564,355.941,2463.793,349.175"/>
		</g>
	</g>
	<g enable-background="new    ">
		<g>
			<defs>
				<rect id="SVGID_60_" x="2412.498" y="391.412" width="77.836" height="54.932"/>
			</defs>
			<clipPath id="SVGID_61_">
				<use xlink:href="#SVGID_60_"  overflow="visible"/>
			</clipPath>
			<path clip-path="url(#SVGID_61_)" fill="#66A33B" d="M2481.744,405.907c-6.535-8.102-15.857-13.167-26.229-14.275
				c-10.383-1.098-20.561,1.928-28.668,8.493c-8.043,6.518-13.07,15.769-14.146,26.04c-0.748,7.188,0.645,14.045,3.447,20.179
				c3.098-3.161,6.527-6.034,10.316-8.522c14.057-9.252,30.875-12.465,47.367-9.061c5.734,1.192,11.164,3.19,16.223,5.811
				c0.012-0.088,0.043-0.154,0.049-0.238C2491.211,424.054,2488.248,413.958,2481.744,405.907"/>
		</g>
	</g>
	<g enable-background="new    ">
		<g>
			<defs>
				<rect id="SVGID_62_" x="2420.598" y="449.784" width="80.947" height="80.873"/>
			</defs>
			<clipPath id="SVGID_63_">
				<use xlink:href="#SVGID_62_"  overflow="visible"/>
			</clipPath>
			<path clip-path="url(#SVGID_63_)" fill="#61A137" d="M2469.295,450.64c-10.635-2.191-21.488-0.125-30.549,5.848
				c-8.998,5.918-15.15,14.979-17.316,25.492c-4.49,21.887,9.574,43.35,31.32,47.847c21.881,4.497,43.385-9.606,47.939-31.427
				c2.201-10.539,0.172-21.287-5.727-30.282C2489.029,459.057,2479.91,452.847,2469.295,450.64"/>
		</g>
	</g>
</g>
</svg>
