<?xml version="1.0" encoding="utf-8"?>
<!-- Generator: Adobe Illustrator 16.0.0, SVG Export Plug-In . SVG Version: 6.00 Build 0)  -->
<!DOCTYPE svg PUBLIC "-//W3C//DTD SVG 1.1//EN" "http://www.w3.org/Graphics/SVG/1.1/DTD/svg11.dtd">
<svg version="1.1" id="Layer_1" xmlns="http://www.w3.org/2000/svg" xmlns:xlink="http://www.w3.org/1999/xlink" x="0px" y="0px"
	 width="1694.609px" height="641.247px" viewBox="0 -0.001 1694.609 641.247" enable-background="new 0 -0.001 1694.609 641.247"
	 xml:space="preserve">
<path fill="#69C9CA" d="M313.787,402.646c-12.119,21.818-12.529,49.819-12.529,49.819s-16.729-33.146-0.5-67.996
	c17.971-38.595,46.49-78.433,99.465-125.27c1.66-1.469,10.838-7.991,3.81-14.455c-3.855-3.547-10.791-7.945-16.127-13.375
	c-2.332-2.374-16.445-12.819,3.096-32.652c44.668-45.333,37.211-78.696,30.812-99.975c-0.96-3.19,33.948,16.299,20.854-18.358
	c-17-45-28.84,0.818-31.836-2.809c-16.473-19.938-61.408-22.282-81.164-11.191c-10.857,6.096-19.324,15.566-25.455,26.528
	c-0.93,1.665,2.699,9.873,2.205,11.722c-1,3.75-8.57,2.177-9.344,4.122c-2.242,5.646-11.564,7.109-12.738,12.961
	c-1.26,6.292,7.666,11.975,7.666,18c0,12.333,9.904,17.618,16.334,18.167c3.502,0.299,13.225-3.927,13-3.333
	c-2.668,7-24.334,4.333-24.334,4.333c-1.666,19.167,28.973,37.075,29.998,41.5c4.924,21.25-4.139,37.927-12.953,45.985
	c-9.734,8.896-35.199,20.565-48.377,21.016c-14.637,0.498-44.33-10.654-54.678-21.016c-7.684-7.695-17.688-33.487-16.321-40.318
	c3.333-16.667,26.666-3,31-28.667c0.967-5.725,10.654-7.308,11-13.5c0.164-2.951-20-4.5-22-7.833c-1.703-2.838,21.5-7.167,19-15.667
	c-1.262-4.29-14.666-1.334-15-7.667c-0.084-1.576,12.678-3.336,13.35-7.395c1.316-7.938-16.1-11.188-16.1-18.938
	c0-4.161,8.723-4.918,8.348-10.364c-0.42-6.125-7.44-21.295-25.004-31.038c-32.927-18.266-65.652-9.785-83.016,5.947
	c-3.741,3.39-9.586-15.289-28.479-10.947c-6.1,1.402,20.347,9.579,11.28,31.739c-17.046,41.663-4.713,83.663,39.621,110.33
	c7.97,4.794,1.559,20.324-3.536,26.318c-6.371,7.494-21.405,6.006-15.405,21.006c13.081,32.702,83.971,86.316,111.562,134.35
	C335.061,564.374,112.55,602.951,112.55,602.951s111.178-45.242,111.12-131.565c-0.048-68.759-115.366-135.18-158.159-225.016
	C41.044,195.006,29.187,134.094,52.352,80.756c3.017-6.945,6.65-12.309,6.65-12.309C46.152-12.52,11.845,5.342,15.273,3.986
	c46.236-18.278,58.836,32.956,84.773,20.302C210.236-29.476,262.52,64.899,262.52,64.899s96.148-110.514,183.072-18.751
	c46.875,49.485,67.883,114.037,13.937,200.223c-14.929,23.849-58.783,55.393-75.133,71.338
	C330.395,370.374,318.338,394.455,313.787,402.646z"/>
<path fill="#406E80" d="M298.754,404.146c-12.119,21.818-12.529,49.819-12.529,49.819s-16.729-33.146-0.5-67.996
	c17.971-38.595,46.49-78.434,99.465-125.27c1.66-1.469,10.838-7.991,3.809-14.455c-3.855-3.547-10.791-7.945-16.127-13.375
	c-2.332-2.374-16.445-12.819,3.096-32.652c44.668-45.333,37.211-78.696,30.812-99.975c-0.959-3.19,33.949,16.299,20.854-18.358
	c-17-45-28.84,0.818-31.836-2.809c-16.473-19.938-61.408-22.282-81.164-11.191c-10.857,6.096-19.324,15.566-25.455,26.528
	c-0.93,1.665,2.699,9.873,2.205,11.722c-1,3.75-8.57,2.177-9.344,4.122c-2.242,5.646-11.564,7.109-12.738,12.961
	c-1.261,6.292,7.666,11.975,7.666,18c0,12.333,9.904,17.618,16.334,18.167c3.502,0.299,13.225-3.927,13-3.333
	c-2.668,7-24.334,4.333-24.334,4.333c-1.666,19.167,28.973,37.075,29.998,41.5c4.924,21.25-4.139,37.927-12.953,45.985
	c-9.734,8.896-35.199,20.565-48.378,21.016c-14.636,0.498-44.33-10.654-54.678-21.016c-7.684-7.695-17.688-33.487-16.321-40.318
	c3.333-16.667,26.665-3,30.999-28.667c0.967-5.725,10.654-7.308,11-13.5c0.164-2.951-20-4.5-22-7.833
	c-1.703-2.838,21.5-7.167,19-15.667c-1.262-4.29-14.666-1.334-15-7.667c-0.083-1.576,12.678-3.336,13.351-7.395
	c1.316-7.938-16.101-11.188-16.101-18.938c0-4.161,8.723-4.918,8.349-10.364c-0.42-6.125-7.44-21.295-25.005-31.038
	c-32.927-18.266-65.652-9.785-83.016,5.947c-3.741,3.39-9.586-15.289-28.479-10.947c-6.1,1.402,20.347,9.579,11.28,31.739
	c-17.046,41.663-4.713,83.663,39.621,110.33c7.97,4.793,1.559,20.324-3.536,26.318c-6.371,7.494-21.405,6.006-15.405,21.006
	c13.081,32.702,83.971,86.316,111.562,134.35c103.77,180.649-118.74,219.227-118.74,219.227s111.179-45.242,111.119-131.565
	c-0.047-68.759-115.365-135.18-158.158-225.016c-24.467-51.364-36.325-112.276-13.16-165.614c3.017-6.945,6.65-12.309,6.65-12.309
	C31.118-11.02-3.188,6.842,0.239,5.486c46.236-18.278,58.836,32.956,84.773,20.302c110.189-53.765,162.474,40.611,162.474,40.611
	s96.148-110.514,183.072-18.751c46.875,49.485,67.884,114.037,13.937,200.223c-14.928,23.849-58.783,55.393-75.133,71.338
	C315.361,371.874,303.305,395.955,298.754,404.146z"/>
<text transform="matrix(1 0 0 1 357.939 501.7932)" fill="#406E80" font-family="'Apple-Chancery'" font-size="300">e Coaching</text>
</svg>
