<?xml version="1.0" encoding="utf-8"?>
<!-- Generator: Adobe Illustrator 16.0.0, SVG Export Plug-In . SVG Version: 6.00 Build 0)  -->
<!DOCTYPE svg PUBLIC "-//W3C//DTD SVG 1.1//EN" "http://www.w3.org/Graphics/SVG/1.1/DTD/svg11.dtd">
<svg version="1.1" id="Layer_1" xmlns="http://www.w3.org/2000/svg" xmlns:xlink="http://www.w3.org/1999/xlink" x="0px" y="0px"
	 width="491.475px" height="604.451px" viewBox="0 0 491.475 604.451" enable-background="new 0 0 491.475 604.451"
	 xml:space="preserve">
<linearGradient id="SVGID_1_" gradientUnits="userSpaceOnUse" x1="68.2698" y1="355.571" x2="258.8694" y2="355.571">
	<stop  offset="0" style="stop-color:#FF3CFF"/>
	<stop  offset="1" style="stop-color:#FF88FF"/>
</linearGradient>
<path fill="url(#SVGID_1_)" d="M182.161,112.925c-9.01,20.513-13.378,51.76-8.288,98.935
	c5.604,51.932,29.433,122.386,48.594,156.355c5.479,9.71,8.824,15.512,8.824,15.512
	c103.771,180.647-118.739,219.227-118.739,219.227s130.177-32.242,130.118-118.565c-0.048-68.759-108.364-135.182-151.157-225.017
	c-18.796-39.457-28.685-65.384-20.145-95.326c3.8-13.322,11.116-41.4,43.573-51.526
	C146.898,102.547,182.161,112.925,182.161,112.925z"/>
</svg>
