<?xml version="1.0" encoding="utf-8"?>
<!-- Generator: Adobe Illustrator 16.0.0, SVG Export Plug-In . SVG Version: 6.00 Build 0)  -->
<!DOCTYPE svg PUBLIC "-//W3C//DTD SVG 1.1//EN" "http://www.w3.org/Graphics/SVG/1.1/DTD/svg11.dtd">
<svg version="1.1" id="Layer_1" xmlns="http://www.w3.org/2000/svg" xmlns:xlink="http://www.w3.org/1999/xlink" x="0px" y="0px"
	 width="491.475px" height="604.451px" viewBox="0 0 491.475 604.451" enable-background="new 0 0 491.475 604.451"
	 xml:space="preserve">
<linearGradient id="SVGID_1_" gradientUnits="userSpaceOnUse" x1="56.7859" y1="326.4089" x2="261.8674" y2="326.4089">
	<stop  offset="0" style="stop-color:#FF6982"/>
	<stop  offset="1" style="stop-color:#FE96B5"/>
</linearGradient>
<path fill="url(#SVGID_1_)" d="M261.867,79.365c0,0-106.495-38.997-87.994,132.494c5.604,51.932,29.433,122.386,48.594,156.355
	c5.479,9.71,8.824,15.512,8.824,15.512c103.771,180.647-118.739,219.227-118.739,219.227s126.177-32.242,126.118-118.565
	c-0.048-68.759-115.364-135.182-158.157-225.017c-24.468-51.364-34.019-99.043-9.16-151.614
	c16.023-33.891,52.504-57.892,112.521-57.891C224.369,49.866,261.867,79.365,261.867,79.365z"/>
<image overflow="visible" width="640" height="480" xlink:href="Background_MeTherapy.jpg"  transform="matrix(1 0 0 1 -653.7625 41.7253)">
</image>
</svg>
