<?xml version="1.0" encoding="utf-8"?>
<!-- Generator: Adobe Illustrator 16.0.0, SVG Export Plug-In . SVG Version: 6.00 Build 0)  -->
<!DOCTYPE svg PUBLIC "-//W3C//DTD SVG 1.1//EN" "http://www.w3.org/Graphics/SVG/1.1/DTD/svg11.dtd">
<svg version="1.1" id="Layer_1" xmlns="http://www.w3.org/2000/svg" xmlns:xlink="http://www.w3.org/1999/xlink" x="0px" y="0px"
	 width="141.732px" height="141.732px" viewBox="-12.607 -23.752 141.732 141.732"
	 enable-background="new -12.607 -23.752 141.732 141.732" xml:space="preserve">
<g>
	<g>
		<g>
			<path fill="#EC008C" d="M120.373,65.119c-0.254,2.314-0.785,4.647-0.67,6.945c0.097,1.785-0.423,2.697-2.201,3.196
				c1.934,5.086-1.178,8.49-3.873,12.033c-0.423,0.559-1.034,1.106-1.154,1.732c-0.746,3.785-3.257,5.946-6.497,7.605
				c-4.134,2.124-8.049,4.773-13.026,4.478c-2.533-0.147-5.161,0.266-7.604-0.242c-4.317-0.887-8.103-3.049-11.114-6.356
				c-1.115-1.222-2.09-2.575-3.542-4.39c-0.443,1.318-0.825,2.104-0.958,2.924c-0.492,2.926-1.825,5.154-4.617,6.48
				c-0.656,0.31-1.268,1.203-1.444,1.939c-1.233,5.132-2.354,10.297-3.506,15.451c-0.067,0.303-0.125,0.614-0.217,1.062
				c-3.492,0.002-6.957,0.002-10.562,0c-1.757-5.305-3.804-10.587-5.231-16.035c-1.483-5.695-0.235-11.409,1.573-16.834
				c0.543-1.633,2.559-2.883,4.088-4.059c3.552-2.729,6.344-6.485,10.957-7.824c3.376-0.975,6.421-0.605,9.552,0.91
				c2.187,1.064,4.571,1.741,6.906,2.487c3.122,0.99,6.326,1.734,9.402,2.85c1.956,0.711,3.672,2.122,5.635,2.792
				c1.084,0.37,2.511,0.021,3.698-0.305c1.037-0.289,1.979-0.956,2.91-1.54c0.396-0.252,0.753-0.675,0.972-1.102
				c0.707-1.379,1.338-2.797,2.181-4.583c-0.944-1.274-1.229-3.09,0.227-5.111c0.337-0.471,0.06-1.674-0.316-2.314
				c-0.945-1.61-0.848-3.053-0.132-4.734c1.078-2.543-0.839-4.527-1.626-6.707c-0.178-0.497-0.739-0.917-0.771-1.397
				c-0.249-3.622-0.217-7.273-0.697-10.859c-0.257-1.94-0.275-3.594,0.651-5.361c0.335-0.64,0.062-1.716-0.171-2.522
				c-0.474-1.584-1.028-3.159-1.717-4.661c-0.471-1.035-1.046-2.187-1.909-2.857c-1.407-1.095-2.056-2.323-1.954-4.072
				c0.074-1.189,0.06-2.388,0.005-3.582c-0.171-3.459-2.691-5.067-5.971-3.797c-2.22,0.861-4.386,1.878-6.643,2.633
				c-1.083,0.36-2.313,0.284-3.517,0.404c-1.423,5.106-8.832,4.236-11.634,1.06c-2.73,0.612-5.104,1.321-7.531,1.598
				c-0.931,0.106-2.384-0.506-2.885-1.266c-0.965-1.466-2.129-1.277-3.312-0.915c-2.928,0.889-5.707,1.236-8.407-0.746
				c-0.469-0.344-1.57-0.187-2.203,0.109c-3.638,1.693-5.682,1.298-8.543-1.485c-0.739-0.718-2.164-1.506-2.957-1.259
				c-2.75,0.859-4.356-0.628-6.088-2.217c-0.499-0.458-1.578-1.085-1.783-0.913c-0.707,0.594-1.346,1.444-1.617,2.319
				c-0.212,0.686,0.277,1.557,0.261,2.337c-0.032,1.531,0.217,3.118-1.705,4.051c-0.63,0.305-0.843,1.734-1.002,2.688
				c-0.171,0.993,0.007,2.042-0.058,3.06c-0.104,1.573-0.18,3.16-0.453,4.707c-0.411,2.295-1.014,4.554-1.462,6.848
				c-0.148,0.718-0.372,1.666-0.048,2.185c1.542,2.448,1.314,4.942,0.619,7.536c-0.147,0.552-0.258,1.295-0.011,1.739
				c1.506,2.686,1.219,5.495,0.79,8.34c-0.185,1.233-0.076,1.996,1.271,2.966c2.132,1.533,3.506,3.91,3.397,6.903
				c-0.065,1.735,0.378,3.487,0.644,5.227c0.749,4.781-1.305,13.382-7.204,15.431c-2.642,0.919-3.466,3.193-3.808,5.321
				c-0.42,2.603-0.056,5.357,0.251,8.014c0.104,0.887,0.905,1.959,1.695,2.446c2.811,1.731,5.749,3.242,8.562,5.143
				c-3.252,1.236-5.739-1.108-8.227-2.393c-7.204-3.729-4.407-10.067-3.686-16.007c-0.499,0.105-0.996,0.217-1.492,0.327
				c-2.143,0.46-4.032,0.68-5.552-1.644c-2.981-4.555-4.704-9.278-3.425-14.791c0.129-0.557-0.224-1.357-0.582-1.892
				c-2.229-3.279-1.94-6.921-1.575-10.563c0.051-0.48,0.559-0.91,0.938-1.504c-0.847-0.907-1.684-1.806-2.52-2.7
				c0-4.624,0-9.236,0-13.855c1.108-2.915,2.222-5.825,3.324-8.742c0.746-1.968,1.679-3.896,2.143-5.929
				c0.409-1.785,0.845-3.284,2.649-4.159c0.337-0.164,0.277-1.155,0.393-1.767c0.762-4.155-0.046-8.248-0.443-12.365
				C4.024,11.071,4.195,9.039,3.8,7.115C3.177,4.092,2.853,1.196,4.521-1.601c1.203-2.014,2.393-4.035,3.534-6.083
				c1.254-2.251,9.991-6.282,12.555-5.746c0.466,0.1,0.938,0.178,1.402,0.275c2.16,0.45,4.3,1.18,6.479,1.282
				c2.27,0.106,3.836,1.162,4.875,2.88c0.736,1.217,1.238,1.48,2.713,1.342c1.333-0.125,3.317,0.499,4.053,1.499
				c1.499,2.049,3.033,3.476,5.979,2.931c-0.482,1.051-0.748,1.633-1.079,2.342c4.183-0.815,8.218-4.906,11.428-0.492
				c2.435-0.051,4.213-0.097,5.994-0.12c1.079-0.014,2.319,0.36,3.203-0.048c2.081-0.963,3.973-1.222,6.13-0.224
				c3.949,1.827,7.873,1.961,11.566-0.767c1.022-0.758,2.039-1.522,3.06-2.282c3.374-2.52,3.374-2.52,6.938-0.393
				c0.54-2.557,0.981-5.014,1.586-7.43c1.328-5.326,4.758-8.873,9.668-11.116c1.271,0,2.545,0,3.818,0
				c0.362,0.409,0.694,0.845,1.09,1.217c2.383,2.224,3.672,4.621,2.988,8.183c-0.57,2.972-2.824,5.869-1.051,9.139
				c0.039,0.065-0.203,0.243-0.242,0.388c-0.306,1.067-0.739,2.123-0.848,3.215c-0.269,2.645-0.435,5.305-0.538,7.963
				c-0.04,0.908,0.012,1.942,0.418,2.714c1.108,2.111,1.771,4.617,0.27,6.268c-1.501,1.654-1.097,2.885-0.644,4.443
				c0.484,1.675,1.088,3.319,1.462,5.017c0.129,0.598-0.379,1.312-0.423,1.981c-0.115,1.924-0.771,4.139-0.062,5.716
				c0.936,2.074,3.358,3.414,3.362,6.129c0,0.245,0.485,0.566,0.812,0.725c4,2.007,4.753,3.866,3.513,8.07
				c-0.275,0.924-0.019,2.048,0.159,3.051c0.24,1.324,0.815,2.605,0.914,3.931c0.069,0.9-0.196,2.009-0.713,2.739
				c-2.019,2.83-1.592,5.144,1.478,7.019C120.371,64.482,120.371,64.799,120.373,65.119z"/>
		</g>
		<polygon fill="#E5AA8C" points="-3.524,15.263 19.983,27.49 14.651,28.912 25.293,34.839 19.612,35.869 31.441,45.493 
			6.514,32.658 11.648,31.709 1.509,26.441 8.05,25.268 		"/>
		<polygon fill="#E5AA8C" points="118.901,8.695 96.629,25.115 102.36,25.721 92.34,33.557 98.37,33.702 87.725,45.544 
			111.356,28.271 105.913,28.12 115.52,21.042 108.58,20.889 		"/>
	</g>
</g>
</svg>
