<?xml version="1.0" encoding="utf-8"?>
<!-- Generator: Adobe Illustrator 16.0.0, SVG Export Plug-In . SVG Version: 6.00 Build 0)  -->
<!DOCTYPE svg PUBLIC "-//W3C//DTD SVG 1.1//EN" "http://www.w3.org/Graphics/SVG/1.1/DTD/svg11.dtd">
<svg version="1.1" id="Layer_1" xmlns="http://www.w3.org/2000/svg" xmlns:xlink="http://www.w3.org/1999/xlink" x="0px" y="0px"
	 width="141.732px" height="141.732px" viewBox="0 0 141.732 141.732" enable-background="new 0 0 141.732 141.732"
	 xml:space="preserve">
<pattern  x="42.366" y="99.366" width="169.393" height="155.989" patternUnits="userSpaceOnUse" id="SVGID_1_" viewBox="84.696 -181.989 169.393 155.989" overflow="visible">
	<g>
		<polygon fill="none" points="84.696,-26 254.089,-26 254.089,-181.989 84.696,-181.989 		"/>
		<g>
			<polygon fill="none" points="84.696,-181.989 254.089,-181.989 254.089,-26 84.696,-26 			"/>
			<g>
				<polygon fill="none" points="84.696,-26.002 254.089,-26.002 254.089,-181.989 84.696,-181.989 				"/>
				<g>
					<polygon fill="none" points="84.696,-181.989 254.089,-181.989 254.089,-26.002 84.696,-26.002 					"/>
					<g>
						<polygon fill="none" points="84.696,-181.989 254.089,-181.989 254.089,-26.002 84.696,-26.002 						"/>
						<path fill="#E9188D" d="M86.022-10.23v0.994c0.44,1.326,1.16,3.148,2.155,5.471c0.994,2.319,1.6,3.479,1.823,3.479h1.657
							c0-1.104,0.383-2.265,1.16-3.479c0.771-1.213,1.709-1.822,2.817-1.822h0.332c0.217,0.223,0.715,0.662,1.491,1.326
							c0.771,0.66,1.27,1.106,1.492,1.323h0.331h0.663c0.44-0.217,0.938-0.663,1.491-1.323c0.55-0.664,0.938-1.104,1.161-1.326
							c0.439,0.886,1.6,1.822,3.48,2.815c1.875,0.994,3.258,1.384,4.144,1.16c0.44-0.218,1.932-0.828,4.475-1.823
							c2.538-0.992,4.03-1.709,4.476-2.152l5.304,5.304c0.663,0.663,1.435,0.166,2.32-1.492c0.881-1.657,1.544-2.485,1.989-2.485
							h0.663c1.988,1.108,3.48,2.047,4.475,2.817c0.995,0.776,2.704,1.16,5.139,1.16h0.663c0.217-0.218,0.828-0.716,1.823-1.492
							c0.994-0.771,1.709-1.16,2.154-1.16c0.44,0,0.938,0.332,1.492,0.995c0.549,0.663,0.828,1.217,0.828,1.657
							c2.652-1.544,3.979-3.315,3.979-5.304c0-1.326-0.446-2.207-1.326-2.652c-0.886-0.439-1.326-1.436-1.326-2.982v-0.994
							c0-0.219,0.108-0.549,0.331-0.994c0.44,1.107,1.27,1.988,2.486,2.65c1.212,0.663,2.372,1.108,3.48,1.326
							c-0.445,0.445-0.828,1.439-1.16,2.982c-0.331,1.55-0.279,2.65,0.166,3.313c0.218,0.446,0.994,0.995,2.32,1.658
							c1.326,0.663,2.207,0.994,2.652,0.994c1.326-1.104,2.098-2.206,2.32-3.315c0.218-1.103,1.104-1.766,2.652-1.986
							c0.439,0.662,0.938,1.49,1.491,2.484c0.549,0.994,1.16,1.491,1.823,1.491h0.663c0.218-0.218,0.497-0.438,0.829-0.663
							c0.331-0.217,0.497-0.439,0.497-0.663c0.88-0.88,1.325-1.766,1.325-2.649l-3.646-6.299c-0.224-0.219-0.166-0.498,0.165-0.828
							c0.332-0.332,0.606-0.498,0.829-0.498h1.326v0.332c1.988,0,3.589,0.389,4.807,1.16c1.212,0.775,2.429,1.655,3.646,2.65
							c1.212,0.994,2.372,1.88,3.48,2.65c1.104,0.776,2.538,1.16,4.31,1.16c0.217,0,0.663-0.498,1.325-1.492
							c0.663-0.993,1.326-2.098,1.989-3.313c0.663-1.212,1.212-2.372,1.657-3.479c0.44-1.104,0.663-1.875,0.663-2.319h0.663h0.663
							c0.218,0.224,0.331,0.663,0.331,1.326v9.28c0.44,0,0.772-0.107,0.995-0.33c2.429-1.769,4.361-3.48,5.801-5.141
							c1.435-1.656,3.921-2.484,7.459-2.484c0.44,0,1.212,0.332,2.32,0.994c1.104,0.664,1.875,1.217,2.32,1.656
							c0-0.881,0.383-1.767,1.16-2.65c0.771-0.881,1.709-1.325,2.817-1.325c0,0.223,0.109,0.444,0.332,0.663l0.663,0.662
							c0.217,0.444,0.44,1.492,0.663,3.147c0.217,1.657,0.439,2.709,0.662,3.149c0.218,0,0.663,0.057,1.326,0.164
							c0.663,0.113,1.104,0.166,1.326,0.166c1.989,0,3.755-0.496,5.304-1.49c1.544-0.994,3.315-1.492,5.304-1.492
							c0.881,0,1.544,0.225,1.989,0.663c0.44,0.444,0.549,1.549,0.332,3.313c0.662-1.767,1.377-2.869,2.154-3.313
							c0.771-0.438,1.823-0.663,3.149-0.663c1.325,0,2.206,0.28,2.651,0.829c0.44,0.555,1.212,0.829,2.32,0.829
							c0.881,0,1.989-0.829,3.315-2.486c1.326-1.656,2.595-3.531,3.812-5.636c1.213-2.099,2.264-4.195,3.149-6.298
							c0.881-2.1,1.326-3.592,1.326-4.477c0-0.219-0.057-0.716-0.166-1.492c-0.113-0.772-0.165-1.378-0.165-1.823
							c-1.771-0.218-2.983-1.047-3.646-2.486c-0.663-1.435-1.549-2.595-2.652-3.48l-2.651,7.624
							c-3.315-2.43-5.915-6.019-7.79-10.773c-1.881-4.75-2.818-9.002-2.818-12.763c-2.212,0-3.48,0.829-3.812,2.486
							c-0.332,1.657-0.721,3.479-1.161,5.47h-0.331c-0.663,0-1.217-0.384-1.657-1.16c-0.445-0.771-0.886-1.657-1.326-2.652
							c-0.445-0.994-0.942-1.875-1.492-2.651c-0.554-0.772-1.383-1.16-2.485-1.16c-4.424,0-8.898,0.61-13.426,1.823
							c-4.532,1.217-8.898,1.823-13.094,1.823c-0.886,0-1.605-0.166-2.155-0.498c-0.554-0.331-1.273-0.497-2.154-0.497
							c-2.652,0-5.47,0.389-8.453,1.16c-2.983,0.777-5.692,1.16-8.121,1.16c-0.445,0-1.771-0.165-3.979-0.497
							c-2.211-0.331-3.537-0.605-3.978-0.828h-0.663h-0.331c-0.446,0.223-1.161,0.497-2.155,0.828
							c-0.994,0.332-1.605,0.497-1.823,0.497c-0.223,0-0.663-0.217-1.326-0.663c-0.662-0.439-1.108-0.662-1.325-0.662
							c-1.108,0-1.989,1.108-2.652,3.314c-0.663,2.212-1.88,3.314-3.646,3.314l-0.663-0.662l-0.663-0.663
							c-0.223-0.218-0.497-0.384-0.828-0.497c-0.332-0.109-0.721-0.384-1.16-0.829c-0.663-0.218-1.218-0.549-1.658-0.994h-0.331
							l-0.663-0.332l-0.663,0.332c-0.445,0.886-0.663,1.823-0.663,2.817s-0.554,1.714-1.657,2.154
							c-1.108-0.44-1.657-1.326-1.657-2.651c0-1.326,0.549-2.652,1.657-3.979c-0.445-0.217-1.108-0.497-1.989-0.828
							c-0.886-0.332-1.549-0.497-1.988-0.497l-1.326,0.662l-1.326,0.663c-0.223,0.223-0.445,0.332-0.663,0.332h-0.663l-0.994-0.332
							l-1.326-1.325c-2.435,0-4.755,0.497-6.961,1.491c-2.212,0.994-4.424,1.492-6.63,1.492c-1.108,0-1.771-0.275-1.989-0.829
							c-0.223-0.549-0.886-0.829-1.989-0.829h-0.331c-0.223,0.223-0.497,0.497-0.829,0.829c-0.331,0.331-0.497,0.611-0.497,0.829
							c-0.445-2.207-1.491-3.424-3.149-3.646c-1.657-0.218-3.148-0.332-4.475-0.332c-2.435,0-4.424,0.663-5.967,1.989
							c-1.549,1.326-2.543,3.206-2.983,5.635l0.663,1.326c0.217,0.445,0.44,0.777,0.663,0.995v2.983
							c0,1.988-0.611,3.263-1.823,3.812c-1.218,0.555-2.652,1.16-4.31,1.823c-1.658,0.663-3.264,1.715-4.807,3.148
							c-1.549,1.438-2.652,4.034-3.315,7.791l0.663,1.324c0.218,0.445,0.44,0.776,0.663,0.994c0,0.445-0.166,0.941-0.497,1.492
							c-0.331,0.554-0.611,0.941-0.829,1.16c0.44,0,1.104,0.164,1.989,0.496c0.881,0.33,1.435,0.611,1.657,0.828l0.332,0.662
							l-0.332,0.664c-0.223,0.223-0.663,0.444-1.325,0.662c-0.663,0.223-0.995,0.445-0.995,0.663v0.334h0.003V-10.23L86.022-10.23z
							 M104.918-46.694c1.543,0,2.538,0.555,2.983,1.658h-1.326c-1.549,0-2.435-0.55-2.652-1.658H104.918z M107.901-13.215
							c-0.445,0-0.663-0.273-0.663-0.828c0-0.549,0.218-0.715,0.663-0.496C108.781-14.096,108.781-13.653,107.901-13.215z
							 M108.896-42.716h1.326v1.325L108.896-42.716z M117.846-41.391h0.994h0.332c0.44,0.224,0.938,0.446,1.491,0.663
							c0.55,0.223,0.938,0.445,1.16,0.663c-0.445,0.886-0.942,1.771-1.491,2.652c-0.555,0.886-1.383,1.326-2.486,1.326V-41.391z
							 M144.365-8.075c0,0.776-0.223,1.16-0.663,1.16c-0.663,0-0.994-0.384-0.994-1.16c0-0.771,0.331-1.16,0.994-1.16
							C144.143-9.235,144.365-8.848,144.365-8.075z M158.619-42.716c0,0.886-0.331,1.325-0.994,1.325
							c-0.445,0-0.663-0.439-0.663-1.325c0-0.881,0.218-1.326,0.663-1.326C158.288-44.043,158.619-43.597,158.619-42.716z
							 M158.951-35.092h2.651c0,1.989-0.886,2.983-2.651,2.983V-35.092z M163.923-42.716c0,0.886-0.445,1.325-1.325,1.325
							c-0.446,0-0.663-0.439-0.663-1.325c0-0.881,0.217-1.326,0.663-1.326C163.478-44.043,163.923-43.597,163.923-42.716z
							 M166.243-28.628c0,0.996-0.223,1.494-0.662,1.494c-0.663,0-0.995-0.498-0.995-1.494c0-0.994,0.332-1.491,0.995-1.491
							C166.021-30.119,166.243-29.622,166.243-28.628z M169.227-19.514l-1.325,1.326c-0.886-0.662-1.326-1.656-1.326-2.982
							C167.679-21.17,168.564-20.615,169.227-19.514z M169.227-15.865c-0.445,0.223-0.662,0.059-0.662-0.497
							c0-0.549,0.217-0.829,0.662-0.829C170.107-16.746,170.107-16.307,169.227-15.865z M170.553-42.716h2.652
							c0.218,0,0.497,0.663,0.828,1.988c0.332,1.326,0.498,2.435,0.498,3.315c0,1.108-0.389,1.937-1.16,2.486
							c-0.777,0.554-1.715,0.828-2.818,0.828V-42.716z M178.178-17.191c0.217,0.225,0.497,0.445,0.828,0.663
							c0.332,0.224,0.497,0.444,0.497,0.663v0.663v0.663c0,0.886-0.445,1.324-1.325,1.324V-17.191z M196.078-17.191h1.326v2.652
							h-1.326V-17.191z M208.675-17.025c0,0.776-0.332,1.16-0.995,1.16c-0.662,0-0.994-0.384-0.994-1.16
							c0-0.771,0.332-1.16,0.994-1.16C208.343-18.188,208.675-17.799,208.675-17.025z M217.956-35.092h0.663h0.663
							c0.218,0.223,0.44,0.663,0.663,1.326c0.218,0.663,0.331,1.108,0.331,1.326c0,0.445-0.279,0.776-0.828,0.994
							c-0.555,0.223-1.052,0.331-1.492,0.331V-35.092L217.956-35.092z M219.945-43.876c0,0.776-0.223,1.16-0.663,1.16
							c-0.663,0-0.994-0.384-0.994-1.16c0-0.772,0.331-1.16,0.994-1.16C219.723-45.036,219.945-44.648,219.945-43.876z
							 M220.276-37.412c-0.445,0-0.663-0.274-0.663-0.829c0-0.549,0.218-0.828,0.663-0.828
							C221.38-38.625,221.38-38.075,220.276-37.412z M231.05-19.68c0.109,0.557,0.166,1.053,0.166,1.492
							c0,1.108-0.331,2.27-0.994,3.48c-0.663,1.217-1.88,1.822-3.646,1.822c0-1.326,0.383-2.762,1.16-4.311
							c0.771-1.543,1.823-2.761,3.149-3.646C230.885-20.615,230.937-20.229,231.05-19.68z M237.846-24.815
							c0,0.663-0.223,1.108-0.663,1.326c-0.445,0.224-0.663-0.218-0.663-1.326c0-1.104,0.218-1.544,0.663-1.325
							C237.623-25.92,237.846-25.48,237.846-24.815z"/>
						<path fill="#E9188D" d="M170.719-49.229v0.994c0.44,1.326,1.16,3.149,2.155,5.47c0.994,2.32,1.6,3.48,1.823,3.48h1.657
							c0-1.103,0.383-2.263,1.16-3.48c0.771-1.212,1.709-1.823,2.817-1.823h0.332c0.217,0.223,0.715,0.663,1.491,1.326
							c0.771,0.663,1.27,1.108,1.492,1.326h0.331h0.663c0.44-0.218,0.938-0.663,1.491-1.326c0.55-0.663,0.938-1.104,1.161-1.326
							c0.439,0.886,1.6,1.823,3.48,2.818c1.875,0.994,3.258,1.383,4.144,1.16c0.44-0.218,1.932-0.829,4.475-1.823
							c2.538-0.995,4.03-1.71,4.476-2.155l5.304,5.304c0.663,0.663,1.435,0.166,2.32-1.491c0.881-1.657,1.544-2.486,1.989-2.486
							h0.663c1.988,1.108,3.48,2.046,4.475,2.817c0.995,0.777,2.704,1.16,5.139,1.16h0.663c0.217-0.217,0.828-0.714,1.823-1.491
							c0.994-0.771,1.709-1.16,2.154-1.16c0.44,0,0.938,0.331,1.492,0.994c0.549,0.663,0.828,1.218,0.828,1.657
							c2.652-1.543,3.979-3.314,3.979-5.304c0-1.325-0.446-2.206-1.326-2.651c-0.886-0.44-1.326-1.435-1.326-2.983v-0.995
							c0-0.217,0.108-0.549,0.331-0.994c0.44,1.108,1.27,1.989,2.486,2.652c1.212,0.662,2.372,1.108,3.48,1.325
							c-0.445,0.446-0.828,1.44-1.16,2.983c-0.331,1.549-0.279,2.652,0.166,3.315c0.218,0.445,0.994,0.994,2.32,1.657
							s2.207,0.994,2.652,0.994c1.326-1.103,2.098-2.206,2.32-3.314c0.218-1.104,1.104-1.767,2.652-1.989
							c0.439,0.663,0.938,1.492,1.491,2.486c0.549,0.994,1.16,1.492,1.823,1.492h0.663c0.218-0.218,0.497-0.44,0.829-0.663
							c0.331-0.218,0.497-0.44,0.497-0.663c0.88-0.881,1.325-1.767,1.325-2.652l-3.646-6.298c-0.224-0.218-0.166-0.497,0.165-0.829
							c0.332-0.331,0.606-0.497,0.829-0.497h1.326v0.331c1.988,0,3.589,0.389,4.807,1.161c1.212,0.776,2.429,1.657,3.646,2.651
							c1.212,0.994,2.372,1.88,3.48,2.652c1.104,0.776,2.538,1.16,4.31,1.16c0.217,0,0.663-0.497,1.325-1.492
							c0.663-0.994,1.326-2.098,1.989-3.314c0.663-1.212,1.212-2.372,1.657-3.48c0.44-1.104,0.663-1.875,0.663-2.321h0.663h0.663
							c0.218,0.223,0.331,0.663,0.331,1.326v9.282c0.44,0,0.772-0.109,0.995-0.332c2.429-1.766,4.361-3.48,5.801-5.138
							c1.435-1.657,3.921-2.486,7.459-2.486c0.44,0,1.212,0.331,2.32,0.994c1.104,0.663,1.875,1.218,2.32,1.658
							c0-0.881,0.383-1.767,1.16-2.652c0.771-0.881,1.709-1.326,2.817-1.326c0,0.223,0.109,0.445,0.332,0.663l0.663,0.663
							c0.217,0.445,0.44,1.492,0.663,3.149c0.217,1.657,0.439,2.709,0.662,3.149c0.218,0,0.663,0.057,1.326,0.165
							c0.663,0.114,1.104,0.166,1.326,0.166c1.989,0,3.755-0.497,5.304-1.492c1.544-0.994,3.315-1.491,5.304-1.491
							c0.881,0,1.544,0.223,1.989,0.663c0.44,0.445,0.549,1.549,0.332,3.314c0.662-1.766,1.377-2.869,2.154-3.314
							c0.771-0.44,1.823-0.663,3.149-0.663c1.325,0,2.206,0.279,2.651,0.829c0.44,0.554,1.212,0.828,2.32,0.828
							c0.881,0,1.989-0.828,3.315-2.486c1.326-1.657,2.595-3.532,3.812-5.635c1.213-2.098,2.264-4.195,3.149-6.298
							c0.881-2.098,1.326-3.589,1.326-4.475c0-0.218-0.057-0.715-0.166-1.492c-0.113-0.772-0.165-1.378-0.165-1.823
							c-1.771-0.218-2.983-1.046-3.646-2.486c-0.663-1.435-1.549-2.595-2.652-3.48l-2.651,7.624
							c-3.315-2.429-5.915-6.019-7.79-10.773c-1.881-4.75-2.818-9.002-2.818-12.762c-2.212,0-3.48,0.829-3.812,2.486
							c-0.332,1.658-0.721,3.481-1.161,5.47h-0.331c-0.663,0-1.217-0.383-1.657-1.16c-0.445-0.771-0.886-1.657-1.326-2.652
							c-0.445-0.995-0.942-1.875-1.492-2.652c-0.554-0.772-1.383-1.16-2.485-1.16c-4.424,0-8.898,0.611-13.426,1.823
							c-4.532,1.217-8.898,1.823-13.094,1.823c-0.886,0-1.605-0.166-2.155-0.498c-0.554-0.332-1.273-0.497-2.154-0.497
							c-2.652,0-5.47,0.388-8.453,1.16c-2.983,0.777-5.692,1.16-8.121,1.16c-0.445,0-1.771-0.166-3.979-0.497
							c-2.211-0.332-3.537-0.606-3.978-0.829h-0.663h-0.331c-0.446,0.223-1.161,0.497-2.155,0.829
							c-0.994,0.332-1.605,0.497-1.823,0.497c-0.223,0-0.663-0.217-1.326-0.663c-0.662-0.44-1.108-0.663-1.325-0.663
							c-1.108,0-1.989,1.108-2.652,3.314c-0.663,2.212-1.88,3.315-3.646,3.315l-0.663-0.663l-0.663-0.663
							c-0.223-0.218-0.497-0.383-0.828-0.497c-0.332-0.109-0.721-0.383-1.16-0.829c-0.663-0.217-1.218-0.549-1.658-0.994h-0.331
							l-0.663-0.332l-0.663,0.332c-0.445,0.886-0.663,1.823-0.663,2.817c0,0.995-0.554,1.714-1.657,2.155
							c-1.108-0.44-1.657-1.326-1.657-2.652s0.549-2.652,1.657-3.978c-0.445-0.217-1.108-0.497-1.989-0.829
							c-0.886-0.332-1.549-0.497-1.988-0.497l-1.326,0.663l-1.326,0.663c-0.223,0.223-0.445,0.332-0.663,0.332h-0.663l-0.994-0.332
							l-1.326-1.326c-2.435,0-4.755,0.497-6.961,1.492c-2.212,0.994-4.424,1.492-6.63,1.492c-1.108,0-1.771-0.275-1.989-0.829
							c-0.223-0.549-0.886-0.829-1.989-0.829h-0.331c-0.223,0.223-0.497,0.497-0.829,0.829c-0.331,0.332-0.497,0.611-0.497,0.829
							c-0.445-2.207-1.491-3.424-3.149-3.646c-1.657-0.218-3.148-0.332-4.475-0.332c-2.435,0-4.424,0.663-5.967,1.989
							c-1.549,1.326-2.543,3.206-2.983,5.635l0.663,1.326c0.217,0.445,0.44,0.777,0.663,0.995v2.983
							c0,1.989-0.611,3.263-1.823,3.812c-1.218,0.554-2.652,1.16-4.31,1.823c-1.658,0.663-3.264,1.714-4.807,3.149
							c-1.549,1.44-2.652,4.035-3.315,7.79l0.663,1.326c0.218,0.445,0.44,0.777,0.663,0.995c0,0.445-0.166,0.942-0.497,1.492
							c-0.331,0.554-0.611,0.942-0.829,1.16c0.44,0,1.104,0.166,1.989,0.497c0.881,0.332,1.435,0.611,1.657,0.829l0.332,0.663
							l-0.332,0.663c-0.223,0.223-0.663,0.445-1.325,0.663c-0.663,0.223-0.995,0.445-0.995,0.663v0.331H170.719L170.719-49.229z
							 M189.614-85.691c1.543,0,2.538,0.554,2.983,1.658h-1.326c-1.549,0-2.435-0.549-2.652-1.658H189.614z M192.598-52.211
							c-0.445,0-0.663-0.274-0.663-0.829c0-0.549,0.218-0.715,0.663-0.497C193.478-53.092,193.478-52.651,192.598-52.211z
							 M193.592-81.713h1.326v1.326L193.592-81.713z M202.542-80.388h0.994h0.332c0.44,0.223,0.938,0.446,1.491,0.663
							c0.55,0.223,0.938,0.445,1.16,0.663c-0.445,0.886-0.942,1.771-1.491,2.652c-0.555,0.886-1.383,1.326-2.486,1.326V-80.388
							L202.542-80.388z M229.062-47.073c0,0.777-0.223,1.161-0.663,1.161c-0.663,0-0.994-0.384-0.994-1.161
							c0-0.771,0.331-1.16,0.994-1.16C228.839-48.233,229.062-47.845,229.062-47.073z M243.315-81.713
							c0,0.886-0.331,1.326-0.994,1.326c-0.445,0-0.663-0.44-0.663-1.326c0-0.88,0.218-1.326,0.663-1.326
							C242.984-83.042,243.315-82.594,243.315-81.713z M243.647-74.089h2.651c0,1.989-0.886,2.983-2.651,2.983V-74.089z
							 M248.619-81.713c0,0.886-0.445,1.326-1.325,1.326c-0.446,0-0.663-0.44-0.663-1.326c0-0.88,0.217-1.326,0.663-1.326
							C248.174-83.042,248.619-82.594,248.619-81.713z M250.939-67.626c0,0.995-0.223,1.492-0.662,1.492
							c-0.663,0-0.995-0.497-0.995-1.492c0-0.995,0.332-1.492,0.995-1.492C250.717-69.117,250.939-68.62,250.939-67.626z
							 M253.923-58.509l-1.325,1.326c-0.886-0.663-1.326-1.657-1.326-2.983C252.375-60.168,253.261-59.612,253.923-58.509z
							 M253.923-54.863c-0.445,0.223-0.662,0.057-0.662-0.497c0-0.549,0.217-0.829,0.662-0.829
							C254.804-55.743,254.804-55.303,253.923-54.863z M255.249-81.713h2.652c0.218,0,0.497,0.663,0.828,1.989
							c0.332,1.326,0.498,2.435,0.498,3.315c0,1.108-0.389,1.937-1.16,2.486c-0.777,0.554-1.715,0.829-2.818,0.829V-81.713z
							 M262.874-56.189c0.217,0.223,0.497,0.445,0.828,0.663c0.332,0.223,0.497,0.445,0.497,0.663v0.663v0.663
							c0,0.886-0.445,1.326-1.325,1.326V-56.189z M280.774-56.189h1.326v2.651h-1.326V-56.189z M293.371-56.023
							c0,0.777-0.332,1.16-0.995,1.16c-0.662,0-0.994-0.383-0.994-1.16c0-0.771,0.332-1.16,0.994-1.16
							C293.039-57.183,293.371-56.794,293.371-56.023z M302.652-74.089h0.663h0.663c0.218,0.223,0.44,0.663,0.663,1.326
							c0.218,0.663,0.331,1.108,0.331,1.326c0,0.445-0.279,0.777-0.828,0.994c-0.555,0.223-1.052,0.332-1.492,0.332V-74.089
							L302.652-74.089z M304.642-82.875c0,0.777-0.223,1.16-0.663,1.16c-0.663,0-0.994-0.383-0.994-1.16
							c0-0.772,0.331-1.16,0.994-1.16C304.419-84.034,304.642-83.647,304.642-82.875z M304.973-76.41
							c-0.445,0-0.663-0.274-0.663-0.829c0-0.549,0.218-0.829,0.663-0.829C306.076-77.622,306.076-77.073,304.973-76.41z
							 M315.746-58.675c0.109,0.554,0.166,1.051,0.166,1.492c0,1.108-0.331,2.269-0.994,3.48c-0.663,1.218-1.88,1.823-3.646,1.823
							c0-1.325,0.383-2.76,1.16-4.309c0.771-1.543,1.823-2.761,3.149-3.646C315.581-59.612,315.633-59.224,315.746-58.675z
							 M322.542-63.813c0,0.663-0.223,1.108-0.663,1.326c-0.445,0.223-0.663-0.218-0.663-1.326c0-1.103,0.218-1.543,0.663-1.326
							C322.319-64.917,322.542-64.478,322.542-63.813z"/>
						<path fill="#E9188D" d="M1.326-49.229v0.994c0.44,1.326,1.16,3.149,2.155,5.47c0.994,2.32,1.6,3.48,1.823,3.48h1.657
							c0-1.103,0.383-2.263,1.16-3.48c0.771-1.212,1.709-1.823,2.817-1.823h0.332c0.217,0.223,0.715,0.663,1.491,1.326
							c0.771,0.663,1.27,1.108,1.492,1.326h0.331h0.663c0.44-0.218,0.938-0.663,1.491-1.326c0.55-0.663,0.938-1.104,1.161-1.326
							c0.439,0.886,1.6,1.823,3.48,2.818c1.875,0.994,3.258,1.383,4.144,1.16c0.44-0.218,1.932-0.829,4.475-1.823
							c2.538-0.995,4.03-1.71,4.476-2.155l5.304,5.304c0.663,0.663,1.435,0.166,2.32-1.491c0.881-1.657,1.544-2.486,1.989-2.486
							h0.663c1.988,1.108,3.48,2.046,4.475,2.817c0.995,0.777,2.704,1.16,5.139,1.16h0.663c0.217-0.217,0.828-0.714,1.823-1.491
							c0.994-0.771,1.709-1.16,2.154-1.16c0.44,0,0.938,0.331,1.492,0.994c0.549,0.663,0.828,1.218,0.828,1.657
							c2.652-1.543,3.979-3.314,3.979-5.304c0-1.325-0.446-2.206-1.326-2.651c-0.886-0.44-1.326-1.435-1.326-2.983v-0.995
							c0-0.217,0.108-0.549,0.331-0.994c0.44,1.108,1.27,1.989,2.486,2.652c1.212,0.662,2.372,1.108,3.48,1.325
							c-0.445,0.446-0.828,1.44-1.16,2.983c-0.331,1.549-0.279,2.652,0.166,3.315c0.218,0.445,0.994,0.994,2.32,1.657
							s2.207,0.994,2.652,0.994c1.326-1.103,2.098-2.206,2.32-3.314c0.218-1.104,1.104-1.767,2.652-1.989
							c0.439,0.663,0.938,1.492,1.491,2.486c0.549,0.994,1.16,1.492,1.823,1.492h0.663c0.218-0.218,0.497-0.44,0.829-0.663
							c0.331-0.218,0.497-0.44,0.497-0.663c0.88-0.881,1.325-1.767,1.325-2.652l-3.646-6.298c-0.224-0.218-0.166-0.497,0.165-0.829
							c0.332-0.331,0.606-0.497,0.829-0.497H83.2v0.331c1.988,0,3.589,0.389,4.807,1.161c1.212,0.776,2.429,1.657,3.646,2.651
							c1.212,0.994,2.372,1.88,3.48,2.652c1.104,0.776,2.538,1.16,4.31,1.16c0.217,0,0.663-0.497,1.325-1.492
							c0.663-0.994,1.326-2.098,1.989-3.314c0.663-1.212,1.212-2.372,1.657-3.48c0.44-1.104,0.663-1.875,0.663-2.321h0.663h0.663
							c0.218,0.223,0.331,0.663,0.331,1.326v9.282c0.44,0,0.772-0.109,0.995-0.332c2.429-1.766,4.361-3.48,5.801-5.138
							c1.435-1.657,3.921-2.486,7.459-2.486c0.44,0,1.212,0.331,2.32,0.994c1.104,0.663,1.875,1.218,2.32,1.658
							c0-0.881,0.383-1.767,1.16-2.652c0.771-0.881,1.709-1.326,2.817-1.326c0,0.223,0.109,0.445,0.332,0.663l0.663,0.663
							c0.217,0.445,0.44,1.492,0.663,3.149c0.217,1.657,0.439,2.709,0.662,3.149c0.218,0,0.663,0.057,1.326,0.165
							c0.663,0.114,1.104,0.166,1.326,0.166c1.989,0,3.755-0.497,5.304-1.492c1.544-0.994,3.315-1.491,5.304-1.491
							c0.881,0,1.544,0.223,1.989,0.663c0.44,0.445,0.549,1.549,0.332,3.314c0.662-1.766,1.377-2.869,2.154-3.314
							c0.771-0.44,1.823-0.663,3.149-0.663c1.325,0,2.206,0.279,2.651,0.829c0.44,0.554,1.212,0.828,2.32,0.828
							c0.881,0,1.989-0.828,3.315-2.486c1.326-1.657,2.595-3.532,3.812-5.635c1.213-2.098,2.264-4.195,3.149-6.298
							c0.881-2.098,1.326-3.589,1.326-4.475c0-0.218-0.057-0.715-0.166-1.492c-0.113-0.772-0.165-1.378-0.165-1.823
							c-1.771-0.218-2.983-1.046-3.646-2.486c-0.663-1.435-1.549-2.595-2.652-3.48l-2.651,7.624
							c-3.315-2.429-5.915-6.019-7.79-10.773c-1.881-4.75-2.818-9.002-2.818-12.762c-2.212,0-3.48,0.829-3.812,2.486
							c-0.332,1.658-0.721,3.481-1.161,5.47h-0.331c-0.663,0-1.217-0.383-1.657-1.16c-0.445-0.771-0.886-1.657-1.326-2.652
							c-0.445-0.995-0.942-1.875-1.492-2.652c-0.554-0.772-1.383-1.16-2.485-1.16c-4.424,0-8.898,0.611-13.426,1.823
							c-4.532,1.217-8.898,1.823-13.094,1.823c-0.886,0-1.605-0.166-2.155-0.498c-0.554-0.332-1.273-0.497-2.154-0.497
							c-2.652,0-5.47,0.388-8.453,1.16c-2.983,0.777-5.692,1.16-8.121,1.16c-0.445,0-1.771-0.166-3.979-0.497
							c-2.211-0.332-3.537-0.606-3.978-0.829h-0.663h-0.331c-0.446,0.223-1.161,0.497-2.155,0.829s-1.605,0.497-1.823,0.497
							c-0.223,0-0.663-0.217-1.326-0.663c-0.662-0.44-1.108-0.663-1.325-0.663c-1.108,0-1.989,1.108-2.652,3.314
							c-0.663,2.212-1.88,3.315-3.646,3.315l-0.663-0.663l-0.663-0.663c-0.223-0.218-0.497-0.383-0.828-0.497
							c-0.332-0.109-0.721-0.383-1.16-0.829c-0.663-0.217-1.218-0.549-1.658-0.994h-0.331l-0.663-0.332l-0.663,0.332
							c-0.445,0.886-0.663,1.823-0.663,2.817c0,0.995-0.554,1.714-1.657,2.155c-1.108-0.44-1.657-1.326-1.657-2.652
							s0.549-2.652,1.657-3.978c-0.445-0.217-1.108-0.497-1.989-0.829c-0.886-0.332-1.549-0.497-1.988-0.497l-1.326,0.663
							l-1.326,0.663c-0.223,0.223-0.445,0.332-0.663,0.332H51.05l-0.994-0.332L48.73-87.02c-2.435,0-4.755,0.497-6.961,1.492
							c-2.212,0.994-4.424,1.492-6.63,1.492c-1.108,0-1.771-0.275-1.989-0.829c-0.223-0.549-0.886-0.829-1.989-0.829H30.83
							c-0.223,0.223-0.497,0.497-0.829,0.829c-0.331,0.332-0.497,0.611-0.497,0.829c-0.445-2.207-1.491-3.424-3.149-3.646
							c-1.657-0.218-3.148-0.332-4.475-0.332c-2.435,0-4.424,0.663-5.967,1.989c-1.549,1.326-2.543,3.206-2.983,5.635l0.663,1.326
							c0.217,0.445,0.44,0.777,0.663,0.995v2.983c0,1.989-0.611,3.263-1.823,3.812c-1.218,0.554-2.652,1.16-4.31,1.823
							c-1.658,0.663-3.264,1.714-4.807,3.149c-1.549,1.44-2.652,4.035-3.315,7.79l0.663,1.326c0.218,0.445,0.44,0.777,0.663,0.995
							c0,0.445-0.166,0.942-0.497,1.492c-0.332,0.554-0.612,0.942-0.83,1.16c0.44,0,1.104,0.166,1.989,0.497
							c0.881,0.332,1.435,0.611,1.657,0.829l0.332,0.663l-0.332,0.663c-0.223,0.223-0.663,0.445-1.325,0.663
							C1.658-50,1.326-49.778,1.326-49.561V-49.229z M20.222-85.691c1.543,0,2.538,0.554,2.983,1.658h-1.326
							c-1.549,0-2.435-0.549-2.652-1.658H20.222z M23.205-52.211c-0.445,0-0.663-0.274-0.663-0.829c0-0.549,0.218-0.715,0.663-0.497
							C24.085-53.092,24.085-52.651,23.205-52.211z M24.199-81.713h1.326v1.326L24.199-81.713z M33.149-80.388h0.994h0.332
							c0.44,0.223,0.938,0.446,1.491,0.663c0.55,0.223,0.938,0.445,1.16,0.663c-0.445,0.886-0.942,1.771-1.491,2.652
							c-0.555,0.886-1.383,1.326-2.486,1.326V-80.388z M59.669-47.073c0,0.777-0.223,1.161-0.663,1.161
							c-0.663,0-0.994-0.384-0.994-1.161c0-0.771,0.331-1.16,0.994-1.16C59.446-48.233,59.669-47.845,59.669-47.073z M73.923-81.713
							c0,0.886-0.331,1.326-0.994,1.326c-0.445,0-0.663-0.44-0.663-1.326c0-0.88,0.218-1.326,0.663-1.326
							C73.592-83.042,73.923-82.594,73.923-81.713z M74.255-74.089h2.651c0,1.989-0.886,2.983-2.651,2.983V-74.089z M79.227-81.713
							c0,0.886-0.445,1.326-1.325,1.326c-0.446,0-0.663-0.44-0.663-1.326c0-0.88,0.217-1.326,0.663-1.326
							C78.781-83.042,79.227-82.594,79.227-81.713z M81.547-67.626c0,0.995-0.223,1.492-0.662,1.492
							c-0.663,0-0.995-0.497-0.995-1.492c0-0.995,0.332-1.492,0.995-1.492C81.324-69.117,81.547-68.62,81.547-67.626z M84.53-58.509
							l-1.325,1.326c-0.886-0.663-1.326-1.657-1.326-2.983C82.982-60.168,83.868-59.612,84.53-58.509z M84.53-54.863
							c-0.445,0.223-0.662,0.057-0.662-0.497c0-0.549,0.217-0.829,0.662-0.829C85.411-55.743,85.411-55.303,84.53-54.863z
							 M85.856-81.713h2.652c0.218,0,0.497,0.663,0.828,1.989c0.332,1.326,0.498,2.435,0.498,3.315c0,1.108-0.389,1.937-1.16,2.486
							c-0.777,0.554-1.715,0.829-2.818,0.829V-81.713z M93.481-56.189c0.217,0.223,0.497,0.445,0.828,0.663
							c0.332,0.223,0.497,0.445,0.497,0.663v0.663v0.663c0,0.886-0.445,1.326-1.325,1.326V-56.189z M111.382-56.189h1.326v2.651
							h-1.326V-56.189z M123.979-56.023c0,0.777-0.332,1.16-0.995,1.16c-0.662,0-0.994-0.383-0.994-1.16
							c0-0.771,0.332-1.16,0.994-1.16S123.979-56.794,123.979-56.023z M133.26-74.089h0.663h0.663
							c0.218,0.223,0.44,0.663,0.663,1.326c0.218,0.663,0.331,1.108,0.331,1.326c0,0.445-0.279,0.777-0.828,0.994
							c-0.555,0.223-1.052,0.332-1.492,0.332V-74.089L133.26-74.089z M135.249-82.875c0,0.777-0.223,1.16-0.663,1.16
							c-0.663,0-0.994-0.383-0.994-1.16c0-0.772,0.331-1.16,0.994-1.16C135.026-84.034,135.249-83.647,135.249-82.875z
							 M135.58-76.41c-0.445,0-0.663-0.274-0.663-0.829c0-0.549,0.218-0.829,0.663-0.829
							C136.684-77.622,136.684-77.073,135.58-76.41z M146.354-58.675c0.109,0.554,0.166,1.051,0.166,1.492
							c0,1.108-0.331,2.269-0.994,3.48c-0.663,1.218-1.88,1.823-3.646,1.823c0-1.325,0.383-2.76,1.16-4.309
							c0.771-1.543,1.823-2.761,3.149-3.646C146.188-59.612,146.24-59.224,146.354-58.675z M153.149-63.813
							c0,0.663-0.223,1.108-0.663,1.326c-0.445,0.223-0.663-0.218-0.663-1.326c0-1.103,0.218-1.543,0.663-1.326
							C152.927-64.917,153.149-64.478,153.149-63.813z"/>
						<path fill="#E9188D" d="M86.022-88.225v0.994c0.44,1.326,1.16,3.149,2.155,5.47c0.994,2.32,1.6,3.48,1.823,3.48h1.657
							c0-1.103,0.383-2.263,1.16-3.48c0.771-1.212,1.709-1.823,2.817-1.823h0.332c0.217,0.223,0.715,0.663,1.491,1.326
							c0.771,0.663,1.27,1.108,1.492,1.326h0.331h0.663c0.44-0.217,0.938-0.663,1.491-1.326c0.55-0.663,0.938-1.104,1.161-1.326
							c0.439,0.886,1.6,1.823,3.48,2.818c1.875,0.994,3.258,1.383,4.144,1.16c0.44-0.218,1.932-0.829,4.475-1.823
							c2.538-0.995,4.03-1.709,4.476-2.155l5.304,5.304c0.663,0.663,1.435,0.166,2.32-1.492c0.881-1.657,1.544-2.486,1.989-2.486
							h0.663c1.988,1.108,3.48,2.046,4.475,2.817c0.995,0.777,2.704,1.16,5.139,1.16h0.663c0.217-0.217,0.828-0.714,1.823-1.492
							c0.994-0.771,1.709-1.16,2.154-1.16c0.44,0,0.938,0.332,1.492,0.995c0.549,0.663,0.828,1.217,0.828,1.657
							c2.652-1.543,3.979-3.315,3.979-5.304c0-1.326-0.446-2.207-1.326-2.652c-0.886-0.44-1.326-1.435-1.326-2.983v-0.995
							c0-0.217,0.108-0.549,0.331-0.994c0.44,1.108,1.27,1.989,2.486,2.652c1.212,0.663,2.372,1.108,3.48,1.326
							c-0.445,0.446-0.828,1.44-1.16,2.983c-0.331,1.549-0.279,2.652,0.166,3.315c0.218,0.446,0.994,0.995,2.32,1.658
							c1.326,0.663,2.207,0.994,2.652,0.994c1.326-1.103,2.098-2.206,2.32-3.315c0.218-1.104,1.104-1.766,2.652-1.989
							c0.439,0.663,0.938,1.492,1.491,2.486c0.549,0.994,1.16,1.492,1.823,1.492h0.663c0.218-0.218,0.497-0.44,0.829-0.663
							c0.331-0.217,0.497-0.44,0.497-0.663c0.88-0.88,1.325-1.766,1.325-2.652l-3.646-6.298c-0.224-0.217-0.166-0.497,0.165-0.829
							c0.332-0.332,0.606-0.497,0.829-0.497h1.326v0.331c1.988,0,3.589,0.389,4.807,1.161c1.212,0.777,2.429,1.657,3.646,2.652
							c1.212,0.994,2.372,1.88,3.48,2.652c1.104,0.777,2.538,1.16,4.31,1.16c0.217,0,0.663-0.497,1.325-1.492
							c0.663-0.995,1.326-2.098,1.989-3.315c0.663-1.212,1.212-2.372,1.657-3.48c0.44-1.104,0.663-1.875,0.663-2.321h0.663h0.663
							c0.218,0.223,0.331,0.663,0.331,1.326v9.282c0.44,0,0.772-0.109,0.995-0.332c2.429-1.766,4.361-3.48,5.801-5.138
							c1.435-1.657,3.921-2.486,7.459-2.486c0.44,0,1.212,0.331,2.32,0.994c1.104,0.663,1.875,1.217,2.32,1.658
							c0-0.881,0.383-1.767,1.16-2.652c0.771-0.881,1.709-1.326,2.817-1.326c0,0.223,0.109,0.445,0.332,0.663l0.663,0.663
							c0.217,0.445,0.44,1.492,0.663,3.149c0.217,1.657,0.439,2.709,0.662,3.149c0.218,0,0.663,0.057,1.326,0.166
							c0.663,0.114,1.104,0.166,1.326,0.166c1.989,0,3.755-0.497,5.304-1.492c1.544-0.994,3.315-1.492,5.304-1.492
							c0.881,0,1.544,0.223,1.989,0.663c0.44,0.445,0.549,1.549,0.332,3.315c0.662-1.766,1.377-2.87,2.154-3.315
							c0.771-0.44,1.823-0.663,3.149-0.663c1.325,0,2.206,0.28,2.651,0.829c0.44,0.554,1.212,0.829,2.32,0.829
							c0.881,0,1.989-0.829,3.315-2.486c1.326-1.657,2.595-3.532,3.812-5.635c1.213-2.098,2.264-4.195,3.149-6.298
							c0.881-2.098,1.326-3.589,1.326-4.475c0-0.218-0.057-0.715-0.166-1.492c-0.113-0.772-0.165-1.378-0.165-1.823
							c-1.771-0.218-2.983-1.046-3.646-2.486c-0.663-1.435-1.549-2.595-2.652-3.48l-2.651,7.624
							c-3.315-2.429-5.915-6.019-7.79-10.773c-1.881-4.75-2.818-9.002-2.818-12.762c-2.212,0-3.48,0.829-3.812,2.486
							c-0.332,1.658-0.721,3.481-1.161,5.47h-0.331c-0.663,0-1.217-0.383-1.657-1.16c-0.445-0.771-0.886-1.657-1.326-2.652
							c-0.445-0.995-0.942-1.875-1.492-2.652c-0.554-0.772-1.383-1.16-2.485-1.16c-4.424,0-8.898,0.611-13.426,1.823
							c-4.532,1.217-8.898,1.823-13.094,1.823c-0.886,0-1.605-0.166-2.155-0.498c-0.554-0.332-1.273-0.497-2.154-0.497
							c-2.652,0-5.47,0.388-8.453,1.16c-2.983,0.777-5.692,1.16-8.121,1.16c-0.445,0-1.771-0.166-3.979-0.497
							c-2.211-0.332-3.537-0.606-3.978-0.829h-0.663h-0.331c-0.446,0.223-1.161,0.497-2.155,0.829
							c-0.994,0.332-1.605,0.497-1.823,0.497c-0.223,0-0.663-0.217-1.326-0.663c-0.662-0.44-1.108-0.663-1.325-0.663
							c-1.108,0-1.989,1.108-2.652,3.314c-0.663,2.212-1.88,3.315-3.646,3.315l-0.663-0.663l-0.663-0.663
							c-0.223-0.218-0.497-0.383-0.828-0.497c-0.332-0.109-0.721-0.383-1.16-0.829c-0.663-0.217-1.218-0.549-1.658-0.994h-0.331
							l-0.663-0.332l-0.663,0.332c-0.445,0.886-0.663,1.823-0.663,2.817c0,0.995-0.554,1.714-1.657,2.155
							c-1.108-0.44-1.657-1.326-1.657-2.652c0-1.326,0.549-2.652,1.657-3.978c-0.445-0.217-1.108-0.497-1.989-0.829
							c-0.886-0.332-1.549-0.497-1.988-0.497l-1.326,0.663l-1.326,0.663c-0.223,0.223-0.445,0.332-0.663,0.332h-0.663l-0.994-0.332
							l-1.326-1.326c-2.435,0-4.755,0.497-6.961,1.492c-2.212,0.994-4.424,1.492-6.63,1.492c-1.108,0-1.771-0.275-1.989-0.829
							c-0.223-0.549-0.886-0.829-1.989-0.829h-0.331c-0.223,0.223-0.497,0.497-0.829,0.829c-0.331,0.332-0.497,0.611-0.497,0.829
							c-0.445-2.207-1.491-3.424-3.149-3.646c-1.657-0.218-3.148-0.332-4.475-0.332c-2.435,0-4.424,0.663-5.967,1.989
							c-1.549,1.326-2.543,3.206-2.983,5.635l0.663,1.326c0.217,0.445,0.44,0.777,0.663,0.995v2.983
							c0,1.989-0.611,3.263-1.823,3.812c-1.218,0.554-2.652,1.16-4.31,1.823c-1.658,0.663-3.264,1.714-4.807,3.149
							c-1.549,1.44-2.652,4.035-3.315,7.79l0.663,1.326c0.218,0.445,0.44,0.777,0.663,0.995c0,0.445-0.166,0.942-0.497,1.492
							c-0.331,0.554-0.611,0.942-0.829,1.16c0.44,0,1.104,0.166,1.989,0.497c0.881,0.332,1.435,0.611,1.657,0.829l0.332,0.663
							l-0.332,0.663c-0.223,0.223-0.663,0.445-1.325,0.663c-0.663,0.223-0.995,0.445-0.995,0.663v0.331H86.022L86.022-88.225z
							 M104.918-124.689c1.543,0,2.538,0.554,2.983,1.658h-1.326c-1.549,0-2.435-0.549-2.652-1.658H104.918z M107.901-91.209
							c-0.445,0-0.663-0.275-0.663-0.829c0-0.549,0.218-0.715,0.663-0.497C108.781-92.089,108.781-91.648,107.901-91.209z
							 M108.896-120.711h1.326v1.326L108.896-120.711z M117.846-119.385h0.994h0.332c0.44,0.223,0.938,0.446,1.491,0.663
							c0.55,0.223,0.938,0.445,1.16,0.663c-0.445,0.886-0.942,1.771-1.491,2.652c-0.555,0.886-1.383,1.326-2.486,1.326V-119.385z
							 M144.365-86.07c0,0.777-0.223,1.161-0.663,1.161c-0.663,0-0.994-0.383-0.994-1.161c0-0.771,0.331-1.16,0.994-1.16
							C144.143-87.23,144.365-86.842,144.365-86.07z M158.619-120.711c0,0.886-0.331,1.326-0.994,1.326
							c-0.445,0-0.663-0.44-0.663-1.326c0-0.88,0.218-1.326,0.663-1.326C158.288-122.037,158.619-121.591,158.619-120.711z
							 M158.951-113.087h2.651c0,1.989-0.886,2.983-2.651,2.983V-113.087z M163.923-120.711c0,0.886-0.445,1.326-1.325,1.326
							c-0.446,0-0.663-0.44-0.663-1.326c0-0.88,0.217-1.326,0.663-1.326C163.478-122.037,163.923-121.591,163.923-120.711z
							 M166.243-106.623c0,0.995-0.223,1.492-0.662,1.492c-0.663,0-0.995-0.497-0.995-1.492c0-0.995,0.332-1.492,0.995-1.492
							C166.021-108.114,166.243-107.617,166.243-106.623z M169.227-97.507l-1.325,1.326c-0.886-0.663-1.326-1.657-1.326-2.983
							C167.679-99.164,168.564-98.61,169.227-97.507z M169.227-93.86c-0.445,0.223-0.662,0.057-0.662-0.497
							c0-0.549,0.217-0.829,0.662-0.829C170.107-94.741,170.107-94.3,169.227-93.86z M170.553-120.711h2.652
							c0.218,0,0.497,0.663,0.828,1.989c0.332,1.326,0.498,2.435,0.498,3.315c0,1.108-0.389,1.938-1.16,2.486
							c-0.777,0.554-1.715,0.829-2.818,0.829V-120.711z M178.178-95.188c0.217,0.223,0.497,0.445,0.828,0.663
							c0.332,0.223,0.497,0.445,0.497,0.663v0.663v0.663c0,0.886-0.445,1.326-1.325,1.326V-95.188z M196.078-95.188h1.326v2.652
							h-1.326V-95.188z M208.675-95.022c0,0.777-0.332,1.16-0.995,1.16c-0.662,0-0.994-0.383-0.994-1.16
							c0-0.771,0.332-1.16,0.994-1.16C208.343-96.181,208.675-95.793,208.675-95.022z M217.956-113.087h0.663h0.663
							c0.218,0.223,0.44,0.663,0.663,1.326c0.218,0.663,0.331,1.108,0.331,1.326c0,0.445-0.279,0.777-0.828,0.994
							c-0.555,0.223-1.052,0.332-1.492,0.332V-113.087L217.956-113.087z M219.945-121.871c0,0.777-0.223,1.16-0.663,1.16
							c-0.663,0-0.994-0.383-0.994-1.16c0-0.772,0.331-1.16,0.994-1.16C219.723-123.031,219.945-122.645,219.945-121.871z
							 M220.276-115.407c-0.445,0-0.663-0.274-0.663-0.829c0-0.549,0.218-0.829,0.663-0.829
							C221.38-116.619,221.38-116.07,220.276-115.407z M231.05-97.672c0.109,0.554,0.166,1.051,0.166,1.492
							c0,1.108-0.331,2.269-0.994,3.48c-0.663,1.217-1.88,1.823-3.646,1.823c0-1.326,0.383-2.761,1.16-4.309
							c0.771-1.543,1.823-2.761,3.149-3.646C230.885-98.61,230.937-98.221,231.05-97.672z M237.846-102.812
							c0,0.663-0.223,1.108-0.663,1.326c-0.445,0.223-0.663-0.218-0.663-1.326c0-1.103,0.218-1.543,0.663-1.326
							C237.623-103.914,237.846-103.474,237.846-102.812z"/>
						<path fill="#E9188D" d="M170.719-127.222v0.994c0.44,1.326,1.16,3.149,2.155,5.47c0.994,2.32,1.6,3.48,1.823,3.48h1.657
							c0-1.103,0.383-2.263,1.16-3.48c0.771-1.212,1.709-1.823,2.817-1.823h0.332c0.217,0.223,0.715,0.663,1.491,1.326
							c0.771,0.663,1.27,1.108,1.492,1.326h0.331h0.663c0.44-0.217,0.938-0.663,1.491-1.326c0.55-0.663,0.938-1.104,1.161-1.326
							c0.439,0.886,1.6,1.823,3.48,2.818c1.875,0.994,3.258,1.383,4.144,1.16c0.44-0.218,1.932-0.829,4.475-1.823
							c2.538-0.995,4.03-1.709,4.476-2.155l5.304,5.304c0.663,0.663,1.435,0.166,2.32-1.492c0.881-1.657,1.544-2.486,1.989-2.486
							h0.663c1.988,1.108,3.48,2.046,4.475,2.817c0.995,0.777,2.704,1.16,5.139,1.16h0.663c0.217-0.217,0.828-0.714,1.823-1.492
							c0.994-0.771,1.709-1.16,2.154-1.16c0.44,0,0.938,0.332,1.492,0.995c0.549,0.663,0.828,1.217,0.828,1.657
							c2.652-1.543,3.979-3.315,3.979-5.304c0-1.326-0.446-2.207-1.326-2.652c-0.886-0.44-1.326-1.435-1.326-2.983v-0.995
							c0-0.217,0.108-0.549,0.331-0.994c0.44,1.108,1.27,1.989,2.486,2.652c1.212,0.663,2.372,1.108,3.48,1.326
							c-0.445,0.446-0.828,1.44-1.16,2.983c-0.331,1.549-0.279,2.652,0.166,3.315c0.218,0.446,0.994,0.995,2.32,1.658
							s2.207,0.994,2.652,0.994c1.326-1.103,2.098-2.206,2.32-3.315c0.218-1.103,1.104-1.766,2.652-1.989
							c0.439,0.663,0.938,1.492,1.491,2.486c0.549,0.994,1.16,1.492,1.823,1.492h0.663c0.218-0.218,0.497-0.44,0.829-0.663
							c0.331-0.217,0.497-0.44,0.497-0.663c0.88-0.88,1.325-1.766,1.325-2.652l-3.646-6.298c-0.224-0.217-0.166-0.497,0.165-0.829
							c0.332-0.332,0.606-0.497,0.829-0.497h1.326v0.331c1.988,0,3.589,0.389,4.807,1.161c1.212,0.777,2.429,1.657,3.646,2.652
							c1.212,0.994,2.372,1.88,3.48,2.652c1.104,0.777,2.538,1.16,4.31,1.16c0.217,0,0.663-0.497,1.325-1.492
							c0.663-0.995,1.326-2.098,1.989-3.315c0.663-1.212,1.212-2.372,1.657-3.48c0.44-1.104,0.663-1.875,0.663-2.321h0.663h0.663
							c0.218,0.223,0.331,0.663,0.331,1.326v9.282c0.44,0,0.772-0.109,0.995-0.332c2.429-1.766,4.361-3.48,5.801-5.138
							c1.435-1.657,3.921-2.486,7.459-2.486c0.44,0,1.212,0.331,2.32,0.994c1.104,0.663,1.875,1.217,2.32,1.658
							c0-0.881,0.383-1.767,1.16-2.652c0.771-0.881,1.709-1.326,2.817-1.326c0,0.223,0.109,0.445,0.332,0.663l0.663,0.663
							c0.217,0.445,0.44,1.492,0.663,3.149c0.217,1.657,0.439,2.709,0.662,3.149c0.218,0,0.663,0.057,1.326,0.166
							c0.663,0.114,1.104,0.166,1.326,0.166c1.989,0,3.755-0.497,5.304-1.492c1.544-0.994,3.315-1.492,5.304-1.492
							c0.881,0,1.544,0.223,1.989,0.663c0.44,0.445,0.549,1.549,0.332,3.315c0.662-1.766,1.377-2.87,2.154-3.315
							c0.771-0.44,1.823-0.663,3.149-0.663c1.325,0,2.206,0.28,2.651,0.829c0.44,0.554,1.212,0.829,2.32,0.829
							c0.881,0,1.989-0.829,3.315-2.486c1.326-1.657,2.595-3.532,3.812-5.635c1.213-2.098,2.264-4.195,3.149-6.298
							c0.881-2.098,1.326-3.589,1.326-4.475c0-0.218-0.057-0.715-0.166-1.492c-0.113-0.772-0.165-1.378-0.165-1.823
							c-1.771-0.218-2.983-1.046-3.646-2.486c-0.663-1.435-1.549-2.595-2.652-3.48l-2.651,7.624
							c-3.315-2.429-5.915-6.019-7.79-10.773c-1.881-4.75-2.818-9.002-2.818-12.762c-2.212,0-3.48,0.829-3.812,2.486
							c-0.332,1.658-0.721,3.481-1.161,5.47h-0.331c-0.663,0-1.217-0.383-1.657-1.16c-0.445-0.771-0.886-1.657-1.326-2.652
							c-0.445-0.995-0.942-1.875-1.492-2.652c-0.554-0.772-1.383-1.16-2.485-1.16c-4.424,0-8.898,0.611-13.426,1.823
							c-4.532,1.217-8.898,1.823-13.094,1.823c-0.886,0-1.605-0.166-2.155-0.498c-0.554-0.332-1.273-0.497-2.154-0.497
							c-2.652,0-5.47,0.388-8.453,1.16c-2.983,0.777-5.692,1.16-8.121,1.16c-0.445,0-1.771-0.166-3.979-0.497
							c-2.211-0.332-3.537-0.606-3.978-0.829h-0.663h-0.331c-0.446,0.223-1.161,0.497-2.155,0.829
							c-0.994,0.332-1.605,0.497-1.823,0.497c-0.223,0-0.663-0.217-1.326-0.663c-0.662-0.44-1.108-0.663-1.325-0.663
							c-1.108,0-1.989,1.108-2.652,3.314c-0.663,2.212-1.88,3.315-3.646,3.315l-0.663-0.663l-0.663-0.663
							c-0.223-0.218-0.497-0.383-0.828-0.497c-0.332-0.109-0.721-0.383-1.16-0.829c-0.663-0.217-1.218-0.549-1.658-0.994h-0.331
							l-0.663-0.332l-0.663,0.332c-0.445,0.886-0.663,1.823-0.663,2.817c0,0.995-0.554,1.714-1.657,2.155
							c-1.108-0.44-1.657-1.326-1.657-2.652c0-1.326,0.549-2.652,1.657-3.978c-0.445-0.217-1.108-0.497-1.989-0.829
							c-0.886-0.332-1.549-0.497-1.988-0.497l-1.326,0.663l-1.326,0.663c-0.223,0.223-0.445,0.332-0.663,0.332h-0.663l-0.994-0.332
							l-1.326-1.326c-2.435,0-4.755,0.497-6.961,1.492c-2.212,0.994-4.424,1.492-6.63,1.492c-1.108,0-1.771-0.275-1.989-0.829
							c-0.223-0.549-0.886-0.829-1.989-0.829h-0.331c-0.223,0.223-0.497,0.497-0.829,0.829c-0.331,0.332-0.497,0.611-0.497,0.829
							c-0.445-2.207-1.491-3.424-3.149-3.646c-1.657-0.218-3.148-0.332-4.475-0.332c-2.435,0-4.424,0.663-5.967,1.989
							c-1.549,1.326-2.543,3.206-2.983,5.635l0.663,1.326c0.217,0.445,0.44,0.777,0.663,0.995v2.983
							c0,1.989-0.611,3.263-1.823,3.812c-1.218,0.554-2.652,1.16-4.31,1.823c-1.658,0.663-3.264,1.714-4.807,3.149
							c-1.549,1.44-2.652,4.035-3.315,7.79l0.663,1.326c0.218,0.445,0.44,0.777,0.663,0.995c0,0.445-0.166,0.942-0.497,1.492
							c-0.331,0.554-0.611,0.942-0.829,1.16c0.44,0,1.104,0.166,1.989,0.497c0.881,0.332,1.435,0.611,1.657,0.829l0.332,0.663
							l-0.332,0.663c-0.223,0.223-0.663,0.445-1.325,0.663c-0.663,0.223-0.995,0.445-0.995,0.663v0.331H170.719L170.719-127.222z
							 M189.614-163.688c1.543,0,2.538,0.554,2.983,1.658h-1.326c-1.549,0-2.435-0.549-2.652-1.658H189.614z M192.598-130.206
							c-0.445,0-0.663-0.275-0.663-0.829c0-0.549,0.218-0.715,0.663-0.497C193.478-131.086,193.478-130.647,192.598-130.206z
							 M193.592-159.709h1.326v1.326L193.592-159.709z M202.542-158.383h0.994h0.332c0.44,0.223,0.938,0.446,1.491,0.663
							c0.55,0.223,0.938,0.445,1.16,0.663c-0.445,0.886-0.942,1.771-1.491,2.652c-0.555,0.886-1.383,1.326-2.486,1.326V-158.383
							L202.542-158.383z M229.062-125.068c0,0.777-0.223,1.161-0.663,1.161c-0.663,0-0.994-0.383-0.994-1.161
							c0-0.771,0.331-1.16,0.994-1.16C228.839-126.229,229.062-125.839,229.062-125.068z M243.315-159.709
							c0,0.886-0.331,1.326-0.994,1.326c-0.445,0-0.663-0.44-0.663-1.326c0-0.88,0.218-1.326,0.663-1.326
							C242.984-161.035,243.315-160.589,243.315-159.709z M243.647-152.084h2.651c0,1.989-0.886,2.983-2.651,2.983V-152.084z
							 M248.619-159.709c0,0.886-0.445,1.326-1.325,1.326c-0.446,0-0.663-0.44-0.663-1.326c0-0.88,0.217-1.326,0.663-1.326
							C248.174-161.035,248.619-160.589,248.619-159.709z M250.939-145.62c0,0.995-0.223,1.492-0.662,1.492
							c-0.663,0-0.995-0.497-0.995-1.492c0-0.995,0.332-1.492,0.995-1.492C250.717-147.112,250.939-146.615,250.939-145.62z
							 M253.923-136.504l-1.325,1.326c-0.886-0.663-1.326-1.657-1.326-2.983C252.375-138.162,253.261-137.607,253.923-136.504z
							 M253.923-132.858c-0.445,0.223-0.662,0.057-0.662-0.497c0-0.549,0.217-0.829,0.662-0.829
							C254.804-133.738,254.804-133.298,253.923-132.858z M255.249-159.709h2.652c0.218,0,0.497,0.663,0.828,1.989
							c0.332,1.326,0.498,2.435,0.498,3.315c0,1.108-0.389,1.937-1.16,2.486c-0.777,0.554-1.715,0.829-2.818,0.829V-159.709z
							 M262.874-134.184c0.217,0.223,0.497,0.445,0.828,0.663c0.332,0.223,0.497,0.445,0.497,0.663v0.663v0.663
							c0,0.886-0.445,1.326-1.325,1.326V-134.184z M280.774-134.184h1.326v2.652h-1.326V-134.184z M293.371-134.02
							c0,0.777-0.332,1.16-0.995,1.16c-0.662,0-0.994-0.383-0.994-1.16c0-0.771,0.332-1.16,0.994-1.16
							C293.039-135.178,293.371-134.792,293.371-134.02z M302.652-152.084h0.663h0.663c0.218,0.223,0.44,0.663,0.663,1.326
							c0.218,0.663,0.331,1.108,0.331,1.326c0,0.445-0.279,0.777-0.828,0.994c-0.555,0.223-1.052,0.332-1.492,0.332V-152.084
							L302.652-152.084z M304.642-160.869c0,0.777-0.223,1.16-0.663,1.16c-0.663,0-0.994-0.383-0.994-1.16
							c0-0.772,0.331-1.16,0.994-1.16C304.419-162.029,304.642-161.641,304.642-160.869z M304.973-154.405
							c-0.445,0-0.663-0.274-0.663-0.829c0-0.549,0.218-0.829,0.663-0.829C306.076-155.617,306.076-155.068,304.973-154.405z
							 M315.746-136.67c0.109,0.554,0.166,1.051,0.166,1.492c0,1.108-0.331,2.269-0.994,3.479c-0.663,1.217-1.88,1.823-3.646,1.823
							c0-1.326,0.383-2.761,1.16-4.309c0.771-1.543,1.823-2.761,3.149-3.646C315.581-137.607,315.633-137.219,315.746-136.67z
							 M322.542-141.808c0,0.663-0.223,1.108-0.663,1.326c-0.445,0.223-0.663-0.218-0.663-1.326c0-1.103,0.218-1.543,0.663-1.326
							C322.319-142.911,322.542-142.471,322.542-141.808z"/>
						<path fill="#E9188D" d="M1.326-127.222v0.994c0.44,1.326,1.16,3.149,2.155,5.47c0.994,2.32,1.6,3.48,1.823,3.48h1.657
							c0-1.103,0.383-2.263,1.16-3.48c0.771-1.212,1.709-1.823,2.817-1.823h0.332c0.217,0.223,0.715,0.663,1.491,1.326
							c0.771,0.663,1.27,1.108,1.492,1.326h0.331h0.663c0.44-0.217,0.938-0.663,1.491-1.326c0.55-0.663,0.938-1.104,1.161-1.326
							c0.439,0.886,1.6,1.823,3.48,2.818c1.875,0.994,3.258,1.383,4.144,1.16c0.44-0.218,1.932-0.829,4.475-1.823
							c2.538-0.995,4.03-1.709,4.476-2.155l5.304,5.304c0.663,0.663,1.435,0.166,2.32-1.492c0.881-1.657,1.544-2.486,1.989-2.486
							h0.663c1.988,1.108,3.48,2.046,4.475,2.817c0.995,0.777,2.704,1.16,5.139,1.16h0.663c0.217-0.217,0.828-0.714,1.823-1.492
							c0.994-0.771,1.709-1.16,2.154-1.16c0.44,0,0.938,0.332,1.492,0.995c0.549,0.663,0.828,1.217,0.828,1.657
							c2.652-1.543,3.979-3.315,3.979-5.304c0-1.326-0.446-2.207-1.326-2.652c-0.886-0.44-1.326-1.435-1.326-2.983v-0.995
							c0-0.217,0.108-0.549,0.331-0.994c0.44,1.108,1.27,1.989,2.486,2.652c1.212,0.663,2.372,1.108,3.48,1.326
							c-0.445,0.446-0.828,1.44-1.16,2.983c-0.331,1.549-0.279,2.652,0.166,3.315c0.218,0.446,0.994,0.995,2.32,1.658
							s2.207,0.994,2.652,0.994c1.326-1.103,2.098-2.206,2.32-3.315c0.218-1.103,1.104-1.766,2.652-1.989
							c0.439,0.663,0.938,1.492,1.491,2.486c0.549,0.994,1.16,1.492,1.823,1.492h0.663c0.218-0.218,0.497-0.44,0.829-0.663
							c0.331-0.217,0.497-0.44,0.497-0.663c0.88-0.88,1.325-1.766,1.325-2.652l-3.646-6.298c-0.224-0.217-0.166-0.497,0.165-0.829
							c0.332-0.332,0.606-0.497,0.829-0.497H83.2v0.331c1.988,0,3.589,0.389,4.807,1.161c1.212,0.777,2.429,1.657,3.646,2.652
							c1.212,0.994,2.372,1.88,3.48,2.652c1.104,0.777,2.538,1.16,4.31,1.16c0.217,0,0.663-0.497,1.325-1.492
							c0.663-0.995,1.326-2.098,1.989-3.315c0.663-1.212,1.212-2.372,1.657-3.48c0.44-1.104,0.663-1.875,0.663-2.321h0.663h0.663
							c0.218,0.223,0.331,0.663,0.331,1.326v9.282c0.44,0,0.772-0.109,0.995-0.332c2.429-1.766,4.361-3.48,5.801-5.138
							c1.435-1.657,3.921-2.486,7.459-2.486c0.44,0,1.212,0.331,2.32,0.994c1.104,0.663,1.875,1.217,2.32,1.658
							c0-0.881,0.383-1.767,1.16-2.652c0.771-0.881,1.709-1.326,2.817-1.326c0,0.223,0.109,0.445,0.332,0.663l0.663,0.663
							c0.217,0.445,0.44,1.492,0.663,3.149c0.217,1.657,0.439,2.709,0.662,3.149c0.218,0,0.663,0.057,1.326,0.166
							c0.663,0.114,1.104,0.166,1.326,0.166c1.989,0,3.755-0.497,5.304-1.492c1.544-0.994,3.315-1.492,5.304-1.492
							c0.881,0,1.544,0.223,1.989,0.663c0.44,0.445,0.549,1.549,0.332,3.315c0.662-1.766,1.377-2.87,2.154-3.315
							c0.771-0.44,1.823-0.663,3.149-0.663c1.325,0,2.206,0.28,2.651,0.829c0.44,0.554,1.212,0.829,2.32,0.829
							c0.881,0,1.989-0.829,3.315-2.486c1.326-1.657,2.595-3.532,3.812-5.635c1.213-2.098,2.264-4.195,3.149-6.298
							c0.881-2.098,1.326-3.589,1.326-4.475c0-0.218-0.057-0.715-0.166-1.492c-0.113-0.772-0.165-1.378-0.165-1.823
							c-1.771-0.218-2.983-1.046-3.646-2.486c-0.663-1.435-1.549-2.595-2.652-3.48l-2.651,7.624
							c-3.315-2.429-5.915-6.019-7.79-10.773c-1.881-4.75-2.818-9.002-2.818-12.762c-2.212,0-3.48,0.829-3.812,2.486
							c-0.332,1.658-0.721,3.481-1.161,5.47h-0.331c-0.663,0-1.217-0.383-1.657-1.16c-0.445-0.771-0.886-1.657-1.326-2.652
							c-0.445-0.995-0.942-1.875-1.492-2.652c-0.554-0.772-1.383-1.16-2.485-1.16c-4.424,0-8.898,0.611-13.426,1.823
							c-4.532,1.217-8.898,1.823-13.094,1.823c-0.886,0-1.605-0.166-2.155-0.498c-0.554-0.332-1.273-0.497-2.154-0.497
							c-2.652,0-5.47,0.388-8.453,1.16c-2.983,0.777-5.692,1.16-8.121,1.16c-0.445,0-1.771-0.166-3.979-0.497
							c-2.211-0.332-3.537-0.606-3.978-0.829h-0.663h-0.331c-0.446,0.223-1.161,0.497-2.155,0.829s-1.605,0.497-1.823,0.497
							c-0.223,0-0.663-0.217-1.326-0.663c-0.662-0.44-1.108-0.663-1.325-0.663c-1.108,0-1.989,1.108-2.652,3.314
							c-0.663,2.212-1.88,3.315-3.646,3.315l-0.663-0.663l-0.663-0.663c-0.223-0.218-0.497-0.383-0.828-0.497
							c-0.332-0.109-0.721-0.383-1.16-0.829c-0.663-0.217-1.218-0.549-1.658-0.994h-0.331l-0.663-0.332l-0.663,0.332
							c-0.445,0.886-0.663,1.823-0.663,2.817c0,0.995-0.554,1.714-1.657,2.155c-1.108-0.44-1.657-1.326-1.657-2.652
							c0-1.326,0.549-2.652,1.657-3.978c-0.445-0.217-1.108-0.497-1.989-0.829c-0.886-0.332-1.549-0.497-1.988-0.497l-1.326,0.663
							l-1.326,0.663c-0.223,0.223-0.445,0.332-0.663,0.332H51.05l-0.994-0.332l-1.326-1.326c-2.435,0-4.755,0.497-6.961,1.492
							c-2.212,0.994-4.424,1.492-6.63,1.492c-1.108,0-1.771-0.275-1.989-0.829c-0.223-0.549-0.886-0.829-1.989-0.829H30.83
							c-0.223,0.223-0.497,0.497-0.829,0.829c-0.331,0.332-0.497,0.611-0.497,0.829c-0.445-2.207-1.491-3.424-3.149-3.646
							c-1.657-0.218-3.148-0.332-4.475-0.332c-2.435,0-4.424,0.663-5.967,1.989c-1.549,1.326-2.543,3.206-2.983,5.635l0.663,1.326
							c0.217,0.445,0.44,0.777,0.663,0.995v2.983c0,1.989-0.611,3.263-1.823,3.812c-1.218,0.554-2.652,1.16-4.31,1.823
							c-1.658,0.663-3.264,1.714-4.807,3.149c-1.549,1.44-2.652,4.035-3.315,7.79l0.663,1.326c0.218,0.445,0.44,0.777,0.663,0.995
							c0,0.445-0.166,0.942-0.497,1.492c-0.331,0.554-0.611,0.942-0.829,1.16c0.44,0,1.104,0.166,1.989,0.497
							c0.881,0.332,1.435,0.611,1.657,0.829l0.332,0.663l-0.332,0.663c-0.223,0.223-0.663,0.445-1.325,0.663
							c-0.663,0.223-0.995,0.445-0.995,0.663L1.326-127.222L1.326-127.222z M20.222-163.688c1.543,0,2.538,0.554,2.983,1.658h-1.326
							c-1.549,0-2.435-0.549-2.652-1.658H20.222z M23.205-130.206c-0.445,0-0.663-0.275-0.663-0.829
							c0-0.549,0.218-0.715,0.663-0.497C24.085-131.086,24.085-130.647,23.205-130.206z M24.199-159.709h1.326v1.326L24.199-159.709
							z M33.149-158.383h0.994h0.332c0.44,0.223,0.938,0.446,1.491,0.663c0.55,0.223,0.938,0.445,1.16,0.663
							c-0.445,0.886-0.942,1.771-1.491,2.652c-0.555,0.886-1.383,1.326-2.486,1.326V-158.383z M59.669-125.068
							c0,0.777-0.223,1.161-0.663,1.161c-0.663,0-0.994-0.383-0.994-1.161c0-0.771,0.331-1.16,0.994-1.16
							C59.446-126.229,59.669-125.839,59.669-125.068z M73.923-159.709c0,0.886-0.331,1.326-0.994,1.326
							c-0.445,0-0.663-0.44-0.663-1.326c0-0.88,0.218-1.326,0.663-1.326C73.592-161.035,73.923-160.589,73.923-159.709z
							 M74.255-152.084h2.651c0,1.989-0.886,2.983-2.651,2.983V-152.084z M79.227-159.709c0,0.886-0.445,1.326-1.325,1.326
							c-0.446,0-0.663-0.44-0.663-1.326c0-0.88,0.217-1.326,0.663-1.326C78.781-161.035,79.227-160.589,79.227-159.709z
							 M81.547-145.62c0,0.995-0.223,1.492-0.662,1.492c-0.663,0-0.995-0.497-0.995-1.492c0-0.995,0.332-1.492,0.995-1.492
							C81.324-147.112,81.547-146.615,81.547-145.62z M84.53-136.504l-1.325,1.326c-0.886-0.663-1.326-1.657-1.326-2.983
							C82.982-138.162,83.868-137.607,84.53-136.504z M84.53-132.858c-0.445,0.223-0.662,0.057-0.662-0.497
							c0-0.549,0.217-0.829,0.662-0.829C85.411-133.738,85.411-133.298,84.53-132.858z M85.856-159.709h2.652
							c0.218,0,0.497,0.663,0.828,1.989c0.332,1.326,0.498,2.435,0.498,3.315c0,1.108-0.389,1.937-1.16,2.486
							c-0.777,0.554-1.715,0.829-2.818,0.829V-159.709z M93.481-134.184c0.217,0.223,0.497,0.445,0.828,0.663
							c0.332,0.223,0.497,0.445,0.497,0.663v0.663v0.663c0,0.886-0.445,1.326-1.325,1.326V-134.184z M111.382-134.184h1.326v2.652
							h-1.326V-134.184z M123.979-134.02c0,0.777-0.332,1.16-0.995,1.16c-0.662,0-0.994-0.383-0.994-1.16
							c0-0.771,0.332-1.16,0.994-1.16S123.979-134.792,123.979-134.02z M133.26-152.084h0.663h0.663
							c0.218,0.223,0.44,0.663,0.663,1.326c0.218,0.663,0.331,1.108,0.331,1.326c0,0.445-0.279,0.777-0.828,0.994
							c-0.555,0.223-1.052,0.332-1.492,0.332V-152.084L133.26-152.084z M135.249-160.869c0,0.777-0.223,1.16-0.663,1.16
							c-0.663,0-0.994-0.383-0.994-1.16c0-0.772,0.331-1.16,0.994-1.16C135.026-162.029,135.249-161.641,135.249-160.869z
							 M135.58-154.405c-0.445,0-0.663-0.274-0.663-0.829c0-0.549,0.218-0.829,0.663-0.829
							C136.684-155.617,136.684-155.068,135.58-154.405z M146.354-136.67c0.109,0.554,0.166,1.051,0.166,1.492
							c0,1.108-0.331,2.269-0.994,3.479c-0.663,1.217-1.88,1.823-3.646,1.823c0-1.326,0.383-2.761,1.16-4.309
							c0.771-1.543,1.823-2.761,3.149-3.646C146.188-137.607,146.24-137.219,146.354-136.67z M153.149-141.808
							c0,0.663-0.223,1.108-0.663,1.326c-0.445,0.223-0.663-0.218-0.663-1.326c0-1.103,0.218-1.543,0.663-1.326
							C152.927-142.911,153.149-142.471,153.149-141.808z"/>
						<path fill="#E9188D" d="M86.022-166.22v0.994c0.44,1.326,1.16,3.149,2.155,5.47c0.994,2.32,1.6,3.48,1.823,3.48h1.657
							c0-1.103,0.383-2.263,1.16-3.48c0.771-1.212,1.709-1.823,2.817-1.823h0.332c0.217,0.223,0.715,0.663,1.491,1.326
							c0.771,0.663,1.27,1.108,1.492,1.326h0.331h0.663c0.44-0.218,0.938-0.663,1.491-1.326c0.55-0.663,0.938-1.104,1.161-1.326
							c0.439,0.886,1.6,1.823,3.48,2.818c1.875,0.994,3.258,1.383,4.144,1.16c0.44-0.218,1.932-0.829,4.475-1.823
							c2.538-0.995,4.03-1.71,4.476-2.155l5.304,5.304c0.663,0.663,1.435,0.166,2.32-1.491c0.881-1.657,1.544-2.486,1.989-2.486
							h0.663c1.988,1.108,3.48,2.046,4.475,2.817c0.995,0.777,2.704,1.16,5.139,1.16h0.663c0.217-0.217,0.828-0.714,1.823-1.491
							c0.994-0.771,1.709-1.16,2.154-1.16c0.44,0,0.938,0.331,1.492,0.994c0.549,0.663,0.828,1.218,0.828,1.657
							c2.652-1.543,3.979-3.314,3.979-5.304c0-1.325-0.446-2.206-1.326-2.651c-0.886-0.44-1.326-1.435-1.326-2.983v-0.995
							c0-0.217,0.108-0.549,0.331-0.994c0.44,1.108,1.27,1.989,2.486,2.652c1.212,0.662,2.372,1.108,3.48,1.325
							c-0.445,0.446-0.828,1.44-1.16,2.983c-0.331,1.549-0.279,2.652,0.166,3.315c0.218,0.445,0.994,0.994,2.32,1.657
							c1.326,0.663,2.207,0.994,2.652,0.994c1.326-1.103,2.098-2.206,2.32-3.314c0.218-1.104,1.104-1.767,2.652-1.989
							c0.439,0.663,0.938,1.492,1.491,2.486c0.549,0.994,1.16,1.492,1.823,1.492h0.663c0.218-0.218,0.497-0.44,0.829-0.663
							c0.331-0.218,0.497-0.44,0.497-0.663c0.88-0.881,1.325-1.767,1.325-2.652l-3.646-6.298c-0.224-0.218-0.166-0.497,0.165-0.829
							c0.332-0.331,0.606-0.497,0.829-0.497h1.326v0.331c1.988,0,3.589,0.389,4.807,1.161c1.212,0.776,2.429,1.657,3.646,2.651
							c1.212,0.994,2.372,1.88,3.48,2.652c1.104,0.776,2.538,1.16,4.31,1.16c0.217,0,0.663-0.497,1.325-1.492
							c0.663-0.994,1.326-2.098,1.989-3.314c0.663-1.212,1.212-2.372,1.657-3.48c0.44-1.104,0.663-1.875,0.663-2.321h0.663h0.663
							c0.218,0.223,0.331,0.663,0.331,1.326v9.282c0.44,0,0.772-0.109,0.995-0.332c2.429-1.766,4.361-3.48,5.801-5.138
							c1.435-1.657,3.921-2.486,7.459-2.486c0.44,0,1.212,0.331,2.32,0.994c1.104,0.663,1.875,1.218,2.32,1.658
							c0-0.881,0.383-1.767,1.16-2.652c0.771-0.881,1.709-1.326,2.817-1.326c0,0.223,0.109,0.445,0.332,0.663l0.663,0.663
							c0.217,0.445,0.44,1.492,0.663,3.149c0.217,1.657,0.439,2.709,0.662,3.149c0.218,0,0.663,0.057,1.326,0.165
							c0.663,0.114,1.104,0.166,1.326,0.166c1.989,0,3.755-0.497,5.304-1.492c1.544-0.994,3.315-1.491,5.304-1.491
							c0.881,0,1.544,0.223,1.989,0.663c0.44,0.445,0.549,1.549,0.332,3.314c0.662-1.766,1.377-2.869,2.154-3.314
							c0.771-0.44,1.823-0.663,3.149-0.663c1.325,0,2.206,0.279,2.651,0.829c0.44,0.554,1.212,0.828,2.32,0.828
							c0.881,0,1.989-0.828,3.315-2.486c1.326-1.657,2.595-3.532,3.812-5.635c1.213-2.098,2.264-4.195,3.149-6.299
							c0.881-2.098,1.326-3.589,1.326-4.475c0-0.218-0.057-0.715-0.166-1.492c-0.113-0.771-0.165-1.378-0.165-1.823
							c-1.771-0.218-2.983-1.046-3.646-2.486c-0.663-1.435-1.549-2.595-2.652-3.48l-2.651,7.624
							c-3.315-2.429-5.915-6.019-7.79-10.773c-1.881-4.749-2.818-9.002-2.818-12.762c-2.212,0-3.48,0.828-3.812,2.485
							c-0.332,1.658-0.721,3.481-1.161,5.47h-0.331c-0.663,0-1.217-0.383-1.657-1.16c-0.445-0.771-0.886-1.657-1.326-2.651
							c-0.445-0.995-0.942-1.875-1.492-2.652c-0.554-0.771-1.383-1.16-2.485-1.16c-4.424,0-8.898,0.611-13.426,1.823
							c-4.532,1.217-8.898,1.823-13.094,1.823c-0.886,0-1.605-0.166-2.155-0.497c-0.554-0.332-1.273-0.497-2.154-0.497
							c-2.652,0-5.47,0.388-8.453,1.16c-2.983,0.776-5.692,1.16-8.121,1.16c-0.445,0-1.771-0.166-3.979-0.497
							c-2.211-0.332-3.537-0.606-3.978-0.829h-0.663h-0.331c-0.446,0.223-1.161,0.497-2.155,0.829
							c-0.994,0.331-1.605,0.497-1.823,0.497c-0.223,0-0.663-0.218-1.326-0.663c-0.662-0.44-1.108-0.663-1.325-0.663
							c-1.108,0-1.989,1.108-2.652,3.314c-0.663,2.212-1.88,3.315-3.646,3.315l-0.663-0.663l-0.663-0.663
							c-0.223-0.218-0.497-0.383-0.828-0.497c-0.332-0.108-0.721-0.383-1.16-0.829c-0.663-0.217-1.218-0.549-1.658-0.994h-0.331
							l-0.663-0.331l-0.663,0.331c-0.445,0.886-0.663,1.823-0.663,2.817c0,0.995-0.554,1.715-1.657,2.155
							c-1.108-0.44-1.657-1.326-1.657-2.652c0-1.326,0.549-2.651,1.657-3.978c-0.445-0.218-1.108-0.497-1.989-0.829
							c-0.886-0.331-1.549-0.497-1.988-0.497l-1.326,0.663l-1.326,0.663c-0.223,0.223-0.445,0.331-0.663,0.331h-0.663l-0.994-0.331
							l-1.326-1.326c-2.435,0-4.755,0.497-6.961,1.492c-2.212,0.994-4.424,1.491-6.63,1.491c-1.108,0-1.771-0.274-1.989-0.829
							c-0.223-0.549-0.886-0.828-1.989-0.828h-0.331c-0.223,0.223-0.497,0.497-0.829,0.828c-0.331,0.332-0.497,0.611-0.497,0.829
							c-0.445-2.206-1.491-3.424-3.149-3.646c-1.657-0.218-3.148-0.331-4.475-0.331c-2.435,0-4.424,0.663-5.967,1.988
							c-1.549,1.326-2.543,3.206-2.983,5.636l0.663,1.326c0.217,0.445,0.44,0.776,0.663,0.994v2.983
							c0,1.989-0.611,3.264-1.823,3.812c-1.218,0.554-2.652,1.16-4.31,1.823c-1.658,0.663-3.264,1.714-4.807,3.148
							c-1.549,1.44-2.652,4.035-3.315,7.79l0.663,1.326c0.218,0.445,0.44,0.777,0.663,0.995c0,0.445-0.166,0.942-0.497,1.491
							c-0.331,0.555-0.611,0.942-0.829,1.16c0.44,0,1.104,0.166,1.989,0.497c0.881,0.332,1.435,0.611,1.657,0.829l0.332,0.663
							l-0.332,0.663c-0.223,0.223-0.663,0.445-1.325,0.663c-0.663,0.223-0.995,0.445-0.995,0.663v0.334H86.022L86.022-166.22z
							 M104.918-202.684c1.543,0,2.538,0.554,2.983,1.657h-1.326c-1.549,0-2.435-0.549-2.652-1.657H104.918z M107.901-169.203
							c-0.445,0-0.663-0.274-0.663-0.829c0-0.549,0.218-0.715,0.663-0.497C108.781-170.084,108.781-169.646,107.901-169.203z
							 M108.896-198.706h1.326v1.326L108.896-198.706z M117.846-197.38h0.994h0.332c0.44,0.223,0.938,0.445,1.491,0.663
							c0.55,0.223,0.938,0.445,1.16,0.663c-0.445,0.886-0.942,1.771-1.491,2.651c-0.555,0.886-1.383,1.326-2.486,1.326V-197.38z
							 M144.365-164.065c0,0.777-0.223,1.161-0.663,1.161c-0.663,0-0.994-0.384-0.994-1.161c0-0.771,0.331-1.16,0.994-1.16
							C144.143-165.228,144.365-164.837,144.365-164.065z M158.619-198.706c0,0.886-0.331,1.326-0.994,1.326
							c-0.445,0-0.663-0.44-0.663-1.326c0-0.88,0.218-1.326,0.663-1.326C158.288-200.032,158.619-199.586,158.619-198.706z
							 M158.951-191.083h2.651c0,1.989-0.886,2.983-2.651,2.983V-191.083z M163.923-198.706c0,0.886-0.445,1.326-1.325,1.326
							c-0.446,0-0.663-0.44-0.663-1.326c0-0.88,0.217-1.326,0.663-1.326C163.478-200.032,163.923-199.586,163.923-198.706z
							 M166.243-184.617c0,0.994-0.223,1.491-0.662,1.491c-0.663,0-0.995-0.497-0.995-1.491c0-0.995,0.332-1.492,0.995-1.492
							C166.021-186.109,166.243-185.612,166.243-184.617z M169.227-175.502l-1.325,1.326c-0.886-0.663-1.326-1.657-1.326-2.983
							C167.679-177.159,168.564-176.605,169.227-175.502z M169.227-171.855c-0.445,0.223-0.662,0.058-0.662-0.497
							c0-0.549,0.217-0.828,0.662-0.828C170.107-172.735,170.107-172.295,169.227-171.855z M170.553-198.706h2.652
							c0.218,0,0.497,0.663,0.828,1.989c0.332,1.326,0.498,2.435,0.498,3.314c0,1.108-0.389,1.938-1.16,2.486
							c-0.777,0.555-1.715,0.829-2.818,0.829V-198.706z M178.178-173.181c0.217,0.223,0.497,0.445,0.828,0.663
							c0.332,0.223,0.497,0.445,0.497,0.662v0.663v0.663c0,0.886-0.445,1.326-1.325,1.326V-173.181z M196.078-173.181h1.326v2.651
							h-1.326V-173.181z M208.675-173.016c0,0.777-0.332,1.16-0.995,1.16c-0.662,0-0.994-0.383-0.994-1.16
							c0-0.771,0.332-1.16,0.994-1.16C208.343-174.176,208.675-173.787,208.675-173.016z M217.956-191.083h0.663h0.663
							c0.218,0.224,0.44,0.663,0.663,1.326c0.218,0.663,0.331,1.108,0.331,1.326c0,0.445-0.279,0.777-0.828,0.994
							c-0.555,0.223-1.052,0.332-1.492,0.332V-191.083L217.956-191.083z M219.945-199.866c0,0.777-0.223,1.16-0.663,1.16
							c-0.663,0-0.994-0.383-0.994-1.16c0-0.771,0.331-1.16,0.994-1.16C219.723-201.026,219.945-200.638,219.945-199.866z
							 M220.276-193.402c-0.445,0-0.663-0.274-0.663-0.828c0-0.549,0.218-0.829,0.663-0.829
							C221.38-194.614,221.38-194.065,220.276-193.402z M231.05-175.668c0.109,0.554,0.166,1.051,0.166,1.491
							c0,1.108-0.331,2.269-0.994,3.48c-0.663,1.218-1.88,1.823-3.646,1.823c0-1.325,0.383-2.761,1.16-4.309
							c0.771-1.544,1.823-2.761,3.149-3.646C230.885-176.605,230.937-176.216,231.05-175.668z M237.846-180.806
							c0,0.663-0.223,1.108-0.663,1.326c-0.445,0.223-0.663-0.218-0.663-1.326c0-1.103,0.218-1.543,0.663-1.325
							C237.623-181.908,237.846-181.469,237.846-180.806z"/>
					</g>
				</g>
			</g>
		</g>
	</g>
</pattern>
<g>
	<g>
		<g opacity="0.5">
			<path fill="#EC008C" d="M84.523,54.727c-0.107,0.979-0.332,1.965-0.283,2.937c0.041,0.755-0.179,1.141-0.931,1.352
				c0.817,2.15-0.498,3.59-1.638,5.088c-0.179,0.236-0.438,0.468-0.488,0.732c-0.315,1.601-1.377,2.515-2.747,3.216
				c-1.748,0.898-3.403,2.019-5.508,1.894c-1.071-0.062-2.183,0.112-3.216-0.103c-1.825-0.375-3.426-1.289-4.699-2.688
				c-0.472-0.517-0.884-1.089-1.498-1.856c-0.188,0.558-0.349,0.89-0.405,1.236c-0.208,1.237-0.771,2.18-1.952,2.74
				c-0.277,0.131-0.536,0.509-0.61,0.82c-0.521,2.17-0.995,4.354-1.482,6.533c-0.028,0.128-0.053,0.26-0.092,0.449
				c-1.477,0.001-2.941,0.001-4.466,0c-0.743-2.243-1.608-4.477-2.212-6.78c-0.627-2.408-0.1-4.824,0.665-7.118
				c0.229-0.69,1.082-1.219,1.729-1.716c1.502-1.154,2.683-2.742,4.633-3.309c1.428-0.412,2.715-0.256,4.039,0.385
				c0.925,0.45,1.933,0.736,2.92,1.052c1.32,0.419,2.675,0.733,3.976,1.205c0.827,0.301,1.553,0.897,2.383,1.181
				c0.458,0.156,1.062,0.009,1.563-0.129c0.438-0.122,0.837-0.404,1.23-0.651c0.168-0.106,0.318-0.285,0.411-0.466
				c0.299-0.583,0.565-1.183,0.922-1.938c-0.399-0.539-0.52-1.307,0.096-2.161c0.143-0.199,0.025-0.708-0.134-0.979
				c-0.399-0.681-0.358-1.291-0.056-2.002c0.456-1.075-0.354-1.914-0.688-2.836c-0.075-0.21-0.312-0.388-0.326-0.591
				c-0.105-1.531-0.092-3.075-0.295-4.592c-0.108-0.82-0.116-1.52,0.275-2.267c0.142-0.271,0.026-0.726-0.072-1.066
				c-0.2-0.67-0.435-1.336-0.726-1.971c-0.199-0.438-0.442-0.925-0.808-1.208c-0.595-0.463-0.869-0.982-0.826-1.722
				c0.031-0.503,0.025-1.01,0.002-1.515c-0.072-1.463-1.138-2.143-2.524-1.605c-0.938,0.364-1.854,0.794-2.809,1.113
				c-0.458,0.152-0.979,0.12-1.487,0.171c-0.602,2.159-3.734,1.791-4.919,0.448c-1.154,0.259-2.158,0.559-3.185,0.676
				c-0.394,0.045-1.008-0.214-1.22-0.535c-0.408-0.62-0.9-0.54-1.4-0.387c-1.238,0.376-2.413,0.522-3.555-0.315
				c-0.198-0.146-0.664-0.079-0.932,0.046c-1.538,0.716-2.402,0.549-3.612-0.628c-0.312-0.304-0.915-0.637-1.25-0.532
				c-1.163,0.363-1.842-0.266-2.574-0.938c-0.211-0.193-0.667-0.459-0.754-0.386c-0.299,0.251-0.569,0.61-0.684,0.98
				c-0.09,0.29,0.117,0.658,0.11,0.988c-0.014,0.647,0.092,1.318-0.721,1.713c-0.267,0.129-0.356,0.733-0.424,1.137
				c-0.072,0.42,0.003,0.863-0.024,1.294c-0.044,0.665-0.076,1.336-0.191,1.99c-0.174,0.971-0.429,1.926-0.618,2.896
				c-0.062,0.304-0.157,0.704-0.021,0.924c0.652,1.035,0.556,2.09,0.262,3.187c-0.062,0.233-0.109,0.548-0.005,0.735
				c0.637,1.136,0.516,2.323,0.334,3.526c-0.078,0.521-0.032,0.844,0.537,1.254c0.901,0.648,1.482,1.653,1.437,2.919
				c-0.027,0.733,0.16,1.475,0.272,2.21c0.316,2.021-0.552,5.658-3.046,6.524c-1.117,0.389-1.466,1.351-1.61,2.25
				c-0.178,1.101-0.023,2.266,0.106,3.389c0.044,0.375,0.383,0.828,0.717,1.034c1.188,0.732,2.431,1.371,3.62,2.175
				c-1.375,0.522-2.427-0.469-3.479-1.012c-3.046-1.577-1.863-4.257-1.559-6.769c-0.211,0.045-0.421,0.092-0.631,0.139
				c-0.906,0.194-1.705,0.287-2.348-0.695c-1.261-1.926-1.989-3.923-1.448-6.254c0.055-0.235-0.095-0.574-0.246-0.8
				c-0.942-1.387-0.82-2.927-0.666-4.467c0.021-0.203,0.236-0.385,0.396-0.636c-0.358-0.384-0.712-0.764-1.065-1.142
				c0-1.955,0-3.905,0-5.858c0.469-1.232,0.939-2.463,1.405-3.696c0.315-0.832,0.71-1.647,0.906-2.507
				c0.173-0.755,0.357-1.389,1.12-1.759c0.143-0.069,0.117-0.488,0.166-0.747c0.322-1.757-0.02-3.487-0.188-5.229
				c-0.079-0.834-0.007-1.693-0.174-2.507c-0.264-1.278-0.4-2.503,0.305-3.686c0.509-0.852,1.012-1.706,1.494-2.572
				c0.53-0.952,4.225-2.656,5.309-2.43c0.197,0.042,0.396,0.075,0.593,0.116c0.913,0.19,1.818,0.499,2.739,0.542
				c0.96,0.045,1.622,0.491,2.062,1.218c0.312,0.515,0.523,0.626,1.147,0.567c0.563-0.053,1.402,0.211,1.714,0.634
				c0.634,0.866,1.282,1.47,2.528,1.239c-0.204,0.444-0.316,0.69-0.456,0.99c1.769-0.345,3.475-2.074,4.832-0.208
				c1.029-0.021,1.781-0.041,2.534-0.051c0.456-0.006,0.98,0.152,1.354-0.021c0.88-0.407,1.68-0.517,2.592-0.095
				c1.67,0.772,3.329,0.829,4.891-0.324c0.433-0.32,0.862-0.644,1.294-0.965c1.427-1.065,1.427-1.065,2.934-0.166
				c0.229-1.081,0.415-2.12,0.671-3.142c0.562-2.252,2.012-3.752,4.088-4.7c0.537,0,1.076,0,1.614,0
				c0.153,0.173,0.294,0.357,0.461,0.515c1.008,0.94,1.553,1.954,1.264,3.46c-0.241,1.257-1.194,2.481-0.444,3.864
				c0.017,0.027-0.086,0.103-0.103,0.164c-0.129,0.451-0.312,0.897-0.358,1.359c-0.113,1.118-0.184,2.243-0.228,3.367
				c-0.017,0.384,0.005,0.821,0.177,1.147c0.469,0.893,0.749,1.952,0.114,2.65c-0.635,0.699-0.464,1.22-0.272,1.879
				c0.205,0.708,0.46,1.403,0.618,2.121c0.055,0.253-0.16,0.555-0.179,0.838c-0.049,0.813-0.326,1.75-0.026,2.417
				c0.396,0.877,1.42,1.443,1.422,2.592c0,0.104,0.205,0.239,0.343,0.307c1.691,0.849,2.01,1.635,1.485,3.412
				c-0.116,0.391-0.008,0.866,0.067,1.29c0.102,0.56,0.345,1.102,0.387,1.662c0.029,0.381-0.083,0.85-0.302,1.158
				c-0.854,1.196-0.673,2.175,0.625,2.968C84.522,54.458,84.522,54.592,84.523,54.727z"/>
		</g>
		<polygon fill="#EC008C" points="32.135,33.646 42.075,38.816 39.82,39.418 44.32,41.924 41.918,42.359 46.92,46.428 36.38,41.002 
			38.551,40.6 34.263,38.373 37.029,37.877 		"/>
		<polygon fill="#EC008C" points="83.901,30.869 74.483,37.812 76.907,38.068 72.67,41.382 75.219,41.443 70.719,46.45 
			80.711,39.146 78.409,39.083 82.471,36.09 79.537,36.025 		"/>
	</g>
	<pattern  id="SVGID_2_" xlink:href="#SVGID_1_" patternTransform="matrix(0.094 0 0 0.094 -30778.3477 3160.8447)">
	</pattern>
	<path fill="url(#SVGID_2_)" d="M74.795,134.226c-10.383-9.267-11.271-21.076-2.512-31.913c7.85-9.713,15.75-19.355,20.861-30.886
		c4.869-10.979,7.614-22.363,3.903-34.209C91.827,20.56,79.551,12.377,62.76,10.42C44.036,8.237,20.45,20.617,18.829,46.463
		C17.427,68.83,40.143,86.643,61.458,79.893c0.23-0.07,0.48-0.104,0.683-0.226c1.887-1.119,3.754-0.889,4.317,1.188
		c0.195,0.725-1.646,2.6-2.881,3.021c-9.248,3.177-18.43,2.646-27.258-1.502c-11.342-5.329-18.441-14.202-21.275-26.449
		c-0.151-0.675-0.485-1.308-0.737-1.96c0-4.319,0-8.64,0-12.959c1.914-4.854,3.364-9.978,5.838-14.512
		c13.25-24.312,50.305-30.153,72.51-11.894c6.682,5.494,11.018,12.205,11.842,20.953c0.199,2.116,0.371,4.235,0.621,7.089
		c0.438-1.108,0.633-1.517,0.758-1.94c3.877-13.306-3.312-27.965-17.198-34.139c-4.615-2.052-4.72-1.916-9.603-3.36
		c2.4,0,8.447,0.618,9.107,0.751c15.655,3.188,21.321,13.936,22.795,29.733c0.043,0.477,0.188,0.938,0.293,1.407
		c2.117-9.402-4.226-21.243-9.627-28.145c2.471,2.16,8.016,7.465,9.5,10.25c6.521,12.229,8.11,27.021,4.485,40.425
		c-2.459,9.094-1.463,16.576,4.234,23.865c3.818,4.885,5.777,5.711-2.143,8.914c-1.334,0.539-2.654,3.346-2.707,4.607
		c-0.101,2.299-0.531,3.864-2.707,4.926c-0.556,0.271-2.039,1.104-2.166,1.93c-0.754,4.948,1.5,5-1.017,15.228
		c-0.356,1.463-2.104,3.254-3.578,3.7c-2.868,0.873-6.092,1.541-8.996,1.121c-3.852-0.555-7.545-2.209-11.286-3.436
		c-3.621-1.185-4.709-0.564-5.482,3.199c-1.268,6.172,1.178,11.229,4.758,15.961C86.114,139.732,78.944,137.929,74.795,134.226z"/>
</g>
</svg>
