<?xml version="1.0" encoding="utf-8"?>
<!-- Generator: Adobe Illustrator 16.0.0, SVG Export Plug-In . SVG Version: 6.00 Build 0)  -->
<!DOCTYPE svg PUBLIC "-//W3C//DTD SVG 1.1//EN" "http://www.w3.org/Graphics/SVG/1.1/DTD/svg11.dtd">
<svg version="1.1" id="Layer_1" xmlns="http://www.w3.org/2000/svg" xmlns:xlink="http://www.w3.org/1999/xlink" x="0px" y="0px"
	 width="141.732px" height="141.732px" viewBox="0 0 141.732 141.732" enable-background="new 0 0 141.732 141.732"
	 xml:space="preserve">
<g>
	<path fill="none" d="M97.878,118.692C87.685,119.174,100.651,118.698,97.878,118.692C96.688,118.749,98.129,118.693,97.878,118.692
		z"/>
	<path fill="#EC008C" d="M66.602,52.376c-0.557,2.13,8.162-2.084,10.708-0.358c-7.583-5.135-16.541,37.011-16.938,40.208
		c-2.423,19.509-0.366,43.895,23.094,46.775c35.949-1.397,55.505-23.182,49.321-54.962l0,0c-3.65-2.348-27.211-64.78-10.164-78.438
		c-0.084-0.356-9.987-5.573-15.956-1.181c-5.421,3.99-7.003,17.054-6.277,27.104c1.912,26.396,22.083,35.509,25.375,59.424
		c4.647,33.815-60.134,39.335-49.885,3.908c9.579-33.111,33.166-71.084,20.611-91.698C79.271,0,76.877,49.513,76.877,49.513
		c1.751-0.096,5.628-31.334,6.874-37.248"/>
	<path fill="#EC008C" d="M78.941,139.002c-10.002-4.683-22.32-53.134-27.24-51.604c-4.71,1.466-6.872,20.828-11.21,22.49
		c-17.087,6.554-19.379,0.45-24.824-16.393C9.714,75.086,27.101,64.357,43.265,67.587c5.465,1.089,11.021,16.511,9.521,16.31
		c-2.109-0.288,15.916-31.979,16.307-32.434c-2.789-2.07-36.557,8.209-40.636,10.154C9.488,70.66,3.491,91.984,9.728,111.438
		c5.158,16.082,18.088,24.348,33.6,29.222c2.379,0.747,23.32,2.785,31.202-2.021C79.359,135.692,79.746,139.379,78.941,139.002z"/>
	<path fill="#D0257B" d="M115.56,37.083c-0.019-0.18-0.038-0.36-0.057-0.541C115.39,36.735,115.401,36.917,115.56,37.083z"/>
	<path fill="#D0257B" d="M114.91,49.293C114.919,48.759,114.903,49.485,114.91,49.293C114.911,49.231,114.91,49.3,114.91,49.293z"/>
	<g>
		<path fill="none" d="M42.595,88.647C42.599,88.633,42.599,88.634,42.595,88.647L42.595,88.647z"/>
		<path fill="none" d="M97.011,11.559c0,0.001,0,0.001,0,0.002c0,0.01,0,0.019,0,0.024C97.012,11.581,97.012,11.573,97.011,11.559z"
			/>
		<path fill="none" d="M42.454,89.092c-0.014,0.044-0.028,0.089-0.042,0.134C42.426,89.179,42.44,89.133,42.454,89.092z"/>
		<path fill="none" d="M42.509,88.917c-0.011,0.034-0.022,0.069-0.034,0.106C42.488,88.984,42.499,88.949,42.509,88.917z"/>
		<path fill="none" d="M77.424,134.661c-0.004-0.003-0.006-0.006-0.009-0.01c-0.297-0.318-0.749-0.802-0.809-0.867
			C76.643,133.824,76.867,134.065,77.424,134.661z"/>
		<path fill="none" d="M97.011,11.558C97.011,11.558,97.011,11.558,97.011,11.558C97.008,11.452,97.01,11.515,97.011,11.558z"/>
		<path fill="none" d="M42.247,89.745C42.237,89.773,42.237,89.775,42.247,89.745L42.247,89.745z"/>
		<path fill="none" d="M99.833,65.378c-0.002-0.001-0.004-0.002-0.007-0.003c-21.462-9.055-33.453,42.046-5.922,47.468
			C125.369,119.022,124.944,75.992,99.833,65.378z"/>
		<path fill="none" d="M99.829,65.376c0.002,0,0.003,0.001,0.004,0.002C100.236,65.548,101.193,65.952,99.829,65.376z"/>
		<path fill="none" d="M42.581,88.693c-0.001,0.002-0.002,0.004-0.002,0.006C42.579,88.697,42.58,88.695,42.581,88.693z"/>
		<path fill="none" d="M99.826,65.375c0.001,0,0.001,0,0.002,0.001C99.594,65.277,99.663,65.306,99.826,65.375z"/>
		<path fill="#D0257B" d="M77.415,134.651c0.003,0.004,0.005,0.007,0.009,0.01C77.824,135.091,77.683,134.94,77.415,134.651z"/>
		<path fill="#D0257B" d="M122.975,80.072c-9.981-22.311-29.312-47.977-10.603-75.71c2.859-4.289-8.709-0.056-8.496-0.312
			c-1.813-3.505-10.167-4.12-10.287-4.028C74.946-1.533,55.697,79.234,53.014,78.868c0.014,0.002-2.859-19.445-15.922-16.696
			c-10.121,2.13-26.407,9.565-22.835,35.744c1.562,11.439,6.095,17.904,20.394,18.95c5.58,0,19.815-1.164,16.391-20.524
			c3.194,0.3,1.302,49.768,32.424,42.66c-2.596-0.479-4.61-1.925-6.042-4.341c-0.557-0.596-0.781-0.837-0.818-0.877
			c0.06,0.065,0.512,0.549,0.809,0.867c-14.317-15.366-16.828-27.753-12.423-49.625C65.684,81.59,89.23,3.717,93.894,3.757
			c3.118,0.308,3.066,6.18,3.118,7.801c-0.001-0.043-0.003-0.106,0,0c0,0.015,0,0.022,0,0.026c0-0.005,0-0.014,0-0.024
			c0.776,25.365-13.544,37.222-22.604,59.52C45.421,142.402,145.481,130.35,122.975,80.072z M42.247,89.745
			C42.237,89.775,42.237,89.773,42.247,89.745L42.247,89.745z M42.595,88.647C42.599,88.634,42.599,88.633,42.595,88.647
			L42.595,88.647z M42.411,89.226c0.014-0.045,0.028-0.09,0.042-0.134C42.44,89.133,42.426,89.179,42.411,89.226z M42.476,89.023
			c0.011-0.037,0.023-0.073,0.034-0.106C42.499,88.949,42.488,88.984,42.476,89.023z M42.579,88.699
			c0-0.001,0.001-0.004,0.002-0.006C42.58,88.695,42.579,88.697,42.579,88.699z M93.904,112.843
			c-27.531-5.422-15.541-56.523,5.922-47.468c-0.164-0.069-0.232-0.098,0.002,0.001c1.364,0.576,0.408,0.172,0.004,0.002
			C124.944,75.992,125.369,119.022,93.904,112.843z"/>
		<polygon fill="#D0257B" points="97.011,11.558 97.011,11.561 97.011,11.559 		"/>
		<polygon fill="#D0257B" points="99.829,65.376 99.826,65.375 99.833,65.378 		"/>
	</g>
	<path fill="#FBD8E7" d="M103.516,3.72c-2.46,0.041-4.99,15.147-1.918,14.835C105.587,18.153,110.901,3.602,103.516,3.72
		C102.712,3.733,104.183,3.709,103.516,3.72z"/>
	<path fill="#FBD8E7" d="M44.737,81.114c-4.213-19.733-25.876-6.687-24.744,10.688C21.567,115.987,47.552,96.492,44.737,81.114"/>
	<path fill="#FBD8E7" d="M87.971,62.53c-21.235,10.105-12.434,54.327,9.908,53.271C135.933,115.879,117.771,48.35,87.971,62.53z"/>
</g>
</svg>
