<?xml version="1.0" encoding="utf-8"?>
<!-- Generator: Adobe Illustrator 16.0.0, SVG Export Plug-In . SVG Version: 6.00 Build 0)  -->
<!DOCTYPE svg PUBLIC "-//W3C//DTD SVG 1.1//EN" "http://www.w3.org/Graphics/SVG/1.1/DTD/svg11.dtd">
<svg version="1.1" id="Layer_1" xmlns="http://www.w3.org/2000/svg" xmlns:xlink="http://www.w3.org/1999/xlink" x="0px" y="0px"
	 width="141.732px" height="141.732px" viewBox="0 0 141.732 141.732" enable-background="new 0 0 141.732 141.732"
	 xml:space="preserve">
<g>
	<g>
		<path fill-rule="evenodd" clip-rule="evenodd" fill="#EC008C" d="M16.613,55.694c1.841-18.138,15.625-43.208,36.231-44.266
			c22.823,1.85,26.029,19.528,34.756,36.335C72.125,21.682,49.018-0.534,27.415,35.6c-9.195,17.397-10.226,38.385-2.742,56.588
			c5.85,14.229,27.258,37.057,46.388,29.533c-6.632,11.857-15.335,15.637-29.107,1.025C22.002,106.927,14.475,80.405,16.613,55.694z
			"/>
		<path fill-rule="evenodd" clip-rule="evenodd" fill="#EC008C" d="M25.491,61.748c0.711-8.727,4.669-15.432,9.22-22.558
			c10.718-16.445,7.603-10.268,21.841-13.55c23.647-2.54,13.837,42.848,0.784,43.504c7.116-3.969-4.354-13.184-10.748-9.834
			c-10.904,5.712-6.009,19.625,2.14,24.64c3.242,1.996,11.208,12.924,14.276,11.503c2.83-12.829,0.938-8.881-6.696-15.322
			c1.115,0.767,19.781-6.823,16.435,4.215c-1.533,2.361-5.452,34.296-11.863,18.406c-4.549-2.16-16.243-18.819-21.471-23.315
			c-14.37-19.06,1.687-28.524,25.841-23.708c-5.32-0.983-3.977-20.605-3.123-18.317c-6.921-18.566-24.386,8.013-26.555,10.732
			c-12.162,15.238-2.596,36.141,1.616,52.605C30.521,88.788,26.496,75.405,25.491,61.748z"/>
	</g>
	<polygon points="141.732,66.919 139.218,83.019 136.397,53.647 135.894,48.411 135.083,53.608 132.122,72.58 129.701,66.765 
		128.875,64.784 128.439,66.885 125.927,78.948 123.098,56.292 122.513,51.603 121.784,56.271 118.822,75.242 116.402,69.428 
		115.63,67.576 115.145,69.521 112.573,79.818 109.793,64.244 109.096,60.336 108.485,64.257 105.666,82.317 99.809,58.873 
		99.016,55.695 98.51,58.932 95.548,77.904 93.128,72.09 92.426,70.403 91.881,72.147 89.319,80.354 86.515,66.885 85.924,64.046 
		85.222,66.859 82.383,78.224 79.83,72.09 79.127,70.403 78.583,72.147 75.962,80.538 73.211,69.521 72.61,67.112 71.928,69.5 
		69.483,78.067 68.219,78.377 66.559,72.173 66.165,70.696 65.354,71.994 62.592,76.416 59.832,71.994 59.635,71.68 59.268,71.68 
		0.584,71.68 0,73.009 58.316,73.009 62.029,78.019 62.592,78.921 63.157,78.019 65.671,73.993 66.833,78.335 70.866,78.713 
		72.525,72.251 75.248,83.154 75.821,85.449 76.526,83.191 79.306,74.287 81.928,80.585 82.7,82.438 83.186,80.492 85.808,69.995 
		88.542,83.128 89.063,85.631 89.825,83.191 92.605,74.287 95.227,80.585 96.131,82.758 96.496,80.432 99.314,62.372 105.17,85.816 
		105.963,88.994 106.469,85.756 109.181,68.38 111.809,83.108 112.356,86.167 113.108,83.154 115.947,71.789 118.5,77.923 
		119.405,80.096 119.768,77.77 122.364,61.141 125.103,83.074 125.598,87.038 126.413,83.128 129.299,69.256 131.8,75.261 
		132.705,77.434 133.067,75.108 135.581,59.008 138.402,88.38 138.905,93.616 139.716,88.418 	"/>
</g>
</svg>
