<?xml version="1.0" encoding="utf-8"?>
<!-- Generator: Adobe Illustrator 16.0.0, SVG Export Plug-In . SVG Version: 6.00 Build 0)  -->
<!DOCTYPE svg PUBLIC "-//W3C//DTD SVG 1.1//EN" "http://www.w3.org/Graphics/SVG/1.1/DTD/svg11.dtd">
<svg version="1.1" id="Layer_1" xmlns="http://www.w3.org/2000/svg" xmlns:xlink="http://www.w3.org/1999/xlink" x="0px" y="0px"
	 width="141.73px" height="141.73px" viewBox="0 0 141.73 141.73" enable-background="new 0 0 141.73 141.73" xml:space="preserve">
<g>
	<g>
		<path fill="none" stroke="#000000" stroke-width="0.25" d="M60.993,83.521c0.193,0.349,0.462,0.547,0.751,0.585
			c0.293,0.039,0.608-0.087,0.886-0.388c0.502-0.54,0.916-1.548,1.067-2.738c0.13-0.957,0.113-2.1-0.363-2.968
			c-0.196-0.358-0.471-0.56-0.767-0.595c-0.291-0.034-0.603,0.092-0.878,0.39c-0.685,0.739-0.939,1.826-1.072,2.794
			C60.478,81.797,60.637,82.876,60.993,83.521z"/>
		
			<image overflow="visible" width="14" height="28" xlink:href="DA6EABFAF01A7C84.png"  transform="matrix(0.24 0 0 0.24 60.5674 77.4121)">
		</image>
		<path fill="#EC008C" d="M66.104,80.117c0.144,0.213,0.312,0.343,0.486,0.392c0.276,0.077,0.568-0.054,0.795-0.392
			c0.38-0.563,0.639-1.615,0.65-2.824c0.015-0.974-0.089-2.16-0.652-2.992c-0.227-0.337-0.518-0.465-0.795-0.388
			c-0.174,0.049-0.342,0.18-0.484,0.391c-0.562,0.834-0.664,2.017-0.649,2.992C65.467,78.505,65.726,79.554,66.104,80.117z"/>
		<g>
			<path opacity="0.4" fill="#EC008C" d="M44.91,71.773c0.03-0.742,0.004-1.52-0.444-2.108c0.953-0.158,1.791-0.315,2.582-0.409
				c1.709-0.203,3.2-0.11,5.169,0.9c-0.129-0.132-0.261-0.278-0.394-0.436c-0.953-1.133-1.95-2.887-2.462-4.644
				c-0.443-1.523-0.522-3.054,0.109-4.189l2.869-0.43c-0.294,4.81,2.132,7.992,5.081,10.051c1.896,1.325,4.008,2.186,5.755,2.719
				c1.097,0.334,2.05,0.537,2.712,0.645c0.323,0.053,0.577,0.081,0.746,0.092c-0.272,0.513-0.44,1.004-0.528,1.483
				c-0.178,0.965-0.031,1.881,0.229,2.813c0.205,0.73,0.48,1.47,0.726,2.254c-2.031-0.223-4.361,0.054-6.4-0.266
				c-0.894-0.141-1.703-0.489-2.442-0.968c-1.103-0.714-2.052-1.714-2.901-2.733C53.122,73.914,48.629,69.942,44.91,71.773z"/>
			<path opacity="0.4" fill="#EC008C" d="M55.714,128.109c0.069,0.506,0.172,0.985,0.315,1.432c0.839,0.133,1.717,0.11,2.578,0.002
				c0.979-0.123,1.937-0.355,2.787-0.592c-3.332-8.889,0.157-12.077,3.065-29.818c0.592-3.607,0.238-6.662-0.775-9.201
				c-0.791-1.979-1.983-3.645-3.441-5.006c-1.73-1.615-3.838-2.811-6.096-3.605c-3.119-1.097-6.528-1.436-9.636-1.078
				c0,0,2.227,6.535,3.477,10.198c0.487,1.429,0.826,2.424,0.826,2.424c8.38-5.653,11.196,9.101,10.994,12.374
				C59.458,110.939,54.847,121.732,55.714,128.109z"/>
			<path opacity="0.6" fill="#EC008C" d="M46.774,85.405c1.069-0.607,2.39-1.113,3.553-1.778c1.256-0.718,2.328-1.617,2.701-3.026
				c-1.328-0.305-2.71-0.739-4.077-1.328c-2-0.863-3.969-2.059-5.696-3.673c-0.178-0.166-0.354-0.336-0.526-0.512l1.148-2.582
				c2.843,4.219,8.694,5.45,13.795,5.374c1.713-0.026,3.343-0.199,4.744-0.455c-0.133,0.279-0.253,0.571-0.36,0.874
				c-0.209,0.588-0.372,1.214-0.491,1.854c-0.16,0.859-0.243,1.743-0.257,2.599c-0.007,0.408,0.001,0.811,0.024,1.199
				c-1.684-0.275-3.196-0.354-4.595-0.207c-3.109,0.322-5.65,1.742-8.216,4.511C48.325,87.129,47.469,86.226,46.774,85.405z"/>
		</g>
	</g>
	<g>
		<path fill="#EC008C" d="M46.38,83.192c-2.31-3.309,2.418-9.447-0.486-12.704c-4.868-5.459-0.87-7.163-0.87-7.163
			c14.992-1.33,18.352-20.146,11.889-32.102c0.167,1.307,1.151,2.059,1.587,3.65c0.259,0.947-0.556,1.762-1.75,2.375
			c-0.622,0.319-4.375-0.5-5.137,0.707c-0.557,0.882-2.203,0.507-3.626,0.694c-1.438,0.188-3.18,0.97-5.042,0.431
			c-2.869-0.832-4.584,0.162-7.412,0.162c-1.805,0-3.547-1.152-5.189-1.434c-1.76-0.302-3.405,0.247-4.891-0.329
			c-1.306-0.505-2.488-1.105-3.516-1.784c-1.246-0.823-1.187-2.822-3.002-2.781c-1.471,0.033-1.337-2.5-1.337-3.869
			c0-0.264,0.024-0.523,0.059-0.782c-5.54,7.038-4.538,18.738-8.777,24.089C-7.849,73.471,4.046,97.008,4.82,98.667
			c0.818,1.75-2.213,19.428,15.371,27.219c8.355,3.702,22.24,1.4,29.654-4.685c7.547-6.196,8.833-19.275,4.646-27.467
			C52.373,89.588,48.962,86.892,46.38,83.192z"/>
		<path fill="#EC008C" d="M54.957,28.2c-0.2-0.257-0.416-0.498-0.627-0.744C54.433,27.835,54.608,28.107,54.957,28.2z"/>
		<path fill="#F7B7D3" d="M18.935,32.916c1.815-0.041,1.756,1.958,3.002,2.781c1.028,0.679,2.21,1.279,3.516,1.784
			c1.486,0.576,3.131,0.027,4.891,0.329c1.643,0.282,3.385,1.434,5.189,1.434c2.828,0,4.542-0.994,7.412-0.162
			c1.862,0.54,3.604-0.242,5.042-0.431c1.423-0.187,3.07,0.188,3.626-0.694c0.762-1.207,4.515-0.388,5.137-0.707
			c1.194-0.613,2.009-1.428,1.75-2.375c-0.436-1.592-1.42-2.344-1.587-3.65c-0.016-0.122-0.034-0.242-0.034-0.375
			c0-0.841,0-2.475-1.763-2.6c-0.065-0.005-0.105-0.035-0.16-0.05c-0.349-0.093-0.523-0.365-0.627-0.744
			c-0.194-0.711-0.204-1.736-0.96-2.371c-1.129-0.948-3.251-1.287-4.753-2.085c-1.26-0.669-1.855-1.826-3.281-2.339
			c-1.563-0.562-3.941-0.474-5.594-0.786c-1.653-0.312-2.581-1.024-4.208-1.024c-2.738,0-5.333,0.349-7.654,0.973
			C25.921,20.35,24,20.82,22.666,22.944c-0.845,1.345-2.512,0.733-3.362,1.756c-0.909,1.095-1.479,2.298-1.648,3.565
			c-0.035,0.259-0.059,0.519-0.059,0.782C17.598,30.417,17.463,32.949,18.935,32.916z"/>
	</g>
</g>
<g>
	<g>
		<path fill="none" stroke="#000000" stroke-width="0.25" d="M80.988,71.771c-0.192,0.349-0.462,0.547-0.751,0.585
			c-0.294,0.039-0.609-0.087-0.887-0.388c-0.502-0.54-0.916-1.548-1.067-2.738c-0.13-0.957-0.113-2.1,0.362-2.968
			c0.196-0.358,0.472-0.56,0.768-0.595c0.291-0.034,0.603,0.092,0.878,0.39c0.685,0.739,0.939,1.826,1.071,2.794
			C81.504,70.047,81.345,71.126,80.988,71.771z"/>
		
			<image overflow="visible" width="14" height="28" xlink:href="DA6EABFAF01A7C86.png"  transform="matrix(0.24 0 0 0.24 78.2139 65.6626)">
		</image>
		<path fill="#EC008C" d="M75.877,68.367c-0.144,0.213-0.312,0.343-0.486,0.392c-0.276,0.077-0.568-0.054-0.795-0.392
			c-0.38-0.563-0.639-1.615-0.65-2.824c-0.015-0.974,0.089-2.16,0.652-2.992c0.227-0.337,0.518-0.465,0.795-0.388
			c0.174,0.049,0.342,0.18,0.484,0.391c0.562,0.834,0.664,2.017,0.649,2.992C76.515,66.755,76.256,67.804,75.877,68.367z"/>
		<g>
			<path opacity="0.4" fill="#EC008C" d="M97.071,60.023c-0.03-0.742-0.004-1.52,0.444-2.108c-0.953-0.158-1.79-0.315-2.581-0.409
				c-1.71-0.203-3.201-0.11-5.17,0.9c0.129-0.132,0.261-0.278,0.394-0.436c0.953-1.133,1.95-2.887,2.462-4.644
				c0.443-1.523,0.522-3.054-0.109-4.189l-2.869-0.43c0.295,4.81-2.132,7.992-5.08,10.051c-1.896,1.325-4.008,2.186-5.755,2.719
				c-1.097,0.334-2.05,0.537-2.712,0.645c-0.323,0.053-0.577,0.081-0.746,0.092c0.272,0.513,0.44,1.004,0.528,1.483
				c0.178,0.965,0.031,1.881-0.229,2.813c-0.205,0.73-0.48,1.47-0.726,2.254c2.031-0.223,4.361,0.054,6.4-0.266
				c0.894-0.141,1.703-0.489,2.442-0.968c1.103-0.714,2.052-1.714,2.9-2.733C88.86,62.164,93.353,58.192,97.071,60.023z"/>
			<path opacity="0.4" fill="#EC008C" d="M86.267,116.359c-0.068,0.506-0.172,0.985-0.314,1.432
				c-0.839,0.133-1.717,0.11-2.578,0.002c-0.979-0.123-1.937-0.355-2.787-0.592c3.332-8.889-0.157-12.077-3.065-29.818
				c-0.592-3.607-0.238-6.662,0.775-9.201c0.79-1.979,1.983-3.645,3.441-5.006c1.73-1.615,3.838-2.811,6.096-3.605
				c3.119-1.097,6.528-1.436,9.636-1.078c0,0-2.227,6.535-3.477,10.198c-0.487,1.429-0.826,2.424-0.826,2.424
				c-8.381-5.653-11.195,9.101-10.994,12.374C82.523,99.189,87.135,109.982,86.267,116.359z"/>
			<path opacity="0.6" fill="#EC008C" d="M95.207,73.655c-1.069-0.607-2.39-1.113-3.554-1.778c-1.256-0.718-2.327-1.617-2.7-3.026
				c1.328-0.305,2.71-0.739,4.077-1.328c2-0.863,3.969-2.059,5.695-3.673c0.179-0.166,0.354-0.336,0.527-0.512l-1.148-2.582
				c-2.843,4.219-8.694,5.45-13.795,5.374c-1.714-0.026-3.344-0.199-4.744-0.455c0.133,0.279,0.252,0.571,0.359,0.874
				c0.21,0.588,0.372,1.214,0.491,1.854c0.16,0.859,0.243,1.743,0.257,2.599c0.007,0.408-0.002,0.811-0.024,1.199
				c1.684-0.275,3.196-0.354,4.595-0.207c3.109,0.322,5.65,1.742,8.216,4.511C93.656,75.379,94.513,74.476,95.207,73.655z"/>
		</g>
	</g>
	<g>
		<path fill="#EC008C" d="M95.602,71.442c2.31-3.309-2.419-9.447,0.485-12.704c4.869-5.459,0.871-7.163,0.871-7.163
			c-14.992-1.33-18.352-20.146-11.89-32.102c-0.167,1.307-1.151,2.059-1.587,3.65c-0.26,0.947,0.556,1.762,1.75,2.375
			c0.621,0.319,4.375-0.5,5.137,0.707c0.557,0.882,2.203,0.507,3.627,0.694c1.438,0.188,3.18,0.97,5.041,0.431
			c2.869-0.832,4.584,0.162,7.412,0.162c1.805,0,3.547-1.152,5.189-1.434c1.76-0.302,3.405,0.247,4.891-0.329
			c1.307-0.505,2.488-1.105,3.517-1.784c1.246-0.823,1.187-2.822,3.002-2.781c1.472,0.033,1.337-2.5,1.337-3.869
			c0-0.264-0.023-0.523-0.059-0.782c5.54,7.038,4.538,18.738,8.777,24.089c16.728,21.117,4.833,44.654,4.059,46.313
			c-0.818,1.75,2.214,19.428-15.371,27.219c-8.355,3.702-22.239,1.4-29.654-4.685c-7.547-6.196-8.832-19.275-4.645-27.467
			C89.608,77.838,93.02,75.142,95.602,71.442z"/>
		<path fill="#EC008C" d="M87.024,16.45c0.201-0.257,0.416-0.498,0.627-0.744C87.548,16.085,87.374,16.357,87.024,16.45z"/>
		<path fill="#F7B7D3" d="M123.047,21.166c-1.815-0.041-1.756,1.958-3.002,2.781c-1.028,0.679-2.21,1.279-3.517,1.784
			c-1.485,0.576-3.131,0.027-4.891,0.329c-1.643,0.282-3.385,1.434-5.189,1.434c-2.828,0-4.543-0.994-7.412-0.162
			c-1.861,0.54-3.604-0.242-5.041-0.431c-1.424-0.187-3.07,0.188-3.627-0.694C89.606,25,85.853,25.819,85.231,25.5
			c-1.194-0.613-2.01-1.428-1.75-2.375c0.436-1.592,1.42-2.344,1.587-3.65c0.016-0.122,0.034-0.242,0.034-0.375
			c0-0.841,0-2.475,1.763-2.6c0.065-0.005,0.104-0.035,0.159-0.05c0.35-0.093,0.523-0.365,0.627-0.744
			c0.194-0.711,0.205-1.736,0.961-2.371c1.129-0.948,3.251-1.287,4.753-2.085c1.26-0.669,1.855-1.826,3.281-2.339
			c1.563-0.562,3.94-0.474,5.594-0.786c1.653-0.312,2.581-1.024,4.208-1.024c2.738,0,5.333,0.349,7.654,0.973
			c1.958,0.526,3.879,0.997,5.213,3.121c0.845,1.345,2.512,0.733,3.361,1.756c0.91,1.095,1.479,2.298,1.648,3.565
			c0.035,0.259,0.059,0.519,0.059,0.782C124.384,18.667,124.519,21.199,123.047,21.166z"/>
	</g>
</g>
</svg>
