<?xml version="1.0" encoding="utf-8"?>
<!-- Generator: Adobe Illustrator 16.0.0, SVG Export Plug-In . SVG Version: 6.00 Build 0)  -->
<!DOCTYPE svg PUBLIC "-//W3C//DTD SVG 1.1//EN" "http://www.w3.org/Graphics/SVG/1.1/DTD/svg11.dtd">
<svg version="1.1" id="Layer_1" xmlns="http://www.w3.org/2000/svg" xmlns:xlink="http://www.w3.org/1999/xlink" x="0px" y="0px"
	 width="209.758px" height="297.639px" viewBox="0 0 209.758 297.639" enable-background="new 0 0 209.758 297.639"
	 xml:space="preserve">
<pattern  x="0.379" y="297.319" width="169.393" height="155.989" patternUnits="userSpaceOnUse" id="SVGID_1_" viewBox="84.696 -181.988 169.393 155.989" overflow="visible">
	<g>
		<polygon fill="none" points="84.696,-26 254.089,-26 254.089,-181.988 84.696,-181.988 		"/>
		<g>
			<polygon fill="none" points="84.696,-181.988 254.089,-181.988 254.089,-26 84.696,-26 			"/>
			<g>
				<polygon fill="none" points="84.696,-181.988 254.089,-181.988 254.089,-26 84.696,-26 				"/>
				<path fill="#EA118D" d="M86.022-10.229v0.994c0.44,1.326,1.16,3.149,2.155,5.47c0.994,2.32,1.6,3.48,1.823,3.48h1.657
					c0-1.104,0.383-2.264,1.16-3.48c0.771-1.212,1.709-1.822,2.817-1.822h0.332c0.217,0.223,0.715,0.662,1.491,1.326
					c0.771,0.661,1.27,1.107,1.492,1.324h0.331h0.663c0.44-0.217,0.938-0.663,1.491-1.324c0.55-0.664,0.938-1.104,1.161-1.326
					c0.439,0.886,1.6,1.822,3.48,2.816c1.875,0.994,3.258,1.383,4.144,1.16c0.44-0.218,1.932-0.828,4.475-1.823
					c2.538-0.993,4.03-1.709,4.476-2.153l5.304,5.304c0.663,0.663,1.435,0.166,2.32-1.492c0.881-1.657,1.544-2.485,1.989-2.485
					h0.663c1.988,1.108,3.48,2.047,4.475,2.817c0.995,0.776,2.704,1.16,5.139,1.16h0.663c0.217-0.218,0.828-0.716,1.823-1.492
					c0.994-0.771,1.709-1.16,2.154-1.16c0.44,0,0.938,0.332,1.492,0.995c0.549,0.663,0.828,1.217,0.828,1.657
					c2.652-1.544,3.979-3.315,3.979-5.304c0-1.326-0.446-2.207-1.326-2.652c-0.886-0.439-1.326-1.436-1.326-2.982v-0.994
					c0-0.219,0.108-0.55,0.331-0.994c0.44,1.107,1.27,1.988,2.486,2.65c1.212,0.663,2.372,1.108,3.48,1.326
					c-0.445,0.445-0.828,1.439-1.16,2.982c-0.331,1.55-0.279,2.651,0.166,3.314c0.218,0.446,0.994,0.995,2.32,1.658
					c1.326,0.663,2.207,0.994,2.652,0.994c1.326-1.104,2.098-2.206,2.32-3.315c0.218-1.103,1.104-1.766,2.652-1.987
					c0.439,0.662,0.938,1.49,1.491,2.485c0.549,0.994,1.16,1.491,1.823,1.491h0.663c0.218-0.218,0.497-0.439,0.829-0.663
					c0.331-0.217,0.497-0.44,0.497-0.663c0.88-0.88,1.325-1.766,1.325-2.65l-3.646-6.299c-0.224-0.218-0.166-0.498,0.165-0.828
					c0.332-0.332,0.606-0.498,0.829-0.498h1.326v0.332c1.988,0,3.589,0.389,4.807,1.16c1.212,0.776,2.429,1.656,3.646,2.651
					c1.212,0.994,2.372,1.88,3.48,2.651c1.104,0.776,2.538,1.16,4.31,1.16c0.217,0,0.663-0.498,1.325-1.492
					c0.663-0.994,1.326-2.098,1.989-3.314c0.663-1.212,1.212-2.372,1.657-3.48c0.44-1.104,0.663-1.875,0.663-2.319h0.663h0.663
					c0.218,0.224,0.331,0.663,0.331,1.326v9.28c0.44,0,0.772-0.107,0.995-0.33c2.429-1.768,4.361-3.48,5.801-5.14
					c1.435-1.657,3.921-2.485,7.459-2.485c0.44,0,1.212,0.332,2.32,0.994c1.104,0.664,1.875,1.217,2.32,1.657
					c0-0.881,0.383-1.767,1.16-2.651c0.771-0.881,1.709-1.325,2.817-1.325c0,0.223,0.109,0.444,0.332,0.663l0.663,0.662
					c0.217,0.445,0.44,1.492,0.663,3.148c0.217,1.657,0.439,2.709,0.662,3.149c0.218,0,0.663,0.057,1.326,0.165
					c0.663,0.113,1.104,0.166,1.326,0.166c1.989,0,3.755-0.497,5.304-1.491c1.544-0.994,3.315-1.492,5.304-1.492
					c0.881,0,1.544,0.224,1.989,0.663c0.44,0.445,0.549,1.549,0.332,3.314c0.662-1.767,1.377-2.869,2.154-3.314
					c0.771-0.439,1.823-0.663,3.149-0.663c1.325,0,2.206,0.28,2.651,0.829c0.44,0.555,1.212,0.829,2.32,0.829
					c0.881,0,1.989-0.829,3.315-2.486s2.595-3.532,3.812-5.636c1.213-2.098,2.264-4.195,3.149-6.298
					c0.881-2.099,1.326-3.591,1.326-4.476c0-0.219-0.057-0.716-0.166-1.492c-0.113-0.771-0.165-1.377-0.165-1.822
					c-1.771-0.219-2.983-1.047-3.646-2.486c-0.663-1.435-1.549-2.595-2.652-3.48l-2.651,7.625c-3.315-2.43-5.915-6.02-7.79-10.773
					c-1.881-4.75-2.818-9.002-2.818-12.763c-2.212,0-3.48,0.829-3.812,2.485c-0.332,1.657-0.721,3.48-1.161,5.471h-0.331
					c-0.663,0-1.217-0.385-1.657-1.16c-0.445-0.771-0.886-1.657-1.326-2.652c-0.445-0.994-0.942-1.875-1.492-2.65
					c-0.554-0.772-1.383-1.16-2.485-1.16c-4.424,0-8.898,0.609-13.426,1.822c-4.532,1.217-8.898,1.823-13.094,1.823
					c-0.886,0-1.605-0.166-2.155-0.498c-0.554-0.331-1.273-0.497-2.154-0.497c-2.652,0-5.47,0.389-8.453,1.16
					c-2.983,0.777-5.692,1.16-8.121,1.16c-0.445,0-1.771-0.165-3.979-0.497c-2.211-0.331-3.537-0.604-3.978-0.828h-0.663h-0.331
					c-0.446,0.224-1.161,0.497-2.155,0.828c-0.994,0.332-1.605,0.497-1.823,0.497c-0.223,0-0.663-0.217-1.326-0.663
					c-0.662-0.438-1.108-0.662-1.325-0.662c-1.108,0-1.989,1.108-2.652,3.314c-0.663,2.212-1.88,3.313-3.646,3.313l-0.663-0.662
					l-0.663-0.662c-0.223-0.219-0.497-0.385-0.828-0.498c-0.332-0.108-0.721-0.383-1.16-0.828c-0.663-0.219-1.218-0.549-1.658-0.994
					h-0.331l-0.663-0.332l-0.663,0.332c-0.445,0.886-0.663,1.822-0.663,2.816s-0.554,1.715-1.657,2.154
					c-1.108-0.439-1.657-1.326-1.657-2.65c0-1.326,0.549-2.652,1.657-3.979c-0.445-0.217-1.108-0.497-1.989-0.828
					c-0.886-0.332-1.549-0.497-1.988-0.497l-1.326,0.662l-1.326,0.663c-0.223,0.224-0.445,0.332-0.663,0.332h-0.663l-0.994-0.332
					l-1.326-1.325c-2.435,0-4.755,0.497-6.961,1.491c-2.212,0.994-4.424,1.492-6.63,1.492c-1.108,0-1.771-0.275-1.989-0.829
					c-0.223-0.549-0.886-0.829-1.989-0.829h-0.331c-0.223,0.224-0.497,0.497-0.829,0.829c-0.331,0.331-0.497,0.611-0.497,0.829
					c-0.445-2.207-1.491-3.425-3.149-3.646c-1.657-0.219-3.148-0.332-4.475-0.332c-2.435,0-4.424,0.662-5.967,1.988
					c-1.549,1.326-2.543,3.206-2.983,5.635l0.663,1.326c0.217,0.445,0.44,0.777,0.663,0.995v2.983c0,1.988-0.611,3.263-1.823,3.812
					c-1.218,0.556-2.652,1.16-4.31,1.823c-1.658,0.663-3.264,1.715-4.807,3.148c-1.549,1.439-2.652,4.035-3.315,7.791l0.663,1.325
					c0.218,0.445,0.44,0.776,0.663,0.994c0,0.445-0.166,0.942-0.497,1.492c-0.331,0.554-0.611,0.942-0.829,1.16
					c0.44,0,1.104,0.165,1.989,0.497c0.881,0.33,1.435,0.611,1.657,0.828l0.332,0.662l-0.332,0.664
					c-0.223,0.223-0.663,0.444-1.325,0.662c-0.663,0.223-0.995,0.445-0.995,0.663v0.334H86.022z M104.918-46.693
					c1.543,0,2.538,0.555,2.983,1.658h-1.326c-1.549,0-2.435-0.551-2.652-1.658H104.918z M107.901-13.213
					c-0.445,0-0.663-0.274-0.663-0.828c0-0.549,0.218-0.715,0.663-0.497C108.781-14.094,108.781-13.652,107.901-13.213z
					 M108.896-42.715h1.326v1.324L108.896-42.715z M117.846-41.391h0.994h0.332c0.44,0.225,0.938,0.446,1.491,0.663
					c0.55,0.224,0.938,0.445,1.16,0.663c-0.445,0.887-0.942,1.771-1.491,2.652c-0.555,0.886-1.383,1.326-2.486,1.326V-41.391z
					 M144.365-8.074c0,0.777-0.223,1.16-0.663,1.16c-0.663,0-0.994-0.383-0.994-1.16c0-0.771,0.331-1.16,0.994-1.16
					C144.143-9.234,144.365-8.846,144.365-8.074z M158.619-42.715c0,0.886-0.331,1.324-0.994,1.324
					c-0.445,0-0.663-0.438-0.663-1.324c0-0.881,0.218-1.326,0.663-1.326C158.288-44.041,158.619-43.596,158.619-42.715z
					 M158.951-35.092h2.651c0,1.989-0.886,2.983-2.651,2.983V-35.092z M163.923-42.715c0,0.886-0.445,1.324-1.325,1.324
					c-0.446,0-0.663-0.438-0.663-1.324c0-0.881,0.217-1.326,0.663-1.326C163.478-44.041,163.923-43.596,163.923-42.715z
					 M166.243-28.627c0,0.994-0.223,1.492-0.662,1.492c-0.663,0-0.995-0.498-0.995-1.492s0.332-1.491,0.995-1.491
					C166.021-30.118,166.243-29.621,166.243-28.627z M169.227-19.512l-1.325,1.326c-0.886-0.662-1.326-1.656-1.326-2.982
					C167.679-21.168,168.564-20.614,169.227-19.512z M169.227-15.864c-0.445,0.223-0.662,0.058-0.662-0.497
					c0-0.549,0.217-0.829,0.662-0.829C170.107-16.745,170.107-16.305,169.227-15.864z M170.553-42.715h2.652
					c0.218,0,0.497,0.662,0.828,1.987c0.332,1.326,0.498,2.435,0.498,3.315c0,1.107-0.389,1.937-1.16,2.486
					c-0.777,0.554-1.715,0.828-2.818,0.828V-42.715z M178.178-17.19c0.217,0.224,0.497,0.445,0.828,0.663
					c0.332,0.223,0.497,0.445,0.497,0.663v0.663v0.663c0,0.886-0.445,1.325-1.325,1.325V-17.19z M196.078-17.19h1.326v2.652h-1.326
					V-17.19z M208.675-17.024c0,0.776-0.332,1.16-0.995,1.16c-0.662,0-0.994-0.384-0.994-1.16c0-0.771,0.332-1.16,0.994-1.16
					C208.343-18.186,208.675-17.797,208.675-17.024z M217.956-35.092h0.663h0.663c0.218,0.224,0.44,0.664,0.663,1.326
					c0.218,0.663,0.331,1.108,0.331,1.326c0,0.445-0.279,0.776-0.828,0.994c-0.555,0.223-1.052,0.331-1.492,0.331V-35.092
					L217.956-35.092z M219.945-43.875c0,0.775-0.223,1.16-0.663,1.16c-0.663,0-0.994-0.385-0.994-1.16
					c0-0.772,0.331-1.16,0.994-1.16C219.723-45.035,219.945-44.647,219.945-43.875z M220.276-37.411
					c-0.445,0-0.663-0.274-0.663-0.829c0-0.549,0.218-0.828,0.663-0.828C221.38-38.623,221.38-38.074,220.276-37.411z
					 M231.05-19.678c0.109,0.556,0.166,1.053,0.166,1.492c0,1.108-0.331,2.27-0.994,3.48c-0.663,1.217-1.88,1.822-3.646,1.822
					c0-1.326,0.383-2.761,1.16-4.31c0.771-1.543,1.823-2.761,3.149-3.646C230.885-20.614,230.937-20.227,231.05-19.678z
					 M237.846-24.814c0,0.663-0.223,1.108-0.663,1.326c-0.445,0.223-0.663-0.218-0.663-1.326c0-1.104,0.218-1.544,0.663-1.326
					C237.623-25.918,237.846-25.479,237.846-24.814z"/>
				<path fill="#EA118D" d="M170.719-49.228v0.994c0.44,1.326,1.16,3.149,2.155,5.47c0.994,2.32,1.6,3.48,1.823,3.48h1.657
					c0-1.104,0.383-2.264,1.16-3.48c0.771-1.212,1.709-1.822,2.817-1.822h0.332c0.217,0.223,0.715,0.662,1.491,1.326
					c0.771,0.662,1.27,1.107,1.492,1.325h0.331h0.663c0.44-0.218,0.938-0.663,1.491-1.325c0.55-0.664,0.938-1.104,1.161-1.326
					c0.439,0.886,1.6,1.822,3.48,2.817c1.875,0.994,3.258,1.384,4.144,1.16c0.44-0.218,1.932-0.829,4.475-1.823
					c2.538-0.994,4.03-1.71,4.476-2.154l5.304,5.304c0.663,0.663,1.435,0.166,2.32-1.491c0.881-1.656,1.544-2.486,1.989-2.486h0.663
					c1.988,1.108,3.48,2.047,4.475,2.817c0.995,0.777,2.704,1.16,5.139,1.16h0.663c0.217-0.217,0.828-0.714,1.823-1.491
					c0.994-0.771,1.709-1.16,2.154-1.16c0.44,0,0.938,0.331,1.492,0.994c0.549,0.663,0.828,1.219,0.828,1.657
					c2.652-1.543,3.979-3.313,3.979-5.304c0-1.325-0.446-2.207-1.326-2.651c-0.886-0.44-1.326-1.435-1.326-2.983v-0.994
					c0-0.217,0.108-0.549,0.331-0.994c0.44,1.107,1.27,1.988,2.486,2.652c1.212,0.661,2.372,1.107,3.48,1.324
					c-0.445,0.446-0.828,1.439-1.16,2.982c-0.331,1.55-0.279,2.652,0.166,3.315c0.218,0.445,0.994,0.994,2.32,1.657
					s2.207,0.994,2.652,0.994c1.326-1.104,2.098-2.206,2.32-3.314c0.218-1.104,1.104-1.767,2.652-1.988
					c0.439,0.662,0.938,1.492,1.491,2.485c0.549,0.994,1.16,1.492,1.823,1.492h0.663c0.218-0.218,0.497-0.44,0.829-0.663
					c0.331-0.218,0.497-0.439,0.497-0.663c0.88-0.881,1.325-1.767,1.325-2.651l-3.646-6.299c-0.224-0.218-0.166-0.496,0.165-0.828
					c0.332-0.332,0.606-0.498,0.829-0.498h1.326v0.332c1.988,0,3.589,0.389,4.807,1.16c1.212,0.776,2.429,1.657,3.646,2.651
					c1.212,0.994,2.372,1.88,3.48,2.652c1.104,0.776,2.538,1.159,4.31,1.159c0.217,0,0.663-0.496,1.325-1.491
					c0.663-0.994,1.326-2.099,1.989-3.314c0.663-1.212,1.212-2.372,1.657-3.479c0.44-1.104,0.663-1.875,0.663-2.321h0.663h0.663
					c0.218,0.224,0.331,0.663,0.331,1.326v9.282c0.44,0,0.772-0.109,0.995-0.332c2.429-1.767,4.361-3.48,5.801-5.139
					c1.435-1.656,3.921-2.486,7.459-2.486c0.44,0,1.212,0.332,2.32,0.994c1.104,0.664,1.875,1.219,2.32,1.658
					c0-0.881,0.383-1.767,1.16-2.652c0.771-0.881,1.709-1.325,2.817-1.325c0,0.223,0.109,0.444,0.332,0.663l0.663,0.662
					c0.217,0.445,0.439,1.492,0.663,3.149c0.217,1.657,0.438,2.709,0.662,3.149c0.218,0,0.663,0.057,1.325,0.165
					c0.663,0.114,1.104,0.166,1.326,0.166c1.989,0,3.755-0.497,5.306-1.492c1.544-0.994,3.313-1.491,5.304-1.491
					c0.881,0,1.544,0.223,1.989,0.663c0.438,0.445,0.549,1.549,0.332,3.313c0.66-1.766,1.377-2.868,2.152-3.313
					c0.771-0.44,1.823-0.663,3.149-0.663c1.325,0,2.206,0.279,2.649,0.829c0.44,0.554,1.214,0.828,2.32,0.828
					c0.881,0,1.989-0.828,3.315-2.486c1.324-1.657,2.595-3.532,3.812-5.635c1.213-2.099,2.265-4.194,3.149-6.298
					c0.881-2.098,1.326-3.589,1.326-4.475c0-0.219-0.059-0.715-0.166-1.492c-0.113-0.772-0.165-1.379-0.165-1.823
					c-1.771-0.218-2.983-1.046-3.646-2.486c-0.663-1.435-1.549-2.595-2.652-3.479l-2.649,7.623
					c-3.315-2.428-5.915-6.019-7.79-10.772c-1.881-4.75-2.818-9.002-2.818-12.762c-2.212,0-3.479,0.829-3.812,2.485
					c-0.332,1.658-0.723,3.481-1.161,5.471h-0.331c-0.663,0-1.217-0.383-1.657-1.16c-0.445-0.771-0.886-1.657-1.326-2.652
					c-0.443-0.994-0.94-1.875-1.49-2.652c-0.556-0.771-1.385-1.159-2.485-1.159c-4.424,0-8.898,0.61-13.426,1.823
					c-4.532,1.217-8.898,1.822-13.094,1.822c-0.886,0-1.605-0.166-2.155-0.498c-0.554-0.332-1.273-0.496-2.154-0.496
					c-2.652,0-5.47,0.388-8.453,1.159c-2.983,0.777-5.692,1.16-8.121,1.16c-0.445,0-1.771-0.166-3.979-0.497
					c-2.211-0.332-3.537-0.605-3.978-0.829h-0.663h-0.331c-0.446,0.224-1.161,0.497-2.155,0.829
					c-0.994,0.332-1.605,0.497-1.823,0.497c-0.223,0-0.663-0.217-1.326-0.663c-0.662-0.439-1.108-0.663-1.325-0.663
					c-1.108,0-1.989,1.108-2.652,3.314c-0.663,2.212-1.88,3.315-3.646,3.315l-0.663-0.664l-0.663-0.662
					c-0.223-0.219-0.497-0.383-0.828-0.498c-0.332-0.108-0.721-0.383-1.16-0.828c-0.663-0.217-1.218-0.549-1.658-0.994h-0.331
					l-0.663-0.332l-0.663,0.332c-0.445,0.886-0.663,1.822-0.663,2.816c0,0.996-0.554,1.715-1.657,2.155
					c-1.108-0.44-1.657-1.325-1.657-2.651s0.549-2.652,1.657-3.979c-0.445-0.217-1.108-0.497-1.989-0.829
					c-0.886-0.332-1.549-0.497-1.988-0.497l-1.326,0.663l-1.326,0.663c-0.223,0.223-0.445,0.332-0.663,0.332h-0.663l-0.994-0.332
					l-1.326-1.326c-2.435,0-4.755,0.497-6.961,1.492c-2.212,0.994-4.424,1.492-6.63,1.492c-1.108,0-1.771-0.275-1.989-0.829
					c-0.223-0.549-0.886-0.829-1.989-0.829h-0.331c-0.223,0.223-0.497,0.497-0.829,0.829c-0.331,0.332-0.497,0.61-0.497,0.829
					c-0.445-2.207-1.491-3.424-3.149-3.646c-1.657-0.218-3.148-0.332-4.475-0.332c-2.435,0-4.424,0.664-5.967,1.989
					c-1.549,1.326-2.543,3.206-2.983,5.636l0.663,1.325c0.217,0.445,0.44,0.777,0.663,0.995v2.982c0,1.99-0.611,3.264-1.823,3.812
					c-1.218,0.555-2.652,1.16-4.31,1.823c-1.658,0.663-3.264,1.714-4.807,3.149c-1.549,1.439-2.652,4.035-3.315,7.789l0.663,1.326
					c0.218,0.445,0.44,0.777,0.663,0.995c0,0.445-0.166,0.942-0.497,1.492c-0.331,0.554-0.611,0.942-0.829,1.16
					c0.44,0,1.104,0.166,1.989,0.497c0.881,0.332,1.435,0.611,1.657,0.828l0.332,0.664l-0.332,0.662
					c-0.223,0.224-0.663,0.445-1.325,0.664c-0.663,0.223-0.995,0.444-0.995,0.662v0.331H170.719L170.719-49.228z M189.614-85.69
					c1.543,0,2.538,0.554,2.983,1.658h-1.326c-1.549,0-2.435-0.55-2.652-1.658H189.614z M192.598-52.211
					c-0.445,0-0.663-0.273-0.663-0.828c0-0.549,0.218-0.715,0.663-0.497C193.478-53.092,193.478-52.65,192.598-52.211z
					 M193.592-81.713h1.326v1.326L193.592-81.713z M202.542-80.387h0.994h0.332c0.44,0.223,0.938,0.445,1.491,0.662
					c0.55,0.223,0.938,0.445,1.16,0.663c-0.445,0.886-0.942,1.771-1.491,2.652c-0.555,0.886-1.383,1.325-2.486,1.325V-80.387
					L202.542-80.387z M229.062-47.072c0,0.777-0.223,1.161-0.663,1.161c-0.663,0-0.994-0.384-0.994-1.161
					c0-0.771,0.331-1.16,0.994-1.16C228.839-48.232,229.062-47.844,229.062-47.072z M243.315-81.713
					c0,0.887-0.331,1.326-0.994,1.326c-0.445,0-0.663-0.439-0.663-1.326c0-0.879,0.218-1.325,0.663-1.325
					C242.984-83.039,243.315-82.594,243.315-81.713z M243.647-74.088h2.651c0,1.988-0.886,2.982-2.651,2.982V-74.088z
					 M248.619-81.713c0,0.887-0.445,1.326-1.325,1.326c-0.446,0-0.663-0.439-0.663-1.326c0-0.879,0.217-1.325,0.663-1.325
					C248.174-83.039,248.619-82.594,248.619-81.713z M250.939-67.625c0,0.996-0.223,1.492-0.662,1.492
					c-0.663,0-0.995-0.496-0.995-1.492c0-0.994,0.332-1.491,0.995-1.491C250.717-69.116,250.939-68.619,250.939-67.625z
					 M253.923-58.508l-1.325,1.326c-0.886-0.664-1.326-1.658-1.326-2.984C252.375-60.166,253.261-59.611,253.923-58.508z
					 M253.923-54.862c-0.445,0.224-0.662,0.058-0.662-0.497c0-0.549,0.217-0.829,0.662-0.829
					C254.804-55.742,254.804-55.303,253.923-54.862z M255.249-81.713h2.652c0.218,0,0.497,0.664,0.828,1.99
					c0.332,1.325,0.498,2.435,0.498,3.314c0,1.107-0.389,1.938-1.16,2.486c-0.777,0.554-1.715,0.828-2.818,0.828V-81.713z
					 M262.874-56.188c0.217,0.224,0.497,0.445,0.828,0.663c0.332,0.223,0.497,0.445,0.497,0.663v0.663v0.663
					c0,0.886-0.445,1.325-1.325,1.325V-56.188z M280.774-56.188h1.326v2.651h-1.326V-56.188z M293.371-56.022
					c0,0.777-0.332,1.16-0.995,1.16c-0.662,0-0.994-0.383-0.994-1.16c0-0.771,0.332-1.159,0.994-1.159
					C293.039-57.182,293.371-56.793,293.371-56.022z M302.652-74.088h0.663h0.662c0.219,0.223,0.44,0.662,0.663,1.326
					c0.219,0.662,0.331,1.107,0.331,1.325c0,0.445-0.278,0.777-0.828,0.994c-0.555,0.224-1.052,0.332-1.491,0.332V-74.088
					L302.652-74.088z M304.642-82.873c0,0.777-0.223,1.16-0.663,1.16c-0.662,0-0.993-0.383-0.993-1.16
					c0-0.772,0.331-1.16,0.993-1.16C304.419-84.033,304.642-83.646,304.642-82.873z M304.973-76.409
					c-0.444,0-0.663-0.274-0.663-0.829c0-0.549,0.219-0.829,0.663-0.829C306.076-77.621,306.076-77.072,304.973-76.409z
					 M315.746-58.674c0.109,0.554,0.166,1.051,0.166,1.492c0,1.107-0.331,2.269-0.994,3.479c-0.663,1.218-1.88,1.823-3.646,1.823
					c0-1.325,0.383-2.76,1.158-4.31c0.771-1.543,1.823-2.761,3.149-3.646C315.581-59.611,315.633-59.223,315.746-58.674z
					 M322.542-63.812c0,0.663-0.223,1.108-0.663,1.326c-0.445,0.223-0.663-0.218-0.663-1.326c0-1.104,0.218-1.543,0.663-1.326
					C322.319-64.916,322.542-64.476,322.542-63.812z"/>
				<path fill="#EA118D" d="M1.326-49.228v0.994c0.44,1.326,1.16,3.149,2.155,5.47c0.994,2.32,1.6,3.48,1.823,3.48h1.657
					c0-1.104,0.383-2.264,1.16-3.48c0.771-1.212,1.709-1.822,2.817-1.822h0.332c0.217,0.223,0.715,0.662,1.491,1.326
					c0.771,0.662,1.27,1.107,1.492,1.325h0.331h0.663c0.44-0.218,0.938-0.663,1.491-1.325c0.55-0.664,0.938-1.104,1.161-1.326
					c0.439,0.886,1.6,1.822,3.48,2.817c1.875,0.994,3.258,1.384,4.144,1.16c0.44-0.218,1.932-0.829,4.475-1.823
					c2.538-0.994,4.03-1.71,4.476-2.154l5.304,5.304c0.663,0.663,1.435,0.166,2.32-1.491c0.881-1.656,1.544-2.486,1.989-2.486h0.663
					c1.988,1.108,3.48,2.047,4.475,2.817c0.995,0.777,2.704,1.16,5.139,1.16h0.663c0.217-0.217,0.828-0.714,1.823-1.491
					c0.994-0.771,1.709-1.16,2.154-1.16c0.44,0,0.938,0.331,1.492,0.994c0.549,0.663,0.828,1.219,0.828,1.657
					c2.652-1.543,3.979-3.313,3.979-5.304c0-1.325-0.446-2.207-1.326-2.651c-0.886-0.44-1.326-1.435-1.326-2.983v-0.994
					c0-0.217,0.108-0.549,0.331-0.994c0.44,1.107,1.27,1.988,2.486,2.652c1.212,0.661,2.372,1.107,3.48,1.324
					c-0.445,0.446-0.828,1.439-1.16,2.982c-0.331,1.55-0.279,2.652,0.166,3.315c0.218,0.445,0.994,0.994,2.32,1.657
					c1.326,0.663,2.207,0.994,2.652,0.994c1.326-1.104,2.098-2.206,2.32-3.314c0.218-1.104,1.104-1.767,2.652-1.988
					c0.439,0.662,0.938,1.492,1.491,2.485c0.549,0.994,1.16,1.492,1.823,1.492h0.663c0.218-0.218,0.497-0.44,0.829-0.663
					c0.331-0.218,0.497-0.439,0.497-0.663c0.88-0.881,1.325-1.767,1.325-2.651l-3.646-6.299c-0.224-0.218-0.166-0.496,0.165-0.828
					c0.332-0.332,0.606-0.498,0.829-0.498H83.2v0.332c1.988,0,3.589,0.389,4.807,1.16c1.212,0.776,2.429,1.657,3.646,2.651
					c1.212,0.994,2.372,1.88,3.48,2.652c1.104,0.776,2.538,1.159,4.31,1.159c0.217,0,0.663-0.496,1.325-1.491
					c0.663-0.994,1.326-2.099,1.989-3.314c0.663-1.212,1.212-2.372,1.657-3.479c0.44-1.104,0.663-1.875,0.663-2.321h0.663h0.663
					c0.218,0.224,0.331,0.663,0.331,1.326v9.282c0.44,0,0.772-0.109,0.995-0.332c2.429-1.767,4.361-3.48,5.801-5.139
					c1.435-1.656,3.921-2.486,7.459-2.486c0.44,0,1.212,0.332,2.32,0.994c1.104,0.664,1.875,1.219,2.32,1.658
					c0-0.881,0.383-1.767,1.16-2.652c0.771-0.881,1.709-1.325,2.817-1.325c0,0.223,0.109,0.444,0.332,0.663l0.663,0.662
					c0.217,0.445,0.44,1.492,0.663,3.149c0.217,1.657,0.439,2.709,0.662,3.149c0.218,0,0.663,0.057,1.326,0.165
					c0.663,0.114,1.104,0.166,1.326,0.166c1.989,0,3.755-0.497,5.304-1.492c1.544-0.994,3.315-1.491,5.304-1.491
					c0.881,0,1.544,0.223,1.989,0.663c0.44,0.445,0.549,1.549,0.332,3.313c0.662-1.766,1.377-2.868,2.154-3.313
					c0.771-0.44,1.823-0.663,3.149-0.663c1.325,0,2.206,0.279,2.651,0.829c0.44,0.554,1.212,0.828,2.32,0.828
					c0.881,0,1.989-0.828,3.315-2.486c1.326-1.657,2.595-3.532,3.812-5.635c1.213-2.099,2.264-4.194,3.149-6.298
					c0.881-2.098,1.326-3.589,1.326-4.475c0-0.219-0.057-0.715-0.166-1.492c-0.113-0.772-0.165-1.379-0.165-1.823
					c-1.771-0.218-2.983-1.046-3.646-2.486c-0.663-1.435-1.549-2.595-2.652-3.479l-2.651,7.623
					c-3.315-2.428-5.915-6.019-7.79-10.772c-1.881-4.75-2.818-9.002-2.818-12.762c-2.212,0-3.48,0.829-3.812,2.485
					c-0.332,1.658-0.721,3.481-1.161,5.471h-0.331c-0.663,0-1.217-0.383-1.657-1.16c-0.445-0.771-0.886-1.657-1.326-2.652
					c-0.445-0.994-0.942-1.875-1.492-2.652c-0.554-0.771-1.383-1.159-2.485-1.159c-4.424,0-8.898,0.61-13.426,1.823
					c-4.532,1.217-8.898,1.822-13.094,1.822c-0.886,0-1.605-0.166-2.155-0.498c-0.554-0.332-1.273-0.496-2.154-0.496
					c-2.652,0-5.47,0.388-8.453,1.159c-2.983,0.777-5.692,1.16-8.121,1.16c-0.445,0-1.771-0.166-3.979-0.497
					c-2.211-0.332-3.537-0.605-3.978-0.829h-0.663h-0.331c-0.446,0.224-1.161,0.497-2.155,0.829
					c-0.994,0.332-1.605,0.497-1.823,0.497c-0.223,0-0.663-0.217-1.326-0.663c-0.662-0.439-1.108-0.663-1.325-0.663
					c-1.108,0-1.989,1.108-2.652,3.314c-0.663,2.212-1.88,3.315-3.646,3.315l-0.663-0.664l-0.663-0.662
					c-0.223-0.219-0.497-0.383-0.828-0.498c-0.332-0.108-0.721-0.383-1.16-0.828c-0.663-0.217-1.218-0.549-1.658-0.994h-0.331
					l-0.663-0.332l-0.663,0.332c-0.445,0.886-0.663,1.822-0.663,2.816c0,0.996-0.554,1.715-1.657,2.155
					c-1.108-0.44-1.657-1.325-1.657-2.651s0.549-2.652,1.657-3.979c-0.445-0.217-1.108-0.497-1.989-0.829
					c-0.886-0.332-1.549-0.497-1.988-0.497l-1.326,0.663l-1.326,0.663c-0.223,0.223-0.445,0.332-0.663,0.332H51.05l-0.994-0.332
					l-1.326-1.326c-2.435,0-4.755,0.497-6.961,1.492c-2.212,0.994-4.424,1.492-6.63,1.492c-1.108,0-1.771-0.275-1.989-0.829
					c-0.223-0.549-0.886-0.829-1.989-0.829H30.83c-0.223,0.223-0.497,0.497-0.829,0.829c-0.331,0.332-0.497,0.61-0.497,0.829
					c-0.445-2.207-1.491-3.424-3.149-3.646c-1.657-0.218-3.148-0.332-4.475-0.332c-2.435,0-4.424,0.664-5.967,1.989
					c-1.549,1.326-2.543,3.206-2.983,5.636l0.663,1.325c0.217,0.445,0.44,0.777,0.663,0.995v2.982c0,1.99-0.611,3.264-1.823,3.812
					c-1.218,0.555-2.652,1.16-4.31,1.823s-3.264,1.714-4.807,3.149c-1.549,1.439-2.652,4.035-3.315,7.789l0.663,1.326
					c0.218,0.445,0.44,0.777,0.663,0.995c0,0.445-0.166,0.942-0.497,1.492c-0.332,0.554-0.612,0.942-0.83,1.16
					c0.44,0,1.104,0.166,1.989,0.497c0.881,0.332,1.435,0.611,1.657,0.828l0.332,0.664l-0.332,0.662
					c-0.223,0.224-0.663,0.445-1.325,0.664c-0.663,0.223-0.995,0.444-0.995,0.662V-49.228z M20.222-85.69
					c1.543,0,2.538,0.554,2.983,1.658h-1.326c-1.549,0-2.435-0.55-2.652-1.658H20.222z M23.205-52.211
					c-0.445,0-0.663-0.273-0.663-0.828c0-0.549,0.218-0.715,0.663-0.497C24.085-53.092,24.085-52.65,23.205-52.211z M24.199-81.713
					h1.326v1.326L24.199-81.713z M33.149-80.387h0.994h0.332c0.44,0.223,0.938,0.445,1.491,0.662c0.55,0.223,0.938,0.445,1.16,0.663
					c-0.445,0.886-0.942,1.771-1.491,2.652c-0.555,0.886-1.383,1.325-2.486,1.325V-80.387z M59.669-47.072
					c0,0.777-0.223,1.161-0.663,1.161c-0.663,0-0.994-0.384-0.994-1.161c0-0.771,0.331-1.16,0.994-1.16
					C59.446-48.232,59.669-47.844,59.669-47.072z M73.923-81.713c0,0.887-0.331,1.326-0.994,1.326c-0.445,0-0.663-0.439-0.663-1.326
					c0-0.879,0.218-1.325,0.663-1.325C73.592-83.039,73.923-82.594,73.923-81.713z M74.255-74.088h2.651
					c0,1.988-0.886,2.982-2.651,2.982V-74.088z M79.227-81.713c0,0.887-0.445,1.326-1.325,1.326c-0.446,0-0.663-0.439-0.663-1.326
					c0-0.879,0.217-1.325,0.663-1.325C78.781-83.039,79.227-82.594,79.227-81.713z M81.547-67.625c0,0.996-0.223,1.492-0.662,1.492
					c-0.663,0-0.995-0.496-0.995-1.492c0-0.994,0.332-1.491,0.995-1.491C81.324-69.116,81.547-68.619,81.547-67.625z M84.53-58.508
					l-1.325,1.326c-0.886-0.664-1.326-1.658-1.326-2.984C82.982-60.166,83.868-59.611,84.53-58.508z M84.53-54.862
					c-0.445,0.224-0.662,0.058-0.662-0.497c0-0.549,0.217-0.829,0.662-0.829C85.411-55.742,85.411-55.303,84.53-54.862z
					 M85.856-81.713h2.652c0.218,0,0.497,0.664,0.828,1.99c0.332,1.325,0.498,2.435,0.498,3.314c0,1.107-0.389,1.938-1.16,2.486
					c-0.777,0.554-1.715,0.828-2.818,0.828V-81.713z M93.481-56.188c0.217,0.224,0.497,0.445,0.828,0.663
					c0.332,0.223,0.497,0.445,0.497,0.663v0.663v0.663c0,0.886-0.445,1.325-1.325,1.325V-56.188z M111.382-56.188h1.326v2.651
					h-1.326V-56.188z M123.979-56.022c0,0.777-0.332,1.16-0.995,1.16c-0.662,0-0.994-0.383-0.994-1.16
					c0-0.771,0.332-1.159,0.994-1.159S123.979-56.793,123.979-56.022z M133.26-74.088h0.663h0.663
					c0.218,0.223,0.44,0.662,0.663,1.326c0.218,0.662,0.331,1.107,0.331,1.325c0,0.445-0.279,0.777-0.828,0.994
					c-0.555,0.224-1.052,0.332-1.492,0.332V-74.088L133.26-74.088z M135.249-82.873c0,0.777-0.223,1.16-0.663,1.16
					c-0.663,0-0.994-0.383-0.994-1.16c0-0.772,0.331-1.16,0.994-1.16C135.026-84.033,135.249-83.646,135.249-82.873z M135.58-76.409
					c-0.445,0-0.663-0.274-0.663-0.829c0-0.549,0.218-0.829,0.663-0.829C136.684-77.621,136.684-77.072,135.58-76.409z
					 M146.354-58.674c0.109,0.554,0.166,1.051,0.166,1.492c0,1.107-0.331,2.269-0.994,3.479c-0.663,1.218-1.88,1.823-3.646,1.823
					c0-1.325,0.383-2.76,1.16-4.31c0.771-1.543,1.823-2.761,3.149-3.646C146.188-59.611,146.24-59.223,146.354-58.674z
					 M153.149-63.812c0,0.663-0.223,1.108-0.663,1.326c-0.445,0.223-0.663-0.218-0.663-1.326c0-1.104,0.218-1.543,0.663-1.326
					C152.927-64.916,153.149-64.476,153.149-63.812z"/>
				<path fill="#EA118D" d="M86.022-88.225v0.994c0.44,1.326,1.16,3.149,2.155,5.471c0.994,2.319,1.6,3.479,1.823,3.479h1.657
					c0-1.103,0.383-2.263,1.16-3.479c0.771-1.213,1.709-1.824,2.817-1.824h0.332c0.217,0.224,0.715,0.664,1.491,1.326
					c0.771,0.664,1.27,1.108,1.492,1.326h0.331h0.663c0.44-0.217,0.938-0.662,1.491-1.326c0.55-0.662,0.938-1.104,1.161-1.326
					c0.439,0.887,1.6,1.824,3.48,2.818c1.875,0.994,3.258,1.383,4.144,1.16c0.44-0.218,1.932-0.829,4.475-1.822
					c2.538-0.996,4.03-1.709,4.476-2.156l5.304,5.305c0.663,0.663,1.435,0.166,2.32-1.492c0.881-1.656,1.544-2.486,1.989-2.486
					h0.663c1.988,1.108,3.48,2.047,4.475,2.817c0.995,0.777,2.704,1.16,5.139,1.16h0.663c0.217-0.217,0.828-0.714,1.823-1.492
					c0.994-0.771,1.709-1.159,2.154-1.159c0.44,0,0.938,0.331,1.492,0.994c0.549,0.663,0.828,1.217,0.828,1.657
					c2.652-1.543,3.979-3.315,3.979-5.304c0-1.326-0.446-2.207-1.326-2.652c-0.886-0.439-1.326-1.436-1.326-2.982v-0.996
					c0-0.217,0.108-0.549,0.331-0.994c0.44,1.108,1.27,1.99,2.486,2.652c1.212,0.663,2.372,1.108,3.48,1.326
					c-0.445,0.446-0.828,1.439-1.16,2.983c-0.331,1.549-0.279,2.651,0.166,3.314c0.218,0.446,0.994,0.995,2.32,1.658
					c1.326,0.663,2.207,0.994,2.652,0.994c1.326-1.103,2.098-2.206,2.32-3.315c0.218-1.103,1.104-1.766,2.652-1.988
					c0.439,0.662,0.938,1.492,1.491,2.486c0.549,0.993,1.16,1.491,1.823,1.491h0.663c0.218-0.218,0.497-0.44,0.829-0.663
					c0.331-0.217,0.497-0.439,0.497-0.663c0.88-0.88,1.325-1.766,1.325-2.651l-3.646-6.299c-0.224-0.217-0.166-0.496,0.165-0.828
					c0.332-0.332,0.606-0.498,0.829-0.498h1.326v0.332c1.988,0,3.589,0.389,4.807,1.16c1.212,0.777,2.429,1.657,3.646,2.652
					c1.212,0.994,2.372,1.88,3.48,2.652c1.104,0.777,2.538,1.16,4.31,1.16c0.217,0,0.663-0.498,1.325-1.492
					c0.663-0.995,1.326-2.098,1.989-3.315c0.663-1.212,1.212-2.372,1.657-3.479c0.44-1.104,0.663-1.875,0.663-2.321h0.663h0.663
					c0.218,0.224,0.331,0.663,0.331,1.326v9.282c0.44,0,0.772-0.109,0.995-0.332c2.429-1.767,4.361-3.48,5.801-5.139
					c1.435-1.656,3.921-2.486,7.459-2.486c0.44,0,1.212,0.332,2.32,0.994c1.104,0.664,1.875,1.218,2.32,1.658
					c0-0.881,0.383-1.767,1.16-2.652c0.771-0.881,1.709-1.325,2.817-1.325c0,0.223,0.109,0.444,0.332,0.663l0.663,0.662
					c0.217,0.445,0.44,1.492,0.663,3.149c0.217,1.657,0.439,2.709,0.662,3.149c0.218,0,0.663,0.057,1.326,0.166
					c0.663,0.113,1.104,0.166,1.326,0.166c1.989,0,3.755-0.497,5.304-1.492c1.544-0.994,3.315-1.492,5.304-1.492
					c0.881,0,1.544,0.223,1.989,0.663c0.44,0.445,0.549,1.549,0.332,3.315c0.662-1.767,1.377-2.87,2.154-3.315
					c0.771-0.44,1.823-0.663,3.149-0.663c1.325,0,2.206,0.28,2.651,0.829c0.44,0.554,1.212,0.829,2.32,0.829
					c0.881,0,1.989-0.829,3.315-2.486c1.326-1.656,2.595-3.531,3.812-5.635c1.213-2.098,2.264-4.195,3.149-6.298
					c0.881-2.099,1.326-3.589,1.326-4.476c0-0.217-0.057-0.715-0.166-1.491c-0.113-0.772-0.165-1.378-0.165-1.823
					c-1.771-0.218-2.983-1.046-3.646-2.486c-0.663-1.435-1.549-2.595-2.652-3.479l-2.651,7.624c-3.315-2.43-5.915-6.02-7.79-10.773
					c-1.881-4.75-2.818-9.002-2.818-12.762c-2.212,0-3.48,0.829-3.812,2.486c-0.332,1.658-0.721,3.48-1.161,5.47h-0.331
					c-0.663,0-1.217-0.384-1.657-1.16c-0.445-0.771-0.886-1.657-1.326-2.651c-0.445-0.996-0.942-1.875-1.492-2.652
					c-0.554-0.772-1.383-1.16-2.485-1.16c-4.424,0-8.898,0.611-13.426,1.822c-4.532,1.218-8.898,1.824-13.094,1.824
					c-0.886,0-1.605-0.166-2.155-0.498c-0.554-0.332-1.273-0.498-2.154-0.498c-2.652,0-5.47,0.389-8.453,1.16
					c-2.983,0.777-5.692,1.16-8.121,1.16c-0.445,0-1.771-0.166-3.979-0.497c-2.211-0.332-3.537-0.606-3.978-0.829h-0.663h-0.331
					c-0.446,0.223-1.161,0.497-2.155,0.829s-1.605,0.497-1.823,0.497c-0.223,0-0.663-0.217-1.326-0.663
					c-0.662-0.44-1.108-0.663-1.325-0.663c-1.108,0-1.989,1.108-2.652,3.314c-0.663,2.212-1.88,3.314-3.646,3.314l-0.663-0.662
					l-0.663-0.664c-0.223-0.217-0.497-0.383-0.828-0.496c-0.332-0.109-0.721-0.383-1.16-0.829c-0.663-0.218-1.218-0.55-1.658-0.994
					h-0.331l-0.663-0.332l-0.663,0.332c-0.445,0.886-0.663,1.823-0.663,2.817s-0.554,1.713-1.657,2.154
					c-1.108-0.439-1.657-1.326-1.657-2.652c0-1.325,0.549-2.651,1.657-3.978c-0.445-0.217-1.108-0.497-1.989-0.829
					c-0.886-0.332-1.549-0.496-1.988-0.496l-1.326,0.662l-1.326,0.663c-0.223,0.224-0.445,0.332-0.663,0.332h-0.663l-0.994-0.332
					l-1.326-1.325c-2.435,0-4.755,0.496-6.961,1.491c-2.212,0.994-4.424,1.492-6.63,1.492c-1.108,0-1.771-0.274-1.989-0.829
					c-0.223-0.549-0.886-0.829-1.989-0.829h-0.331c-0.223,0.224-0.497,0.497-0.829,0.829c-0.331,0.332-0.497,0.611-0.497,0.829
					c-0.445-2.207-1.491-3.424-3.149-3.646c-1.657-0.219-3.148-0.332-4.475-0.332c-2.435,0-4.424,0.662-5.967,1.988
					c-1.549,1.326-2.543,3.206-2.983,5.635l0.663,1.326c0.217,0.445,0.44,0.777,0.663,0.995v2.983c0,1.988-0.611,3.263-1.823,3.812
					c-1.218,0.554-2.652,1.16-4.31,1.823c-1.658,0.663-3.264,1.714-4.807,3.148c-1.549,1.44-2.652,4.035-3.315,7.791l0.663,1.326
					c0.218,0.444,0.44,0.776,0.663,0.994c0,0.445-0.166,0.942-0.497,1.492c-0.331,0.555-0.611,0.941-0.829,1.16
					c0.44,0,1.104,0.166,1.989,0.497c0.881,0.332,1.435,0.61,1.657,0.829l0.332,0.662l-0.332,0.664
					c-0.223,0.223-0.663,0.444-1.325,0.662c-0.663,0.224-0.995,0.445-0.995,0.664v0.33H86.022z M104.918-124.688
					c1.543,0,2.538,0.554,2.983,1.658h-1.326c-1.549,0-2.435-0.549-2.652-1.658H104.918z M107.901-91.207
					c-0.445,0-0.663-0.275-0.663-0.829c0-0.55,0.218-0.716,0.663-0.497C108.781-92.088,108.781-91.647,107.901-91.207z
					 M108.896-120.711h1.326v1.326L108.896-120.711z M117.846-119.385h0.994h0.332c0.44,0.224,0.938,0.446,1.491,0.664
					c0.55,0.223,0.938,0.444,1.16,0.662c-0.445,0.887-0.942,1.771-1.491,2.652c-0.555,0.886-1.383,1.326-2.486,1.326V-119.385z
					 M144.365-86.069c0,0.776-0.223,1.161-0.663,1.161c-0.663,0-0.994-0.383-0.994-1.161c0-0.771,0.331-1.16,0.994-1.16
					C144.143-87.229,144.365-86.842,144.365-86.069z M158.619-120.711c0,0.887-0.331,1.326-0.994,1.326
					c-0.445,0-0.663-0.439-0.663-1.326c0-0.879,0.218-1.325,0.663-1.325C158.288-122.036,158.619-121.59,158.619-120.711z
					 M158.951-113.086h2.651c0,1.988-0.886,2.982-2.651,2.982V-113.086z M163.923-120.711c0,0.887-0.445,1.326-1.325,1.326
					c-0.446,0-0.663-0.439-0.663-1.326c0-0.879,0.217-1.325,0.663-1.325C163.478-122.036,163.923-121.59,163.923-120.711z
					 M166.243-106.622c0,0.995-0.223,1.491-0.662,1.491c-0.663,0-0.995-0.496-0.995-1.491s0.332-1.492,0.995-1.492
					C166.021-108.113,166.243-107.616,166.243-106.622z M169.227-97.506l-1.325,1.326c-0.886-0.664-1.326-1.658-1.326-2.983
					C167.679-99.163,168.564-98.609,169.227-97.506z M169.227-93.859c-0.445,0.223-0.662,0.057-0.662-0.497
					c0-0.549,0.217-0.829,0.662-0.829C170.107-94.74,170.107-94.299,169.227-93.859z M170.553-120.711h2.652
					c0.218,0,0.497,0.664,0.828,1.99c0.332,1.325,0.498,2.435,0.498,3.314c0,1.107-0.389,1.938-1.16,2.486
					c-0.777,0.554-1.715,0.828-2.818,0.828V-120.711z M178.178-95.186c0.217,0.223,0.497,0.445,0.828,0.663
					c0.332,0.224,0.497,0.445,0.497,0.663v0.663v0.663c0,0.886-0.445,1.326-1.325,1.326V-95.186z M196.078-95.186h1.326v2.652
					h-1.326V-95.186z M208.675-95.021c0,0.777-0.332,1.16-0.995,1.16c-0.662,0-0.994-0.383-0.994-1.16
					c0-0.771,0.332-1.159,0.994-1.159C208.343-96.18,208.675-95.791,208.675-95.021z M217.956-113.086h0.663h0.663
					c0.218,0.223,0.44,0.662,0.663,1.326c0.218,0.662,0.331,1.107,0.331,1.325c0,0.445-0.279,0.777-0.828,0.994
					c-0.555,0.224-1.052,0.332-1.492,0.332V-113.086L217.956-113.086z M219.945-121.87c0,0.776-0.223,1.159-0.663,1.159
					c-0.663,0-0.994-0.383-0.994-1.159c0-0.772,0.331-1.16,0.994-1.16C219.723-123.03,219.945-122.643,219.945-121.87z
					 M220.276-115.406c-0.445,0-0.663-0.273-0.663-0.829c0-0.549,0.218-0.829,0.663-0.829
					C221.38-116.618,221.38-116.069,220.276-115.406z M231.05-97.672c0.109,0.555,0.166,1.052,0.166,1.492
					c0,1.108-0.331,2.27-0.994,3.48c-0.663,1.217-1.88,1.822-3.646,1.822c0-1.325,0.383-2.76,1.16-4.309
					c0.771-1.543,1.823-2.761,3.149-3.646C230.885-98.609,230.937-98.221,231.05-97.672z M237.846-102.811
					c0,0.663-0.223,1.108-0.663,1.326c-0.445,0.223-0.663-0.218-0.663-1.326c0-1.103,0.218-1.543,0.663-1.326
					C237.623-103.913,237.846-103.473,237.846-102.811z"/>
				<path fill="#EA118D" d="M170.719-127.221v0.993c0.44,1.326,1.16,3.149,2.155,5.47c0.994,2.32,1.6,3.48,1.823,3.48h1.657
					c0-1.104,0.383-2.264,1.16-3.48c0.771-1.211,1.709-1.822,2.817-1.822h0.332c0.217,0.223,0.715,0.662,1.491,1.326
					c0.771,0.662,1.27,1.107,1.492,1.326h0.331h0.663c0.44-0.218,0.938-0.664,1.491-1.326c0.55-0.664,0.938-1.104,1.161-1.326
					c0.439,0.886,1.6,1.822,3.48,2.818c1.875,0.993,3.258,1.383,4.144,1.159c0.44-0.218,1.932-0.829,4.475-1.823
					c2.538-0.994,4.03-1.709,4.476-2.154l5.304,5.304c0.663,0.663,1.435,0.166,2.32-1.492c0.881-1.657,1.544-2.485,1.989-2.485
					h0.663c1.988,1.107,3.48,2.045,4.475,2.816c0.995,0.777,2.704,1.16,5.139,1.16h0.663c0.217-0.217,0.828-0.714,1.823-1.492
					c0.994-0.771,1.709-1.16,2.154-1.16c0.44,0,0.938,0.332,1.492,0.995c0.549,0.663,0.828,1.218,0.828,1.657
					c2.652-1.543,3.979-3.314,3.979-5.304c0-1.326-0.446-2.207-1.326-2.652c-0.886-0.44-1.326-1.435-1.326-2.983v-0.994
					c0-0.217,0.108-0.549,0.331-0.994c0.44,1.107,1.27,1.988,2.486,2.652c1.212,0.662,2.372,1.107,3.48,1.325
					c-0.445,0.446-0.828,1.44-1.16,2.983c-0.331,1.549-0.279,2.652,0.166,3.314c0.218,0.446,0.994,0.995,2.32,1.658
					s2.207,0.994,2.652,0.994c1.326-1.104,2.098-2.206,2.32-3.314c0.218-1.104,1.104-1.767,2.652-1.989
					c0.439,0.663,0.938,1.491,1.491,2.485c0.549,0.994,1.16,1.492,1.823,1.492h0.663c0.218-0.218,0.497-0.439,0.829-0.662
					c0.331-0.218,0.497-0.44,0.497-0.664c0.88-0.88,1.325-1.766,1.325-2.651l-3.646-6.298c-0.224-0.217-0.166-0.498,0.165-0.83
					c0.332-0.332,0.606-0.496,0.829-0.496h1.326v0.33c1.988,0,3.589,0.39,4.807,1.162c1.212,0.776,2.429,1.656,3.646,2.651
					c1.212,0.994,2.372,1.88,3.48,2.652c1.104,0.776,2.538,1.159,4.31,1.159c0.217,0,0.663-0.496,1.325-1.491
					c0.663-0.995,1.326-2.099,1.989-3.315c0.663-1.212,1.212-2.371,1.657-3.479c0.44-1.104,0.663-1.875,0.663-2.321h0.663h0.663
					c0.218,0.223,0.331,0.663,0.331,1.326v9.281c0.44,0,0.772-0.108,0.995-0.331c2.429-1.767,4.361-3.48,5.801-5.138
					c1.435-1.658,3.921-2.486,7.459-2.486c0.44,0,1.212,0.33,2.32,0.994c1.104,0.662,1.875,1.217,2.32,1.658
					c0-0.882,0.383-1.768,1.16-2.652c0.771-0.881,1.709-1.326,2.817-1.326c0,0.223,0.109,0.445,0.332,0.663l0.663,0.663
					c0.217,0.445,0.439,1.492,0.663,3.148c0.217,1.657,0.438,2.709,0.662,3.149c0.218,0,0.663,0.057,1.325,0.166
					c0.663,0.114,1.104,0.166,1.326,0.166c1.989,0,3.755-0.497,5.306-1.492c1.544-0.994,3.313-1.492,5.304-1.492
					c0.881,0,1.544,0.224,1.989,0.663c0.438,0.445,0.549,1.549,0.332,3.315c0.66-1.767,1.377-2.87,2.152-3.315
					c0.771-0.439,1.823-0.663,3.149-0.663c1.325,0,2.206,0.28,2.649,0.829c0.44,0.555,1.214,0.829,2.32,0.829
					c0.881,0,1.989-0.829,3.315-2.485c1.324-1.658,2.595-3.533,3.812-5.636c1.213-2.098,2.265-4.194,3.149-6.298
					c0.881-2.098,1.326-3.589,1.326-4.475c0-0.219-0.059-0.715-0.166-1.492c-0.113-0.772-0.165-1.378-0.165-1.823
					c-1.771-0.218-2.983-1.046-3.646-2.486c-0.663-1.435-1.549-2.595-2.652-3.48l-2.649,7.624c-3.315-2.429-5.915-6.019-7.79-10.773
					c-1.881-4.75-2.818-9.002-2.818-12.762c-2.212,0-3.479,0.829-3.812,2.486c-0.332,1.658-0.723,3.481-1.161,5.47h-0.331
					c-0.663,0-1.217-0.383-1.657-1.16c-0.445-0.771-0.886-1.657-1.326-2.652c-0.443-0.995-0.94-1.875-1.49-2.652
					c-0.556-0.772-1.385-1.16-2.485-1.16c-4.424,0-8.898,0.611-13.426,1.823c-4.532,1.217-8.898,1.823-13.094,1.823
					c-0.886,0-1.605-0.166-2.155-0.498c-0.554-0.332-1.273-0.497-2.154-0.497c-2.652,0-5.47,0.388-8.453,1.16
					c-2.983,0.777-5.692,1.16-8.121,1.16c-0.445,0-1.771-0.166-3.979-0.497c-2.211-0.332-3.537-0.606-3.978-0.829h-0.663h-0.331
					c-0.446,0.223-1.161,0.497-2.155,0.829c-0.994,0.332-1.605,0.497-1.823,0.497c-0.223,0-0.663-0.217-1.326-0.663
					c-0.662-0.44-1.108-0.663-1.325-0.663c-1.108,0-1.989,1.108-2.652,3.314c-0.663,2.212-1.88,3.315-3.646,3.315l-0.663-0.663
					l-0.663-0.663c-0.223-0.218-0.497-0.383-0.828-0.497c-0.332-0.109-0.721-0.383-1.16-0.829c-0.663-0.217-1.218-0.549-1.658-0.994
					h-0.331l-0.663-0.332l-0.663,0.332c-0.445,0.886-0.663,1.823-0.663,2.817c0,0.995-0.554,1.714-1.657,2.155
					c-1.108-0.44-1.657-1.326-1.657-2.652c0-1.326,0.549-2.652,1.657-3.979c-0.445-0.217-1.108-0.497-1.989-0.829
					c-0.886-0.332-1.549-0.497-1.988-0.497l-1.326,0.663l-1.326,0.663c-0.223,0.223-0.445,0.332-0.663,0.332h-0.663l-0.994-0.332
					l-1.326-1.326c-2.435,0-4.755,0.497-6.961,1.492c-2.212,0.994-4.424,1.492-6.63,1.492c-1.108,0-1.771-0.275-1.989-0.829
					c-0.223-0.549-0.886-0.829-1.989-0.829h-0.331c-0.223,0.223-0.497,0.497-0.829,0.829c-0.331,0.332-0.497,0.611-0.497,0.829
					c-0.445-2.207-1.491-3.424-3.149-3.646c-1.657-0.218-3.148-0.332-4.475-0.332c-2.435,0-4.424,0.663-5.967,1.989
					c-1.549,1.326-2.543,3.206-2.983,5.635l0.663,1.326c0.217,0.445,0.44,0.777,0.663,0.995v2.983c0,1.989-0.611,3.263-1.823,3.812
					c-1.218,0.554-2.652,1.16-4.31,1.823c-1.658,0.663-3.264,1.714-4.807,3.149c-1.549,1.439-2.652,4.035-3.315,7.789l0.663,1.326
					c0.218,0.445,0.44,0.777,0.663,0.996c0,0.444-0.166,0.941-0.497,1.491c-0.331,0.554-0.611,0.942-0.829,1.16
					c0.44,0,1.104,0.166,1.989,0.497c0.881,0.332,1.435,0.611,1.657,0.829l0.332,0.663l-0.332,0.662
					c-0.223,0.224-0.663,0.445-1.325,0.664c-0.663,0.223-0.995,0.444-0.995,0.662v0.332H170.719z M189.614-163.687
					c1.543,0,2.538,0.554,2.983,1.658h-1.326c-1.549,0-2.435-0.549-2.652-1.658H189.614z M192.598-130.205
					c-0.445,0-0.663-0.275-0.663-0.829c0-0.55,0.218-0.716,0.663-0.497C193.478-131.086,193.478-130.646,192.598-130.205z
					 M193.592-159.708h1.326v1.326L193.592-159.708z M202.542-158.382h0.994h0.332c0.44,0.223,0.938,0.446,1.491,0.663
					c0.55,0.223,0.938,0.445,1.16,0.663c-0.445,0.886-0.942,1.771-1.491,2.652c-0.555,0.886-1.383,1.326-2.486,1.326V-158.382
					L202.542-158.382z M229.062-125.067c0,0.776-0.223,1.161-0.663,1.161c-0.663,0-0.994-0.383-0.994-1.161
					c0-0.771,0.331-1.16,0.994-1.16C228.839-126.228,229.062-125.838,229.062-125.067z M243.315-159.708
					c0,0.886-0.331,1.326-0.994,1.326c-0.445,0-0.663-0.44-0.663-1.326c0-0.88,0.218-1.326,0.663-1.326
					C242.984-161.034,243.315-160.588,243.315-159.708z M243.647-152.083h2.651c0,1.989-0.886,2.983-2.651,2.983V-152.083z
					 M248.619-159.708c0,0.886-0.445,1.326-1.325,1.326c-0.446,0-0.663-0.44-0.663-1.326c0-0.88,0.217-1.326,0.663-1.326
					C248.174-161.034,248.619-160.588,248.619-159.708z M250.939-145.619c0,0.994-0.223,1.492-0.662,1.492
					c-0.663,0-0.995-0.498-0.995-1.492c0-0.995,0.332-1.492,0.995-1.492C250.717-147.111,250.939-146.614,250.939-145.619z
					 M253.923-136.504l-1.325,1.326c-0.886-0.662-1.326-1.656-1.326-2.982C252.375-138.161,253.261-137.606,253.923-136.504z
					 M253.923-132.857c-0.445,0.223-0.662,0.057-0.662-0.497c0-0.549,0.217-0.829,0.662-0.829
					C254.804-133.737,254.804-133.297,253.923-132.857z M255.249-159.708h2.652c0.218,0,0.497,0.663,0.828,1.989
					c0.332,1.326,0.498,2.435,0.498,3.315c0,1.108-0.389,1.937-1.16,2.486c-0.777,0.554-1.715,0.829-2.818,0.829V-159.708z
					 M262.874-134.184c0.217,0.223,0.497,0.445,0.828,0.663c0.332,0.224,0.497,0.445,0.497,0.663v0.663v0.663
					c0,0.886-0.445,1.326-1.325,1.326V-134.184z M280.774-134.184h1.326v2.652h-1.326V-134.184z M293.371-134.018
					c0,0.777-0.332,1.16-0.995,1.16c-0.662,0-0.994-0.383-0.994-1.16c0-0.771,0.332-1.16,0.994-1.16
					C293.039-135.178,293.371-134.789,293.371-134.018z M302.652-152.083h0.663h0.662c0.219,0.223,0.44,0.663,0.663,1.326
					c0.219,0.663,0.331,1.108,0.331,1.326c0,0.445-0.278,0.777-0.828,0.994c-0.555,0.223-1.052,0.332-1.491,0.332V-152.083
					L302.652-152.083z M304.642-160.868c0,0.777-0.223,1.16-0.663,1.16c-0.662,0-0.993-0.383-0.993-1.16
					c0-0.772,0.331-1.16,0.993-1.16C304.419-162.028,304.642-161.64,304.642-160.868z M304.973-154.404
					c-0.444,0-0.663-0.274-0.663-0.829c0-0.549,0.219-0.829,0.663-0.829C306.076-155.616,306.076-155.067,304.973-154.404z
					 M315.746-136.67c0.109,0.555,0.166,1.052,0.166,1.492c0,1.108-0.331,2.27-0.994,3.48c-0.663,1.217-1.88,1.822-3.646,1.822
					c0-1.325,0.383-2.76,1.158-4.309c0.771-1.543,1.823-2.761,3.149-3.646C315.581-137.606,315.633-137.219,315.746-136.67z
					 M322.542-141.807c0,0.662-0.223,1.107-0.663,1.325c-0.445,0.224-0.663-0.218-0.663-1.325c0-1.104,0.218-1.544,0.663-1.326
					C322.319-142.91,322.542-142.471,322.542-141.807z"/>
				<path fill="#EA118D" d="M1.326-127.221v0.993c0.44,1.326,1.16,3.149,2.155,5.47c0.994,2.32,1.6,3.48,1.823,3.48h1.657
					c0-1.104,0.383-2.264,1.16-3.48c0.771-1.211,1.709-1.822,2.817-1.822h0.332c0.217,0.223,0.715,0.662,1.491,1.326
					c0.771,0.662,1.27,1.107,1.492,1.326h0.331h0.663c0.44-0.218,0.938-0.664,1.491-1.326c0.55-0.664,0.938-1.104,1.161-1.326
					c0.439,0.886,1.6,1.822,3.48,2.818c1.875,0.993,3.258,1.383,4.144,1.159c0.44-0.218,1.932-0.829,4.475-1.823
					c2.538-0.994,4.03-1.709,4.476-2.154l5.304,5.304c0.663,0.663,1.435,0.166,2.32-1.492c0.881-1.657,1.544-2.485,1.989-2.485
					h0.663c1.988,1.107,3.48,2.045,4.475,2.816c0.995,0.777,2.704,1.16,5.139,1.16h0.663c0.217-0.217,0.828-0.714,1.823-1.492
					c0.994-0.771,1.709-1.16,2.154-1.16c0.44,0,0.938,0.332,1.492,0.995c0.549,0.663,0.828,1.218,0.828,1.657
					c2.652-1.543,3.979-3.314,3.979-5.304c0-1.326-0.446-2.207-1.326-2.652c-0.886-0.44-1.326-1.435-1.326-2.983v-0.994
					c0-0.217,0.108-0.549,0.331-0.994c0.44,1.107,1.27,1.988,2.486,2.652c1.212,0.662,2.372,1.107,3.48,1.325
					c-0.445,0.446-0.828,1.44-1.16,2.983c-0.331,1.549-0.279,2.652,0.166,3.314c0.218,0.446,0.994,0.995,2.32,1.658
					c1.326,0.663,2.207,0.994,2.652,0.994c1.326-1.104,2.098-2.206,2.32-3.314c0.218-1.104,1.104-1.767,2.652-1.989
					c0.439,0.663,0.938,1.491,1.491,2.485c0.549,0.994,1.16,1.492,1.823,1.492h0.663c0.218-0.218,0.497-0.439,0.829-0.662
					c0.331-0.218,0.497-0.44,0.497-0.664c0.88-0.88,1.325-1.766,1.325-2.651l-3.646-6.298c-0.224-0.217-0.166-0.498,0.165-0.83
					c0.332-0.332,0.606-0.496,0.829-0.496H83.2v0.33c1.988,0,3.589,0.39,4.807,1.162c1.212,0.776,2.429,1.656,3.646,2.651
					c1.212,0.994,2.372,1.88,3.48,2.652c1.104,0.776,2.538,1.159,4.31,1.159c0.217,0,0.663-0.496,1.325-1.491
					c0.663-0.995,1.326-2.099,1.989-3.315c0.663-1.212,1.212-2.371,1.657-3.479c0.44-1.104,0.663-1.875,0.663-2.321h0.663h0.663
					c0.218,0.223,0.331,0.663,0.331,1.326v9.281c0.44,0,0.772-0.108,0.995-0.331c2.429-1.767,4.361-3.48,5.801-5.138
					c1.435-1.658,3.921-2.486,7.459-2.486c0.44,0,1.212,0.33,2.32,0.994c1.104,0.662,1.875,1.217,2.32,1.658
					c0-0.882,0.383-1.768,1.16-2.652c0.771-0.881,1.709-1.326,2.817-1.326c0,0.223,0.109,0.445,0.332,0.663l0.663,0.663
					c0.217,0.445,0.44,1.492,0.663,3.148c0.217,1.657,0.439,2.709,0.662,3.149c0.218,0,0.663,0.057,1.326,0.166
					c0.663,0.114,1.104,0.166,1.326,0.166c1.989,0,3.755-0.497,5.304-1.492c1.544-0.994,3.315-1.492,5.304-1.492
					c0.881,0,1.544,0.224,1.989,0.663c0.44,0.445,0.549,1.549,0.332,3.315c0.662-1.767,1.377-2.87,2.154-3.315
					c0.771-0.439,1.823-0.663,3.149-0.663c1.325,0,2.206,0.28,2.651,0.829c0.44,0.555,1.212,0.829,2.32,0.829
					c0.881,0,1.989-0.829,3.315-2.485c1.326-1.658,2.595-3.533,3.812-5.636c1.213-2.098,2.264-4.194,3.149-6.298
					c0.881-2.098,1.326-3.589,1.326-4.475c0-0.219-0.057-0.715-0.166-1.492c-0.113-0.772-0.165-1.378-0.165-1.823
					c-1.771-0.218-2.983-1.046-3.646-2.486c-0.663-1.435-1.549-2.595-2.652-3.48l-2.651,7.624c-3.315-2.429-5.915-6.019-7.79-10.773
					c-1.881-4.75-2.818-9.002-2.818-12.762c-2.212,0-3.48,0.829-3.812,2.486c-0.332,1.658-0.721,3.481-1.161,5.47h-0.331
					c-0.663,0-1.217-0.383-1.657-1.16c-0.445-0.771-0.886-1.657-1.326-2.652c-0.445-0.995-0.942-1.875-1.492-2.652
					c-0.554-0.772-1.383-1.16-2.485-1.16c-4.424,0-8.898,0.611-13.426,1.823c-4.532,1.217-8.898,1.823-13.094,1.823
					c-0.886,0-1.605-0.166-2.155-0.498c-0.554-0.332-1.273-0.497-2.154-0.497c-2.652,0-5.47,0.388-8.453,1.16
					c-2.983,0.777-5.692,1.16-8.121,1.16c-0.445,0-1.771-0.166-3.979-0.497c-2.211-0.332-3.537-0.606-3.978-0.829h-0.663h-0.331
					c-0.446,0.223-1.161,0.497-2.155,0.829c-0.994,0.332-1.605,0.497-1.823,0.497c-0.223,0-0.663-0.217-1.326-0.663
					c-0.662-0.44-1.108-0.663-1.325-0.663c-1.108,0-1.989,1.108-2.652,3.314c-0.663,2.212-1.88,3.315-3.646,3.315l-0.663-0.663
					l-0.663-0.663c-0.223-0.218-0.497-0.383-0.828-0.497c-0.332-0.109-0.721-0.383-1.16-0.829c-0.663-0.217-1.218-0.549-1.658-0.994
					h-0.331l-0.663-0.332l-0.663,0.332c-0.445,0.886-0.663,1.823-0.663,2.817c0,0.995-0.554,1.714-1.657,2.155
					c-1.108-0.44-1.657-1.326-1.657-2.652c0-1.326,0.549-2.652,1.657-3.979c-0.445-0.217-1.108-0.497-1.989-0.829
					c-0.886-0.332-1.549-0.497-1.988-0.497l-1.326,0.663l-1.326,0.663c-0.223,0.223-0.445,0.332-0.663,0.332H51.05l-0.994-0.332
					l-1.326-1.326c-2.435,0-4.755,0.497-6.961,1.492c-2.212,0.994-4.424,1.492-6.63,1.492c-1.108,0-1.771-0.275-1.989-0.829
					c-0.223-0.549-0.886-0.829-1.989-0.829H30.83c-0.223,0.223-0.497,0.497-0.829,0.829c-0.331,0.332-0.497,0.611-0.497,0.829
					c-0.445-2.207-1.491-3.424-3.149-3.646c-1.657-0.218-3.148-0.332-4.475-0.332c-2.435,0-4.424,0.663-5.967,1.989
					c-1.549,1.326-2.543,3.206-2.983,5.635l0.663,1.326c0.217,0.445,0.44,0.777,0.663,0.995v2.983c0,1.989-0.611,3.263-1.823,3.812
					c-1.218,0.554-2.652,1.16-4.31,1.823s-3.264,1.714-4.807,3.149c-1.549,1.439-2.652,4.035-3.315,7.789l0.663,1.326
					c0.218,0.445,0.44,0.777,0.663,0.996c0,0.444-0.166,0.941-0.497,1.491c-0.331,0.554-0.611,0.942-0.829,1.16
					c0.44,0,1.104,0.166,1.989,0.497c0.881,0.332,1.435,0.611,1.657,0.829l0.332,0.663l-0.332,0.662
					c-0.223,0.224-0.663,0.445-1.325,0.664c-0.663,0.223-0.995,0.444-0.995,0.662L1.326-127.221L1.326-127.221z M20.222-163.687
					c1.543,0,2.538,0.554,2.983,1.658h-1.326c-1.549,0-2.435-0.549-2.652-1.658H20.222z M23.205-130.205
					c-0.445,0-0.663-0.275-0.663-0.829c0-0.55,0.218-0.716,0.663-0.497C24.085-131.086,24.085-130.646,23.205-130.205z
					 M24.199-159.708h1.326v1.326L24.199-159.708z M33.149-158.382h0.994h0.332c0.44,0.223,0.938,0.446,1.491,0.663
					c0.55,0.223,0.938,0.445,1.16,0.663c-0.445,0.886-0.942,1.771-1.491,2.652c-0.555,0.886-1.383,1.326-2.486,1.326V-158.382z
					 M59.669-125.067c0,0.776-0.223,1.161-0.663,1.161c-0.663,0-0.994-0.383-0.994-1.161c0-0.771,0.331-1.16,0.994-1.16
					C59.446-126.228,59.669-125.838,59.669-125.067z M73.923-159.708c0,0.886-0.331,1.326-0.994,1.326
					c-0.445,0-0.663-0.44-0.663-1.326c0-0.88,0.218-1.326,0.663-1.326C73.592-161.034,73.923-160.588,73.923-159.708z
					 M74.255-152.083h2.651c0,1.989-0.886,2.983-2.651,2.983V-152.083z M79.227-159.708c0,0.886-0.445,1.326-1.325,1.326
					c-0.446,0-0.663-0.44-0.663-1.326c0-0.88,0.217-1.326,0.663-1.326C78.781-161.034,79.227-160.588,79.227-159.708z
					 M81.547-145.619c0,0.994-0.223,1.492-0.662,1.492c-0.663,0-0.995-0.498-0.995-1.492c0-0.995,0.332-1.492,0.995-1.492
					C81.324-147.111,81.547-146.614,81.547-145.619z M84.53-136.504l-1.325,1.326c-0.886-0.662-1.326-1.656-1.326-2.982
					C82.982-138.161,83.868-137.606,84.53-136.504z M84.53-132.857c-0.445,0.223-0.662,0.057-0.662-0.497
					c0-0.549,0.217-0.829,0.662-0.829C85.411-133.737,85.411-133.297,84.53-132.857z M85.856-159.708h2.652
					c0.218,0,0.497,0.663,0.828,1.989c0.332,1.326,0.498,2.435,0.498,3.315c0,1.108-0.389,1.937-1.16,2.486
					c-0.777,0.554-1.715,0.829-2.818,0.829V-159.708z M93.481-134.184c0.217,0.223,0.497,0.445,0.828,0.663
					c0.332,0.224,0.497,0.445,0.497,0.663v0.663v0.663c0,0.886-0.445,1.326-1.325,1.326V-134.184z M111.382-134.184h1.326v2.652
					h-1.326V-134.184z M123.979-134.018c0,0.777-0.332,1.16-0.995,1.16c-0.662,0-0.994-0.383-0.994-1.16
					c0-0.771,0.332-1.16,0.994-1.16S123.979-134.789,123.979-134.018z M133.26-152.083h0.663h0.663
					c0.218,0.223,0.44,0.663,0.663,1.326c0.218,0.663,0.331,1.108,0.331,1.326c0,0.445-0.279,0.777-0.828,0.994
					c-0.555,0.223-1.052,0.332-1.492,0.332V-152.083L133.26-152.083z M135.249-160.868c0,0.777-0.223,1.16-0.663,1.16
					c-0.663,0-0.994-0.383-0.994-1.16c0-0.772,0.331-1.16,0.994-1.16C135.026-162.028,135.249-161.64,135.249-160.868z
					 M135.58-154.404c-0.445,0-0.663-0.274-0.663-0.829c0-0.549,0.218-0.829,0.663-0.829
					C136.684-155.616,136.684-155.067,135.58-154.404z M146.354-136.67c0.109,0.555,0.166,1.052,0.166,1.492
					c0,1.108-0.331,2.27-0.994,3.48c-0.663,1.217-1.88,1.822-3.646,1.822c0-1.325,0.383-2.76,1.16-4.309
					c0.771-1.543,1.823-2.761,3.149-3.646C146.188-137.606,146.24-137.219,146.354-136.67z M153.149-141.807
					c0,0.662-0.223,1.107-0.663,1.325c-0.445,0.224-0.663-0.218-0.663-1.325c0-1.104,0.218-1.544,0.663-1.326
					C152.927-142.91,153.149-142.471,153.149-141.807z"/>
				<path fill="#EA118D" d="M86.022-166.219v0.994c0.44,1.326,1.16,3.149,2.155,5.47c0.994,2.32,1.6,3.48,1.823,3.48h1.657
					c0-1.103,0.383-2.263,1.16-3.48c0.771-1.212,1.709-1.823,2.817-1.823h0.332c0.217,0.223,0.715,0.663,1.491,1.326
					c0.771,0.663,1.27,1.108,1.492,1.326h0.331h0.663c0.44-0.218,0.938-0.663,1.491-1.326c0.55-0.663,0.938-1.104,1.161-1.326
					c0.439,0.886,1.6,1.823,3.48,2.818c1.875,0.994,3.258,1.383,4.144,1.16c0.44-0.218,1.932-0.829,4.475-1.823
					c2.538-0.995,4.03-1.71,4.476-2.155l5.304,5.304c0.663,0.663,1.435,0.166,2.32-1.491c0.881-1.657,1.544-2.486,1.989-2.486h0.663
					c1.988,1.108,3.48,2.046,4.475,2.817c0.995,0.777,2.704,1.16,5.139,1.16h0.663c0.217-0.217,0.828-0.714,1.823-1.491
					c0.994-0.771,1.709-1.16,2.154-1.16c0.44,0,0.938,0.331,1.492,0.994c0.549,0.663,0.828,1.218,0.828,1.657
					c2.652-1.543,3.979-3.314,3.979-5.304c0-1.325-0.446-2.206-1.326-2.651c-0.886-0.44-1.326-1.435-1.326-2.983v-0.995
					c0-0.217,0.108-0.549,0.331-0.994c0.44,1.108,1.27,1.989,2.486,2.652c1.212,0.662,2.372,1.108,3.48,1.325
					c-0.445,0.446-0.828,1.44-1.16,2.983c-0.331,1.549-0.279,2.652,0.166,3.315c0.218,0.445,0.994,0.994,2.32,1.657
					c1.326,0.663,2.207,0.994,2.652,0.994c1.326-1.103,2.098-2.206,2.32-3.314c0.218-1.104,1.104-1.767,2.652-1.989
					c0.439,0.663,0.938,1.492,1.491,2.486c0.549,0.994,1.16,1.492,1.823,1.492h0.663c0.218-0.218,0.497-0.44,0.829-0.663
					c0.331-0.218,0.497-0.44,0.497-0.663c0.88-0.881,1.325-1.767,1.325-2.652l-3.646-6.298c-0.224-0.218-0.166-0.497,0.165-0.829
					c0.332-0.331,0.606-0.497,0.829-0.497h1.326v0.331c1.988,0,3.589,0.389,4.807,1.161c1.212,0.776,2.429,1.657,3.646,2.651
					c1.212,0.994,2.372,1.88,3.48,2.652c1.104,0.776,2.538,1.16,4.31,1.16c0.217,0,0.663-0.497,1.325-1.492
					c0.663-0.994,1.326-2.098,1.989-3.314c0.663-1.212,1.212-2.372,1.657-3.479c0.44-1.104,0.663-1.875,0.663-2.321h0.663h0.663
					c0.218,0.223,0.331,0.663,0.331,1.326v9.282c0.44,0,0.772-0.109,0.995-0.332c2.429-1.766,4.361-3.48,5.801-5.138
					c1.435-1.657,3.921-2.486,7.459-2.486c0.44,0,1.212,0.331,2.32,0.994c1.104,0.663,1.875,1.218,2.32,1.658
					c0-0.881,0.383-1.767,1.16-2.652c0.771-0.881,1.709-1.326,2.817-1.326c0,0.223,0.109,0.445,0.332,0.663l0.663,0.663
					c0.217,0.445,0.44,1.492,0.663,3.149c0.217,1.657,0.439,2.709,0.662,3.149c0.218,0,0.663,0.057,1.326,0.165
					c0.663,0.114,1.104,0.166,1.326,0.166c1.989,0,3.755-0.497,5.304-1.492c1.544-0.994,3.315-1.491,5.304-1.491
					c0.881,0,1.544,0.223,1.989,0.663c0.44,0.445,0.549,1.549,0.332,3.314c0.662-1.766,1.377-2.869,2.154-3.314
					c0.771-0.44,1.823-0.663,3.149-0.663c1.325,0,2.206,0.279,2.651,0.829c0.44,0.554,1.212,0.828,2.32,0.828
					c0.881,0,1.989-0.828,3.315-2.486c1.326-1.657,2.595-3.532,3.812-5.635c1.213-2.098,2.264-4.195,3.149-6.299
					c0.881-2.098,1.326-3.589,1.326-4.475c0-0.218-0.057-0.715-0.166-1.492c-0.113-0.771-0.165-1.378-0.165-1.823
					c-1.771-0.218-2.983-1.046-3.646-2.486c-0.663-1.435-1.549-2.595-2.652-3.479l-2.651,7.624
					c-3.315-2.429-5.915-6.019-7.79-10.773c-1.881-4.751-2.818-9.004-2.818-12.764c-2.212,0-3.48,0.828-3.812,2.485
					c-0.332,1.658-0.721,3.481-1.161,5.47h-0.331c-0.663,0-1.217-0.383-1.657-1.16c-0.445-0.771-0.886-1.657-1.326-2.651
					c-0.445-0.995-0.942-1.875-1.492-2.652c-0.554-0.771-1.383-1.16-2.485-1.16c-4.424,0-8.898,0.611-13.426,1.823
					c-4.532,1.217-8.898,1.823-13.094,1.823c-0.886,0-1.605-0.166-2.155-0.497c-0.554-0.332-1.273-0.497-2.154-0.497
					c-2.652,0-5.47,0.388-8.453,1.16c-2.983,0.776-5.692,1.16-8.121,1.16c-0.445,0-1.771-0.166-3.979-0.497
					c-2.211-0.332-3.537-0.606-3.978-0.829h-0.663h-0.331c-0.446,0.223-1.161,0.497-2.155,0.829
					c-0.994,0.331-1.605,0.497-1.823,0.497c-0.223,0-0.663-0.218-1.326-0.663c-0.662-0.44-1.108-0.663-1.325-0.663
					c-1.108,0-1.989,1.108-2.652,3.314c-0.663,2.212-1.88,3.315-3.646,3.315l-0.663-0.663l-0.663-0.663
					c-0.223-0.218-0.497-0.383-0.828-0.497c-0.332-0.108-0.721-0.383-1.16-0.829c-0.663-0.217-1.218-0.549-1.658-0.994h-0.331
					l-0.663-0.331l-0.663,0.331c-0.445,0.886-0.663,1.823-0.663,2.817c0,0.995-0.554,1.715-1.657,2.155
					c-1.108-0.44-1.657-1.326-1.657-2.652c0-1.326,0.549-2.651,1.657-3.979c-0.445-0.218-1.108-0.497-1.989-0.829
					c-0.886-0.331-1.549-0.497-1.988-0.497l-1.326,0.663l-1.326,0.663c-0.223,0.223-0.445,0.331-0.663,0.331h-0.663l-0.994-0.331
					l-1.326-1.326c-2.435,0-4.755,0.497-6.961,1.492c-2.212,0.994-4.424,1.491-6.63,1.491c-1.108,0-1.771-0.274-1.989-0.829
					c-0.223-0.549-0.886-0.828-1.989-0.828h-0.331c-0.223,0.223-0.497,0.497-0.829,0.828c-0.331,0.332-0.497,0.611-0.497,0.829
					c-0.445-2.206-1.491-3.424-3.149-3.646c-1.657-0.218-3.148-0.331-4.475-0.331c-2.435,0-4.424,0.663-5.967,1.988
					c-1.549,1.326-2.543,3.206-2.983,5.636l0.663,1.326c0.217,0.445,0.44,0.776,0.663,0.994v2.983c0,1.989-0.611,3.264-1.823,3.812
					c-1.218,0.554-2.652,1.16-4.31,1.823c-1.658,0.663-3.264,1.714-4.807,3.148c-1.549,1.44-2.652,4.035-3.315,7.79l0.663,1.326
					c0.218,0.445,0.44,0.777,0.663,0.995c0,0.445-0.166,0.942-0.497,1.491c-0.331,0.555-0.611,0.942-0.829,1.16
					c0.44,0,1.104,0.166,1.989,0.497c0.881,0.332,1.435,0.611,1.657,0.829l0.332,0.663l-0.332,0.663
					c-0.223,0.223-0.663,0.445-1.325,0.663c-0.663,0.223-0.995,0.445-0.995,0.663v0.333L86.022-166.219L86.022-166.219z
					 M104.918-202.684c1.543,0,2.538,0.554,2.983,1.657h-1.326c-1.549,0-2.435-0.549-2.652-1.657H104.918z M107.901-169.202
					c-0.445,0-0.663-0.274-0.663-0.829c0-0.549,0.218-0.715,0.663-0.497C108.781-170.083,108.781-169.644,107.901-169.202z
					 M108.896-198.705h1.326v1.326L108.896-198.705z M117.846-197.379h0.994h0.332c0.44,0.223,0.938,0.445,1.491,0.663
					c0.55,0.223,0.938,0.445,1.16,0.663c-0.445,0.886-0.942,1.771-1.491,2.651c-0.555,0.886-1.383,1.326-2.486,1.326V-197.379z
					 M144.365-164.064c0,0.777-0.223,1.161-0.663,1.161c-0.663,0-0.994-0.384-0.994-1.161c0-0.771,0.331-1.16,0.994-1.16
					C144.143-165.226,144.365-164.836,144.365-164.064z M158.619-198.705c0,0.886-0.331,1.326-0.994,1.326
					c-0.445,0-0.663-0.44-0.663-1.326c0-0.88,0.218-1.326,0.663-1.326C158.288-200.031,158.619-199.585,158.619-198.705z
					 M158.951-191.081h2.651c0,1.989-0.886,2.983-2.651,2.983V-191.081z M163.923-198.705c0,0.886-0.445,1.326-1.325,1.326
					c-0.446,0-0.663-0.44-0.663-1.326c0-0.88,0.217-1.326,0.663-1.326C163.478-200.031,163.923-199.585,163.923-198.705z
					 M166.243-184.616c0,0.994-0.223,1.491-0.662,1.491c-0.663,0-0.995-0.497-0.995-1.491c0-0.995,0.332-1.492,0.995-1.492
					C166.021-186.108,166.243-185.611,166.243-184.616z M169.227-175.501l-1.325,1.326c-0.886-0.663-1.326-1.657-1.326-2.983
					C167.679-177.158,168.564-176.604,169.227-175.501z M169.227-171.854c-0.445,0.223-0.662,0.058-0.662-0.497
					c0-0.549,0.217-0.828,0.662-0.828C170.107-172.734,170.107-172.294,169.227-171.854z M170.553-198.705h2.652
					c0.218,0,0.497,0.663,0.828,1.989c0.332,1.326,0.498,2.435,0.498,3.314c0,1.108-0.389,1.938-1.16,2.486
					c-0.777,0.555-1.715,0.829-2.818,0.829V-198.705z M178.178-173.18c0.217,0.223,0.497,0.445,0.828,0.663
					c0.332,0.223,0.497,0.445,0.497,0.662v0.663v0.663c0,0.886-0.445,1.326-1.325,1.326V-173.18z M196.078-173.18h1.326v2.651
					h-1.326V-173.18z M208.675-173.015c0,0.777-0.332,1.16-0.995,1.16c-0.662,0-0.994-0.383-0.994-1.16
					c0-0.771,0.332-1.16,0.994-1.16C208.343-174.175,208.675-173.786,208.675-173.015z M217.956-191.081h0.663h0.663
					c0.218,0.224,0.44,0.663,0.663,1.326c0.218,0.663,0.331,1.108,0.331,1.326c0,0.445-0.279,0.777-0.828,0.994
					c-0.555,0.223-1.052,0.332-1.492,0.332V-191.081L217.956-191.081z M219.945-199.865c0,0.777-0.223,1.16-0.663,1.16
					c-0.663,0-0.994-0.383-0.994-1.16c0-0.771,0.331-1.16,0.994-1.16C219.723-201.025,219.945-200.637,219.945-199.865z
					 M220.276-193.401c-0.445,0-0.663-0.274-0.663-0.828c0-0.549,0.218-0.829,0.663-0.829
					C221.38-194.613,221.38-194.064,220.276-193.401z M231.05-175.667c0.109,0.554,0.166,1.051,0.166,1.491
					c0,1.108-0.331,2.269-0.994,3.48c-0.663,1.218-1.88,1.823-3.646,1.823c0-1.325,0.383-2.761,1.16-4.309
					c0.771-1.544,1.823-2.761,3.149-3.646C230.885-176.604,230.937-176.215,231.05-175.667z M237.846-180.805
					c0,0.663-0.223,1.108-0.663,1.326c-0.445,0.223-0.663-0.218-0.663-1.326c0-1.103,0.218-1.543,0.663-1.325
					C237.623-181.907,237.846-181.468,237.846-180.805z"/>
			</g>
		</g>
	</g>
</pattern>
<rect y="0" fill="#414042" width="209.758" height="297.639"/>
<rect x="-0.093" y="255.118" fill="#FFFFFF" width="209.764" height="42.521"/>
<g>
	<text transform="matrix(1 0 0 1 34.1606 27.8899)" fill="#FFFFFF" font-family="'TrebuchetMS'" font-size="11.4">Prikkelbaar Darm Syndroom</text>
	<g>
		<polygon fill="#EA118D" points="199.135,243.768 64.488,243.768 10.629,181.832 64.488,101.044 10.629,39.107 145.274,39.107 
			199.135,101.044 145.274,181.832 		"/>
		<polygon fill="none" points="191.055,239.729 67.181,239.729 16.015,181.832 69.874,101.044 18.708,42.962 142.582,42.962 
			193.748,101.044 139.89,181.832 		"/>
		<text transform="matrix(1 0 0 1 22.4043 47.1628)" fill="#FFFFFF" font-family="'TrebuchetMS'" font-size="5.7">Waar komt het vandaan?</text>
		<text transform="matrix(1 0 0 1 30.4395 56.2825)" fill="#FFFFFF" font-family="'TrebuchetMS'" font-size="3.8">Er is wetenschappelijk aangetoond dat bij mensen met PDS sprake is </text>
		<text transform="matrix(1 0 0 1 34.4556 60.843)" fill="#FFFFFF" font-family="'TrebuchetMS'" font-size="3.8">van centrale sensitisatie.</text>
		<text transform="matrix(1 0 0 1 38.4736 65.4031)" fill="#FFFFFF" font-family="'TrebuchetMS'" font-size="3.8">Prikkels van de darmen worden afwijkend verwerkt.</text>
		<text transform="matrix(1 0 0 1 42.4897 69.9626)" fill="#FFFFFF" font-family="'TrebuchetMS'" font-size="3.8">Bij Centrale Sensitisatie (zie boek Pijn &amp; het Brein) is de pijn gebleven </text>
		<text transform="matrix(1 0 0 1 46.5078 74.5227)" fill="#FFFFFF" font-family="'TrebuchetMS'" font-size="3.8">terwijl de normale hersteltijd van weefsels al (lang) achter je ligt.</text>
		<text transform="matrix(1 0 0 1 50.5239 79.0823)" fill="#FFFFFF" font-family="'TrebuchetMS'" font-size="3.8">Bij ongeveer n op de drie mensen met een verhoogd waakzaam </text>
		<text transform="matrix(1 0 0 1 54.541 83.6433)" fill="#FFFFFF" font-family="'TrebuchetMS'" font-size="3.8">systeem speelt er onderliggende traumatisering.</text>
		<text transform="matrix(1 0 0 1 58.5571 88.2029)" fill="#FFFFFF" font-family="'TrebuchetMS'" font-size="3.8">Hierbij treedt vaak vermijding op.</text>
		<text transform="matrix(1 0 0 1 62.5752 92.7629)" fill="#FFFFFF" font-family="'TrebuchetMS'" font-size="3.8">Langdurig veel stress kan voor veel problemen zorgen en zelfs </text>
		<text transform="matrix(1 0 0 1 66.5923 97.3225)" fill="#FFFFFF" font-family="'TrebuchetMS'" font-size="3.8">aandoeningen veroorzaken. </text>
		<text transform="matrix(1 0 0 1 69.3164 101.8826)" fill="#FFFFFF" font-family="'TrebuchetMS'" font-size="3.8">Wat PDS betreft heeft stress direct invloed op de spijsvertering en </text>
		<text transform="matrix(1 0 0 1 67.958 106.4431)" fill="#FFFFFF" font-family="'TrebuchetMS'" font-size="3.8">verklaart de extra klachten tijdens stress.</text>
		<text transform="matrix(1 0 0 1 61.1978 117.843)" fill="#FFFFFF" font-family="'TrebuchetMS'" font-size="5.7">Wat is eraan te doen?</text>
		<text transform="matrix(1 0 0 1 54.2773 126.9626)" fill="#FFFFFF" font-family="'TrebuchetMS'" font-size="3.8">Uit wetenschappelijk onderzoek sinds 1980 en in de praktijk blijkt dat </text>
		<text transform="matrix(1 0 0 1 51.2373 131.5227)" fill="#FFFFFF" font-family="'TrebuchetMS'" font-size="3.8">behandeling met hypnotherapie bij PDS helpt. </text>
		<text transform="matrix(1 0 0 1 48.1973 136.0823)" fill="#FFFFFF" font-family="'TrebuchetMS'" font-size="3.8">Het behandelprogramma &apos;Darmmanagement bij PDS&apos;, gebaseerd op het </text>
		<text transform="matrix(1 0 0 1 45.1582 140.6433)" fill="#FFFFFF" font-family="'TrebuchetMS'" font-size="3.8">hypnotherapeutisch IBS-protocol van professor Peter Whorwell, wordt </text>
		<text transform="matrix(1 0 0 1 42.1187 145.2029)" fill="#FFFFFF" font-family="'TrebuchetMS'" font-size="3.8">sinds 1996 met succes in Nederland toegepast. </text>
		<text transform="matrix(1 0 0 1 39.0786 149.7625)" fill="#FFFFFF" font-family="'TrebuchetMS'" font-size="3.8">De meeste mensen ervaren door de behandeling een sterke </text>
		<text transform="matrix(1 0 0 1 36.04 154.323)" fill="#FFFFFF" font-family="'TrebuchetMS'" font-size="3.8">vermindering van de klachten of ze verdwijnen helemaal.</text>
		<text transform="matrix(1 0 0 1 29.96 163.4431)" fill="#FFFFFF" font-family="'TrebuchetMS'" font-size="3.8">Tijdens het behandelprogramma PDS wordt gewerkt met:</text>
		<text transform="matrix(1 0 0 1 26.9189 168.0027)" fill="#FFFFFF" font-family="'TrebuchetMS'" font-size="3.8">- Visualisaties (zie het YouTube fimpje: Hypnose op recept in ca. 70 </text>
		<text transform="matrix(1 0 0 1 23.8784 172.5632)" fill="#FFFFFF" font-family="'TrebuchetMS'" font-size="3.8">Nederlandse ziekenhuizen). Deze visualisaties hebben positieve </text>
		<text transform="matrix(1 0 0 1 20.8384 177.1228)" fill="#FFFFFF" font-family="'TrebuchetMS'" font-size="3.8">effecten op de darmwerking.</text>
		<text transform="matrix(1 0 0 1 17.7988 181.6833)" fill="#FFFFFF" font-family="'TrebuchetMS'" font-size="3.8">- Ademhalings- en ontspanningsoefeningen, die zowel bijdragen aan </text>
		<text transform="matrix(1 0 0 1 19.9097 186.2429)" fill="#FFFFFF" font-family="'TrebuchetMS'" font-size="3.8">ontspanning in je buik als aan totale lichamelijke ontspanning.</text>
		<text transform="matrix(1 0 0 1 23.9399 190.8035)" fill="#FFFFFF" font-family="'TrebuchetMS'" font-size="3.8">- Pijnveranderingstechnieken.</text>
		<text transform="matrix(1 0 0 1 27.9688 195.363)" fill="#FFFFFF" font-family="'TrebuchetMS'" font-size="3.8">- Anders leren omgaan met stressvolle situaties, waardoor de dikke </text>
		<text transform="matrix(1 0 0 1 31.998 199.9226)" fill="#FFFFFF" font-family="'TrebuchetMS'" font-size="3.8">darm minder prikkels te verwerken krijgt en verkramping en pijn </text>
		<text transform="matrix(1 0 0 1 36.0293 204.4832)" fill="#FFFFFF" font-family="'TrebuchetMS'" font-size="3.8">kunnen afnemen.</text>
		<text transform="matrix(1 0 0 1 46.1035 215.8835)" fill="#FFFFFF" font-family="'TrebuchetMS'" font-size="5.7">Kortom:</text>
		<text transform="matrix(1 0 0 1 54.1626 225.0027)" fill="#FFFFFF" font-family="'TrebuchetMS'" font-size="3.8">1: Vermindering van lichamelijke klachten, pijnvermindering en </text>
		<text transform="matrix(1 0 0 1 58.1909 229.5632)" fill="#FFFFFF" font-family="'TrebuchetMS'" font-size="3.8">herstel van de stoelgang.</text>
		<text transform="matrix(1 0 0 1 62.2217 234.1228)" fill="#FFFFFF" font-family="'TrebuchetMS'" font-size="3.8">2: Regie over darmfunctie.</text>
		<text transform="matrix(1 0 0 1 66.2539 238.6833)" fill="#FFFFFF" font-family="'TrebuchetMS'" font-size="3.8">3: Vergroting van zelfvertrouwen en stressbestendigheid.</text>
	</g>
	<g>
		<g>
			<g>
				<path fill="#EA118D" d="M187.948,161.294c-0.204,0.842-0.231,1.536-0.767,2.203c-0.57,0.703-0.969,1.338-0.467,2.293
					c0.564,1.035,1.953,0.959,1.956,2.504c-0.007,0.887-0.919,1.453-1.005,2.324c1.461-0.818,2.115-3.351,1.16-4.858
					c-0.562-0.903-0.951-1.395-0.629-2.562c0.289-1.077,1.035-1.942,1.852-2.554c0.113-0.088,0.254-0.204,0.393-0.291l0.689-0.557
					C189.919,158.759,188.338,159.663,187.948,161.294z"/>
			</g>
			<g>
				<path fill="#EA118D" d="M189.127,158.564c-0.668,0.308-1.127,0.847-1.377,1.579c-0.189,0.646-0.19,1.332-0.435,1.942
					c-0.302,0.735-0.948,1.168-1.251,1.901c-0.399,1.07-0.178,2.301,0.469,3.146c0.415,0.522,0.864,0.89,1.025,1.586
					c0.16,0.727-0.139,1.366-0.222,2.049c0.114-0.041,0.225-0.094,0.331-0.15c0.086-0.871,0.998-1.438,1.005-2.324
					c-0.003-1.545-1.392-1.469-1.956-2.504c-0.502-0.955-0.103-1.59,0.467-2.293c0.533-0.667,0.562-1.361,0.768-2.203
					c0.389-1.631,1.97-2.535,3.182-1.496l0.723-0.585C190.84,158.002,189.572,158.339,189.127,158.564z"/>
			</g>
		</g>
		<g>
			<path d="M199.131,164.739c0.138-2.894-3.486-4.928-4.99-2.348c-0.82,1.408-1.094,3.132-1.847,4.617
				c-0.888,1.721-1.981,3.285-3.144,4.694c-2.052,2.583-4.649,5.165-7.588,6.338c-1.23,0.469-2.462,0.546-3.692,0.704
				c-0.819,0.077-3.35-0.235-3.829,0.703c-0.887,1.644,3.42,1.252,4.24,1.252c1.777,0,3.555-0.078,5.332-0.078
				c1.572,0,3.281,0.234,4.443-0.861c1.367-1.251,2.393-2.738,3.418-4.224c2.529-3.444,5.059-6.886,7.588-10.251"/>
		</g>
		<g>
			<path fill="#E5AB8D" d="M177.066,178.235c-1.949,0.471-4.102-1.055-5.537-2.346c-1.128-0.939-2.256-2.055-3.485-2.756
				c-1.13-0.648-2.052,0.584-3.077,1.288c-2.154,1.351-4.051,2.23-6.357,2.935c-0.564,0.178-1.23,0.234-1.744,0.586
				c-0.512,0.354-0.666,0.94-1.178,1.057c-0.615,0.176-2.572-0.443-3.188-0.678c-1.744-0.586,1.239-0.671,1.907-0.73
				c0.872-0.059,1.845-0.235,2.666-0.703c2.356-1.233,4.46-2.877,6.614-4.52c1.025-0.764,2.049-1.76,3.178-2.348
				c1.078-0.588,2.052-0.118,3.128,0.352c2.513,1.057,5.076,1.938,7.589,2.873c0.256,0.12,0.666,0.822,0.922,0.883"/>
		</g>
		<g>
			<path fill="#EA118D" d="M174.754,176.172c-0.379,0.389-1.312,0.583-1.312,1.115c0,0.835,2.454,1.502,3.64,1.016
				c-0.254-0.336-1.312-0.581-1.565-0.968"/>
		</g>
		<g>
			<path fill="#E5AB8D" d="M188.346,168.438c-0.717,0.232-1.297,0.722-2.067,0.722c-0.974,0-2.308-0.722-2.87,0.392
				c-0.566,1.057-0.291,1.879-0.957,2.994c-0.668,1.113-1.847,2.053-3.077,1.76c-1.128-0.236-2.103-1.584-2.974-2.406
				c-0.871-0.881-1.795-1.761-2.717-2.522c-0.924-0.821-1.898-1.408-2.82-2.171c-1.436-1.115-2.205,0.117-3.23,1.523
				c-1.795,2.467-3.025,4.459-4.818,6.868c-0.719,0.996-1.539,1.995-2.617,2.347c-0.306,0.118-1.652,0.312-2.625,0.652
				c-0.043,0.049-0.34,0.375-0.34,0.435c1.283,0.352,2.795-0.241,3.682,0.099c1.27,0.484,1.049-0.684,2.311-1.947
				c2.262-2.268,3.896-3.934,5.486-6.279c0.359-0.527,0.614-1.289,1.23-0.998c0.41,0.235,0.974,1.585,1.23,2.055
				c0.717,1.349,1.598,2.821,2.469,4.053c1.59,2.23,3.324,2.461,5.785,2.285c2.359-0.177,3.795-1.057,5.438-3.11
				c0.818-0.998,1.689-2.052,2.512-3.11c0.614-0.879,1.795-1.996,2.154-2.992c0.102-0.176,0.152-0.353,0.152-0.588"/>
		</g>
		<g>
			<path fill="#E5AB8D" d="M189.57,159.649c-1.387-0.122-1.236,3.165-2.705,2.101c-0.193,0.691,0.535,0.872-0.109,1.635
				c0.029,0.282,0.267,0.481,0.508,0.589c-0.168,0.084-0.572-0.031-0.66,0.15c-0.138,0.321,0.312,0.392,0.336,0.723
				c0.088,0.848-0.7,1.131,0.43,1.521c0.523,0.17,1.302,0.164,1.688,0.746c0.304,0.533-0.406,0.916-1,1.398
				c0.285,0.017,0.961,0.521,1.245,0.537c0.089-1.121,0.681-1.604,1.526-2.26c0.761-0.567,1.363-1.283,1.689-2.249
				c0.693-1.93,0.215-4.157-1.684-4.775c-0.404-0.116-0.895-0.142-1.262-0.161"/>
		</g>
		<g>
			<g>
				<path fill="#DB967D" d="M190.453,164.111c0.036-0.262,0.125-0.489,0.305-0.688c0.403-0.449,0.693,0.163,0.691,0.534
					c0,0.248-0.133,0.49-0.264,0.692c-0.15,0.234-0.666,0.697-0.717,0.105c-0.006-0.059-0.096-0.061-0.092,0
					c0.024,0.285,0.146,0.498,0.451,0.367c0.363-0.156,0.663-0.697,0.703-1.074c0.034-0.334-0.066-0.871-0.486-0.877
					c-0.416-0.005-0.637,0.598-0.68,0.916C190.357,164.143,190.445,164.168,190.453,164.111L190.453,164.111z"/>
			</g>
		</g>
		<g>
			<g>
				<path fill="#DB967D" d="M190.812,164.104c0.211,0.072,0.2,0.158-0.029,0.258c-0.052,0.026-0.006,0.104,0.047,0.077
					c0.342-0.18,0.312-0.747-0.082-0.4C190.703,164.077,190.769,164.141,190.812,164.104L190.812,164.104z"/>
			</g>
		</g>
		<rect x="150.66" y="179.057" width="38.285" height="3.521"/>
		<g>
			<path fill="#EA118D" d="M188.771,159.87c-0.434,0.603,0.111,1.914,0.44,2.523c-0.216-0.698,0.067-1.59,0.603-1.997
				c0.232,0.981,1.51,1.737,0.889,2.89c0.518-0.628,0.94,0.364,0.811,0.887c-0.222,0.739-0.756,1.115-1.16,1.654
				c-0.262,0.391-0.43,1.133-0.587,1.623c-0.159,0.553-0.401,1.102-0.479,1.66c-0.154,1.117,0.315,2.264,0.963,3.112
				c0.067-0.964,0.15-1.646,0.567-2.499c0.447-0.882,0.891-1.7,1.52-2.414c1.233-1.432,2.426-3.209,2.159-5.348
				c-0.183-1.479-1.345-3.069-2.644-3.359c-1.325-0.258-2.521-0.357-3.106,1.236"/>
		</g>
		<g>
			<path fill="#EA118D" d="M194.207,162.976c1.041,1.899-1.154,3.466-2.049,4.667c-0.434,0.601-0.068,0.995,0.068,1.628
				c0.182,0.851-0.168,1.396-0.76,1.864c-0.958,0.727-1.453,1.512-0.988,2.755c-0.57-0.063-1.18-1.126-1.346-1.696
				c-0.217-0.732-0.721-1.52-1.019-2.223c-0.696-1.629,0.788-2.756,2.056-3.717c0.141-0.086,0.252-0.175,0.393-0.26"/>
		</g>
		<g>
			<path fill="#2B95B1" d="M188.41,162.016c-0.076,0.127-0.178,0.195-0.229,0.156c-0.051-0.041-0.03-0.178,0.045-0.304
				c0.074-0.126,0.178-0.194,0.229-0.155C188.507,161.754,188.486,161.889,188.41,162.016z"/>
			<path fill="#FFFFFF" d="M188.369,161.849c-0.021,0.038-0.053,0.06-0.068,0.046c-0.017-0.012-0.01-0.052,0.014-0.09
				c0.021-0.037,0.053-0.057,0.068-0.045C188.397,161.772,188.392,161.813,188.369,161.849z"/>
		</g>
		<g>
			<g>
				<path fill="#B84826" d="M188.439,161.259c0.357-0.035,0.482,0.1,0.377,0.402c-0.013,0.057,0.074,0.08,0.088,0.023
					c0.085-0.381-0.101-0.736-0.512-0.504C188.342,161.208,188.389,161.286,188.439,161.259L188.439,161.259z"/>
			</g>
		</g>
		<g>
			<g>
				<g>
					<path fill="#64461B" d="M188.324,161.719c-0.001-0.064,0.002-0.129,0.008-0.193c0-0.016-0.021-0.016-0.021,0
						c-0.008,0.064-0.01,0.129-0.008,0.193C188.301,161.735,188.324,161.735,188.324,161.719L188.324,161.719z"/>
				</g>
			</g>
			<g>
				<g>
					<path fill="#64461B" d="M188.379,161.702c0.008-0.06,0.019-0.119,0.033-0.178c0.004-0.015-0.019-0.02-0.021-0.006
						c-0.016,0.059-0.027,0.117-0.034,0.178C188.354,161.71,188.377,161.717,188.379,161.702L188.379,161.702z"/>
				</g>
			</g>
			<g>
				<g>
					<path fill="#64461B" d="M188.414,161.688c0.025-0.057,0.054-0.113,0.082-0.172c0.006-0.012-0.014-0.023-0.021-0.01
						c-0.062,0.109-0.038,0.057-0.083,0.176C188.387,161.697,188.408,161.702,188.414,161.688L188.414,161.688z"/>
				</g>
			</g>
			<g>
				<g>
					<path fill="#64461B" d="M188.461,161.71c0.024-0.035,0.051-0.07,0.078-0.105c0.009-0.012-0.012-0.022-0.02-0.012
						c-0.025,0.035-0.053,0.07-0.08,0.105C188.432,161.71,188.451,161.721,188.461,161.71L188.461,161.71z"/>
				</g>
			</g>
			<g>
				<g>
					<path fill="#64461B" d="M188.483,161.759c0.048-0.033,0.096-0.064,0.144-0.098c0.014-0.008,0.002-0.027-0.011-0.021
						c-0.103,0.057-0.06,0.026-0.149,0.103C188.455,161.753,188.473,161.768,188.483,161.759L188.483,161.759z"/>
				</g>
			</g>
			<g>
				<g>
					<path fill="#64461B" d="M188.484,161.833c0.051-0.023,0.101-0.047,0.15-0.068c0.016-0.006,0.008-0.026-0.006-0.021
						c-0.105,0.033-0.059,0.014-0.155,0.07C188.461,161.821,188.473,161.841,188.484,161.833L188.484,161.833z"/>
				</g>
			</g>
			<g>
				<g>
					<path fill="#64461B" d="M188.492,161.913c0.055-0.02,0.106-0.037,0.159-0.055c0.015-0.006,0.009-0.027-0.005-0.023
						c-0.055,0.02-0.106,0.037-0.16,0.057C188.473,161.895,188.479,161.917,188.492,161.913L188.492,161.913z"/>
				</g>
			</g>
			<g>
				<g>
					<path fill="#64461B" d="M188.275,161.759c0.059,0.069,0.115,0.14,0.174,0.209c-0.004,0.014,0.018,0.02,0.021,0.006
						c0.053-0.18-0.016-0.342-0.207-0.234C188.252,161.747,188.262,161.766,188.275,161.759L188.275,161.759z"/>
				</g>
			</g>
		</g>
		<path fill="#EA118D" d="M188.971,163.563c-0.145,0.228-0.477,0.232-0.74,0.01c-0.264-0.222-0.359-0.584-0.213-0.811
			c0.145-0.228,0.477-0.232,0.74-0.011C189.022,162.973,189.118,163.337,188.971,163.563z"/>
		<g>
			<path fill="#EA118D" d="M188.34,168.615c-0.423,0.534-1.27,1.552-1.904,1.502c-0.974-0.048-1.143-1.55-2.201-1.356
				c-1.1,0.145-1.186,1.26-1.312,2.229c-0.126,1.016-0.549,1.744-1.27,2.422c-0.549,0.486-1.227,0.824-1.903,0.873
				c-0.763,0.049-1.271-0.582-1.991-0.387c-0.847,0.24-1.481,1.162-2.156,1.694c-0.721,0.484-1.229,0.338-1.99,0.484
				c0.128,0.872,1.27,1.792,1.946,2.084c0.847,0.337,1.565,0.192,2.414-0.099c1.692-0.629,3.384,0,4.993-1.064
				c1.312-0.922,2.497-2.908,3.386-4.312c0.847-1.356,1.565-2.567,2.709-3.633c-0.128-0.097-0.339-0.533-0.72-0.533"/>
		</g>
		<g>
			<path fill="#FDD8C0" d="M174.529,178.453c-0.516,0.126-0.994,0.315-1.416,0.694l0,0c0.57,0.105,1.012-0.295,1.564-0.422"/>
			<g>
				<path fill="#DB967D" d="M174.519,178.409c-0.536,0.139-1.011,0.346-1.438,0.707c-0.033,0.027-0.002,0.074,0.033,0.078
					c0.578,0.066,1.039-0.279,1.576-0.425c0.057-0.015,0.033-0.103-0.023-0.087c-0.398,0.106-0.756,0.322-1.158,0.417
					c-0.6,0.144,0.111-0.257,0.238-0.325c0.248-0.131,0.525-0.208,0.797-0.279C174.6,178.483,174.575,178.394,174.519,178.409
					L174.519,178.409z"/>
			</g>
		</g>
		<g>
			<path fill="#FDD8C0" d="M174.072,178.455c-0.517,0.126-0.994,0.316-1.418,0.696l0,0c0.57,0.104,1.013-0.295,1.564-0.421"/>
			<g>
				<path fill="#DB967D" d="M174.061,178.411c-0.539,0.139-1.012,0.348-1.44,0.707c-0.033,0.027-0.001,0.073,0.034,0.078
					c0.578,0.066,1.037-0.275,1.576-0.422c0.057-0.016,0.031-0.104-0.023-0.088c-0.437,0.118-0.826,0.373-1.279,0.434
					c-0.35,0.047,0.271-0.297,0.359-0.342c0.248-0.133,0.524-0.209,0.797-0.279C174.141,178.485,174.117,178.397,174.061,178.411
					L174.061,178.411z"/>
			</g>
		</g>
		<g>
			<path fill="#FDD8C0" d="M173.667,178.477c-0.571-0.086-1.05,0.42-1.564,0.589c0.552,0.315,1.214-0.421,1.785-0.399"/>
			<g>
				<path fill="#DB967D" d="M173.667,178.43c-0.603-0.043-1.043,0.391-1.577,0.592c-0.033,0.014-0.051,0.065-0.012,0.083
					c0.643,0.291,1.181-0.368,1.81-0.394c0.058-0.003,0.058-0.093,0-0.091c-0.456,0.02-0.831,0.31-1.255,0.444
					c0.242-0.078-0.663,0.121-0.391-0.005c0.121-0.055,0.236-0.114,0.352-0.179c0.344-0.193,0.661-0.389,1.073-0.359
					C173.727,178.525,173.725,178.435,173.667,178.43L173.667,178.43z"/>
			</g>
		</g>
		<g>
			<path fill="#E5AB8D" d="M188.535,169.122c-0.548,0-2.735,3.09-3.384,4.107c-0.615,0.938-1.437,1.956-1.916,2.974
				c-0.41,0.82-0.854,0.899-1.64,0.978c-1.812,0.195-3.589,0.352-5.367,0.978c-0.785,0.312-1.162,0.352-1.947,0.116
				c-0.686-0.195-1.23,0.078-1.915,0.235c-0.272,0.04-0.581,0.077-0.854,0.04c0,0.037,0,0.037-0.035,0.037l0,0
				c0.411,0.666,1.367-0.037,1.915,0.041c0.377,0.037,0.58,0.43,0.924,0.508c0.307,0.038,0.649-0.156,0.957-0.195
				c1.605-0.118,3.247,0.039,4.888-0.039c1.71-0.079,3.044,0.137,4.342-1.369C189.184,172.094,190.175,169.433,188.535,169.122"/>
		</g>
		<g>
			<path fill="#EA118D" d="M189.387,159.208c-0.318,0.371-0.507,0.823-0.36,1.372c0.223-0.491,0.505-0.784,0.983-0.913l0,0
				c0.152,1.168,1.554,1.633,1.062,2.842c0.039-0.113,0.143-0.186,0.215-0.259c1.137,1.106,0.18,2.988-0.6,3.872
				c-0.459,0.479-1.15,0.826-1.445,1.469c-0.332,0.639-0.088,1.271,0.053,1.936c0.045-0.229,0.088-0.459,0.229-0.606
				c0.173,0.743-0.191,1.343-0.187,2.078c0.005,0.696,0.28,1.367,0.56,1.962l0,0c0.025-0.654-0.015-1.275,0.25-1.92
				c0.229-0.645,0.753-1.08,0.953-1.764c0.047,0.428,0.027,0.891-0.123,1.268c0.82-0.225,0.705-1.508,0.77-2.237
				c0.08-1.118,0.568-1.478,1.207-2.216c1.064-1.218,1.402-2.824,1.065-4.503C193.66,159.635,190.914,157.397,189.387,159.208"/>
		</g>
	</g>
	<g>
		<circle fill="#EA118D" cx="29.48" cy="103.106" r="18.85"/>
		<path fill="#E5AB8D" d="M29.566,85.092c-9.84,0-17.846,8.055-17.846,17.953c0,9.901,8.006,17.955,17.846,17.955
			c9.84,0,17.847-8.055,17.847-17.955C47.413,93.146,39.406,85.092,29.566,85.092z M31.994,120.855
			c3.767-1.109,6.515-4.576,6.515-8.687c0-4.804-3.754-8.731-8.504-9.039c-0.199-0.013-1-0.013-1.199,0
			c-4.747-0.307-8.503-4.236-8.503-9.041c0-4.957,3.998-8.979,8.958-9.058c-2.501,0.003-4.883,0.508-7.051,1.421
			c2.172-0.921,4.562-1.43,7.066-1.43c9.982,0,18.102,8.082,18.102,18.016C47.376,112.057,40.689,119.547,31.994,120.855z"/>
		<g>
			<path fill="#E5AB8D" d="M30.625,95.593c0,0-1.655-5.092,3.021-6.836C33.646,88.756,35.715,92.997,30.625,95.593z"/>
			<path fill="#E5AB8D" d="M30.61,95.585c0,0-5.091,1.656-6.835-3.02C23.774,92.565,28.016,90.496,30.61,95.585z"/>
			<path fill="#E5AB8D" d="M30.606,95.595c0,0-3.841,1.248-5.156-2.277C25.45,93.317,28.648,91.756,30.606,95.595z"/>
			<path fill="#E5AB8D" d="M30.62,95.592c0,0-4.771-2.43-2.699-6.968C27.921,88.623,32.383,90.158,30.62,95.592z"/>
			<path fill="#E5AB8D" d="M30.61,95.595c0,0-3.599-1.832-2.036-5.255C28.574,90.339,31.94,91.496,30.61,95.595z"/>
			<path fill="#E5AB8D" d="M30.648,95.637c0,0,1.841-5.001,6.57-3.486C37.218,92.151,36.224,96.742,30.648,95.637z"/>
			<path fill="#E5AB8D" d="M30.643,95.626c0,0,1.389-3.771,4.957-2.627C35.6,92.998,34.85,96.462,30.643,95.626z"/>
		</g>
		<g>
			<path fill="#EA118D" d="M28.157,111.299c0,0-1.655,5.09,3.021,6.834C31.177,118.134,33.246,113.893,28.157,111.299z"/>
			<path fill="#EA118D" d="M28.141,111.305c0,0-5.09-1.655-6.834,3.02C21.307,114.324,25.547,116.394,28.141,111.305z"/>
			<path fill="#EA118D" d="M28.137,111.296c0,0-3.841-1.248-5.157,2.276C22.98,113.573,26.18,115.134,28.137,111.296z"/>
			<path fill="#EA118D" d="M28.151,111.299c0,0-4.771,2.43-2.699,6.968C25.453,118.267,29.915,116.733,28.151,111.299z"/>
			<path fill="#EA118D" d="M28.141,111.295c0,0-3.598,1.833-2.035,5.256C26.106,116.552,29.472,115.393,28.141,111.295z"/>
			<path fill="#EA118D" d="M28.179,111.253c0,0,1.841,5.001,6.57,3.486C34.749,114.739,33.756,110.149,28.179,111.253z"/>
			<path fill="#EA118D" d="M28.174,111.264c0,0,1.389,3.771,4.956,2.628C33.13,113.892,32.381,110.429,28.174,111.264z"/>
		</g>
	</g>
</g>
<g>
	<g>
		<g>
			<text transform="matrix(1 0 0 1 65.2471 264.532)" fill="#414042" font-family="'TrebuchetMS-Italic'" font-size="3.8">Voor clinten met een PDS diagnose, gesteld door huisarts of specialist.</text>
			<text transform="matrix(1 0 0 1 91.3374 269.0916)" fill="#414042" font-family="'TrebuchetMS-Italic'" font-size="3.8">Deze mag niet ouder dan 3 maanden zijn.</text>
			<text transform="matrix(1 0 0 1 85.6216 274.3484)" fill="#414042" font-family="'TrebuchetMS'" font-size="3.8">Me Therapy wordt gerund door Marille Janssen,</text>
			<text transform="matrix(1 0 0 1 71.8423 278.908)" fill="#414042" font-family="'TrebuchetMS'" font-size="3.8">o.a. psychosociaal en hypnotherapeut, aangesloten bij de NBVH.</text>
			<text transform="matrix(1 0 0 1 81.9102 283.4685)" fill="#414042" font-family="'TrebuchetMS'" font-size="3.8">Gespecialiseerd in PDS, SOLK, TVM en autismecoach.</text>
		</g>
	</g>
	<g>
		<g>
			<path fill="#424143" d="M27.014,279.163c-0.647,1.166-0.67,2.665-0.67,2.665s-0.895-1.774-0.027-3.637
				c0.961-2.063,2.486-4.193,5.317-6.696c0.087-0.08,0.579-0.428,0.203-0.771c-0.206-0.191-0.576-0.426-0.861-0.716
				c-0.125-0.128-0.879-0.686,0.165-1.746c2.389-2.425,1.99-4.208,1.648-5.346c-0.053-0.171,1.815,0.872,1.115-0.979
				c-0.907-2.406-1.542,0.043-1.702-0.15c-0.88-1.066-3.283-1.191-4.338-0.6c-0.581,0.327-1.033,0.832-1.36,1.419
				c-0.051,0.089,0.143,0.528,0.118,0.626c-0.053,0.199-0.458,0.117-0.5,0.221c-0.12,0.302-0.619,0.381-0.683,0.691
				c-0.066,0.337,0.411,0.643,0.411,0.965c0,0.658,0.53,0.941,0.874,0.97c0.186,0.018,0.707-0.21,0.694-0.179
				c-0.142,0.375-1.302,0.233-1.302,0.233c-0.089,1.022,1.549,1.981,1.604,2.218c0.263,1.135-0.22,2.027-0.693,2.458
				c-0.521,0.476-1.88,1.099-2.585,1.124c-0.783,0.026-2.371-0.57-2.923-1.124c-0.412-0.413-0.945-1.79-0.873-2.156
				c0.178-0.891,1.426-0.161,1.659-1.532c0.051-0.307,0.57-0.391,0.587-0.723c0.01-0.157-1.069-0.238-1.175-0.418
				c-0.092-0.15,1.148-0.383,1.015-0.837c-0.067-0.229-0.785-0.071-0.802-0.411c-0.004-0.084,0.677-0.177,0.712-0.395
				c0.071-0.424-0.86-0.599-0.86-1.013c0-0.223,0.466-0.261,0.446-0.554c-0.022-0.328-0.396-1.137-1.336-1.66
				c-1.761-0.976-3.51-0.523-4.439,0.32c-0.198,0.18-0.512-0.818-1.522-0.586c-0.327,0.074,1.088,0.512,0.604,1.695
				c-0.912,2.229-0.253,4.475,2.118,5.898c0.426,0.257,0.084,1.088-0.188,1.406c-0.341,0.402-1.145,0.324-0.825,1.125
				c0.7,1.748,4.489,4.613,5.963,7.182c5.549,9.658-6.348,11.721-6.348,11.721s5.944-2.419,5.94-7.033
				c-0.002-3.676-6.167-7.226-8.455-12.029c-1.309-2.747-1.942-6.002-0.704-8.854c0.161-0.372,0.355-0.656,0.355-0.656
				c-0.687-4.33-2.52-3.375-2.337-3.447c2.473-0.978,3.146,1.761,4.533,1.086c5.891-2.875,8.688,2.17,8.688,2.17
				s5.14-5.907,9.785-1.002c2.506,2.646,3.629,6.097,0.746,10.704c-0.798,1.274-3.141,2.961-4.017,3.813
				C27.901,277.438,27.258,278.724,27.014,279.163z"/>
			<pattern  id="SVGID_2_" xlink:href="#SVGID_1_" patternTransform="matrix(0.0535 0 0 0.0535 -15130.4902 189.7246)">
			</pattern>
			<path fill="url(#SVGID_2_)" d="M26.21,279.243c-0.648,1.166-0.67,2.664-0.67,2.664s-0.894-1.772-0.027-3.635
				c0.96-2.064,2.485-4.193,5.318-6.697c0.089-0.079,0.58-0.428,0.203-0.771c-0.206-0.191-0.576-0.425-0.862-0.717
				c-0.124-0.127-0.877-0.686,0.167-1.745c2.388-2.423,1.989-4.21,1.646-5.344c-0.052-0.172,1.816,0.871,1.114-0.981
				c-0.908-2.406-1.542,0.043-1.703-0.15c-0.88-1.066-3.282-1.191-4.337-0.599c-0.58,0.325-1.033,0.832-1.361,1.419
				c-0.051,0.088,0.143,0.527,0.118,0.625c-0.054,0.201-0.458,0.115-0.5,0.221c-0.12,0.302-0.618,0.381-0.68,0.693
				c-0.068,0.336,0.408,0.641,0.408,0.963c0,0.658,0.53,0.941,0.874,0.971c0.187,0.016,0.708-0.211,0.695-0.179
				c-0.144,0.376-1.301,0.231-1.301,0.231c-0.088,1.025,1.549,1.982,1.604,2.22c0.263,1.136-0.222,2.026-0.692,2.458
				c-0.52,0.476-1.881,1.1-2.587,1.124c-0.782,0.026-2.37-0.569-2.923-1.124c-0.41-0.412-0.945-1.79-0.872-2.157
				c0.178-0.89,1.425-0.159,1.658-1.53c0.051-0.307,0.568-0.391,0.588-0.723c0.008-0.156-1.069-0.241-1.178-0.418
				c-0.091-0.152,1.149-0.385,1.016-0.838c-0.068-0.23-0.784-0.07-0.801-0.411c-0.004-0.083,0.677-0.179,0.713-0.394
				c0.07-0.425-0.86-0.6-0.86-1.012c0-0.224,0.467-0.265,0.446-0.555c-0.023-0.328-0.398-1.139-1.337-1.66
				c-1.759-0.977-3.51-0.523-4.438,0.319c-0.199,0.18-0.512-0.817-1.522-0.587c-0.325,0.076,1.087,0.513,0.603,1.697
				c-0.912,2.227-0.253,4.473,2.118,5.899c0.426,0.257,0.082,1.087-0.19,1.405c-0.34,0.4-1.145,0.321-0.823,1.124
				c0.698,1.747,4.489,4.614,5.963,7.185c5.547,9.655-6.347,11.719-6.347,11.719s5.942-2.42,5.94-7.035
				c-0.001-3.676-6.169-7.227-8.456-12.027c-1.308-2.748-1.941-6.003-0.704-8.854c0.161-0.371,0.355-0.658,0.355-0.658
				c-0.687-4.33-2.521-3.372-2.337-3.445c2.472-0.979,3.146,1.762,4.533,1.085c5.891-2.874,8.687,2.171,8.687,2.171
				s5.139-5.908,9.787-1.002c2.507,2.644,3.629,6.096,0.745,10.703c-0.798,1.275-3.142,2.962-4.018,3.814
				C27.1,277.518,26.453,278.804,26.21,279.243z"/>
		</g>
		<text transform="matrix(1 0 0 1 35.062 278.1482)" fill="#EA118D" font-family="'TrebuchetMS'" font-size="3.8">06-22034603</text>
		<text transform="matrix(1 0 0 1 29.4883 282.7087)" fill="#EA118D" font-family="'TrebuchetMS'" font-size="3.8">info@metherapy.nl</text>
		<text transform="matrix(1 0 0 1 29.3149 287.2683)" fill="#EA118D" font-family="'TrebuchetMS'" font-size="3.8">www.metherapy.nl</text>
	</g>
</g>
</svg>
