<?xml version="1.0" encoding="utf-8"?>
<!-- Generator: Adobe Illustrator 16.0.0, SVG Export Plug-In . SVG Version: 6.00 Build 0)  -->
<!DOCTYPE svg PUBLIC "-//W3C//DTD SVG 1.1//EN" "http://www.w3.org/Graphics/SVG/1.1/DTD/svg11.dtd">
<svg version="1.1" id="Layer_1" xmlns="http://www.w3.org/2000/svg" xmlns:xlink="http://www.w3.org/1999/xlink" x="0px" y="0px"
	 width="419.701px" height="595.277px" viewBox="-105.018 -148.819 419.701 595.277"
	 enable-background="new -105.018 -148.819 419.701 595.277" xml:space="preserve">
<pattern  x="105.351" y="446.139" width="169.393" height="155.989" patternUnits="userSpaceOnUse" id="SVGID_1_" viewBox="84.696 -181.989 169.393 155.989" overflow="visible">
	<g>
		<polygon fill="none" points="84.696,-26 254.089,-26 254.089,-181.989 84.696,-181.989 		"/>
		<g>
			<polygon fill="none" points="84.696,-181.989 254.089,-181.989 254.089,-26 84.696,-26 			"/>
			<g>
				<polygon fill="none" points="84.696,-26.002 254.089,-26.002 254.089,-181.989 84.696,-181.989 				"/>
				<g>
					<polygon fill="none" points="84.696,-181.989 254.089,-181.989 254.089,-26.002 84.696,-26.002 					"/>
					<g>
						<polygon fill="none" points="84.696,-181.989 254.089,-181.989 254.089,-26.002 84.696,-26.002 						"/>
						<path fill="#EA118D" d="M86.022-10.23v0.994c0.44,1.326,1.16,3.148,2.155,5.471c0.994,2.319,1.6,3.479,1.823,3.479h1.657
							c0-1.104,0.383-2.265,1.16-3.479c0.771-1.213,1.709-1.822,2.817-1.822h0.332c0.217,0.223,0.715,0.662,1.491,1.326
							c0.771,0.66,1.27,1.106,1.492,1.323h0.331h0.663c0.44-0.217,0.938-0.663,1.491-1.323c0.55-0.664,0.938-1.104,1.161-1.326
							c0.439,0.886,1.6,1.822,3.48,2.815c1.875,0.994,3.258,1.384,4.144,1.16c0.44-0.218,1.932-0.828,4.475-1.823
							c2.538-0.992,4.03-1.709,4.476-2.152l5.304,5.304c0.663,0.663,1.435,0.166,2.32-1.492c0.881-1.657,1.544-2.485,1.989-2.485
							h0.663c1.988,1.108,3.48,2.047,4.475,2.817c0.995,0.776,2.704,1.16,5.139,1.16h0.663c0.217-0.218,0.828-0.716,1.823-1.492
							c0.994-0.771,1.709-1.16,2.154-1.16c0.44,0,0.938,0.332,1.492,0.995c0.549,0.663,0.828,1.217,0.828,1.657
							c2.652-1.544,3.979-3.315,3.979-5.304c0-1.326-0.446-2.207-1.326-2.652c-0.886-0.438-1.326-1.436-1.326-2.982v-0.994
							c0-0.219,0.108-0.549,0.331-0.994c0.44,1.107,1.27,1.988,2.486,2.65c1.212,0.663,2.372,1.108,3.48,1.326
							c-0.445,0.445-0.828,1.439-1.16,2.982c-0.331,1.55-0.279,2.65,0.166,3.313c0.218,0.446,0.994,0.995,2.32,1.658
							c1.326,0.663,2.207,0.994,2.652,0.994c1.326-1.104,2.098-2.206,2.32-3.315c0.218-1.103,1.104-1.766,2.652-1.986
							c0.439,0.662,0.938,1.49,1.491,2.484c0.549,0.994,1.16,1.491,1.823,1.491h0.663c0.218-0.218,0.497-0.438,0.829-0.663
							c0.331-0.217,0.497-0.439,0.497-0.663c0.88-0.88,1.325-1.766,1.325-2.649l-3.646-6.299c-0.224-0.219-0.166-0.498,0.165-0.828
							c0.332-0.332,0.606-0.498,0.829-0.498h1.326v0.332c1.988,0,3.589,0.389,4.807,1.16c1.212,0.775,2.429,1.655,3.646,2.65
							c1.212,0.994,2.372,1.88,3.48,2.65c1.104,0.776,2.538,1.16,4.31,1.16c0.217,0,0.663-0.498,1.325-1.492
							c0.663-0.993,1.326-2.098,1.989-3.313c0.663-1.212,1.212-2.372,1.657-3.479c0.44-1.104,0.663-1.875,0.663-2.319h0.663h0.663
							c0.218,0.224,0.331,0.663,0.331,1.326v9.28c0.44,0,0.772-0.107,0.995-0.33c2.429-1.769,4.361-3.48,5.801-5.141
							c1.435-1.656,3.921-2.484,7.459-2.484c0.44,0,1.212,0.332,2.32,0.994c1.104,0.664,1.875,1.217,2.32,1.656
							c0-0.881,0.383-1.767,1.16-2.65c0.771-0.881,1.709-1.325,2.817-1.325c0,0.223,0.109,0.444,0.332,0.663l0.663,0.662
							c0.217,0.444,0.44,1.492,0.663,3.147c0.217,1.657,0.439,2.709,0.662,3.149c0.218,0,0.663,0.057,1.326,0.164
							c0.663,0.113,1.104,0.166,1.326,0.166c1.989,0,3.755-0.496,5.304-1.49c1.544-0.994,3.315-1.492,5.304-1.492
							c0.881,0,1.544,0.225,1.989,0.663c0.44,0.444,0.549,1.549,0.332,3.313c0.662-1.767,1.377-2.869,2.154-3.313
							c0.771-0.438,1.823-0.663,3.149-0.663c1.325,0,2.206,0.28,2.651,0.829c0.44,0.555,1.212,0.829,2.32,0.829
							c0.881,0,1.989-0.829,3.315-2.486c1.326-1.656,2.595-3.531,3.812-5.636c1.213-2.099,2.264-4.195,3.149-6.298
							c0.881-2.1,1.326-3.592,1.326-4.477c0-0.219-0.057-0.716-0.166-1.492c-0.113-0.771-0.165-1.377-0.165-1.821
							c-1.771-0.22-2.983-1.048-3.646-2.486c-0.663-1.435-1.549-2.595-2.652-3.479l-2.651,7.625
							c-3.315-2.43-5.915-6.021-7.79-10.773c-1.881-4.75-2.818-9.002-2.818-12.763c-2.212,0-3.48,0.829-3.812,2.485
							s-0.721,3.479-1.161,5.471h-0.331c-0.663,0-1.217-0.385-1.657-1.16c-0.445-0.771-0.886-1.657-1.326-2.652
							c-0.445-0.994-0.942-1.875-1.492-2.65c-0.554-0.771-1.383-1.159-2.485-1.159c-4.424,0-8.898,0.608-13.426,1.821
							c-4.532,1.217-8.898,1.823-13.094,1.823c-0.886,0-1.605-0.166-2.155-0.497c-0.554-0.332-1.273-0.498-2.154-0.498
							c-2.652,0-5.47,0.39-8.453,1.16c-2.983,0.777-5.692,1.16-8.121,1.16c-0.445,0-1.771-0.165-3.979-0.497
							c-2.211-0.331-3.537-0.604-3.978-0.828h-0.663h-0.331c-0.446,0.224-1.161,0.497-2.155,0.828
							c-0.994,0.332-1.605,0.497-1.823,0.497c-0.223,0-0.663-0.217-1.326-0.663c-0.662-0.438-1.108-0.662-1.325-0.662
							c-1.108,0-1.989,1.108-2.652,3.314c-0.663,2.212-1.88,3.313-3.646,3.313l-0.663-0.662l-0.663-0.662
							c-0.223-0.22-0.497-0.385-0.828-0.498c-0.332-0.108-0.721-0.383-1.16-0.828c-0.663-0.219-1.218-0.549-1.658-0.994h-0.331
							l-0.663-0.332l-0.663,0.332c-0.445,0.886-0.663,1.822-0.663,2.816c0,0.993-0.554,1.715-1.657,2.153
							c-1.108-0.438-1.657-1.325-1.657-2.649c0-1.326,0.549-2.652,1.657-3.979c-0.445-0.217-1.108-0.497-1.989-0.828
							c-0.886-0.332-1.549-0.497-1.988-0.497l-1.326,0.662l-1.326,0.663c-0.223,0.224-0.445,0.332-0.663,0.332h-0.663l-0.994-0.332
							l-1.326-1.325c-2.435,0-4.755,0.497-6.961,1.491c-2.212,0.994-4.424,1.492-6.63,1.492c-1.108,0-1.771-0.275-1.989-0.829
							c-0.223-0.549-0.886-0.829-1.989-0.829h-0.331c-0.223,0.224-0.497,0.497-0.829,0.829c-0.331,0.331-0.497,0.611-0.497,0.829
							c-0.445-2.207-1.491-3.425-3.149-3.646c-1.657-0.22-3.148-0.332-4.475-0.332c-2.435,0-4.424,0.661-5.967,1.987
							c-1.549,1.326-2.543,3.206-2.983,5.636l0.663,1.325c0.217,0.445,0.44,0.777,0.663,0.995v2.982
							c0,1.988-0.611,3.264-1.823,3.812c-1.218,0.557-2.652,1.16-4.31,1.823c-1.658,0.663-3.264,1.715-4.807,3.147
							c-1.549,1.438-2.652,4.035-3.315,7.791l0.663,1.325c0.218,0.445,0.44,0.776,0.663,0.994c0,0.445-0.166,0.942-0.497,1.492
							c-0.331,0.554-0.611,0.942-0.829,1.159c0.44,0,1.104,0.166,1.989,0.498c0.881,0.33,1.435,0.61,1.657,0.828l0.332,0.662
							l-0.332,0.664c-0.223,0.223-0.663,0.443-1.325,0.661c-0.663,0.224-0.995,0.445-0.995,0.663v0.334h0.003V-10.23L86.022-10.23z
							 M104.918-46.694c1.543,0,2.538,0.556,2.983,1.658h-1.326c-1.549,0-2.435-0.552-2.652-1.658H104.918z M107.901-13.215
							c-0.445,0-0.663-0.273-0.663-0.828c0-0.549,0.218-0.715,0.663-0.496C108.781-14.096,108.781-13.653,107.901-13.215z
							 M108.896-42.717h1.326v1.324L108.896-42.717z M117.846-41.393h0.994h0.332c0.44,0.225,0.938,0.446,1.491,0.663
							c0.55,0.224,0.938,0.445,1.16,0.663c-0.445,0.887-0.942,1.771-1.491,2.652c-0.555,0.886-1.383,1.326-2.486,1.326V-41.393z
							 M144.365-8.075c0,0.776-0.223,1.16-0.663,1.16c-0.663,0-0.994-0.384-0.994-1.16c0-0.771,0.331-1.16,0.994-1.16
							C144.143-9.235,144.365-8.848,144.365-8.075z M158.619-42.717c0,0.887-0.331,1.324-0.994,1.324
							c-0.445,0-0.663-0.438-0.663-1.324c0-0.881,0.218-1.326,0.663-1.326C158.288-44.043,158.619-43.598,158.619-42.717z
							 M158.951-35.094h2.651c0,1.989-0.886,2.983-2.651,2.983V-35.094z M163.923-42.717c0,0.887-0.445,1.324-1.325,1.324
							c-0.446,0-0.663-0.438-0.663-1.324c0-0.881,0.217-1.326,0.663-1.326C163.478-44.043,163.923-43.598,163.923-42.717z
							 M166.243-28.629c0,0.994-0.223,1.492-0.662,1.492c-0.663,0-0.995-0.498-0.995-1.492c0-0.993,0.332-1.49,0.995-1.49
							C166.021-30.119,166.243-29.622,166.243-28.629z M169.227-19.514l-1.325,1.326c-0.886-0.662-1.326-1.656-1.326-2.982
							C167.679-21.17,168.564-20.615,169.227-19.514z M169.227-15.865c-0.445,0.223-0.662,0.059-0.662-0.497
							c0-0.549,0.217-0.829,0.662-0.829C170.107-16.746,170.107-16.307,169.227-15.865z M170.553-42.717h2.652
							c0.218,0,0.497,0.662,0.828,1.987c0.332,1.326,0.498,2.435,0.498,3.315c0,1.107-0.389,1.937-1.16,2.486
							c-0.777,0.553-1.715,0.827-2.818,0.827V-42.717z M178.178-17.191c0.217,0.225,0.497,0.445,0.828,0.663
							c0.332,0.224,0.497,0.444,0.497,0.663v0.663v0.663c0,0.886-0.445,1.324-1.325,1.324V-17.191z M196.078-17.191h1.326v2.652
							h-1.326V-17.191z M208.675-17.025c0,0.776-0.332,1.16-0.995,1.16c-0.662,0-0.994-0.384-0.994-1.16
							c0-0.771,0.332-1.16,0.994-1.16C208.343-18.188,208.675-17.799,208.675-17.025z M217.956-35.094h0.663h0.663
							c0.218,0.225,0.44,0.664,0.663,1.326c0.218,0.663,0.331,1.108,0.331,1.326c0,0.445-0.279,0.776-0.828,0.994
							c-0.555,0.223-1.052,0.331-1.492,0.331V-35.094L217.956-35.094z M219.945-43.877c0,0.775-0.223,1.16-0.663,1.16
							c-0.663,0-0.994-0.385-0.994-1.16c0-0.771,0.331-1.159,0.994-1.159C219.723-45.036,219.945-44.648,219.945-43.877z
							 M220.276-37.412c-0.445,0-0.663-0.274-0.663-0.829c0-0.549,0.218-0.828,0.663-0.828
							C221.38-38.624,221.38-38.075,220.276-37.412z M231.05-19.68c0.109,0.557,0.166,1.053,0.166,1.492
							c0,1.108-0.331,2.27-0.994,3.48c-0.663,1.217-1.88,1.822-3.646,1.822c0-1.326,0.383-2.762,1.16-4.311
							c0.771-1.543,1.823-2.761,3.149-3.646C230.885-20.615,230.937-20.229,231.05-19.68z M237.846-24.815
							c0,0.663-0.223,1.108-0.663,1.326c-0.445,0.224-0.663-0.218-0.663-1.326c0-1.104,0.218-1.544,0.663-1.325
							C237.623-25.92,237.846-25.48,237.846-24.815z"/>
						<path fill="#EA118D" d="M170.719-49.229v0.994c0.44,1.326,1.16,3.149,2.155,5.47c0.994,2.32,1.6,3.48,1.823,3.48h1.657
							c0-1.104,0.383-2.264,1.16-3.48c0.771-1.212,1.709-1.822,2.817-1.822h0.332c0.217,0.224,0.715,0.662,1.491,1.326
							c0.771,0.662,1.27,1.107,1.492,1.325h0.331h0.663c0.44-0.218,0.938-0.663,1.491-1.325c0.55-0.664,0.938-1.104,1.161-1.326
							c0.439,0.887,1.6,1.822,3.48,2.817c1.875,0.994,3.258,1.384,4.144,1.16c0.44-0.218,1.932-0.829,4.475-1.823
							c2.538-0.994,4.03-1.71,4.476-2.154l5.304,5.305c0.663,0.663,1.435,0.166,2.32-1.491c0.881-1.655,1.544-2.485,1.989-2.485
							h0.663c1.988,1.107,3.48,2.047,4.475,2.816c0.995,0.777,2.704,1.16,5.139,1.16h0.663c0.217-0.217,0.828-0.714,1.823-1.491
							c0.994-0.771,1.709-1.16,2.154-1.16c0.44,0,0.938,0.331,1.492,0.994c0.549,0.663,0.828,1.22,0.828,1.657
							c2.652-1.543,3.979-3.312,3.979-5.305c0-1.324-0.446-2.207-1.326-2.65c-0.886-0.439-1.326-1.436-1.326-2.982v-0.994
							c0-0.217,0.108-0.549,0.331-0.994c0.44,1.106,1.27,1.988,2.486,2.652c1.212,0.66,2.372,1.106,3.48,1.323
							c-0.445,0.446-0.828,1.438-1.16,2.981c-0.331,1.551-0.279,2.652,0.166,3.315c0.218,0.445,0.994,0.994,2.32,1.657
							s2.207,0.994,2.652,0.994c1.326-1.104,2.098-2.206,2.32-3.314c0.218-1.104,1.104-1.767,2.652-1.988
							c0.439,0.662,0.938,1.492,1.491,2.485c0.549,0.994,1.16,1.492,1.823,1.492h0.663c0.218-0.218,0.497-0.44,0.829-0.663
							c0.331-0.218,0.497-0.439,0.497-0.663c0.88-0.881,1.325-1.767,1.325-2.651l-3.646-6.299c-0.224-0.218-0.166-0.496,0.165-0.828
							c0.332-0.332,0.606-0.498,0.829-0.498h1.326v0.332c1.988,0,3.589,0.39,4.807,1.16c1.212,0.776,2.429,1.657,3.646,2.651
							c1.212,0.994,2.372,1.88,3.48,2.651c1.104,0.777,2.538,1.16,4.31,1.16c0.217,0,0.663-0.496,1.325-1.492
							c0.663-0.993,1.326-2.098,1.989-3.313c0.663-1.212,1.212-2.372,1.657-3.479c0.44-1.104,0.663-1.875,0.663-2.32h0.663h0.663
							c0.218,0.225,0.331,0.663,0.331,1.326v9.281c0.44,0,0.772-0.108,0.995-0.332c2.429-1.767,4.361-3.479,5.801-5.139
							c1.435-1.656,3.921-2.486,7.459-2.486c0.44,0,1.212,0.332,2.32,0.994c1.104,0.664,1.875,1.219,2.32,1.658
							c0-0.881,0.383-1.767,1.16-2.652c0.771-0.881,1.709-1.324,2.817-1.324c0,0.223,0.109,0.443,0.332,0.663l0.663,0.661
							c0.217,0.445,0.439,1.492,0.663,3.149c0.217,1.657,0.438,2.709,0.662,3.149c0.218,0,0.663,0.057,1.325,0.165
							c0.663,0.114,1.104,0.165,1.326,0.165c1.989,0,3.755-0.496,5.308-1.491c1.544-0.994,3.312-1.491,5.304-1.491
							c0.881,0,1.544,0.223,1.989,0.663c0.438,0.444,0.549,1.549,0.332,3.313c0.658-1.767,1.377-2.869,2.15-3.313
							c0.771-0.44,1.823-0.663,3.149-0.663c1.325,0,2.206,0.279,2.647,0.829c0.44,0.554,1.216,0.828,2.32,0.828
							c0.881,0,1.989-0.828,3.315-2.486c1.322-1.657,2.595-3.532,3.812-5.635c1.213-2.099,2.267-4.194,3.149-6.299
							c0.881-2.099,1.324-3.589,1.324-4.476c0-0.219-0.059-0.715-0.164-1.492c-0.113-0.771-0.165-1.379-0.165-1.821
							c-1.771-0.22-2.983-1.047-3.646-2.486c-0.663-1.436-1.549-2.596-2.652-3.479l-2.647,7.623
							c-3.315-2.428-5.915-6.02-7.79-10.771c-1.881-4.75-2.818-9.002-2.818-12.763c-2.212,0-3.479,0.83-3.812,2.485
							c-0.332,1.657-0.725,3.48-1.161,5.472h-0.331c-0.663,0-1.217-0.384-1.657-1.16c-0.445-0.771-0.886-1.657-1.326-2.652
							c-0.441-0.993-0.938-1.875-1.488-2.651c-0.558-0.771-1.387-1.158-2.485-1.158c-4.424,0-8.898,0.609-13.426,1.822
							c-4.532,1.217-8.898,1.822-13.094,1.822c-0.886,0-1.605-0.166-2.155-0.498c-0.554-0.332-1.273-0.496-2.154-0.496
							c-2.652,0-5.47,0.389-8.453,1.158c-2.983,0.776-5.692,1.16-8.121,1.16c-0.445,0-1.771-0.166-3.979-0.497
							c-2.211-0.332-3.537-0.604-3.978-0.829h-0.663h-0.331c-0.446,0.225-1.161,0.497-2.155,0.829
							c-0.994,0.332-1.605,0.497-1.823,0.497c-0.223,0-0.663-0.218-1.326-0.663c-0.662-0.438-1.108-0.663-1.325-0.663
							c-1.108,0-1.989,1.108-2.652,3.313c-0.663,2.213-1.88,3.315-3.646,3.315l-0.663-0.664l-0.663-0.662
							c-0.223-0.22-0.497-0.383-0.828-0.498c-0.332-0.107-0.721-0.383-1.16-0.828c-0.663-0.217-1.218-0.549-1.658-0.993h-0.331
							l-0.663-0.332l-0.663,0.332c-0.445,0.886-0.663,1.821-0.663,2.815c0,0.996-0.554,1.715-1.657,2.154
							c-1.108-0.439-1.657-1.324-1.657-2.65s0.549-2.651,1.657-3.979c-0.445-0.218-1.108-0.497-1.989-0.829
							c-0.886-0.332-1.549-0.497-1.988-0.497l-1.326,0.663l-1.326,0.663c-0.223,0.225-0.445,0.332-0.663,0.332h-0.663l-0.994-0.332
							l-1.326-1.326c-2.435,0-4.755,0.497-6.961,1.492c-2.212,0.993-4.424,1.491-6.63,1.491c-1.108,0-1.771-0.274-1.989-0.828
							c-0.223-0.549-0.886-0.829-1.989-0.829h-0.331c-0.223,0.225-0.497,0.497-0.829,0.829c-0.331,0.332-0.497,0.608-0.497,0.828
							c-0.445-2.207-1.491-3.425-3.149-3.646c-1.657-0.219-3.148-0.332-4.475-0.332c-2.435,0-4.424,0.663-5.967,1.988
							c-1.549,1.326-2.543,3.206-2.983,5.637l0.663,1.324c0.217,0.445,0.44,0.777,0.663,0.995v2.981c0,1.99-0.611,3.264-1.823,3.812
							c-1.218,0.556-2.652,1.16-4.31,1.822c-1.658,0.663-3.264,1.715-4.807,3.149c-1.549,1.438-2.652,4.034-3.315,7.788l0.663,1.326
							c0.218,0.445,0.44,0.777,0.663,0.995c0,0.445-0.166,0.941-0.497,1.492c-0.331,0.554-0.611,0.941-0.829,1.16
							c0.44,0,1.104,0.166,1.989,0.496c0.881,0.332,1.435,0.611,1.657,0.828l0.332,0.664l-0.332,0.662
							c-0.223,0.225-0.663,0.445-1.325,0.664c-0.663,0.223-0.995,0.444-0.995,0.662v0.331h0.002v0.006H170.719z M189.614-85.691
							c1.543,0,2.538,0.555,2.983,1.657h-1.326c-1.549,0-2.435-0.55-2.652-1.657H189.614z M192.598-52.213
							c-0.445,0-0.663-0.272-0.663-0.827c0-0.55,0.218-0.716,0.663-0.497C193.478-53.094,193.478-52.651,192.598-52.213z
							 M193.592-81.715h1.326v1.326L193.592-81.715z M202.542-80.389h0.994h0.332c0.44,0.225,0.938,0.445,1.491,0.662
							c0.55,0.225,0.938,0.444,1.16,0.663c-0.445,0.888-0.942,1.771-1.491,2.652c-0.555,0.886-1.383,1.323-2.486,1.323V-80.389
							L202.542-80.389z M229.062-47.073c0,0.776-0.223,1.161-0.663,1.161c-0.663,0-0.994-0.385-0.994-1.161
							c0-0.771,0.331-1.16,0.994-1.16C228.839-48.233,229.062-47.846,229.062-47.073z M243.315-81.715
							c0,0.888-0.331,1.326-0.994,1.326c-0.445,0-0.663-0.438-0.663-1.326c0-0.879,0.218-1.325,0.663-1.325
							C242.984-83.04,243.315-82.594,243.315-81.715z M243.647-74.09h2.651c0,1.987-0.886,2.981-2.651,2.981V-74.09z
							 M248.619-81.715c0,0.888-0.445,1.326-1.325,1.326c-0.446,0-0.663-0.438-0.663-1.326c0-0.879,0.217-1.325,0.663-1.325
							C248.174-83.04,248.619-82.594,248.619-81.715z M250.939-67.627c0,0.996-0.223,1.492-0.662,1.492
							c-0.663,0-0.995-0.496-0.995-1.492c0-0.993,0.332-1.491,0.995-1.491C250.717-69.118,250.939-68.62,250.939-67.627z
							 M253.923-58.51l-1.325,1.326c-0.886-0.664-1.326-1.658-1.326-2.982C252.375-60.168,253.261-59.612,253.923-58.51z
							 M253.923-54.863c-0.445,0.225-0.662,0.059-0.662-0.497c0-0.549,0.217-0.829,0.662-0.829
							C254.804-55.743,254.804-55.305,253.923-54.863z M255.249-81.715h2.652c0.218,0,0.497,0.664,0.828,1.99
							c0.332,1.324,0.498,2.435,0.498,3.312c0,1.107-0.389,1.938-1.16,2.486c-0.777,0.555-1.715,0.828-2.818,0.828V-81.715z
							 M262.874-56.189c0.217,0.225,0.497,0.445,0.828,0.663c0.332,0.224,0.497,0.445,0.497,0.663v0.663v0.663
							c0,0.886-0.445,1.324-1.325,1.324V-56.189z M280.774-56.189h1.326v2.651h-1.326V-56.189z M293.371-56.023
							c0,0.777-0.332,1.16-0.995,1.16c-0.662,0-0.994-0.383-0.994-1.16c0-0.771,0.332-1.158,0.994-1.158
							C293.039-57.184,293.371-56.795,293.371-56.023z M302.652-74.09h0.663h0.662c0.219,0.224,0.44,0.662,0.663,1.326
							c0.219,0.661,0.331,1.105,0.331,1.324c0,0.445-0.278,0.777-0.828,0.994c-0.555,0.225-1.052,0.332-1.491,0.332V-74.09
							L302.652-74.09z M304.642-82.875c0,0.777-0.223,1.16-0.663,1.16c-0.662,0-0.993-0.383-0.993-1.16
							c0-0.771,0.331-1.159,0.993-1.159C304.419-84.034,304.642-83.647,304.642-82.875z M304.973-76.411
							c-0.444,0-0.663-0.273-0.663-0.828c0-0.549,0.219-0.829,0.663-0.829C306.076-77.622,306.076-77.073,304.973-76.411z
							 M315.746-58.676c0.109,0.555,0.166,1.051,0.166,1.492c0,1.107-0.331,2.27-0.994,3.479c-0.663,1.218-1.88,1.823-3.646,1.823
							c0-1.325,0.383-2.76,1.156-4.311c0.771-1.543,1.823-2.761,3.149-3.646C315.581-59.612,315.633-59.225,315.746-58.676z
							 M322.542-63.813c0,0.663-0.223,1.107-0.663,1.326c-0.445,0.224-0.663-0.219-0.663-1.326c0-1.104,0.218-1.543,0.663-1.325
							C322.319-64.918,322.542-64.478,322.542-63.813z"/>
						<path fill="#EA118D" d="M1.326-49.229v0.994c0.44,1.326,1.16,3.149,2.155,5.47c0.994,2.32,1.6,3.48,1.823,3.48h1.657
							c0-1.104,0.383-2.264,1.16-3.48c0.771-1.212,1.709-1.822,2.817-1.822h0.332c0.217,0.224,0.715,0.662,1.491,1.326
							c0.771,0.662,1.27,1.107,1.492,1.325h0.331h0.663c0.44-0.218,0.938-0.663,1.491-1.325c0.55-0.664,0.938-1.104,1.161-1.326
							c0.439,0.887,1.6,1.822,3.48,2.817c1.875,0.994,3.258,1.384,4.144,1.16c0.44-0.218,1.932-0.829,4.475-1.823
							c2.538-0.994,4.03-1.71,4.476-2.154l5.304,5.305c0.663,0.663,1.435,0.166,2.32-1.491c0.881-1.655,1.544-2.485,1.989-2.485
							h0.663c1.988,1.107,3.48,2.047,4.475,2.816c0.995,0.777,2.704,1.16,5.139,1.16h0.663c0.217-0.217,0.828-0.714,1.823-1.491
							c0.994-0.771,1.709-1.16,2.154-1.16c0.44,0,0.938,0.331,1.492,0.994c0.549,0.663,0.828,1.22,0.828,1.657
							c2.652-1.543,3.979-3.312,3.979-5.305c0-1.324-0.446-2.207-1.326-2.65c-0.886-0.439-1.326-1.436-1.326-2.982v-0.994
							c0-0.217,0.108-0.549,0.331-0.994c0.44,1.106,1.27,1.988,2.486,2.652c1.212,0.66,2.372,1.106,3.48,1.323
							c-0.445,0.446-0.828,1.438-1.16,2.981c-0.331,1.551-0.279,2.652,0.166,3.315c0.218,0.445,0.994,0.994,2.32,1.657
							c1.326,0.663,2.207,0.994,2.652,0.994c1.326-1.104,2.098-2.206,2.32-3.314c0.218-1.104,1.104-1.767,2.652-1.988
							c0.439,0.662,0.938,1.492,1.491,2.485c0.549,0.994,1.16,1.492,1.823,1.492h0.663c0.218-0.218,0.497-0.44,0.829-0.663
							c0.331-0.218,0.497-0.439,0.497-0.663c0.88-0.881,1.325-1.767,1.325-2.651l-3.646-6.299c-0.224-0.218-0.166-0.496,0.165-0.828
							c0.332-0.332,0.606-0.498,0.829-0.498H83.2v0.332c1.988,0,3.589,0.39,4.807,1.16c1.212,0.776,2.429,1.657,3.646,2.651
							c1.212,0.994,2.372,1.88,3.48,2.651c1.104,0.777,2.538,1.16,4.31,1.16c0.217,0,0.663-0.496,1.325-1.492
							c0.663-0.993,1.326-2.098,1.989-3.313c0.663-1.212,1.212-2.372,1.657-3.479c0.44-1.104,0.663-1.875,0.663-2.32h0.663h0.663
							c0.218,0.225,0.331,0.663,0.331,1.326v9.281c0.44,0,0.772-0.108,0.995-0.332c2.429-1.767,4.361-3.479,5.801-5.139
							c1.435-1.656,3.921-2.486,7.459-2.486c0.44,0,1.212,0.332,2.32,0.994c1.104,0.664,1.875,1.219,2.32,1.658
							c0-0.881,0.383-1.767,1.16-2.652c0.771-0.881,1.709-1.324,2.817-1.324c0,0.223,0.109,0.443,0.332,0.663l0.663,0.661
							c0.217,0.445,0.44,1.492,0.663,3.149c0.217,1.657,0.439,2.709,0.662,3.149c0.218,0,0.663,0.057,1.326,0.165
							c0.663,0.114,1.104,0.165,1.326,0.165c1.989,0,3.755-0.496,5.304-1.491c1.544-0.994,3.315-1.491,5.304-1.491
							c0.881,0,1.544,0.223,1.989,0.663c0.44,0.444,0.549,1.549,0.332,3.313c0.662-1.767,1.377-2.869,2.154-3.313
							c0.771-0.44,1.823-0.663,3.149-0.663c1.325,0,2.206,0.279,2.651,0.829c0.44,0.554,1.212,0.828,2.32,0.828
							c0.881,0,1.989-0.828,3.315-2.486c1.326-1.657,2.595-3.532,3.812-5.635c1.213-2.099,2.264-4.194,3.149-6.299
							c0.881-2.099,1.326-3.589,1.326-4.476c0-0.219-0.057-0.715-0.166-1.492c-0.113-0.771-0.165-1.379-0.165-1.821
							c-1.771-0.22-2.983-1.047-3.646-2.486c-0.663-1.436-1.549-2.596-2.652-3.479l-2.651,7.623
							c-3.315-2.428-5.915-6.02-7.79-10.771c-1.881-4.75-2.818-9.002-2.818-12.763c-2.212,0-3.48,0.83-3.812,2.485
							c-0.332,1.657-0.721,3.48-1.161,5.472h-0.331c-0.663,0-1.217-0.384-1.657-1.16c-0.445-0.771-0.886-1.657-1.326-2.652
							c-0.445-0.993-0.942-1.875-1.492-2.651c-0.554-0.771-1.383-1.158-2.485-1.158c-4.424,0-8.898,0.609-13.426,1.822
							c-4.532,1.217-8.898,1.822-13.094,1.822c-0.886,0-1.605-0.166-2.155-0.498c-0.554-0.332-1.273-0.496-2.154-0.496
							c-2.652,0-5.47,0.389-8.453,1.158c-2.983,0.776-5.692,1.16-8.121,1.16c-0.445,0-1.771-0.166-3.979-0.497
							c-2.211-0.332-3.537-0.604-3.978-0.829h-0.663h-0.331c-0.446,0.225-1.161,0.497-2.155,0.829
							c-0.994,0.332-1.605,0.497-1.823,0.497c-0.223,0-0.663-0.218-1.326-0.663c-0.662-0.438-1.108-0.663-1.325-0.663
							c-1.108,0-1.989,1.108-2.652,3.313c-0.663,2.213-1.88,3.315-3.646,3.315l-0.663-0.664l-0.663-0.662
							c-0.223-0.22-0.497-0.383-0.828-0.498c-0.332-0.107-0.721-0.383-1.16-0.828c-0.663-0.217-1.218-0.549-1.658-0.993h-0.331
							l-0.663-0.332l-0.663,0.332c-0.445,0.886-0.663,1.821-0.663,2.815c0,0.996-0.554,1.715-1.657,2.154
							c-1.108-0.439-1.657-1.324-1.657-2.65s0.549-2.651,1.657-3.979c-0.445-0.218-1.108-0.497-1.989-0.829
							c-0.886-0.332-1.549-0.497-1.988-0.497l-1.326,0.663l-1.326,0.663c-0.223,0.225-0.445,0.332-0.663,0.332H51.05l-0.994-0.332
							L48.73-87.02c-2.435,0-4.755,0.497-6.961,1.492c-2.212,0.993-4.424,1.491-6.63,1.491c-1.108,0-1.771-0.274-1.989-0.828
							c-0.223-0.549-0.886-0.829-1.989-0.829H30.83c-0.223,0.225-0.497,0.497-0.829,0.829c-0.331,0.332-0.497,0.608-0.497,0.828
							c-0.445-2.207-1.491-3.425-3.149-3.646c-1.657-0.219-3.148-0.332-4.475-0.332c-2.435,0-4.424,0.663-5.967,1.988
							c-1.549,1.326-2.543,3.206-2.983,5.637l0.663,1.324c0.217,0.445,0.44,0.777,0.663,0.995v2.981c0,1.99-0.611,3.264-1.823,3.812
							c-1.218,0.556-2.652,1.16-4.31,1.822c-1.658,0.663-3.264,1.715-4.807,3.149c-1.549,1.438-2.652,4.034-3.315,7.788l0.663,1.326
							c0.218,0.445,0.44,0.777,0.663,0.995c0,0.445-0.166,0.941-0.497,1.492c-0.332,0.554-0.612,0.941-0.83,1.16
							c0.44,0,1.104,0.166,1.989,0.496c0.881,0.332,1.435,0.611,1.657,0.828l0.332,0.664l-0.332,0.662
							c-0.223,0.225-0.663,0.445-1.325,0.664c-0.663,0.223-0.995,0.444-0.995,0.662V-49.229z M20.222-85.691
							c1.543,0,2.538,0.555,2.983,1.657h-1.326c-1.549,0-2.435-0.55-2.652-1.657H20.222z M23.205-52.213
							c-0.445,0-0.663-0.272-0.663-0.827c0-0.55,0.218-0.716,0.663-0.497C24.085-53.094,24.085-52.651,23.205-52.213z
							 M24.199-81.715h1.326v1.326L24.199-81.715z M33.149-80.389h0.994h0.332c0.44,0.225,0.938,0.445,1.491,0.662
							c0.55,0.225,0.938,0.444,1.16,0.663c-0.445,0.888-0.942,1.771-1.491,2.652c-0.555,0.886-1.383,1.323-2.486,1.323V-80.389z
							 M59.669-47.073c0,0.776-0.223,1.161-0.663,1.161c-0.663,0-0.994-0.385-0.994-1.161c0-0.771,0.331-1.16,0.994-1.16
							C59.446-48.233,59.669-47.846,59.669-47.073z M73.923-81.715c0,0.888-0.331,1.326-0.994,1.326
							c-0.445,0-0.663-0.438-0.663-1.326c0-0.879,0.218-1.325,0.663-1.325C73.592-83.04,73.923-82.594,73.923-81.715z M74.255-74.09
							h2.651c0,1.987-0.886,2.981-2.651,2.981V-74.09z M79.227-81.715c0,0.888-0.445,1.326-1.325,1.326
							c-0.446,0-0.663-0.438-0.663-1.326c0-0.879,0.217-1.325,0.663-1.325C78.781-83.04,79.227-82.594,79.227-81.715z
							 M81.547-67.627c0,0.996-0.223,1.492-0.662,1.492c-0.663,0-0.995-0.496-0.995-1.492c0-0.993,0.332-1.491,0.995-1.491
							C81.324-69.118,81.547-68.62,81.547-67.627z M84.53-58.51l-1.325,1.326c-0.886-0.664-1.326-1.658-1.326-2.982
							C82.982-60.168,83.868-59.612,84.53-58.51z M84.53-54.863c-0.445,0.225-0.662,0.059-0.662-0.497
							c0-0.549,0.217-0.829,0.662-0.829C85.411-55.743,85.411-55.305,84.53-54.863z M85.856-81.715h2.652
							c0.218,0,0.497,0.664,0.828,1.99c0.332,1.324,0.498,2.435,0.498,3.312c0,1.107-0.389,1.938-1.16,2.486
							c-0.777,0.555-1.715,0.828-2.818,0.828V-81.715z M93.481-56.189c0.217,0.225,0.497,0.445,0.828,0.663
							c0.332,0.224,0.497,0.445,0.497,0.663v0.663v0.663c0,0.886-0.445,1.324-1.325,1.324V-56.189z M111.382-56.189h1.326v2.651
							h-1.326V-56.189z M123.979-56.023c0,0.777-0.332,1.16-0.995,1.16c-0.662,0-0.994-0.383-0.994-1.16
							c0-0.771,0.332-1.158,0.994-1.158S123.979-56.795,123.979-56.023z M133.26-74.09h0.663h0.663
							c0.218,0.224,0.44,0.662,0.663,1.326c0.218,0.661,0.331,1.105,0.331,1.324c0,0.445-0.279,0.777-0.828,0.994
							c-0.555,0.225-1.052,0.332-1.492,0.332V-74.09L133.26-74.09z M135.249-82.875c0,0.777-0.223,1.16-0.663,1.16
							c-0.663,0-0.994-0.383-0.994-1.16c0-0.771,0.331-1.159,0.994-1.159C135.026-84.034,135.249-83.647,135.249-82.875z
							 M135.58-76.411c-0.445,0-0.663-0.273-0.663-0.828c0-0.549,0.218-0.829,0.663-0.829
							C136.684-77.622,136.684-77.073,135.58-76.411z M146.354-58.676c0.109,0.555,0.166,1.051,0.166,1.492
							c0,1.107-0.331,2.27-0.994,3.479c-0.663,1.218-1.88,1.823-3.646,1.823c0-1.325,0.383-2.76,1.16-4.311
							c0.771-1.543,1.823-2.761,3.149-3.646C146.188-59.612,146.24-59.225,146.354-58.676z M153.149-63.813
							c0,0.663-0.223,1.107-0.663,1.326c-0.445,0.224-0.663-0.219-0.663-1.326c0-1.104,0.218-1.543,0.663-1.325
							C152.927-64.918,153.149-64.478,153.149-63.813z"/>
						<path fill="#EA118D" d="M86.022-88.227v0.994c0.44,1.325,1.16,3.148,2.155,5.473c0.994,2.317,1.6,3.479,1.823,3.479h1.657
							c0-1.104,0.383-2.264,1.16-3.479c0.771-1.215,1.709-1.824,2.817-1.824h0.332c0.217,0.224,0.715,0.664,1.491,1.326
							c0.771,0.664,1.27,1.106,1.492,1.324h0.331h0.663c0.44-0.217,0.938-0.66,1.491-1.324c0.55-0.662,0.938-1.104,1.161-1.326
							c0.439,0.887,1.6,1.824,3.48,2.816c1.875,0.994,3.258,1.385,4.144,1.16c0.44-0.218,1.932-0.829,4.475-1.82
							c2.538-0.996,4.03-1.709,4.476-2.156l5.304,5.305c0.663,0.662,1.435,0.166,2.32-1.492c0.881-1.656,1.544-2.486,1.989-2.486
							h0.663c1.988,1.108,3.48,2.047,4.475,2.817c0.995,0.776,2.704,1.16,5.139,1.16h0.663c0.217-0.218,0.828-0.714,1.823-1.492
							c0.994-0.771,1.709-1.159,2.154-1.159c0.44,0,0.938,0.332,1.492,0.994c0.549,0.663,0.828,1.217,0.828,1.657
							c2.652-1.544,3.979-3.315,3.979-5.304c0-1.326-0.446-2.207-1.326-2.652c-0.886-0.439-1.326-1.436-1.326-2.982v-0.996
							c0-0.217,0.108-0.549,0.331-0.994c0.44,1.108,1.27,1.99,2.486,2.652c1.212,0.663,2.372,1.107,3.48,1.326
							c-0.445,0.445-0.828,1.439-1.16,2.982c-0.331,1.549-0.279,2.652,0.166,3.313c0.218,0.446,0.994,0.995,2.32,1.658
							c1.326,0.663,2.207,0.994,2.652,0.994c1.326-1.104,2.098-2.206,2.32-3.313c0.218-1.104,1.104-1.768,2.652-1.988
							c0.439,0.662,0.938,1.492,1.491,2.484c0.549,0.993,1.16,1.491,1.823,1.491h0.663c0.218-0.219,0.497-0.438,0.829-0.663
							c0.331-0.217,0.497-0.438,0.497-0.663c0.88-0.88,1.325-1.766,1.325-2.649l-3.646-6.299c-0.224-0.219-0.166-0.496,0.165-0.828
							c0.332-0.332,0.606-0.498,0.829-0.498h1.326v0.332c1.988,0,3.589,0.389,4.807,1.16c1.212,0.775,2.429,1.655,3.646,2.65
							c1.212,0.994,2.372,1.88,3.48,2.651c1.104,0.776,2.538,1.159,4.31,1.159c0.217,0,0.663-0.498,1.325-1.491
							c0.663-0.994,1.326-2.099,1.989-3.314c0.663-1.212,1.212-2.372,1.657-3.479c0.44-1.104,0.663-1.875,0.663-2.321h0.663h0.663
							c0.218,0.225,0.331,0.663,0.331,1.325v9.282c0.44,0,0.772-0.108,0.995-0.332c2.429-1.768,4.361-3.479,5.801-5.14
							c1.435-1.655,3.921-2.485,7.459-2.485c0.44,0,1.212,0.332,2.32,0.994c1.104,0.664,1.875,1.217,2.32,1.657
							c0-0.881,0.383-1.767,1.16-2.651c0.771-0.881,1.709-1.325,2.817-1.325c0,0.224,0.109,0.444,0.332,0.664l0.663,0.661
							c0.217,0.445,0.44,1.492,0.663,3.148c0.217,1.657,0.439,2.709,0.662,3.148c0.218,0,0.663,0.058,1.326,0.166
							c0.663,0.113,1.104,0.166,1.326,0.166c1.989,0,3.755-0.496,5.304-1.491c1.544-0.994,3.315-1.492,5.304-1.492
							c0.881,0,1.544,0.224,1.989,0.663c0.44,0.445,0.549,1.549,0.332,3.314c0.662-1.768,1.377-2.869,2.154-3.314
							c0.771-0.439,1.823-0.663,3.149-0.663c1.325,0,2.206,0.28,2.651,0.829c0.44,0.555,1.212,0.829,2.32,0.829
							c0.881,0,1.989-0.829,3.315-2.486c1.326-1.655,2.595-3.53,3.812-5.635c1.213-2.099,2.264-4.194,3.149-6.298
							c0.881-2.1,1.326-3.59,1.326-4.477c0-0.218-0.057-0.716-0.166-1.49c-0.113-0.772-0.165-1.379-0.165-1.823
							c-1.771-0.218-2.983-1.046-3.646-2.486c-0.663-1.435-1.549-2.595-2.652-3.479l-2.651,7.625
							c-3.315-2.431-5.915-6.021-7.79-10.773c-1.881-4.75-2.818-9.002-2.818-12.762c-2.212,0-3.48,0.828-3.812,2.485
							c-0.332,1.658-0.721,3.479-1.161,5.47h-0.331c-0.663,0-1.217-0.384-1.657-1.159c-0.445-0.771-0.886-1.657-1.326-2.65
							c-0.445-0.996-0.942-1.875-1.492-2.652c-0.554-0.771-1.383-1.16-2.485-1.16c-4.424,0-8.898,0.611-13.426,1.822
							c-4.532,1.219-8.898,1.824-13.094,1.824c-0.886,0-1.605-0.166-2.155-0.498c-0.554-0.332-1.273-0.498-2.154-0.498
							c-2.652,0-5.47,0.389-8.453,1.16c-2.983,0.776-5.692,1.159-8.121,1.159c-0.445,0-1.771-0.166-3.979-0.497
							c-2.211-0.332-3.537-0.605-3.978-0.828h-0.663h-0.331c-0.446,0.223-1.161,0.496-2.155,0.828s-1.605,0.497-1.823,0.497
							c-0.223,0-0.663-0.217-1.326-0.663c-0.662-0.439-1.108-0.662-1.325-0.662c-1.108,0-1.989,1.107-2.652,3.313
							c-0.663,2.212-1.88,3.313-3.646,3.313l-0.663-0.662l-0.663-0.664c-0.223-0.217-0.497-0.383-0.828-0.496
							c-0.332-0.108-0.721-0.383-1.16-0.829c-0.663-0.218-1.218-0.55-1.658-0.993h-0.331l-0.663-0.332l-0.663,0.332
							c-0.445,0.886-0.663,1.822-0.663,2.816s-0.554,1.713-1.657,2.153c-1.108-0.438-1.657-1.325-1.657-2.651
							c0-1.325,0.549-2.65,1.657-3.979c-0.445-0.217-1.108-0.497-1.989-0.829c-0.886-0.332-1.549-0.495-1.988-0.495l-1.326,0.661
							l-1.326,0.663c-0.223,0.225-0.445,0.332-0.663,0.332h-0.663l-0.994-0.332l-1.326-1.324c-2.435,0-4.755,0.495-6.961,1.49
							c-2.212,0.994-4.424,1.492-6.63,1.492c-1.108,0-1.771-0.273-1.989-0.829c-0.223-0.55-0.886-0.829-1.989-0.829h-0.331
							c-0.223,0.225-0.497,0.497-0.829,0.829c-0.331,0.332-0.497,0.61-0.497,0.829c-0.445-2.207-1.491-3.424-3.149-3.646
							c-1.657-0.219-3.148-0.332-4.475-0.332c-2.435,0-4.424,0.662-5.967,1.988c-1.549,1.326-2.543,3.206-2.983,5.635l0.663,1.326
							c0.217,0.445,0.44,0.777,0.663,0.995v2.983c0,1.988-0.611,3.263-1.823,3.812c-1.218,0.554-2.652,1.16-4.31,1.823
							c-1.658,0.662-3.264,1.714-4.807,3.148c-1.549,1.438-2.652,4.033-3.315,7.791l0.663,1.324c0.218,0.444,0.44,0.776,0.663,0.994
							c0,0.444-0.166,0.942-0.497,1.492c-0.331,0.555-0.611,0.939-0.829,1.159c0.44,0,1.104,0.166,1.989,0.497
							c0.881,0.332,1.435,0.609,1.657,0.828l0.332,0.662l-0.332,0.664c-0.223,0.224-0.663,0.444-1.325,0.662
							c-0.663,0.225-0.995,0.445-0.995,0.664v0.33h0.003V-88.227L86.022-88.227z M104.918-124.689c1.543,0,2.538,0.555,2.983,1.657
							h-1.326c-1.549,0-2.435-0.549-2.652-1.657H104.918z M107.901-91.209c-0.445,0-0.663-0.274-0.663-0.829
							c0-0.55,0.218-0.716,0.663-0.496C108.781-92.09,108.781-91.648,107.901-91.209z M108.896-120.713h1.326v1.326L108.896-120.713
							z M117.846-119.385h0.994h0.332c0.44,0.223,0.938,0.444,1.491,0.662c0.55,0.225,0.938,0.444,1.16,0.662
							c-0.445,0.889-0.942,1.771-1.491,2.651c-0.555,0.887-1.383,1.325-2.486,1.325V-119.385z M144.365-86.07
							c0,0.775-0.223,1.161-0.663,1.161c-0.663,0-0.994-0.384-0.994-1.161c0-0.771,0.331-1.16,0.994-1.16
							C144.143-87.23,144.365-86.842,144.365-86.07z M158.619-120.713c0,0.888-0.331,1.326-0.994,1.326
							c-0.445,0-0.663-0.438-0.663-1.326c0-0.879,0.218-1.325,0.663-1.325C158.288-122.038,158.619-121.592,158.619-120.713z
							 M158.951-113.088h2.651c0,1.988-0.886,2.981-2.651,2.981V-113.088z M163.923-120.713c0,0.888-0.445,1.326-1.325,1.326
							c-0.446,0-0.663-0.438-0.663-1.326c0-0.879,0.217-1.325,0.663-1.325C163.478-122.038,163.923-121.592,163.923-120.713z
							 M166.243-106.625c0,0.996-0.223,1.492-0.662,1.492c-0.663,0-0.995-0.496-0.995-1.492c0-0.993,0.332-1.491,0.995-1.491
							C166.021-108.114,166.243-107.618,166.243-106.625z M169.227-97.508l-1.325,1.326c-0.886-0.664-1.326-1.658-1.326-2.983
							C167.679-99.165,168.564-98.61,169.227-97.508z M169.227-93.86c-0.445,0.224-0.662,0.058-0.662-0.497
							c0-0.55,0.217-0.829,0.662-0.829C170.107-94.741,170.107-94.299,169.227-93.86z M170.553-120.713h2.652
							c0.218,0,0.497,0.664,0.828,1.99c0.332,1.324,0.498,2.435,0.498,3.312c0,1.107-0.389,1.939-1.16,2.486
							c-0.777,0.555-1.715,0.828-2.818,0.828V-120.713z M178.178-95.188c0.217,0.225,0.497,0.444,0.828,0.663
							c0.332,0.226,0.497,0.445,0.497,0.663v0.663v0.662c0,0.887-0.445,1.325-1.325,1.325V-95.188z M196.078-95.188h1.326v2.651
							h-1.326V-95.188z M208.675-95.022c0,0.777-0.332,1.16-0.995,1.16c-0.662,0-0.994-0.383-0.994-1.16
							c0-0.771,0.332-1.159,0.994-1.159C208.343-96.182,208.675-95.793,208.675-95.022z M217.956-113.088h0.663h0.663
							c0.218,0.224,0.44,0.662,0.663,1.326c0.218,0.662,0.331,1.106,0.331,1.324c0,0.445-0.279,0.777-0.828,0.994
							c-0.555,0.225-1.052,0.332-1.492,0.332V-113.088L217.956-113.088z M219.945-121.872c0,0.776-0.223,1.159-0.663,1.159
							c-0.663,0-0.994-0.383-0.994-1.159c0-0.771,0.331-1.16,0.994-1.16C219.723-123.032,219.945-122.645,219.945-121.872z
							 M220.276-115.407c-0.445,0-0.663-0.272-0.663-0.829c0-0.55,0.218-0.829,0.663-0.829
							C221.38-116.62,221.38-116.07,220.276-115.407z M231.05-97.674c0.109,0.556,0.166,1.052,0.166,1.492
							c0,1.107-0.331,2.271-0.994,3.479c-0.663,1.218-1.88,1.822-3.646,1.822c0-1.324,0.383-2.76,1.16-4.31
							c0.771-1.543,1.823-2.762,3.149-3.646C230.885-98.61,230.937-98.223,231.05-97.674z M237.846-102.812
							c0,0.663-0.223,1.108-0.663,1.326c-0.445,0.223-0.663-0.218-0.663-1.326c0-1.103,0.218-1.543,0.663-1.324
							C237.623-103.915,237.846-103.475,237.846-102.812z"/>
						<path fill="#EA118D" d="M170.719-127.223v0.993c0.44,1.326,1.16,3.148,2.155,5.472c0.994,2.318,1.6,3.479,1.823,3.479h1.657
							c0-1.104,0.383-2.266,1.16-3.479c0.771-1.211,1.709-1.822,2.817-1.822h0.332c0.217,0.223,0.715,0.662,1.491,1.326
							c0.771,0.662,1.27,1.105,1.492,1.326h0.331h0.663c0.44-0.22,0.938-0.664,1.491-1.326c0.55-0.664,0.938-1.104,1.161-1.326
							c0.439,0.886,1.6,1.822,3.48,2.816c1.875,0.993,3.258,1.385,4.144,1.159c0.44-0.218,1.932-0.829,4.475-1.821
							c2.538-0.994,4.03-1.709,4.476-2.154l5.304,5.304c0.663,0.663,1.435,0.166,2.32-1.492c0.881-1.657,1.544-2.485,1.989-2.485
							h0.663c1.988,1.107,3.48,2.045,4.475,2.816c0.995,0.777,2.704,1.16,5.139,1.16h0.663c0.217-0.217,0.828-0.715,1.823-1.492
							c0.994-0.771,1.709-1.16,2.154-1.16c0.44,0,0.938,0.332,1.492,0.995c0.549,0.663,0.828,1.218,0.828,1.657
							c2.652-1.543,3.979-3.314,3.979-5.305c0-1.326-0.446-2.207-1.326-2.651c-0.886-0.44-1.326-1.435-1.326-2.983v-0.994
							c0-0.217,0.108-0.549,0.331-0.993c0.44,1.106,1.27,1.987,2.486,2.651c1.212,0.662,2.372,1.107,3.48,1.325
							c-0.445,0.446-0.828,1.44-1.16,2.983c-0.331,1.549-0.279,2.652,0.166,3.312c0.218,0.446,0.994,0.995,2.32,1.658
							s2.207,0.994,2.652,0.994c1.326-1.104,2.098-2.206,2.32-3.312c0.218-1.104,1.104-1.769,2.652-1.99
							c0.439,0.664,0.938,1.492,1.491,2.484c0.549,0.994,1.16,1.492,1.823,1.492h0.663c0.218-0.218,0.497-0.438,0.829-0.662
							c0.331-0.218,0.497-0.439,0.497-0.664c0.88-0.88,1.325-1.766,1.325-2.65l-3.646-6.297c-0.224-0.219-0.166-0.498,0.165-0.83
							c0.332-0.332,0.606-0.496,0.829-0.496h1.326v0.33c1.988,0,3.589,0.39,4.807,1.162c1.212,0.774,2.429,1.654,3.646,2.649
							c1.212,0.994,2.372,1.88,3.48,2.652c1.104,0.774,2.538,1.157,4.31,1.157c0.217,0,0.663-0.496,1.325-1.489
							c0.663-0.995,1.326-2.101,1.989-3.315c0.663-1.212,1.212-2.369,1.657-3.479c0.44-1.104,0.663-1.875,0.663-2.32h0.663h0.663
							c0.218,0.223,0.331,0.663,0.331,1.326v9.281c0.44,0,0.772-0.108,0.995-0.332c2.429-1.768,4.361-3.479,5.801-5.137
							c1.435-1.658,3.921-2.486,7.459-2.486c0.44,0,1.212,0.33,2.32,0.994c1.104,0.662,1.875,1.217,2.32,1.658
							c0-0.884,0.383-1.77,1.16-2.652c0.771-0.881,1.709-1.326,2.817-1.326c0,0.223,0.109,0.445,0.332,0.662l0.663,0.664
							c0.217,0.445,0.439,1.492,0.663,3.146c0.217,1.657,0.438,2.709,0.662,3.149c0.218,0,0.663,0.057,1.325,0.166
							c0.663,0.112,1.104,0.166,1.326,0.166c1.989,0,3.755-0.498,5.308-1.492c1.544-0.994,3.312-1.492,5.304-1.492
							c0.881,0,1.544,0.226,1.989,0.663c0.438,0.444,0.549,1.549,0.332,3.314c0.658-1.768,1.377-2.87,2.15-3.314
							c0.771-0.438,1.823-0.663,3.149-0.663c1.325,0,2.206,0.28,2.647,0.829c0.44,0.557,1.216,0.829,2.32,0.829
							c0.881,0,1.989-0.829,3.315-2.483c1.322-1.658,2.595-3.533,3.812-5.638c1.213-2.098,2.267-4.192,3.149-6.298
							c0.881-2.1,1.324-3.589,1.324-4.477c0-0.219-0.059-0.715-0.164-1.491c-0.113-0.771-0.165-1.378-0.165-1.822
							c-1.771-0.219-2.983-1.047-3.646-2.486c-0.663-1.436-1.549-2.595-2.652-3.48l-2.647,7.625c-3.315-2.43-5.915-6.02-7.79-10.773
							c-1.881-4.75-2.818-9.002-2.818-12.762c-2.212,0-3.479,0.828-3.812,2.486c-0.332,1.658-0.725,3.48-1.161,5.469h-0.331
							c-0.663,0-1.217-0.383-1.657-1.159c-0.445-0.771-0.886-1.657-1.326-2.651c-0.441-0.996-0.938-1.875-1.488-2.652
							c-0.558-0.772-1.387-1.16-2.485-1.16c-4.424,0-8.898,0.611-13.426,1.822c-4.532,1.217-8.898,1.824-13.094,1.824
							c-0.886,0-1.605-0.166-2.155-0.498c-0.554-0.332-1.273-0.498-2.154-0.498c-2.652,0-5.47,0.389-8.453,1.16
							c-2.983,0.777-5.692,1.16-8.121,1.16c-0.445,0-1.771-0.166-3.979-0.497c-2.211-0.332-3.537-0.606-3.978-0.829h-0.663h-0.331
							c-0.446,0.223-1.161,0.497-2.155,0.829c-0.994,0.332-1.605,0.497-1.823,0.497c-0.223,0-0.663-0.217-1.326-0.663
							c-0.662-0.44-1.108-0.663-1.325-0.663c-1.108,0-1.989,1.108-2.652,3.314c-0.663,2.212-1.88,3.314-3.646,3.314l-0.663-0.662
							l-0.663-0.664c-0.223-0.217-0.497-0.383-0.828-0.496c-0.332-0.109-0.721-0.383-1.16-0.83
							c-0.663-0.217-1.218-0.549-1.658-0.993h-0.331l-0.663-0.332l-0.663,0.332c-0.445,0.886-0.663,1.823-0.663,2.817
							c0,0.994-0.554,1.713-1.657,2.154c-1.108-0.439-1.657-1.326-1.657-2.652c0-1.326,0.549-2.651,1.657-3.979
							c-0.445-0.217-1.108-0.497-1.989-0.829c-0.886-0.331-1.549-0.497-1.988-0.497l-1.326,0.663l-1.326,0.663
							c-0.223,0.223-0.445,0.332-0.663,0.332h-0.663l-0.994-0.332l-1.326-1.326c-2.435,0-4.755,0.497-6.961,1.492
							c-2.212,0.994-4.424,1.492-6.63,1.492c-1.108,0-1.771-0.275-1.989-0.829c-0.223-0.549-0.886-0.829-1.989-0.829h-0.331
							c-0.223,0.223-0.497,0.497-0.829,0.829c-0.331,0.332-0.497,0.61-0.497,0.829c-0.445-2.207-1.491-3.424-3.149-3.646
							c-1.657-0.218-3.148-0.332-4.475-0.332c-2.435,0-4.424,0.664-5.967,1.989c-1.549,1.326-2.543,3.206-2.983,5.636l0.663,1.325
							c0.217,0.445,0.44,0.777,0.663,0.995v2.982c0,1.99-0.611,3.264-1.823,3.812c-1.218,0.555-2.652,1.16-4.31,1.823
							c-1.658,0.663-3.264,1.714-4.807,3.149c-1.549,1.438-2.652,4.035-3.315,7.789l0.663,1.326c0.218,0.443,0.44,0.775,0.663,0.994
							c0,0.444-0.166,0.94-0.497,1.491c-0.331,0.556-0.611,0.94-0.829,1.16c0.44,0,1.104,0.166,1.989,0.496
							c0.881,0.331,1.435,0.61,1.657,0.829l0.332,0.662l-0.332,0.662c-0.223,0.226-0.663,0.445-1.325,0.664
							c-0.663,0.223-0.995,0.444-0.995,0.662v0.332h0.002v0.006H170.719z M189.614-163.688c1.543,0,2.538,0.555,2.983,1.658h-1.326
							c-1.549,0-2.435-0.549-2.652-1.658H189.614z M192.598-130.206c-0.445,0-0.663-0.275-0.663-0.83
							c0-0.55,0.218-0.716,0.663-0.496C193.478-131.088,193.478-130.647,192.598-130.206z M193.592-159.71h1.326v1.326
							L193.592-159.71z M202.542-158.383h0.994h0.332c0.44,0.223,0.938,0.446,1.491,0.664c0.55,0.223,0.938,0.444,1.16,0.662
							c-0.445,0.887-0.942,1.771-1.491,2.652c-0.555,0.886-1.383,1.326-2.486,1.326V-158.383L202.542-158.383z M229.062-125.068
							c0,0.775-0.223,1.161-0.663,1.161c-0.663,0-0.994-0.383-0.994-1.161c0-0.771,0.331-1.16,0.994-1.16
							C228.839-126.229,229.062-125.84,229.062-125.068z M243.315-159.71c0,0.887-0.331,1.326-0.994,1.326
							c-0.445,0-0.663-0.439-0.663-1.326c0-0.879,0.218-1.326,0.663-1.326C242.984-161.036,243.315-160.589,243.315-159.71z
							 M243.647-152.085h2.651c0,1.99-0.886,2.983-2.651,2.983V-152.085z M248.619-159.71c0,0.887-0.445,1.326-1.325,1.326
							c-0.446,0-0.663-0.439-0.663-1.326c0-0.879,0.217-1.326,0.663-1.326C248.174-161.036,248.619-160.589,248.619-159.71z
							 M250.939-145.62c0,0.993-0.223,1.491-0.662,1.491c-0.663,0-0.995-0.498-0.995-1.491c0-0.996,0.332-1.492,0.995-1.492
							C250.717-147.112,250.939-146.616,250.939-145.62z M253.923-136.506l-1.325,1.326c-0.886-0.662-1.326-1.656-1.326-2.981
							C252.375-138.163,253.261-137.607,253.923-136.506z M253.923-132.858c-0.445,0.224-0.662,0.058-0.662-0.497
							c0-0.549,0.217-0.829,0.662-0.829C254.804-133.738,254.804-133.299,253.923-132.858z M255.249-159.71h2.652
							c0.218,0,0.497,0.664,0.828,1.99c0.332,1.325,0.498,2.434,0.498,3.314c0,1.107-0.389,1.938-1.16,2.486
							c-0.777,0.553-1.715,0.828-2.818,0.828V-159.71z M262.874-134.186c0.217,0.225,0.497,0.444,0.828,0.663
							c0.332,0.226,0.497,0.445,0.497,0.663v0.663v0.662c0,0.887-0.445,1.325-1.325,1.325V-134.186z M280.774-134.186h1.326v2.651
							h-1.326V-134.186z M293.371-134.02c0,0.776-0.332,1.16-0.995,1.16c-0.662,0-0.994-0.384-0.994-1.16
							c0-0.771,0.332-1.158,0.994-1.158C293.039-135.178,293.371-134.79,293.371-134.02z M302.652-152.085h0.663h0.662
							c0.219,0.224,0.44,0.664,0.663,1.326c0.219,0.664,0.331,1.108,0.331,1.326c0,0.445-0.278,0.777-0.828,0.994
							c-0.555,0.223-1.052,0.332-1.491,0.332V-152.085L302.652-152.085z M304.642-160.87c0,0.777-0.223,1.16-0.663,1.16
							c-0.662,0-0.993-0.383-0.993-1.16c0-0.771,0.331-1.159,0.993-1.159C304.419-162.029,304.642-161.641,304.642-160.87z
							 M304.973-154.405c-0.444,0-0.663-0.273-0.663-0.829c0-0.55,0.219-0.829,0.663-0.829
							C306.076-155.618,306.076-155.068,304.973-154.405z M315.746-136.672c0.109,0.556,0.166,1.052,0.166,1.492
							c0,1.107-0.331,2.271-0.994,3.479c-0.663,1.218-1.88,1.821-3.646,1.821c0-1.323,0.383-2.76,1.156-4.309
							c0.771-1.543,1.823-2.761,3.149-3.646C315.581-137.607,315.633-137.219,315.746-136.672z M322.542-141.809
							c0,0.662-0.223,1.106-0.663,1.325c-0.445,0.226-0.663-0.219-0.663-1.325c0-1.104,0.218-1.544,0.663-1.324
							C322.319-142.911,322.542-142.473,322.542-141.809z"/>
						<path fill="#EA118D" d="M1.326-127.223v0.993c0.44,1.326,1.16,3.148,2.155,5.472c0.994,2.318,1.6,3.479,1.823,3.479h1.657
							c0-1.104,0.383-2.266,1.16-3.479c0.771-1.211,1.709-1.822,2.817-1.822h0.332c0.217,0.223,0.715,0.662,1.491,1.326
							c0.771,0.662,1.27,1.105,1.492,1.326h0.331h0.663c0.44-0.22,0.938-0.664,1.491-1.326c0.55-0.664,0.938-1.104,1.161-1.326
							c0.439,0.886,1.6,1.822,3.48,2.816c1.875,0.993,3.258,1.385,4.144,1.159c0.44-0.218,1.932-0.829,4.475-1.821
							c2.538-0.994,4.03-1.709,4.476-2.154l5.304,5.304c0.663,0.663,1.435,0.166,2.32-1.492c0.881-1.657,1.544-2.485,1.989-2.485
							h0.663c1.988,1.107,3.48,2.045,4.475,2.816c0.995,0.777,2.704,1.16,5.139,1.16h0.663c0.217-0.217,0.828-0.715,1.823-1.492
							c0.994-0.771,1.709-1.16,2.154-1.16c0.44,0,0.938,0.332,1.492,0.995c0.549,0.663,0.828,1.218,0.828,1.657
							c2.652-1.543,3.979-3.314,3.979-5.305c0-1.326-0.446-2.207-1.326-2.651c-0.886-0.44-1.326-1.435-1.326-2.983v-0.994
							c0-0.217,0.108-0.549,0.331-0.993c0.44,1.106,1.27,1.987,2.486,2.651c1.212,0.662,2.372,1.107,3.48,1.325
							c-0.445,0.446-0.828,1.44-1.16,2.983c-0.331,1.549-0.279,2.652,0.166,3.312c0.218,0.446,0.994,0.995,2.32,1.658
							c1.326,0.663,2.207,0.994,2.652,0.994c1.326-1.104,2.098-2.206,2.32-3.312c0.218-1.104,1.104-1.769,2.652-1.99
							c0.439,0.664,0.938,1.492,1.491,2.484c0.549,0.994,1.16,1.492,1.823,1.492h0.663c0.218-0.218,0.497-0.438,0.829-0.662
							c0.331-0.218,0.497-0.439,0.497-0.664c0.88-0.88,1.325-1.766,1.325-2.65l-3.646-6.297c-0.224-0.219-0.166-0.498,0.165-0.83
							c0.332-0.332,0.606-0.496,0.829-0.496H83.2v0.33c1.988,0,3.589,0.39,4.807,1.162c1.212,0.774,2.429,1.654,3.646,2.649
							c1.212,0.994,2.372,1.88,3.48,2.652c1.104,0.774,2.538,1.157,4.31,1.157c0.217,0,0.663-0.496,1.325-1.489
							c0.663-0.995,1.326-2.101,1.989-3.315c0.663-1.212,1.212-2.369,1.657-3.479c0.44-1.104,0.663-1.875,0.663-2.32h0.663h0.663
							c0.218,0.223,0.331,0.663,0.331,1.326v9.281c0.44,0,0.772-0.108,0.995-0.332c2.429-1.768,4.361-3.479,5.801-5.137
							c1.435-1.658,3.921-2.486,7.459-2.486c0.44,0,1.212,0.33,2.32,0.994c1.104,0.662,1.875,1.217,2.32,1.658
							c0-0.884,0.383-1.77,1.16-2.652c0.771-0.881,1.709-1.326,2.817-1.326c0,0.223,0.109,0.445,0.332,0.662l0.663,0.664
							c0.217,0.445,0.44,1.492,0.663,3.146c0.217,1.657,0.439,2.709,0.662,3.149c0.218,0,0.663,0.057,1.326,0.166
							c0.663,0.112,1.104,0.166,1.326,0.166c1.989,0,3.755-0.498,5.304-1.492c1.544-0.994,3.315-1.492,5.304-1.492
							c0.881,0,1.544,0.226,1.989,0.663c0.44,0.444,0.549,1.549,0.332,3.314c0.662-1.768,1.377-2.87,2.154-3.314
							c0.771-0.438,1.823-0.663,3.149-0.663c1.325,0,2.206,0.28,2.651,0.829c0.44,0.557,1.212,0.829,2.32,0.829
							c0.881,0,1.989-0.829,3.315-2.483c1.326-1.658,2.595-3.533,3.812-5.638c1.213-2.098,2.264-4.192,3.149-6.298
							c0.881-2.1,1.326-3.589,1.326-4.477c0-0.219-0.057-0.715-0.166-1.491c-0.113-0.771-0.165-1.378-0.165-1.822
							c-1.771-0.219-2.983-1.047-3.646-2.486c-0.663-1.436-1.549-2.595-2.652-3.48l-2.651,7.625c-3.315-2.43-5.915-6.02-7.79-10.773
							c-1.881-4.75-2.818-9.002-2.818-12.762c-2.212,0-3.48,0.828-3.812,2.486c-0.332,1.658-0.721,3.48-1.161,5.469h-0.331
							c-0.663,0-1.217-0.383-1.657-1.159c-0.445-0.771-0.886-1.657-1.326-2.651c-0.445-0.996-0.942-1.875-1.492-2.652
							c-0.554-0.772-1.383-1.16-2.485-1.16c-4.424,0-8.898,0.611-13.426,1.822c-4.532,1.217-8.898,1.824-13.094,1.824
							c-0.886,0-1.605-0.166-2.155-0.498c-0.554-0.332-1.273-0.498-2.154-0.498c-2.652,0-5.47,0.389-8.453,1.16
							c-2.983,0.777-5.692,1.16-8.121,1.16c-0.445,0-1.771-0.166-3.979-0.497c-2.211-0.332-3.537-0.606-3.978-0.829h-0.663h-0.331
							c-0.446,0.223-1.161,0.497-2.155,0.829c-0.994,0.332-1.605,0.497-1.823,0.497c-0.223,0-0.663-0.217-1.326-0.663
							c-0.662-0.44-1.108-0.663-1.325-0.663c-1.108,0-1.989,1.108-2.652,3.314c-0.663,2.212-1.88,3.314-3.646,3.314l-0.663-0.662
							l-0.663-0.664c-0.223-0.217-0.497-0.383-0.828-0.496c-0.332-0.109-0.721-0.383-1.16-0.83
							c-0.663-0.217-1.218-0.549-1.658-0.993h-0.331l-0.663-0.332l-0.663,0.332c-0.445,0.886-0.663,1.823-0.663,2.817
							c0,0.994-0.554,1.713-1.657,2.154c-1.108-0.439-1.657-1.326-1.657-2.652c0-1.326,0.549-2.651,1.657-3.979
							c-0.445-0.217-1.108-0.497-1.989-0.829c-0.886-0.331-1.549-0.497-1.988-0.497l-1.326,0.663l-1.326,0.663
							c-0.223,0.223-0.445,0.332-0.663,0.332H51.05l-0.994-0.332l-1.326-1.326c-2.435,0-4.755,0.497-6.961,1.492
							c-2.212,0.994-4.424,1.492-6.63,1.492c-1.108,0-1.771-0.275-1.989-0.829c-0.223-0.549-0.886-0.829-1.989-0.829H30.83
							c-0.223,0.223-0.497,0.497-0.829,0.829c-0.331,0.332-0.497,0.61-0.497,0.829c-0.445-2.207-1.491-3.424-3.149-3.646
							c-1.657-0.218-3.148-0.332-4.475-0.332c-2.435,0-4.424,0.664-5.967,1.989c-1.549,1.326-2.543,3.206-2.983,5.636l0.663,1.325
							c0.217,0.445,0.44,0.777,0.663,0.995v2.982c0,1.99-0.611,3.264-1.823,3.812c-1.218,0.555-2.652,1.16-4.31,1.823
							s-3.264,1.714-4.807,3.149c-1.549,1.438-2.652,4.035-3.315,7.789l0.663,1.326c0.218,0.443,0.44,0.775,0.663,0.994
							c0,0.444-0.166,0.94-0.497,1.491c-0.331,0.556-0.611,0.94-0.829,1.16c0.44,0,1.104,0.166,1.989,0.496
							c0.881,0.331,1.435,0.61,1.657,0.829l0.332,0.662l-0.332,0.662c-0.223,0.226-0.663,0.445-1.325,0.664
							c-0.663,0.223-0.995,0.444-0.995,0.662L1.326-127.223L1.326-127.223z M20.222-163.688c1.543,0,2.538,0.555,2.983,1.658h-1.326
							c-1.549,0-2.435-0.549-2.652-1.658H20.222z M23.205-130.206c-0.445,0-0.663-0.275-0.663-0.83c0-0.55,0.218-0.716,0.663-0.496
							C24.085-131.088,24.085-130.647,23.205-130.206z M24.199-159.71h1.326v1.326L24.199-159.71z M33.149-158.383h0.994h0.332
							c0.44,0.223,0.938,0.446,1.491,0.664c0.55,0.223,0.938,0.444,1.16,0.662c-0.445,0.887-0.942,1.771-1.491,2.652
							c-0.555,0.886-1.383,1.326-2.486,1.326V-158.383z M59.669-125.068c0,0.775-0.223,1.161-0.663,1.161
							c-0.663,0-0.994-0.383-0.994-1.161c0-0.771,0.331-1.16,0.994-1.16C59.446-126.229,59.669-125.84,59.669-125.068z
							 M73.923-159.71c0,0.887-0.331,1.326-0.994,1.326c-0.445,0-0.663-0.439-0.663-1.326c0-0.879,0.218-1.326,0.663-1.326
							C73.592-161.036,73.923-160.589,73.923-159.71z M74.255-152.085h2.651c0,1.99-0.886,2.983-2.651,2.983V-152.085z
							 M79.227-159.71c0,0.887-0.445,1.326-1.325,1.326c-0.446,0-0.663-0.439-0.663-1.326c0-0.879,0.217-1.326,0.663-1.326
							C78.781-161.036,79.227-160.589,79.227-159.71z M81.547-145.62c0,0.993-0.223,1.491-0.662,1.491
							c-0.663,0-0.995-0.498-0.995-1.491c0-0.996,0.332-1.492,0.995-1.492C81.324-147.112,81.547-146.616,81.547-145.62z
							 M84.53-136.506l-1.325,1.326c-0.886-0.662-1.326-1.656-1.326-2.981C82.982-138.163,83.868-137.607,84.53-136.506z
							 M84.53-132.858c-0.445,0.224-0.662,0.058-0.662-0.497c0-0.549,0.217-0.829,0.662-0.829
							C85.411-133.738,85.411-133.299,84.53-132.858z M85.856-159.71h2.652c0.218,0,0.497,0.664,0.828,1.99
							c0.332,1.325,0.498,2.434,0.498,3.314c0,1.107-0.389,1.938-1.16,2.486c-0.777,0.553-1.715,0.828-2.818,0.828V-159.71z
							 M93.481-134.186c0.217,0.225,0.497,0.444,0.828,0.663c0.332,0.226,0.497,0.445,0.497,0.663v0.663v0.662
							c0,0.887-0.445,1.325-1.325,1.325V-134.186z M111.382-134.186h1.326v2.651h-1.326V-134.186z M123.979-134.02
							c0,0.776-0.332,1.16-0.995,1.16c-0.662,0-0.994-0.384-0.994-1.16c0-0.771,0.332-1.158,0.994-1.158
							S123.979-134.79,123.979-134.02z M133.26-152.085h0.663h0.663c0.218,0.224,0.44,0.664,0.663,1.326
							c0.218,0.664,0.331,1.108,0.331,1.326c0,0.445-0.279,0.777-0.828,0.994c-0.555,0.223-1.052,0.332-1.492,0.332V-152.085
							L133.26-152.085z M135.249-160.87c0,0.777-0.223,1.16-0.663,1.16c-0.663,0-0.994-0.383-0.994-1.16
							c0-0.771,0.331-1.159,0.994-1.159C135.026-162.029,135.249-161.641,135.249-160.87z M135.58-154.405
							c-0.445,0-0.663-0.273-0.663-0.829c0-0.55,0.218-0.829,0.663-0.829C136.684-155.618,136.684-155.068,135.58-154.405z
							 M146.354-136.672c0.109,0.556,0.166,1.052,0.166,1.492c0,1.107-0.331,2.271-0.994,3.479c-0.663,1.218-1.88,1.821-3.646,1.821
							c0-1.323,0.383-2.76,1.16-4.309c0.771-1.543,1.823-2.761,3.149-3.646C146.188-137.607,146.24-137.219,146.354-136.672z
							 M153.149-141.809c0,0.662-0.223,1.106-0.663,1.325c-0.445,0.226-0.663-0.219-0.663-1.325c0-1.104,0.218-1.544,0.663-1.324
							C152.927-142.911,153.149-142.473,153.149-141.809z"/>
						<path fill="#EA118D" d="M86.022-166.219v0.993c0.44,1.326,1.16,3.149,2.155,5.47c0.994,2.32,1.6,3.48,1.823,3.48h1.657
							c0-1.104,0.383-2.264,1.16-3.48c0.771-1.211,1.709-1.822,2.817-1.822h0.332c0.217,0.223,0.715,0.662,1.491,1.326
							c0.771,0.662,1.27,1.107,1.492,1.326h0.331h0.663c0.44-0.219,0.938-0.664,1.491-1.326c0.55-0.664,0.938-1.104,1.161-1.326
							c0.439,0.886,1.6,1.822,3.48,2.818c1.875,0.993,3.258,1.383,4.144,1.159c0.44-0.218,1.932-0.829,4.475-1.823
							c2.538-0.994,4.03-1.709,4.476-2.154l5.304,5.304c0.663,0.663,1.435,0.166,2.32-1.491c0.881-1.656,1.544-2.486,1.989-2.486
							h0.663c1.988,1.108,3.48,2.047,4.475,2.817c0.995,0.776,2.704,1.16,5.139,1.16h0.663c0.217-0.218,0.828-0.714,1.823-1.491
							c0.994-0.771,1.709-1.16,2.154-1.16c0.44,0,0.938,0.332,1.492,0.994c0.549,0.663,0.828,1.219,0.828,1.657
							c2.652-1.543,3.979-3.313,3.979-5.304c0-1.325-0.446-2.207-1.326-2.651c-0.886-0.44-1.326-1.435-1.326-2.983v-0.994
							c0-0.217,0.108-0.549,0.331-0.994c0.44,1.107,1.27,1.988,2.486,2.652c1.212,0.662,2.372,1.107,3.48,1.324
							c-0.445,0.446-0.828,1.439-1.16,2.982c-0.331,1.55-0.279,2.652,0.166,3.316c0.218,0.444,0.994,0.993,2.32,1.656
							c1.326,0.663,2.207,0.994,2.652,0.994c1.326-1.104,2.098-2.206,2.32-3.314c0.218-1.104,1.104-1.767,2.652-1.988
							c0.439,0.662,0.938,1.492,1.491,2.486c0.549,0.993,1.16,1.491,1.823,1.491h0.663c0.218-0.218,0.497-0.44,0.829-0.663
							c0.331-0.218,0.497-0.439,0.497-0.662c0.88-0.882,1.325-1.768,1.325-2.652l-3.646-6.299c-0.224-0.217-0.166-0.496,0.165-0.828
							c0.332-0.332,0.606-0.498,0.829-0.498h1.326v0.332c1.988,0,3.589,0.389,4.807,1.16c1.212,0.776,2.429,1.658,3.646,2.651
							c1.212,0.994,2.372,1.88,3.48,2.651c1.104,0.777,2.538,1.16,4.31,1.16c0.217,0,0.663-0.496,1.325-1.491
							c0.663-0.994,1.326-2.099,1.989-3.313c0.663-1.213,1.212-2.373,1.657-3.48c0.44-1.104,0.663-1.875,0.663-2.32h0.663h0.663
							c0.218,0.223,0.331,0.663,0.331,1.326v9.281c0.44,0,0.772-0.108,0.995-0.332c2.429-1.766,4.361-3.479,5.801-5.137
							c1.435-1.658,3.921-2.486,7.459-2.486c0.44,0,1.212,0.33,2.32,0.994c1.104,0.662,1.875,1.218,2.32,1.658
							c0-0.881,0.383-1.768,1.16-2.652c0.771-0.881,1.709-1.326,2.817-1.326c0,0.223,0.109,0.445,0.332,0.663l0.663,0.663
							c0.217,0.445,0.44,1.492,0.663,3.148c0.217,1.657,0.439,2.709,0.662,3.149c0.218,0,0.663,0.058,1.326,0.165
							c0.663,0.113,1.104,0.166,1.326,0.166c1.989,0,3.755-0.497,5.304-1.492c1.544-0.994,3.315-1.49,5.304-1.49
							c0.881,0,1.544,0.223,1.989,0.662c0.44,0.445,0.549,1.549,0.332,3.314c0.662-1.766,1.377-2.869,2.154-3.314
							c0.771-0.438,1.823-0.662,3.149-0.662c1.325,0,2.206,0.278,2.651,0.828c0.44,0.555,1.212,0.828,2.32,0.828
							c0.881,0,1.989-0.828,3.315-2.486c1.326-1.656,2.595-3.531,3.812-5.635c1.213-2.098,2.264-4.195,3.149-6.299
							c0.881-2.098,1.326-3.59,1.326-4.475c0-0.219-0.057-0.715-0.166-1.492c-0.113-0.771-0.165-1.379-0.165-1.823
							c-1.771-0.218-2.983-1.046-3.646-2.485c-0.663-1.436-1.549-2.596-2.652-3.48l-2.651,7.625c-3.315-2.43-5.915-6.02-7.79-10.773
							c-1.881-4.752-2.818-9.005-2.818-12.765c-2.212,0-3.48,0.828-3.812,2.484c-0.332,1.658-0.721,3.481-1.161,5.471h-0.331
							c-0.663,0-1.217-0.383-1.657-1.16c-0.445-0.771-0.886-1.657-1.326-2.65c-0.445-0.996-0.942-1.875-1.492-2.652
							c-0.554-0.771-1.383-1.16-2.485-1.16c-4.424,0-8.898,0.611-13.426,1.822c-4.532,1.218-8.898,1.824-13.094,1.824
							c-0.886,0-1.605-0.166-2.155-0.498c-0.554-0.332-1.273-0.496-2.154-0.496c-2.652,0-5.47,0.388-8.453,1.16
							c-2.983,0.775-5.692,1.159-8.121,1.159c-0.445,0-1.771-0.166-3.979-0.497c-2.211-0.332-3.537-0.605-3.978-0.828h-0.663h-0.331
							c-0.446,0.223-1.161,0.496-2.155,0.828c-0.994,0.331-1.605,0.497-1.823,0.497c-0.223,0-0.663-0.218-1.326-0.663
							c-0.662-0.439-1.108-0.662-1.325-0.662c-1.108,0-1.989,1.107-2.652,3.313c-0.663,2.212-1.88,3.315-3.646,3.315l-0.663-0.664
							l-0.663-0.662c-0.223-0.219-0.497-0.383-0.828-0.498c-0.332-0.107-0.721-0.383-1.16-0.828
							c-0.663-0.217-1.218-0.549-1.658-0.994h-0.331l-0.663-0.331l-0.663,0.331c-0.445,0.887-0.663,1.822-0.663,2.816
							c0,0.996-0.554,1.715-1.657,2.156c-1.108-0.441-1.657-1.326-1.657-2.652c0-1.326,0.549-2.651,1.657-3.979
							c-0.445-0.218-1.108-0.497-1.989-0.829c-0.886-0.33-1.549-0.496-1.988-0.496l-1.326,0.662l-1.326,0.663
							c-0.223,0.224-0.445,0.331-0.663,0.331h-0.663l-0.994-0.331l-1.326-1.325c-2.435,0-4.755,0.496-6.961,1.491
							c-2.212,0.994-4.424,1.491-6.63,1.491c-1.108,0-1.771-0.273-1.989-0.829c-0.223-0.549-0.886-0.828-1.989-0.828h-0.331
							c-0.223,0.224-0.497,0.497-0.829,0.828c-0.331,0.332-0.497,0.61-0.497,0.829c-0.445-2.206-1.491-3.424-3.149-3.646
							c-1.657-0.218-3.148-0.33-4.475-0.33c-2.435,0-4.424,0.662-5.967,1.988c-1.549,1.325-2.543,3.205-2.983,5.635l0.663,1.326
							c0.217,0.445,0.44,0.776,0.663,0.994v2.982c0,1.99-0.611,3.265-1.823,3.812c-1.218,0.555-2.652,1.16-4.31,1.823
							c-1.658,0.663-3.264,1.714-4.807,3.147c-1.549,1.44-2.652,4.035-3.315,7.791l0.663,1.326c0.218,0.444,0.44,0.776,0.663,0.994
							c0,0.445-0.166,0.942-0.497,1.491c-0.331,0.556-0.611,0.942-0.829,1.16c0.44,0,1.104,0.166,1.989,0.497
							c0.881,0.332,1.435,0.611,1.657,0.828l0.332,0.664l-0.332,0.662c-0.223,0.224-0.663,0.445-1.325,0.664
							c-0.663,0.223-0.995,0.444-0.995,0.662v0.334L86.022-166.219L86.022-166.219z M104.918-202.686
							c1.543,0,2.538,0.554,2.983,1.657h-1.326c-1.549,0-2.435-0.549-2.652-1.657H104.918z M107.901-169.204
							c-0.445,0-0.663-0.273-0.663-0.828c0-0.549,0.218-0.715,0.663-0.497C108.781-170.085,108.781-169.646,107.901-169.204z
							 M108.896-198.706h1.326v1.326L108.896-198.706z M117.846-197.38h0.994h0.332c0.44,0.223,0.938,0.444,1.491,0.662
							c0.55,0.223,0.938,0.445,1.16,0.664c-0.445,0.885-0.942,1.77-1.491,2.65c-0.555,0.886-1.383,1.326-2.486,1.326V-197.38z
							 M144.365-164.065c0,0.777-0.223,1.161-0.663,1.161c-0.663,0-0.994-0.384-0.994-1.161c0-0.771,0.331-1.16,0.994-1.16
							C144.143-165.228,144.365-164.837,144.365-164.065z M158.619-198.706c0,0.886-0.331,1.326-0.994,1.326
							c-0.445,0-0.663-0.44-0.663-1.326c0-0.881,0.218-1.326,0.663-1.326C158.288-200.032,158.619-199.587,158.619-198.706z
							 M158.951-191.083h2.651c0,1.99-0.886,2.983-2.651,2.983V-191.083z M163.923-198.706c0,0.886-0.445,1.326-1.325,1.326
							c-0.446,0-0.663-0.44-0.663-1.326c0-0.881,0.217-1.326,0.663-1.326C163.478-200.032,163.923-199.587,163.923-198.706z
							 M166.243-184.618c0,0.994-0.223,1.492-0.662,1.492c-0.663,0-0.995-0.498-0.995-1.492c0-0.994,0.332-1.491,0.995-1.491
							C166.021-186.109,166.243-185.612,166.243-184.618z M169.227-175.503l-1.325,1.326c-0.886-0.662-1.326-1.656-1.326-2.982
							C167.679-177.159,168.564-176.605,169.227-175.503z M169.227-171.855c-0.445,0.224-0.662,0.058-0.662-0.497
							c0-0.549,0.217-0.828,0.662-0.828C170.107-172.735,170.107-172.296,169.227-171.855z M170.553-198.706h2.652
							c0.218,0,0.497,0.662,0.828,1.988c0.332,1.326,0.498,2.436,0.498,3.314c0,1.107-0.389,1.938-1.16,2.486
							c-0.777,0.555-1.715,0.828-2.818,0.828V-198.706z M178.178-173.181c0.217,0.224,0.497,0.445,0.828,0.663
							c0.332,0.223,0.497,0.445,0.497,0.662v0.663v0.663c0,0.886-0.445,1.326-1.325,1.326V-173.181z M196.078-173.181h1.326v2.651
							h-1.326V-173.181z M208.675-173.016c0,0.777-0.332,1.16-0.995,1.16c-0.662,0-0.994-0.383-0.994-1.16
							c0-0.771,0.332-1.16,0.994-1.16C208.343-174.176,208.675-173.788,208.675-173.016z M217.956-191.083h0.663h0.663
							c0.218,0.225,0.44,0.664,0.663,1.326c0.218,0.664,0.331,1.108,0.331,1.326c0,0.445-0.279,0.777-0.828,0.994
							c-0.555,0.223-1.052,0.332-1.492,0.332V-191.083L217.956-191.083z M219.945-199.866c0,0.777-0.223,1.16-0.663,1.16
							c-0.663,0-0.994-0.383-0.994-1.16c0-0.771,0.331-1.16,0.994-1.16C219.723-201.026,219.945-200.637,219.945-199.866z
							 M220.276-193.402c-0.445,0-0.663-0.274-0.663-0.828c0-0.549,0.218-0.829,0.663-0.829
							C221.38-194.614,221.38-194.065,220.276-193.402z M231.05-175.669c0.109,0.555,0.166,1.051,0.166,1.492
							c0,1.107-0.331,2.268-0.994,3.479c-0.663,1.219-1.88,1.824-3.646,1.824c0-1.326,0.383-2.762,1.16-4.31
							c0.771-1.544,1.823-2.761,3.149-3.646C230.885-176.605,230.937-176.216,231.05-175.669z M237.846-180.806
							c0,0.663-0.223,1.108-0.663,1.326c-0.445,0.224-0.663-0.218-0.663-1.326c0-1.103,0.218-1.543,0.663-1.325
							C237.623-181.909,237.846-181.469,237.846-180.806z"/>
					</g>
				</g>
			</g>
		</g>
	</g>
</pattern>
<rect x="-104.833" y="-148.819" fill="#414042" width="419.516" height="595.277"/>
<rect x="-105.018" y="361.417" fill="#FFFFFF" width="419.527" height="85.041"/>
<g>
	<text transform="matrix(1 0 0 1 -36.5127 -93.04)" fill="#FFFFFF" font-family="'TrebuchetMS'" font-size="22.8">Prikkelbaar Darm Syndroom</text>
	<g>
		<polygon fill="#EA118D" points="293.438,338.716 24.143,338.716 -83.575,214.845 24.143,53.269 -83.575,-70.606 185.715,-70.606 
			293.438,53.269 185.715,214.845 		"/>
		<polygon fill="none" points="277.277,330.639 29.53,330.639 -72.802,214.845 34.916,53.269 -67.417,-62.895 180.332,-62.895 
			282.664,53.269 174.949,214.845 		"/>
		<text transform="matrix(1 0 0 1 -60.0234 -54.4932)" fill="#FFFFFF" font-family="'TrebuchetMS'" font-size="11.4">Waar komt het vandaan?</text>
		<text transform="matrix(1 0 0 1 -43.9531 -36.2549)" fill="#FFFFFF" font-family="'TrebuchetMS'" font-size="7.6">Er is wetenschappelijk aangetoond dat bij mensen met PDS sprake is </text>
		<text transform="matrix(1 0 0 1 -35.9199 -27.1338)" fill="#FFFFFF" font-family="'TrebuchetMS'" font-size="7.6">van centrale sensitisatie.</text>
		<text transform="matrix(1 0 0 1 -27.8857 -18.0127)" fill="#FFFFFF" font-family="'TrebuchetMS'" font-size="7.6">Prikkels van de darmen worden afwijkend verwerkt.</text>
		<text transform="matrix(1 0 0 1 -19.8545 -8.8936)" fill="#FFFFFF" font-family="'TrebuchetMS'" font-size="7.6">Bij Centrale Sensitisatie (zie boek Pijn &amp; het Brein) is de pijn gebleven </text>
		<text transform="matrix(1 0 0 1 -11.8174 0.2256)" fill="#FFFFFF" font-family="'TrebuchetMS'" font-size="7.6">terwijl de normale hersteltijd van weefsels al (lang) achter je ligt.</text>
		<text transform="matrix(1 0 0 1 -3.7852 9.3447)" fill="#FFFFFF" font-family="'TrebuchetMS'" font-size="7.6">Bij ongeveer n op de drie mensen met een verhoogd waakzaam </text>
		<text transform="matrix(1 0 0 1 4.249 18.4678)" fill="#FFFFFF" font-family="'TrebuchetMS'" font-size="7.6">systeem speelt er onderliggende traumatisering.</text>
		<text transform="matrix(1 0 0 1 12.2812 27.5869)" fill="#FFFFFF" font-family="'TrebuchetMS'" font-size="7.6">Hierbij treedt vaak vermijding op.</text>
		<text transform="matrix(1 0 0 1 20.3184 36.7061)" fill="#FFFFFF" font-family="'TrebuchetMS'" font-size="7.6">Langdurig veel stress kan voor veel problemen zorgen en zelfs </text>
		<text transform="matrix(1 0 0 1 28.3525 45.8252)" fill="#FFFFFF" font-family="'TrebuchetMS'" font-size="7.6">aandoeningen veroorzaken. </text>
		<text transform="matrix(1 0 0 1 33.7998 54.9463)" fill="#FFFFFF" font-family="'TrebuchetMS'" font-size="7.6">Wat PDS betreft heeft stress direct invloed op de spijsvertering en </text>
		<text transform="matrix(1 0 0 1 31.083 64.0674)" fill="#FFFFFF" font-family="'TrebuchetMS'" font-size="7.6">verklaart de extra klachten tijdens stress.</text>
		<text transform="matrix(1 0 0 1 17.5645 86.8662)" fill="#FFFFFF" font-family="'TrebuchetMS'" font-size="11.4">Wat is eraan te doen?</text>
		<text transform="matrix(1 0 0 1 3.7227 105.1064)" fill="#FFFFFF" font-family="'TrebuchetMS'" font-size="7.6">Uit wetenschappelijk onderzoek sinds 1980 en in de praktijk blijkt dat </text>
		<text transform="matrix(1 0 0 1 -2.3574 114.2256)" fill="#FFFFFF" font-family="'TrebuchetMS'" font-size="7.6">behandeling met hypnotherapie bij PDS helpt. </text>
		<text transform="matrix(1 0 0 1 -8.4385 123.3447)" fill="#FFFFFF" font-family="'TrebuchetMS'" font-size="7.6">Het behandelprogramma &apos;Darmmanagement bij PDS&apos;, gebaseerd op het </text>
		<text transform="matrix(1 0 0 1 -14.5156 132.4678)" fill="#FFFFFF" font-family="'TrebuchetMS'" font-size="7.6">hypnotherapeutisch IBS-protocol van professor Peter Whorwell, wordt </text>
		<text transform="matrix(1 0 0 1 -20.5938 141.5869)" fill="#FFFFFF" font-family="'TrebuchetMS'" font-size="7.6">sinds 1996 met succes in Nederland toegepast. </text>
		<text transform="matrix(1 0 0 1 -26.6768 150.7061)" fill="#FFFFFF" font-family="'TrebuchetMS'" font-size="7.6">De meeste mensen ervaren door de behandeling een sterke </text>
		<text transform="matrix(1 0 0 1 -32.752 159.8271)" fill="#FFFFFF" font-family="'TrebuchetMS'" font-size="7.6">vermindering van de klachten of ze verdwijnen helemaal.</text>
		<text transform="matrix(1 0 0 1 -44.9131 178.0674)" fill="#FFFFFF" font-family="'TrebuchetMS'" font-size="7.6">Tijdens het behandelprogramma PDS wordt gewerkt met:</text>
		<text transform="matrix(1 0 0 1 -50.9941 187.1865)" fill="#FFFFFF" font-family="'TrebuchetMS'" font-size="7.6">- Visualisaties (zie het YouTube fimpje: Hypnose op recept in ca. 70 </text>
		<text transform="matrix(1 0 0 1 -57.0771 196.3076)" fill="#FFFFFF" font-family="'TrebuchetMS'" font-size="7.6">Nederlandse ziekenhuizen). Deze visualisaties hebben positieve </text>
		<text transform="matrix(1 0 0 1 -63.1553 205.4268)" fill="#FFFFFF" font-family="'TrebuchetMS'" font-size="7.6">effecten op de darmwerking.</text>
		<text transform="matrix(1 0 0 1 -69.2354 214.5479)" fill="#FFFFFF" font-family="'TrebuchetMS'" font-size="7.6">- Ademhalings- en ontspanningsoefeningen, die zowel bijdragen aan </text>
		<text transform="matrix(1 0 0 1 -65.0127 223.667)" fill="#FFFFFF" font-family="'TrebuchetMS'" font-size="7.6">ontspanning in je buik als aan totale lichamelijke ontspanning.</text>
		<text transform="matrix(1 0 0 1 -56.9541 232.7881)" fill="#FFFFFF" font-family="'TrebuchetMS'" font-size="7.6">- Pijnveranderingstechnieken.</text>
		<text transform="matrix(1 0 0 1 -48.8945 241.9072)" fill="#FFFFFF" font-family="'TrebuchetMS'" font-size="7.6">- Anders leren omgaan met stressvolle situaties, waardoor de dikke </text>
		<text transform="matrix(1 0 0 1 -40.8359 251.0264)" fill="#FFFFFF" font-family="'TrebuchetMS'" font-size="7.6">darm minder prikkels te verwerken krijgt en verkramping en pijn </text>
		<text transform="matrix(1 0 0 1 -32.7734 260.1475)" fill="#FFFFFF" font-family="'TrebuchetMS'" font-size="7.6">kunnen afnemen.</text>
		<text transform="matrix(1 0 0 1 -12.626 282.9482)" fill="#FFFFFF" font-family="'TrebuchetMS'" font-size="11.4">Kortom:</text>
		<text transform="matrix(1 0 0 1 3.4941 301.1865)" fill="#FFFFFF" font-family="'TrebuchetMS'" font-size="7.6">1: Vermindering van lichamelijke klachten, pijnvermindering en </text>
		<text transform="matrix(1 0 0 1 11.5479 310.3076)" fill="#FFFFFF" font-family="'TrebuchetMS'" font-size="7.6">herstel van de stoelgang.</text>
		<text transform="matrix(1 0 0 1 19.6104 319.4268)" fill="#FFFFFF" font-family="'TrebuchetMS'" font-size="7.6">2: Regie over darmfunctie.</text>
		<text transform="matrix(1 0 0 1 27.6748 328.5479)" fill="#FFFFFF" font-family="'TrebuchetMS'" font-size="7.6">3: Vergroting van zelfvertrouwen en stressbestendigheid.</text>
	</g>
	<g>
		<g>
			<g>
				<path fill="#EA118D" d="M271.064,173.769c-0.408,1.684-0.463,3.072-1.533,4.406c-1.141,1.406-1.939,2.676-0.936,4.586
					c1.127,2.07,3.906,1.918,3.912,5.008c-0.014,1.773-1.838,2.906-2.01,4.648c2.922-1.637,4.229-6.703,2.319-9.717
					c-1.123-1.807-1.901-2.789-1.26-5.123c0.577-2.154,2.069-3.885,3.704-5.109c0.228-0.176,0.509-0.408,0.787-0.582l1.377-1.113
					C275.005,168.698,271.843,170.507,271.064,173.769z"/>
			</g>
			<g>
				<path fill="#EA118D" d="M273.421,168.308c-1.336,0.617-2.254,1.695-2.754,3.158c-0.379,1.293-0.379,2.664-0.871,3.885
					c-0.602,1.469-1.895,2.336-2.5,3.801c-0.799,2.141-0.354,4.604,0.938,6.293c0.828,1.043,1.728,1.779,2.052,3.172
					c0.317,1.453-0.279,2.732-0.445,4.098c0.229-0.082,0.449-0.188,0.662-0.299c0.172-1.742,1.996-2.877,2.01-4.648
					c-0.006-3.09-2.785-2.938-3.912-5.008c-1.004-1.91-0.205-3.18,0.936-4.586c1.064-1.334,1.123-2.723,1.535-4.406
					c0.777-3.262,3.939-5.07,6.363-2.992l1.445-1.17C276.848,167.185,274.312,167.859,273.421,168.308z"/>
			</g>
		</g>
		<g>
			<path d="M293.43,180.659c0.276-5.789-6.974-9.857-9.979-4.697c-1.642,2.816-2.188,6.264-3.693,9.234
				c-1.775,3.441-3.963,6.57-6.287,9.389c-4.105,5.166-9.299,10.33-15.176,12.676c-2.461,0.938-4.926,1.092-7.385,1.408
				c-1.64,0.152-6.701-0.471-7.658,1.404c-1.773,3.289,6.84,2.506,8.479,2.506c3.556,0,7.108-0.156,10.664-0.156
				c3.146,0,6.562,0.467,8.888-1.723c2.731-2.502,4.784-5.477,6.836-8.447c5.057-6.889,10.116-13.773,15.176-20.502"/>
		</g>
		<g>
			<path fill="#E5AB8D" d="M249.3,207.65c-3.897,0.943-8.204-2.109-11.073-4.691c-2.259-1.877-4.513-4.109-6.972-5.512
				c-2.26-1.297-4.104,1.168-6.153,2.576c-4.31,2.701-8.103,4.459-12.715,5.869c-1.128,0.357-2.459,0.469-3.486,1.172
				c-1.025,0.709-1.332,1.881-2.357,2.115c-1.229,0.352-5.143-0.887-6.375-1.357c-3.488-1.172,2.477-1.342,3.814-1.459
				c1.744-0.117,3.689-0.471,5.332-1.406c4.713-2.465,8.92-5.754,13.229-9.039c2.049-1.529,4.098-3.521,6.354-4.697
				c2.156-1.176,4.104-0.236,6.256,0.705c5.025,2.113,10.15,3.875,15.179,5.746c0.512,0.24,1.332,1.643,1.844,1.766"/>
		</g>
		<g>
			<path fill="#EA118D" d="M244.675,203.525c-0.758,0.777-2.625,1.166-2.625,2.23c0,1.67,4.91,3.004,7.281,2.031
				c-0.508-0.672-2.625-1.162-3.129-1.936"/>
		</g>
		<g>
			<path fill="#E5AB8D" d="M271.859,188.056c-1.434,0.465-2.594,1.445-4.133,1.445c-1.949,0-4.617-1.445-5.74,0.783
				c-1.133,2.113-0.582,3.758-1.914,5.988c-1.336,2.227-3.693,4.105-6.154,3.52c-2.256-0.473-4.207-3.168-5.948-4.812
				c-1.742-1.762-3.591-3.521-5.435-5.043c-1.848-1.643-3.795-2.816-5.641-4.342c-2.871-2.23-4.408,0.234-6.459,3.045
				c-3.59,4.934-6.049,8.918-9.635,13.736c-1.438,1.992-3.078,3.99-5.234,4.693c-0.613,0.236-3.305,0.625-5.25,1.305
				c-0.086,0.098-0.68,0.75-0.68,0.871c2.566,0.703,5.59-0.482,7.363,0.197c2.539,0.967,2.098-1.369,4.621-3.895
				c4.524-4.535,7.793-7.867,10.973-12.559c0.719-1.053,1.229-2.576,2.461-1.996c0.82,0.471,1.947,3.172,2.459,4.111
				c1.436,2.697,3.197,5.643,4.939,8.105c3.18,4.461,6.646,4.922,11.567,4.57c4.72-0.354,7.592-2.113,10.877-6.221
				c1.638-1.996,3.379-4.104,5.022-6.219c1.229-1.758,3.59-3.992,4.31-5.984c0.203-0.352,0.306-0.707,0.306-1.176"/>
		</g>
		<g>
			<path fill="#E5AB8D" d="M274.309,170.478c-2.772-0.244-2.474,6.33-5.41,4.203c-0.387,1.381,1.069,1.744-0.219,3.27
				c0.059,0.564,0.534,0.963,1.016,1.178c-0.336,0.168-1.146-0.062-1.319,0.301c-0.275,0.641,0.625,0.783,0.672,1.445
				c0.176,1.695-1.398,2.262,0.861,3.043c1.045,0.34,2.604,0.328,3.377,1.492c0.604,1.064-0.812,1.83-2,2.795
				c0.567,0.033,1.922,1.043,2.487,1.074c0.181-2.242,1.363-3.209,3.054-4.52c1.521-1.135,2.725-2.566,3.377-4.498
				c1.387-3.861,0.43-8.313-3.367-9.551c-0.81-0.232-1.789-0.283-2.523-0.322"/>
		</g>
		<g>
			<g>
				<path fill="#DB967D" d="M276.074,179.402c0.07-0.523,0.25-0.977,0.609-1.375c0.807-0.898,1.387,0.326,1.383,1.068
					c0,0.496-0.266,0.979-0.527,1.383c-0.301,0.469-1.332,1.395-1.436,0.211c-0.012-0.119-0.191-0.123-0.184,0
					c0.049,0.57,0.291,0.996,0.901,0.734c0.726-0.312,1.326-1.395,1.404-2.148c0.069-0.668-0.132-1.742-0.972-1.754
					c-0.832-0.01-1.272,1.195-1.358,1.832C275.882,179.466,276.059,179.517,276.074,179.402L276.074,179.402z"/>
			</g>
		</g>
		<g>
			<g>
				<path fill="#DB967D" d="M276.792,179.388c0.422,0.145,0.398,0.316-0.059,0.516c-0.105,0.053-0.012,0.209,0.094,0.154
					c0.685-0.359,0.625-1.494-0.164-0.799C276.574,179.335,276.707,179.462,276.792,179.388L276.792,179.388z"/>
			</g>
		</g>
		<rect x="196.488" y="209.294" width="76.57" height="7.043"/>
		<g>
			<path fill="#EA118D" d="M272.71,170.921c-0.869,1.205,0.222,3.828,0.879,5.045c-0.432-1.396,0.134-3.18,1.207-3.994
				c0.463,1.963,3.021,3.475,1.777,5.781c1.035-1.256,1.879,0.727,1.621,1.773c-0.443,1.479-1.512,2.23-2.32,3.309
				c-0.522,0.781-0.858,2.266-1.172,3.246c-0.32,1.105-0.803,2.203-0.959,3.318c-0.309,2.234,0.631,4.529,1.926,6.225
				c0.136-1.928,0.299-3.291,1.136-4.998c0.896-1.764,1.78-3.4,3.038-4.828c2.466-2.863,4.853-6.418,4.318-10.695
				c-0.365-2.959-2.688-6.139-5.287-6.719c-2.651-0.516-5.043-0.713-6.213,2.473"/>
		</g>
		<g>
			<path fill="#EA118D" d="M283.582,177.132c2.082,3.799-2.309,6.932-4.098,9.334c-0.867,1.203-0.137,1.99,0.137,3.256
				c0.363,1.703-0.336,2.793-1.521,3.729c-1.916,1.453-2.904,3.023-1.976,5.51c-1.141-0.125-2.36-2.252-2.692-3.393
				c-0.435-1.463-1.44-3.039-2.037-4.445c-1.394-3.258,1.574-5.512,4.11-7.434c0.283-0.172,0.504-0.35,0.787-0.52"/>
		</g>
		<g>
			<path fill="#2B95B1" d="M271.988,175.212c-0.152,0.254-0.355,0.391-0.457,0.312c-0.104-0.082-0.062-0.355,0.09-0.607
				c0.146-0.252,0.355-0.389,0.457-0.311C272.182,174.689,272.141,174.958,271.988,175.212z"/>
			<path fill="#FFFFFF" d="M271.906,174.878c-0.043,0.076-0.105,0.121-0.137,0.092c-0.033-0.023-0.02-0.104,0.027-0.18
				c0.043-0.074,0.106-0.113,0.137-0.09C271.96,174.724,271.953,174.806,271.906,174.878z"/>
		</g>
		<g>
			<g>
				<path fill="#B84826" d="M272.046,173.698c0.713-0.07,0.963,0.199,0.754,0.805c-0.026,0.113,0.148,0.16,0.177,0.045
					c0.168-0.762-0.203-1.471-1.022-1.008C271.852,173.597,271.945,173.753,272.046,173.698L272.046,173.698z"/>
			</g>
		</g>
		<g>
			<g>
				<g>
					<path fill="#64461B" d="M271.816,174.618c-0.002-0.129,0.004-0.258,0.016-0.387c0-0.031-0.043-0.031-0.043,0
						c-0.016,0.129-0.02,0.258-0.016,0.387C271.77,174.65,271.816,174.65,271.816,174.618L271.816,174.618z"/>
				</g>
			</g>
			<g>
				<g>
					<path fill="#64461B" d="M271.925,174.585c0.017-0.121,0.039-0.238,0.066-0.357c0.008-0.029-0.039-0.039-0.043-0.012
						c-0.031,0.119-0.053,0.234-0.066,0.355C271.875,174.601,271.921,174.615,271.925,174.585L271.925,174.585z"/>
				</g>
			</g>
			<g>
				<g>
					<path fill="#64461B" d="M271.996,174.556c0.051-0.113,0.107-0.225,0.164-0.344c0.012-0.023-0.027-0.045-0.043-0.02
						c-0.123,0.219-0.074,0.113-0.164,0.352C271.941,174.575,271.984,174.585,271.996,174.556L271.996,174.556z"/>
				</g>
			</g>
			<g>
				<g>
					<path fill="#64461B" d="M272.089,174.601c0.048-0.07,0.103-0.141,0.156-0.211c0.019-0.023-0.022-0.043-0.039-0.023
						c-0.051,0.07-0.106,0.141-0.16,0.211C272.031,174.601,272.07,174.622,272.089,174.601L272.089,174.601z"/>
				</g>
			</g>
			<g>
				<g>
					<path fill="#64461B" d="M272.132,174.698c0.099-0.066,0.193-0.129,0.289-0.195c0.027-0.018,0.004-0.055-0.021-0.043
						c-0.205,0.115-0.118,0.053-0.299,0.207C272.078,174.687,272.113,174.716,272.132,174.698L272.132,174.698z"/>
				</g>
			</g>
			<g>
				<g>
					<path fill="#64461B" d="M272.137,174.847c0.102-0.047,0.2-0.094,0.299-0.137c0.032-0.012,0.019-0.051-0.013-0.041
						c-0.209,0.064-0.118,0.027-0.311,0.139C272.089,174.822,272.113,174.863,272.137,174.847L272.137,174.847z"/>
				</g>
			</g>
			<g>
				<g>
					<path fill="#64461B" d="M272.152,175.007c0.109-0.041,0.211-0.074,0.316-0.111c0.031-0.012,0.02-0.053-0.008-0.045
						c-0.111,0.039-0.213,0.074-0.32,0.113C272.113,174.97,272.125,175.015,272.152,175.007L272.152,175.007z"/>
				</g>
			</g>
			<g>
				<g>
					<path fill="#64461B" d="M271.718,174.698c0.117,0.139,0.23,0.279,0.349,0.418c-0.008,0.027,0.035,0.039,0.043,0.012
						c0.104-0.359-0.032-0.684-0.414-0.467C271.671,174.675,271.691,174.712,271.718,174.698L271.718,174.698z"/>
				</g>
			</g>
		</g>
		<path fill="#EA118D" d="M273.109,178.306c-0.289,0.457-0.953,0.465-1.48,0.021c-0.526-0.445-0.717-1.168-0.426-1.623
			s0.955-0.465,1.48-0.021C273.21,177.126,273.404,177.855,273.109,178.306z"/>
		<g>
			<path fill="#EA118D" d="M271.848,188.411c-0.847,1.066-2.539,3.104-3.81,3.004c-1.947-0.098-2.285-3.102-4.401-2.713
				c-2.199,0.291-2.371,2.52-2.623,4.459c-0.252,2.031-1.099,3.486-2.541,4.844c-1.099,0.971-2.453,1.646-3.806,1.746
				c-1.526,0.098-2.543-1.164-3.981-0.775c-1.692,0.48-2.963,2.324-4.312,3.389c-1.442,0.969-2.459,0.676-3.979,0.969
				c0.256,1.744,2.539,3.584,3.892,4.168c1.694,0.674,3.131,0.383,4.828-0.199c3.385-1.258,6.77,0,9.985-2.127
				c2.623-1.844,4.994-5.816,6.771-8.625c1.695-2.711,3.131-5.133,5.418-7.266c-0.254-0.193-0.676-1.066-1.438-1.066"/>
		</g>
		<g>
			<path fill="#FDD8C0" d="M244.227,208.087c-1.031,0.252-1.988,0.629-2.832,1.387l0,0c1.142,0.211,2.022-0.59,3.127-0.844"/>
			<g>
				<path fill="#DB967D" d="M244.207,207.999c-1.074,0.277-2.022,0.691-2.877,1.414c-0.065,0.053-0.004,0.146,0.064,0.154
					c1.156,0.133,2.078-0.557,3.152-0.85c0.115-0.029,0.065-0.205-0.045-0.174c-0.795,0.213-1.513,0.645-2.316,0.834
					c-1.199,0.289,0.223-0.514,0.477-0.65c0.496-0.262,1.049-0.416,1.594-0.557C244.367,208.146,244.318,207.968,244.207,207.999
					L244.207,207.999z"/>
			</g>
		</g>
		<g>
			<path fill="#FDD8C0" d="M243.312,208.091c-1.035,0.252-1.988,0.631-2.836,1.391l0,0c1.141,0.209,2.025-0.59,3.127-0.842"/>
			<g>
				<path fill="#DB967D" d="M243.289,208.003c-1.078,0.277-2.022,0.695-2.879,1.414c-0.065,0.053-0.002,0.145,0.066,0.154
					c1.156,0.133,2.074-0.549,3.152-0.844c0.115-0.031,0.062-0.207-0.045-0.176c-0.873,0.236-1.652,0.746-2.558,0.869
					c-0.7,0.094,0.541-0.594,0.718-0.686c0.495-0.266,1.049-0.418,1.594-0.557C243.449,208.15,243.402,207.974,243.289,208.003
					L243.289,208.003z"/>
			</g>
		</g>
		<g>
			<path fill="#FDD8C0" d="M242.501,208.134c-1.143-0.172-2.1,0.84-3.127,1.178c1.103,0.631,2.426-0.842,3.57-0.797"/>
			<g>
				<path fill="#DB967D" d="M242.501,208.04c-1.205-0.086-2.086,0.781-3.153,1.184c-0.065,0.029-0.103,0.131-0.022,0.166
					c1.284,0.582,2.36-0.736,3.62-0.787c0.113-0.006,0.113-0.186,0-0.182c-0.913,0.039-1.663,0.619-2.512,0.887
					c0.483-0.156-1.324,0.242-0.781-0.01c0.242-0.109,0.474-0.229,0.703-0.357c0.688-0.387,1.322-0.777,2.146-0.719
					C242.621,208.23,242.617,208.05,242.501,208.04L242.501,208.04z"/>
			</g>
		</g>
		<g>
			<path fill="#E5AB8D" d="M272.238,189.425c-1.098,0-5.471,6.18-6.77,8.213c-1.229,1.877-2.873,3.912-3.832,5.949
				c-0.818,1.639-1.707,1.797-3.277,1.955c-3.625,0.391-7.18,0.705-10.734,1.957c-1.569,0.623-2.324,0.703-3.895,0.23
				c-1.371-0.389-2.461,0.156-3.83,0.471c-0.545,0.08-1.162,0.154-1.709,0.08c0,0.074,0,0.074-0.07,0.074l0,0
				c0.824,1.332,2.734-0.074,3.832,0.082c0.754,0.074,1.16,0.859,1.848,1.016c0.613,0.076,1.298-0.312,1.914-0.391
				c3.209-0.236,6.492,0.078,9.775-0.078c3.42-0.158,6.088,0.275,8.684-2.736C273.535,195.368,275.518,190.046,272.238,189.425"/>
		</g>
		<g>
			<path fill="#EA118D" d="M273.941,169.597c-0.637,0.742-1.014,1.646-0.719,2.744c0.445-0.982,1.01-1.568,1.965-1.826l0,0
				c0.305,2.336,3.109,3.266,2.125,5.684c0.078-0.227,0.285-0.371,0.43-0.518c2.273,2.211,0.359,5.975-1.199,7.744
				c-0.918,0.957-2.301,1.652-2.891,2.938c-0.664,1.277-0.176,2.541,0.105,3.871c0.09-0.457,0.176-0.918,0.457-1.211
				c0.348,1.486-0.381,2.686-0.373,4.156c0.01,1.391,0.561,2.734,1.119,3.924l0,0c0.051-1.309-0.029-2.551,0.5-3.84
				c0.459-1.291,1.508-2.16,1.906-3.529c0.094,0.857,0.055,1.783-0.246,2.537c1.641-0.451,1.41-3.016,1.541-4.475
				c0.159-2.236,1.135-2.955,2.414-4.432c2.127-2.437,2.803-5.648,2.131-9.006C282.488,170.45,276.996,165.974,273.941,169.597"/>
		</g>
	</g>
	<g>
		<circle fill="#EA118D" cx="-45.873" cy="57.393" r="37.7"/>
		<path fill="#E5AB8D" d="M-45.701,21.365c-19.68,0-35.691,16.109-35.691,35.906c0,19.801,16.012,35.91,35.691,35.91
			c19.681,0,35.694-16.111,35.694-35.91S-26.02,21.365-45.701,21.365z M-40.844,92.89c7.534-2.217,13.029-9.152,13.029-17.373
			c0-9.607-7.508-17.463-17.008-18.078c-0.397-0.025-2-0.025-2.397,0c-9.494-0.615-17.006-8.473-17.006-18.082
			c0-9.914,7.995-17.959,17.916-18.117c-5.003,0.008-9.767,1.018-14.103,2.844c4.344-1.844,9.124-2.861,14.132-2.861
			c19.964,0,36.204,16.164,36.204,36.033C-10.081,75.294-23.455,90.275-40.844,92.89z"/>
		<g>
			<path fill="#E5AB8D" d="M-43.583,42.366c0,0-3.31-10.184,6.042-13.672C-37.541,28.693-33.403,37.175-43.583,42.366z"/>
			<path fill="#E5AB8D" d="M-43.613,42.351c0,0-10.182,3.312-13.67-6.041C-57.285,36.31-48.8,32.173-43.613,42.351z"/>
			<path fill="#E5AB8D" d="M-43.621,42.37c0,0-7.682,2.496-10.312-4.555C-53.932,37.814-47.537,34.693-43.621,42.37z"/>
			<path fill="#E5AB8D" d="M-43.592,42.365c0,0-9.542-4.859-5.398-13.936C-48.991,28.427-40.067,31.497-43.592,42.365z"/>
			<path fill="#E5AB8D" d="M-43.613,42.37c0,0-7.197-3.664-4.071-10.51C-47.684,31.859-40.953,34.173-43.613,42.37z"/>
			<path fill="#E5AB8D" d="M-43.537,42.454c0,0,3.682-10.002,13.14-6.973C-30.397,35.482-32.384,44.665-43.537,42.454z"/>
			<path fill="#E5AB8D" d="M-43.546,42.433c0,0,2.778-7.543,9.914-5.254C-33.632,37.177-35.132,44.105-43.546,42.433z"/>
		</g>
		<g>
			<path fill="#EA118D" d="M-48.518,73.779c0,0-3.311,10.18,6.042,13.668C-42.479,87.448-38.34,78.966-48.518,73.779z"/>
			<path fill="#EA118D" d="M-48.55,73.79c0,0-10.181-3.311-13.668,6.041C-62.218,79.829-53.739,83.968-48.55,73.79z"/>
			<path fill="#EA118D" d="M-48.558,73.773c0,0-7.683-2.496-10.314,4.551C-58.873,78.327-52.472,81.448-48.558,73.773z"/>
			<path fill="#EA118D" d="M-48.531,73.779c0,0-9.542,4.859-5.397,13.936C-53.926,87.714-45.002,84.646-48.531,73.779z"/>
			<path fill="#EA118D" d="M-48.55,73.771c0,0-7.196,3.666-4.07,10.512C-52.621,84.284-45.888,81.966-48.55,73.771z"/>
			<path fill="#EA118D" d="M-48.474,73.687c0,0,3.682,10.002,13.14,6.973C-35.334,80.659-37.321,71.478-48.474,73.687z"/>
			<path fill="#EA118D" d="M-48.485,73.708c0,0,2.778,7.543,9.912,5.256C-38.573,78.964-40.071,72.038-48.485,73.708z"/>
		</g>
	</g>
</g>
<g>
	<g>
		<g>
			<text transform="matrix(1 0 0 1 25.6611 380.2451)" fill="#414042" font-family="'TrebuchetMS-Italic'" font-size="7.6">Voor clinten met een PDS diagnose, gesteld door huisarts of specialist.</text>
			<text transform="matrix(1 0 0 1 77.8408 389.3643)" fill="#414042" font-family="'TrebuchetMS-Italic'" font-size="7.6">Deze mag niet ouder dan 3 maanden zijn.</text>
			<text transform="matrix(1 0 0 1 66.4111 399.8779)" fill="#414042" font-family="'TrebuchetMS'" font-size="7.6">Me Therapy wordt gerund door Marille Janssen,</text>
			<text transform="matrix(1 0 0 1 38.8525 408.9971)" fill="#414042" font-family="'TrebuchetMS'" font-size="7.6">o.a. psychosociaal en hypnotherapeut, aangesloten bij de NBVH.</text>
			<text transform="matrix(1 0 0 1 58.9873 418.1182)" fill="#414042" font-family="'TrebuchetMS'" font-size="7.6">Gespecialiseerd in PDS, SOLK, TVM en autismecoach.</text>
		</g>
	</g>
	<g>
		<g>
			<path fill="#424143" d="M-50.804,409.507c-1.294,2.332-1.341,5.33-1.341,5.33s-1.789-3.549-0.054-7.275
				c1.922-4.125,4.973-8.385,10.634-13.391c0.175-0.16,1.158-0.856,0.406-1.543c-0.412-0.381-1.151-0.853-1.722-1.433
				c-0.25-0.256-1.758-1.372,0.33-3.491c4.777-4.851,3.979-8.416,3.296-10.69c-0.106-0.343,3.63,1.743,2.229-1.96
				c-1.813-4.812-3.084,0.087-3.403-0.299c-1.761-2.133-6.566-2.383-8.677-1.201c-1.161,0.654-2.065,1.664-2.72,2.839
				c-0.102,0.178,0.286,1.057,0.236,1.252c-0.106,0.397-0.916,0.233-1,0.442c-0.24,0.604-1.238,0.763-1.366,1.381
				c-0.132,0.675,0.822,1.287,0.822,1.931c0,1.315,1.06,1.883,1.748,1.94c0.372,0.035,1.414-0.42,1.388-0.358
				c-0.284,0.75-2.604,0.467-2.604,0.467c-0.179,2.045,3.098,3.963,3.208,4.436c0.525,2.27-0.44,4.055-1.387,4.916
				c-1.042,0.953-3.76,2.199-5.17,2.248c-1.565,0.053-4.742-1.141-5.846-2.248c-0.824-0.826-1.89-3.58-1.746-4.312
				c0.356-1.78,2.852-0.319,3.318-3.062c0.102-0.614,1.14-0.782,1.174-1.446c0.02-0.312-2.138-0.476-2.351-0.836
				c-0.184-0.3,2.297-0.767,2.03-1.675c-0.134-0.457-1.57-0.143-1.604-0.821c-0.009-0.168,1.354-0.354,1.424-0.789
				c0.142-0.849-1.72-1.199-1.72-2.025c0-0.447,0.932-0.523,0.892-1.109c-0.044-0.656-0.792-2.272-2.672-3.32
				c-3.522-1.95-7.021-1.045-8.878,0.642c-0.396,0.358-1.024-1.638-3.044-1.172c-0.654,0.147,2.176,1.022,1.208,3.391
				c-1.824,4.457-0.506,8.949,4.235,11.796c0.853,0.514,0.168,2.176-0.376,2.812c-0.682,0.805-2.29,0.647-1.649,2.25
				c1.399,3.496,8.978,9.227,11.926,14.363c11.098,19.315-12.696,23.442-12.696,23.442s11.889-4.838,11.88-14.065
				c-0.004-7.353-12.334-14.451-16.909-24.06c-2.618-5.494-3.885-12.004-1.408-17.707c0.321-0.744,0.71-1.312,0.71-1.312
				c-1.374-8.659-5.04-6.75-4.674-6.895c4.945-1.955,6.292,3.523,9.065,2.172c11.782-5.75,17.376,4.34,17.376,4.34
				s10.28-11.812,19.57-2.004c5.012,5.293,7.258,12.195,1.492,21.408c-1.597,2.549-6.282,5.922-8.034,7.627
				C-49.031,406.056-50.317,408.628-50.804,409.507z"/>
			<pattern  id="SVGID_2_" xlink:href="#SVGID_1_" patternTransform="matrix(0.107 0 0 0.107 -45609.9375 2073.5254)">
			</pattern>
			<path fill="url(#SVGID_2_)" d="M-52.413,409.667c-1.296,2.332-1.34,5.328-1.34,5.328s-1.788-3.545-0.054-7.271
				c1.92-4.127,4.97-8.385,10.636-13.393c0.178-0.158,1.16-0.856,0.406-1.543c-0.412-0.384-1.152-0.851-1.725-1.435
				c-0.248-0.254-1.754-1.373,0.334-3.489c4.776-4.847,3.979-8.421,3.292-10.688c-0.104-0.344,3.632,1.742,2.229-1.963
				c-1.816-4.812-3.084,0.086-3.406-0.299c-1.76-2.133-6.564-2.383-8.674-1.199c-1.16,0.65-2.066,1.664-2.722,2.838
				c-0.103,0.176,0.285,1.055,0.235,1.25c-0.107,0.402-0.916,0.23-1,0.443c-0.24,0.604-1.235,0.762-1.359,1.385
				c-0.137,0.672,0.815,1.283,0.815,1.926c0,1.316,1.061,1.883,1.748,1.943c0.374,0.031,1.416-0.422,1.39-0.359
				c-0.288,0.752-2.602,0.463-2.602,0.463c-0.176,2.051,3.098,3.963,3.208,4.439c0.526,2.271-0.444,4.053-1.384,4.916
				c-1.04,0.953-3.763,2.201-5.174,2.248c-1.564,0.053-4.74-1.137-5.847-2.248c-0.819-0.824-1.89-3.58-1.744-4.314
				c0.356-1.778,2.851-0.315,3.316-3.059c0.102-0.615,1.136-0.783,1.176-1.447c0.017-0.311-2.138-0.479-2.355-0.836
				c-0.183-0.303,2.298-0.77,2.031-1.676c-0.136-0.459-1.567-0.139-1.602-0.822c-0.008-0.166,1.354-0.356,1.426-0.787
				c0.141-0.85-1.72-1.201-1.72-2.022c0-0.449,0.934-0.531,0.892-1.111c-0.046-0.655-0.796-2.276-2.674-3.319
				c-3.518-1.953-7.02-1.045-8.876,0.639c-0.397,0.359-1.023-1.635-3.044-1.174c-0.65,0.152,2.174,1.025,1.206,3.395
				c-1.824,4.453-0.506,8.945,4.236,11.797c0.852,0.514,0.164,2.174-0.38,2.812c-0.681,0.801-2.29,0.643-1.646,2.247
				c1.396,3.494,8.979,9.229,11.926,14.37c11.095,19.311-12.693,23.438-12.693,23.438s11.884-4.84,11.88-14.07
				c-0.002-7.352-12.338-14.455-16.912-24.055c-2.616-5.496-3.882-12.006-1.408-17.707c0.322-0.742,0.71-1.316,0.71-1.316
				c-1.374-8.66-5.042-6.744-4.674-6.891c4.944-1.957,6.292,3.523,9.066,2.17c11.781-5.748,17.373,4.342,17.373,4.342
				s10.278-11.813,19.574-2.004c5.015,5.289,7.258,12.193,1.49,21.406c-1.596,2.551-6.284,5.924-8.036,7.629
				C-50.632,406.216-51.926,408.788-52.413,409.667z"/>
		</g>
		<text transform="matrix(1 0 0 1 -34.71 407.4775)" fill="#EA118D" font-family="'TrebuchetMS'" font-size="7.6">06-22034603</text>
		<text transform="matrix(1 0 0 1 -45.8564 416.5986)" fill="#EA118D" font-family="'TrebuchetMS'" font-size="7.6">info@metherapy.nl</text>
		<text transform="matrix(1 0 0 1 -46.2031 425.7178)" fill="#EA118D" font-family="'TrebuchetMS'" font-size="7.6">www.metherapy.nl</text>
	</g>
</g>
<image overflow="visible" width="491" height="734" xlink:href="pasfoto.jpg"  transform="matrix(0.04 0 0 0.04 -24.3354 366.6221)">
</image>
</svg>
