<?xml version="1.0" encoding="utf-8"?>
<!-- Generator: Adobe Illustrator 16.0.0, SVG Export Plug-In . SVG Version: 6.00 Build 0)  -->
<!DOCTYPE svg PUBLIC "-//W3C//DTD SVG 1.1//EN" "http://www.w3.org/Graphics/SVG/1.1/DTD/svg11.dtd">
<svg version="1.1" id="Layer_1" xmlns="http://www.w3.org/2000/svg" xmlns:xlink="http://www.w3.org/1999/xlink" x="0px" y="0px"
	 width="209.758px" height="297.639px" viewBox="0 0 209.758 297.639" enable-background="new 0 0 209.758 297.639"
	 xml:space="preserve">
<pattern  x="0.379" y="297.319" width="169.393" height="155.989" patternUnits="userSpaceOnUse" id="SVGID_1_" viewBox="84.696 -181.988 169.393 155.989" overflow="visible">
	<g>
		<polygon fill="none" points="84.696,-26 254.089,-26 254.089,-181.988 84.696,-181.988 		"/>
		<g>
			<polygon fill="none" points="84.696,-181.988 254.089,-181.988 254.089,-26 84.696,-26 			"/>
			<g>
				<polygon fill="none" points="84.696,-181.988 254.089,-181.988 254.089,-26 84.696,-26 				"/>
				<path fill="#EA118D" d="M86.022-10.229v0.994c0.44,1.326,1.16,3.149,2.155,5.47c0.994,2.32,1.6,3.48,1.823,3.48h1.657
					c0-1.104,0.383-2.264,1.16-3.48c0.771-1.212,1.709-1.822,2.817-1.822h0.332c0.217,0.223,0.715,0.662,1.491,1.326
					c0.771,0.661,1.27,1.107,1.492,1.324h0.331h0.663c0.44-0.217,0.938-0.663,1.491-1.324c0.55-0.664,0.938-1.104,1.161-1.326
					c0.439,0.886,1.6,1.822,3.48,2.816c1.875,0.994,3.258,1.383,4.144,1.16c0.44-0.218,1.932-0.828,4.475-1.823
					c2.538-0.993,4.03-1.709,4.476-2.153l5.304,5.304c0.663,0.663,1.435,0.166,2.32-1.492c0.881-1.657,1.544-2.485,1.989-2.485
					h0.663c1.988,1.108,3.48,2.047,4.475,2.817c0.995,0.776,2.704,1.16,5.139,1.16h0.663c0.217-0.218,0.828-0.716,1.823-1.492
					c0.994-0.771,1.709-1.16,2.154-1.16c0.44,0,0.938,0.332,1.492,0.995c0.549,0.663,0.828,1.217,0.828,1.657
					c2.652-1.544,3.979-3.315,3.979-5.304c0-1.326-0.446-2.207-1.326-2.652c-0.886-0.439-1.326-1.436-1.326-2.982v-0.994
					c0-0.219,0.108-0.55,0.331-0.994c0.44,1.107,1.27,1.988,2.486,2.65c1.212,0.663,2.372,1.108,3.48,1.326
					c-0.445,0.445-0.828,1.439-1.16,2.982c-0.331,1.55-0.279,2.651,0.166,3.314c0.218,0.446,0.994,0.995,2.32,1.658
					c1.326,0.663,2.207,0.994,2.652,0.994c1.326-1.104,2.098-2.206,2.32-3.315c0.218-1.103,1.104-1.766,2.652-1.987
					c0.439,0.662,0.938,1.49,1.491,2.485c0.549,0.994,1.16,1.491,1.823,1.491h0.663c0.218-0.218,0.497-0.439,0.829-0.663
					c0.331-0.217,0.497-0.44,0.497-0.663c0.88-0.88,1.325-1.766,1.325-2.65l-3.646-6.299c-0.224-0.218-0.166-0.498,0.165-0.828
					c0.332-0.332,0.606-0.498,0.829-0.498h1.326v0.332c1.988,0,3.589,0.389,4.807,1.16c1.212,0.776,2.429,1.656,3.646,2.651
					c1.212,0.994,2.372,1.88,3.48,2.651c1.104,0.776,2.538,1.16,4.31,1.16c0.217,0,0.663-0.498,1.325-1.492
					c0.663-0.994,1.326-2.098,1.989-3.314c0.663-1.212,1.212-2.372,1.657-3.48c0.44-1.104,0.663-1.875,0.663-2.319h0.663h0.663
					c0.218,0.224,0.331,0.663,0.331,1.326v9.28c0.44,0,0.772-0.107,0.995-0.33c2.429-1.768,4.361-3.48,5.801-5.14
					c1.435-1.657,3.921-2.485,7.459-2.485c0.44,0,1.212,0.332,2.32,0.994c1.104,0.664,1.875,1.217,2.32,1.657
					c0-0.881,0.383-1.767,1.16-2.651c0.771-0.881,1.709-1.325,2.817-1.325c0,0.223,0.109,0.444,0.332,0.663l0.663,0.662
					c0.217,0.445,0.44,1.492,0.663,3.148c0.217,1.657,0.439,2.709,0.662,3.149c0.218,0,0.663,0.057,1.326,0.165
					c0.663,0.113,1.104,0.166,1.326,0.166c1.989,0,3.755-0.497,5.304-1.491c1.544-0.994,3.315-1.492,5.304-1.492
					c0.881,0,1.544,0.224,1.989,0.663c0.44,0.445,0.549,1.549,0.332,3.314c0.662-1.767,1.377-2.869,2.154-3.314
					c0.771-0.439,1.823-0.663,3.149-0.663c1.325,0,2.206,0.28,2.651,0.829c0.44,0.555,1.212,0.829,2.32,0.829
					c0.881,0,1.989-0.829,3.315-2.486s2.595-3.532,3.812-5.636c1.213-2.098,2.264-4.195,3.149-6.298
					c0.881-2.099,1.326-3.591,1.326-4.476c0-0.219-0.057-0.716-0.166-1.492c-0.113-0.771-0.165-1.377-0.165-1.822
					c-1.771-0.219-2.983-1.047-3.646-2.486c-0.663-1.435-1.549-2.595-2.652-3.48l-2.651,7.625c-3.315-2.43-5.915-6.02-7.79-10.773
					c-1.881-4.75-2.818-9.002-2.818-12.763c-2.212,0-3.48,0.829-3.812,2.485c-0.332,1.657-0.721,3.48-1.161,5.471h-0.331
					c-0.663,0-1.217-0.385-1.657-1.16c-0.445-0.771-0.886-1.657-1.326-2.652c-0.445-0.994-0.942-1.875-1.492-2.65
					c-0.554-0.772-1.383-1.16-2.485-1.16c-4.424,0-8.898,0.609-13.426,1.822c-4.532,1.217-8.898,1.823-13.094,1.823
					c-0.886,0-1.605-0.166-2.155-0.498c-0.554-0.331-1.273-0.497-2.154-0.497c-2.652,0-5.47,0.389-8.453,1.16
					c-2.983,0.777-5.692,1.16-8.121,1.16c-0.445,0-1.771-0.165-3.979-0.497c-2.211-0.331-3.537-0.604-3.978-0.828h-0.663h-0.331
					c-0.446,0.224-1.161,0.497-2.155,0.828c-0.994,0.332-1.605,0.497-1.823,0.497c-0.223,0-0.663-0.217-1.326-0.663
					c-0.662-0.438-1.108-0.662-1.325-0.662c-1.108,0-1.989,1.108-2.652,3.314c-0.663,2.212-1.88,3.313-3.646,3.313l-0.663-0.662
					l-0.663-0.662c-0.223-0.219-0.497-0.385-0.828-0.498c-0.332-0.108-0.721-0.383-1.16-0.828c-0.663-0.219-1.218-0.549-1.658-0.994
					h-0.331l-0.663-0.332l-0.663,0.332c-0.445,0.886-0.663,1.822-0.663,2.816s-0.554,1.715-1.657,2.154
					c-1.108-0.439-1.657-1.326-1.657-2.65c0-1.326,0.549-2.652,1.657-3.979c-0.445-0.217-1.108-0.497-1.989-0.828
					c-0.886-0.332-1.549-0.497-1.988-0.497l-1.326,0.662l-1.326,0.663c-0.223,0.224-0.445,0.332-0.663,0.332h-0.663l-0.994-0.332
					l-1.326-1.325c-2.435,0-4.755,0.497-6.961,1.491c-2.212,0.994-4.424,1.492-6.63,1.492c-1.108,0-1.771-0.275-1.989-0.829
					c-0.223-0.549-0.886-0.829-1.989-0.829h-0.331c-0.223,0.224-0.497,0.497-0.829,0.829c-0.331,0.331-0.497,0.611-0.497,0.829
					c-0.445-2.207-1.491-3.425-3.149-3.646c-1.657-0.219-3.148-0.332-4.475-0.332c-2.435,0-4.424,0.662-5.967,1.988
					c-1.549,1.326-2.543,3.206-2.983,5.635l0.663,1.326c0.217,0.445,0.44,0.777,0.663,0.995v2.983c0,1.988-0.611,3.263-1.823,3.812
					c-1.218,0.556-2.652,1.16-4.31,1.823c-1.658,0.663-3.264,1.715-4.807,3.148c-1.549,1.439-2.652,4.035-3.315,7.791l0.663,1.325
					c0.218,0.445,0.44,0.776,0.663,0.994c0,0.445-0.166,0.942-0.497,1.492c-0.331,0.554-0.611,0.942-0.829,1.16
					c0.44,0,1.104,0.165,1.989,0.497c0.881,0.33,1.435,0.611,1.657,0.828l0.332,0.662l-0.332,0.664
					c-0.223,0.223-0.663,0.444-1.325,0.662c-0.663,0.223-0.995,0.445-0.995,0.663v0.334H86.022z M104.918-46.693
					c1.543,0,2.538,0.555,2.983,1.658h-1.326c-1.549,0-2.435-0.551-2.652-1.658H104.918z M107.901-13.213
					c-0.445,0-0.663-0.274-0.663-0.828c0-0.549,0.218-0.715,0.663-0.497C108.781-14.094,108.781-13.652,107.901-13.213z
					 M108.896-42.715h1.326v1.324L108.896-42.715z M117.846-41.391h0.994h0.332c0.44,0.225,0.938,0.446,1.491,0.663
					c0.55,0.224,0.938,0.445,1.16,0.663c-0.445,0.887-0.942,1.771-1.491,2.652c-0.555,0.886-1.383,1.326-2.486,1.326V-41.391z
					 M144.365-8.074c0,0.777-0.223,1.16-0.663,1.16c-0.663,0-0.994-0.383-0.994-1.16c0-0.771,0.331-1.16,0.994-1.16
					C144.143-9.234,144.365-8.846,144.365-8.074z M158.619-42.715c0,0.886-0.331,1.324-0.994,1.324
					c-0.445,0-0.663-0.438-0.663-1.324c0-0.881,0.218-1.326,0.663-1.326C158.288-44.041,158.619-43.596,158.619-42.715z
					 M158.951-35.092h2.651c0,1.989-0.886,2.983-2.651,2.983V-35.092z M163.923-42.715c0,0.886-0.445,1.324-1.325,1.324
					c-0.446,0-0.663-0.438-0.663-1.324c0-0.881,0.217-1.326,0.663-1.326C163.478-44.041,163.923-43.596,163.923-42.715z
					 M166.243-28.627c0,0.994-0.223,1.492-0.662,1.492c-0.663,0-0.995-0.498-0.995-1.492s0.332-1.491,0.995-1.491
					C166.021-30.118,166.243-29.621,166.243-28.627z M169.227-19.512l-1.325,1.326c-0.886-0.662-1.326-1.656-1.326-2.982
					C167.679-21.168,168.564-20.614,169.227-19.512z M169.227-15.864c-0.445,0.223-0.662,0.058-0.662-0.497
					c0-0.549,0.217-0.829,0.662-0.829C170.107-16.745,170.107-16.305,169.227-15.864z M170.553-42.715h2.652
					c0.218,0,0.497,0.662,0.828,1.987c0.332,1.326,0.498,2.435,0.498,3.315c0,1.107-0.389,1.937-1.16,2.486
					c-0.777,0.554-1.715,0.828-2.818,0.828V-42.715z M178.178-17.19c0.217,0.224,0.497,0.445,0.828,0.663
					c0.332,0.223,0.497,0.445,0.497,0.663v0.663v0.663c0,0.886-0.445,1.325-1.325,1.325V-17.19z M196.078-17.19h1.326v2.652h-1.326
					V-17.19z M208.675-17.024c0,0.776-0.332,1.16-0.995,1.16c-0.662,0-0.994-0.384-0.994-1.16c0-0.771,0.332-1.16,0.994-1.16
					C208.343-18.186,208.675-17.797,208.675-17.024z M217.956-35.092h0.663h0.663c0.218,0.224,0.44,0.664,0.663,1.326
					c0.218,0.663,0.331,1.108,0.331,1.326c0,0.445-0.279,0.776-0.828,0.994c-0.555,0.223-1.052,0.331-1.492,0.331V-35.092
					L217.956-35.092z M219.945-43.875c0,0.775-0.223,1.16-0.663,1.16c-0.663,0-0.994-0.385-0.994-1.16
					c0-0.772,0.331-1.16,0.994-1.16C219.723-45.035,219.945-44.647,219.945-43.875z M220.276-37.411
					c-0.445,0-0.663-0.274-0.663-0.829c0-0.549,0.218-0.828,0.663-0.828C221.38-38.623,221.38-38.074,220.276-37.411z
					 M231.05-19.678c0.109,0.556,0.166,1.053,0.166,1.492c0,1.108-0.331,2.27-0.994,3.48c-0.663,1.217-1.88,1.822-3.646,1.822
					c0-1.326,0.383-2.761,1.16-4.31c0.771-1.543,1.823-2.761,3.149-3.646C230.885-20.614,230.937-20.227,231.05-19.678z
					 M237.846-24.814c0,0.663-0.223,1.108-0.663,1.326c-0.445,0.223-0.663-0.218-0.663-1.326c0-1.104,0.218-1.544,0.663-1.326
					C237.623-25.918,237.846-25.479,237.846-24.814z"/>
				<path fill="#EA118D" d="M170.719-49.228v0.994c0.44,1.326,1.16,3.149,2.155,5.47c0.994,2.32,1.6,3.48,1.823,3.48h1.657
					c0-1.104,0.383-2.264,1.16-3.48c0.771-1.212,1.709-1.822,2.817-1.822h0.332c0.217,0.223,0.715,0.662,1.491,1.326
					c0.771,0.662,1.27,1.107,1.492,1.325h0.331h0.663c0.44-0.218,0.938-0.663,1.491-1.325c0.55-0.664,0.938-1.104,1.161-1.326
					c0.439,0.886,1.6,1.822,3.48,2.817c1.875,0.994,3.258,1.384,4.144,1.16c0.44-0.218,1.932-0.829,4.475-1.823
					c2.538-0.994,4.03-1.71,4.476-2.154l5.304,5.304c0.663,0.663,1.435,0.166,2.32-1.491c0.881-1.656,1.544-2.486,1.989-2.486h0.663
					c1.988,1.108,3.48,2.047,4.475,2.817c0.995,0.777,2.704,1.16,5.139,1.16h0.663c0.217-0.217,0.828-0.714,1.823-1.491
					c0.994-0.771,1.709-1.16,2.154-1.16c0.44,0,0.938,0.331,1.492,0.994c0.549,0.663,0.828,1.219,0.828,1.657
					c2.652-1.543,3.979-3.313,3.979-5.304c0-1.325-0.446-2.207-1.326-2.651c-0.886-0.44-1.326-1.435-1.326-2.983v-0.994
					c0-0.217,0.108-0.549,0.331-0.994c0.44,1.107,1.27,1.988,2.486,2.652c1.212,0.661,2.372,1.107,3.48,1.324
					c-0.445,0.446-0.828,1.439-1.16,2.982c-0.331,1.55-0.279,2.652,0.166,3.315c0.218,0.445,0.994,0.994,2.32,1.657
					s2.207,0.994,2.652,0.994c1.326-1.104,2.098-2.206,2.32-3.314c0.218-1.104,1.104-1.767,2.652-1.988
					c0.439,0.662,0.938,1.492,1.491,2.485c0.549,0.994,1.16,1.492,1.823,1.492h0.663c0.218-0.218,0.497-0.44,0.829-0.663
					c0.331-0.218,0.497-0.439,0.497-0.663c0.88-0.881,1.325-1.767,1.325-2.651l-3.646-6.299c-0.224-0.218-0.166-0.496,0.165-0.828
					c0.332-0.332,0.606-0.498,0.829-0.498h1.326v0.332c1.988,0,3.589,0.389,4.807,1.16c1.212,0.776,2.429,1.657,3.646,2.651
					c1.212,0.994,2.372,1.88,3.48,2.652c1.104,0.776,2.538,1.159,4.31,1.159c0.217,0,0.663-0.496,1.325-1.491
					c0.663-0.994,1.326-2.099,1.989-3.314c0.663-1.212,1.212-2.372,1.657-3.479c0.44-1.104,0.663-1.875,0.663-2.321h0.663h0.663
					c0.218,0.224,0.331,0.663,0.331,1.326v9.282c0.44,0,0.772-0.109,0.995-0.332c2.429-1.767,4.361-3.48,5.801-5.139
					c1.435-1.656,3.921-2.486,7.459-2.486c0.44,0,1.212,0.332,2.32,0.994c1.104,0.664,1.875,1.219,2.32,1.658
					c0-0.881,0.383-1.767,1.16-2.652c0.771-0.881,1.709-1.325,2.817-1.325c0,0.223,0.109,0.444,0.332,0.663l0.663,0.662
					c0.217,0.445,0.439,1.492,0.663,3.149c0.217,1.657,0.438,2.709,0.662,3.149c0.218,0,0.663,0.057,1.325,0.165
					c0.663,0.114,1.104,0.166,1.326,0.166c1.989,0,3.755-0.497,5.306-1.492c1.544-0.994,3.313-1.491,5.304-1.491
					c0.881,0,1.544,0.223,1.989,0.663c0.438,0.445,0.549,1.549,0.332,3.313c0.66-1.766,1.377-2.868,2.152-3.313
					c0.771-0.44,1.823-0.663,3.149-0.663c1.325,0,2.206,0.279,2.649,0.829c0.44,0.554,1.214,0.828,2.32,0.828
					c0.881,0,1.989-0.828,3.315-2.486c1.324-1.657,2.595-3.532,3.812-5.635c1.213-2.099,2.265-4.194,3.149-6.298
					c0.881-2.098,1.326-3.589,1.326-4.475c0-0.219-0.059-0.715-0.166-1.492c-0.113-0.772-0.165-1.379-0.165-1.823
					c-1.771-0.218-2.983-1.046-3.646-2.486c-0.663-1.435-1.549-2.595-2.652-3.479l-2.649,7.623
					c-3.315-2.428-5.915-6.019-7.79-10.772c-1.881-4.75-2.818-9.002-2.818-12.762c-2.212,0-3.479,0.829-3.812,2.485
					c-0.332,1.658-0.723,3.481-1.161,5.471h-0.331c-0.663,0-1.217-0.383-1.657-1.16c-0.445-0.771-0.886-1.657-1.326-2.652
					c-0.443-0.994-0.94-1.875-1.49-2.652c-0.556-0.771-1.385-1.159-2.485-1.159c-4.424,0-8.898,0.61-13.426,1.823
					c-4.532,1.217-8.898,1.822-13.094,1.822c-0.886,0-1.605-0.166-2.155-0.498c-0.554-0.332-1.273-0.496-2.154-0.496
					c-2.652,0-5.47,0.388-8.453,1.159c-2.983,0.777-5.692,1.16-8.121,1.16c-0.445,0-1.771-0.166-3.979-0.497
					c-2.211-0.332-3.537-0.605-3.978-0.829h-0.663h-0.331c-0.446,0.224-1.161,0.497-2.155,0.829
					c-0.994,0.332-1.605,0.497-1.823,0.497c-0.223,0-0.663-0.217-1.326-0.663c-0.662-0.439-1.108-0.663-1.325-0.663
					c-1.108,0-1.989,1.108-2.652,3.314c-0.663,2.212-1.88,3.315-3.646,3.315l-0.663-0.664l-0.663-0.662
					c-0.223-0.219-0.497-0.383-0.828-0.498c-0.332-0.108-0.721-0.383-1.16-0.828c-0.663-0.217-1.218-0.549-1.658-0.994h-0.331
					l-0.663-0.332l-0.663,0.332c-0.445,0.886-0.663,1.822-0.663,2.816c0,0.996-0.554,1.715-1.657,2.155
					c-1.108-0.44-1.657-1.325-1.657-2.651s0.549-2.652,1.657-3.979c-0.445-0.217-1.108-0.497-1.989-0.829
					c-0.886-0.332-1.549-0.497-1.988-0.497l-1.326,0.663l-1.326,0.663c-0.223,0.223-0.445,0.332-0.663,0.332h-0.663l-0.994-0.332
					l-1.326-1.326c-2.435,0-4.755,0.497-6.961,1.492c-2.212,0.994-4.424,1.492-6.63,1.492c-1.108,0-1.771-0.275-1.989-0.829
					c-0.223-0.549-0.886-0.829-1.989-0.829h-0.331c-0.223,0.223-0.497,0.497-0.829,0.829c-0.331,0.332-0.497,0.61-0.497,0.829
					c-0.445-2.207-1.491-3.424-3.149-3.646c-1.657-0.218-3.148-0.332-4.475-0.332c-2.435,0-4.424,0.664-5.967,1.989
					c-1.549,1.326-2.543,3.206-2.983,5.636l0.663,1.325c0.217,0.445,0.44,0.777,0.663,0.995v2.982c0,1.99-0.611,3.264-1.823,3.812
					c-1.218,0.555-2.652,1.16-4.31,1.823c-1.658,0.663-3.264,1.714-4.807,3.149c-1.549,1.439-2.652,4.035-3.315,7.789l0.663,1.326
					c0.218,0.445,0.44,0.777,0.663,0.995c0,0.445-0.166,0.942-0.497,1.492c-0.331,0.554-0.611,0.942-0.829,1.16
					c0.44,0,1.104,0.166,1.989,0.497c0.881,0.332,1.435,0.611,1.657,0.828l0.332,0.664l-0.332,0.662
					c-0.223,0.224-0.663,0.445-1.325,0.664c-0.663,0.223-0.995,0.444-0.995,0.662v0.331H170.719L170.719-49.228z M189.614-85.69
					c1.543,0,2.538,0.554,2.983,1.658h-1.326c-1.549,0-2.435-0.55-2.652-1.658H189.614z M192.598-52.211
					c-0.445,0-0.663-0.273-0.663-0.828c0-0.549,0.218-0.715,0.663-0.497C193.478-53.092,193.478-52.65,192.598-52.211z
					 M193.592-81.713h1.326v1.326L193.592-81.713z M202.542-80.387h0.994h0.332c0.44,0.223,0.938,0.445,1.491,0.662
					c0.55,0.223,0.938,0.445,1.16,0.663c-0.445,0.886-0.942,1.771-1.491,2.652c-0.555,0.886-1.383,1.325-2.486,1.325V-80.387
					L202.542-80.387z M229.062-47.072c0,0.777-0.223,1.161-0.663,1.161c-0.663,0-0.994-0.384-0.994-1.161
					c0-0.771,0.331-1.16,0.994-1.16C228.839-48.232,229.062-47.844,229.062-47.072z M243.315-81.713
					c0,0.887-0.331,1.326-0.994,1.326c-0.445,0-0.663-0.439-0.663-1.326c0-0.879,0.218-1.325,0.663-1.325
					C242.984-83.039,243.315-82.594,243.315-81.713z M243.647-74.088h2.651c0,1.988-0.886,2.982-2.651,2.982V-74.088z
					 M248.619-81.713c0,0.887-0.445,1.326-1.325,1.326c-0.446,0-0.663-0.439-0.663-1.326c0-0.879,0.217-1.325,0.663-1.325
					C248.174-83.039,248.619-82.594,248.619-81.713z M250.939-67.625c0,0.996-0.223,1.492-0.662,1.492
					c-0.663,0-0.995-0.496-0.995-1.492c0-0.994,0.332-1.491,0.995-1.491C250.717-69.116,250.939-68.619,250.939-67.625z
					 M253.923-58.508l-1.325,1.326c-0.886-0.664-1.326-1.658-1.326-2.984C252.375-60.166,253.261-59.611,253.923-58.508z
					 M253.923-54.862c-0.445,0.224-0.662,0.058-0.662-0.497c0-0.549,0.217-0.829,0.662-0.829
					C254.804-55.742,254.804-55.303,253.923-54.862z M255.249-81.713h2.652c0.218,0,0.497,0.664,0.828,1.99
					c0.332,1.325,0.498,2.435,0.498,3.314c0,1.107-0.389,1.938-1.16,2.486c-0.777,0.554-1.715,0.828-2.818,0.828V-81.713z
					 M262.874-56.188c0.217,0.224,0.497,0.445,0.828,0.663c0.332,0.223,0.497,0.445,0.497,0.663v0.663v0.663
					c0,0.886-0.445,1.325-1.325,1.325V-56.188z M280.774-56.188h1.326v2.651h-1.326V-56.188z M293.371-56.022
					c0,0.777-0.332,1.16-0.995,1.16c-0.662,0-0.994-0.383-0.994-1.16c0-0.771,0.332-1.159,0.994-1.159
					C293.039-57.182,293.371-56.793,293.371-56.022z M302.652-74.088h0.663h0.662c0.219,0.223,0.44,0.662,0.663,1.326
					c0.219,0.662,0.331,1.107,0.331,1.325c0,0.445-0.278,0.777-0.828,0.994c-0.555,0.224-1.052,0.332-1.491,0.332V-74.088
					L302.652-74.088z M304.642-82.873c0,0.777-0.223,1.16-0.663,1.16c-0.662,0-0.993-0.383-0.993-1.16
					c0-0.772,0.331-1.16,0.993-1.16C304.419-84.033,304.642-83.646,304.642-82.873z M304.973-76.409
					c-0.444,0-0.663-0.274-0.663-0.829c0-0.549,0.219-0.829,0.663-0.829C306.076-77.621,306.076-77.072,304.973-76.409z
					 M315.746-58.674c0.109,0.554,0.166,1.051,0.166,1.492c0,1.107-0.331,2.269-0.994,3.479c-0.663,1.218-1.88,1.823-3.646,1.823
					c0-1.325,0.383-2.76,1.158-4.31c0.771-1.543,1.823-2.761,3.149-3.646C315.581-59.611,315.633-59.223,315.746-58.674z
					 M322.542-63.812c0,0.663-0.223,1.108-0.663,1.326c-0.445,0.223-0.663-0.218-0.663-1.326c0-1.104,0.218-1.543,0.663-1.326
					C322.319-64.916,322.542-64.476,322.542-63.812z"/>
				<path fill="#EA118D" d="M1.326-49.228v0.994c0.44,1.326,1.16,3.149,2.155,5.47c0.994,2.32,1.6,3.48,1.823,3.48h1.657
					c0-1.104,0.383-2.264,1.16-3.48c0.771-1.212,1.709-1.822,2.817-1.822h0.332c0.217,0.223,0.715,0.662,1.491,1.326
					c0.771,0.662,1.27,1.107,1.492,1.325h0.331h0.663c0.44-0.218,0.938-0.663,1.491-1.325c0.55-0.664,0.938-1.104,1.161-1.326
					c0.439,0.886,1.6,1.822,3.48,2.817c1.875,0.994,3.258,1.384,4.144,1.16c0.44-0.218,1.932-0.829,4.475-1.823
					c2.538-0.994,4.03-1.71,4.476-2.154l5.304,5.304c0.663,0.663,1.435,0.166,2.32-1.491c0.881-1.656,1.544-2.486,1.989-2.486h0.663
					c1.988,1.108,3.48,2.047,4.475,2.817c0.995,0.777,2.704,1.16,5.139,1.16h0.663c0.217-0.217,0.828-0.714,1.823-1.491
					c0.994-0.771,1.709-1.16,2.154-1.16c0.44,0,0.938,0.331,1.492,0.994c0.549,0.663,0.828,1.219,0.828,1.657
					c2.652-1.543,3.979-3.313,3.979-5.304c0-1.325-0.446-2.207-1.326-2.651c-0.886-0.44-1.326-1.435-1.326-2.983v-0.994
					c0-0.217,0.108-0.549,0.331-0.994c0.44,1.107,1.27,1.988,2.486,2.652c1.212,0.661,2.372,1.107,3.48,1.324
					c-0.445,0.446-0.828,1.439-1.16,2.982c-0.331,1.55-0.279,2.652,0.166,3.315c0.218,0.445,0.994,0.994,2.32,1.657
					c1.326,0.663,2.207,0.994,2.652,0.994c1.326-1.104,2.098-2.206,2.32-3.314c0.218-1.104,1.104-1.767,2.652-1.988
					c0.439,0.662,0.938,1.492,1.491,2.485c0.549,0.994,1.16,1.492,1.823,1.492h0.663c0.218-0.218,0.497-0.44,0.829-0.663
					c0.331-0.218,0.497-0.439,0.497-0.663c0.88-0.881,1.325-1.767,1.325-2.651l-3.646-6.299c-0.224-0.218-0.166-0.496,0.165-0.828
					c0.332-0.332,0.606-0.498,0.829-0.498H83.2v0.332c1.988,0,3.589,0.389,4.807,1.16c1.212,0.776,2.429,1.657,3.646,2.651
					c1.212,0.994,2.372,1.88,3.48,2.652c1.104,0.776,2.538,1.159,4.31,1.159c0.217,0,0.663-0.496,1.325-1.491
					c0.663-0.994,1.326-2.099,1.989-3.314c0.663-1.212,1.212-2.372,1.657-3.479c0.44-1.104,0.663-1.875,0.663-2.321h0.663h0.663
					c0.218,0.224,0.331,0.663,0.331,1.326v9.282c0.44,0,0.772-0.109,0.995-0.332c2.429-1.767,4.361-3.48,5.801-5.139
					c1.435-1.656,3.921-2.486,7.459-2.486c0.44,0,1.212,0.332,2.32,0.994c1.104,0.664,1.875,1.219,2.32,1.658
					c0-0.881,0.383-1.767,1.16-2.652c0.771-0.881,1.709-1.325,2.817-1.325c0,0.223,0.109,0.444,0.332,0.663l0.663,0.662
					c0.217,0.445,0.44,1.492,0.663,3.149c0.217,1.657,0.439,2.709,0.662,3.149c0.218,0,0.663,0.057,1.326,0.165
					c0.663,0.114,1.104,0.166,1.326,0.166c1.989,0,3.755-0.497,5.304-1.492c1.544-0.994,3.315-1.491,5.304-1.491
					c0.881,0,1.544,0.223,1.989,0.663c0.44,0.445,0.549,1.549,0.332,3.313c0.662-1.766,1.377-2.868,2.154-3.313
					c0.771-0.44,1.823-0.663,3.149-0.663c1.325,0,2.206,0.279,2.651,0.829c0.44,0.554,1.212,0.828,2.32,0.828
					c0.881,0,1.989-0.828,3.315-2.486c1.326-1.657,2.595-3.532,3.812-5.635c1.213-2.099,2.264-4.194,3.149-6.298
					c0.881-2.098,1.326-3.589,1.326-4.475c0-0.219-0.057-0.715-0.166-1.492c-0.113-0.772-0.165-1.379-0.165-1.823
					c-1.771-0.218-2.983-1.046-3.646-2.486c-0.663-1.435-1.549-2.595-2.652-3.479l-2.651,7.623
					c-3.315-2.428-5.915-6.019-7.79-10.772c-1.881-4.75-2.818-9.002-2.818-12.762c-2.212,0-3.48,0.829-3.812,2.485
					c-0.332,1.658-0.721,3.481-1.161,5.471h-0.331c-0.663,0-1.217-0.383-1.657-1.16c-0.445-0.771-0.886-1.657-1.326-2.652
					c-0.445-0.994-0.942-1.875-1.492-2.652c-0.554-0.771-1.383-1.159-2.485-1.159c-4.424,0-8.898,0.61-13.426,1.823
					c-4.532,1.217-8.898,1.822-13.094,1.822c-0.886,0-1.605-0.166-2.155-0.498c-0.554-0.332-1.273-0.496-2.154-0.496
					c-2.652,0-5.47,0.388-8.453,1.159c-2.983,0.777-5.692,1.16-8.121,1.16c-0.445,0-1.771-0.166-3.979-0.497
					c-2.211-0.332-3.537-0.605-3.978-0.829h-0.663h-0.331c-0.446,0.224-1.161,0.497-2.155,0.829
					c-0.994,0.332-1.605,0.497-1.823,0.497c-0.223,0-0.663-0.217-1.326-0.663c-0.662-0.439-1.108-0.663-1.325-0.663
					c-1.108,0-1.989,1.108-2.652,3.314c-0.663,2.212-1.88,3.315-3.646,3.315l-0.663-0.664l-0.663-0.662
					c-0.223-0.219-0.497-0.383-0.828-0.498c-0.332-0.108-0.721-0.383-1.16-0.828c-0.663-0.217-1.218-0.549-1.658-0.994h-0.331
					l-0.663-0.332l-0.663,0.332c-0.445,0.886-0.663,1.822-0.663,2.816c0,0.996-0.554,1.715-1.657,2.155
					c-1.108-0.44-1.657-1.325-1.657-2.651s0.549-2.652,1.657-3.979c-0.445-0.217-1.108-0.497-1.989-0.829
					c-0.886-0.332-1.549-0.497-1.988-0.497l-1.326,0.663l-1.326,0.663c-0.223,0.223-0.445,0.332-0.663,0.332H51.05l-0.994-0.332
					l-1.326-1.326c-2.435,0-4.755,0.497-6.961,1.492c-2.212,0.994-4.424,1.492-6.63,1.492c-1.108,0-1.771-0.275-1.989-0.829
					c-0.223-0.549-0.886-0.829-1.989-0.829H30.83c-0.223,0.223-0.497,0.497-0.829,0.829c-0.331,0.332-0.497,0.61-0.497,0.829
					c-0.445-2.207-1.491-3.424-3.149-3.646c-1.657-0.218-3.148-0.332-4.475-0.332c-2.435,0-4.424,0.664-5.967,1.989
					c-1.549,1.326-2.543,3.206-2.983,5.636l0.663,1.325c0.217,0.445,0.44,0.777,0.663,0.995v2.982c0,1.99-0.611,3.264-1.823,3.812
					c-1.218,0.555-2.652,1.16-4.31,1.823s-3.264,1.714-4.807,3.149c-1.549,1.439-2.652,4.035-3.315,7.789l0.663,1.326
					c0.218,0.445,0.44,0.777,0.663,0.995c0,0.445-0.166,0.942-0.497,1.492c-0.332,0.554-0.612,0.942-0.83,1.16
					c0.44,0,1.104,0.166,1.989,0.497c0.881,0.332,1.435,0.611,1.657,0.828l0.332,0.664l-0.332,0.662
					c-0.223,0.224-0.663,0.445-1.325,0.664c-0.663,0.223-0.995,0.444-0.995,0.662V-49.228z M20.222-85.69
					c1.543,0,2.538,0.554,2.983,1.658h-1.326c-1.549,0-2.435-0.55-2.652-1.658H20.222z M23.205-52.211
					c-0.445,0-0.663-0.273-0.663-0.828c0-0.549,0.218-0.715,0.663-0.497C24.085-53.092,24.085-52.65,23.205-52.211z M24.199-81.713
					h1.326v1.326L24.199-81.713z M33.149-80.387h0.994h0.332c0.44,0.223,0.938,0.445,1.491,0.662c0.55,0.223,0.938,0.445,1.16,0.663
					c-0.445,0.886-0.942,1.771-1.491,2.652c-0.555,0.886-1.383,1.325-2.486,1.325V-80.387z M59.669-47.072
					c0,0.777-0.223,1.161-0.663,1.161c-0.663,0-0.994-0.384-0.994-1.161c0-0.771,0.331-1.16,0.994-1.16
					C59.446-48.232,59.669-47.844,59.669-47.072z M73.923-81.713c0,0.887-0.331,1.326-0.994,1.326c-0.445,0-0.663-0.439-0.663-1.326
					c0-0.879,0.218-1.325,0.663-1.325C73.592-83.039,73.923-82.594,73.923-81.713z M74.255-74.088h2.651
					c0,1.988-0.886,2.982-2.651,2.982V-74.088z M79.227-81.713c0,0.887-0.445,1.326-1.325,1.326c-0.446,0-0.663-0.439-0.663-1.326
					c0-0.879,0.217-1.325,0.663-1.325C78.781-83.039,79.227-82.594,79.227-81.713z M81.547-67.625c0,0.996-0.223,1.492-0.662,1.492
					c-0.663,0-0.995-0.496-0.995-1.492c0-0.994,0.332-1.491,0.995-1.491C81.324-69.116,81.547-68.619,81.547-67.625z M84.53-58.508
					l-1.325,1.326c-0.886-0.664-1.326-1.658-1.326-2.984C82.982-60.166,83.868-59.611,84.53-58.508z M84.53-54.862
					c-0.445,0.224-0.662,0.058-0.662-0.497c0-0.549,0.217-0.829,0.662-0.829C85.411-55.742,85.411-55.303,84.53-54.862z
					 M85.856-81.713h2.652c0.218,0,0.497,0.664,0.828,1.99c0.332,1.325,0.498,2.435,0.498,3.314c0,1.107-0.389,1.938-1.16,2.486
					c-0.777,0.554-1.715,0.828-2.818,0.828V-81.713z M93.481-56.188c0.217,0.224,0.497,0.445,0.828,0.663
					c0.332,0.223,0.497,0.445,0.497,0.663v0.663v0.663c0,0.886-0.445,1.325-1.325,1.325V-56.188z M111.382-56.188h1.326v2.651
					h-1.326V-56.188z M123.979-56.022c0,0.777-0.332,1.16-0.995,1.16c-0.662,0-0.994-0.383-0.994-1.16
					c0-0.771,0.332-1.159,0.994-1.159S123.979-56.793,123.979-56.022z M133.26-74.088h0.663h0.663
					c0.218,0.223,0.44,0.662,0.663,1.326c0.218,0.662,0.331,1.107,0.331,1.325c0,0.445-0.279,0.777-0.828,0.994
					c-0.555,0.224-1.052,0.332-1.492,0.332V-74.088L133.26-74.088z M135.249-82.873c0,0.777-0.223,1.16-0.663,1.16
					c-0.663,0-0.994-0.383-0.994-1.16c0-0.772,0.331-1.16,0.994-1.16C135.026-84.033,135.249-83.646,135.249-82.873z M135.58-76.409
					c-0.445,0-0.663-0.274-0.663-0.829c0-0.549,0.218-0.829,0.663-0.829C136.684-77.621,136.684-77.072,135.58-76.409z
					 M146.354-58.674c0.109,0.554,0.166,1.051,0.166,1.492c0,1.107-0.331,2.269-0.994,3.479c-0.663,1.218-1.88,1.823-3.646,1.823
					c0-1.325,0.383-2.76,1.16-4.31c0.771-1.543,1.823-2.761,3.149-3.646C146.188-59.611,146.24-59.223,146.354-58.674z
					 M153.149-63.812c0,0.663-0.223,1.108-0.663,1.326c-0.445,0.223-0.663-0.218-0.663-1.326c0-1.104,0.218-1.543,0.663-1.326
					C152.927-64.916,153.149-64.476,153.149-63.812z"/>
				<path fill="#EA118D" d="M86.022-88.225v0.994c0.44,1.326,1.16,3.149,2.155,5.471c0.994,2.319,1.6,3.479,1.823,3.479h1.657
					c0-1.103,0.383-2.263,1.16-3.479c0.771-1.213,1.709-1.824,2.817-1.824h0.332c0.217,0.224,0.715,0.664,1.491,1.326
					c0.771,0.664,1.27,1.108,1.492,1.326h0.331h0.663c0.44-0.217,0.938-0.662,1.491-1.326c0.55-0.662,0.938-1.104,1.161-1.326
					c0.439,0.887,1.6,1.824,3.48,2.818c1.875,0.994,3.258,1.383,4.144,1.16c0.44-0.218,1.932-0.829,4.475-1.822
					c2.538-0.996,4.03-1.709,4.476-2.156l5.304,5.305c0.663,0.663,1.435,0.166,2.32-1.492c0.881-1.656,1.544-2.486,1.989-2.486
					h0.663c1.988,1.108,3.48,2.047,4.475,2.817c0.995,0.777,2.704,1.16,5.139,1.16h0.663c0.217-0.217,0.828-0.714,1.823-1.492
					c0.994-0.771,1.709-1.159,2.154-1.159c0.44,0,0.938,0.331,1.492,0.994c0.549,0.663,0.828,1.217,0.828,1.657
					c2.652-1.543,3.979-3.315,3.979-5.304c0-1.326-0.446-2.207-1.326-2.652c-0.886-0.439-1.326-1.436-1.326-2.982v-0.996
					c0-0.217,0.108-0.549,0.331-0.994c0.44,1.108,1.27,1.99,2.486,2.652c1.212,0.663,2.372,1.108,3.48,1.326
					c-0.445,0.446-0.828,1.439-1.16,2.983c-0.331,1.549-0.279,2.651,0.166,3.314c0.218,0.446,0.994,0.995,2.32,1.658
					c1.326,0.663,2.207,0.994,2.652,0.994c1.326-1.103,2.098-2.206,2.32-3.315c0.218-1.103,1.104-1.766,2.652-1.988
					c0.439,0.662,0.938,1.492,1.491,2.486c0.549,0.993,1.16,1.491,1.823,1.491h0.663c0.218-0.218,0.497-0.44,0.829-0.663
					c0.331-0.217,0.497-0.439,0.497-0.663c0.88-0.88,1.325-1.766,1.325-2.651l-3.646-6.299c-0.224-0.217-0.166-0.496,0.165-0.828
					c0.332-0.332,0.606-0.498,0.829-0.498h1.326v0.332c1.988,0,3.589,0.389,4.807,1.16c1.212,0.777,2.429,1.657,3.646,2.652
					c1.212,0.994,2.372,1.88,3.48,2.652c1.104,0.777,2.538,1.16,4.31,1.16c0.217,0,0.663-0.498,1.325-1.492
					c0.663-0.995,1.326-2.098,1.989-3.315c0.663-1.212,1.212-2.372,1.657-3.479c0.44-1.104,0.663-1.875,0.663-2.321h0.663h0.663
					c0.218,0.224,0.331,0.663,0.331,1.326v9.282c0.44,0,0.772-0.109,0.995-0.332c2.429-1.767,4.361-3.48,5.801-5.139
					c1.435-1.656,3.921-2.486,7.459-2.486c0.44,0,1.212,0.332,2.32,0.994c1.104,0.664,1.875,1.218,2.32,1.658
					c0-0.881,0.383-1.767,1.16-2.652c0.771-0.881,1.709-1.325,2.817-1.325c0,0.223,0.109,0.444,0.332,0.663l0.663,0.662
					c0.217,0.445,0.44,1.492,0.663,3.149c0.217,1.657,0.439,2.709,0.662,3.149c0.218,0,0.663,0.057,1.326,0.166
					c0.663,0.113,1.104,0.166,1.326,0.166c1.989,0,3.755-0.497,5.304-1.492c1.544-0.994,3.315-1.492,5.304-1.492
					c0.881,0,1.544,0.223,1.989,0.663c0.44,0.445,0.549,1.549,0.332,3.315c0.662-1.767,1.377-2.87,2.154-3.315
					c0.771-0.44,1.823-0.663,3.149-0.663c1.325,0,2.206,0.28,2.651,0.829c0.44,0.554,1.212,0.829,2.32,0.829
					c0.881,0,1.989-0.829,3.315-2.486c1.326-1.656,2.595-3.531,3.812-5.635c1.213-2.098,2.264-4.195,3.149-6.298
					c0.881-2.099,1.326-3.589,1.326-4.476c0-0.217-0.057-0.715-0.166-1.491c-0.113-0.772-0.165-1.378-0.165-1.823
					c-1.771-0.218-2.983-1.046-3.646-2.486c-0.663-1.435-1.549-2.595-2.652-3.479l-2.651,7.624c-3.315-2.43-5.915-6.02-7.79-10.773
					c-1.881-4.75-2.818-9.002-2.818-12.762c-2.212,0-3.48,0.829-3.812,2.486c-0.332,1.658-0.721,3.48-1.161,5.47h-0.331
					c-0.663,0-1.217-0.384-1.657-1.16c-0.445-0.771-0.886-1.657-1.326-2.651c-0.445-0.996-0.942-1.875-1.492-2.652
					c-0.554-0.772-1.383-1.16-2.485-1.16c-4.424,0-8.898,0.611-13.426,1.822c-4.532,1.218-8.898,1.824-13.094,1.824
					c-0.886,0-1.605-0.166-2.155-0.498c-0.554-0.332-1.273-0.498-2.154-0.498c-2.652,0-5.47,0.389-8.453,1.16
					c-2.983,0.777-5.692,1.16-8.121,1.16c-0.445,0-1.771-0.166-3.979-0.497c-2.211-0.332-3.537-0.606-3.978-0.829h-0.663h-0.331
					c-0.446,0.223-1.161,0.497-2.155,0.829s-1.605,0.497-1.823,0.497c-0.223,0-0.663-0.217-1.326-0.663
					c-0.662-0.44-1.108-0.663-1.325-0.663c-1.108,0-1.989,1.108-2.652,3.314c-0.663,2.212-1.88,3.314-3.646,3.314l-0.663-0.662
					l-0.663-0.664c-0.223-0.217-0.497-0.383-0.828-0.496c-0.332-0.109-0.721-0.383-1.16-0.829c-0.663-0.218-1.218-0.55-1.658-0.994
					h-0.331l-0.663-0.332l-0.663,0.332c-0.445,0.886-0.663,1.823-0.663,2.817s-0.554,1.713-1.657,2.154
					c-1.108-0.439-1.657-1.326-1.657-2.652c0-1.325,0.549-2.651,1.657-3.978c-0.445-0.217-1.108-0.497-1.989-0.829
					c-0.886-0.332-1.549-0.496-1.988-0.496l-1.326,0.662l-1.326,0.663c-0.223,0.224-0.445,0.332-0.663,0.332h-0.663l-0.994-0.332
					l-1.326-1.325c-2.435,0-4.755,0.496-6.961,1.491c-2.212,0.994-4.424,1.492-6.63,1.492c-1.108,0-1.771-0.274-1.989-0.829
					c-0.223-0.549-0.886-0.829-1.989-0.829h-0.331c-0.223,0.224-0.497,0.497-0.829,0.829c-0.331,0.332-0.497,0.611-0.497,0.829
					c-0.445-2.207-1.491-3.424-3.149-3.646c-1.657-0.219-3.148-0.332-4.475-0.332c-2.435,0-4.424,0.662-5.967,1.988
					c-1.549,1.326-2.543,3.206-2.983,5.635l0.663,1.326c0.217,0.445,0.44,0.777,0.663,0.995v2.983c0,1.988-0.611,3.263-1.823,3.812
					c-1.218,0.554-2.652,1.16-4.31,1.823c-1.658,0.663-3.264,1.714-4.807,3.148c-1.549,1.44-2.652,4.035-3.315,7.791l0.663,1.326
					c0.218,0.444,0.44,0.776,0.663,0.994c0,0.445-0.166,0.942-0.497,1.492c-0.331,0.555-0.611,0.941-0.829,1.16
					c0.44,0,1.104,0.166,1.989,0.497c0.881,0.332,1.435,0.61,1.657,0.829l0.332,0.662l-0.332,0.664
					c-0.223,0.223-0.663,0.444-1.325,0.662c-0.663,0.224-0.995,0.445-0.995,0.664v0.33H86.022z M104.918-124.688
					c1.543,0,2.538,0.554,2.983,1.658h-1.326c-1.549,0-2.435-0.549-2.652-1.658H104.918z M107.901-91.207
					c-0.445,0-0.663-0.275-0.663-0.829c0-0.55,0.218-0.716,0.663-0.497C108.781-92.088,108.781-91.647,107.901-91.207z
					 M108.896-120.711h1.326v1.326L108.896-120.711z M117.846-119.385h0.994h0.332c0.44,0.224,0.938,0.446,1.491,0.664
					c0.55,0.223,0.938,0.444,1.16,0.662c-0.445,0.887-0.942,1.771-1.491,2.652c-0.555,0.886-1.383,1.326-2.486,1.326V-119.385z
					 M144.365-86.069c0,0.776-0.223,1.161-0.663,1.161c-0.663,0-0.994-0.383-0.994-1.161c0-0.771,0.331-1.16,0.994-1.16
					C144.143-87.229,144.365-86.842,144.365-86.069z M158.619-120.711c0,0.887-0.331,1.326-0.994,1.326
					c-0.445,0-0.663-0.439-0.663-1.326c0-0.879,0.218-1.325,0.663-1.325C158.288-122.036,158.619-121.59,158.619-120.711z
					 M158.951-113.086h2.651c0,1.988-0.886,2.982-2.651,2.982V-113.086z M163.923-120.711c0,0.887-0.445,1.326-1.325,1.326
					c-0.446,0-0.663-0.439-0.663-1.326c0-0.879,0.217-1.325,0.663-1.325C163.478-122.036,163.923-121.59,163.923-120.711z
					 M166.243-106.622c0,0.995-0.223,1.491-0.662,1.491c-0.663,0-0.995-0.496-0.995-1.491s0.332-1.492,0.995-1.492
					C166.021-108.113,166.243-107.616,166.243-106.622z M169.227-97.506l-1.325,1.326c-0.886-0.664-1.326-1.658-1.326-2.983
					C167.679-99.163,168.564-98.609,169.227-97.506z M169.227-93.859c-0.445,0.223-0.662,0.057-0.662-0.497
					c0-0.549,0.217-0.829,0.662-0.829C170.107-94.74,170.107-94.299,169.227-93.859z M170.553-120.711h2.652
					c0.218,0,0.497,0.664,0.828,1.99c0.332,1.325,0.498,2.435,0.498,3.314c0,1.107-0.389,1.938-1.16,2.486
					c-0.777,0.554-1.715,0.828-2.818,0.828V-120.711z M178.178-95.186c0.217,0.223,0.497,0.445,0.828,0.663
					c0.332,0.224,0.497,0.445,0.497,0.663v0.663v0.663c0,0.886-0.445,1.326-1.325,1.326V-95.186z M196.078-95.186h1.326v2.652
					h-1.326V-95.186z M208.675-95.021c0,0.777-0.332,1.16-0.995,1.16c-0.662,0-0.994-0.383-0.994-1.16
					c0-0.771,0.332-1.159,0.994-1.159C208.343-96.18,208.675-95.791,208.675-95.021z M217.956-113.086h0.663h0.663
					c0.218,0.223,0.44,0.662,0.663,1.326c0.218,0.662,0.331,1.107,0.331,1.325c0,0.445-0.279,0.777-0.828,0.994
					c-0.555,0.224-1.052,0.332-1.492,0.332V-113.086L217.956-113.086z M219.945-121.87c0,0.776-0.223,1.159-0.663,1.159
					c-0.663,0-0.994-0.383-0.994-1.159c0-0.772,0.331-1.16,0.994-1.16C219.723-123.03,219.945-122.643,219.945-121.87z
					 M220.276-115.406c-0.445,0-0.663-0.273-0.663-0.829c0-0.549,0.218-0.829,0.663-0.829
					C221.38-116.618,221.38-116.069,220.276-115.406z M231.05-97.672c0.109,0.555,0.166,1.052,0.166,1.492
					c0,1.108-0.331,2.27-0.994,3.48c-0.663,1.217-1.88,1.822-3.646,1.822c0-1.325,0.383-2.76,1.16-4.309
					c0.771-1.543,1.823-2.761,3.149-3.646C230.885-98.609,230.937-98.221,231.05-97.672z M237.846-102.811
					c0,0.663-0.223,1.108-0.663,1.326c-0.445,0.223-0.663-0.218-0.663-1.326c0-1.103,0.218-1.543,0.663-1.326
					C237.623-103.913,237.846-103.473,237.846-102.811z"/>
				<path fill="#EA118D" d="M170.719-127.221v0.993c0.44,1.326,1.16,3.149,2.155,5.47c0.994,2.32,1.6,3.48,1.823,3.48h1.657
					c0-1.104,0.383-2.264,1.16-3.48c0.771-1.211,1.709-1.822,2.817-1.822h0.332c0.217,0.223,0.715,0.662,1.491,1.326
					c0.771,0.662,1.27,1.107,1.492,1.326h0.331h0.663c0.44-0.218,0.938-0.664,1.491-1.326c0.55-0.664,0.938-1.104,1.161-1.326
					c0.439,0.886,1.6,1.822,3.48,2.818c1.875,0.993,3.258,1.383,4.144,1.159c0.44-0.218,1.932-0.829,4.475-1.823
					c2.538-0.994,4.03-1.709,4.476-2.154l5.304,5.304c0.663,0.663,1.435,0.166,2.32-1.492c0.881-1.657,1.544-2.485,1.989-2.485
					h0.663c1.988,1.107,3.48,2.045,4.475,2.816c0.995,0.777,2.704,1.16,5.139,1.16h0.663c0.217-0.217,0.828-0.714,1.823-1.492
					c0.994-0.771,1.709-1.16,2.154-1.16c0.44,0,0.938,0.332,1.492,0.995c0.549,0.663,0.828,1.218,0.828,1.657
					c2.652-1.543,3.979-3.314,3.979-5.304c0-1.326-0.446-2.207-1.326-2.652c-0.886-0.44-1.326-1.435-1.326-2.983v-0.994
					c0-0.217,0.108-0.549,0.331-0.994c0.44,1.107,1.27,1.988,2.486,2.652c1.212,0.662,2.372,1.107,3.48,1.325
					c-0.445,0.446-0.828,1.44-1.16,2.983c-0.331,1.549-0.279,2.652,0.166,3.314c0.218,0.446,0.994,0.995,2.32,1.658
					s2.207,0.994,2.652,0.994c1.326-1.104,2.098-2.206,2.32-3.314c0.218-1.104,1.104-1.767,2.652-1.989
					c0.439,0.663,0.938,1.491,1.491,2.485c0.549,0.994,1.16,1.492,1.823,1.492h0.663c0.218-0.218,0.497-0.439,0.829-0.662
					c0.331-0.218,0.497-0.44,0.497-0.664c0.88-0.88,1.325-1.766,1.325-2.651l-3.646-6.298c-0.224-0.217-0.166-0.498,0.165-0.83
					c0.332-0.332,0.606-0.496,0.829-0.496h1.326v0.33c1.988,0,3.589,0.39,4.807,1.162c1.212,0.776,2.429,1.656,3.646,2.651
					c1.212,0.994,2.372,1.88,3.48,2.652c1.104,0.776,2.538,1.159,4.31,1.159c0.217,0,0.663-0.496,1.325-1.491
					c0.663-0.995,1.326-2.099,1.989-3.315c0.663-1.212,1.212-2.371,1.657-3.479c0.44-1.104,0.663-1.875,0.663-2.321h0.663h0.663
					c0.218,0.223,0.331,0.663,0.331,1.326v9.281c0.44,0,0.772-0.108,0.995-0.331c2.429-1.767,4.361-3.48,5.801-5.138
					c1.435-1.658,3.921-2.486,7.459-2.486c0.44,0,1.212,0.33,2.32,0.994c1.104,0.662,1.875,1.217,2.32,1.658
					c0-0.882,0.383-1.768,1.16-2.652c0.771-0.881,1.709-1.326,2.817-1.326c0,0.223,0.109,0.445,0.332,0.663l0.663,0.663
					c0.217,0.445,0.439,1.492,0.663,3.148c0.217,1.657,0.438,2.709,0.662,3.149c0.218,0,0.663,0.057,1.325,0.166
					c0.663,0.114,1.104,0.166,1.326,0.166c1.989,0,3.755-0.497,5.306-1.492c1.544-0.994,3.313-1.492,5.304-1.492
					c0.881,0,1.544,0.224,1.989,0.663c0.438,0.445,0.549,1.549,0.332,3.315c0.66-1.767,1.377-2.87,2.152-3.315
					c0.771-0.439,1.823-0.663,3.149-0.663c1.325,0,2.206,0.28,2.649,0.829c0.44,0.555,1.214,0.829,2.32,0.829
					c0.881,0,1.989-0.829,3.315-2.485c1.324-1.658,2.595-3.533,3.812-5.636c1.213-2.098,2.265-4.194,3.149-6.298
					c0.881-2.098,1.326-3.589,1.326-4.475c0-0.219-0.059-0.715-0.166-1.492c-0.113-0.772-0.165-1.378-0.165-1.823
					c-1.771-0.218-2.983-1.046-3.646-2.486c-0.663-1.435-1.549-2.595-2.652-3.48l-2.649,7.624c-3.315-2.429-5.915-6.019-7.79-10.773
					c-1.881-4.75-2.818-9.002-2.818-12.762c-2.212,0-3.479,0.829-3.812,2.486c-0.332,1.658-0.723,3.481-1.161,5.47h-0.331
					c-0.663,0-1.217-0.383-1.657-1.16c-0.445-0.771-0.886-1.657-1.326-2.652c-0.443-0.995-0.94-1.875-1.49-2.652
					c-0.556-0.772-1.385-1.16-2.485-1.16c-4.424,0-8.898,0.611-13.426,1.823c-4.532,1.217-8.898,1.823-13.094,1.823
					c-0.886,0-1.605-0.166-2.155-0.498c-0.554-0.332-1.273-0.497-2.154-0.497c-2.652,0-5.47,0.388-8.453,1.16
					c-2.983,0.777-5.692,1.16-8.121,1.16c-0.445,0-1.771-0.166-3.979-0.497c-2.211-0.332-3.537-0.606-3.978-0.829h-0.663h-0.331
					c-0.446,0.223-1.161,0.497-2.155,0.829c-0.994,0.332-1.605,0.497-1.823,0.497c-0.223,0-0.663-0.217-1.326-0.663
					c-0.662-0.44-1.108-0.663-1.325-0.663c-1.108,0-1.989,1.108-2.652,3.314c-0.663,2.212-1.88,3.315-3.646,3.315l-0.663-0.663
					l-0.663-0.663c-0.223-0.218-0.497-0.383-0.828-0.497c-0.332-0.109-0.721-0.383-1.16-0.829c-0.663-0.217-1.218-0.549-1.658-0.994
					h-0.331l-0.663-0.332l-0.663,0.332c-0.445,0.886-0.663,1.823-0.663,2.817c0,0.995-0.554,1.714-1.657,2.155
					c-1.108-0.44-1.657-1.326-1.657-2.652c0-1.326,0.549-2.652,1.657-3.979c-0.445-0.217-1.108-0.497-1.989-0.829
					c-0.886-0.332-1.549-0.497-1.988-0.497l-1.326,0.663l-1.326,0.663c-0.223,0.223-0.445,0.332-0.663,0.332h-0.663l-0.994-0.332
					l-1.326-1.326c-2.435,0-4.755,0.497-6.961,1.492c-2.212,0.994-4.424,1.492-6.63,1.492c-1.108,0-1.771-0.275-1.989-0.829
					c-0.223-0.549-0.886-0.829-1.989-0.829h-0.331c-0.223,0.223-0.497,0.497-0.829,0.829c-0.331,0.332-0.497,0.611-0.497,0.829
					c-0.445-2.207-1.491-3.424-3.149-3.646c-1.657-0.218-3.148-0.332-4.475-0.332c-2.435,0-4.424,0.663-5.967,1.989
					c-1.549,1.326-2.543,3.206-2.983,5.635l0.663,1.326c0.217,0.445,0.44,0.777,0.663,0.995v2.983c0,1.989-0.611,3.263-1.823,3.812
					c-1.218,0.554-2.652,1.16-4.31,1.823c-1.658,0.663-3.264,1.714-4.807,3.149c-1.549,1.439-2.652,4.035-3.315,7.789l0.663,1.326
					c0.218,0.445,0.44,0.777,0.663,0.996c0,0.444-0.166,0.941-0.497,1.491c-0.331,0.554-0.611,0.942-0.829,1.16
					c0.44,0,1.104,0.166,1.989,0.497c0.881,0.332,1.435,0.611,1.657,0.829l0.332,0.663l-0.332,0.662
					c-0.223,0.224-0.663,0.445-1.325,0.664c-0.663,0.223-0.995,0.444-0.995,0.662v0.332H170.719z M189.614-163.687
					c1.543,0,2.538,0.554,2.983,1.658h-1.326c-1.549,0-2.435-0.549-2.652-1.658H189.614z M192.598-130.205
					c-0.445,0-0.663-0.275-0.663-0.829c0-0.55,0.218-0.716,0.663-0.497C193.478-131.086,193.478-130.646,192.598-130.205z
					 M193.592-159.708h1.326v1.326L193.592-159.708z M202.542-158.382h0.994h0.332c0.44,0.223,0.938,0.446,1.491,0.663
					c0.55,0.223,0.938,0.445,1.16,0.663c-0.445,0.886-0.942,1.771-1.491,2.652c-0.555,0.886-1.383,1.326-2.486,1.326V-158.382
					L202.542-158.382z M229.062-125.067c0,0.776-0.223,1.161-0.663,1.161c-0.663,0-0.994-0.383-0.994-1.161
					c0-0.771,0.331-1.16,0.994-1.16C228.839-126.228,229.062-125.838,229.062-125.067z M243.315-159.708
					c0,0.886-0.331,1.326-0.994,1.326c-0.445,0-0.663-0.44-0.663-1.326c0-0.88,0.218-1.326,0.663-1.326
					C242.984-161.034,243.315-160.588,243.315-159.708z M243.647-152.083h2.651c0,1.989-0.886,2.983-2.651,2.983V-152.083z
					 M248.619-159.708c0,0.886-0.445,1.326-1.325,1.326c-0.446,0-0.663-0.44-0.663-1.326c0-0.88,0.217-1.326,0.663-1.326
					C248.174-161.034,248.619-160.588,248.619-159.708z M250.939-145.619c0,0.994-0.223,1.492-0.662,1.492
					c-0.663,0-0.995-0.498-0.995-1.492c0-0.995,0.332-1.492,0.995-1.492C250.717-147.111,250.939-146.614,250.939-145.619z
					 M253.923-136.504l-1.325,1.326c-0.886-0.662-1.326-1.656-1.326-2.982C252.375-138.161,253.261-137.606,253.923-136.504z
					 M253.923-132.857c-0.445,0.223-0.662,0.057-0.662-0.497c0-0.549,0.217-0.829,0.662-0.829
					C254.804-133.737,254.804-133.297,253.923-132.857z M255.249-159.708h2.652c0.218,0,0.497,0.663,0.828,1.989
					c0.332,1.326,0.498,2.435,0.498,3.315c0,1.108-0.389,1.937-1.16,2.486c-0.777,0.554-1.715,0.829-2.818,0.829V-159.708z
					 M262.874-134.184c0.217,0.223,0.497,0.445,0.828,0.663c0.332,0.224,0.497,0.445,0.497,0.663v0.663v0.663
					c0,0.886-0.445,1.326-1.325,1.326V-134.184z M280.774-134.184h1.326v2.652h-1.326V-134.184z M293.371-134.018
					c0,0.777-0.332,1.16-0.995,1.16c-0.662,0-0.994-0.383-0.994-1.16c0-0.771,0.332-1.16,0.994-1.16
					C293.039-135.178,293.371-134.789,293.371-134.018z M302.652-152.083h0.663h0.662c0.219,0.223,0.44,0.663,0.663,1.326
					c0.219,0.663,0.331,1.108,0.331,1.326c0,0.445-0.278,0.777-0.828,0.994c-0.555,0.223-1.052,0.332-1.491,0.332V-152.083
					L302.652-152.083z M304.642-160.868c0,0.777-0.223,1.16-0.663,1.16c-0.662,0-0.993-0.383-0.993-1.16
					c0-0.772,0.331-1.16,0.993-1.16C304.419-162.028,304.642-161.64,304.642-160.868z M304.973-154.404
					c-0.444,0-0.663-0.274-0.663-0.829c0-0.549,0.219-0.829,0.663-0.829C306.076-155.616,306.076-155.067,304.973-154.404z
					 M315.746-136.67c0.109,0.555,0.166,1.052,0.166,1.492c0,1.108-0.331,2.27-0.994,3.48c-0.663,1.217-1.88,1.822-3.646,1.822
					c0-1.325,0.383-2.76,1.158-4.309c0.771-1.543,1.823-2.761,3.149-3.646C315.581-137.606,315.633-137.219,315.746-136.67z
					 M322.542-141.807c0,0.662-0.223,1.107-0.663,1.325c-0.445,0.224-0.663-0.218-0.663-1.325c0-1.104,0.218-1.544,0.663-1.326
					C322.319-142.91,322.542-142.471,322.542-141.807z"/>
				<path fill="#EA118D" d="M1.326-127.221v0.993c0.44,1.326,1.16,3.149,2.155,5.47c0.994,2.32,1.6,3.48,1.823,3.48h1.657
					c0-1.104,0.383-2.264,1.16-3.48c0.771-1.211,1.709-1.822,2.817-1.822h0.332c0.217,0.223,0.715,0.662,1.491,1.326
					c0.771,0.662,1.27,1.107,1.492,1.326h0.331h0.663c0.44-0.218,0.938-0.664,1.491-1.326c0.55-0.664,0.938-1.104,1.161-1.326
					c0.439,0.886,1.6,1.822,3.48,2.818c1.875,0.993,3.258,1.383,4.144,1.159c0.44-0.218,1.932-0.829,4.475-1.823
					c2.538-0.994,4.03-1.709,4.476-2.154l5.304,5.304c0.663,0.663,1.435,0.166,2.32-1.492c0.881-1.657,1.544-2.485,1.989-2.485
					h0.663c1.988,1.107,3.48,2.045,4.475,2.816c0.995,0.777,2.704,1.16,5.139,1.16h0.663c0.217-0.217,0.828-0.714,1.823-1.492
					c0.994-0.771,1.709-1.16,2.154-1.16c0.44,0,0.938,0.332,1.492,0.995c0.549,0.663,0.828,1.218,0.828,1.657
					c2.652-1.543,3.979-3.314,3.979-5.304c0-1.326-0.446-2.207-1.326-2.652c-0.886-0.44-1.326-1.435-1.326-2.983v-0.994
					c0-0.217,0.108-0.549,0.331-0.994c0.44,1.107,1.27,1.988,2.486,2.652c1.212,0.662,2.372,1.107,3.48,1.325
					c-0.445,0.446-0.828,1.44-1.16,2.983c-0.331,1.549-0.279,2.652,0.166,3.314c0.218,0.446,0.994,0.995,2.32,1.658
					c1.326,0.663,2.207,0.994,2.652,0.994c1.326-1.104,2.098-2.206,2.32-3.314c0.218-1.104,1.104-1.767,2.652-1.989
					c0.439,0.663,0.938,1.491,1.491,2.485c0.549,0.994,1.16,1.492,1.823,1.492h0.663c0.218-0.218,0.497-0.439,0.829-0.662
					c0.331-0.218,0.497-0.44,0.497-0.664c0.88-0.88,1.325-1.766,1.325-2.651l-3.646-6.298c-0.224-0.217-0.166-0.498,0.165-0.83
					c0.332-0.332,0.606-0.496,0.829-0.496H83.2v0.33c1.988,0,3.589,0.39,4.807,1.162c1.212,0.776,2.429,1.656,3.646,2.651
					c1.212,0.994,2.372,1.88,3.48,2.652c1.104,0.776,2.538,1.159,4.31,1.159c0.217,0,0.663-0.496,1.325-1.491
					c0.663-0.995,1.326-2.099,1.989-3.315c0.663-1.212,1.212-2.371,1.657-3.479c0.44-1.104,0.663-1.875,0.663-2.321h0.663h0.663
					c0.218,0.223,0.331,0.663,0.331,1.326v9.281c0.44,0,0.772-0.108,0.995-0.331c2.429-1.767,4.361-3.48,5.801-5.138
					c1.435-1.658,3.921-2.486,7.459-2.486c0.44,0,1.212,0.33,2.32,0.994c1.104,0.662,1.875,1.217,2.32,1.658
					c0-0.882,0.383-1.768,1.16-2.652c0.771-0.881,1.709-1.326,2.817-1.326c0,0.223,0.109,0.445,0.332,0.663l0.663,0.663
					c0.217,0.445,0.44,1.492,0.663,3.148c0.217,1.657,0.439,2.709,0.662,3.149c0.218,0,0.663,0.057,1.326,0.166
					c0.663,0.114,1.104,0.166,1.326,0.166c1.989,0,3.755-0.497,5.304-1.492c1.544-0.994,3.315-1.492,5.304-1.492
					c0.881,0,1.544,0.224,1.989,0.663c0.44,0.445,0.549,1.549,0.332,3.315c0.662-1.767,1.377-2.87,2.154-3.315
					c0.771-0.439,1.823-0.663,3.149-0.663c1.325,0,2.206,0.28,2.651,0.829c0.44,0.555,1.212,0.829,2.32,0.829
					c0.881,0,1.989-0.829,3.315-2.485c1.326-1.658,2.595-3.533,3.812-5.636c1.213-2.098,2.264-4.194,3.149-6.298
					c0.881-2.098,1.326-3.589,1.326-4.475c0-0.219-0.057-0.715-0.166-1.492c-0.113-0.772-0.165-1.378-0.165-1.823
					c-1.771-0.218-2.983-1.046-3.646-2.486c-0.663-1.435-1.549-2.595-2.652-3.48l-2.651,7.624c-3.315-2.429-5.915-6.019-7.79-10.773
					c-1.881-4.75-2.818-9.002-2.818-12.762c-2.212,0-3.48,0.829-3.812,2.486c-0.332,1.658-0.721,3.481-1.161,5.47h-0.331
					c-0.663,0-1.217-0.383-1.657-1.16c-0.445-0.771-0.886-1.657-1.326-2.652c-0.445-0.995-0.942-1.875-1.492-2.652
					c-0.554-0.772-1.383-1.16-2.485-1.16c-4.424,0-8.898,0.611-13.426,1.823c-4.532,1.217-8.898,1.823-13.094,1.823
					c-0.886,0-1.605-0.166-2.155-0.498c-0.554-0.332-1.273-0.497-2.154-0.497c-2.652,0-5.47,0.388-8.453,1.16
					c-2.983,0.777-5.692,1.16-8.121,1.16c-0.445,0-1.771-0.166-3.979-0.497c-2.211-0.332-3.537-0.606-3.978-0.829h-0.663h-0.331
					c-0.446,0.223-1.161,0.497-2.155,0.829c-0.994,0.332-1.605,0.497-1.823,0.497c-0.223,0-0.663-0.217-1.326-0.663
					c-0.662-0.44-1.108-0.663-1.325-0.663c-1.108,0-1.989,1.108-2.652,3.314c-0.663,2.212-1.88,3.315-3.646,3.315l-0.663-0.663
					l-0.663-0.663c-0.223-0.218-0.497-0.383-0.828-0.497c-0.332-0.109-0.721-0.383-1.16-0.829c-0.663-0.217-1.218-0.549-1.658-0.994
					h-0.331l-0.663-0.332l-0.663,0.332c-0.445,0.886-0.663,1.823-0.663,2.817c0,0.995-0.554,1.714-1.657,2.155
					c-1.108-0.44-1.657-1.326-1.657-2.652c0-1.326,0.549-2.652,1.657-3.979c-0.445-0.217-1.108-0.497-1.989-0.829
					c-0.886-0.332-1.549-0.497-1.988-0.497l-1.326,0.663l-1.326,0.663c-0.223,0.223-0.445,0.332-0.663,0.332H51.05l-0.994-0.332
					l-1.326-1.326c-2.435,0-4.755,0.497-6.961,1.492c-2.212,0.994-4.424,1.492-6.63,1.492c-1.108,0-1.771-0.275-1.989-0.829
					c-0.223-0.549-0.886-0.829-1.989-0.829H30.83c-0.223,0.223-0.497,0.497-0.829,0.829c-0.331,0.332-0.497,0.611-0.497,0.829
					c-0.445-2.207-1.491-3.424-3.149-3.646c-1.657-0.218-3.148-0.332-4.475-0.332c-2.435,0-4.424,0.663-5.967,1.989
					c-1.549,1.326-2.543,3.206-2.983,5.635l0.663,1.326c0.217,0.445,0.44,0.777,0.663,0.995v2.983c0,1.989-0.611,3.263-1.823,3.812
					c-1.218,0.554-2.652,1.16-4.31,1.823s-3.264,1.714-4.807,3.149c-1.549,1.439-2.652,4.035-3.315,7.789l0.663,1.326
					c0.218,0.445,0.44,0.777,0.663,0.996c0,0.444-0.166,0.941-0.497,1.491c-0.331,0.554-0.611,0.942-0.829,1.16
					c0.44,0,1.104,0.166,1.989,0.497c0.881,0.332,1.435,0.611,1.657,0.829l0.332,0.663l-0.332,0.662
					c-0.223,0.224-0.663,0.445-1.325,0.664c-0.663,0.223-0.995,0.444-0.995,0.662L1.326-127.221L1.326-127.221z M20.222-163.687
					c1.543,0,2.538,0.554,2.983,1.658h-1.326c-1.549,0-2.435-0.549-2.652-1.658H20.222z M23.205-130.205
					c-0.445,0-0.663-0.275-0.663-0.829c0-0.55,0.218-0.716,0.663-0.497C24.085-131.086,24.085-130.646,23.205-130.205z
					 M24.199-159.708h1.326v1.326L24.199-159.708z M33.149-158.382h0.994h0.332c0.44,0.223,0.938,0.446,1.491,0.663
					c0.55,0.223,0.938,0.445,1.16,0.663c-0.445,0.886-0.942,1.771-1.491,2.652c-0.555,0.886-1.383,1.326-2.486,1.326V-158.382z
					 M59.669-125.067c0,0.776-0.223,1.161-0.663,1.161c-0.663,0-0.994-0.383-0.994-1.161c0-0.771,0.331-1.16,0.994-1.16
					C59.446-126.228,59.669-125.838,59.669-125.067z M73.923-159.708c0,0.886-0.331,1.326-0.994,1.326
					c-0.445,0-0.663-0.44-0.663-1.326c0-0.88,0.218-1.326,0.663-1.326C73.592-161.034,73.923-160.588,73.923-159.708z
					 M74.255-152.083h2.651c0,1.989-0.886,2.983-2.651,2.983V-152.083z M79.227-159.708c0,0.886-0.445,1.326-1.325,1.326
					c-0.446,0-0.663-0.44-0.663-1.326c0-0.88,0.217-1.326,0.663-1.326C78.781-161.034,79.227-160.588,79.227-159.708z
					 M81.547-145.619c0,0.994-0.223,1.492-0.662,1.492c-0.663,0-0.995-0.498-0.995-1.492c0-0.995,0.332-1.492,0.995-1.492
					C81.324-147.111,81.547-146.614,81.547-145.619z M84.53-136.504l-1.325,1.326c-0.886-0.662-1.326-1.656-1.326-2.982
					C82.982-138.161,83.868-137.606,84.53-136.504z M84.53-132.857c-0.445,0.223-0.662,0.057-0.662-0.497
					c0-0.549,0.217-0.829,0.662-0.829C85.411-133.737,85.411-133.297,84.53-132.857z M85.856-159.708h2.652
					c0.218,0,0.497,0.663,0.828,1.989c0.332,1.326,0.498,2.435,0.498,3.315c0,1.108-0.389,1.937-1.16,2.486
					c-0.777,0.554-1.715,0.829-2.818,0.829V-159.708z M93.481-134.184c0.217,0.223,0.497,0.445,0.828,0.663
					c0.332,0.224,0.497,0.445,0.497,0.663v0.663v0.663c0,0.886-0.445,1.326-1.325,1.326V-134.184z M111.382-134.184h1.326v2.652
					h-1.326V-134.184z M123.979-134.018c0,0.777-0.332,1.16-0.995,1.16c-0.662,0-0.994-0.383-0.994-1.16
					c0-0.771,0.332-1.16,0.994-1.16S123.979-134.789,123.979-134.018z M133.26-152.083h0.663h0.663
					c0.218,0.223,0.44,0.663,0.663,1.326c0.218,0.663,0.331,1.108,0.331,1.326c0,0.445-0.279,0.777-0.828,0.994
					c-0.555,0.223-1.052,0.332-1.492,0.332V-152.083L133.26-152.083z M135.249-160.868c0,0.777-0.223,1.16-0.663,1.16
					c-0.663,0-0.994-0.383-0.994-1.16c0-0.772,0.331-1.16,0.994-1.16C135.026-162.028,135.249-161.64,135.249-160.868z
					 M135.58-154.404c-0.445,0-0.663-0.274-0.663-0.829c0-0.549,0.218-0.829,0.663-0.829
					C136.684-155.616,136.684-155.067,135.58-154.404z M146.354-136.67c0.109,0.555,0.166,1.052,0.166,1.492
					c0,1.108-0.331,2.27-0.994,3.48c-0.663,1.217-1.88,1.822-3.646,1.822c0-1.325,0.383-2.76,1.16-4.309
					c0.771-1.543,1.823-2.761,3.149-3.646C146.188-137.606,146.24-137.219,146.354-136.67z M153.149-141.807
					c0,0.662-0.223,1.107-0.663,1.325c-0.445,0.224-0.663-0.218-0.663-1.325c0-1.104,0.218-1.544,0.663-1.326
					C152.927-142.91,153.149-142.471,153.149-141.807z"/>
				<path fill="#EA118D" d="M86.022-166.219v0.994c0.44,1.326,1.16,3.149,2.155,5.47c0.994,2.32,1.6,3.48,1.823,3.48h1.657
					c0-1.103,0.383-2.263,1.16-3.48c0.771-1.212,1.709-1.823,2.817-1.823h0.332c0.217,0.223,0.715,0.663,1.491,1.326
					c0.771,0.663,1.27,1.108,1.492,1.326h0.331h0.663c0.44-0.218,0.938-0.663,1.491-1.326c0.55-0.663,0.938-1.104,1.161-1.326
					c0.439,0.886,1.6,1.823,3.48,2.818c1.875,0.994,3.258,1.383,4.144,1.16c0.44-0.218,1.932-0.829,4.475-1.823
					c2.538-0.995,4.03-1.71,4.476-2.155l5.304,5.304c0.663,0.663,1.435,0.166,2.32-1.491c0.881-1.657,1.544-2.486,1.989-2.486h0.663
					c1.988,1.108,3.48,2.046,4.475,2.817c0.995,0.777,2.704,1.16,5.139,1.16h0.663c0.217-0.217,0.828-0.714,1.823-1.491
					c0.994-0.771,1.709-1.16,2.154-1.16c0.44,0,0.938,0.331,1.492,0.994c0.549,0.663,0.828,1.218,0.828,1.657
					c2.652-1.543,3.979-3.314,3.979-5.304c0-1.325-0.446-2.206-1.326-2.651c-0.886-0.44-1.326-1.435-1.326-2.983v-0.995
					c0-0.217,0.108-0.549,0.331-0.994c0.44,1.108,1.27,1.989,2.486,2.652c1.212,0.662,2.372,1.108,3.48,1.325
					c-0.445,0.446-0.828,1.44-1.16,2.983c-0.331,1.549-0.279,2.652,0.166,3.315c0.218,0.445,0.994,0.994,2.32,1.657
					c1.326,0.663,2.207,0.994,2.652,0.994c1.326-1.103,2.098-2.206,2.32-3.314c0.218-1.104,1.104-1.767,2.652-1.989
					c0.439,0.663,0.938,1.492,1.491,2.486c0.549,0.994,1.16,1.492,1.823,1.492h0.663c0.218-0.218,0.497-0.44,0.829-0.663
					c0.331-0.218,0.497-0.44,0.497-0.663c0.88-0.881,1.325-1.767,1.325-2.652l-3.646-6.298c-0.224-0.218-0.166-0.497,0.165-0.829
					c0.332-0.331,0.606-0.497,0.829-0.497h1.326v0.331c1.988,0,3.589,0.389,4.807,1.161c1.212,0.776,2.429,1.657,3.646,2.651
					c1.212,0.994,2.372,1.88,3.48,2.652c1.104,0.776,2.538,1.16,4.31,1.16c0.217,0,0.663-0.497,1.325-1.492
					c0.663-0.994,1.326-2.098,1.989-3.314c0.663-1.212,1.212-2.372,1.657-3.479c0.44-1.104,0.663-1.875,0.663-2.321h0.663h0.663
					c0.218,0.223,0.331,0.663,0.331,1.326v9.282c0.44,0,0.772-0.109,0.995-0.332c2.429-1.766,4.361-3.48,5.801-5.138
					c1.435-1.657,3.921-2.486,7.459-2.486c0.44,0,1.212,0.331,2.32,0.994c1.104,0.663,1.875,1.218,2.32,1.658
					c0-0.881,0.383-1.767,1.16-2.652c0.771-0.881,1.709-1.326,2.817-1.326c0,0.223,0.109,0.445,0.332,0.663l0.663,0.663
					c0.217,0.445,0.44,1.492,0.663,3.149c0.217,1.657,0.439,2.709,0.662,3.149c0.218,0,0.663,0.057,1.326,0.165
					c0.663,0.114,1.104,0.166,1.326,0.166c1.989,0,3.755-0.497,5.304-1.492c1.544-0.994,3.315-1.491,5.304-1.491
					c0.881,0,1.544,0.223,1.989,0.663c0.44,0.445,0.549,1.549,0.332,3.314c0.662-1.766,1.377-2.869,2.154-3.314
					c0.771-0.44,1.823-0.663,3.149-0.663c1.325,0,2.206,0.279,2.651,0.829c0.44,0.554,1.212,0.828,2.32,0.828
					c0.881,0,1.989-0.828,3.315-2.486c1.326-1.657,2.595-3.532,3.812-5.635c1.213-2.098,2.264-4.195,3.149-6.299
					c0.881-2.098,1.326-3.589,1.326-4.475c0-0.218-0.057-0.715-0.166-1.492c-0.113-0.771-0.165-1.378-0.165-1.823
					c-1.771-0.218-2.983-1.046-3.646-2.486c-0.663-1.435-1.549-2.595-2.652-3.479l-2.651,7.624
					c-3.315-2.429-5.915-6.019-7.79-10.773c-1.881-4.751-2.818-9.004-2.818-12.764c-2.212,0-3.48,0.828-3.812,2.485
					c-0.332,1.658-0.721,3.481-1.161,5.47h-0.331c-0.663,0-1.217-0.383-1.657-1.16c-0.445-0.771-0.886-1.657-1.326-2.651
					c-0.445-0.995-0.942-1.875-1.492-2.652c-0.554-0.771-1.383-1.16-2.485-1.16c-4.424,0-8.898,0.611-13.426,1.823
					c-4.532,1.217-8.898,1.823-13.094,1.823c-0.886,0-1.605-0.166-2.155-0.497c-0.554-0.332-1.273-0.497-2.154-0.497
					c-2.652,0-5.47,0.388-8.453,1.16c-2.983,0.776-5.692,1.16-8.121,1.16c-0.445,0-1.771-0.166-3.979-0.497
					c-2.211-0.332-3.537-0.606-3.978-0.829h-0.663h-0.331c-0.446,0.223-1.161,0.497-2.155,0.829
					c-0.994,0.331-1.605,0.497-1.823,0.497c-0.223,0-0.663-0.218-1.326-0.663c-0.662-0.44-1.108-0.663-1.325-0.663
					c-1.108,0-1.989,1.108-2.652,3.314c-0.663,2.212-1.88,3.315-3.646,3.315l-0.663-0.663l-0.663-0.663
					c-0.223-0.218-0.497-0.383-0.828-0.497c-0.332-0.108-0.721-0.383-1.16-0.829c-0.663-0.217-1.218-0.549-1.658-0.994h-0.331
					l-0.663-0.331l-0.663,0.331c-0.445,0.886-0.663,1.823-0.663,2.817c0,0.995-0.554,1.715-1.657,2.155
					c-1.108-0.44-1.657-1.326-1.657-2.652c0-1.326,0.549-2.651,1.657-3.979c-0.445-0.218-1.108-0.497-1.989-0.829
					c-0.886-0.331-1.549-0.497-1.988-0.497l-1.326,0.663l-1.326,0.663c-0.223,0.223-0.445,0.331-0.663,0.331h-0.663l-0.994-0.331
					l-1.326-1.326c-2.435,0-4.755,0.497-6.961,1.492c-2.212,0.994-4.424,1.491-6.63,1.491c-1.108,0-1.771-0.274-1.989-0.829
					c-0.223-0.549-0.886-0.828-1.989-0.828h-0.331c-0.223,0.223-0.497,0.497-0.829,0.828c-0.331,0.332-0.497,0.611-0.497,0.829
					c-0.445-2.206-1.491-3.424-3.149-3.646c-1.657-0.218-3.148-0.331-4.475-0.331c-2.435,0-4.424,0.663-5.967,1.988
					c-1.549,1.326-2.543,3.206-2.983,5.636l0.663,1.326c0.217,0.445,0.44,0.776,0.663,0.994v2.983c0,1.989-0.611,3.264-1.823,3.812
					c-1.218,0.554-2.652,1.16-4.31,1.823c-1.658,0.663-3.264,1.714-4.807,3.148c-1.549,1.44-2.652,4.035-3.315,7.79l0.663,1.326
					c0.218,0.445,0.44,0.777,0.663,0.995c0,0.445-0.166,0.942-0.497,1.491c-0.331,0.555-0.611,0.942-0.829,1.16
					c0.44,0,1.104,0.166,1.989,0.497c0.881,0.332,1.435,0.611,1.657,0.829l0.332,0.663l-0.332,0.663
					c-0.223,0.223-0.663,0.445-1.325,0.663c-0.663,0.223-0.995,0.445-0.995,0.663v0.333L86.022-166.219L86.022-166.219z
					 M104.918-202.684c1.543,0,2.538,0.554,2.983,1.657h-1.326c-1.549,0-2.435-0.549-2.652-1.657H104.918z M107.901-169.202
					c-0.445,0-0.663-0.274-0.663-0.829c0-0.549,0.218-0.715,0.663-0.497C108.781-170.083,108.781-169.644,107.901-169.202z
					 M108.896-198.705h1.326v1.326L108.896-198.705z M117.846-197.379h0.994h0.332c0.44,0.223,0.938,0.445,1.491,0.663
					c0.55,0.223,0.938,0.445,1.16,0.663c-0.445,0.886-0.942,1.771-1.491,2.651c-0.555,0.886-1.383,1.326-2.486,1.326V-197.379z
					 M144.365-164.064c0,0.777-0.223,1.161-0.663,1.161c-0.663,0-0.994-0.384-0.994-1.161c0-0.771,0.331-1.16,0.994-1.16
					C144.143-165.226,144.365-164.836,144.365-164.064z M158.619-198.705c0,0.886-0.331,1.326-0.994,1.326
					c-0.445,0-0.663-0.44-0.663-1.326c0-0.88,0.218-1.326,0.663-1.326C158.288-200.031,158.619-199.585,158.619-198.705z
					 M158.951-191.081h2.651c0,1.989-0.886,2.983-2.651,2.983V-191.081z M163.923-198.705c0,0.886-0.445,1.326-1.325,1.326
					c-0.446,0-0.663-0.44-0.663-1.326c0-0.88,0.217-1.326,0.663-1.326C163.478-200.031,163.923-199.585,163.923-198.705z
					 M166.243-184.616c0,0.994-0.223,1.491-0.662,1.491c-0.663,0-0.995-0.497-0.995-1.491c0-0.995,0.332-1.492,0.995-1.492
					C166.021-186.108,166.243-185.611,166.243-184.616z M169.227-175.501l-1.325,1.326c-0.886-0.663-1.326-1.657-1.326-2.983
					C167.679-177.158,168.564-176.604,169.227-175.501z M169.227-171.854c-0.445,0.223-0.662,0.058-0.662-0.497
					c0-0.549,0.217-0.828,0.662-0.828C170.107-172.734,170.107-172.294,169.227-171.854z M170.553-198.705h2.652
					c0.218,0,0.497,0.663,0.828,1.989c0.332,1.326,0.498,2.435,0.498,3.314c0,1.108-0.389,1.938-1.16,2.486
					c-0.777,0.555-1.715,0.829-2.818,0.829V-198.705z M178.178-173.18c0.217,0.223,0.497,0.445,0.828,0.663
					c0.332,0.223,0.497,0.445,0.497,0.662v0.663v0.663c0,0.886-0.445,1.326-1.325,1.326V-173.18z M196.078-173.18h1.326v2.651
					h-1.326V-173.18z M208.675-173.015c0,0.777-0.332,1.16-0.995,1.16c-0.662,0-0.994-0.383-0.994-1.16
					c0-0.771,0.332-1.16,0.994-1.16C208.343-174.175,208.675-173.786,208.675-173.015z M217.956-191.081h0.663h0.663
					c0.218,0.224,0.44,0.663,0.663,1.326c0.218,0.663,0.331,1.108,0.331,1.326c0,0.445-0.279,0.777-0.828,0.994
					c-0.555,0.223-1.052,0.332-1.492,0.332V-191.081L217.956-191.081z M219.945-199.865c0,0.777-0.223,1.16-0.663,1.16
					c-0.663,0-0.994-0.383-0.994-1.16c0-0.771,0.331-1.16,0.994-1.16C219.723-201.025,219.945-200.637,219.945-199.865z
					 M220.276-193.401c-0.445,0-0.663-0.274-0.663-0.828c0-0.549,0.218-0.829,0.663-0.829
					C221.38-194.613,221.38-194.064,220.276-193.401z M231.05-175.667c0.109,0.554,0.166,1.051,0.166,1.491
					c0,1.108-0.331,2.269-0.994,3.48c-0.663,1.218-1.88,1.823-3.646,1.823c0-1.325,0.383-2.761,1.16-4.309
					c0.771-1.544,1.823-2.761,3.149-3.646C230.885-176.604,230.937-176.215,231.05-175.667z M237.846-180.805
					c0,0.663-0.223,1.108-0.663,1.326c-0.445,0.223-0.663-0.218-0.663-1.326c0-1.103,0.218-1.543,0.663-1.325
					C237.623-181.907,237.846-181.468,237.846-180.805z"/>
			</g>
		</g>
	</g>
</pattern>
<rect y="0" fill="#EA118D" width="209.758" height="297.639"/>
<rect x="-0.093" y="255.118" fill="#FFFFFF" width="209.764" height="42.521"/>
<g>
	<g>
		<g>
			<g>
				<g>
					<g>
						<g>
							<path fill="#E5AB8D" d="M15.394,92.366c-0.264,4.05-0.596,8.053-0.596,12.113c0,2.425-0.23,5.18-0.976,7.505
								c-0.621,1.938-2.329,3.283-3.07,5.177c-0.614,1.567,1.249,4.444,2.251,5.47c0.739,0.758,0.28-2.347,0.28-2.575
								c-0.002-1.089,0.675-2.209,1.113-3.183c0.417,0.531,0.058,3.041,0.355,2.975c1.025-0.226,0.92-3.715,0.982-4.393
								c0.186-1.999,0.825-3.844,1.484-5.728c1.349-3.85,2.062-8.088,2.262-12.157c0.194-3.924,0.693-7.828,1.15-11.73
								c0.352,3.074,1.383,5.841,2.089,8.82c0.852,3.6,0.015,6.898-1.375,10.231c-1.57,3.763-3.038,6.329-3.189,10.439
								c-0.037,1.018,0.024,8.36,0.761,8.36c1.783,0,3.566,0,5.349,0c1.465,0,2.931,0,4.396,0c0.108,0,0.046-7.181,0.034-8.145
								c0.164,0.703,1.398,0.702,1.563,0c-0.031,2.713-0.034,5.431-0.003,8.145c0.537,0.436,3.233,0,3.907,0c1.823,0,3.646,0,5.47,0
								c1.422,0,1.204-6.321,1.182-7.707c-0.064-4.11-1.258-6.507-2.832-10.207c-1.445-3.395-2.566-6.671-1.897-10.406
								c0.58-3.232,1.858-6.223,2.236-9.529c0.437,3.727,1.024,7.493,1.131,11.246c0.111,3.907,0.811,7.947,1.959,11.678
								c0.69,2.235,1.587,4.341,1.806,6.691c0.063,0.678-0.043,4.167,0.982,4.393c0.297,0.066-0.062-2.444,0.355-2.975
								c0.544,1.21,1.17,2.359,1.086,3.712c-0.034,0.539-0.396,1.548-0.238,2.065c0.231,0.762,1.042-0.851,1.054-0.851
								c0.747,0,1.829-3.319,1.87-3.977c0.139-2.242-2.924-4.43-3.417-6.665c-1.194-5.416-0.856-11.214-1.217-16.743
								c-0.108-1.649,0.243-11.53-1.018-11.53c-5.748,0-11.497,0-17.244,0c-2.791,0-5.58,0-8.371,0
								c-1.078,0-1.069-0.165-1.328,1.042C15.137,86.686,15.177,89.569,15.394,92.366C15.211,95.182,15.058,88.029,15.394,92.366z"
								/>
						</g>
					</g>
				</g>
			</g>
		</g>
		<g>
			<g>
				<g>
					<g>
						<path fill="#EA118D" d="M37.56,108.492c-0.034,0.3-0.102,0.604-0.087,0.903c0.013,0.232-0.055,0.351-0.287,0.417
							c0.252,0.662-0.153,1.104-0.504,1.564c-0.055,0.073-0.134,0.145-0.15,0.226c-0.098,0.492-0.424,0.774-0.845,0.99
							c-0.538,0.276-1.048,0.621-1.694,0.582c-0.33-0.02-0.672,0.035-0.989-0.031c-0.562-0.116-1.054-0.397-1.446-0.827
							c-0.145-0.16-0.271-0.335-0.46-0.571c-0.058,0.171-0.107,0.273-0.125,0.379c-0.063,0.38-0.237,0.669-0.6,0.843
							c-0.086,0.04-0.166,0.157-0.188,0.252c-0.16,0.668-0.307,1.339-0.456,2.009c-0.009,0.04-0.017,0.08-0.027,0.138
							c-0.455,0-0.906,0-1.374,0c-0.229-0.689-0.495-1.377-0.681-2.084c-0.193-0.74-0.031-1.484,0.205-2.19
							c0.07-0.212,0.333-0.375,0.532-0.528c0.462-0.355,0.826-0.843,1.425-1.018c0.439-0.127,0.835-0.079,1.243,0.118
							c0.284,0.139,0.594,0.227,0.898,0.323c0.407,0.13,0.823,0.227,1.223,0.372c0.255,0.093,0.478,0.275,0.732,0.363
							c0.141,0.047,0.327,0.002,0.481-0.04c0.135-0.038,0.257-0.125,0.378-0.201c0.051-0.033,0.097-0.087,0.126-0.143
							c0.092-0.178,0.174-0.364,0.283-0.596c-0.123-0.165-0.16-0.401,0.03-0.665c0.043-0.06,0.007-0.217-0.041-0.301
							c-0.124-0.209-0.11-0.396-0.018-0.616c0.141-0.331-0.108-0.589-0.212-0.872c-0.023-0.065-0.096-0.119-0.1-0.181
							c-0.032-0.471-0.027-0.946-0.09-1.413c-0.033-0.253-0.036-0.468,0.085-0.698c0.042-0.083,0.007-0.222-0.022-0.328
							c-0.062-0.206-0.134-0.41-0.223-0.606c-0.061-0.135-0.137-0.286-0.248-0.373c-0.183-0.142-0.268-0.301-0.254-0.529
							c0.009-0.155,0.007-0.311,0-0.467c-0.021-0.449-0.35-0.66-0.776-0.494c-0.289,0.111-0.571,0.244-0.864,0.341
							c-0.14,0.046-0.301,0.037-0.457,0.053c-0.185,0.663-1.149,0.55-1.513,0.137c-0.355,0.08-0.665,0.171-0.98,0.208
							c-0.121,0.015-0.31-0.065-0.375-0.165c-0.125-0.191-0.277-0.166-0.431-0.119c-0.381,0.116-0.743,0.161-1.093-0.097
							c-0.061-0.045-0.204-0.024-0.286,0.014c-0.473,0.221-0.739,0.169-1.112-0.193c-0.096-0.093-0.281-0.196-0.384-0.164
							c-0.357,0.111-0.566-0.082-0.792-0.288c-0.064-0.06-0.205-0.141-0.232-0.119c-0.092,0.078-0.174,0.188-0.21,0.301
							c-0.028,0.09,0.036,0.203,0.034,0.304c-0.003,0.2,0.028,0.405-0.222,0.527c-0.082,0.04-0.109,0.226-0.13,0.35
							c-0.021,0.129,0,0.266-0.008,0.398c-0.013,0.205-0.022,0.412-0.059,0.613c-0.053,0.298-0.132,0.593-0.19,0.891
							c-0.019,0.094-0.049,0.217-0.006,0.285c0.201,0.318,0.171,0.643,0.08,0.98c-0.019,0.072-0.033,0.168-0.001,0.227
							c0.196,0.349,0.159,0.714,0.103,1.084c-0.024,0.16-0.011,0.26,0.165,0.386c0.277,0.2,0.456,0.509,0.442,0.898
							c-0.008,0.224,0.049,0.454,0.084,0.679c0.097,0.623-0.17,1.742-0.938,2.008c-0.343,0.12-0.452,0.416-0.495,0.692
							c-0.054,0.339-0.006,0.697,0.033,1.043c0.013,0.115,0.118,0.255,0.221,0.317c0.365,0.225,0.748,0.422,1.113,0.67
							c-0.423,0.16-0.747-0.144-1.07-0.312c-0.937-0.484-0.574-1.309-0.479-2.082c-0.064,0.014-0.129,0.028-0.194,0.042
							c-0.278,0.059-0.524,0.088-0.722-0.214c-0.388-0.593-0.613-1.207-0.446-1.923c0.018-0.072-0.029-0.178-0.076-0.247
							c-0.29-0.426-0.253-0.9-0.205-1.374c0.006-0.062,0.073-0.118,0.122-0.196c-0.11-0.118-0.219-0.235-0.328-0.352
							c0-0.601,0-1.201,0-1.801c0.144-0.38,0.289-0.758,0.432-1.137c0.097-0.257,0.219-0.507,0.278-0.772
							c0.054-0.232,0.11-0.427,0.345-0.541c0.044-0.021,0.036-0.15,0.05-0.23c0.099-0.541-0.006-1.072-0.058-1.609
							c-0.024-0.256-0.002-0.52-0.054-0.771c-0.081-0.394-0.123-0.77,0.094-1.134c0.157-0.262,0.312-0.525,0.459-0.792
							c0.164-0.292,1.299-0.816,1.633-0.748c0.06,0.014,0.122,0.023,0.183,0.036c0.281,0.059,0.56,0.154,0.843,0.166
							c0.295,0.015,0.499,0.151,0.633,0.375c0.096,0.159,0.161,0.193,0.354,0.175c0.173-0.016,0.432,0.065,0.527,0.195
							c0.195,0.267,0.395,0.453,0.777,0.381c-0.062,0.137-0.098,0.213-0.14,0.306c0.543-0.107,1.069-0.64,1.486-0.064
							c0.316-0.006,0.548-0.012,0.78-0.015c0.14-0.002,0.302,0.046,0.416-0.007c0.271-0.125,0.517-0.159,0.797-0.029
							c0.514,0.237,1.024,0.255,1.505-0.1c0.133-0.099,0.265-0.198,0.398-0.296c0.438-0.329,0.438-0.329,0.902-0.052
							c0.071-0.332,0.128-0.652,0.207-0.966c0.173-0.693,0.619-1.154,1.258-1.446c0.166,0,0.331,0,0.496,0
							c0.048,0.054,0.09,0.11,0.142,0.159c0.31,0.29,0.478,0.602,0.389,1.065c-0.074,0.387-0.368,0.764-0.137,1.188
							c0.004,0.009-0.026,0.032-0.032,0.051c-0.04,0.138-0.096,0.276-0.11,0.417c-0.035,0.344-0.057,0.691-0.07,1.035
							c-0.005,0.119,0.001,0.253,0.054,0.354c0.143,0.274,0.23,0.6,0.035,0.815s-0.143,0.375-0.083,0.577
							c0.062,0.218,0.142,0.431,0.19,0.653c0.018,0.078-0.05,0.169-0.056,0.257c-0.015,0.251-0.1,0.539-0.009,0.744
							c0.123,0.27,0.437,0.444,0.438,0.797c0,0.032,0.062,0.074,0.106,0.095c0.52,0.26,0.617,0.502,0.457,1.049
							c-0.037,0.12-0.003,0.267,0.021,0.396c0.03,0.173,0.105,0.339,0.119,0.512c0.008,0.117-0.025,0.262-0.093,0.356
							c-0.262,0.368-0.207,0.669,0.192,0.913C37.56,108.409,37.56,108.45,37.56,108.492z"/>
					</g>
					<polygon fill="#E5AB8D" points="21.445,102.009 24.501,103.598 23.809,103.783 25.193,104.553 24.454,104.687 25.992,105.939 
						22.75,104.27 23.417,104.147 22.099,103.46 22.95,103.309 					"/>
					<polygon fill="#E5AB8D" points="37.367,101.153 34.472,103.289 35.216,103.367 33.914,104.387 34.698,104.406 33.312,105.946 
						36.386,103.699 35.679,103.679 36.929,102.76 36.026,102.74 					"/>
				</g>
			</g>
		</g>
	</g>
	<text transform="matrix(1 0 0 1 34.1606 27.8899)" fill="#FFFFFF" font-family="'TrebuchetMS'" font-size="11.4">Prikkelbaar Darm Syndroom</text>
	<g>
		<polygon fill="#414042" points="199.135,243.768 64.488,243.768 10.629,181.832 64.488,101.044 10.629,39.107 145.274,39.107 
			199.135,101.044 145.274,181.832 		"/>
		<polygon fill="none" points="191.055,239.729 67.181,239.729 16.015,181.832 69.874,101.044 18.708,42.962 142.582,42.962 
			193.748,101.044 139.89,181.832 		"/>
		<text transform="matrix(1 0 0 1 22.4043 47.1628)" fill="#FFFFFF" font-family="'TrebuchetMS'" font-size="5.7">Wat is het?</text>
		<text transform="matrix(1 0 0 1 30.4395 56.2825)" fill="#FFFFFF" font-family="'TrebuchetMS'" font-size="3.8">Een half miljoen nederlanders heeft last van prikkelbare darmen: </text>
		<text transform="matrix(1 0 0 1 34.4556 60.843)" fill="#FFFFFF" font-family="'TrebuchetMS'" font-size="3.8">diarree of juist obstipatie, een mengvorm ervan, buikpijn en een </text>
		<text transform="matrix(1 0 0 1 38.4736 65.4031)" fill="#FFFFFF" font-family="'TrebuchetMS'" font-size="3.8">opgeblazen gevoel zijn veel voorkomende klachten. </text>
		<text transform="matrix(1 0 0 1 42.4897 69.9626)" fill="#FFFFFF" font-family="'TrebuchetMS'" font-size="3.8">Regelmatig uiten deze klachten zich in de alledaagse bezigheden: je </text>
		<text transform="matrix(1 0 0 1 46.5078 74.5227)" fill="#FFFFFF" font-family="'TrebuchetMS'" font-size="3.8">privleven, je werk, je vrije tijd. </text>
		<text transform="matrix(1 0 0 1 50.5239 79.0823)" fill="#FFFFFF" font-family="'TrebuchetMS'" font-size="3.8">Belemmeren de PDS klachten je om te doen wat je zou willen doen? </text>
		<text transform="matrix(1 0 0 1 54.541 83.6433)" fill="#FFFFFF" font-family="'TrebuchetMS'" font-size="3.8">Misschien ga je ook bepaalde situaties uit de weg en vermijd je </text>
		<text transform="matrix(1 0 0 1 58.5571 88.2029)" fill="#FFFFFF" font-family="'TrebuchetMS'" font-size="3.8">bepaalde activiteiten.</text>
		<text transform="matrix(1 0 0 1 66.5923 97.3225)" fill="#FFFFFF" font-family="'TrebuchetMS'" font-size="3.8">Om hier meer zicht op te krijgen en weer normaal te kunnen </text>
		<text transform="matrix(1 0 0 1 69.3164 101.8826)" fill="#FFFFFF" font-family="'TrebuchetMS'" font-size="3.8">functioneren is er een effectieve methode: Het darmmanagement </text>
		<text transform="matrix(1 0 0 1 67.958 106.4431)" fill="#FFFFFF" font-family="'TrebuchetMS'" font-size="3.8">programma is bewezen effectief om weer de regie over je darmen en </text>
		<text transform="matrix(1 0 0 1 64.918 111.0032)" fill="#FFFFFF" font-family="'TrebuchetMS'" font-size="3.8">je leven te herpakken.</text>
		<text transform="matrix(1 0 0 1 55.1201 126.9626)" fill="#FFFFFF" font-family="'TrebuchetMS'" font-size="5.7">Klachten</text>
		<text transform="matrix(1 0 0 1 48.1973 136.0823)" fill="#FFFFFF" font-family="'TrebuchetMS'" font-size="3.8">Meest voorkomende zijn:</text>
		<text transform="matrix(1 0 0 1 42.1187 145.2029)" fill="#FFFFFF" font-family="'TrebuchetMS'" font-size="3.8">Buikpijn en/of buikkrampen</text>
		<text transform="matrix(1 0 0 1 39.0786 149.7625)" fill="#FFFFFF" font-family="'TrebuchetMS'" font-size="3.8">Problemen met de stoelgang: diarree en/of verstopping</text>
		<text transform="matrix(1 0 0 1 36.04 154.323)" fill="#FFFFFF" font-family="'TrebuchetMS'" font-size="3.8">Opgeblazen gevoel en klachten als opboeren, winderigheid en </text>
		<text transform="matrix(1 0 0 1 33 158.8835)" fill="#FFFFFF" font-family="'TrebuchetMS'" font-size="3.8">gerommel in de buik</text>
		<text transform="matrix(1 0 0 1 23.8784 172.5632)" fill="#FFFFFF" font-family="'TrebuchetMS'" font-size="3.8">Overige:</text>
		<text transform="matrix(1 0 0 1 17.7988 181.6833)" fill="#FFFFFF" font-family="'TrebuchetMS'" font-size="3.8">Moeheid</text>
		<text transform="matrix(1 0 0 1 19.9097 186.2429)" fill="#FFFFFF" font-family="'TrebuchetMS'" font-size="3.8">Maagklachten</text>
		<text transform="matrix(1 0 0 1 23.9399 190.8035)" fill="#FFFFFF" font-family="'TrebuchetMS'" font-size="3.8">Brandend maagzuur</text>
		<text transform="matrix(1 0 0 1 27.9688 195.363)" fill="#FFFFFF" font-family="'TrebuchetMS'" font-size="3.8">Hoofdpijn</text>
		<text transform="matrix(1 0 0 1 31.998 199.9226)" fill="#FFFFFF" font-family="'TrebuchetMS'" font-size="3.8">Pijn in de rug of de zij</text>
		<text transform="matrix(1 0 0 1 36.0293 204.4832)" fill="#FFFFFF" font-family="'TrebuchetMS'" font-size="3.8">Pijn bij het vrijen</text>
		<text transform="matrix(1 0 0 1 44.0894 213.6033)" fill="#FFFFFF" font-family="'TrebuchetMS'" font-size="3.8">Het klachtenpatroon bij PDS kan erg wisselend zijn per persoon. En </text>
		<text transform="matrix(1 0 0 1 48.1167 218.1628)" fill="#FFFFFF" font-family="'TrebuchetMS'" font-size="3.8">per persoon kunnen de klachten ook per dag wisselen. Vaak </text>
		<text transform="matrix(1 0 0 1 52.1465 222.7224)" fill="#FFFFFF" font-family="'TrebuchetMS'" font-size="3.8">verergeren de klachten in periodes van stress en drukte.</text>
	</g>
	<g>
		<path fill="#E5AB8D" d="M178.483,171.333c0,0-0.149,0.277-0.443,0.236c-0.292-0.04-0.22-0.547-0.335-0.787
			c-0.113-0.24-0.375-0.555-0.342-0.932c0.029-0.378,0.314-0.234,0.201-0.295c-0.111-0.059-0.102-0.101-0.182-0.352
			c-0.079-0.247-0.124-0.272-0.246-0.502c-0.123-0.23-0.056-0.498-0.033-1.013c0.02-0.516,0.184-0.509,0.426-1
			c0.246-0.493,0.34-0.544,0.434-0.631s0.17-0.104,0.283-0.114c0.111-0.01,0.041-0.104-0.002-0.146
			c-0.043-0.044,0.025-0.019,0.111,0.041c0.088,0.06,0.068,0-0.035-0.137c-0.104-0.138-0.088-0.128-0.01-0.085
			c0.078,0.041,0.07,0.239,0.138,0.161c0.069-0.078,0.173,0.016,0.386-0.177c0.213-0.19,0.24-0.068,0.968-0.318
			c0.727-0.248,1.862,0.018,2.563,0.465c0.699,0.449,1.091,1.107,1.285,1.637c0.194,0.533,0.025,0.732,0.027,1.031
			c0.003,0.301-0.115,0.586-0.115,0.586c0.26,0.083,0.16,0.47,0.061,0.969c-0.098,0.499,0.059,0.791-0.085,0.964
			c-0.146,0.174-0.284,0.003-0.284,0.003c-0.012,0.566-0.23,1.093-0.23,1.093c0.078,0.059,0.209,0.108,0.576,0.089
			c0.369-0.02,0.49,0.125,0.51,0.297c0.019,0.172-0.008,0.283,0.088,0.162c0.094-0.122,0.049-0.155,0.176-0.398
			c0.128-0.24,0.17-0.172,0.272-0.189c0.104-0.02,0.163-0.011,0.163-0.098c-0.002-0.085,0.041-0.111,0.094-0.121
			c0.051-0.008,0.086-0.043,0.145-0.112c0.06-0.068,0.145-0.06,0.266-0.046c0.119,0.018,0.061,0.018,0.068-0.096
			c0.007-0.111,0.145-0.139,0.419-0.277c0.272-0.141,0.313-0.133,0.41-0.092c0.097,0.043,0.077,0.043,0.136-0.197
			c0.059-0.242,0.229-0.234,0.356-0.297c0.131-0.061,0.224-0.07,0.31-0.131c0.085-0.061,0.118-0.098,0.161-0.199
			c0.042-0.104,0.083-0.232,0.142-0.432c0.059-0.197,0.12-0.078,0.162-0.061c0.043,0.018,0.086-0.035,0.145-0.087
			c0.061-0.053,0.223-0.081,0.361-0.158c0.136-0.078,0.187-0.13,0.339-0.235c0.153-0.104,0.198-0.002,0.198-0.002
			c0.178-0.217,0.828-0.48,1.389-1.207s0.379-0.732,2.175-2.434c1.798-1.697,2.757-2.807,2.757-2.807
			c-0.055-0.162,0.152-0.189,0.152-0.189s0.039-0.439-0.068-0.885c-0.106-0.445-0.047-0.412-0.102-0.814
			c-0.055-0.404-0.083-0.645-0.188-0.85c-0.104-0.205-0.14-0.314,0.049-0.369s0.345,0.203,0.485,0.459s0.264,0.658,0.455,0.77
			c0.189,0.109,0.291,0.029,0.603-0.668c0.312-0.698,0.565-1.045,0.775-1.476c0.212-0.432,0.428-0.237,0.429-0.073
			c0.002,0.164-0.182,0.672-0.333,1.059c-0.152,0.389-0.131,0.672-0.057,0.543c0.076-0.131,0.136-0.207,0.484-0.58
			c0.349-0.372,0.57-0.598,0.707-0.607c0.138-0.011,0.286,0.236,0.058,0.455c-0.231,0.215-0.595,0.796-0.807,1.055
			c-0.213,0.259-0.108,0.353-0.041,0.336c0.068-0.019,0.223-0.165,0.35-0.296c0.129-0.13,0.307-0.26,0.57-0.563
			c0.264-0.305,0.447,0.021,0.336,0.221c-0.107,0.197-0.348,0.508-0.627,0.811c-0.281,0.305-0.391,0.495-0.38,0.58
			c0.009,0.084,0.079,0.229,0.165,0.238c0.086,0.008,0.352,0.039,0.832-0.154c0.479-0.193,0.66,0.089,0.088,0.375
			c-0.57,0.291-1.018,0.26-1.393,0.702c-0.374,0.441-0.57,0.555-0.766,0.685c-0.197,0.132-0.086,0.225-0.152,0.301
			c-0.068,0.08-0.215-0.014-0.266,0.047c-0.051,0.06-0.279,0.389-0.695,0.934s-2.097,2.483-2.771,3.186
			c-0.671,0.701-1.337,1.146-1.462,1.456c-0.126,0.311-0.576,0.872-0.856,1.167s-0.597,0.512-0.614,1.199
			c-0.02,0.688-0.295,0.844-0.645,1.003c-0.351,0.157-0.42,0.142-0.614,0.357c-0.194,0.218-0.585,0.778-0.779,1.063
			s-1.033,1.615-1.059,1.702c-0.024,0.085-0.011,0.618,0.098,1.148c0.107,0.532,0.339,1.526,0.433,2.255
			c0.094,0.729,0.218,1.252,0.256,1.723c0.039,0.473,0.145,0.746,0.233,1.09s-0.072,0.49-0.097,0.697
			c-0.025,0.205,0.012,1.192,0.066,1.639s0.188,0.849,0.207,1.003c0.02,0.155-0.171,0.113-0.094,0.173
			c0.078,0.061,0.276,0.137,0.424,0.262c0.146,0.127,0.078,0.162,0.34,0.521c0.26,0.358,0.176,0.411,0.254,0.531
			c0.078,0.119,0.139,0.213-0.008,0.188c-0.146-0.023-0.205-0.007-0.454-0.048c-0.25-0.04-0.138,0.036-0.138,0.147
			c0.002,0.111-0.11,0.035-0.17-0.076c-0.063-0.109-0.183-0.135-0.26-0.092c-0.076,0.044-0.041,0.095,0.048,0.447
			c0.088,0.352-0.013,0.48,0.159,0.574c0.173,0.092,0.225,0.203,0.297,0.381c0.07,0.181,0.107,0.506,0.031,0.67
			c-0.076,0.165-0.033,0.207,0.088,0.258c0.122,0.051,0.225,0.238,0.315,0.547c0.089,0.307,0.265,0.83,0.433,1.172
			c0.164,0.342,0.328,0.479,0.469,0.727c0.141,0.246,0.141,0.479,0.291,0.785c0.148,0.309,0.288,0.506,0.48,0.873
			c0.191,0.368,0.137,0.659,0.113,1.073c-0.021,0.411,0.013,0.446,0.109,0.899c0.1,0.454,0.417,1.216,0.602,1.592
			c0.182,0.376,0.006,0.695-0.13,0.825c-0.138,0.131-0.257,0.2-0.169,0.474s0.549,1.723,0.651,2.511
			c0.101,0.79,0.161,2.678,0.375,3.329c0.212,0.65,0.126,0.711,0.406,1.198s0.464,0.905,0.464,0.905s0.145,0.12,0.252,0.367
			c0.106,0.249,0.281,0.633,0.502,1.207c0.219,0.574,0.491,1.268,0.352,1.861c-0.141,0.594-0.618,1.044-1.176,1.033
			c-0.559-0.014-1.018-0.421-1.431-1.345c-0.412-0.923-0.148-1.245-0.467-2.168c-0.317-0.925-0.655-1.453-0.721-1.958
			c-0.065-0.508,0.14-0.594,0.241-0.733c0.102-0.138,0.11-0.112,0.039-0.353c-0.07-0.239-0.139-0.333-0.728-1.521
			c-0.585-1.188-0.482-1.172-0.856-1.719c-0.373-0.547-0.457-1.129-0.676-1.488c-0.217-0.358-0.314-0.555-0.314-0.555
			c-0.258-0.065-0.447-0.082-0.748-0.207c-0.302-0.127-0.224-0.171-0.365-0.537c-0.141-0.369-0.225-0.883-0.67-1.635
			c-0.443-0.752-1.135-1.208-1.456-1.636c-0.321-0.426-0.289-0.546-0.378-0.847c-0.088-0.3-0.265-0.899-0.447-1.051
			c-0.182-0.154-0.311-0.031-0.406-0.238c-0.097-0.205-0.148-0.438-0.264-0.796c-0.117-0.36-0.303-0.203-0.475-0.168
			c-0.172,0.036-0.297,0.312-0.414,0.751c-0.116,0.439-0.186,0.397-0.379,0.751c-0.195,0.354-0.693,1.191-0.922,1.656
			c-0.227,0.468-0.91,1.735-1.105,2.072c-0.193,0.338-0.373,1.37-0.482,1.55c-0.111,0.183-0.401,0.297-1.01,0.294
			c-0.611-0.003-1.238-0.006-1.898-0.008c-0.66-0.001-0.508-0.072-0.602,0.015s-0.297,0.397-0.389,0.656
			c-0.092,0.258-0.32,0.715-0.699,1.449c-0.379,0.732-0.853,1.475-1.678,1.416c-0.826-0.062-1.069-0.377-1.104-1.262
			c-0.032-0.885,0.06-1.041,0.62-1.836s1.535-1.947,1.654-2.059c0.119-0.113,0.12-0.028,0.101-0.225
			c-0.02-0.197,0.007-0.215,0.14-0.705c0.131-0.49,0.139-0.627,0.188-0.989s0.041-0.181,0.252-0.569s0.244-0.57,0.495-1.225
			s0.37-0.758,0.614-1.189c0.247-0.433,0.21-0.604,0.271-1.48c0.059-0.877,0.146-0.725,0.341-1.129
			c0.192-0.404,0.313-0.406,0.569-0.555c0.258-0.147,0.17-0.276,0.212-0.517c0.041-0.241,0.058-0.251,0.19-0.439
			c0.139-0.19,0.078-0.155-0.018-0.198c-0.095-0.041-0.154-0.041-0.223-0.05c-0.07-0.007,0.017-0.179-0.022-0.567
			c-0.037-0.385,0.005-0.309,0.037-0.609c0.031-0.301,0.093-0.225,0.116-0.283c0.025-0.062,0.068-0.131,0.032-0.295
			c-0.035-0.16,0.024-0.162-0.239-0.865c-0.264-0.7-0.123-0.248-0.346-1.043c-0.221-0.797-0.283-1.002-0.336-2.059
			s-0.049-1.605-0.098-2.248c-0.051-0.645-0.078-0.834-0.192-1.234c-0.114-0.403-0.11-0.851-0.269-1.184s-0.105-0.375-0.263-0.635
			c-0.157-0.255-0.269-0.373-0.694-0.808c-0.425-0.435-0.641-0.544-1.031-0.851c-0.389-0.306-0.397-0.254-0.551-0.27
			c-0.154-0.016-0.216-0.049-0.31-0.049c-0.094,0.002-0.609,0.032-0.659,0.041c-0.053,0.009-0.028-0.053-0.117-0.616
			c-0.093-0.567-0.2-1.081-0.2-1.081l-0.845-0.387c-1.555-0.697-1.725-0.688-2.191-0.984c-0.467-0.297-1.209-0.821-2.221-1.361
			c-1.01-0.541-1.621-0.93-2.123-1.174c-0.5-0.245-0.594-0.219-0.914-0.275c-0.316-0.059-0.498-0.124-0.922-0.334
			c-0.421-0.212-0.533-0.09-0.818-0.328c-0.286-0.239-0.123-0.352,0.016-0.318s0.078,0.033,0.31,0.083
			c0.233,0.048,0.257-0.045,0.127-0.2c-0.13-0.152-0.14-0.186-0.538-0.664c-0.398-0.478-0.34-0.536-0.254-0.598
			c0.086-0.062,0.058-0.14-0.133-0.325c-0.191-0.188-0.278-0.315-0.28-0.487c-0.001-0.174,0.206-0.146,0.378,0.029
			c0.174,0.18,0.458,0.262,0.829,0.482s0.354,0.255,0.274,0.05c-0.078-0.206-0.113-0.308-0.178-0.764
			c-0.064-0.454,0.318-0.62,0.357-0.415c0.035,0.205,0.002,0.299,0.234,0.633c0.237,0.332,0.551,0.854,0.752,1.152
			c0.199,0.3,0.621,0.441,1.742,0.919c1.122,0.48,3.266,1.19,4.24,1.567c0.973,0.376,2.046,1.277,2.046,1.277
			c0.12-0.078,0.146,0.033,0.45,0.15c0.301,0.118,0.318,0.065,0.541,0.072c0.223,0.006,0.273,0.023,0.378,0.141
			c0.104,0.121,0.089,0.174,0.286,0.23c0.198,0.059,0.258,0.066,0.421,0.081c0.163,0.017,0.198,0.085,0.269,0.169
			c0.068,0.088,0.162-0.068,0.266-0.01s0.128,0.074,0.18,0.067c0.053-0.011,0.121,0.022,0.207,0.065s0.112,0.094,0.448,0.115
			c0.336,0.023,0.386,0.031,0.575,0.09s0.121,0.016,0.395-0.081c0.272-0.098,0.395-0.021,0.576,0.056
			c0.18,0.074,0.111-0.001,0.109-0.148c0-0.143,0.112,0.025,0.32,0.299c0.209,0.272,0.304,0.338,0.347,0.289
			c0.042-0.052,0.196-0.088,0.53-0.203s0.48-0.167,0.48-0.167C178.592,171.762,178.483,171.333,178.483,171.333z"/>
		<g>
			<path fill="#EA118D" d="M181.961,183.587c0,0-0.528-1.195-0.583-2.141c-0.056-0.945,0.416-1.474,0.611-1.557
				c0.194-0.083,0.278,0.057,0.39-0.057c0.109-0.109,0.25,0.057,0.25,0.057s0.139-0.083,0.305,0.057
				c0.168,0.138,0.668,0.972,0.53,1.64c-0.14,0.667-0.557,1.946-0.557,1.946S182.629,183.753,181.961,183.587z"/>
			<path fill="#EA118D" d="M182.857,183.587c0,0,0.48-1.215,1.113-1.918c0.635-0.703,1.342-0.736,1.539-0.656
				c0.195,0.08,0.154,0.236,0.312,0.237c0.156,0.002,0.135,0.218,0.135,0.218s0.158,0.041,0.177,0.258
				c0.019,0.216-0.225,1.157-0.798,1.525c-0.573,0.371-1.775,0.971-1.775,0.971S183.205,184.178,182.857,183.587z"/>
			<path fill="#EA118D" d="M183.59,184.245c0,0,1.189-0.539,2.134-0.604c0.944-0.065,1.478,0.402,1.562,0.596
				c0.085,0.194-0.054,0.278,0.06,0.389c0.111,0.109-0.055,0.251-0.055,0.251s0.085,0.14-0.053,0.306
				c-0.138,0.169-0.967,0.677-1.635,0.544c-0.668-0.134-1.951-0.537-1.951-0.537S183.428,184.913,183.59,184.245z"/>
			<path fill="#EA118D" d="M183.66,185.046c0,0,1.205,0.508,1.891,1.159c0.688,0.649,0.706,1.358,0.622,1.552
				c-0.085,0.194-0.241,0.15-0.245,0.308c-0.006,0.157-0.221,0.131-0.221,0.131s-0.044,0.155-0.26,0.169
				c-0.217,0.014-1.152-0.25-1.509-0.832c-0.356-0.58-0.929-1.797-0.929-1.797S183.059,185.382,183.66,185.046z"/>
			<path fill="#EA118D" d="M183.021,185.677c0,0,0.502,1.209,0.535,2.154c0.035,0.945-0.449,1.463-0.646,1.541
				c-0.196,0.079-0.275-0.062-0.389,0.048c-0.115,0.107-0.251-0.062-0.251-0.062s-0.14,0.08-0.304-0.062s-0.645-0.986-0.491-1.65
				s0.601-1.932,0.601-1.932S182.359,185.495,183.021,185.677z"/>
			<path fill="#EA118D" d="M182.054,185.783c0,0-0.444,1.228-1.056,1.95c-0.613,0.724-1.319,0.777-1.518,0.703
				s-0.164-0.232-0.32-0.228c-0.157,0.003-0.141-0.214-0.141-0.214s-0.159-0.035-0.184-0.252c-0.023-0.216,0.189-1.164,0.752-1.551
				c0.561-0.385,1.744-1.022,1.744-1.022S181.686,185.202,182.054,185.783z"/>
			<path fill="#EA118D" d="M181.386,185.12c0,0-1.185,0.557-2.126,0.633c-0.943,0.078-1.482-0.382-1.57-0.574
				s0.049-0.279-0.064-0.387c-0.113-0.109,0.05-0.252,0.05-0.252s-0.087-0.139,0.05-0.307c0.135-0.17,0.955-0.689,1.625-0.566
				c0.672,0.125,1.96,0.512,1.96,0.512S181.535,184.45,181.386,185.12z"/>
			<path fill="#EA118D" d="M181.386,184.244c0,0-1.226-0.452-1.944-1.069c-0.717-0.617-0.769-1.324-0.692-1.521
				c0.076-0.198,0.231-0.162,0.229-0.318c-0.002-0.157,0.216-0.141,0.216-0.141s0.035-0.158,0.253-0.182
				c0.217-0.022,1.162,0.199,1.545,0.762s1.012,1.752,1.012,1.752S181.969,183.88,181.386,184.244z"/>
		</g>
	</g>
</g>
<g>
	<g>
		<g>
			<text transform="matrix(1 0 0 1 65.2471 264.532)" fill="#414042" font-family="'TrebuchetMS-Italic'" font-size="3.8">Voor clinten met een PDS diagnose, gesteld door huisarts of specialist.</text>
			<text transform="matrix(1 0 0 1 91.3374 269.0916)" fill="#414042" font-family="'TrebuchetMS-Italic'" font-size="3.8">Deze mag niet ouder dan 3 maanden zijn.</text>
			<text transform="matrix(1 0 0 1 85.6216 274.3484)" fill="#414042" font-family="'TrebuchetMS'" font-size="3.8">Me Therapy wordt gerund door Marille Janssen,</text>
			<text transform="matrix(1 0 0 1 71.8423 278.908)" fill="#414042" font-family="'TrebuchetMS'" font-size="3.8">o.a. psychosociaal en hypnotherapeut, aangesloten bij de NBVH.</text>
			<text transform="matrix(1 0 0 1 81.9102 283.4685)" fill="#414042" font-family="'TrebuchetMS'" font-size="3.8">Gespecialiseerd in PDS, SOLK, TVM en autismecoach.</text>
		</g>
	</g>
	<g>
		<g>
			<path fill="#424143" d="M27.014,279.163c-0.647,1.166-0.67,2.665-0.67,2.665s-0.895-1.774-0.027-3.637
				c0.961-2.063,2.486-4.193,5.317-6.696c0.087-0.08,0.579-0.428,0.203-0.771c-0.206-0.191-0.576-0.426-0.861-0.716
				c-0.125-0.128-0.879-0.686,0.165-1.746c2.389-2.425,1.99-4.208,1.648-5.346c-0.053-0.171,1.815,0.872,1.115-0.979
				c-0.907-2.406-1.542,0.043-1.702-0.15c-0.88-1.066-3.283-1.191-4.338-0.6c-0.581,0.327-1.033,0.832-1.36,1.419
				c-0.051,0.089,0.143,0.528,0.118,0.626c-0.053,0.199-0.458,0.117-0.5,0.221c-0.12,0.302-0.619,0.381-0.683,0.691
				c-0.066,0.337,0.411,0.643,0.411,0.965c0,0.658,0.53,0.941,0.874,0.97c0.186,0.018,0.707-0.21,0.694-0.179
				c-0.142,0.375-1.302,0.233-1.302,0.233c-0.089,1.022,1.549,1.981,1.604,2.218c0.263,1.135-0.22,2.027-0.693,2.458
				c-0.521,0.476-1.88,1.099-2.585,1.124c-0.783,0.026-2.371-0.57-2.923-1.124c-0.412-0.413-0.945-1.79-0.873-2.156
				c0.178-0.891,1.426-0.161,1.659-1.532c0.051-0.307,0.57-0.391,0.587-0.723c0.01-0.157-1.069-0.238-1.175-0.418
				c-0.092-0.15,1.148-0.383,1.015-0.837c-0.067-0.229-0.785-0.071-0.802-0.411c-0.004-0.084,0.677-0.177,0.712-0.395
				c0.071-0.424-0.86-0.599-0.86-1.013c0-0.223,0.466-0.261,0.446-0.554c-0.022-0.328-0.396-1.137-1.336-1.66
				c-1.761-0.976-3.51-0.523-4.439,0.32c-0.198,0.18-0.512-0.818-1.522-0.586c-0.327,0.074,1.088,0.512,0.604,1.695
				c-0.912,2.229-0.253,4.475,2.118,5.898c0.426,0.257,0.084,1.088-0.188,1.406c-0.341,0.402-1.145,0.324-0.825,1.125
				c0.7,1.748,4.489,4.613,5.963,7.182c5.549,9.658-6.348,11.721-6.348,11.721s5.944-2.419,5.94-7.033
				c-0.002-3.676-6.167-7.226-8.455-12.029c-1.309-2.747-1.942-6.002-0.704-8.854c0.161-0.372,0.355-0.656,0.355-0.656
				c-0.687-4.33-2.52-3.375-2.337-3.447c2.473-0.978,3.146,1.761,4.533,1.086c5.891-2.875,8.688,2.17,8.688,2.17
				s5.14-5.907,9.785-1.002c2.506,2.646,3.629,6.097,0.746,10.704c-0.798,1.274-3.141,2.961-4.017,3.813
				C27.901,277.438,27.258,278.724,27.014,279.163z"/>
			<pattern  id="SVGID_2_" xlink:href="#SVGID_1_" patternTransform="matrix(0.0535 0 0 0.0535 -15130.4912 189.7246)">
			</pattern>
			<path fill="url(#SVGID_2_)" d="M26.21,279.243c-0.648,1.166-0.67,2.664-0.67,2.664s-0.894-1.772-0.027-3.635
				c0.96-2.064,2.485-4.193,5.318-6.697c0.089-0.079,0.58-0.428,0.203-0.771c-0.206-0.191-0.576-0.425-0.862-0.717
				c-0.124-0.127-0.877-0.686,0.167-1.745c2.388-2.423,1.989-4.21,1.646-5.344c-0.052-0.172,1.816,0.871,1.114-0.981
				c-0.908-2.406-1.542,0.043-1.703-0.15c-0.88-1.066-3.282-1.191-4.337-0.599c-0.58,0.325-1.033,0.832-1.361,1.419
				c-0.051,0.088,0.143,0.527,0.118,0.625c-0.054,0.201-0.458,0.115-0.5,0.221c-0.12,0.302-0.618,0.381-0.68,0.693
				c-0.068,0.336,0.408,0.641,0.408,0.963c0,0.658,0.53,0.941,0.874,0.971c0.187,0.016,0.708-0.211,0.695-0.179
				c-0.144,0.376-1.301,0.231-1.301,0.231c-0.088,1.025,1.549,1.982,1.604,2.22c0.263,1.136-0.222,2.026-0.692,2.458
				c-0.52,0.476-1.881,1.1-2.587,1.124c-0.782,0.026-2.37-0.569-2.923-1.124c-0.41-0.412-0.945-1.79-0.872-2.157
				c0.178-0.89,1.425-0.159,1.658-1.53c0.051-0.307,0.568-0.391,0.588-0.723c0.008-0.156-1.069-0.241-1.178-0.418
				c-0.091-0.152,1.149-0.385,1.016-0.838c-0.068-0.23-0.784-0.07-0.801-0.411c-0.004-0.083,0.677-0.179,0.713-0.394
				c0.07-0.425-0.86-0.6-0.86-1.012c0-0.224,0.467-0.265,0.446-0.555c-0.023-0.328-0.398-1.139-1.337-1.66
				c-1.759-0.977-3.51-0.523-4.438,0.319c-0.199,0.18-0.512-0.817-1.522-0.587c-0.325,0.076,1.087,0.513,0.603,1.697
				c-0.912,2.227-0.253,4.473,2.118,5.899c0.426,0.257,0.082,1.087-0.19,1.405c-0.34,0.4-1.145,0.321-0.823,1.124
				c0.698,1.747,4.489,4.614,5.963,7.185c5.547,9.655-6.347,11.719-6.347,11.719s5.942-2.42,5.94-7.035
				c-0.001-3.676-6.169-7.227-8.456-12.027c-1.308-2.748-1.941-6.003-0.704-8.854c0.161-0.371,0.355-0.658,0.355-0.658
				c-0.687-4.33-2.521-3.372-2.337-3.445c2.472-0.979,3.146,1.762,4.533,1.085c5.891-2.874,8.687,2.171,8.687,2.171
				s5.139-5.908,9.787-1.002c2.507,2.644,3.629,6.096,0.745,10.703c-0.798,1.275-3.142,2.962-4.018,3.814
				C27.1,277.518,26.453,278.804,26.21,279.243z"/>
		</g>
		<text transform="matrix(1 0 0 1 35.062 278.1482)" fill="#EA118D" font-family="'TrebuchetMS'" font-size="3.8">06-22034603</text>
		<text transform="matrix(1 0 0 1 29.4883 282.7087)" fill="#EA118D" font-family="'TrebuchetMS'" font-size="3.8">info@metherapy.nl</text>
		<text transform="matrix(1 0 0 1 29.3149 287.2683)" fill="#EA118D" font-family="'TrebuchetMS'" font-size="3.8">www.metherapy.nl</text>
	</g>
</g>
</svg>
