<?xml version="1.0" encoding="utf-8"?>
<!-- Generator: Adobe Illustrator 16.0.0, SVG Export Plug-In . SVG Version: 6.00 Build 0)  -->
<!DOCTYPE svg PUBLIC "-//W3C//DTD SVG 1.1//EN" "http://www.w3.org/Graphics/SVG/1.1/DTD/svg11.dtd">
<svg version="1.1" id="Layer_1" xmlns="http://www.w3.org/2000/svg" xmlns:xlink="http://www.w3.org/1999/xlink" x="0px" y="0px"
	 width="419.702px" height="595.277px" viewBox="-105.018 -148.819 419.702 595.277"
	 enable-background="new -105.018 -148.819 419.702 595.277" xml:space="preserve">
<pattern  x="0.379" y="297.32" width="169.393" height="155.989" patternUnits="userSpaceOnUse" id="SVGID_2_" viewBox="84.696 -181.987 169.393 155.989" overflow="visible">
	<g>
		<polygon fill="none" points="84.696,-25.998 254.089,-25.998 254.089,-181.987 84.696,-181.987 		"/>
		<g>
			<polygon fill="none" points="84.696,-181.986 254.089,-181.986 254.089,-25.998 84.696,-25.998 			"/>
			<g>
				<polygon fill="none" points="84.696,-25.998 254.089,-25.998 254.089,-181.986 84.696,-181.986 				"/>
				<g>
					<polygon fill="none" points="84.696,-25.998 254.089,-25.998 254.089,-181.986 84.696,-181.986 					"/>
					<path fill="#EA118D" d="M86.022-197.757v-0.994c0.44-1.326,1.16-3.149,2.155-5.47c0.994-2.32,1.6-3.48,1.823-3.48h1.657
						c0,1.104,0.383,2.264,1.16,3.48c0.771,1.212,1.709,1.822,2.817,1.822h0.332c0.217-0.223,0.715-0.662,1.491-1.326
						c0.771-0.661,1.27-1.107,1.492-1.324h0.331h0.663c0.44,0.217,0.938,0.663,1.491,1.324c0.55,0.664,0.938,1.104,1.161,1.326
						c0.439-0.886,1.6-1.822,3.48-2.816c1.875-0.994,3.258-1.383,4.144-1.16c0.44,0.218,1.932,0.828,4.475,1.823
						c2.538,0.993,4.03,1.709,4.476,2.153l5.304-5.304c0.663-0.663,1.435-0.166,2.32,1.492c0.881,1.657,1.544,2.485,1.989,2.485
						h0.663c1.988-1.108,3.48-2.047,4.475-2.817c0.995-0.776,2.704-1.16,5.139-1.16h0.663c0.217,0.218,0.828,0.716,1.823,1.492
						c0.994,0.771,1.709,1.16,2.154,1.16c0.44,0,0.938-0.332,1.492-0.995c0.549-0.663,0.828-1.217,0.828-1.657
						c2.652,1.544,3.979,3.315,3.979,5.304c0,1.326-0.446,2.207-1.326,2.652c-0.886,0.438-1.326,1.436-1.326,2.982v0.994
						c0,0.219,0.108,0.55,0.331,0.994c0.44-1.107,1.27-1.988,2.486-2.65c1.212-0.663,2.372-1.108,3.48-1.326
						c-0.445-0.445-0.828-1.439-1.16-2.982c-0.331-1.55-0.279-2.651,0.166-3.314c0.218-0.446,0.994-0.995,2.32-1.658
						c1.326-0.663,2.207-0.994,2.652-0.994c1.326,1.104,2.098,2.206,2.32,3.315c0.218,1.103,1.104,1.766,2.652,1.987
						c0.439-0.662,0.938-1.49,1.491-2.485c0.549-0.994,1.16-1.491,1.823-1.491h0.663c0.218,0.218,0.497,0.439,0.829,0.663
						c0.331,0.217,0.497,0.44,0.497,0.663c0.88,0.88,1.325,1.766,1.325,2.65l-3.646,6.299c-0.224,0.218-0.166,0.498,0.165,0.828
						c0.332,0.332,0.606,0.498,0.829,0.498h1.326v-0.332c1.988,0,3.589-0.389,4.807-1.16c1.212-0.776,2.429-1.656,3.646-2.651
						c1.212-0.994,2.372-1.88,3.48-2.651c1.104-0.776,2.538-1.16,4.31-1.16c0.217,0,0.663,0.498,1.325,1.492
						c0.663,0.994,1.326,2.098,1.989,3.314c0.663,1.212,1.212,2.372,1.657,3.48c0.44,1.104,0.663,1.875,0.663,2.319h0.663h0.663
						c0.218-0.224,0.331-0.663,0.331-1.326v-9.28c0.44,0,0.772,0.107,0.995,0.33c2.429,1.768,4.361,3.48,5.801,5.14
						c1.435,1.657,3.921,2.485,7.459,2.485c0.44,0,1.212-0.332,2.32-0.994c1.104-0.664,1.875-1.217,2.32-1.657
						c0,0.881,0.383,1.767,1.16,2.651c0.771,0.881,1.709,1.325,2.817,1.325c0-0.223,0.109-0.444,0.332-0.663l0.663-0.662
						c0.217-0.445,0.44-1.492,0.663-3.148c0.217-1.657,0.439-2.709,0.662-3.149c0.218,0,0.663-0.057,1.326-0.165
						c0.663-0.113,1.104-0.166,1.326-0.166c1.989,0,3.755,0.497,5.304,1.491c1.544,0.994,3.315,1.492,5.304,1.492
						c0.881,0,1.544-0.224,1.989-0.663c0.44-0.445,0.549-1.549,0.332-3.314c0.662,1.767,1.377,2.869,2.154,3.314
						c0.771,0.439,1.823,0.663,3.149,0.663c1.325,0,2.206-0.28,2.651-0.829c0.44-0.555,1.212-0.829,2.32-0.829
						c0.881,0,1.989,0.829,3.315,2.486c1.326,1.657,2.595,3.532,3.812,5.636c1.213,2.098,2.264,4.195,3.149,6.298
						c0.881,2.099,1.326,3.591,1.326,4.476c0,0.219-0.057,0.716-0.166,1.492c-0.113,0.771-0.165,1.377-0.165,1.822
						c-1.771,0.219-2.983,1.047-3.646,2.486c-0.663,1.435-1.549,2.595-2.652,3.48l-2.651-7.625c-3.315,2.43-5.915,6.02-7.79,10.773
						c-1.881,4.75-2.818,9.002-2.818,12.763c-2.212,0-3.48-0.829-3.812-2.485c-0.332-1.657-0.721-3.479-1.161-5.471h-0.331
						c-0.663,0-1.217,0.385-1.657,1.16c-0.445,0.771-0.886,1.657-1.326,2.652c-0.445,0.994-0.942,1.875-1.492,2.65
						c-0.554,0.772-1.383,1.16-2.485,1.16c-4.424,0-8.898-0.609-13.426-1.822c-4.532-1.217-8.898-1.823-13.094-1.823
						c-0.886,0-1.605,0.166-2.155,0.498c-0.554,0.331-1.273,0.497-2.154,0.497c-2.652,0-5.47-0.389-8.453-1.16
						c-2.983-0.777-5.692-1.16-8.121-1.16c-0.445,0-1.771,0.165-3.979,0.497c-2.211,0.331-3.537,0.604-3.978,0.828h-0.663h-0.331
						c-0.446-0.224-1.161-0.497-2.155-0.828c-0.994-0.332-1.605-0.497-1.823-0.497c-0.223,0-0.663,0.217-1.326,0.663
						c-0.662,0.438-1.108,0.662-1.325,0.662c-1.108,0-1.989-1.108-2.652-3.314c-0.663-2.212-1.88-3.313-3.646-3.313l-0.663,0.662
						l-0.663,0.662c-0.223,0.219-0.497,0.385-0.828,0.498c-0.332,0.108-0.721,0.383-1.16,0.828
						c-0.663,0.219-1.218,0.549-1.658,0.994h-0.331l-0.663,0.332l-0.663-0.332c-0.445-0.886-0.663-1.822-0.663-2.816
						c0-0.994-0.554-1.715-1.657-2.154c-1.108,0.439-1.657,1.326-1.657,2.65c0,1.326,0.549,2.652,1.657,3.979
						c-0.445,0.217-1.108,0.497-1.989,0.828c-0.886,0.332-1.549,0.497-1.988,0.497l-1.326-0.662l-1.326-0.663
						c-0.223-0.224-0.445-0.332-0.663-0.332h-0.663l-0.994,0.332l-1.326,1.325c-2.435,0-4.755-0.497-6.961-1.491
						c-2.212-0.994-4.424-1.492-6.63-1.492c-1.108,0-1.771,0.275-1.989,0.829c-0.223,0.549-0.886,0.829-1.989,0.829h-0.331
						c-0.223-0.224-0.497-0.497-0.829-0.829c-0.331-0.331-0.497-0.611-0.497-0.829c-0.445,2.207-1.491,3.425-3.149,3.646
						c-1.657,0.219-3.148,0.332-4.475,0.332c-2.435,0-4.424-0.662-5.967-1.988c-1.549-1.326-2.543-3.206-2.983-5.635l0.663-1.326
						c0.217-0.445,0.44-0.777,0.663-0.995v-2.983c0-1.988-0.611-3.263-1.823-3.812c-1.218-0.556-2.652-1.16-4.31-1.823
						c-1.658-0.663-3.264-1.715-4.807-3.148c-1.549-1.438-2.652-4.035-3.315-7.791l0.663-1.325c0.218-0.445,0.44-0.776,0.663-0.994
						c0-0.445-0.166-0.942-0.497-1.492c-0.331-0.554-0.611-0.942-0.829-1.16c0.44,0,1.104-0.165,1.989-0.497
						c0.881-0.33,1.435-0.611,1.657-0.828l0.332-0.662l-0.332-0.664c-0.223-0.223-0.663-0.444-1.325-0.662
						c-0.663-0.223-0.995-0.445-0.995-0.663v-0.334h0.003V-197.757z M104.918-161.293c1.543,0,2.538-0.555,2.983-1.658h-1.326
						c-1.549,0-2.435,0.551-2.652,1.658H104.918z M107.901-194.773c-0.445,0-0.663,0.274-0.663,0.828
						c0,0.549,0.218,0.715,0.663,0.497C108.781-193.892,108.781-194.334,107.901-194.773z M108.896-165.271h1.326v-1.324
						L108.896-165.271z M117.846-166.595h0.994h0.332c0.44-0.225,0.938-0.446,1.491-0.663c0.55-0.224,0.938-0.445,1.16-0.663
						c-0.445-0.887-0.942-1.771-1.491-2.652c-0.555-0.886-1.383-1.326-2.486-1.326V-166.595z M144.365-199.912
						c0-0.777-0.223-1.16-0.663-1.16c-0.663,0-0.994,0.383-0.994,1.16c0,0.771,0.331,1.16,0.994,1.16
						C144.143-198.752,144.365-199.14,144.365-199.912z M158.619-165.271c0-0.886-0.331-1.324-0.994-1.324
						c-0.445,0-0.663,0.438-0.663,1.324c0,0.881,0.218,1.326,0.663,1.326C158.288-163.945,158.619-164.39,158.619-165.271z
						 M158.951-172.894h2.651c0-1.989-0.886-2.983-2.651-2.983V-172.894z M163.923-165.271c0-0.886-0.445-1.324-1.325-1.324
						c-0.446,0-0.663,0.438-0.663,1.324c0,0.881,0.217,1.326,0.663,1.326C163.478-163.945,163.923-164.39,163.923-165.271z
						 M166.243-179.359c0-0.994-0.223-1.492-0.662-1.492c-0.663,0-0.995,0.498-0.995,1.492s0.332,1.491,0.995,1.491
						C166.021-177.868,166.243-178.365,166.243-179.359z M169.227-188.474l-1.325-1.326c-0.886,0.662-1.326,1.656-1.326,2.982
						C167.679-186.818,168.564-187.372,169.227-188.474z M169.227-192.122c-0.445-0.223-0.662-0.058-0.662,0.497
						c0,0.549,0.217,0.829,0.662,0.829C170.107-191.241,170.107-191.681,169.227-192.122z M170.553-165.271h2.652
						c0.218,0,0.497-0.662,0.828-1.987c0.332-1.326,0.498-2.435,0.498-3.315c0-1.107-0.389-1.937-1.16-2.486
						c-0.777-0.554-1.715-0.828-2.818-0.828V-165.271z M178.178-190.796c0.217-0.224,0.497-0.445,0.828-0.663
						c0.332-0.223,0.497-0.445,0.497-0.663v-0.663v-0.663c0-0.886-0.445-1.325-1.325-1.325V-190.796z M196.078-190.796h1.326v-2.652
						h-1.326V-190.796z M208.675-190.962c0-0.776-0.332-1.16-0.995-1.16c-0.662,0-0.994,0.384-0.994,1.16
						c0,0.771,0.332,1.16,0.994,1.16C208.343-189.8,208.675-190.189,208.675-190.962z M217.956-172.894h0.663h0.663
						c0.218-0.224,0.44-0.664,0.663-1.326c0.218-0.663,0.331-1.108,0.331-1.326c0-0.445-0.279-0.776-0.828-0.994
						c-0.555-0.223-1.052-0.331-1.492-0.331V-172.894L217.956-172.894z M219.945-164.111c0-0.775-0.223-1.16-0.663-1.16
						c-0.663,0-0.994,0.385-0.994,1.16c0,0.772,0.331,1.16,0.994,1.16C219.723-162.951,219.945-163.339,219.945-164.111z
						 M220.276-170.575c-0.445,0-0.663,0.274-0.663,0.829c0,0.549,0.218,0.828,0.663,0.828
						C221.38-169.363,221.38-169.912,220.276-170.575z M231.05-188.308c0.109-0.556,0.166-1.053,0.166-1.492
						c0-1.108-0.331-2.27-0.994-3.48c-0.663-1.217-1.88-1.822-3.646-1.822c0,1.326,0.383,2.761,1.16,4.31
						c0.771,1.543,1.823,2.761,3.149,3.646C230.885-187.372,230.937-187.759,231.05-188.308z M237.846-183.172
						c0-0.663-0.223-1.108-0.663-1.326c-0.445-0.223-0.663,0.218-0.663,1.326c0,1.104,0.218,1.544,0.663,1.326
						C237.623-182.068,237.846-182.507,237.846-183.172z"/>
					<path fill="#EA118D" d="M170.719-158.758v-0.994c0.44-1.326,1.16-3.149,2.155-5.47c0.994-2.32,1.6-3.48,1.823-3.48h1.657
						c0,1.104,0.383,2.264,1.16,3.48c0.771,1.212,1.709,1.822,2.817,1.822h0.332c0.217-0.223,0.715-0.662,1.491-1.326
						c0.771-0.662,1.27-1.107,1.492-1.325h0.331h0.663c0.44,0.218,0.938,0.663,1.491,1.325c0.55,0.664,0.938,1.104,1.161,1.326
						c0.439-0.886,1.6-1.822,3.48-2.817c1.875-0.994,3.258-1.384,4.144-1.16c0.44,0.218,1.932,0.829,4.475,1.823
						c2.538,0.994,4.03,1.71,4.476,2.154l5.304-5.304c0.663-0.663,1.435-0.166,2.32,1.491c0.881,1.656,1.544,2.486,1.989,2.486
						h0.663c1.988-1.108,3.48-2.047,4.475-2.817c0.995-0.777,2.704-1.16,5.139-1.16h0.663c0.217,0.217,0.828,0.714,1.823,1.491
						c0.994,0.771,1.709,1.16,2.154,1.16c0.44,0,0.938-0.331,1.492-0.994c0.549-0.663,0.828-1.219,0.828-1.657
						c2.652,1.543,3.979,3.312,3.979,5.304c0,1.325-0.446,2.207-1.326,2.651c-0.886,0.44-1.326,1.435-1.326,2.983v0.994
						c0,0.217,0.108,0.549,0.331,0.994c0.44-1.107,1.27-1.988,2.486-2.652c1.212-0.661,2.372-1.107,3.48-1.324
						c-0.445-0.446-0.828-1.439-1.16-2.982c-0.331-1.55-0.279-2.652,0.166-3.315c0.218-0.445,0.994-0.994,2.32-1.657
						c1.326-0.663,2.207-0.994,2.652-0.994c1.326,1.104,2.098,2.206,2.32,3.314c0.218,1.104,1.104,1.767,2.652,1.988
						c0.439-0.662,0.938-1.492,1.491-2.485c0.549-0.994,1.16-1.492,1.823-1.492h0.663c0.218,0.218,0.497,0.44,0.829,0.663
						c0.331,0.218,0.497,0.439,0.497,0.663c0.88,0.881,1.325,1.767,1.325,2.651l-3.646,6.299c-0.224,0.218-0.166,0.496,0.165,0.828
						c0.332,0.332,0.606,0.498,0.829,0.498h1.326v-0.332c1.988,0,3.589-0.389,4.807-1.16c1.212-0.776,2.429-1.657,3.646-2.651
						c1.212-0.994,2.372-1.88,3.48-2.652c1.104-0.776,2.538-1.159,4.31-1.159c0.217,0,0.663,0.496,1.325,1.491
						c0.663,0.994,1.326,2.099,1.989,3.314c0.663,1.212,1.212,2.372,1.657,3.479c0.44,1.104,0.663,1.875,0.663,2.321h0.663h0.663
						c0.218-0.224,0.331-0.663,0.331-1.326v-9.282c0.44,0,0.772,0.109,0.995,0.332c2.429,1.767,4.361,3.48,5.801,5.139
						c1.435,1.656,3.921,2.486,7.459,2.486c0.44,0,1.212-0.332,2.32-0.994c1.104-0.664,1.875-1.219,2.32-1.658
						c0,0.881,0.383,1.767,1.16,2.652c0.771,0.881,1.709,1.325,2.817,1.325c0-0.223,0.109-0.444,0.332-0.663l0.663-0.662
						c0.217-0.445,0.439-1.492,0.663-3.149c0.217-1.657,0.438-2.709,0.662-3.149c0.218,0,0.663-0.057,1.325-0.165
						c0.663-0.114,1.104-0.166,1.326-0.166c1.989,0,3.755,0.497,5.307,1.492c1.544,0.994,3.312,1.491,5.304,1.491
						c0.881,0,1.544-0.223,1.989-0.663c0.438-0.445,0.549-1.549,0.332-3.313c0.659,1.766,1.377,2.868,2.151,3.313
						c0.771,0.44,1.823,0.663,3.149,0.663c1.325,0,2.206-0.279,2.648-0.829c0.44-0.554,1.215-0.828,2.32-0.828
						c0.881,0,1.989,0.828,3.315,2.486c1.323,1.657,2.595,3.532,3.812,5.635c1.213,2.099,2.266,4.194,3.149,6.299
						c0.881,2.098,1.325,3.588,1.325,4.475c0,0.219-0.059,0.715-0.165,1.492c-0.113,0.771-0.165,1.379-0.165,1.822
						c-1.771,0.219-2.983,1.047-3.646,2.486c-0.663,1.436-1.549,2.596-2.652,3.479l-2.648-7.623
						c-3.315,2.429-5.915,6.02-7.79,10.772c-1.881,4.75-2.818,9.002-2.818,12.763c-2.212,0-3.479-0.83-3.812-2.486
						c-0.332-1.657-0.724-3.48-1.161-5.471h-0.331c-0.663,0-1.217,0.383-1.657,1.16c-0.445,0.771-0.886,1.657-1.326,2.652
						c-0.442,0.994-0.939,1.875-1.489,2.652c-0.557,0.771-1.386,1.158-2.485,1.158c-4.424,0-8.898-0.609-13.426-1.822
						c-4.532-1.217-8.898-1.822-13.094-1.822c-0.886,0-1.605,0.166-2.155,0.498c-0.554,0.332-1.273,0.496-2.154,0.496
						c-2.652,0-5.47-0.389-8.453-1.159c-2.983-0.776-5.692-1.16-8.121-1.16c-0.445,0-1.771,0.166-3.979,0.497
						c-2.211,0.332-3.537,0.605-3.978,0.829h-0.663h-0.331c-0.446-0.224-1.161-0.497-2.155-0.829
						c-0.994-0.332-1.605-0.497-1.823-0.497c-0.223,0-0.663,0.218-1.326,0.663c-0.662,0.439-1.108,0.663-1.325,0.663
						c-1.108,0-1.989-1.108-2.652-3.313c-0.663-2.213-1.88-3.315-3.646-3.315l-0.663,0.663l-0.663,0.662
						c-0.223,0.22-0.497,0.384-0.828,0.498c-0.332,0.108-0.721,0.383-1.16,0.828c-0.663,0.217-1.218,0.549-1.658,0.994h-0.331
						l-0.663,0.332l-0.663-0.332c-0.445-0.886-0.663-1.822-0.663-2.816c0-0.995-0.554-1.715-1.657-2.154
						c-1.108,0.439-1.657,1.325-1.657,2.65c0,1.326,0.549,2.652,1.657,3.979c-0.445,0.218-1.108,0.497-1.989,0.829
						c-0.886,0.332-1.549,0.497-1.988,0.497l-1.326-0.663l-1.326-0.663c-0.223-0.224-0.445-0.332-0.663-0.332h-0.663l-0.994,0.332
						l-1.326,1.326c-2.435,0-4.755-0.497-6.961-1.492c-2.212-0.993-4.424-1.491-6.63-1.491c-1.108,0-1.771,0.274-1.989,0.828
						c-0.223,0.549-0.886,0.829-1.989,0.829h-0.331c-0.223-0.224-0.497-0.497-0.829-0.829c-0.331-0.332-0.497-0.609-0.497-0.828
						c-0.445,2.207-1.491,3.424-3.149,3.646c-1.657,0.218-3.148,0.332-4.475,0.332c-2.435,0-4.424-0.664-5.967-1.989
						c-1.549-1.326-2.543-3.206-2.983-5.636l0.663-1.325c0.217-0.445,0.44-0.777,0.663-0.995v-2.981c0-1.99-0.611-3.264-1.823-3.812
						c-1.218-0.555-2.652-1.16-4.31-1.822c-1.658-0.664-3.264-1.715-4.807-3.15c-1.549-1.438-2.652-4.034-3.315-7.788l0.663-1.326
						c0.218-0.445,0.44-0.777,0.663-0.995c0-0.445-0.166-0.942-0.497-1.492c-0.331-0.554-0.611-0.942-0.829-1.16
						c0.44,0,1.104-0.166,1.989-0.497c0.881-0.332,1.435-0.611,1.657-0.828l0.332-0.664l-0.332-0.662
						c-0.223-0.224-0.663-0.445-1.325-0.664c-0.663-0.223-0.995-0.444-0.995-0.662v-0.331h0.002V-158.758z M189.614-122.296
						c1.543,0,2.538-0.554,2.983-1.657h-1.326c-1.549,0-2.435,0.549-2.652,1.657H189.614z M192.598-155.775
						c-0.445,0-0.663,0.273-0.663,0.828c0,0.549,0.218,0.715,0.663,0.497C193.478-154.894,193.478-155.336,192.598-155.775z
						 M193.592-126.273h1.326v-1.325L193.592-126.273z M202.542-127.599h0.994h0.332c0.44-0.224,0.938-0.445,1.491-0.662
						c0.55-0.224,0.938-0.444,1.16-0.663c-0.445-0.887-0.942-1.771-1.491-2.652c-0.555-0.886-1.383-1.324-2.486-1.324V-127.599
						L202.542-127.599z M229.062-160.914c0-0.777-0.223-1.161-0.663-1.161c-0.663,0-0.994,0.384-0.994,1.161
						c0,0.771,0.331,1.16,0.994,1.16C228.839-159.754,229.062-160.142,229.062-160.914z M243.315-126.273
						c0-0.887-0.331-1.325-0.994-1.325c-0.445,0-0.663,0.438-0.663,1.325c0,0.879,0.218,1.326,0.663,1.326
						C242.984-124.947,243.315-125.393,243.315-126.273z M243.647-133.898h2.651c0-1.987-0.886-2.981-2.651-2.981V-133.898z
						 M248.619-126.273c0-0.887-0.445-1.325-1.325-1.325c-0.446,0-0.663,0.438-0.663,1.325c0,0.879,0.217,1.326,0.663,1.326
						C248.174-124.947,248.619-125.393,248.619-126.273z M250.939-140.361c0-0.996-0.223-1.492-0.662-1.492
						c-0.663,0-0.995,0.496-0.995,1.492c0,0.994,0.332,1.492,0.995,1.492C250.717-138.869,250.939-139.367,250.939-140.361z
						 M253.923-149.478l-1.325-1.326c-0.886,0.664-1.326,1.658-1.326,2.983C252.375-147.82,253.261-148.375,253.923-149.478z
						 M253.923-153.124c-0.445-0.224-0.662-0.058-0.662,0.497c0,0.549,0.217,0.829,0.662,0.829
						C254.804-152.244,254.804-152.683,253.923-153.124z M255.249-126.273h2.652c0.218,0,0.497-0.664,0.828-1.989
						c0.332-1.325,0.498-2.435,0.498-3.313c0-1.107-0.389-1.938-1.16-2.486c-0.777-0.555-1.715-0.828-2.818-0.828V-126.273z
						 M262.874-151.798c0.217-0.224,0.497-0.445,0.828-0.663c0.332-0.223,0.497-0.445,0.497-0.663v-0.663v-0.663
						c0-0.886-0.445-1.325-1.325-1.325V-151.798z M280.774-151.798h1.326v-2.651h-1.326V-151.798z M293.371-151.964
						c0-0.777-0.332-1.16-0.995-1.16c-0.662,0-0.994,0.383-0.994,1.16c0,0.771,0.332,1.159,0.994,1.159
						C293.039-150.804,293.371-151.193,293.371-151.964z M302.652-133.898h0.663h0.662c0.219-0.223,0.44-0.662,0.663-1.325
						c0.219-0.662,0.331-1.106,0.331-1.325c0-0.445-0.278-0.777-0.828-0.994c-0.555-0.225-1.052-0.332-1.491-0.332V-133.898
						L302.652-133.898z M304.642-125.113c0-0.776-0.223-1.16-0.663-1.16c-0.662,0-0.993,0.384-0.993,1.16
						c0,0.772,0.331,1.16,0.993,1.16C304.419-123.953,304.642-124.34,304.642-125.113z M304.973-131.576
						c-0.444,0-0.663,0.273-0.663,0.828c0,0.549,0.219,0.829,0.663,0.829C306.076-130.365,306.076-130.914,304.973-131.576z
						 M315.746-149.312c0.109-0.554,0.166-1.051,0.166-1.492c0-1.107-0.331-2.269-0.994-3.479c-0.663-1.218-1.88-1.823-3.646-1.823
						c0,1.325,0.383,2.76,1.157,4.31c0.771,1.543,1.823,2.761,3.149,3.646C315.581-148.375,315.633-148.763,315.746-149.312z
						 M322.542-144.174c0-0.663-0.223-1.107-0.663-1.326c-0.445-0.223-0.663,0.219-0.663,1.326c0,1.104,0.218,1.543,0.663,1.326
						C322.319-143.07,322.542-143.51,322.542-144.174z"/>
					<path fill="#EA118D" d="M1.326-158.758v-0.994c0.44-1.326,1.16-3.149,2.155-5.47c0.994-2.32,1.6-3.48,1.823-3.48h1.657
						c0,1.104,0.383,2.264,1.16,3.48c0.771,1.212,1.709,1.822,2.817,1.822h0.332c0.217-0.223,0.715-0.662,1.491-1.326
						c0.771-0.662,1.27-1.107,1.492-1.325h0.331h0.663c0.44,0.218,0.938,0.663,1.491,1.325c0.55,0.664,0.938,1.104,1.161,1.326
						c0.439-0.886,1.6-1.822,3.48-2.817c1.875-0.994,3.258-1.384,4.144-1.16c0.44,0.218,1.932,0.829,4.475,1.823
						c2.538,0.994,4.03,1.71,4.476,2.154l5.304-5.304c0.663-0.663,1.435-0.166,2.32,1.491c0.881,1.656,1.544,2.486,1.989,2.486
						h0.663c1.988-1.108,3.48-2.047,4.475-2.817c0.995-0.777,2.704-1.16,5.139-1.16h0.663c0.217,0.217,0.828,0.714,1.823,1.491
						c0.994,0.771,1.709,1.16,2.154,1.16c0.44,0,0.938-0.331,1.492-0.994c0.549-0.663,0.828-1.219,0.828-1.657
						c2.652,1.543,3.979,3.312,3.979,5.304c0,1.325-0.446,2.207-1.326,2.651c-0.886,0.44-1.326,1.435-1.326,2.983v0.994
						c0,0.217,0.108,0.549,0.331,0.994c0.44-1.107,1.27-1.988,2.486-2.652c1.212-0.661,2.372-1.107,3.48-1.324
						c-0.445-0.446-0.828-1.439-1.16-2.982c-0.331-1.55-0.279-2.652,0.166-3.315c0.218-0.445,0.994-0.994,2.32-1.657
						c1.326-0.663,2.207-0.994,2.652-0.994c1.326,1.104,2.098,2.206,2.32,3.314c0.218,1.104,1.104,1.767,2.652,1.988
						c0.439-0.662,0.938-1.492,1.491-2.485c0.549-0.994,1.16-1.492,1.823-1.492h0.663c0.218,0.218,0.497,0.44,0.829,0.663
						c0.331,0.218,0.497,0.439,0.497,0.663c0.88,0.881,1.325,1.767,1.325,2.651l-3.646,6.299c-0.224,0.218-0.166,0.496,0.165,0.828
						c0.332,0.332,0.606,0.498,0.829,0.498H83.2v-0.332c1.988,0,3.589-0.389,4.807-1.16c1.212-0.776,2.429-1.657,3.646-2.651
						c1.212-0.994,2.372-1.88,3.48-2.652c1.104-0.776,2.538-1.159,4.31-1.159c0.217,0,0.663,0.496,1.325,1.491
						c0.663,0.994,1.326,2.099,1.989,3.314c0.663,1.212,1.212,2.372,1.657,3.479c0.44,1.104,0.663,1.875,0.663,2.321h0.663h0.663
						c0.218-0.224,0.331-0.663,0.331-1.326v-9.282c0.44,0,0.772,0.109,0.995,0.332c2.429,1.767,4.361,3.48,5.801,5.139
						c1.435,1.656,3.921,2.486,7.459,2.486c0.44,0,1.212-0.332,2.32-0.994c1.104-0.664,1.875-1.219,2.32-1.658
						c0,0.881,0.383,1.767,1.16,2.652c0.771,0.881,1.709,1.325,2.817,1.325c0-0.223,0.109-0.444,0.332-0.663l0.663-0.662
						c0.217-0.445,0.44-1.492,0.663-3.149c0.217-1.657,0.439-2.709,0.662-3.149c0.218,0,0.663-0.057,1.326-0.165
						c0.663-0.114,1.104-0.166,1.326-0.166c1.989,0,3.755,0.497,5.304,1.492c1.544,0.994,3.315,1.491,5.304,1.491
						c0.881,0,1.544-0.223,1.989-0.663c0.44-0.445,0.549-1.549,0.332-3.313c0.662,1.766,1.377,2.868,2.154,3.313
						c0.771,0.44,1.823,0.663,3.149,0.663c1.325,0,2.206-0.279,2.651-0.829c0.44-0.554,1.212-0.828,2.32-0.828
						c0.881,0,1.989,0.828,3.315,2.486c1.326,1.657,2.595,3.532,3.812,5.635c1.213,2.099,2.264,4.194,3.149,6.299
						c0.881,2.098,1.326,3.588,1.326,4.475c0,0.219-0.057,0.715-0.166,1.492c-0.113,0.771-0.165,1.379-0.165,1.822
						c-1.771,0.219-2.983,1.047-3.646,2.486c-0.663,1.436-1.549,2.596-2.652,3.479l-2.651-7.623
						c-3.315,2.429-5.915,6.02-7.79,10.772c-1.881,4.75-2.818,9.002-2.818,12.763c-2.212,0-3.48-0.83-3.812-2.486
						c-0.332-1.657-0.721-3.48-1.161-5.471h-0.331c-0.663,0-1.217,0.383-1.657,1.16c-0.445,0.771-0.886,1.657-1.326,2.652
						c-0.445,0.994-0.942,1.875-1.492,2.652c-0.554,0.771-1.383,1.158-2.485,1.158c-4.424,0-8.898-0.609-13.426-1.822
						c-4.532-1.217-8.898-1.822-13.094-1.822c-0.886,0-1.605,0.166-2.155,0.498c-0.554,0.332-1.273,0.496-2.154,0.496
						c-2.652,0-5.47-0.389-8.453-1.159c-2.983-0.776-5.692-1.16-8.121-1.16c-0.445,0-1.771,0.166-3.979,0.497
						c-2.211,0.332-3.537,0.605-3.978,0.829h-0.663h-0.331c-0.446-0.224-1.161-0.497-2.155-0.829
						c-0.994-0.332-1.605-0.497-1.823-0.497c-0.223,0-0.663,0.218-1.326,0.663c-0.662,0.439-1.108,0.663-1.325,0.663
						c-1.108,0-1.989-1.108-2.652-3.313c-0.663-2.213-1.88-3.315-3.646-3.315l-0.663,0.663l-0.663,0.662
						c-0.223,0.22-0.497,0.384-0.828,0.498c-0.332,0.108-0.721,0.383-1.16,0.828c-0.663,0.217-1.218,0.549-1.658,0.994h-0.331
						l-0.663,0.332l-0.663-0.332c-0.445-0.886-0.663-1.822-0.663-2.816c0-0.995-0.554-1.715-1.657-2.154
						c-1.108,0.439-1.657,1.325-1.657,2.65c0,1.326,0.549,2.652,1.657,3.979c-0.445,0.218-1.108,0.497-1.989,0.829
						c-0.886,0.332-1.549,0.497-1.988,0.497l-1.326-0.663l-1.326-0.663c-0.223-0.224-0.445-0.332-0.663-0.332H51.05l-0.994,0.332
						l-1.326,1.326c-2.435,0-4.755-0.497-6.961-1.492c-2.212-0.993-4.424-1.491-6.63-1.491c-1.108,0-1.771,0.274-1.989,0.828
						c-0.223,0.549-0.886,0.829-1.989,0.829H30.83c-0.223-0.224-0.497-0.497-0.829-0.829c-0.331-0.332-0.497-0.609-0.497-0.828
						c-0.445,2.207-1.491,3.424-3.149,3.646c-1.657,0.218-3.148,0.332-4.475,0.332c-2.435,0-4.424-0.664-5.967-1.989
						c-1.549-1.326-2.543-3.206-2.983-5.636l0.663-1.325c0.217-0.445,0.44-0.777,0.663-0.995v-2.981c0-1.99-0.611-3.264-1.823-3.812
						c-1.218-0.555-2.652-1.16-4.31-1.822c-1.658-0.664-3.264-1.715-4.807-3.15c-1.549-1.438-2.652-4.034-3.315-7.788l0.663-1.326
						c0.218-0.445,0.44-0.777,0.663-0.995c0-0.445-0.166-0.942-0.497-1.492c-0.332-0.554-0.612-0.942-0.83-1.16
						c0.44,0,1.104-0.166,1.989-0.497c0.881-0.332,1.435-0.611,1.657-0.828l0.332-0.664l-0.332-0.662
						c-0.223-0.224-0.663-0.445-1.325-0.664c-0.663-0.223-0.995-0.444-0.995-0.662V-158.758z M20.222-122.296
						c1.543,0,2.538-0.554,2.983-1.657h-1.326c-1.549,0-2.435,0.549-2.652,1.657H20.222z M23.205-155.775
						c-0.445,0-0.663,0.273-0.663,0.828c0,0.549,0.218,0.715,0.663,0.497C24.085-154.894,24.085-155.336,23.205-155.775z
						 M24.199-126.273h1.326v-1.325L24.199-126.273z M33.149-127.599h0.994h0.332c0.44-0.224,0.938-0.445,1.491-0.662
						c0.55-0.224,0.938-0.444,1.16-0.663c-0.445-0.887-0.942-1.771-1.491-2.652c-0.555-0.886-1.383-1.324-2.486-1.324V-127.599z
						 M59.669-160.914c0-0.777-0.223-1.161-0.663-1.161c-0.663,0-0.994,0.384-0.994,1.161c0,0.771,0.331,1.16,0.994,1.16
						C59.446-159.754,59.669-160.142,59.669-160.914z M73.923-126.273c0-0.887-0.331-1.325-0.994-1.325
						c-0.445,0-0.663,0.438-0.663,1.325c0,0.879,0.218,1.326,0.663,1.326C73.592-124.947,73.923-125.393,73.923-126.273z
						 M74.255-133.898h2.651c0-1.987-0.886-2.981-2.651-2.981V-133.898z M79.227-126.273c0-0.887-0.445-1.325-1.325-1.325
						c-0.446,0-0.663,0.438-0.663,1.325c0,0.879,0.217,1.326,0.663,1.326C78.781-124.947,79.227-125.393,79.227-126.273z
						 M81.547-140.361c0-0.996-0.223-1.492-0.662-1.492c-0.663,0-0.995,0.496-0.995,1.492c0,0.994,0.332,1.492,0.995,1.492
						C81.324-138.869,81.547-139.367,81.547-140.361z M84.53-149.478l-1.325-1.326c-0.886,0.664-1.326,1.658-1.326,2.983
						C82.982-147.82,83.868-148.375,84.53-149.478z M84.53-153.124c-0.445-0.224-0.662-0.058-0.662,0.497
						c0,0.549,0.217,0.829,0.662,0.829C85.411-152.244,85.411-152.683,84.53-153.124z M85.856-126.273h2.652
						c0.218,0,0.497-0.664,0.828-1.989c0.332-1.325,0.498-2.435,0.498-3.313c0-1.107-0.389-1.938-1.16-2.486
						c-0.777-0.555-1.715-0.828-2.818-0.828V-126.273z M93.481-151.798c0.217-0.224,0.497-0.445,0.828-0.663
						c0.332-0.223,0.497-0.445,0.497-0.663v-0.663v-0.663c0-0.886-0.445-1.325-1.325-1.325V-151.798z M111.382-151.798h1.326v-2.651
						h-1.326V-151.798z M123.979-151.964c0-0.777-0.332-1.16-0.995-1.16c-0.662,0-0.994,0.383-0.994,1.16
						c0,0.771,0.332,1.159,0.994,1.159S123.979-151.193,123.979-151.964z M133.26-133.898h0.663h0.663
						c0.218-0.223,0.44-0.662,0.663-1.325c0.218-0.662,0.331-1.106,0.331-1.325c0-0.445-0.279-0.777-0.828-0.994
						c-0.555-0.225-1.052-0.332-1.492-0.332V-133.898L133.26-133.898z M135.249-125.113c0-0.776-0.223-1.16-0.663-1.16
						c-0.663,0-0.994,0.384-0.994,1.16c0,0.772,0.331,1.16,0.994,1.16C135.026-123.953,135.249-124.34,135.249-125.113z
						 M135.58-131.576c-0.445,0-0.663,0.273-0.663,0.828c0,0.549,0.218,0.829,0.663,0.829
						C136.684-130.365,136.684-130.914,135.58-131.576z M146.354-149.312c0.109-0.554,0.166-1.051,0.166-1.492
						c0-1.107-0.331-2.269-0.994-3.479c-0.663-1.218-1.88-1.823-3.646-1.823c0,1.325,0.383,2.76,1.16,4.31
						c0.771,1.543,1.823,2.761,3.149,3.646C146.188-148.375,146.24-148.763,146.354-149.312z M153.149-144.174
						c0-0.663-0.223-1.107-0.663-1.326c-0.445-0.223-0.663,0.219-0.663,1.326c0,1.104,0.218,1.543,0.663,1.326
						C152.927-143.07,153.149-143.51,153.149-144.174z"/>
					<path fill="#EA118D" d="M86.022-119.761v-0.994c0.44-1.325,1.16-3.149,2.155-5.472c0.994-2.318,1.6-3.479,1.823-3.479h1.657
						c0,1.104,0.383,2.264,1.16,3.479c0.771,1.214,1.709,1.824,2.817,1.824h0.332c0.217-0.224,0.715-0.664,1.491-1.326
						c0.771-0.664,1.27-1.107,1.492-1.325h0.331h0.663c0.44,0.217,0.938,0.661,1.491,1.325c0.55,0.662,0.938,1.104,1.161,1.326
						c0.439-0.887,1.6-1.824,3.48-2.817c1.875-0.994,3.258-1.384,4.144-1.16c0.44,0.218,1.932,0.829,4.475,1.821
						c2.538,0.996,4.03,1.709,4.476,2.156l5.304-5.305c0.663-0.662,1.435-0.166,2.32,1.492c0.881,1.656,1.544,2.486,1.989,2.486
						h0.663c1.988-1.108,3.48-2.047,4.475-2.817c0.995-0.776,2.704-1.16,5.139-1.16h0.663c0.217,0.218,0.828,0.714,1.823,1.492
						c0.994,0.771,1.709,1.159,2.154,1.159c0.44,0,0.938-0.331,1.492-0.994c0.549-0.663,0.828-1.217,0.828-1.657
						c2.652,1.544,3.979,3.315,3.979,5.304c0,1.326-0.446,2.207-1.326,2.652c-0.886,0.439-1.326,1.436-1.326,2.982v0.996
						c0,0.217,0.108,0.549,0.331,0.994c0.44-1.108,1.27-1.99,2.486-2.652c1.212-0.663,2.372-1.107,3.48-1.326
						c-0.445-0.445-0.828-1.439-1.16-2.982c-0.331-1.549-0.279-2.652,0.166-3.314c0.218-0.446,0.994-0.995,2.32-1.658
						c1.326-0.663,2.207-0.994,2.652-0.994c1.326,1.104,2.098,2.206,2.32,3.314c0.218,1.104,1.104,1.767,2.652,1.988
						c0.439-0.662,0.938-1.492,1.491-2.485c0.549-0.993,1.16-1.491,1.823-1.491h0.663c0.218,0.219,0.497,0.439,0.829,0.663
						c0.331,0.217,0.497,0.438,0.497,0.663c0.88,0.88,1.325,1.766,1.325,2.65l-3.646,6.299c-0.224,0.218-0.166,0.496,0.165,0.828
						c0.332,0.332,0.606,0.498,0.829,0.498h1.326v-0.332c1.988,0,3.589-0.389,4.807-1.16c1.212-0.776,2.429-1.656,3.646-2.651
						c1.212-0.994,2.372-1.88,3.48-2.651c1.104-0.777,2.538-1.16,4.31-1.16c0.217,0,0.663,0.498,1.325,1.492
						c0.663,0.994,1.326,2.098,1.989,3.314c0.663,1.212,1.212,2.372,1.657,3.479c0.44,1.104,0.663,1.875,0.663,2.321h0.663h0.663
						c0.218-0.224,0.331-0.663,0.331-1.325v-9.283c0.44,0,0.772,0.109,0.995,0.332c2.429,1.768,4.361,3.48,5.801,5.14
						c1.435,1.655,3.921,2.485,7.459,2.485c0.44,0,1.212-0.332,2.32-0.994c1.104-0.664,1.875-1.217,2.32-1.657
						c0,0.881,0.383,1.767,1.16,2.651c0.771,0.881,1.709,1.326,2.817,1.326c0-0.224,0.109-0.445,0.332-0.664l0.663-0.662
						c0.217-0.444,0.44-1.492,0.663-3.148c0.217-1.657,0.439-2.709,0.662-3.148c0.218,0,0.663-0.058,1.326-0.166
						c0.663-0.113,1.104-0.166,1.326-0.166c1.989,0,3.755,0.496,5.304,1.491c1.544,0.994,3.315,1.492,5.304,1.492
						c0.881,0,1.544-0.224,1.989-0.663c0.44-0.445,0.549-1.549,0.332-3.314c0.662,1.767,1.377,2.869,2.154,3.314
						c0.771,0.439,1.823,0.663,3.149,0.663c1.325,0,2.206-0.28,2.651-0.829c0.44-0.555,1.212-0.829,2.32-0.829
						c0.881,0,1.989,0.829,3.315,2.486c1.326,1.655,2.595,3.53,3.812,5.635c1.213,2.099,2.264,4.194,3.149,6.298
						c0.881,2.1,1.326,3.59,1.326,4.477c0,0.217-0.057,0.715-0.166,1.49c-0.113,0.772-0.165,1.379-0.165,1.823
						c-1.771,0.218-2.983,1.046-3.646,2.486c-0.663,1.435-1.549,2.595-2.652,3.479l-2.651-7.625
						c-3.315,2.43-5.915,6.021-7.79,10.773c-1.881,4.75-2.818,9.002-2.818,12.762c-2.212,0-3.48-0.828-3.812-2.486
						s-0.721-3.479-1.161-5.469h-0.331c-0.663,0-1.217,0.383-1.657,1.159c-0.445,0.771-0.886,1.657-1.326,2.651
						c-0.445,0.996-0.942,1.875-1.492,2.652c-0.554,0.771-1.383,1.16-2.485,1.16c-4.424,0-8.898-0.611-13.426-1.822
						c-4.532-1.219-8.898-1.824-13.094-1.824c-0.886,0-1.605,0.166-2.155,0.498c-0.554,0.332-1.273,0.498-2.154,0.498
						c-2.652,0-5.47-0.389-8.453-1.16c-2.983-0.777-5.692-1.16-8.121-1.16c-0.445,0-1.771,0.166-3.979,0.497
						c-2.211,0.332-3.537,0.606-3.978,0.829h-0.663h-0.331c-0.446-0.223-1.161-0.497-2.155-0.829s-1.605-0.497-1.823-0.497
						c-0.223,0-0.663,0.217-1.326,0.663c-0.662,0.44-1.108,0.663-1.325,0.663c-1.108,0-1.989-1.108-2.652-3.314
						c-0.663-2.212-1.88-3.314-3.646-3.314l-0.663,0.662l-0.663,0.664c-0.223,0.217-0.497,0.383-0.828,0.496
						c-0.332,0.109-0.721,0.383-1.16,0.83c-0.663,0.217-1.218,0.549-1.658,0.993h-0.331l-0.663,0.332l-0.663-0.332
						c-0.445-0.886-0.663-1.823-0.663-2.817s-0.554-1.713-1.657-2.153c-1.108,0.438-1.657,1.325-1.657,2.651
						s0.549,2.651,1.657,3.979c-0.445,0.217-1.108,0.497-1.989,0.829c-0.886,0.332-1.549,0.496-1.988,0.496l-1.326-0.662
						l-1.326-0.663c-0.223-0.225-0.445-0.332-0.663-0.332h-0.663l-0.994,0.332l-1.326,1.325c-2.435,0-4.755-0.496-6.961-1.491
						c-2.212-0.994-4.424-1.492-6.63-1.492c-1.108,0-1.771,0.273-1.989,0.829c-0.223,0.55-0.886,0.829-1.989,0.829h-0.331
						c-0.223-0.225-0.497-0.497-0.829-0.829c-0.331-0.332-0.497-0.61-0.497-0.829c-0.445,2.207-1.491,3.424-3.149,3.646
						c-1.657,0.219-3.148,0.332-4.475,0.332c-2.435,0-4.424-0.662-5.967-1.988c-1.549-1.326-2.543-3.206-2.983-5.635l0.663-1.326
						c0.217-0.445,0.44-0.777,0.663-0.995v-2.983c0-1.988-0.611-3.263-1.823-3.812c-1.218-0.554-2.652-1.16-4.31-1.823
						c-1.658-0.662-3.264-1.714-4.807-3.148c-1.549-1.439-2.652-4.034-3.315-7.791l0.663-1.325c0.218-0.444,0.44-0.776,0.663-0.994
						c0-0.444-0.166-0.942-0.497-1.492c-0.331-0.555-0.611-0.94-0.829-1.159c0.44,0,1.104-0.166,1.989-0.498
						c0.881-0.332,1.435-0.609,1.657-0.828l0.332-0.662l-0.332-0.664c-0.223-0.223-0.663-0.444-1.325-0.662
						c-0.663-0.225-0.995-0.445-0.995-0.664v-0.33h0.003V-119.761z M104.918-83.298c1.543,0,2.538-0.554,2.983-1.657h-1.326
						c-1.549,0-2.435,0.549-2.652,1.657H104.918z M107.901-116.779c-0.445,0-0.663,0.275-0.663,0.83
						c0,0.549,0.218,0.715,0.663,0.496C108.781-115.898,108.781-116.339,107.901-116.779z M108.896-87.275h1.326v-1.326
						L108.896-87.275z M117.846-88.602h0.994h0.332c0.44-0.223,0.938-0.445,1.491-0.663c0.55-0.224,0.938-0.444,1.16-0.662
						c-0.445-0.888-0.942-1.771-1.491-2.651c-0.555-0.887-1.383-1.326-2.486-1.326V-88.602z M144.365-121.917
						c0-0.776-0.223-1.161-0.663-1.161c-0.663,0-0.994,0.383-0.994,1.161c0,0.771,0.331,1.16,0.994,1.16
						C144.143-120.757,144.365-121.145,144.365-121.917z M158.619-87.275c0-0.887-0.331-1.326-0.994-1.326
						c-0.445,0-0.663,0.439-0.663,1.326c0,0.879,0.218,1.326,0.663,1.326C158.288-85.949,158.619-86.396,158.619-87.275z
						 M158.951-94.9h2.651c0-1.987-0.886-2.981-2.651-2.981V-94.9z M163.923-87.275c0-0.887-0.445-1.326-1.325-1.326
						c-0.446,0-0.663,0.439-0.663,1.326c0,0.879,0.217,1.326,0.663,1.326C163.478-85.949,163.923-86.396,163.923-87.275z
						 M166.243-101.363c0-0.996-0.223-1.492-0.662-1.492c-0.663,0-0.995,0.496-0.995,1.492c0,0.994,0.332,1.492,0.995,1.492
						C166.021-99.873,166.243-100.369,166.243-101.363z M169.227-110.48l-1.325-1.325c-0.886,0.663-1.326,1.657-1.326,2.983
						C167.679-108.822,168.564-109.377,169.227-110.48z M169.227-114.127c-0.445-0.223-0.662-0.057-0.662,0.497
						c0,0.55,0.217,0.829,0.662,0.829C170.107-113.246,170.107-113.688,169.227-114.127z M170.553-87.275h2.652
						c0.218,0,0.497-0.664,0.828-1.989c0.332-1.325,0.498-2.435,0.498-3.313c0-1.107-0.389-1.939-1.16-2.486
						c-0.777-0.555-1.715-0.828-2.818-0.828V-87.275z M178.178-112.8c0.217-0.224,0.497-0.444,0.828-0.663
						c0.332-0.225,0.497-0.445,0.497-0.663v-0.663v-0.662c0-0.887-0.445-1.326-1.325-1.326V-112.8z M196.078-112.8h1.326v-2.651
						h-1.326V-112.8z M208.675-112.965c0-0.777-0.332-1.16-0.995-1.16c-0.662,0-0.994,0.383-0.994,1.16
						c0,0.771,0.332,1.159,0.994,1.159C208.343-111.806,208.675-112.195,208.675-112.965z M217.956-94.9h0.663h0.663
						c0.218-0.223,0.44-0.662,0.663-1.326c0.218-0.661,0.331-1.106,0.331-1.324c0-0.445-0.279-0.777-0.828-0.994
						c-0.555-0.225-1.052-0.332-1.492-0.332V-94.9L217.956-94.9z M219.945-86.115c0-0.777-0.223-1.16-0.663-1.16
						c-0.663,0-0.994,0.383-0.994,1.16c0,0.771,0.331,1.16,0.994,1.16C219.723-84.955,219.945-85.343,219.945-86.115z
						 M220.276-92.58c-0.445,0-0.663,0.273-0.663,0.829c0,0.55,0.218,0.829,0.663,0.829C221.38-91.367,221.38-91.917,220.276-92.58z
						 M231.05-110.314c0.109-0.555,0.166-1.051,0.166-1.491c0-1.108-0.331-2.271-0.994-3.479c-0.663-1.218-1.88-1.822-3.646-1.822
						c0,1.324,0.383,2.76,1.16,4.309c0.771,1.543,1.823,2.762,3.149,3.646C230.885-109.377,230.937-109.765,231.05-110.314z
						 M237.846-105.175c0-0.663-0.223-1.108-0.663-1.326c-0.445-0.223-0.663,0.218-0.663,1.326c0,1.103,0.218,1.543,0.663,1.325
						C237.623-104.072,237.846-104.513,237.846-105.175z"/>
					<path fill="#EA118D" d="M170.719-80.765v-0.993c0.44-1.326,1.16-3.148,2.155-5.471c0.994-2.319,1.6-3.479,1.823-3.479h1.657
						c0,1.104,0.383,2.265,1.16,3.479c0.771,1.211,1.709,1.822,2.817,1.822h0.332c0.217-0.223,0.715-0.662,1.491-1.326
						c0.771-0.662,1.27-1.106,1.492-1.326h0.331h0.663c0.44,0.219,0.938,0.664,1.491,1.326c0.55,0.664,0.938,1.104,1.161,1.326
						c0.439-0.886,1.6-1.822,3.48-2.817c1.875-0.993,3.258-1.384,4.144-1.159c0.44,0.218,1.932,0.829,4.475,1.822
						c2.538,0.994,4.03,1.709,4.476,2.154l5.304-5.304c0.663-0.663,1.435-0.166,2.32,1.492c0.881,1.657,1.544,2.485,1.989,2.485
						h0.663c1.988-1.107,3.48-2.045,4.475-2.816c0.995-0.777,2.704-1.16,5.139-1.16h0.663c0.217,0.217,0.828,0.715,1.823,1.492
						c0.994,0.771,1.709,1.16,2.154,1.16c0.44,0,0.938-0.332,1.492-0.995c0.549-0.663,0.828-1.218,0.828-1.657
						c2.652,1.543,3.979,3.314,3.979,5.305c0,1.326-0.446,2.207-1.326,2.651c-0.886,0.44-1.326,1.435-1.326,2.983v0.994
						c0,0.217,0.108,0.549,0.331,0.994c0.44-1.107,1.27-1.988,2.486-2.652c1.212-0.662,2.372-1.107,3.48-1.325
						c-0.445-0.446-0.828-1.44-1.16-2.983c-0.331-1.549-0.279-2.652,0.166-3.313c0.218-0.446,0.994-0.995,2.32-1.658
						s2.207-0.994,2.652-0.994c1.326,1.104,2.098,2.206,2.32,3.313c0.218,1.104,1.104,1.768,2.652,1.99
						c0.439-0.664,0.938-1.492,1.491-2.485c0.549-0.994,1.16-1.492,1.823-1.492h0.663c0.218,0.218,0.497,0.438,0.829,0.662
						c0.331,0.218,0.497,0.44,0.497,0.664c0.88,0.88,1.325,1.766,1.325,2.651l-3.646,6.297c-0.224,0.218-0.166,0.498,0.165,0.83
						c0.332,0.332,0.606,0.496,0.829,0.496h1.326v-0.33c1.988,0,3.589-0.39,4.807-1.162c1.212-0.775,2.429-1.655,3.646-2.65
						c1.212-0.994,2.372-1.88,3.48-2.652c1.104-0.775,2.538-1.158,4.31-1.158c0.217,0,0.663,0.496,1.325,1.49
						c0.663,0.995,1.326,2.1,1.989,3.315c0.663,1.212,1.212,2.37,1.657,3.479c0.44,1.104,0.663,1.875,0.663,2.32h0.663h0.663
						c0.218-0.223,0.331-0.663,0.331-1.326v-9.281c0.44,0,0.772,0.108,0.995,0.332c2.429,1.767,4.361,3.479,5.801,5.137
						c1.435,1.658,3.921,2.486,7.459,2.486c0.44,0,1.212-0.33,2.32-0.994c1.104-0.662,1.875-1.217,2.32-1.658
						c0,0.883,0.383,1.769,1.16,2.652c0.771,0.881,1.709,1.326,2.817,1.326c0-0.223,0.109-0.445,0.332-0.662l0.663-0.664
						c0.217-0.445,0.439-1.492,0.663-3.147c0.217-1.657,0.438-2.709,0.662-3.149c0.218,0,0.663-0.057,1.325-0.166
						c0.663-0.113,1.104-0.166,1.326-0.166c1.989,0,3.755,0.498,5.307,1.492c1.544,0.994,3.312,1.492,5.304,1.492
						c0.881,0,1.544-0.225,1.989-0.663c0.438-0.444,0.549-1.549,0.332-3.315c0.659,1.768,1.377,2.871,2.151,3.315
						c0.771,0.438,1.823,0.663,3.149,0.663c1.325,0,2.206-0.28,2.648-0.829c0.44-0.556,1.215-0.829,2.32-0.829
						c0.881,0,1.989,0.829,3.315,2.484c1.323,1.658,2.595,3.533,3.812,5.637c1.213,2.098,2.266,4.193,3.149,6.298
						c0.881,2.099,1.325,3.589,1.325,4.476c0,0.219-0.059,0.715-0.165,1.492c-0.113,0.771-0.165,1.377-0.165,1.822
						c-1.771,0.219-2.983,1.047-3.646,2.486c-0.663,1.436-1.549,2.595-2.652,3.48l-2.648-7.625c-3.315,2.43-5.915,6.02-7.79,10.773
						c-1.881,4.75-2.818,9.002-2.818,12.762c-2.212,0-3.479-0.828-3.812-2.486c-0.332-1.658-0.724-3.48-1.161-5.469h-0.331
						c-0.663,0-1.217,0.383-1.657,1.159c-0.445,0.771-0.886,1.657-1.326,2.651c-0.442,0.996-0.939,1.875-1.489,2.652
						c-0.557,0.772-1.386,1.16-2.485,1.16c-4.424,0-8.898-0.611-13.426-1.822c-4.532-1.217-8.898-1.824-13.094-1.824
						c-0.886,0-1.605,0.166-2.155,0.498c-0.554,0.332-1.273,0.498-2.154,0.498c-2.652,0-5.47-0.389-8.453-1.16
						c-2.983-0.777-5.692-1.16-8.121-1.16c-0.445,0-1.771,0.166-3.979,0.497c-2.211,0.332-3.537,0.606-3.978,0.829h-0.663h-0.331
						c-0.446-0.223-1.161-0.497-2.155-0.829c-0.994-0.332-1.605-0.497-1.823-0.497c-0.223,0-0.663,0.217-1.326,0.663
						c-0.662,0.44-1.108,0.663-1.325,0.663c-1.108,0-1.989-1.108-2.652-3.314c-0.663-2.212-1.88-3.314-3.646-3.314l-0.663,0.662
						l-0.663,0.664c-0.223,0.217-0.497,0.383-0.828,0.496c-0.332,0.109-0.721,0.383-1.16,0.83c-0.663,0.217-1.218,0.549-1.658,0.993
						h-0.331l-0.663,0.332l-0.663-0.332c-0.445-0.886-0.663-1.823-0.663-2.817s-0.554-1.713-1.657-2.154
						c-1.108,0.439-1.657,1.326-1.657,2.652s0.549,2.651,1.657,3.979c-0.445,0.217-1.108,0.497-1.989,0.829
						c-0.886,0.331-1.549,0.497-1.988,0.497l-1.326-0.663l-1.326-0.663c-0.223-0.223-0.445-0.332-0.663-0.332h-0.663l-0.994,0.332
						l-1.326,1.326c-2.435,0-4.755-0.497-6.961-1.492c-2.212-0.994-4.424-1.492-6.63-1.492c-1.108,0-1.771,0.275-1.989,0.829
						c-0.223,0.549-0.886,0.829-1.989,0.829h-0.331c-0.223-0.223-0.497-0.497-0.829-0.829c-0.331-0.332-0.497-0.61-0.497-0.829
						c-0.445,2.207-1.491,3.424-3.149,3.646c-1.657,0.218-3.148,0.332-4.475,0.332c-2.435,0-4.424-0.664-5.967-1.989
						c-1.549-1.326-2.543-3.206-2.983-5.636l0.663-1.325c0.217-0.445,0.44-0.777,0.663-0.995v-2.982c0-1.99-0.611-3.264-1.823-3.812
						c-1.218-0.555-2.652-1.16-4.31-1.823c-1.658-0.663-3.264-1.714-4.807-3.149c-1.549-1.438-2.652-4.035-3.315-7.789l0.663-1.326
						c0.218-0.444,0.44-0.776,0.663-0.995c0-0.444-0.166-0.94-0.497-1.491c-0.331-0.555-0.611-0.941-0.829-1.16
						c0.44,0,1.104-0.166,1.989-0.496c0.881-0.332,1.435-0.611,1.657-0.83l0.332-0.662l-0.332-0.662
						c-0.223-0.225-0.663-0.445-1.325-0.664c-0.663-0.223-0.995-0.444-0.995-0.662v-0.332h0.002V-80.765z M189.614-44.299
						c1.543,0,2.538-0.555,2.983-1.658h-1.326c-1.549,0-2.435,0.549-2.652,1.658H189.614z M192.598-77.781
						c-0.445,0-0.663,0.275-0.663,0.83c0,0.549,0.218,0.715,0.663,0.496C193.478-76.9,193.478-77.34,192.598-77.781z
						 M193.592-48.277h1.326v-1.326L193.592-48.277z M202.542-49.604h0.994h0.332c0.44-0.223,0.938-0.446,1.491-0.664
						c0.55-0.223,0.938-0.444,1.16-0.662c-0.445-0.887-0.942-1.771-1.491-2.652c-0.555-0.886-1.383-1.326-2.486-1.326V-49.604
						L202.542-49.604z M229.062-82.919c0-0.776-0.223-1.161-0.663-1.161c-0.663,0-0.994,0.383-0.994,1.161
						c0,0.771,0.331,1.16,0.994,1.16C228.839-81.758,229.062-82.148,229.062-82.919z M243.315-48.277
						c0-0.887-0.331-1.326-0.994-1.326c-0.445,0-0.663,0.439-0.663,1.326c0,0.879,0.218,1.326,0.663,1.326
						C242.984-46.951,243.315-47.398,243.315-48.277z M243.647-55.902h2.651c0-1.99-0.886-2.983-2.651-2.983V-55.902z
						 M248.619-48.277c0-0.887-0.445-1.326-1.325-1.326c-0.446,0-0.663,0.439-0.663,1.326c0,0.879,0.217,1.326,0.663,1.326
						C248.174-46.951,248.619-47.398,248.619-48.277z M250.939-62.367c0-0.994-0.223-1.492-0.662-1.492
						c-0.663,0-0.995,0.498-0.995,1.492c0,0.996,0.332,1.492,0.995,1.492C250.717-60.875,250.939-61.371,250.939-62.367z
						 M253.923-71.482l-1.325-1.326c-0.886,0.662-1.326,1.656-1.326,2.982C252.375-69.824,253.261-70.38,253.923-71.482z
						 M253.923-75.129c-0.445-0.223-0.662-0.057-0.662,0.497c0,0.549,0.217,0.829,0.662,0.829
						C254.804-74.249,254.804-74.689,253.923-75.129z M255.249-48.277h2.652c0.218,0,0.497-0.664,0.828-1.99
						c0.332-1.325,0.498-2.434,0.498-3.314c0-1.107-0.389-1.938-1.16-2.486c-0.777-0.553-1.715-0.828-2.818-0.828V-48.277z
						 M262.874-73.802c0.217-0.224,0.497-0.444,0.828-0.663c0.332-0.225,0.497-0.445,0.497-0.663v-0.663v-0.662
						c0-0.887-0.445-1.326-1.325-1.326V-73.802z M280.774-73.802h1.326v-2.651h-1.326V-73.802z M293.371-73.968
						c0-0.776-0.332-1.16-0.995-1.16c-0.662,0-0.994,0.384-0.994,1.16c0,0.771,0.332,1.159,0.994,1.159
						C293.039-72.809,293.371-73.197,293.371-73.968z M302.652-55.902h0.663h0.662c0.219-0.224,0.44-0.664,0.663-1.326
						c0.219-0.664,0.331-1.108,0.331-1.326c0-0.445-0.278-0.777-0.828-0.994c-0.555-0.223-1.052-0.332-1.491-0.332V-55.902
						L302.652-55.902z M304.642-47.117c0-0.777-0.223-1.16-0.663-1.16c-0.662,0-0.993,0.383-0.993,1.16
						c0,0.771,0.331,1.159,0.993,1.159C304.419-45.958,304.642-46.346,304.642-47.117z M304.973-53.582
						c-0.444,0-0.663,0.273-0.663,0.829c0,0.55,0.219,0.829,0.663,0.829C306.076-52.369,306.076-52.919,304.973-53.582z
						 M315.746-71.316c0.109-0.555,0.166-1.051,0.166-1.492c0-1.107-0.331-2.27-0.994-3.479c-0.663-1.218-1.88-1.822-3.646-1.822
						c0,1.324,0.383,2.76,1.157,4.309c0.771,1.543,1.823,2.761,3.149,3.646C315.581-70.38,315.633-70.768,315.746-71.316z
						 M322.542-66.179c0-0.662-0.223-1.106-0.663-1.325c-0.445-0.225-0.663,0.219-0.663,1.325c0,1.104,0.218,1.544,0.663,1.325
						C322.319-65.076,322.542-65.515,322.542-66.179z"/>
					<path fill="#EA118D" d="M1.326-80.765v-0.993c0.44-1.326,1.16-3.148,2.155-5.471c0.994-2.319,1.6-3.479,1.823-3.479h1.657
						c0,1.104,0.383,2.265,1.16,3.479c0.771,1.211,1.709,1.822,2.817,1.822h0.332c0.217-0.223,0.715-0.662,1.491-1.326
						c0.771-0.662,1.27-1.106,1.492-1.326h0.331h0.663c0.44,0.219,0.938,0.664,1.491,1.326c0.55,0.664,0.938,1.104,1.161,1.326
						c0.439-0.886,1.6-1.822,3.48-2.817c1.875-0.993,3.258-1.384,4.144-1.159c0.44,0.218,1.932,0.829,4.475,1.822
						c2.538,0.994,4.03,1.709,4.476,2.154l5.304-5.304c0.663-0.663,1.435-0.166,2.32,1.492c0.881,1.657,1.544,2.485,1.989,2.485
						h0.663c1.988-1.107,3.48-2.045,4.475-2.816c0.995-0.777,2.704-1.16,5.139-1.16h0.663c0.217,0.217,0.828,0.715,1.823,1.492
						c0.994,0.771,1.709,1.16,2.154,1.16c0.44,0,0.938-0.332,1.492-0.995c0.549-0.663,0.828-1.218,0.828-1.657
						c2.652,1.543,3.979,3.314,3.979,5.305c0,1.326-0.446,2.207-1.326,2.651c-0.886,0.44-1.326,1.435-1.326,2.983v0.994
						c0,0.217,0.108,0.549,0.331,0.994c0.44-1.107,1.27-1.988,2.486-2.652c1.212-0.662,2.372-1.107,3.48-1.325
						c-0.445-0.446-0.828-1.44-1.16-2.983c-0.331-1.549-0.279-2.652,0.166-3.313c0.218-0.446,0.994-0.995,2.32-1.658
						c1.326-0.663,2.207-0.994,2.652-0.994c1.326,1.104,2.098,2.206,2.32,3.313c0.218,1.104,1.104,1.768,2.652,1.99
						c0.439-0.664,0.938-1.492,1.491-2.485c0.549-0.994,1.16-1.492,1.823-1.492h0.663c0.218,0.218,0.497,0.438,0.829,0.662
						c0.331,0.218,0.497,0.44,0.497,0.664c0.88,0.88,1.325,1.766,1.325,2.651l-3.646,6.297c-0.224,0.218-0.166,0.498,0.165,0.83
						c0.332,0.332,0.606,0.496,0.829,0.496H83.2v-0.33c1.988,0,3.589-0.39,4.807-1.162c1.212-0.775,2.429-1.655,3.646-2.65
						c1.212-0.994,2.372-1.88,3.48-2.652c1.104-0.775,2.538-1.158,4.31-1.158c0.217,0,0.663,0.496,1.325,1.49
						c0.663,0.995,1.326,2.1,1.989,3.315c0.663,1.212,1.212,2.37,1.657,3.479c0.44,1.104,0.663,1.875,0.663,2.32h0.663h0.663
						c0.218-0.223,0.331-0.663,0.331-1.326v-9.281c0.44,0,0.772,0.108,0.995,0.332c2.429,1.767,4.361,3.479,5.801,5.137
						c1.435,1.658,3.921,2.486,7.459,2.486c0.44,0,1.212-0.33,2.32-0.994c1.104-0.662,1.875-1.217,2.32-1.658
						c0,0.883,0.383,1.769,1.16,2.652c0.771,0.881,1.709,1.326,2.817,1.326c0-0.223,0.109-0.445,0.332-0.662l0.663-0.664
						c0.217-0.445,0.44-1.492,0.663-3.147c0.217-1.657,0.439-2.709,0.662-3.149c0.218,0,0.663-0.057,1.326-0.166
						c0.663-0.113,1.104-0.166,1.326-0.166c1.989,0,3.755,0.498,5.304,1.492c1.544,0.994,3.315,1.492,5.304,1.492
						c0.881,0,1.544-0.225,1.989-0.663c0.44-0.444,0.549-1.549,0.332-3.315c0.662,1.768,1.377,2.871,2.154,3.315
						c0.771,0.438,1.823,0.663,3.149,0.663c1.325,0,2.206-0.28,2.651-0.829c0.44-0.556,1.212-0.829,2.32-0.829
						c0.881,0,1.989,0.829,3.315,2.484c1.326,1.658,2.595,3.533,3.812,5.637c1.213,2.098,2.264,4.193,3.149,6.298
						c0.881,2.099,1.326,3.589,1.326,4.476c0,0.219-0.057,0.715-0.166,1.492c-0.113,0.771-0.165,1.377-0.165,1.822
						c-1.771,0.219-2.983,1.047-3.646,2.486c-0.663,1.436-1.549,2.595-2.652,3.48l-2.651-7.625c-3.315,2.43-5.915,6.02-7.79,10.773
						c-1.881,4.75-2.818,9.002-2.818,12.762c-2.212,0-3.48-0.828-3.812-2.486s-0.721-3.48-1.161-5.469h-0.331
						c-0.663,0-1.217,0.383-1.657,1.159c-0.445,0.771-0.886,1.657-1.326,2.651c-0.445,0.996-0.942,1.875-1.492,2.652
						c-0.554,0.772-1.383,1.16-2.485,1.16c-4.424,0-8.898-0.611-13.426-1.822c-4.532-1.217-8.898-1.824-13.094-1.824
						c-0.886,0-1.605,0.166-2.155,0.498c-0.554,0.332-1.273,0.498-2.154,0.498c-2.652,0-5.47-0.389-8.453-1.16
						c-2.983-0.777-5.692-1.16-8.121-1.16c-0.445,0-1.771,0.166-3.979,0.497c-2.211,0.332-3.537,0.606-3.978,0.829h-0.663h-0.331
						c-0.446-0.223-1.161-0.497-2.155-0.829c-0.994-0.332-1.605-0.497-1.823-0.497c-0.223,0-0.663,0.217-1.326,0.663
						c-0.662,0.44-1.108,0.663-1.325,0.663c-1.108,0-1.989-1.108-2.652-3.314c-0.663-2.212-1.88-3.314-3.646-3.314l-0.663,0.662
						l-0.663,0.664c-0.223,0.217-0.497,0.383-0.828,0.496c-0.332,0.109-0.721,0.383-1.16,0.83c-0.663,0.217-1.218,0.549-1.658,0.993
						h-0.331l-0.663,0.332l-0.663-0.332c-0.445-0.886-0.663-1.823-0.663-2.817s-0.554-1.713-1.657-2.154
						c-1.108,0.439-1.657,1.326-1.657,2.652s0.549,2.651,1.657,3.979c-0.445,0.217-1.108,0.497-1.989,0.829
						c-0.886,0.331-1.549,0.497-1.988,0.497l-1.326-0.663l-1.326-0.663c-0.223-0.223-0.445-0.332-0.663-0.332H51.05l-0.994,0.332
						l-1.326,1.326c-2.435,0-4.755-0.497-6.961-1.492c-2.212-0.994-4.424-1.492-6.63-1.492c-1.108,0-1.771,0.275-1.989,0.829
						c-0.223,0.549-0.886,0.829-1.989,0.829H30.83c-0.223-0.223-0.497-0.497-0.829-0.829c-0.331-0.332-0.497-0.61-0.497-0.829
						c-0.445,2.207-1.491,3.424-3.149,3.646c-1.657,0.218-3.148,0.332-4.475,0.332c-2.435,0-4.424-0.664-5.967-1.989
						c-1.549-1.326-2.543-3.206-2.983-5.636l0.663-1.325c0.217-0.445,0.44-0.777,0.663-0.995v-2.982c0-1.99-0.611-3.264-1.823-3.812
						c-1.218-0.555-2.652-1.16-4.31-1.823s-3.264-1.714-4.807-3.149c-1.549-1.438-2.652-4.035-3.315-7.789l0.663-1.326
						c0.218-0.444,0.44-0.776,0.663-0.995c0-0.444-0.166-0.94-0.497-1.491c-0.331-0.555-0.611-0.941-0.829-1.16
						c0.44,0,1.104-0.166,1.989-0.496c0.881-0.332,1.435-0.611,1.657-0.83l0.332-0.662l-0.332-0.662
						c-0.223-0.225-0.663-0.445-1.325-0.664c-0.663-0.223-0.995-0.444-0.995-0.662L1.326-80.765L1.326-80.765z M20.222-44.299
						c1.543,0,2.538-0.555,2.983-1.658h-1.326c-1.549,0-2.435,0.549-2.652,1.658H20.222z M23.205-77.781
						c-0.445,0-0.663,0.275-0.663,0.83c0,0.549,0.218,0.715,0.663,0.496C24.085-76.9,24.085-77.34,23.205-77.781z M24.199-48.277
						h1.326v-1.326L24.199-48.277z M33.149-49.604h0.994h0.332c0.44-0.223,0.938-0.446,1.491-0.664
						c0.55-0.223,0.938-0.444,1.16-0.662c-0.445-0.887-0.942-1.771-1.491-2.652c-0.555-0.886-1.383-1.326-2.486-1.326V-49.604z
						 M59.669-82.919c0-0.776-0.223-1.161-0.663-1.161c-0.663,0-0.994,0.383-0.994,1.161c0,0.771,0.331,1.16,0.994,1.16
						C59.446-81.758,59.669-82.148,59.669-82.919z M73.923-48.277c0-0.887-0.331-1.326-0.994-1.326
						c-0.445,0-0.663,0.439-0.663,1.326c0,0.879,0.218,1.326,0.663,1.326C73.592-46.951,73.923-47.398,73.923-48.277z
						 M74.255-55.902h2.651c0-1.99-0.886-2.983-2.651-2.983V-55.902z M79.227-48.277c0-0.887-0.445-1.326-1.325-1.326
						c-0.446,0-0.663,0.439-0.663,1.326c0,0.879,0.217,1.326,0.663,1.326C78.781-46.951,79.227-47.398,79.227-48.277z
						 M81.547-62.367c0-0.994-0.223-1.492-0.662-1.492c-0.663,0-0.995,0.498-0.995,1.492c0,0.996,0.332,1.492,0.995,1.492
						C81.324-60.875,81.547-61.371,81.547-62.367z M84.53-71.482l-1.325-1.326c-0.886,0.662-1.326,1.656-1.326,2.982
						C82.982-69.824,83.868-70.38,84.53-71.482z M84.53-75.129c-0.445-0.223-0.662-0.057-0.662,0.497
						c0,0.549,0.217,0.829,0.662,0.829C85.411-74.249,85.411-74.689,84.53-75.129z M85.856-48.277h2.652
						c0.218,0,0.497-0.664,0.828-1.99c0.332-1.325,0.498-2.434,0.498-3.314c0-1.107-0.389-1.938-1.16-2.486
						c-0.777-0.553-1.715-0.828-2.818-0.828V-48.277z M93.481-73.802c0.217-0.224,0.497-0.444,0.828-0.663
						c0.332-0.225,0.497-0.445,0.497-0.663v-0.663v-0.662c0-0.887-0.445-1.326-1.325-1.326V-73.802z M111.382-73.802h1.326v-2.651
						h-1.326V-73.802z M123.979-73.968c0-0.776-0.332-1.16-0.995-1.16c-0.662,0-0.994,0.384-0.994,1.16
						c0,0.771,0.332,1.159,0.994,1.159S123.979-73.197,123.979-73.968z M133.26-55.902h0.663h0.663
						c0.218-0.224,0.44-0.664,0.663-1.326c0.218-0.664,0.331-1.108,0.331-1.326c0-0.445-0.279-0.777-0.828-0.994
						c-0.555-0.223-1.052-0.332-1.492-0.332V-55.902L133.26-55.902z M135.249-47.117c0-0.777-0.223-1.16-0.663-1.16
						c-0.663,0-0.994,0.383-0.994,1.16c0,0.771,0.331,1.159,0.994,1.159C135.026-45.958,135.249-46.346,135.249-47.117z
						 M135.58-53.582c-0.445,0-0.663,0.273-0.663,0.829c0,0.55,0.218,0.829,0.663,0.829
						C136.684-52.369,136.684-52.919,135.58-53.582z M146.354-71.316c0.109-0.555,0.166-1.051,0.166-1.492
						c0-1.107-0.331-2.27-0.994-3.479c-0.663-1.218-1.88-1.822-3.646-1.822c0,1.324,0.383,2.76,1.16,4.309
						c0.771,1.543,1.823,2.761,3.149,3.646C146.188-70.38,146.24-70.768,146.354-71.316z M153.149-66.179
						c0-0.662-0.223-1.106-0.663-1.325c-0.445-0.225-0.663,0.219-0.663,1.325c0,1.104,0.218,1.544,0.663,1.325
						C152.927-65.076,153.149-65.515,153.149-66.179z"/>
					<path fill="#EA118D" d="M86.022-41.768v-0.993c0.44-1.326,1.16-3.149,2.155-5.47c0.994-2.32,1.6-3.48,1.823-3.48h1.657
						c0,1.104,0.383,2.264,1.16,3.48c0.771,1.211,1.709,1.822,2.817,1.822h0.332c0.217-0.223,0.715-0.662,1.491-1.326
						c0.771-0.662,1.27-1.107,1.492-1.326h0.331h0.663c0.44,0.219,0.938,0.664,1.491,1.326c0.55,0.664,0.938,1.104,1.161,1.326
						c0.439-0.886,1.6-1.822,3.48-2.818c1.875-0.993,3.258-1.383,4.144-1.159c0.44,0.218,1.932,0.829,4.475,1.823
						c2.538,0.994,4.03,1.709,4.476,2.154l5.304-5.304c0.663-0.663,1.435-0.166,2.32,1.491c0.881,1.656,1.544,2.486,1.989,2.486
						h0.663c1.988-1.108,3.48-2.047,4.475-2.817c0.995-0.776,2.704-1.16,5.139-1.16h0.663c0.217,0.218,0.828,0.714,1.823,1.491
						c0.994,0.771,1.709,1.16,2.154,1.16c0.44,0,0.938-0.332,1.492-0.994c0.549-0.663,0.828-1.219,0.828-1.657
						c2.652,1.543,3.979,3.313,3.979,5.304c0,1.325-0.446,2.207-1.326,2.651c-0.886,0.44-1.326,1.435-1.326,2.983v0.994
						c0,0.217,0.108,0.549,0.331,0.994c0.44-1.107,1.27-1.988,2.486-2.652c1.212-0.662,2.372-1.107,3.48-1.324
						c-0.445-0.446-0.828-1.439-1.16-2.982c-0.331-1.55-0.279-2.652,0.166-3.316c0.218-0.444,0.994-0.993,2.32-1.656
						c1.326-0.663,2.207-0.994,2.652-0.994c1.326,1.104,2.098,2.206,2.32,3.314c0.218,1.104,1.104,1.767,2.652,1.988
						c0.439-0.662,0.938-1.492,1.491-2.486c0.549-0.993,1.16-1.491,1.823-1.491h0.663c0.218,0.218,0.497,0.44,0.829,0.663
						c0.331,0.218,0.497,0.439,0.497,0.662c0.88,0.882,1.325,1.768,1.325,2.652l-3.646,6.299c-0.224,0.217-0.166,0.496,0.165,0.828
						c0.332,0.332,0.606,0.498,0.829,0.498h1.326v-0.332c1.988,0,3.589-0.389,4.807-1.16c1.212-0.776,2.429-1.658,3.646-2.651
						c1.212-0.994,2.372-1.88,3.48-2.651c1.104-0.777,2.538-1.16,4.31-1.16c0.217,0,0.663,0.496,1.325,1.491
						c0.663,0.994,1.326,2.099,1.989,3.313c0.663,1.213,1.212,2.373,1.657,3.48c0.44,1.104,0.663,1.875,0.663,2.32h0.663h0.663
						c0.218-0.223,0.331-0.663,0.331-1.326v-9.281c0.44,0,0.772,0.108,0.995,0.332c2.429,1.766,4.361,3.479,5.801,5.137
						c1.435,1.658,3.921,2.486,7.459,2.486c0.44,0,1.212-0.33,2.32-0.994c1.104-0.662,1.875-1.218,2.32-1.658
						c0,0.881,0.383,1.768,1.16,2.652c0.771,0.881,1.709,1.326,2.817,1.326c0-0.223,0.109-0.445,0.332-0.663l0.663-0.663
						c0.217-0.445,0.44-1.492,0.663-3.148c0.217-1.657,0.439-2.709,0.662-3.149c0.218,0,0.663-0.058,1.326-0.165
						c0.663-0.113,1.104-0.166,1.326-0.166c1.989,0,3.755,0.497,5.304,1.492c1.544,0.994,3.315,1.49,5.304,1.49
						c0.881,0,1.544-0.223,1.989-0.662c0.44-0.445,0.549-1.549,0.332-3.314c0.662,1.766,1.377,2.869,2.154,3.314
						c0.771,0.439,1.823,0.662,3.149,0.662c1.325,0,2.206-0.278,2.651-0.828c0.44-0.555,1.212-0.828,2.32-0.828
						c0.881,0,1.989,0.828,3.315,2.486c1.326,1.656,2.595,3.531,3.812,5.635c1.213,2.098,2.264,4.195,3.149,6.299
						c0.881,2.098,1.326,3.59,1.326,4.475c0,0.219-0.057,0.715-0.166,1.492c-0.113,0.771-0.165,1.379-0.165,1.823
						c-1.771,0.218-2.983,1.046-3.646,2.485c-0.663,1.436-1.549,2.596-2.652,3.48l-2.651-7.625c-3.315,2.43-5.915,6.02-7.79,10.773
						C235.128-8.013,234.191-3.76,234.191,0c-2.212,0-3.48-0.828-3.812-2.484c-0.332-1.658-0.721-3.481-1.161-5.471h-0.331
						c-0.663,0-1.217,0.383-1.657,1.16c-0.445,0.771-0.886,1.657-1.326,2.65c-0.445,0.996-0.942,1.875-1.492,2.652
						c-0.554,0.771-1.383,1.16-2.485,1.16c-4.424,0-8.898-0.611-13.426-1.822c-4.532-1.218-8.898-1.824-13.094-1.824
						c-0.886,0-1.605,0.166-2.155,0.498c-0.554,0.332-1.273,0.496-2.154,0.496c-2.652,0-5.47-0.388-8.453-1.16
						c-2.983-0.775-5.692-1.159-8.121-1.159c-0.445,0-1.771,0.166-3.979,0.497c-2.211,0.332-3.537,0.605-3.978,0.828h-0.663h-0.331
						c-0.446-0.223-1.161-0.496-2.155-0.828c-0.994-0.331-1.605-0.497-1.823-0.497c-0.223,0-0.663,0.218-1.326,0.663
						c-0.662,0.439-1.108,0.662-1.325,0.662c-1.108,0-1.989-1.107-2.652-3.313c-0.663-2.212-1.88-3.315-3.646-3.315l-0.663,0.664
						l-0.663,0.662c-0.223,0.219-0.497,0.383-0.828,0.498c-0.332,0.107-0.721,0.383-1.16,0.828
						c-0.663,0.217-1.218,0.549-1.658,0.994h-0.331L146.68-6.63l-0.663-0.331c-0.445-0.887-0.663-1.822-0.663-2.816
						c0-0.996-0.554-1.715-1.657-2.156c-1.108,0.441-1.657,1.326-1.657,2.652s0.549,2.651,1.657,3.979
						c-0.445,0.218-1.108,0.497-1.989,0.829c-0.886,0.33-1.549,0.496-1.988,0.496l-1.326-0.662l-1.326-0.663
						c-0.223-0.224-0.445-0.331-0.663-0.331h-0.663l-0.994,0.331l-1.326,1.325c-2.435,0-4.755-0.496-6.961-1.491
						c-2.212-0.994-4.424-1.491-6.63-1.491c-1.108,0-1.771,0.273-1.989,0.829c-0.223,0.549-0.886,0.828-1.989,0.828h-0.331
						c-0.223-0.224-0.497-0.497-0.829-0.828c-0.331-0.332-0.497-0.61-0.497-0.829c-0.445,2.206-1.491,3.424-3.149,3.646
						c-1.657,0.218-3.148,0.33-4.475,0.33c-2.435,0-4.424-0.662-5.967-1.988c-1.549-1.325-2.543-3.205-2.983-5.635l0.663-1.326
						c0.217-0.445,0.44-0.776,0.663-0.994v-2.982c0-1.99-0.611-3.265-1.823-3.812c-1.218-0.555-2.652-1.16-4.31-1.823
						c-1.658-0.663-3.264-1.714-4.807-3.147c-1.549-1.44-2.652-4.035-3.315-7.791l0.663-1.326c0.218-0.444,0.44-0.776,0.663-0.994
						c0-0.445-0.166-0.942-0.497-1.491c-0.331-0.556-0.611-0.942-0.829-1.16c0.44,0,1.104-0.166,1.989-0.497
						c0.881-0.332,1.435-0.611,1.657-0.828l0.332-0.664l-0.332-0.662c-0.223-0.224-0.663-0.445-1.325-0.664
						c-0.663-0.223-0.995-0.444-0.995-0.662v-0.334L86.022-41.768L86.022-41.768z M104.918-5.302c1.543,0,2.538-0.554,2.983-1.657
						h-1.326c-1.549,0-2.435,0.549-2.652,1.657H104.918z M107.901-38.783c-0.445,0-0.663,0.273-0.663,0.828
						c0,0.549,0.218,0.715,0.663,0.497C108.781-37.902,108.781-38.342,107.901-38.783z M108.896-9.281h1.326v-1.326L108.896-9.281z
						 M117.846-10.607h0.994h0.332c0.44-0.223,0.938-0.444,1.491-0.662c0.55-0.223,0.938-0.445,1.16-0.664
						c-0.445-0.885-0.942-1.77-1.491-2.65c-0.555-0.886-1.383-1.326-2.486-1.326V-10.607z M144.365-43.922
						c0-0.777-0.223-1.161-0.663-1.161c-0.663,0-0.994,0.384-0.994,1.161c0,0.771,0.331,1.16,0.994,1.16
						C144.143-42.76,144.365-43.15,144.365-43.922z M158.619-9.281c0-0.886-0.331-1.326-0.994-1.326
						c-0.445,0-0.663,0.44-0.663,1.326c0,0.881,0.218,1.326,0.663,1.326C158.288-7.955,158.619-8.4,158.619-9.281z M158.951-16.904
						h2.651c0-1.99-0.886-2.983-2.651-2.983V-16.904z M163.923-9.281c0-0.886-0.445-1.326-1.325-1.326
						c-0.446,0-0.663,0.44-0.663,1.326c0,0.881,0.217,1.326,0.663,1.326C163.478-7.955,163.923-8.4,163.923-9.281z M166.243-23.369
						c0-0.994-0.223-1.492-0.662-1.492c-0.663,0-0.995,0.498-0.995,1.492s0.332,1.491,0.995,1.491
						C166.021-21.878,166.243-22.375,166.243-23.369z M169.227-32.484l-1.325-1.326c-0.886,0.662-1.326,1.656-1.326,2.982
						C167.679-30.828,168.564-31.382,169.227-32.484z M169.227-36.132c-0.445-0.224-0.662-0.058-0.662,0.497
						c0,0.549,0.217,0.828,0.662,0.828C170.107-35.252,170.107-35.691,169.227-36.132z M170.553-9.281h2.652
						c0.218,0,0.497-0.662,0.828-1.988c0.332-1.326,0.498-2.436,0.498-3.314c0-1.107-0.389-1.938-1.16-2.486
						c-0.777-0.555-1.715-0.828-2.818-0.828V-9.281z M178.178-34.806c0.217-0.224,0.497-0.445,0.828-0.663
						c0.332-0.223,0.497-0.445,0.497-0.662v-0.663v-0.663c0-0.886-0.445-1.326-1.325-1.326V-34.806z M196.078-34.806h1.326v-2.651
						h-1.326V-34.806z M208.675-34.971c0-0.777-0.332-1.16-0.995-1.16c-0.662,0-0.994,0.383-0.994,1.16
						c0,0.771,0.332,1.16,0.994,1.16C208.343-33.811,208.675-34.199,208.675-34.971z M217.956-16.904h0.663h0.663
						c0.218-0.225,0.44-0.664,0.663-1.326c0.218-0.664,0.331-1.108,0.331-1.326c0-0.445-0.279-0.777-0.828-0.994
						c-0.555-0.223-1.052-0.332-1.492-0.332V-16.904L217.956-16.904z M219.945-8.121c0-0.777-0.223-1.16-0.663-1.16
						c-0.663,0-0.994,0.383-0.994,1.16c0,0.771,0.331,1.16,0.994,1.16C219.723-6.961,219.945-7.35,219.945-8.121z M220.276-14.585
						c-0.445,0-0.663,0.274-0.663,0.828c0,0.549,0.218,0.829,0.663,0.829C221.38-13.373,221.38-13.922,220.276-14.585z
						 M231.05-32.318c0.109-0.555,0.166-1.051,0.166-1.492c0-1.107-0.331-2.268-0.994-3.479c-0.663-1.219-1.88-1.824-3.646-1.824
						c0,1.326,0.383,2.762,1.16,4.31c0.771,1.544,1.823,2.761,3.149,3.646C230.885-31.382,230.937-31.771,231.05-32.318z
						 M237.846-27.181c0-0.663-0.223-1.108-0.663-1.326c-0.445-0.224-0.663,0.218-0.663,1.326c0,1.103,0.218,1.543,0.663,1.325
						C237.623-26.078,237.846-26.518,237.846-27.181z"/>
				</g>
			</g>
		</g>
	</g>
</pattern>
<rect x="-104.833" y="-148.819" fill="#EA118D" width="419.516" height="595.277"/>
<rect x="-105.018" y="361.417" fill="#FFFFFF" width="419.528" height="85.041"/>
<g>
	<g>
		<g>
			<g>
				<g>
					<g>
						<g>
							<path fill="#E5AB8D" d="M-74.044,35.913c-0.528,8.1-1.192,16.105-1.192,24.225c0,4.85-0.46,10.361-1.952,15.01
								c-1.241,3.877-4.657,6.566-6.14,10.355c-1.228,3.133,2.498,8.887,4.502,10.939c1.479,1.516,0.561-4.693,0.561-5.15
								c-0.004-2.178,1.35-4.418,2.226-6.365c0.834,1.061,0.116,6.082,0.71,5.949c2.05-0.451,1.84-7.43,1.964-8.785
								c0.372-3.998,1.65-7.689,2.968-11.457c2.698-7.699,4.124-16.176,4.524-24.314c0.388-7.848,1.386-15.654,2.3-23.459
								c0.704,6.148,2.767,11.682,4.178,17.641c1.704,7.199,0.03,13.795-2.75,20.461c-3.14,7.525-6.075,12.658-6.378,20.879
								c-0.073,2.035,0.049,16.719,1.522,16.719c3.566,0,7.132,0,10.698,0c2.93,0,5.861,0,8.792,0
								c0.216,0,0.092-14.361,0.067-16.289c0.328,1.406,2.796,1.404,3.126,0c-0.062,5.426-0.067,10.861-0.006,16.289
								c1.074,0.873,6.466,0,7.814,0c3.646,0,7.292,0,10.939,0c2.845,0,2.408-12.641,2.364-15.414
								c-0.128-8.219-2.516-13.014-5.664-20.414c-2.89-6.789-5.132-13.342-3.794-20.811c1.16-6.465,3.716-12.447,4.472-19.059
								c0.874,7.453,2.048,14.986,2.263,22.492c0.222,7.814,1.622,15.895,3.918,23.355c1.38,4.471,3.174,8.682,3.611,13.383
								c0.126,1.355-0.086,8.334,1.965,8.785c0.594,0.133-0.124-4.887,0.71-5.949c1.088,2.42,2.34,4.717,2.172,7.424
								c-0.068,1.078-0.792,3.096-0.477,4.129c0.462,1.525,2.084-1.701,2.108-1.701c1.494,0,3.658-6.639,3.74-7.953
								c0.277-4.484-5.849-8.861-6.834-13.33c-2.389-10.832-1.713-22.43-2.435-33.486c-0.216-3.299,0.486-23.061-2.036-23.061
								c-11.496,0-22.994,0-34.487,0c-5.582,0-11.16,0-16.742,0c-2.156,0-2.139-0.33-2.656,2.084
								C-74.558,24.552-74.479,30.318-74.044,35.913C-74.411,41.544-74.716,27.238-74.044,35.913z"/>
						</g>
					</g>
				</g>
			</g>
		</g>
		<g>
			<g>
				<g>
					<g>
						<path fill="#EA118D" d="M-29.712,68.165c-0.068,0.6-0.204,1.207-0.174,1.805c0.025,0.465-0.11,0.703-0.574,0.834
							c0.504,1.324-0.306,2.209-1.008,3.129c-0.11,0.146-0.269,0.289-0.3,0.451c-0.196,0.984-0.849,1.549-1.69,1.98
							c-1.076,0.553-2.096,1.242-3.388,1.164c-0.66-0.041-1.345,0.07-1.979-0.062c-1.124-0.232-2.107-0.793-2.892-1.654
							c-0.29-0.318-0.542-0.67-0.92-1.141c-0.116,0.342-0.214,0.545-0.25,0.758c-0.126,0.76-0.475,1.338-1.2,1.686
							c-0.172,0.08-0.332,0.314-0.376,0.504c-0.32,1.336-0.614,2.678-0.912,4.018c-0.018,0.08-0.034,0.16-0.054,0.277
							c-0.91,0-1.812,0-2.748,0c-0.458-1.379-0.99-2.754-1.362-4.168c-0.386-1.48-0.062-2.969,0.41-4.381
							c0.14-0.424,0.666-0.75,1.063-1.057c0.925-0.709,1.652-1.686,2.851-2.035c0.878-0.254,1.67-0.158,2.485,0.236
							c0.568,0.277,1.188,0.453,1.797,0.645c0.813,0.262,1.646,0.455,2.445,0.744c0.511,0.188,0.956,0.551,1.464,0.727
							c0.282,0.094,0.654,0.004,0.963-0.08c0.27-0.076,0.514-0.25,0.756-0.402c0.102-0.064,0.193-0.174,0.252-0.285
							c0.184-0.355,0.348-0.729,0.565-1.191c-0.246-0.33-0.319-0.803,0.061-1.33c0.086-0.121,0.014-0.436-0.082-0.604
							c-0.248-0.418-0.221-0.791-0.036-1.23c0.282-0.662-0.216-1.18-0.424-1.744c-0.046-0.131-0.192-0.238-0.2-0.363
							c-0.064-0.941-0.054-1.891-0.18-2.826c-0.066-0.506-0.072-0.936,0.17-1.395c0.084-0.166,0.014-0.445-0.044-0.656
							c-0.124-0.412-0.269-0.82-0.446-1.213c-0.122-0.27-0.274-0.572-0.496-0.746c-0.366-0.283-0.536-0.602-0.508-1.057
							c0.018-0.311,0.014-0.623,0-0.936c-0.042-0.896-0.7-1.318-1.552-0.986c-0.578,0.221-1.143,0.486-1.729,0.682
							c-0.28,0.092-0.602,0.074-0.914,0.105c-0.37,1.326-2.298,1.1-3.025,0.273c-0.71,0.16-1.33,0.342-1.96,0.416
							c-0.242,0.031-0.62-0.129-0.75-0.33c-0.25-0.381-0.555-0.332-0.862-0.238c-0.762,0.232-1.486,0.322-2.187-0.193
							c-0.122-0.09-0.407-0.047-0.571,0.027c-0.946,0.443-1.479,0.34-2.225-0.385c-0.191-0.186-0.562-0.393-0.768-0.328
							c-0.714,0.223-1.132-0.164-1.584-0.576c-0.128-0.119-0.41-0.281-0.464-0.238c-0.185,0.156-0.349,0.377-0.42,0.602
							c-0.057,0.18,0.071,0.406,0.067,0.609c-0.006,0.398,0.057,0.809-0.443,1.053c-0.164,0.08-0.219,0.453-0.261,0.701
							c-0.042,0.258,0,0.531-0.016,0.795c-0.026,0.41-0.044,0.824-0.118,1.227c-0.105,0.596-0.264,1.186-0.38,1.781
							c-0.038,0.189-0.098,0.436-0.012,0.57c0.401,0.637,0.342,1.287,0.16,1.961c-0.038,0.143-0.066,0.336-0.002,0.453
							c0.392,0.699,0.317,1.428,0.205,2.168c-0.048,0.32-0.021,0.52,0.33,0.771c0.555,0.4,0.912,1.02,0.885,1.797
							c-0.017,0.447,0.098,0.908,0.168,1.357c0.193,1.246-0.341,3.484-1.876,4.016c-0.687,0.24-0.904,0.832-0.99,1.385
							c-0.108,0.678-0.012,1.395,0.065,2.086c0.026,0.23,0.236,0.51,0.442,0.635c0.73,0.449,1.496,0.844,2.226,1.34
							c-0.846,0.32-1.493-0.289-2.14-0.625c-1.874-0.967-1.147-2.617-0.958-4.164c-0.128,0.029-0.258,0.057-0.388,0.084
							c-0.557,0.119-1.048,0.176-1.444-0.428c-0.775-1.186-1.226-2.414-0.892-3.846c0.036-0.145-0.059-0.355-0.152-0.494
							c-0.58-0.852-0.506-1.799-0.41-2.748c0.013-0.123,0.146-0.236,0.244-0.393c-0.22-0.234-0.438-0.469-0.656-0.703
							c0-1.201,0-2.402,0-3.602c0.288-0.76,0.578-1.516,0.864-2.273c0.194-0.516,0.438-1.016,0.556-1.545
							c0.108-0.465,0.221-0.854,0.69-1.082c0.088-0.043,0.072-0.301,0.1-0.461c0.198-1.082-0.012-2.143-0.115-3.217
							c-0.049-0.512-0.004-1.041-0.108-1.543c-0.162-0.787-0.246-1.539,0.188-2.268c0.313-0.523,0.623-1.049,0.918-1.584
							c0.327-0.584,2.598-1.631,3.266-1.496c0.12,0.027,0.244,0.047,0.366,0.072c0.562,0.117,1.12,0.309,1.686,0.332
							c0.59,0.029,0.998,0.303,1.267,0.75c0.191,0.318,0.321,0.387,0.708,0.35c0.346-0.031,0.863,0.131,1.054,0.391
							c0.39,0.533,0.79,0.906,1.554,0.762c-0.124,0.273-0.196,0.426-0.28,0.611c1.086-0.213,2.139-1.279,2.973-0.127
							c0.632-0.012,1.096-0.023,1.56-0.031c0.28-0.004,0.604,0.094,0.832-0.014c0.542-0.25,1.034-0.318,1.594-0.057
							c1.028,0.473,2.049,0.51,3.011-0.201c0.266-0.197,0.529-0.396,0.796-0.592c0.876-0.658,0.876-0.658,1.804-0.104
							c0.142-0.664,0.256-1.305,0.414-1.932c0.346-1.387,1.238-2.309,2.516-2.893c0.332,0,0.662,0,0.992,0
							c0.096,0.107,0.18,0.221,0.284,0.318c0.62,0.58,0.956,1.203,0.778,2.129c-0.148,0.775-0.736,1.529-0.274,2.377
							c0.008,0.018-0.052,0.064-0.063,0.102c-0.08,0.275-0.192,0.553-0.221,0.834c-0.069,0.688-0.113,1.383-0.14,2.07
							c-0.01,0.238,0.002,0.506,0.108,0.707c0.285,0.549,0.46,1.201,0.069,1.631c-0.39,0.43-0.286,0.75-0.166,1.154
							c0.124,0.436,0.284,0.861,0.38,1.307c0.036,0.154-0.1,0.338-0.111,0.514c-0.03,0.502-0.2,1.078-0.019,1.488
							c0.246,0.539,0.874,0.887,0.876,1.594c0,0.062,0.124,0.146,0.212,0.189c1.04,0.52,1.234,1.004,0.914,2.098
							c-0.074,0.24-0.006,0.535,0.042,0.793c0.061,0.346,0.21,0.678,0.238,1.023c0.016,0.234-0.05,0.523-0.186,0.711
							c-0.524,0.736-0.414,1.34,0.384,1.826C-29.712,67.999-29.712,68.081-29.712,68.165z"/>
					</g>
					<polygon fill="#E5AB8D" points="-61.943,55.198 -55.831,58.376 -57.214,58.747 -54.447,60.286 -55.924,60.554 -52.848,63.058 
						-59.333,59.72 -57.999,59.474 -60.634,58.101 -58.932,57.798 					"/>
					<polygon fill="#E5AB8D" points="-30.098,53.486 -35.888,57.759 -34.401,57.915 -37.004,59.954 -35.436,59.993 -38.208,63.072 
						-32.06,58.579 -33.474,58.538 -30.974,56.7 -32.781,56.661 					"/>
				</g>
			</g>
		</g>
	</g>
	<text transform="matrix(1 0 0 1 -36.5122 -93.0398)" fill="#FFFFFF" font-family="'TrebuchetMS'" font-size="22.8">Prikkelbaar Darm Syndroom</text>
	<g>
		<polygon fill="#414042" points="293.438,338.716 24.143,338.716 -83.575,214.845 24.143,53.269 -83.575,-70.606 185.715,-70.606 
			293.438,53.269 185.715,214.845 		"/>
		<polygon fill="none" points="277.277,330.638 29.53,330.638 -72.802,214.845 34.916,53.269 -67.417,-62.895 180.332,-62.895 
			282.664,53.269 174.949,214.845 		"/>
		<text transform="matrix(1 0 0 1 -60.0239 -54.4929)" fill="#FFFFFF" font-family="'TrebuchetMS'" font-size="11.4">Wat is het?</text>
		<text transform="matrix(1 0 0 1 -43.9536 -36.2546)" fill="#FFFFFF" font-family="'TrebuchetMS'" font-size="7.6">Een half miljoen nederlanders heeft last van prikkelbare darmen: </text>
		<text transform="matrix(1 0 0 1 -35.9204 -27.1335)" fill="#FFFFFF" font-family="'TrebuchetMS'" font-size="7.6">diarree of juist obstipatie, een mengvorm ervan, buikpijn en een </text>
		<text transform="matrix(1 0 0 1 -27.8853 -18.0125)" fill="#FFFFFF" font-family="'TrebuchetMS'" font-size="7.6">opgeblazen gevoel zijn veel voorkomende klachten. </text>
		<text transform="matrix(1 0 0 1 -19.854 -8.8933)" fill="#FFFFFF" font-family="'TrebuchetMS'" font-size="7.6">Regelmatig uiten deze klachten zich in de alledaagse bezigheden: je </text>
		<text transform="matrix(1 0 0 1 -11.8169 0.2258)" fill="#FFFFFF" font-family="'TrebuchetMS'" font-size="7.6">privleven, je werk, je vrije tijd. </text>
		<text transform="matrix(1 0 0 1 -3.7856 9.345)" fill="#FFFFFF" font-family="'TrebuchetMS'" font-size="7.6">Belemmeren de PDS klachten je om te doen wat je zou willen doen? </text>
		<text transform="matrix(1 0 0 1 4.2495 18.468)" fill="#FFFFFF" font-family="'TrebuchetMS'" font-size="7.6">Misschien ga je ook bepaalde situaties uit de weg en vermijd je </text>
		<text transform="matrix(1 0 0 1 12.2808 27.5872)" fill="#FFFFFF" font-family="'TrebuchetMS'" font-size="7.6">bepaalde activiteiten.</text>
		<text transform="matrix(1 0 0 1 28.353 45.8254)" fill="#FFFFFF" font-family="'TrebuchetMS'" font-size="7.6">Om hier meer zicht op te krijgen en weer normaal te kunnen </text>
		<text transform="matrix(1 0 0 1 33.8003 54.9465)" fill="#FFFFFF" font-family="'TrebuchetMS'" font-size="7.6">functioneren is er een effectieve methode: Het darmmanagement </text>
		<text transform="matrix(1 0 0 1 31.0835 64.0676)" fill="#FFFFFF" font-family="'TrebuchetMS'" font-size="7.6">programma is bewezen effectief om weer de regie over je darmen en </text>
		<text transform="matrix(1 0 0 1 25.0034 73.1868)" fill="#FFFFFF" font-family="'TrebuchetMS'" font-size="7.6">je leven te herpakken.</text>
		<text transform="matrix(1 0 0 1 5.4077 105.1067)" fill="#FFFFFF" font-family="'TrebuchetMS'" font-size="11.4">Klachten</text>
		<text transform="matrix(1 0 0 1 -8.438 123.345)" fill="#FFFFFF" font-family="'TrebuchetMS'" font-size="7.6">Meest voorkomende zijn:</text>
		<text transform="matrix(1 0 0 1 -20.5942 141.5872)" fill="#FFFFFF" font-family="'TrebuchetMS'" font-size="7.6">Buikpijn en/of buikkrampen</text>
		<text transform="matrix(1 0 0 1 -26.6763 150.7063)" fill="#FFFFFF" font-family="'TrebuchetMS'" font-size="7.6">Problemen met de stoelgang: diarree en/of verstopping</text>
		<text transform="matrix(1 0 0 1 -32.7524 159.8274)" fill="#FFFFFF" font-family="'TrebuchetMS'" font-size="7.6">Opgeblazen gevoel en klachten als opboeren, winderigheid en </text>
		<text transform="matrix(1 0 0 1 -38.8325 168.9485)" fill="#FFFFFF" font-family="'TrebuchetMS'" font-size="7.6">gerommel in de buik</text>
		<text transform="matrix(1 0 0 1 -57.0767 196.3079)" fill="#FFFFFF" font-family="'TrebuchetMS'" font-size="7.6">Overige:</text>
		<text transform="matrix(1 0 0 1 -69.2349 214.5481)" fill="#FFFFFF" font-family="'TrebuchetMS'" font-size="7.6">Moeheid</text>
		<text transform="matrix(1 0 0 1 -65.0122 223.6672)" fill="#FFFFFF" font-family="'TrebuchetMS'" font-size="7.6">Maagklachten</text>
		<text transform="matrix(1 0 0 1 -56.9536 232.7883)" fill="#FFFFFF" font-family="'TrebuchetMS'" font-size="7.6">Brandend maagzuur</text>
		<text transform="matrix(1 0 0 1 -48.895 241.9075)" fill="#FFFFFF" font-family="'TrebuchetMS'" font-size="7.6">Hoofdpijn</text>
		<text transform="matrix(1 0 0 1 -40.8364 251.0266)" fill="#FFFFFF" font-family="'TrebuchetMS'" font-size="7.6">Pijn in de rug of de zij</text>
		<text transform="matrix(1 0 0 1 -32.7739 260.1477)" fill="#FFFFFF" font-family="'TrebuchetMS'" font-size="7.6">Pijn bij het vrijen</text>
		<text transform="matrix(1 0 0 1 -16.6528 278.3879)" fill="#FFFFFF" font-family="'TrebuchetMS'" font-size="7.6">Het klachtenpatroon bij PDS kan erg wisselend zijn per persoon. En </text>
		<text transform="matrix(1 0 0 1 -8.6001 287.5071)" fill="#FFFFFF" font-family="'TrebuchetMS'" font-size="7.6">per persoon kunnen de klachten ook per dag wisselen. Vaak </text>
		<text transform="matrix(1 0 0 1 -0.5396 296.6262)" fill="#FFFFFF" font-family="'TrebuchetMS'" font-size="7.6">verergeren de klachten in periodes van stress en drukte.</text>
	</g>
	<g>
		<path fill="#E5AB8D" d="M252.133,193.847c0,0-0.297,0.553-0.885,0.471c-0.584-0.08-0.439-1.094-0.67-1.572
			c-0.227-0.48-0.75-1.111-0.684-1.865c0.059-0.756,0.627-0.467,0.402-0.59c-0.223-0.117-0.205-0.201-0.365-0.703
			c-0.158-0.494-0.248-0.545-0.49-1.004c-0.246-0.461-0.113-0.996-0.066-2.027c0.039-1.031,0.367-1.018,0.852-2
			c0.492-0.986,0.68-1.088,0.867-1.262s0.34-0.207,0.566-0.229c0.223-0.02,0.082-0.207-0.004-0.291
			c-0.086-0.088,0.051-0.039,0.223,0.082c0.176,0.119,0.135,0-0.07-0.273c-0.209-0.277-0.176-0.256-0.02-0.17
			c0.156,0.082,0.139,0.477,0.275,0.32c0.139-0.154,0.346,0.033,0.771-0.354c0.426-0.379,0.48-0.135,1.936-0.635
			c1.455-0.496,3.725,0.035,5.127,0.93c1.398,0.896,2.182,2.213,2.57,3.273c0.387,1.066,0.049,1.465,0.053,2.062
			c0.006,0.602-0.229,1.172-0.229,1.172c0.52,0.166,0.32,0.939,0.121,1.938c-0.195,0.998,0.117,1.582-0.17,1.928
			c-0.291,0.348-0.568,0.006-0.568,0.006c-0.023,1.133-0.461,2.186-0.461,2.186c0.156,0.119,0.418,0.217,1.152,0.18
			c0.738-0.041,0.98,0.25,1.02,0.594s-0.016,0.566,0.178,0.324c0.188-0.244,0.098-0.311,0.352-0.797
			c0.256-0.48,0.34-0.344,0.545-0.377c0.207-0.041,0.324-0.023,0.324-0.197c-0.004-0.17,0.082-0.221,0.188-0.242
			c0.104-0.016,0.172-0.086,0.291-0.223s0.291-0.121,0.533-0.094c0.238,0.037,0.121,0.037,0.135-0.191
			c0.014-0.221,0.291-0.277,0.838-0.553c0.545-0.283,0.625-0.268,0.82-0.186c0.195,0.086,0.154,0.086,0.273-0.393
			c0.117-0.484,0.457-0.469,0.711-0.596c0.262-0.121,0.447-0.139,0.621-0.262c0.168-0.121,0.234-0.195,0.32-0.396
			c0.084-0.209,0.166-0.465,0.285-0.865c0.117-0.395,0.238-0.156,0.324-0.121s0.172-0.07,0.289-0.174
			c0.121-0.107,0.445-0.162,0.723-0.316c0.271-0.156,0.373-0.26,0.678-0.471c0.307-0.207,0.396-0.004,0.396-0.004
			c0.355-0.434,1.656-0.959,2.777-2.414c1.121-1.453,0.758-1.463,4.35-4.867c3.596-3.395,5.514-5.615,5.514-5.615
			c-0.109-0.324,0.305-0.377,0.305-0.377s0.078-0.879-0.137-1.77c-0.211-0.891-0.094-0.824-0.203-1.629
			c-0.109-0.809-0.166-1.289-0.375-1.699s-0.281-0.629,0.098-0.738c0.377-0.111,0.688,0.406,0.969,0.918s0.527,1.316,0.91,1.539
			c0.379,0.219,0.582,0.059,1.207-1.336c0.623-1.395,1.129-2.09,1.549-2.951c0.424-0.865,0.857-0.475,0.857-0.146
			c0.004,0.328-0.363,1.344-0.664,2.119c-0.305,0.777-0.264,1.344-0.115,1.086c0.152-0.264,0.271-0.414,0.967-1.16
			c0.699-0.744,1.141-1.197,1.414-1.215c0.277-0.021,0.574,0.473,0.117,0.91c-0.461,0.43-1.191,1.592-1.613,2.109
			c-0.426,0.52-0.217,0.707-0.082,0.672c0.135-0.037,0.445-0.33,0.699-0.592c0.258-0.26,0.613-0.52,1.141-1.125
			c0.527-0.611,0.895,0.041,0.672,0.441c-0.215,0.395-0.695,1.016-1.254,1.623c-0.562,0.609-0.781,0.988-0.762,1.158
			c0.02,0.168,0.16,0.459,0.332,0.477c0.172,0.016,0.703,0.078,1.664-0.309c0.957-0.385,1.32,0.18,0.176,0.75
			c-1.141,0.582-2.037,0.521-2.787,1.404c-0.748,0.883-1.139,1.111-1.531,1.371c-0.395,0.264-0.174,0.449-0.305,0.602
			c-0.135,0.16-0.43-0.027-0.531,0.094c-0.104,0.121-0.559,0.777-1.391,1.869c-0.832,1.09-4.193,4.965-5.541,6.371
			c-1.344,1.402-2.676,2.291-2.926,2.912s-1.152,1.744-1.711,2.334c-0.561,0.59-1.195,1.023-1.229,2.398
			c-0.041,1.375-0.59,1.688-1.291,2.006c-0.699,0.314-0.84,0.283-1.227,0.713c-0.387,0.438-1.17,1.557-1.559,2.127
			c-0.387,0.57-2.066,3.23-2.117,3.404c-0.047,0.17-0.023,1.236,0.195,2.295c0.215,1.064,0.68,3.053,0.867,4.51
			c0.188,1.459,0.436,2.504,0.512,3.447c0.078,0.945,0.289,1.492,0.465,2.18s-0.145,0.98-0.193,1.395
			c-0.049,0.41,0.025,2.383,0.131,3.277c0.109,0.895,0.377,1.697,0.414,2.006c0.041,0.311-0.34,0.227-0.188,0.346
			c0.156,0.123,0.553,0.273,0.848,0.523c0.293,0.256,0.156,0.324,0.68,1.043c0.521,0.717,0.354,0.822,0.508,1.062
			c0.156,0.238,0.279,0.426-0.016,0.375c-0.291-0.045-0.41-0.014-0.906-0.096c-0.5-0.08-0.277,0.072-0.277,0.295
			c0.004,0.221-0.219,0.068-0.34-0.152c-0.125-0.219-0.365-0.27-0.52-0.184c-0.152,0.088-0.082,0.189,0.096,0.893
			c0.178,0.705-0.025,0.961,0.318,1.148c0.346,0.184,0.449,0.406,0.594,0.762c0.141,0.363,0.215,1.012,0.062,1.34
			c-0.152,0.33-0.066,0.414,0.176,0.518c0.244,0.102,0.449,0.475,0.629,1.094c0.18,0.613,0.531,1.66,0.867,2.344
			c0.328,0.684,0.656,0.957,0.938,1.453c0.281,0.492,0.281,0.959,0.582,1.57c0.297,0.617,0.576,1.012,0.961,1.746
			c0.383,0.736,0.273,1.318,0.227,2.146c-0.043,0.822,0.023,0.891,0.217,1.797c0.201,0.908,0.834,2.434,1.205,3.186
			c0.363,0.752,0.012,1.389-0.262,1.648c-0.275,0.262-0.514,0.4-0.336,0.949c0.176,0.547,1.098,3.445,1.301,5.021
			c0.203,1.58,0.322,5.355,0.75,6.658c0.424,1.299,0.252,1.422,0.812,2.396c0.559,0.973,0.928,1.809,0.928,1.809
			s0.291,0.24,0.504,0.734c0.213,0.498,0.561,1.266,1.004,2.414c0.438,1.148,0.982,2.537,0.705,3.723
			c-0.283,1.188-1.238,2.088-2.354,2.066c-1.119-0.029-2.037-0.844-2.861-2.691c-0.824-1.846-0.297-2.49-0.934-4.336
			c-0.635-1.85-1.311-2.906-1.441-3.916c-0.133-1.016,0.277-1.188,0.48-1.465s0.219-0.225,0.078-0.707
			c-0.141-0.479-0.277-0.666-1.457-3.041c-1.168-2.377-0.963-2.344-1.711-3.439c-0.746-1.094-0.914-2.258-1.352-2.975
			c-0.434-0.717-0.629-1.111-0.629-1.111c-0.516-0.129-0.895-0.164-1.496-0.414c-0.604-0.254-0.447-0.342-0.73-1.072
			c-0.281-0.738-0.449-1.768-1.34-3.271c-0.885-1.504-2.27-2.416-2.91-3.271c-0.643-0.852-0.578-1.092-0.758-1.693
			c-0.176-0.6-0.529-1.799-0.895-2.102c-0.363-0.309-0.621-0.062-0.811-0.477c-0.193-0.41-0.295-0.877-0.529-1.592
			c-0.232-0.721-0.605-0.406-0.949-0.336c-0.344,0.072-0.594,0.623-0.828,1.502c-0.23,0.877-0.371,0.793-0.758,1.502
			c-0.391,0.707-1.387,2.381-1.844,3.311c-0.453,0.938-1.82,3.471-2.211,4.145c-0.385,0.676-0.746,2.74-0.963,3.1
			c-0.221,0.367-0.803,0.596-2.021,0.588c-1.221-0.006-2.475-0.012-3.795-0.016c-1.318-0.002-1.016-0.143-1.205,0.031
			c-0.188,0.174-0.594,0.793-0.777,1.311s-0.641,1.432-1.398,2.898c-0.758,1.465-1.705,2.951-3.355,2.832
			c-1.652-0.123-2.137-0.754-2.207-2.523c-0.064-1.77,0.121-2.082,1.238-3.672c1.121-1.59,3.07-3.895,3.309-4.119
			s0.242-0.055,0.203-0.449s0.014-0.43,0.279-1.41c0.264-0.98,0.279-1.254,0.377-1.979c0.098-0.723,0.082-0.361,0.504-1.137
			c0.422-0.777,0.488-1.141,0.988-2.451c0.504-1.309,0.742-1.516,1.23-2.377c0.492-0.867,0.418-1.209,0.541-2.961
			c0.119-1.754,0.291-1.449,0.682-2.258c0.383-0.809,0.625-0.812,1.137-1.109c0.518-0.295,0.342-0.553,0.426-1.035
			c0.082-0.48,0.115-0.502,0.379-0.877c0.277-0.381,0.156-0.311-0.035-0.396c-0.191-0.082-0.309-0.082-0.445-0.1
			c-0.141-0.014,0.033-0.357-0.045-1.135c-0.074-0.77,0.01-0.617,0.074-1.217c0.061-0.602,0.186-0.451,0.232-0.566
			c0.051-0.125,0.137-0.262,0.062-0.59c-0.07-0.32,0.049-0.324-0.477-1.73c-0.527-1.4-0.246-0.496-0.691-2.086
			c-0.443-1.594-0.566-2.004-0.672-4.117c-0.107-2.115-0.1-3.211-0.197-4.496c-0.102-1.291-0.156-1.668-0.385-2.469
			c-0.227-0.807-0.219-1.701-0.537-2.367s-0.209-0.75-0.525-1.271c-0.314-0.51-0.539-0.746-1.389-1.615s-1.283-1.088-2.062-1.701
			c-0.777-0.613-0.795-0.508-1.102-0.541c-0.307-0.031-0.432-0.098-0.619-0.098c-0.188,0.004-1.219,0.064-1.318,0.082
			c-0.107,0.018-0.057-0.105-0.234-1.232c-0.186-1.133-0.4-2.162-0.4-2.162l-1.689-0.773c-3.111-1.395-3.451-1.377-4.381-1.969
			c-0.936-0.594-2.418-1.641-4.443-2.721c-2.02-1.082-3.242-1.861-4.246-2.35c-1-0.488-1.188-0.438-1.828-0.549
			c-0.631-0.119-0.996-0.248-1.844-0.668c-0.842-0.424-1.066-0.18-1.635-0.656c-0.574-0.479-0.246-0.703,0.031-0.637
			c0.277,0.068,0.156,0.066,0.619,0.166c0.467,0.098,0.514-0.09,0.254-0.398c-0.26-0.305-0.279-0.373-1.076-1.328
			c-0.795-0.957-0.68-1.072-0.508-1.197c0.172-0.123,0.117-0.279-0.266-0.65c-0.383-0.375-0.555-0.629-0.559-0.973
			c-0.004-0.348,0.41-0.293,0.754,0.057c0.348,0.361,0.918,0.525,1.66,0.965c0.74,0.439,0.707,0.51,0.547,0.1
			c-0.156-0.412-0.227-0.615-0.355-1.527c-0.129-0.908,0.635-1.24,0.713-0.83c0.07,0.41,0.004,0.598,0.469,1.266
			c0.475,0.664,1.102,1.709,1.504,2.305c0.396,0.6,1.24,0.881,3.482,1.838c2.246,0.959,6.533,2.379,8.48,3.133
			c1.947,0.752,4.094,2.555,4.094,2.555c0.238-0.156,0.291,0.066,0.898,0.301c0.602,0.236,0.637,0.129,1.082,0.143
			s0.547,0.047,0.758,0.283c0.207,0.242,0.176,0.348,0.57,0.459c0.396,0.119,0.516,0.133,0.844,0.162
			c0.324,0.035,0.395,0.17,0.537,0.338c0.135,0.176,0.322-0.135,0.531-0.02s0.256,0.148,0.361,0.135
			c0.105-0.023,0.242,0.043,0.414,0.129s0.223,0.189,0.895,0.23c0.672,0.047,0.773,0.062,1.15,0.18
			c0.377,0.119,0.242,0.033,0.791-0.162c0.543-0.195,0.789-0.041,1.152,0.113c0.359,0.146,0.221-0.002,0.217-0.297
			c0-0.285,0.225,0.051,0.639,0.598c0.418,0.545,0.609,0.676,0.695,0.578c0.084-0.104,0.391-0.176,1.059-0.406
			c0.668-0.229,0.961-0.334,0.961-0.334C252.352,194.704,252.133,193.847,252.133,193.847z"/>
		<g>
			<path fill="#EA118D" d="M259.09,218.355c0,0-1.055-2.391-1.166-4.283c-0.111-1.889,0.832-2.947,1.221-3.113
				c0.391-0.166,0.559,0.113,0.781-0.113c0.219-0.219,0.5,0.113,0.5,0.113s0.277-0.166,0.609,0.113
				c0.336,0.277,1.336,1.945,1.061,3.281c-0.279,1.334-1.113,3.893-1.113,3.893S260.426,218.687,259.09,218.355z"/>
			<path fill="#EA118D" d="M260.883,218.355c0,0,0.959-2.43,2.227-3.836c1.27-1.406,2.684-1.473,3.076-1.312
				c0.391,0.16,0.309,0.473,0.623,0.475c0.312,0.004,0.271,0.436,0.271,0.436s0.314,0.082,0.354,0.516
				c0.039,0.432-0.449,2.314-1.596,3.051c-1.146,0.742-3.549,1.941-3.549,1.941S261.578,219.536,260.883,218.355z"/>
			<path fill="#EA118D" d="M262.348,219.671c0,0,2.379-1.078,4.27-1.209c1.887-0.129,2.955,0.805,3.123,1.191
				c0.17,0.389-0.107,0.557,0.119,0.779c0.223,0.217-0.109,0.502-0.109,0.502s0.17,0.279-0.105,0.611
				c-0.277,0.338-1.934,1.354-3.27,1.088c-1.336-0.268-3.902-1.074-3.902-1.074S262.023,221.007,262.348,219.671z"/>
			<path fill="#EA118D" d="M262.488,221.273c0,0,2.41,1.016,3.781,2.318c1.377,1.297,1.412,2.715,1.244,3.104
				c-0.17,0.389-0.482,0.301-0.49,0.615c-0.012,0.314-0.441,0.262-0.441,0.262s-0.088,0.311-0.52,0.34
				c-0.434,0.027-2.305-0.5-3.02-1.664c-0.711-1.16-1.857-3.596-1.857-3.596S261.285,221.945,262.488,221.273z"/>
			<path fill="#EA118D" d="M261.211,222.534c0,0,1.004,2.418,1.07,4.309c0.068,1.889-0.898,2.926-1.293,3.082
				c-0.393,0.158-0.551-0.125-0.777,0.096c-0.23,0.213-0.504-0.125-0.504-0.125s-0.279,0.16-0.607-0.123
				c-0.328-0.285-1.291-1.973-0.982-3.301s1.203-3.863,1.203-3.863S259.887,222.171,261.211,222.534z"/>
			<path fill="#EA118D" d="M259.277,222.747c0,0-0.891,2.455-2.113,3.898c-1.227,1.449-2.637,1.555-3.035,1.406
				s-0.328-0.463-0.641-0.455c-0.314,0.006-0.281-0.428-0.281-0.428s-0.32-0.07-0.369-0.504c-0.045-0.434,0.377-2.328,1.504-3.104
				c1.123-0.77,3.488-2.043,3.488-2.043S258.539,221.585,259.277,222.747z"/>
			<path fill="#EA118D" d="M257.941,221.421c0,0-2.371,1.113-4.254,1.266c-1.887,0.156-2.965-0.764-3.141-1.148
				s0.098-0.559-0.127-0.773c-0.225-0.219,0.1-0.504,0.1-0.504s-0.174-0.279,0.102-0.615c0.27-0.34,1.91-1.377,3.25-1.131
				c1.344,0.25,3.918,1.023,3.918,1.023S258.238,220.081,257.941,221.421z"/>
			<path fill="#EA118D" d="M257.941,219.669c0,0-2.453-0.904-3.891-2.139c-1.434-1.234-1.537-2.648-1.383-3.043
				c0.152-0.395,0.461-0.322,0.457-0.635c-0.004-0.314,0.434-0.283,0.434-0.283s0.07-0.314,0.506-0.363
				c0.434-0.043,2.322,0.398,3.09,1.523c0.766,1.127,2.023,3.504,2.023,3.504S259.105,218.941,257.941,219.669z"/>
		</g>
	</g>
</g>
<g>
	<g>
		<g>
			<text transform="matrix(1 0 0 1 25.6616 380.2454)" fill="#414042" font-family="'TrebuchetMS-Italic'" font-size="7.6">Voor clinten met een PDS diagnose, gesteld door huisarts of specialist.</text>
			<text transform="matrix(1 0 0 1 77.8413 389.3645)" fill="#414042" font-family="'TrebuchetMS-Italic'" font-size="7.6">Deze mag niet ouder dan 3 maanden zijn.</text>
			<text transform="matrix(1 0 0 1 66.4116 399.8782)" fill="#414042" font-family="'TrebuchetMS'" font-size="7.6">Me Therapy wordt gerund door Marille Janssen,</text>
			<text transform="matrix(1 0 0 1 38.853 408.9973)" fill="#414042" font-family="'TrebuchetMS'" font-size="7.6">o.a. psychosociaal en hypnotherapeut, aangesloten bij de NBVH.</text>
			<text transform="matrix(1 0 0 1 58.9878 418.1184)" fill="#414042" font-family="'TrebuchetMS'" font-size="7.6">Gespecialiseerd in PDS, SOLK, TVM en autismecoach.</text>
		</g>
	</g>
	<g>
		<g>
			<path fill="#424143" d="M-50.804,409.507c-1.294,2.332-1.341,5.33-1.341,5.33s-1.789-3.549-0.054-7.275
				c1.922-4.125,4.973-8.385,10.634-13.391c0.175-0.16,1.158-0.857,0.406-1.543c-0.412-0.381-1.151-0.852-1.722-1.432
				c-0.25-0.256-1.758-1.373,0.33-3.492c4.777-4.85,3.979-8.416,3.296-10.691c-0.106-0.342,3.63,1.744,2.229-1.959
				c-1.813-4.812-3.084,0.086-3.403-0.299c-1.761-2.133-6.566-2.383-8.677-1.201c-1.161,0.654-2.065,1.664-2.72,2.838
				c-0.102,0.178,0.286,1.057,0.236,1.252c-0.106,0.398-0.916,0.234-1,0.443c-0.24,0.604-1.238,0.762-1.366,1.381
				c-0.132,0.674,0.822,1.287,0.822,1.93c0,1.316,1.06,1.883,1.748,1.941c0.372,0.035,1.414-0.42,1.388-0.359
				c-0.284,0.75-2.604,0.467-2.604,0.467c-0.179,2.045,3.098,3.963,3.208,4.436c0.525,2.27-0.44,4.055-1.387,4.916
				c-1.042,0.953-3.76,2.199-5.17,2.248c-1.565,0.053-4.742-1.141-5.846-2.248c-0.824-0.826-1.89-3.58-1.746-4.312
				c0.356-1.781,2.852-0.32,3.318-3.062c0.102-0.615,1.14-0.783,1.174-1.447c0.02-0.312-2.138-0.475-2.351-0.836
				c-0.184-0.299,2.297-0.766,2.03-1.674c-0.134-0.457-1.57-0.143-1.604-0.822c-0.009-0.168,1.354-0.354,1.424-0.789
				c0.142-0.848-1.72-1.199-1.72-2.025c0-0.447,0.932-0.523,0.892-1.109c-0.044-0.656-0.792-2.273-2.672-3.32
				c-3.522-1.951-7.021-1.045-8.878,0.641c-0.396,0.359-1.024-1.637-3.044-1.172c-0.654,0.148,2.176,1.023,1.208,3.391
				c-1.824,4.457-0.506,8.949,4.235,11.795c0.853,0.514,0.168,2.176-0.376,2.812c-0.682,0.805-2.29,0.648-1.649,2.25
				c1.399,3.496,8.978,9.227,11.926,14.363c11.098,19.316-12.696,23.443-12.696,23.443s11.889-4.838,11.88-14.066
				c-0.004-7.352-12.334-14.451-16.909-24.059c-2.618-5.494-3.885-12.004-1.408-17.707c0.321-0.744,0.71-1.312,0.71-1.312
				c-1.374-8.66-5.04-6.75-4.674-6.895c4.945-1.955,6.292,3.523,9.065,2.172c11.782-5.75,17.376,4.34,17.376,4.34
				s10.28-11.812,19.57-2.004c5.012,5.293,7.258,12.195,1.492,21.408c-1.597,2.549-6.282,5.922-8.034,7.627
				C-49.031,406.056-50.317,408.628-50.804,409.507z"/>
			<pattern  id="SVGID_1_" xlink:href="#SVGID_2_" patternTransform="matrix(0.107 0 0 -0.107 -38086.3555 -9519.1816)">
			</pattern>
			<path fill="url(#SVGID_1_)" d="M-52.413,409.667c-1.296,2.332-1.34,5.328-1.34,5.328s-1.788-3.545-0.054-7.271
				c1.92-4.127,4.97-8.385,10.636-13.393c0.178-0.158,1.16-0.857,0.406-1.543c-0.412-0.383-1.152-0.85-1.725-1.434
				c-0.248-0.254-1.754-1.373,0.334-3.49c4.776-4.846,3.979-8.42,3.292-10.688c-0.104-0.344,3.632,1.742,2.229-1.963
				c-1.816-4.812-3.084,0.086-3.406-0.299c-1.76-2.133-6.564-2.383-8.674-1.199c-1.16,0.65-2.066,1.664-2.722,2.838
				c-0.103,0.176,0.285,1.055,0.235,1.25c-0.107,0.402-0.916,0.23-1,0.443c-0.24,0.604-1.235,0.762-1.359,1.385
				c-0.137,0.672,0.815,1.283,0.815,1.926c0,1.316,1.061,1.883,1.748,1.943c0.374,0.031,1.416-0.422,1.39-0.359
				c-0.288,0.752-2.602,0.463-2.602,0.463c-0.176,2.051,3.098,3.963,3.208,4.439c0.526,2.271-0.444,4.053-1.384,4.916
				c-1.04,0.953-3.763,2.201-5.174,2.248c-1.564,0.053-4.74-1.137-5.847-2.248c-0.819-0.824-1.89-3.58-1.744-4.314
				c0.356-1.779,2.851-0.316,3.316-3.059c0.102-0.615,1.136-0.783,1.176-1.447c0.017-0.311-2.138-0.48-2.355-0.836
				c-0.183-0.303,2.298-0.77,2.031-1.676c-0.136-0.459-1.567-0.139-1.602-0.822c-0.008-0.166,1.354-0.357,1.426-0.787
				c0.141-0.85-1.72-1.201-1.72-2.023c0-0.449,0.934-0.531,0.892-1.111c-0.046-0.656-0.796-2.277-2.674-3.32
				c-3.518-1.953-7.02-1.045-8.876,0.639c-0.397,0.359-1.023-1.635-3.044-1.174c-0.65,0.152,2.174,1.025,1.206,3.395
				c-1.824,4.453-0.506,8.945,4.236,11.797c0.852,0.514,0.164,2.174-0.38,2.811c-0.681,0.801-2.29,0.643-1.646,2.248
				c1.396,3.494,8.979,9.229,11.926,14.369c11.095,19.311-12.693,23.439-12.693,23.439s11.884-4.84,11.88-14.07
				c-0.002-7.352-12.338-14.455-16.912-24.055c-2.616-5.496-3.882-12.006-1.408-17.707c0.322-0.742,0.71-1.316,0.71-1.316
				c-1.374-8.66-5.042-6.744-4.674-6.891c4.944-1.957,6.292,3.523,9.066,2.17c11.781-5.748,17.373,4.342,17.373,4.342
				s10.278-11.814,19.574-2.004c5.015,5.289,7.258,12.193,1.49,21.406c-1.596,2.551-6.284,5.924-8.036,7.629
				C-50.632,406.216-51.926,408.788-52.413,409.667z"/>
		</g>
		<text transform="matrix(1 0 0 1 -34.7095 407.4778)" fill="#EA118D" font-family="'TrebuchetMS'" font-size="7.6">06-22034603</text>
		<text transform="matrix(1 0 0 1 -45.856 416.5989)" fill="#EA118D" font-family="'TrebuchetMS'" font-size="7.6">info@metherapy.nl</text>
		<text transform="matrix(1 0 0 1 -46.2036 425.718)" fill="#EA118D" font-family="'TrebuchetMS'" font-size="7.6">www.metherapy.nl</text>
	</g>
</g>
<image overflow="visible" width="491" height="734" xlink:href="pasfoto.jpg"  transform="matrix(0.04 0 0 0.04 -21.6372 366.5657)">
</image>
</svg>
