<?xml version="1.0" encoding="utf-8"?>
<!-- Generator: Adobe Illustrator 16.0.0, SVG Export Plug-In . SVG Version: 6.00 Build 0)  -->
<!DOCTYPE svg PUBLIC "-//W3C//DTD SVG 1.1//EN" "http://www.w3.org/Graphics/SVG/1.1/DTD/svg11.dtd">
<svg version="1.1" id="Layer_1" xmlns="http://www.w3.org/2000/svg" xmlns:xlink="http://www.w3.org/1999/xlink" x="0px" y="0px"
	 width="141.732px" height="141.732px" viewBox="0 0 141.732 141.732" enable-background="new 0 0 141.732 141.732"
	 xml:space="preserve">
<g>
	<g>
		<g>
			<path fill="#F4B2D0" d="M136.781,130.452c6.468-11.443,8.309-33.858-7.451-26.914c-5.726-28.004-25.035-52.557-57.753-54.789
				c-32.719,2.232-52.028,26.785-57.753,54.79c-16.112-7.101-13.827,16.491-7.008,27.667L136.781,130.452z"/>
		</g>
		<path fill="#EE8EBB" d="M4.732,42.161c4.314-6.567,11.381-11.369,19.403-13.814c-5.586-5.516,32.282-21.645,29.327-16.429
			c37.377-9.993,83.513,37.158,81.608,36.177c4.717,7.801,6.604,16.812,6.661,25.894c0.056,8.963-1.671,17.883-4.442,26.381
			c-3.859,11.834-0.298,15.434-2.695,26.715c-0.559-2.514-1.828-4.615-3.809-6.303c0.739,3.354,0.653,6.621-0.094,9.707
			l-7.584,0.043c1.971-19.139-0.225-40.41-13.747-53.865c0.686,1.783-0.108,3.184-2.381,4.199
			c-6.476-18.969-39.845-4.203-53.801-13.445c3.608,2.975,6.489,7.564,11.902,7.564c-6.167,0.248-20.025,0.364-23.329-6.303
			c-0.352,5.434,0.305,8.874-4.762,13.025c1.266-4.84,2.396-9.535-0.476-14.287c-1.123,13.488-14.586,19.4-16.061,33.391
			c-1.052,9.982-0.296,20.257,1.201,30.309l-8.321,0.049c-0.709-1.94-1.102-4.016-1.102-6.184c-1.737,1.139-2.689,2.818-2.855,5.042
			c-2.916-10.766,4.045-15.982-1.695-25.239C-1.811,89.483-1.913,70.59,4.138,53.977C1.937,54.214,1.739,46.717,4.732,42.161"/>
	</g>
	<path fill="#EE8EBB" d="M77.039,111.743c-0.473-4.488,1.726-8.11,2.7-6.191c2.499-7.407,3.524-3.771,2.475-1.785
		c1.95-1.854,5.55-3.707,5.399-2.78c14.841-10.052,37.893,8.216,26.099,20.648C113.68,102.227,85.991,107.628,77.039,111.743z"/>
	<path fill="#EE8EBB" d="M67.049,111.743c0.473-4.488-1.726-8.11-2.701-6.191c-2.498-7.406-3.524-3.771-2.474-1.785
		c-1.95-1.854-5.55-3.707-5.399-2.78c-14.841-10.054-36.481,7.112-26.099,20.648C27.507,104.807,58.098,107.628,67.049,111.743z"/>
	<g>
		<path fill="#EE8EBB" d="M78.878,115.356c0,0,19.633-8.799,34.123,3.851C113.001,119.207,100.38,110.131,78.878,115.356z"/>
		<path fill="#EE8EBB" d="M81.371,116.456c0,0,17.141-4.537,29.139,4.262C110.509,120.717,98.043,115.217,81.371,116.456z"/>
		<path fill="#EE8EBB" d="M102.718,117.831c-3.616,3.898-13.09,6.971-13.09-1.926C93.428,116.002,99.391,115.799,102.718,117.831z"
			/>
	</g>
	<g>
		<path fill="#EE8EBB" d="M65.358,115.356c0,0-19.632-8.799-34.124,3.851C31.234,119.207,43.856,110.131,65.358,115.356z"/>
		<path fill="#EE8EBB" d="M62.865,116.456c0,0-17.139-4.537-29.137,4.262C33.728,120.717,46.192,115.217,62.865,116.456z"/>
		<path fill="#EE8EBB" d="M41.519,117.831c3.616,3.898,13.089,6.971,13.089-1.926C50.809,116.002,44.845,115.799,41.519,117.831z"/>
	</g>
	<path fill="#EE8EBB" d="M107.307,123.756c0,0-11.823,5.219-18.083-2.607C89.224,121.149,96.701,141.709,107.307,123.756z"/>
	<path fill="#EE8EBB" d="M37.58,123.756c0,0,11.825,5.219,18.084-2.607C55.664,121.149,48.186,141.709,37.58,123.756z"/>
</g>
<path fill="#EC008C" d="M70.728,50.846c-3.638,3.954-6.218,6.546-8.06,8.051c-0.116-4.767,2.905-14.023,7.91-30.752
	c-6.332,14.892-9.848,23.52-12.713,26.875c-0.105-2.183-0.205-4.858-0.636-7.74c-0.622,3.896-0.883,7.192-1.375,9.264
	c-3.833,1.205-7.41-7.916-17.092-24.472c9.418,25.093,13.832,32.47,6.734,32.173c-1.492-0.196-3.313-0.531-5.515-1.002
	c0.026,0.017,0.05,0.032,0.076,0.049c-5.539-1.356-13.897-3.979-25.757-6.83c20.378,8.203,30.813,10.158,33.198,14.301
	c-1.684,1.306-5.798,3-12.749,6.342c6.764-1.986,10.958-3.241,13.227-3.513c-0.653,4.536-6.792,11.848-17.289,27.045
	c13.279-13.648,19.886-20.501,23.824-21.352c0.745,2.049,0.236,7.487,0.862,16.515c1.035-8.21,1.24-13.421,1.827-15.899
	c3.272,2.752,4.351,13.499,9.723,30.971c-1.4-12.769-2.727-21.51-2.558-27.043c1.299,1.498,2.837,3.285,4.671,5.352
	c-1.973-3.335-3.463-5.973-4.428-8.01c0.521-3.072,1.889-4.662,4.585-5.041c3.252,0.833,7.917,2.449,14.15,4.574
	c-3.458-1.669-6.433-3.053-8.905-4.242c5.003,0.941,12.254,3.41,22.587,6.943c-31.115-14.971-43.304-12.557-8.641-23.377
	c-14.719,2.457-22.295,4.869-24.781,1.98C64.293,59.955,66.936,56.435,70.728,50.846z"/>
</svg>
