<?xml version="1.0" encoding="utf-8"?>
<!-- Generator: Adobe Illustrator 16.0.0, SVG Export Plug-In . SVG Version: 6.00 Build 0)  -->
<!DOCTYPE svg PUBLIC "-//W3C//DTD SVG 1.1//EN" "http://www.w3.org/Graphics/SVG/1.1/DTD/svg11.dtd">
<svg version="1.1" id="Layer_1" xmlns="http://www.w3.org/2000/svg" xmlns:xlink="http://www.w3.org/1999/xlink" x="0px" y="0px"
	 width="709.944px" height="602.943px" viewBox="0 0 709.944 602.943" enable-background="new 0 0 709.944 602.943"
	 xml:space="preserve">
<g>
	<linearGradient id="SVGID_1_" gradientUnits="userSpaceOnUse" x1="0" y1="3.8906" x2="0.9019" y2="3.8906">
		<stop  offset="0.6043" style="stop-color:#FDEAF2"/>
		<stop  offset="0.9892" style="stop-color:#FFFFFF"/>
	</linearGradient>
	<path opacity="0.8" fill="url(#SVGID_1_)" d="M0.239,3.977c0.223-0.088,0.441-0.164,0.663-0.25C0.03,3.973-0.249,4.169,0.239,3.977
		z"/>
	<linearGradient id="SVGID_2_" gradientUnits="userSpaceOnUse" x1="0.9019" y1="301.7192" x2="709.0425" y2="301.7192">
		<stop  offset="0.6043" style="stop-color:#FDEAF2"/>
		<stop  offset="0.9892" style="stop-color:#FFFFFF"/>
	</linearGradient>
	<path opacity="0.8" fill="url(#SVGID_2_)" d="M624.931,24.278C514.742-29.486,462.458,64.89,462.458,64.89
		S414.101,9.312,354.972,9.712c-59.129-0.4-107.486,55.177-107.486,55.177S195.202-29.486,85.013,24.278
		C59.201,36.872,46.592-13.798,0.902,3.727C6.149,2.249,32.948-1,43.969,68.438c0,0-3.634,5.363-6.65,12.308
		c-23.165,53.338-11.308,114.25,13.159,165.615c42.793,89.836,158.111,156.256,158.159,225.016
		c0.059,86.322-111.12,131.566-111.12,131.566c0,0,162.816,11.886,175.583-118.502c1.756-17.932,7.468-152.135,81.873-152.135
		s78.27,134.307,80.873,152.135c19.478,133.388,176.582,118.502,176.582,118.502S501.25,557.699,501.308,471.376
		c0.048-68.76,115.365-135.18,158.158-225.016c24.467-51.365,36.324-112.276,13.16-165.615c-3.018-6.945-6.65-12.308-6.65-12.308
		C676.996-1,703.794,2.249,709.042,3.727C663.351-13.798,650.744,36.872,624.931,24.278z"/>
	<linearGradient id="SVGID_3_" gradientUnits="userSpaceOnUse" x1="709.0425" y1="3.8911" x2="709.9438" y2="3.8911">
		<stop  offset="0.6043" style="stop-color:#FDEAF2"/>
		<stop  offset="0.9892" style="stop-color:#FFFFFF"/>
	</linearGradient>
	<path opacity="0.8" fill="url(#SVGID_3_)" d="M709.042,3.727c0.222,0.085,0.438,0.161,0.662,0.25
		C710.193,4.169,709.914,3.973,709.042,3.727z"/>
</g>
</svg>
