<?xml version="1.0" encoding="utf-8"?>
<!-- Generator: Adobe Illustrator 16.0.0, SVG Export Plug-In . SVG Version: 6.00 Build 0)  -->
<!DOCTYPE svg PUBLIC "-//W3C//DTD SVG 1.1//EN" "http://www.w3.org/Graphics/SVG/1.1/DTD/svg11.dtd">
<svg version="1.1" id="Layer_1" xmlns="http://www.w3.org/2000/svg" xmlns:xlink="http://www.w3.org/1999/xlink" x="0px" y="0px"
	 width="491.475px" height="604.453px" viewBox="0 0 491.475 604.453" enable-background="new 0 0 491.475 604.453"
	 xml:space="preserve">
<pattern  x="-51.763" y="722.726" width="169.393" height="155.989" patternUnits="userSpaceOnUse" id="New_Pattern_4" viewBox="84.696 -181.987 169.393 155.989" overflow="visible">
	<g>
		<polygon fill="none" points="84.696,-25.998 254.089,-25.998 254.089,-181.986 84.696,-181.986 		"/>
		<g>
			<polygon fill="none" points="84.696,-25.998 254.089,-25.998 254.089,-181.986 84.696,-181.986 			"/>
			<path fill="#EC008C" d="M86.022-197.757v-0.994c0.44-1.325,1.16-3.149,2.155-5.47c0.994-2.32,1.6-3.48,1.823-3.48h1.657
				c0,1.104,0.383,2.264,1.16,3.48c0.771,1.212,1.709,1.822,2.817,1.822h0.332c0.217-0.223,0.715-0.662,1.491-1.325
				c0.771-0.662,1.27-1.108,1.492-1.325h0.331h0.663c0.44,0.217,0.938,0.663,1.491,1.325c0.55,0.663,0.938,1.104,1.161,1.325
				c0.439-0.885,1.6-1.822,3.48-2.816c1.875-0.994,3.258-1.383,4.144-1.16c0.44,0.219,1.932,0.828,4.475,1.823
				c2.538,0.993,4.03,1.709,4.476,2.153l5.304-5.303c0.663-0.664,1.435-0.166,2.32,1.491c0.881,1.657,1.544,2.485,1.989,2.485h0.663
				c1.988-1.108,3.48-2.047,4.475-2.817c0.995-0.776,2.704-1.159,5.139-1.159h0.663c0.217,0.217,0.828,0.715,1.823,1.491
				c0.994,0.771,1.709,1.16,2.154,1.16c0.44,0,0.938-0.332,1.492-0.995c0.549-0.663,0.828-1.217,0.828-1.656
				c2.652,1.543,3.979,3.314,3.979,5.303c0,1.326-0.446,2.207-1.326,2.652c-0.886,0.44-1.326,1.436-1.326,2.983v0.993
				c0,0.219,0.108,0.55,0.331,0.994c0.44-1.107,1.27-1.987,2.486-2.65c1.212-0.663,2.372-1.107,3.48-1.326
				c-0.445-0.445-0.828-1.439-1.16-2.982c-0.331-1.549-0.279-2.651,0.166-3.314c0.218-0.445,0.994-0.995,2.32-1.658
				c1.326-0.662,2.207-0.994,2.652-0.994c1.326,1.104,2.098,2.207,2.32,3.315c0.218,1.103,1.104,1.767,2.652,1.987
				c0.439-0.662,0.938-1.49,1.491-2.485c0.549-0.994,1.16-1.491,1.823-1.491h0.663c0.218,0.219,0.497,0.439,0.829,0.663
				c0.331,0.218,0.497,0.44,0.497,0.663c0.88,0.88,1.325,1.766,1.325,2.65l-3.646,6.3c-0.224,0.217-0.166,0.497,0.165,0.827
				c0.332,0.332,0.606,0.498,0.829,0.498h1.326v-0.332c1.988,0,3.589-0.389,4.807-1.159c1.212-0.777,2.429-1.657,3.646-2.652
				c1.212-0.993,2.372-1.88,3.48-2.651c1.104-0.776,2.538-1.16,4.31-1.16c0.217,0,0.663,0.498,1.325,1.492
				c0.663,0.994,1.326,2.098,1.989,3.314c0.663,1.212,1.212,2.372,1.657,3.48c0.44,1.104,0.663,1.875,0.663,2.32h0.663h0.663
				c0.218-0.224,0.331-0.664,0.331-1.326v-9.281c0.44,0,0.772,0.107,0.995,0.33c2.429,1.768,4.361,3.48,5.801,5.14
				c1.435,1.657,3.921,2.485,7.459,2.485c0.44,0,1.212-0.332,2.32-0.994c1.104-0.663,1.875-1.217,2.32-1.657
				c0,0.881,0.383,1.767,1.16,2.651c0.771,0.881,1.709,1.326,2.817,1.326c0-0.224,0.109-0.445,0.332-0.664l0.663-0.662
				c0.217-0.445,0.44-1.491,0.663-3.148c0.217-1.656,0.439-2.709,0.662-3.148c0.218,0,0.663-0.058,1.326-0.166
				c0.663-0.113,1.104-0.166,1.326-0.166c1.989,0,3.755,0.498,5.304,1.492c1.544,0.993,3.315,1.491,5.304,1.491
				c0.881,0,1.544-0.224,1.989-0.663c0.44-0.445,0.549-1.549,0.332-3.314c0.662,1.767,1.377,2.869,2.154,3.314
				c0.771,0.439,1.823,0.663,3.149,0.663c1.325,0,2.206-0.28,2.651-0.829c0.44-0.555,1.212-0.828,2.32-0.828
				c0.881,0,1.989,0.828,3.315,2.485s2.595,3.532,3.812,5.636c1.213,2.098,2.264,4.195,3.149,6.299
				c0.881,2.098,1.326,3.59,1.326,4.476c0,0.218-0.057,0.715-0.166,1.491c-0.113,0.771-0.165,1.377-0.165,1.822
				c-1.771,0.219-2.983,1.047-3.646,2.486c-0.663,1.436-1.549,2.596-2.652,3.48l-2.651-7.625c-3.315,2.431-5.915,6.02-7.79,10.773
				c-1.881,4.75-2.818,9.002-2.818,12.764c-2.212,0-3.48-0.83-3.812-2.486c-0.332-1.657-0.721-3.48-1.161-5.471h-0.331
				c-0.663,0-1.217,0.385-1.657,1.16c-0.445,0.771-0.886,1.657-1.326,2.652c-0.445,0.994-0.942,1.875-1.492,2.65
				c-0.554,0.772-1.383,1.16-2.485,1.16c-4.424,0-8.898-0.609-13.426-1.822c-4.532-1.217-8.898-1.823-13.094-1.823
				c-0.886,0-1.605,0.166-2.155,0.498c-0.554,0.331-1.273,0.497-2.154,0.497c-2.652,0-5.47-0.389-8.453-1.16
				c-2.983-0.777-5.692-1.16-8.121-1.16c-0.445,0-1.771,0.165-3.979,0.497c-2.211,0.331-3.537,0.604-3.978,0.828h-0.663h-0.331
				c-0.446-0.224-1.161-0.497-2.155-0.828c-0.994-0.332-1.605-0.497-1.823-0.497c-0.223,0-0.663,0.217-1.326,0.663
				c-0.662,0.438-1.108,0.662-1.325,0.662c-1.108,0-1.989-1.108-2.652-3.313c-0.663-2.213-1.88-3.314-3.646-3.314l-0.663,0.662
				l-0.663,0.662c-0.223,0.219-0.497,0.385-0.828,0.498c-0.332,0.108-0.721,0.384-1.16,0.828c-0.663,0.219-1.218,0.549-1.658,0.994
				h-0.331l-0.663,0.332l-0.663-0.332c-0.445-0.886-0.663-1.822-0.663-2.816s-0.554-1.715-1.657-2.154
				c-1.108,0.439-1.657,1.326-1.657,2.65c0,1.326,0.549,2.652,1.657,3.979c-0.445,0.218-1.108,0.497-1.989,0.828
				c-0.886,0.332-1.549,0.497-1.988,0.497l-1.326-0.662l-1.326-0.663c-0.223-0.223-0.445-0.332-0.663-0.332h-0.663l-0.994,0.332
				l-1.326,1.325c-2.435,0-4.755-0.497-6.961-1.491c-2.212-0.993-4.424-1.491-6.63-1.491c-1.108,0-1.771,0.274-1.989,0.828
				c-0.223,0.549-0.886,0.829-1.989,0.829h-0.331c-0.223-0.223-0.497-0.497-0.829-0.829c-0.331-0.33-0.497-0.611-0.497-0.828
				c-0.445,2.207-1.491,3.424-3.149,3.646c-1.657,0.218-3.148,0.332-4.475,0.332c-2.435,0-4.424-0.663-5.967-1.989
				c-1.549-1.326-2.543-3.206-2.983-5.635l0.663-1.326c0.217-0.445,0.44-0.777,0.663-0.995v-2.983c0-1.987-0.611-3.262-1.823-3.812
				c-1.218-0.556-2.652-1.159-4.31-1.823c-1.658-0.662-3.264-1.715-4.807-3.148c-1.549-1.439-2.652-4.035-3.315-7.79l0.663-1.326
				c0.218-0.444,0.44-0.776,0.663-0.994c0-0.444-0.166-0.942-0.497-1.491c-0.331-0.555-0.611-0.943-0.829-1.16
				c0.44,0,1.104-0.166,1.989-0.498c0.881-0.33,1.435-0.61,1.657-0.828l0.332-0.662l-0.332-0.663
				c-0.223-0.224-0.663-0.445-1.325-0.663c-0.663-0.223-0.995-0.445-0.995-0.663v-0.334H86.022z M104.918-161.293
				c1.543,0,2.538-0.555,2.983-1.658h-1.326c-1.549,0-2.435,0.551-2.652,1.658H104.918z M107.901-194.773
				c-0.445,0-0.663,0.274-0.663,0.828c0,0.549,0.218,0.715,0.663,0.498C108.781-193.893,108.781-194.334,107.901-194.773z
				 M108.896-165.271h1.326v-1.324L108.896-165.271z M117.846-166.596h0.994h0.332c0.44-0.225,0.938-0.446,1.491-0.663
				c0.55-0.224,0.938-0.444,1.16-0.663c-0.445-0.887-0.942-1.771-1.491-2.652c-0.555-0.886-1.383-1.326-2.486-1.326V-166.596z
				 M144.365-199.912c0-0.777-0.223-1.16-0.663-1.16c-0.663,0-0.994,0.383-0.994,1.16c0,0.771,0.331,1.16,0.994,1.16
				C144.143-198.752,144.365-199.14,144.365-199.912z M158.619-165.271c0-0.885-0.331-1.324-0.994-1.324
				c-0.445,0-0.663,0.439-0.663,1.324c0,0.882,0.218,1.326,0.663,1.326C158.288-163.945,158.619-164.39,158.619-165.271z
				 M158.951-172.895h2.651c0-1.989-0.886-2.983-2.651-2.983V-172.895z M163.923-165.271c0-0.885-0.445-1.324-1.325-1.324
				c-0.446,0-0.663,0.439-0.663,1.324c0,0.882,0.217,1.326,0.663,1.326C163.478-163.945,163.923-164.39,163.923-165.271z
				 M166.243-179.359c0-0.994-0.223-1.492-0.662-1.492c-0.663,0-0.995,0.498-0.995,1.492s0.332,1.492,0.995,1.492
				C166.021-177.867,166.243-178.365,166.243-179.359z M169.227-188.475l-1.325-1.326c-0.886,0.663-1.326,1.656-1.326,2.982
				C167.679-186.818,168.564-187.371,169.227-188.475z M169.227-192.121c-0.445-0.224-0.662-0.058-0.662,0.496
				c0,0.549,0.217,0.829,0.662,0.829C170.107-191.24,170.107-191.681,169.227-192.121z M170.553-165.271h2.652
				c0.218,0,0.497-0.662,0.828-1.987c0.332-1.326,0.498-2.435,0.498-3.315c0-1.107-0.389-1.937-1.16-2.486
				c-0.777-0.553-1.715-0.827-2.818-0.827V-165.271z M178.178-190.796c0.217-0.224,0.497-0.444,0.828-0.663
				c0.332-0.223,0.497-0.445,0.497-0.662v-0.664v-0.662c0-0.887-0.445-1.326-1.325-1.326V-190.796z M196.078-190.796h1.326v-2.651
				h-1.326V-190.796z M208.675-190.962c0-0.776-0.332-1.159-0.995-1.159c-0.662,0-0.994,0.383-0.994,1.159
				c0,0.771,0.332,1.16,0.994,1.16C208.343-189.801,208.675-190.189,208.675-190.962z M217.956-172.895h0.663h0.663
				c0.218-0.223,0.44-0.664,0.663-1.326c0.218-0.663,0.331-1.107,0.331-1.326c0-0.445-0.279-0.775-0.828-0.994
				c-0.555-0.223-1.052-0.33-1.492-0.33V-172.895L217.956-172.895z M219.945-164.111c0-0.775-0.223-1.16-0.663-1.16
				c-0.663,0-0.994,0.385-0.994,1.16c0,0.772,0.331,1.16,0.994,1.16C219.723-162.951,219.945-163.339,219.945-164.111z
				 M220.276-170.574c-0.445,0-0.663,0.273-0.663,0.828c0,0.549,0.218,0.828,0.663,0.828
				C221.38-169.363,221.38-169.912,220.276-170.574z M231.05-188.309c0.109-0.555,0.166-1.053,0.166-1.492
				c0-1.107-0.331-2.27-0.994-3.48c-0.663-1.217-1.88-1.822-3.646-1.822c0,1.326,0.383,2.761,1.16,4.31
				c0.771,1.543,1.823,2.761,3.149,3.646C230.885-187.371,230.937-187.76,231.05-188.309z M237.846-183.172
				c0-0.663-0.223-1.107-0.663-1.326c-0.445-0.223-0.663,0.219-0.663,1.326c0,1.104,0.218,1.544,0.663,1.326
				C237.623-182.068,237.846-182.508,237.846-183.172z"/>
			<path fill="#EC008C" d="M170.719-158.759v-0.994c0.44-1.325,1.16-3.149,2.155-5.47c0.994-2.32,1.6-3.48,1.823-3.48h1.657
				c0,1.104,0.383,2.264,1.16,3.48c0.771,1.212,1.709,1.822,2.817,1.822h0.332c0.217-0.223,0.715-0.662,1.491-1.326
				c0.771-0.662,1.27-1.107,1.492-1.325h0.331h0.663c0.44,0.218,0.938,0.663,1.491,1.325c0.55,0.664,0.938,1.105,1.161,1.326
				c0.439-0.885,1.6-1.822,3.48-2.817c1.875-0.994,3.258-1.384,4.144-1.16c0.44,0.218,1.932,0.829,4.475,1.823
				c2.538,0.994,4.03,1.71,4.476,2.154l5.304-5.303c0.663-0.664,1.435-0.166,2.32,1.49c0.881,1.657,1.544,2.486,1.989,2.486h0.663
				c1.988-1.108,3.48-2.047,4.475-2.817c0.995-0.776,2.704-1.159,5.139-1.159h0.663c0.217,0.217,0.828,0.713,1.823,1.49
				c0.994,0.771,1.709,1.16,2.154,1.16c0.44,0,0.938-0.331,1.492-0.994c0.549-0.663,0.828-1.218,0.828-1.656
				c2.652,1.543,3.979,3.313,3.979,5.303c0,1.326-0.446,2.207-1.326,2.651c-0.886,0.44-1.326,1.435-1.326,2.983v0.994
				c0,0.218,0.108,0.55,0.331,0.994c0.44-1.107,1.27-1.988,2.486-2.651c1.212-0.662,2.372-1.108,3.48-1.325
				c-0.445-0.445-0.828-1.439-1.16-2.982c-0.331-1.549-0.279-2.652,0.166-3.315c0.218-0.444,0.994-0.994,2.32-1.657
				c1.326-0.662,2.207-0.994,2.652-0.994c1.326,1.104,2.098,2.207,2.32,3.314c0.218,1.104,1.104,1.768,2.652,1.988
				c0.439-0.662,0.938-1.492,1.491-2.485c0.549-0.994,1.16-1.492,1.823-1.492h0.663c0.218,0.218,0.497,0.44,0.829,0.663
				c0.331,0.219,0.497,0.439,0.497,0.663c0.88,0.881,1.325,1.767,1.325,2.651l-3.646,6.299c-0.224,0.218-0.166,0.496,0.165,0.828
				c0.332,0.332,0.606,0.498,0.829,0.498h1.326v-0.332c1.988,0,3.589-0.389,4.807-1.16c1.212-0.776,2.429-1.657,3.646-2.651
				c1.212-0.993,2.372-1.88,3.48-2.651c1.104-0.776,2.538-1.16,4.31-1.16c0.217,0,0.663,0.496,1.325,1.492
				c0.663,0.994,1.326,2.098,1.989,3.313c0.663,1.212,1.212,2.372,1.657,3.479c0.44,1.104,0.663,1.875,0.663,2.321h0.663h0.663
				c0.218-0.223,0.331-0.663,0.331-1.325v-9.283c0.44,0,0.772,0.109,0.995,0.332c2.429,1.767,4.361,3.48,5.801,5.139
				c1.435,1.656,3.921,2.486,7.459,2.486c0.44,0,1.212-0.332,2.32-0.994c1.104-0.664,1.875-1.219,2.32-1.658
				c0,0.881,0.383,1.768,1.16,2.652c0.771,0.881,1.709,1.326,2.817,1.326c0-0.224,0.109-0.445,0.332-0.664l0.663-0.662
				c0.217-0.445,0.44-1.492,0.663-3.149c0.217-1.657,0.439-2.709,0.662-3.149c0.218,0,0.663-0.057,1.326-0.164
				c0.663-0.115,1.104-0.166,1.326-0.166c1.989,0,3.755,0.496,5.304,1.492c1.544,0.993,3.315,1.49,5.304,1.49
				c0.881,0,1.544-0.223,1.989-0.663c0.44-0.444,0.549-1.549,0.332-3.313c0.662,1.766,1.377,2.869,2.154,3.313
				c0.771,0.44,1.822,0.663,3.148,0.663c1.325,0,2.206-0.279,2.651-0.829c0.439-0.554,1.212-0.827,2.32-0.827
				c0.881,0,1.988,0.827,3.314,2.485c1.326,1.657,2.595,3.532,3.812,5.635c1.213,2.099,2.264,4.195,3.148,6.298
				c0.881,2.098,1.326,3.59,1.326,4.475c0,0.219-0.057,0.716-0.166,1.492c-0.113,0.772-0.165,1.379-0.165,1.824
				c-1.771,0.217-2.983,1.045-3.646,2.485c-0.663,1.435-1.55,2.595-2.652,3.479l-2.651-7.623c-3.314,2.429-5.915,6.019-7.79,10.772
				c-1.881,4.75-2.817,9.002-2.817,12.763c-2.212,0-3.48-0.83-3.812-2.486c-0.332-1.658-0.721-3.481-1.161-5.471h-0.331
				c-0.663,0-1.217,0.383-1.656,1.16c-0.445,0.771-0.887,1.657-1.326,2.652c-0.445,0.994-0.942,1.875-1.492,2.652
				c-0.554,0.771-1.383,1.16-2.485,1.16c-4.424,0-8.897-0.611-13.426-1.824c-4.532-1.217-8.898-1.822-13.094-1.822
				c-0.886,0-1.605,0.166-2.155,0.498c-0.554,0.332-1.273,0.496-2.154,0.496c-2.652,0-5.47-0.387-8.453-1.159
				c-2.983-0.776-5.692-1.16-8.121-1.16c-0.445,0-1.771,0.166-3.979,0.497c-2.211,0.332-3.537,0.605-3.978,0.829h-0.663h-0.331
				c-0.446-0.224-1.161-0.497-2.155-0.829c-0.994-0.332-1.605-0.497-1.823-0.497c-0.223,0-0.663,0.218-1.326,0.663
				c-0.662,0.439-1.108,0.663-1.325,0.663c-1.108,0-1.989-1.108-2.652-3.313c-0.663-2.213-1.88-3.315-3.646-3.315l-0.663,0.663
				l-0.663,0.662c-0.223,0.219-0.497,0.384-0.828,0.498c-0.332,0.108-0.721,0.383-1.16,0.828c-0.663,0.217-1.218,0.549-1.658,0.994
				h-0.331l-0.663,0.332l-0.663-0.332c-0.445-0.886-0.663-1.822-0.663-2.816c0-0.995-0.554-1.715-1.657-2.155
				c-1.108,0.44-1.657,1.326-1.657,2.651c0,1.326,0.549,2.652,1.657,3.979c-0.445,0.217-1.108,0.497-1.989,0.829
				c-0.886,0.332-1.549,0.497-1.988,0.497l-1.326-0.663l-1.326-0.663c-0.223-0.223-0.445-0.332-0.663-0.332h-0.663l-0.994,0.332
				l-1.326,1.326c-2.435,0-4.755-0.497-6.961-1.492c-2.212-0.994-4.424-1.492-6.63-1.492c-1.108,0-1.771,0.275-1.989,0.829
				c-0.223,0.55-0.886,0.829-1.989,0.829h-0.331c-0.223-0.223-0.497-0.497-0.829-0.829c-0.331-0.331-0.497-0.61-0.497-0.829
				c-0.445,2.207-1.491,3.424-3.149,3.646c-1.657,0.218-3.148,0.332-4.475,0.332c-2.435,0-4.424-0.663-5.967-1.989
				c-1.549-1.325-2.543-3.206-2.983-5.635l0.663-1.326c0.217-0.444,0.44-0.776,0.663-0.995v-2.982c0-1.99-0.611-3.264-1.823-3.812
				c-1.218-0.555-2.652-1.16-4.31-1.822c-1.658-0.664-3.264-1.715-4.807-3.15c-1.549-1.439-2.652-4.034-3.315-7.789l0.663-1.326
				c0.218-0.445,0.44-0.777,0.663-0.995c0-0.444-0.166-0.942-0.497-1.491c-0.331-0.555-0.611-0.943-0.829-1.16
				c0.44,0,1.104-0.166,1.989-0.498c0.881-0.332,1.435-0.61,1.657-0.828l0.332-0.664l-0.332-0.662
				c-0.223-0.223-0.663-0.445-1.325-0.663c-0.663-0.224-0.995-0.445-0.995-0.663v-0.331H170.719z M189.614-122.296
				c1.543,0,2.538-0.554,2.983-1.657h-1.326c-1.549,0-2.435,0.549-2.652,1.657H189.614z M192.598-155.775
				c-0.445,0-0.663,0.273-0.663,0.828c0,0.549,0.218,0.715,0.663,0.498C193.478-154.895,193.478-155.336,192.598-155.775z
				 M193.592-126.273h1.326v-1.326L193.592-126.273z M202.542-127.599h0.994h0.332c0.44-0.224,0.938-0.446,1.491-0.663
				c0.55-0.223,0.938-0.445,1.16-0.663c-0.445-0.886-0.942-1.771-1.491-2.651c-0.555-0.887-1.383-1.326-2.486-1.326V-127.599
				L202.542-127.599z M229.062-160.914c0-0.777-0.223-1.16-0.663-1.16c-0.663,0-0.994,0.383-0.994,1.16
				c0,0.771,0.331,1.16,0.994,1.16C228.839-159.754,229.062-160.143,229.062-160.914z M243.315-126.273
				c0-0.887-0.331-1.326-0.994-1.326c-0.445,0-0.663,0.439-0.663,1.326c0,0.879,0.218,1.326,0.663,1.326
				C242.984-124.947,243.315-125.393,243.315-126.273z M243.647-133.898h2.651c0-1.988-0.886-2.982-2.651-2.982V-133.898z
				 M248.619-126.273c0-0.887-0.445-1.326-1.325-1.326c-0.446,0-0.663,0.439-0.663,1.326c0,0.879,0.217,1.326,0.663,1.326
				C248.174-124.947,248.619-125.393,248.619-126.273z M250.939-140.361c0-0.996-0.223-1.492-0.662-1.492
				c-0.663,0-0.995,0.496-0.995,1.492c0,0.994,0.332,1.492,0.995,1.492C250.717-138.869,250.939-139.367,250.939-140.361z
				 M253.923-149.479l-1.325-1.325c-0.886,0.663-1.326,1.657-1.326,2.983C252.375-147.82,253.261-148.375,253.923-149.479z
				 M253.923-153.124c-0.445-0.223-0.662-0.057-0.662,0.497c0,0.549,0.217,0.829,0.662,0.829
				C254.804-152.244,254.804-152.684,253.923-153.124z M255.249-126.273h2.652c0.218,0,0.497-0.664,0.828-1.989
				c0.332-1.326,0.498-2.435,0.498-3.315c0-1.107-0.389-1.937-1.16-2.486c-0.777-0.553-1.715-0.828-2.818-0.828V-126.273z
				 M262.874-151.798c0.217-0.224,0.497-0.444,0.828-0.663c0.332-0.223,0.497-0.445,0.497-0.663v-0.663v-0.662
				c0-0.887-0.445-1.326-1.325-1.326V-151.798z M280.774-151.798h1.326v-2.651h-1.326V-151.798z M293.371-151.964
				c0-0.776-0.332-1.16-0.995-1.16c-0.662,0-0.994,0.384-0.994,1.16c0,0.771,0.332,1.16,0.994,1.16
				C293.039-150.804,293.371-151.193,293.371-151.964z M302.652-133.898h0.663h0.663c0.218-0.223,0.44-0.662,0.663-1.325
				c0.218-0.663,0.331-1.108,0.331-1.326c0-0.444-0.279-0.776-0.828-0.994c-0.555-0.224-1.052-0.332-1.492-0.332V-133.898
				L302.652-133.898z M304.642-125.113c0-0.776-0.223-1.16-0.663-1.16c-0.663,0-0.994,0.384-0.994,1.16
				c0,0.772,0.331,1.16,0.994,1.16C304.419-123.953,304.642-124.341,304.642-125.113z M304.973-131.576
				c-0.445,0-0.663,0.273-0.663,0.828c0,0.549,0.218,0.829,0.663,0.829C306.076-130.365,306.076-130.914,304.973-131.576z
				 M315.746-149.312c0.109-0.553,0.166-1.051,0.166-1.491c0-1.108-0.331-2.269-0.993-3.479c-0.663-1.219-1.881-1.824-3.646-1.824
				c0,1.326,0.383,2.761,1.16,4.31c0.771,1.543,1.823,2.761,3.148,3.646C315.581-148.375,315.633-148.763,315.746-149.312z
				 M322.542-144.174c0-0.663-0.223-1.107-0.662-1.326c-0.445-0.223-0.663,0.219-0.663,1.326c0,1.104,0.218,1.543,0.663,1.326
				C322.319-143.07,322.542-143.511,322.542-144.174z"/>
			<path fill="#EC008C" d="M1.326-158.759v-0.994c0.44-1.325,1.16-3.149,2.155-5.47c0.994-2.32,1.6-3.48,1.823-3.48h1.657
				c0,1.104,0.383,2.264,1.16,3.48c0.771,1.212,1.709,1.822,2.817,1.822h0.332c0.217-0.223,0.715-0.662,1.491-1.326
				c0.771-0.662,1.27-1.107,1.492-1.325h0.331h0.663c0.44,0.218,0.938,0.663,1.491,1.325c0.55,0.664,0.938,1.105,1.161,1.326
				c0.439-0.885,1.6-1.822,3.48-2.817c1.875-0.994,3.258-1.384,4.144-1.16c0.44,0.218,1.932,0.829,4.475,1.823
				c2.538,0.994,4.03,1.71,4.476,2.154l5.304-5.303c0.663-0.664,1.435-0.166,2.32,1.49c0.881,1.657,1.544,2.486,1.989,2.486h0.663
				c1.988-1.108,3.48-2.047,4.475-2.817c0.995-0.776,2.704-1.159,5.139-1.159h0.663c0.217,0.217,0.828,0.713,1.823,1.49
				c0.994,0.771,1.709,1.16,2.154,1.16c0.44,0,0.938-0.331,1.492-0.994c0.549-0.663,0.828-1.218,0.828-1.656
				c2.652,1.543,3.979,3.313,3.979,5.303c0,1.326-0.446,2.207-1.326,2.651c-0.886,0.44-1.326,1.435-1.326,2.983v0.994
				c0,0.218,0.108,0.55,0.331,0.994c0.44-1.107,1.27-1.988,2.486-2.651c1.212-0.662,2.372-1.108,3.48-1.325
				c-0.445-0.445-0.828-1.439-1.16-2.982c-0.331-1.549-0.279-2.652,0.166-3.315c0.218-0.444,0.994-0.994,2.32-1.657
				c1.326-0.662,2.207-0.994,2.652-0.994c1.326,1.104,2.098,2.207,2.32,3.314c0.218,1.104,1.104,1.768,2.652,1.988
				c0.439-0.662,0.938-1.492,1.491-2.485c0.549-0.994,1.16-1.492,1.823-1.492h0.663c0.218,0.218,0.497,0.44,0.829,0.663
				c0.331,0.219,0.497,0.439,0.497,0.663c0.88,0.881,1.325,1.767,1.325,2.651l-3.646,6.299c-0.224,0.218-0.166,0.496,0.165,0.828
				c0.332,0.332,0.606,0.498,0.829,0.498H83.2v-0.332c1.988,0,3.589-0.389,4.807-1.16c1.212-0.776,2.429-1.657,3.646-2.651
				c1.212-0.993,2.372-1.88,3.48-2.651c1.104-0.776,2.538-1.16,4.31-1.16c0.217,0,0.663,0.496,1.325,1.492
				c0.663,0.994,1.326,2.098,1.989,3.313c0.663,1.212,1.212,2.372,1.657,3.479c0.44,1.104,0.663,1.875,0.663,2.321h0.663h0.663
				c0.218-0.223,0.331-0.663,0.331-1.325v-9.283c0.44,0,0.772,0.109,0.995,0.332c2.429,1.767,4.361,3.48,5.801,5.139
				c1.435,1.656,3.921,2.486,7.459,2.486c0.44,0,1.212-0.332,2.32-0.994c1.104-0.664,1.875-1.219,2.32-1.658
				c0,0.881,0.383,1.768,1.16,2.652c0.771,0.881,1.709,1.326,2.817,1.326c0-0.224,0.109-0.445,0.332-0.664l0.663-0.662
				c0.217-0.445,0.44-1.492,0.663-3.149c0.217-1.657,0.439-2.709,0.662-3.149c0.218,0,0.663-0.057,1.326-0.164
				c0.663-0.115,1.104-0.166,1.326-0.166c1.989,0,3.755,0.496,5.304,1.492c1.544,0.993,3.315,1.49,5.304,1.49
				c0.881,0,1.544-0.223,1.989-0.663c0.44-0.444,0.549-1.549,0.332-3.313c0.662,1.766,1.377,2.869,2.154,3.313
				c0.771,0.44,1.823,0.663,3.149,0.663c1.325,0,2.206-0.279,2.651-0.829c0.44-0.554,1.212-0.827,2.32-0.827
				c0.881,0,1.989,0.827,3.315,2.485c1.326,1.657,2.595,3.532,3.812,5.635c1.213,2.099,2.264,4.195,3.149,6.298
				c0.881,2.098,1.326,3.59,1.326,4.475c0,0.219-0.057,0.716-0.166,1.492c-0.113,0.772-0.165,1.379-0.165,1.824
				c-1.771,0.217-2.983,1.045-3.646,2.485c-0.663,1.435-1.549,2.595-2.652,3.479l-2.651-7.623c-3.315,2.429-5.915,6.019-7.79,10.772
				c-1.881,4.75-2.818,9.002-2.818,12.763c-2.212,0-3.48-0.83-3.812-2.486c-0.332-1.658-0.721-3.481-1.161-5.471h-0.331
				c-0.663,0-1.217,0.383-1.657,1.16c-0.445,0.771-0.886,1.657-1.326,2.652c-0.445,0.994-0.942,1.875-1.492,2.652
				c-0.554,0.771-1.383,1.16-2.485,1.16c-4.424,0-8.898-0.611-13.426-1.824c-4.532-1.217-8.898-1.822-13.094-1.822
				c-0.886,0-1.605,0.166-2.155,0.498c-0.554,0.332-1.273,0.496-2.154,0.496c-2.652,0-5.47-0.387-8.453-1.159
				c-2.983-0.776-5.692-1.16-8.121-1.16c-0.445,0-1.771,0.166-3.979,0.497c-2.211,0.332-3.537,0.605-3.978,0.829h-0.663h-0.331
				c-0.446-0.224-1.161-0.497-2.155-0.829c-0.994-0.332-1.605-0.497-1.823-0.497c-0.223,0-0.663,0.218-1.326,0.663
				c-0.662,0.439-1.108,0.663-1.325,0.663c-1.108,0-1.989-1.108-2.652-3.313c-0.663-2.213-1.88-3.315-3.646-3.315l-0.663,0.663
				l-0.663,0.662c-0.223,0.219-0.497,0.384-0.828,0.498c-0.332,0.108-0.721,0.383-1.16,0.828c-0.663,0.217-1.218,0.549-1.658,0.994
				h-0.331l-0.663,0.332l-0.663-0.332c-0.445-0.886-0.663-1.822-0.663-2.816c0-0.995-0.554-1.715-1.657-2.155
				c-1.108,0.44-1.657,1.326-1.657,2.651c0,1.326,0.549,2.652,1.657,3.979c-0.445,0.217-1.108,0.497-1.989,0.829
				c-0.886,0.332-1.549,0.497-1.988,0.497l-1.326-0.663l-1.326-0.663c-0.223-0.223-0.445-0.332-0.663-0.332H51.05l-0.994,0.332
				l-1.326,1.326c-2.435,0-4.755-0.497-6.961-1.492c-2.212-0.994-4.424-1.492-6.63-1.492c-1.108,0-1.771,0.275-1.989,0.829
				c-0.223,0.55-0.886,0.829-1.989,0.829H30.83c-0.223-0.223-0.497-0.497-0.829-0.829c-0.331-0.331-0.497-0.61-0.497-0.829
				c-0.445,2.207-1.491,3.424-3.149,3.646c-1.657,0.218-3.148,0.332-4.475,0.332c-2.435,0-4.424-0.663-5.967-1.989
				c-1.549-1.325-2.543-3.206-2.983-5.635l0.663-1.326c0.217-0.444,0.44-0.776,0.663-0.995v-2.982c0-1.99-0.611-3.264-1.823-3.812
				c-1.218-0.555-2.652-1.16-4.31-1.822c-1.658-0.664-3.264-1.715-4.807-3.15c-1.549-1.439-2.652-4.034-3.315-7.789l0.663-1.326
				c0.218-0.445,0.44-0.777,0.663-0.995c0-0.444-0.166-0.942-0.497-1.491c-0.332-0.555-0.612-0.943-0.83-1.16
				c0.44,0,1.104-0.166,1.989-0.498c0.881-0.332,1.435-0.611,1.657-0.828l0.332-0.664l-0.332-0.662
				c-0.223-0.223-0.663-0.445-1.325-0.663c-0.663-0.224-0.995-0.445-0.995-0.663V-158.759z M20.222-122.296
				c1.543,0,2.538-0.554,2.983-1.657h-1.326c-1.549,0-2.435,0.549-2.652,1.657H20.222z M23.205-155.775
				c-0.445,0-0.663,0.273-0.663,0.828c0,0.549,0.218,0.715,0.663,0.498C24.085-154.895,24.085-155.336,23.205-155.775z
				 M24.199-126.273h1.326v-1.326L24.199-126.273z M33.149-127.599h0.994h0.332c0.44-0.224,0.938-0.446,1.491-0.663
				c0.55-0.223,0.938-0.445,1.16-0.663c-0.445-0.886-0.942-1.771-1.491-2.651c-0.555-0.887-1.383-1.326-2.486-1.326V-127.599z
				 M59.669-160.914c0-0.777-0.223-1.16-0.663-1.16c-0.663,0-0.994,0.383-0.994,1.16c0,0.771,0.331,1.16,0.994,1.16
				C59.446-159.754,59.669-160.143,59.669-160.914z M73.923-126.273c0-0.887-0.331-1.326-0.994-1.326
				c-0.445,0-0.663,0.439-0.663,1.326c0,0.879,0.218,1.326,0.663,1.326C73.592-124.947,73.923-125.393,73.923-126.273z
				 M74.255-133.898h2.651c0-1.988-0.886-2.982-2.651-2.982V-133.898z M79.227-126.273c0-0.887-0.445-1.326-1.325-1.326
				c-0.446,0-0.663,0.439-0.663,1.326c0,0.879,0.217,1.326,0.663,1.326C78.781-124.947,79.227-125.393,79.227-126.273z
				 M81.547-140.361c0-0.996-0.223-1.492-0.662-1.492c-0.663,0-0.995,0.496-0.995,1.492c0,0.994,0.332,1.492,0.995,1.492
				C81.324-138.869,81.547-139.367,81.547-140.361z M84.53-149.479l-1.325-1.325c-0.886,0.663-1.326,1.657-1.326,2.983
				C82.982-147.82,83.868-148.375,84.53-149.479z M84.53-153.124c-0.445-0.223-0.662-0.057-0.662,0.497
				c0,0.549,0.217,0.829,0.662,0.829C85.411-152.244,85.411-152.684,84.53-153.124z M85.856-126.273h2.652
				c0.218,0,0.497-0.664,0.828-1.989c0.332-1.326,0.498-2.435,0.498-3.315c0-1.107-0.389-1.937-1.16-2.486
				c-0.777-0.553-1.715-0.828-2.818-0.828V-126.273z M93.481-151.798c0.217-0.224,0.497-0.444,0.828-0.663
				c0.332-0.223,0.497-0.445,0.497-0.663v-0.663v-0.662c0-0.887-0.445-1.326-1.325-1.326V-151.798z M111.382-151.798h1.326v-2.651
				h-1.326V-151.798z M123.979-151.964c0-0.776-0.332-1.16-0.995-1.16c-0.662,0-0.994,0.384-0.994,1.16
				c0,0.771,0.332,1.16,0.994,1.16S123.979-151.193,123.979-151.964z M133.26-133.898h0.663h0.663
				c0.218-0.223,0.44-0.662,0.663-1.325c0.218-0.663,0.331-1.108,0.331-1.326c0-0.444-0.279-0.776-0.828-0.994
				c-0.555-0.224-1.052-0.332-1.492-0.332V-133.898L133.26-133.898z M135.249-125.113c0-0.776-0.223-1.16-0.663-1.16
				c-0.663,0-0.994,0.384-0.994,1.16c0,0.772,0.331,1.16,0.994,1.16C135.026-123.953,135.249-124.341,135.249-125.113z
				 M135.58-131.576c-0.445,0-0.663,0.273-0.663,0.828c0,0.549,0.218,0.829,0.663,0.829
				C136.684-130.365,136.684-130.914,135.58-131.576z M146.354-149.312c0.109-0.553,0.166-1.051,0.166-1.491
				c0-1.108-0.331-2.269-0.994-3.479c-0.663-1.219-1.88-1.824-3.646-1.824c0,1.326,0.383,2.761,1.16,4.31
				c0.771,1.543,1.823,2.761,3.149,3.646C146.188-148.375,146.24-148.763,146.354-149.312z M153.149-144.174
				c0-0.663-0.223-1.107-0.663-1.326c-0.445-0.223-0.663,0.219-0.663,1.326c0,1.104,0.218,1.543,0.663,1.326
				C152.927-143.07,153.149-143.511,153.149-144.174z"/>
			<path fill="#EC008C" d="M86.022-119.762v-0.994c0.44-1.326,1.16-3.148,2.155-5.471c0.994-2.319,1.6-3.479,1.823-3.479h1.657
				c0,1.103,0.383,2.263,1.16,3.479c0.771,1.213,1.709,1.824,2.817,1.824h0.332c0.217-0.224,0.715-0.664,1.491-1.326
				c0.771-0.664,1.27-1.108,1.492-1.326h0.331h0.663c0.44,0.217,0.938,0.662,1.491,1.326c0.55,0.662,0.938,1.104,1.161,1.326
				c0.439-0.887,1.6-1.824,3.48-2.818c1.875-0.994,3.258-1.383,4.144-1.16c0.44,0.219,1.932,0.829,4.475,1.822
				c2.538,0.996,4.03,1.709,4.476,2.156l5.304-5.305c0.663-0.662,1.435-0.166,2.32,1.492c0.881,1.656,1.544,2.486,1.989,2.486h0.663
				c1.988-1.108,3.48-2.047,4.475-2.817c0.995-0.776,2.704-1.16,5.139-1.16h0.663c0.217,0.218,0.828,0.714,1.823,1.492
				c0.994,0.771,1.709,1.16,2.154,1.16c0.44,0,0.938-0.332,1.492-0.995c0.549-0.663,0.828-1.217,0.828-1.657
				c2.652,1.544,3.979,3.315,3.979,5.304c0,1.326-0.446,2.207-1.326,2.652c-0.886,0.439-1.326,1.436-1.326,2.982v0.996
				c0,0.217,0.108,0.549,0.331,0.994c0.44-1.108,1.27-1.99,2.486-2.652c1.212-0.663,2.372-1.107,3.48-1.326
				c-0.445-0.445-0.828-1.439-1.16-2.982c-0.331-1.549-0.279-2.652,0.166-3.315c0.218-0.446,0.994-0.995,2.32-1.658
				c1.326-0.663,2.207-0.994,2.652-0.994c1.326,1.103,2.098,2.206,2.32,3.315c0.218,1.104,1.104,1.766,2.652,1.988
				c0.439-0.662,0.938-1.492,1.491-2.485c0.549-0.994,1.16-1.492,1.823-1.492h0.663c0.218,0.218,0.497,0.44,0.829,0.663
				c0.331,0.217,0.497,0.439,0.497,0.663c0.88,0.88,1.325,1.767,1.325,2.651l-3.646,6.299c-0.224,0.217-0.166,0.496,0.165,0.828
				c0.332,0.332,0.606,0.498,0.829,0.498h1.326v-0.332c1.988,0,3.589-0.389,4.807-1.16c1.212-0.777,2.429-1.657,3.646-2.652
				c1.212-0.994,2.372-1.88,3.48-2.652c1.104-0.777,2.538-1.16,4.31-1.16c0.217,0,0.663,0.498,1.325,1.492
				c0.663,0.996,1.326,2.098,1.989,3.315c0.663,1.212,1.212,2.372,1.657,3.479c0.44,1.104,0.663,1.875,0.663,2.321h0.663h0.663
				c0.218-0.224,0.331-0.663,0.331-1.325v-9.283c0.44,0,0.772,0.109,0.995,0.332c2.429,1.767,4.361,3.48,5.801,5.139
				c1.435,1.656,3.921,2.486,7.459,2.486c0.44,0,1.212-0.332,2.32-0.994c1.104-0.664,1.875-1.217,2.32-1.658
				c0,0.881,0.383,1.768,1.16,2.652c0.771,0.881,1.709,1.326,2.817,1.326c0-0.224,0.109-0.445,0.332-0.664l0.663-0.662
				c0.217-0.445,0.44-1.492,0.663-3.149c0.217-1.657,0.439-2.709,0.662-3.149c0.218,0,0.663-0.057,1.326-0.166
				c0.663-0.113,1.104-0.166,1.326-0.166c1.989,0,3.755,0.498,5.304,1.492c1.544,0.994,3.315,1.492,5.304,1.492
				c0.881,0,1.544-0.223,1.989-0.663c0.44-0.444,0.549-1.549,0.332-3.315c0.662,1.767,1.377,2.871,2.154,3.315
				c0.771,0.44,1.823,0.663,3.149,0.663c1.325,0,2.206-0.279,2.651-0.829c0.44-0.554,1.212-0.829,2.32-0.829
				c0.881,0,1.989,0.829,3.315,2.486c1.326,1.656,2.595,3.531,3.812,5.635c1.213,2.098,2.264,4.195,3.149,6.299
				c0.881,2.098,1.326,3.588,1.326,4.475c0,0.218-0.057,0.715-0.166,1.492c-0.113,0.771-0.165,1.377-0.165,1.822
				c-1.771,0.219-2.983,1.047-3.646,2.486c-0.663,1.436-1.549,2.595-2.652,3.48l-2.651-7.625c-3.315,2.43-5.915,6.02-7.79,10.773
				c-1.881,4.75-2.818,9.002-2.818,12.762c-2.212,0-3.48-0.828-3.812-2.486s-0.721-3.48-1.161-5.469h-0.331
				c-0.663,0-1.217,0.383-1.657,1.159c-0.445,0.771-0.886,1.657-1.326,2.651c-0.445,0.996-0.942,1.875-1.492,2.652
				c-0.554,0.772-1.383,1.16-2.485,1.16c-4.424,0-8.898-0.611-13.426-1.822c-4.532-1.217-8.898-1.824-13.094-1.824
				c-0.886,0-1.605,0.166-2.155,0.498c-0.554,0.332-1.273,0.498-2.154,0.498c-2.652,0-5.47-0.389-8.453-1.16
				c-2.983-0.777-5.692-1.16-8.121-1.16c-0.445,0-1.771,0.166-3.979,0.497c-2.211,0.332-3.537,0.606-3.978,0.829h-0.663h-0.331
				c-0.446-0.223-1.161-0.497-2.155-0.829s-1.605-0.497-1.823-0.497c-0.223,0-0.663,0.217-1.326,0.663
				c-0.662,0.44-1.108,0.663-1.325,0.663c-1.108,0-1.989-1.108-2.652-3.314c-0.663-2.212-1.88-3.314-3.646-3.314l-0.663,0.662
				l-0.663,0.664c-0.223,0.217-0.497,0.383-0.828,0.496c-0.332,0.109-0.721,0.383-1.16,0.83c-0.663,0.217-1.218,0.549-1.658,0.993
				h-0.331l-0.663,0.332l-0.663-0.332c-0.445-0.886-0.663-1.823-0.663-2.817s-0.554-1.713-1.657-2.154
				c-1.108,0.439-1.657,1.326-1.657,2.652s0.549,2.651,1.657,3.978c-0.445,0.217-1.108,0.497-1.989,0.829
				c-0.886,0.332-1.549,0.497-1.988,0.497l-1.326-0.663l-1.326-0.663c-0.223-0.224-0.445-0.332-0.663-0.332h-0.663l-0.994,0.332
				l-1.326,1.326c-2.435,0-4.755-0.497-6.961-1.492c-2.212-0.994-4.424-1.492-6.63-1.492c-1.108,0-1.771,0.275-1.989,0.829
				c-0.223,0.549-0.886,0.829-1.989,0.829h-0.331c-0.223-0.224-0.497-0.497-0.829-0.829c-0.331-0.332-0.497-0.611-0.497-0.829
				c-0.445,2.207-1.491,3.425-3.149,3.646c-1.657,0.219-3.148,0.332-4.475,0.332c-2.435,0-4.424-0.662-5.967-1.988
				c-1.549-1.326-2.543-3.206-2.983-5.635l0.663-1.326c0.217-0.445,0.44-0.777,0.663-0.995v-2.983c0-1.988-0.611-3.263-1.823-3.812
				c-1.218-0.554-2.652-1.16-4.31-1.823c-1.658-0.662-3.264-1.714-4.807-3.148c-1.549-1.44-2.652-4.035-3.315-7.791l0.663-1.325
				c0.218-0.445,0.44-0.777,0.663-0.995c0-0.445-0.166-0.941-0.497-1.492c-0.331-0.554-0.611-0.941-0.829-1.16
				c0.44,0,1.104-0.166,1.989-0.496c0.881-0.332,1.435-0.611,1.657-0.83l0.332-0.662l-0.332-0.664
				c-0.223-0.223-0.663-0.444-1.325-0.662c-0.663-0.223-0.995-0.445-0.995-0.664v-0.33H86.022z M104.918-83.298
				c1.543,0,2.538-0.554,2.983-1.657h-1.326c-1.549,0-2.435,0.549-2.652,1.657H104.918z M107.901-116.779
				c-0.445,0-0.663,0.275-0.663,0.83c0,0.549,0.218,0.715,0.663,0.496C108.781-115.898,108.781-116.339,107.901-116.779z
				 M108.896-87.275h1.326v-1.326L108.896-87.275z M117.846-88.602h0.994h0.332c0.44-0.223,0.938-0.446,1.491-0.663
				c0.55-0.224,0.938-0.445,1.16-0.663c-0.445-0.887-0.942-1.771-1.491-2.652c-0.555-0.886-1.383-1.326-2.486-1.326V-88.602z
				 M144.365-121.917c0-0.776-0.223-1.161-0.663-1.161c-0.663,0-0.994,0.383-0.994,1.161c0,0.771,0.331,1.16,0.994,1.16
				C144.143-120.757,144.365-121.145,144.365-121.917z M158.619-87.275c0-0.887-0.331-1.326-0.994-1.326
				c-0.445,0-0.663,0.439-0.663,1.326c0,0.879,0.218,1.326,0.663,1.326C158.288-85.949,158.619-86.396,158.619-87.275z
				 M158.951-94.9h2.651c0-1.988-0.886-2.982-2.651-2.982V-94.9z M163.923-87.275c0-0.887-0.445-1.326-1.325-1.326
				c-0.446,0-0.663,0.439-0.663,1.326c0,0.879,0.217,1.326,0.663,1.326C163.478-85.949,163.923-86.396,163.923-87.275z
				 M166.243-101.363c0-0.996-0.223-1.492-0.662-1.492c-0.663,0-0.995,0.496-0.995,1.492c0,0.994,0.332,1.492,0.995,1.492
				C166.021-99.873,166.243-100.369,166.243-101.363z M169.227-110.48l-1.325-1.325c-0.886,0.663-1.326,1.657-1.326,2.983
				C167.679-108.822,168.564-109.377,169.227-110.48z M169.227-114.127c-0.445-0.223-0.662-0.057-0.662,0.497
				c0,0.55,0.217,0.829,0.662,0.829C170.107-113.246,170.107-113.688,169.227-114.127z M170.553-87.275h2.652
				c0.218,0,0.497-0.664,0.828-1.989c0.332-1.326,0.498-2.435,0.498-3.315c0-1.107-0.389-1.938-1.16-2.486
				c-0.777-0.553-1.715-0.828-2.818-0.828V-87.275z M178.178-112.801c0.217-0.223,0.497-0.445,0.828-0.663
				c0.332-0.224,0.497-0.444,0.497-0.663v-0.663v-0.663c0-0.886-0.445-1.326-1.325-1.326V-112.801z M196.078-112.801h1.326v-2.652
				h-1.326V-112.801z M208.675-112.966c0-0.776-0.332-1.16-0.995-1.16c-0.662,0-0.994,0.384-0.994,1.16
				c0,0.771,0.332,1.16,0.994,1.16C208.343-111.806,208.675-112.195,208.675-112.966z M217.956-94.9h0.663h0.663
				c0.218-0.223,0.44-0.662,0.663-1.326c0.218-0.662,0.331-1.107,0.331-1.325c0-0.444-0.279-0.776-0.828-0.994
				c-0.555-0.224-1.052-0.332-1.492-0.332V-94.9L217.956-94.9z M219.945-86.115c0-0.777-0.223-1.16-0.663-1.16
				c-0.663,0-0.994,0.383-0.994,1.16c0,0.771,0.331,1.16,0.994,1.16C219.723-84.955,219.945-85.344,219.945-86.115z M220.276-92.58
				c-0.445,0-0.663,0.274-0.663,0.829c0,0.55,0.218,0.829,0.663,0.829C221.38-91.367,221.38-91.917,220.276-92.58z M231.05-110.314
				c0.109-0.555,0.166-1.051,0.166-1.492c0-1.108-0.331-2.27-0.994-3.48c-0.663-1.217-1.88-1.822-3.646-1.822
				c0,1.326,0.383,2.761,1.16,4.309c0.771,1.543,1.823,2.761,3.149,3.646C230.885-109.377,230.937-109.766,231.05-110.314z
				 M237.846-105.176c0-0.663-0.223-1.107-0.663-1.326c-0.445-0.223-0.663,0.219-0.663,1.326c0,1.104,0.218,1.543,0.663,1.326
				C237.623-104.072,237.846-104.513,237.846-105.176z"/>
			<path fill="#EC008C" d="M170.719-80.765v-0.994c0.44-1.326,1.16-3.149,2.155-5.47c0.994-2.32,1.6-3.48,1.823-3.48h1.657
				c0,1.104,0.383,2.264,1.16,3.48c0.771,1.211,1.709,1.822,2.817,1.822h0.332c0.217-0.223,0.715-0.662,1.491-1.326
				c0.771-0.662,1.27-1.107,1.492-1.326h0.331h0.663c0.44,0.218,0.938,0.664,1.491,1.326c0.55,0.664,0.938,1.104,1.161,1.326
				c0.439-0.886,1.6-1.822,3.48-2.818c1.875-0.993,3.258-1.383,4.144-1.159c0.44,0.218,1.932,0.829,4.475,1.823
				c2.538,0.994,4.03,1.709,4.476,2.154l5.304-5.304c0.663-0.663,1.435-0.166,2.32,1.492c0.881,1.657,1.544,2.485,1.989,2.485h0.663
				c1.988-1.107,3.48-2.045,4.475-2.816c0.995-0.777,2.704-1.16,5.139-1.16h0.663c0.217,0.217,0.828,0.715,1.823,1.492
				c0.994,0.771,1.709,1.16,2.154,1.16c0.44,0,0.938-0.332,1.492-0.995c0.549-0.663,0.828-1.218,0.828-1.657
				c2.652,1.543,3.979,3.314,3.979,5.305c0,1.326-0.446,2.207-1.326,2.651c-0.886,0.44-1.326,1.435-1.326,2.983v0.994
				c0,0.217,0.108,0.549,0.331,0.994c0.44-1.107,1.27-1.988,2.486-2.652c1.212-0.662,2.372-1.107,3.48-1.325
				c-0.445-0.446-0.828-1.44-1.16-2.983c-0.331-1.549-0.279-2.652,0.166-3.314c0.218-0.446,0.994-0.995,2.32-1.658
				s2.207-0.994,2.652-0.994c1.326,1.104,2.098,2.206,2.32,3.314c0.218,1.104,1.104,1.767,2.652,1.99
				c0.439-0.664,0.938-1.492,1.491-2.486c0.549-0.994,1.16-1.492,1.823-1.492h0.663c0.218,0.218,0.497,0.439,0.829,0.663
				c0.331,0.217,0.497,0.44,0.497,0.663c0.88,0.88,1.325,1.766,1.325,2.652l-3.646,6.297c-0.224,0.217-0.166,0.498,0.165,0.83
				c0.332,0.332,0.606,0.496,0.829,0.496h1.326v-0.33c1.988,0,3.589-0.39,4.807-1.162c1.212-0.776,2.429-1.656,3.646-2.651
				c1.212-0.994,2.372-1.88,3.48-2.651c1.104-0.777,2.538-1.16,4.31-1.16c0.217,0,0.663,0.496,1.325,1.492
				c0.663,0.994,1.326,2.098,1.989,3.314c0.663,1.212,1.212,2.371,1.657,3.48c0.44,1.104,0.663,1.875,0.663,2.32h0.663h0.663
				c0.218-0.223,0.331-0.663,0.331-1.326v-9.281c0.44,0,0.772,0.108,0.995,0.332c2.429,1.766,4.361,3.479,5.801,5.137
				c1.435,1.658,3.921,2.486,7.459,2.486c0.44,0,1.212-0.33,2.32-0.994c1.104-0.662,1.875-1.217,2.32-1.658
				c0,0.882,0.383,1.768,1.16,2.652c0.771,0.881,1.709,1.326,2.817,1.326c0-0.223,0.109-0.445,0.332-0.662l0.663-0.664
				c0.217-0.445,0.44-1.492,0.663-3.148c0.217-1.657,0.439-2.709,0.662-3.148c0.218,0,0.663-0.058,1.326-0.166
				c0.663-0.115,1.104-0.166,1.326-0.166c1.989,0,3.755,0.496,5.304,1.491c1.544,0.994,3.315,1.492,5.304,1.492
				c0.881,0,1.544-0.224,1.989-0.663c0.44-0.445,0.549-1.549,0.332-3.314c0.662,1.766,1.377,2.869,2.154,3.314
				c0.771,0.439,1.822,0.663,3.148,0.663c1.325,0,2.206-0.28,2.651-0.829c0.439-0.555,1.212-0.829,2.32-0.829
				c0.881,0,1.988,0.829,3.314,2.485c1.326,1.658,2.595,3.533,3.812,5.636c1.213,2.099,2.264,4.194,3.148,6.298
				c0.881,2.098,1.326,3.59,1.326,4.475c0,0.219-0.057,0.715-0.166,1.492c-0.113,0.772-0.165,1.379-0.165,1.823
				c-1.771,0.218-2.983,1.046-3.646,2.486c-0.663,1.435-1.55,2.595-2.652,3.479l-2.651-7.623c-3.314,2.428-5.915,6.019-7.79,10.772
				c-1.881,4.75-2.817,9.002-2.817,12.762c-2.212,0-3.48-0.829-3.812-2.485c-0.332-1.658-0.721-3.481-1.161-5.471h-0.331
				c-0.663,0-1.217,0.383-1.656,1.16c-0.445,0.771-0.887,1.657-1.326,2.652c-0.445,0.994-0.942,1.875-1.492,2.652
				c-0.554,0.771-1.383,1.16-2.485,1.16c-4.424,0-8.897-0.611-13.426-1.824c-4.532-1.217-8.898-1.822-13.094-1.822
				c-0.886,0-1.605,0.166-2.155,0.498c-0.554,0.332-1.273,0.496-2.154,0.496c-2.652,0-5.47-0.387-8.453-1.16
				c-2.983-0.776-5.692-1.159-8.121-1.159c-0.445,0-1.771,0.166-3.979,0.497c-2.211,0.332-3.537,0.605-3.978,0.828h-0.663h-0.331
				c-0.446-0.223-1.161-0.496-2.155-0.828c-0.994-0.332-1.605-0.497-1.823-0.497c-0.223,0-0.663,0.217-1.326,0.663
				c-0.662,0.439-1.108,0.662-1.325,0.662c-1.108,0-1.989-1.107-2.652-3.313c-0.663-2.212-1.88-3.315-3.646-3.315l-0.663,0.664
				l-0.663,0.662c-0.223,0.219-0.497,0.383-0.828,0.498c-0.332,0.108-0.721,0.383-1.16,0.828c-0.663,0.217-1.218,0.549-1.658,0.994
				h-0.331l-0.663,0.332l-0.663-0.332c-0.445-0.886-0.663-1.822-0.663-2.816c0-0.996-0.554-1.715-1.657-2.156
				c-1.108,0.441-1.657,1.326-1.657,2.652s0.549,2.652,1.657,3.979c-0.445,0.217-1.108,0.497-1.989,0.828
				c-0.886,0.332-1.549,0.498-1.988,0.498l-1.326-0.663l-1.326-0.663c-0.223-0.223-0.445-0.332-0.663-0.332h-0.663l-0.994,0.332
				l-1.326,1.326c-2.435,0-4.755-0.497-6.961-1.492c-2.212-0.994-4.424-1.492-6.63-1.492c-1.108,0-1.771,0.275-1.989,0.829
				c-0.223,0.549-0.886,0.829-1.989,0.829h-0.331c-0.223-0.223-0.497-0.497-0.829-0.829c-0.331-0.332-0.497-0.61-0.497-0.829
				c-0.445,2.207-1.491,3.424-3.149,3.646c-1.657,0.218-3.148,0.332-4.475,0.332c-2.435,0-4.424-0.664-5.967-1.989
				c-1.549-1.326-2.543-3.206-2.983-5.636l0.663-1.326c0.217-0.444,0.44-0.776,0.663-0.994v-2.982c0-1.99-0.611-3.264-1.823-3.812
				c-1.218-0.555-2.652-1.16-4.31-1.823c-1.658-0.663-3.264-1.714-4.807-3.149c-1.549-1.439-2.652-4.035-3.315-7.789l0.663-1.326
				c0.218-0.445,0.44-0.777,0.663-0.995c0-0.445-0.166-0.942-0.497-1.492c-0.331-0.554-0.611-0.942-0.829-1.16
				c0.44,0,1.104-0.166,1.989-0.497c0.881-0.332,1.435-0.611,1.657-0.828l0.332-0.664l-0.332-0.662
				c-0.223-0.224-0.663-0.445-1.325-0.664c-0.663-0.223-0.995-0.444-0.995-0.662v-0.331H170.719z M189.614-44.3
				c1.543,0,2.538-0.554,2.983-1.658h-1.326c-1.549,0-2.435,0.55-2.652,1.658H189.614z M192.598-77.781
				c-0.445,0-0.663,0.275-0.663,0.83c0,0.549,0.218,0.715,0.663,0.496C193.478-76.9,193.478-77.341,192.598-77.781z M193.592-48.277
				h1.326v-1.326L193.592-48.277z M202.542-49.604h0.994h0.332c0.44-0.223,0.938-0.446,1.491-0.664
				c0.55-0.223,0.938-0.444,1.16-0.662c-0.445-0.887-0.942-1.771-1.491-2.652c-0.555-0.886-1.383-1.326-2.486-1.326V-49.604
				L202.542-49.604z M229.062-82.919c0-0.776-0.223-1.161-0.663-1.161c-0.663,0-0.994,0.383-0.994,1.161
				c0,0.771,0.331,1.16,0.994,1.16C228.839-81.759,229.062-82.148,229.062-82.919z M243.315-48.277c0-0.887-0.331-1.326-0.994-1.326
				c-0.445,0-0.663,0.439-0.663,1.326c0,0.879,0.218,1.326,0.663,1.326C242.984-46.951,243.315-47.398,243.315-48.277z
				 M243.647-55.902h2.651c0-1.99-0.886-2.983-2.651-2.983V-55.902z M248.619-48.277c0-0.887-0.445-1.326-1.325-1.326
				c-0.446,0-0.663,0.439-0.663,1.326c0,0.879,0.217,1.326,0.663,1.326C248.174-46.951,248.619-47.398,248.619-48.277z
				 M250.939-62.367c0-0.994-0.223-1.492-0.662-1.492c-0.663,0-0.995,0.498-0.995,1.492c0,0.996,0.332,1.492,0.995,1.492
				C250.717-60.875,250.939-61.371,250.939-62.367z M253.923-71.482l-1.325-1.326c-0.886,0.662-1.326,1.656-1.326,2.982
				C252.375-69.824,253.261-70.38,253.923-71.482z M253.923-75.129c-0.445-0.223-0.662-0.057-0.662,0.497
				c0,0.549,0.217,0.829,0.662,0.829C254.804-74.249,254.804-74.689,253.923-75.129z M255.249-48.277h2.652
				c0.218,0,0.497-0.664,0.828-1.99c0.332-1.325,0.498-2.434,0.498-3.314c0-1.107-0.389-1.938-1.16-2.486
				c-0.777-0.553-1.715-0.828-2.818-0.828V-48.277z M262.874-73.803c0.217-0.223,0.497-0.445,0.828-0.663
				c0.332-0.224,0.497-0.444,0.497-0.663v-0.663v-0.663c0-0.886-0.445-1.326-1.325-1.326V-73.803z M280.774-73.803h1.326v-2.652
				h-1.326V-73.803z M293.371-73.969c0-0.777-0.332-1.16-0.995-1.16c-0.662,0-0.994,0.383-0.994,1.16c0,0.771,0.332,1.16,0.994,1.16
				C293.039-72.809,293.371-73.197,293.371-73.969z M302.652-55.902h0.663h0.663c0.218-0.224,0.44-0.664,0.663-1.326
				c0.218-0.664,0.331-1.108,0.331-1.326c0-0.445-0.279-0.777-0.828-0.994c-0.555-0.223-1.052-0.332-1.492-0.332V-55.902
				L302.652-55.902z M304.642-47.117c0-0.777-0.223-1.16-0.663-1.16c-0.663,0-0.994,0.383-0.994,1.16
				c0,0.771,0.331,1.159,0.994,1.159C304.419-45.958,304.642-46.346,304.642-47.117z M304.973-53.582
				c-0.445,0-0.663,0.273-0.663,0.829c0,0.55,0.218,0.829,0.663,0.829C306.076-52.369,306.076-52.919,304.973-53.582z
				 M315.746-71.316c0.109-0.555,0.166-1.051,0.166-1.492c0-1.108-0.331-2.27-0.993-3.48c-0.663-1.217-1.881-1.822-3.646-1.822
				c0,1.326,0.383,2.76,1.16,4.309c0.771,1.543,1.823,2.761,3.148,3.646C315.581-70.38,315.633-70.768,315.746-71.316z
				 M322.542-66.179c0-0.663-0.223-1.108-0.662-1.326c-0.445-0.224-0.663,0.218-0.663,1.326c0,1.103,0.218,1.543,0.663,1.325
				C322.319-65.076,322.542-65.516,322.542-66.179z"/>
			<path fill="#EC008C" d="M1.326-80.765v-0.994c0.44-1.326,1.16-3.149,2.155-5.47c0.994-2.32,1.6-3.48,1.823-3.48h1.657
				c0,1.104,0.383,2.264,1.16,3.48c0.771,1.211,1.709,1.822,2.817,1.822h0.332c0.217-0.223,0.715-0.662,1.491-1.326
				c0.771-0.662,1.27-1.107,1.492-1.326h0.331h0.663c0.44,0.218,0.938,0.664,1.491,1.326c0.55,0.664,0.938,1.104,1.161,1.326
				c0.439-0.886,1.6-1.822,3.48-2.818c1.875-0.993,3.258-1.383,4.144-1.159c0.44,0.218,1.932,0.829,4.475,1.823
				c2.538,0.994,4.03,1.709,4.476,2.154l5.304-5.304c0.663-0.663,1.435-0.166,2.32,1.492c0.881,1.657,1.544,2.485,1.989,2.485h0.663
				c1.988-1.107,3.48-2.045,4.475-2.816c0.995-0.777,2.704-1.16,5.139-1.16h0.663c0.217,0.217,0.828,0.715,1.823,1.492
				c0.994,0.771,1.709,1.16,2.154,1.16c0.44,0,0.938-0.332,1.492-0.995c0.549-0.663,0.828-1.218,0.828-1.657
				c2.652,1.543,3.979,3.314,3.979,5.305c0,1.326-0.446,2.207-1.326,2.651c-0.886,0.44-1.326,1.435-1.326,2.983v0.994
				c0,0.217,0.108,0.549,0.331,0.994c0.44-1.107,1.27-1.988,2.486-2.652c1.212-0.662,2.372-1.107,3.48-1.325
				c-0.445-0.446-0.828-1.44-1.16-2.983c-0.331-1.549-0.279-2.652,0.166-3.314c0.218-0.446,0.994-0.995,2.32-1.658
				s2.207-0.994,2.652-0.994c1.326,1.104,2.098,2.206,2.32,3.314c0.218,1.104,1.104,1.767,2.652,1.99
				c0.439-0.664,0.938-1.492,1.491-2.486c0.549-0.994,1.16-1.492,1.823-1.492h0.663c0.218,0.218,0.497,0.439,0.829,0.663
				c0.331,0.217,0.497,0.44,0.497,0.663c0.88,0.88,1.325,1.766,1.325,2.652l-3.646,6.297c-0.224,0.217-0.166,0.498,0.165,0.83
				c0.332,0.332,0.606,0.496,0.829,0.496H83.2v-0.33c1.988,0,3.589-0.39,4.807-1.162c1.212-0.776,2.429-1.656,3.646-2.651
				c1.212-0.994,2.372-1.88,3.48-2.651c1.104-0.777,2.538-1.16,4.31-1.16c0.217,0,0.663,0.496,1.325,1.492
				c0.663,0.994,1.326,2.098,1.989,3.314c0.663,1.212,1.212,2.371,1.657,3.48c0.44,1.104,0.663,1.875,0.663,2.32h0.663h0.663
				c0.218-0.223,0.331-0.663,0.331-1.326v-9.281c0.44,0,0.772,0.108,0.995,0.332c2.429,1.766,4.361,3.479,5.801,5.137
				c1.435,1.658,3.921,2.486,7.459,2.486c0.44,0,1.212-0.33,2.32-0.994c1.104-0.662,1.875-1.217,2.32-1.658
				c0,0.882,0.383,1.768,1.16,2.652c0.771,0.881,1.709,1.326,2.817,1.326c0-0.223,0.109-0.445,0.332-0.662l0.663-0.664
				c0.217-0.445,0.44-1.492,0.663-3.148c0.217-1.657,0.439-2.709,0.662-3.148c0.218,0,0.663-0.058,1.326-0.166
				c0.663-0.115,1.104-0.166,1.326-0.166c1.989,0,3.755,0.496,5.304,1.491c1.544,0.994,3.315,1.492,5.304,1.492
				c0.881,0,1.544-0.224,1.989-0.663c0.44-0.445,0.549-1.549,0.332-3.314c0.662,1.766,1.377,2.869,2.154,3.314
				c0.771,0.439,1.823,0.663,3.149,0.663c1.325,0,2.206-0.28,2.651-0.829c0.44-0.555,1.212-0.829,2.32-0.829
				c0.881,0,1.989,0.829,3.315,2.485c1.326,1.658,2.595,3.533,3.812,5.636c1.213,2.099,2.264,4.194,3.149,6.298
				c0.881,2.098,1.326,3.59,1.326,4.475c0,0.219-0.057,0.715-0.166,1.492c-0.113,0.772-0.165,1.379-0.165,1.823
				c-1.771,0.218-2.983,1.046-3.646,2.486c-0.663,1.435-1.549,2.595-2.652,3.479l-2.651-7.623c-3.315,2.428-5.915,6.019-7.79,10.772
				c-1.881,4.75-2.818,9.002-2.818,12.762c-2.212,0-3.48-0.829-3.812-2.485c-0.332-1.658-0.721-3.481-1.161-5.471h-0.331
				c-0.663,0-1.217,0.383-1.657,1.16c-0.445,0.771-0.886,1.657-1.326,2.652c-0.445,0.994-0.942,1.875-1.492,2.652
				c-0.554,0.771-1.383,1.16-2.485,1.16c-4.424,0-8.898-0.611-13.426-1.824c-4.532-1.217-8.898-1.822-13.094-1.822
				c-0.886,0-1.605,0.166-2.155,0.498c-0.554,0.332-1.273,0.496-2.154,0.496c-2.652,0-5.47-0.387-8.453-1.16
				c-2.983-0.776-5.692-1.159-8.121-1.159c-0.445,0-1.771,0.166-3.979,0.497c-2.211,0.332-3.537,0.605-3.978,0.828h-0.663h-0.331
				c-0.446-0.223-1.161-0.496-2.155-0.828c-0.994-0.332-1.605-0.497-1.823-0.497c-0.223,0-0.663,0.217-1.326,0.663
				c-0.662,0.439-1.108,0.662-1.325,0.662c-1.108,0-1.989-1.107-2.652-3.313c-0.663-2.212-1.88-3.315-3.646-3.315l-0.663,0.664
				l-0.663,0.662c-0.223,0.219-0.497,0.383-0.828,0.498c-0.332,0.108-0.721,0.383-1.16,0.828c-0.663,0.217-1.218,0.549-1.658,0.994
				h-0.331l-0.663,0.332l-0.663-0.332c-0.445-0.886-0.663-1.822-0.663-2.816c0-0.996-0.554-1.715-1.657-2.156
				c-1.108,0.441-1.657,1.326-1.657,2.652s0.549,2.652,1.657,3.979c-0.445,0.217-1.108,0.497-1.989,0.828
				c-0.886,0.332-1.549,0.498-1.988,0.498l-1.326-0.663l-1.326-0.663c-0.223-0.223-0.445-0.332-0.663-0.332H51.05l-0.994,0.332
				l-1.326,1.326c-2.435,0-4.755-0.497-6.961-1.492c-2.212-0.994-4.424-1.492-6.63-1.492c-1.108,0-1.771,0.275-1.989,0.829
				c-0.223,0.549-0.886,0.829-1.989,0.829H30.83c-0.223-0.223-0.497-0.497-0.829-0.829c-0.331-0.332-0.497-0.61-0.497-0.829
				c-0.445,2.207-1.491,3.424-3.149,3.646c-1.657,0.218-3.148,0.332-4.475,0.332c-2.435,0-4.424-0.664-5.967-1.989
				c-1.549-1.326-2.543-3.206-2.983-5.636l0.663-1.326c0.217-0.444,0.44-0.776,0.663-0.994v-2.982c0-1.99-0.611-3.264-1.823-3.812
				c-1.218-0.555-2.652-1.16-4.31-1.823c-1.658-0.663-3.264-1.714-4.807-3.149c-1.549-1.439-2.652-4.035-3.315-7.789l0.663-1.326
				c0.218-0.445,0.44-0.777,0.663-0.995c0-0.445-0.166-0.942-0.497-1.492c-0.331-0.554-0.611-0.942-0.829-1.16
				c0.44,0,1.104-0.166,1.989-0.497c0.881-0.332,1.435-0.611,1.657-0.828l0.332-0.664l-0.332-0.662
				c-0.223-0.224-0.663-0.445-1.325-0.664c-0.663-0.223-0.995-0.444-0.995-0.662L1.326-80.765L1.326-80.765z M20.222-44.3
				c1.543,0,2.538-0.554,2.983-1.658h-1.326c-1.549,0-2.435,0.55-2.652,1.658H20.222z M23.205-77.781
				c-0.445,0-0.663,0.275-0.663,0.83c0,0.549,0.218,0.715,0.663,0.496C24.085-76.9,24.085-77.341,23.205-77.781z M24.199-48.277
				h1.326v-1.326L24.199-48.277z M33.149-49.604h0.994h0.332c0.44-0.223,0.938-0.446,1.491-0.664c0.55-0.223,0.938-0.444,1.16-0.662
				c-0.445-0.887-0.942-1.771-1.491-2.652c-0.555-0.886-1.383-1.326-2.486-1.326V-49.604z M59.669-82.919
				c0-0.776-0.223-1.161-0.663-1.161c-0.663,0-0.994,0.383-0.994,1.161c0,0.771,0.331,1.16,0.994,1.16
				C59.446-81.759,59.669-82.148,59.669-82.919z M73.923-48.277c0-0.887-0.331-1.326-0.994-1.326c-0.445,0-0.663,0.439-0.663,1.326
				c0,0.879,0.218,1.326,0.663,1.326C73.592-46.951,73.923-47.398,73.923-48.277z M74.255-55.902h2.651
				c0-1.99-0.886-2.983-2.651-2.983V-55.902z M79.227-48.277c0-0.887-0.445-1.326-1.325-1.326c-0.446,0-0.663,0.439-0.663,1.326
				c0,0.879,0.217,1.326,0.663,1.326C78.781-46.951,79.227-47.398,79.227-48.277z M81.547-62.367c0-0.994-0.223-1.492-0.662-1.492
				c-0.663,0-0.995,0.498-0.995,1.492c0,0.996,0.332,1.492,0.995,1.492C81.324-60.875,81.547-61.371,81.547-62.367z M84.53-71.482
				l-1.325-1.326c-0.886,0.662-1.326,1.656-1.326,2.982C82.982-69.824,83.868-70.38,84.53-71.482z M84.53-75.129
				c-0.445-0.223-0.662-0.057-0.662,0.497c0,0.549,0.217,0.829,0.662,0.829C85.411-74.249,85.411-74.689,84.53-75.129z
				 M85.856-48.277h2.652c0.218,0,0.497-0.664,0.828-1.99c0.332-1.325,0.498-2.434,0.498-3.314c0-1.107-0.389-1.938-1.16-2.486
				c-0.777-0.553-1.715-0.828-2.818-0.828V-48.277z M93.481-73.803c0.217-0.223,0.497-0.445,0.828-0.663
				c0.332-0.224,0.497-0.444,0.497-0.663v-0.663v-0.663c0-0.886-0.445-1.326-1.325-1.326V-73.803z M111.382-73.803h1.326v-2.652
				h-1.326V-73.803z M123.979-73.969c0-0.777-0.332-1.16-0.995-1.16c-0.662,0-0.994,0.383-0.994,1.16c0,0.771,0.332,1.16,0.994,1.16
				S123.979-73.197,123.979-73.969z M133.26-55.902h0.663h0.663c0.218-0.224,0.44-0.664,0.663-1.326
				c0.218-0.664,0.331-1.108,0.331-1.326c0-0.445-0.279-0.777-0.828-0.994c-0.555-0.223-1.052-0.332-1.492-0.332V-55.902
				L133.26-55.902z M135.249-47.117c0-0.777-0.223-1.16-0.663-1.16c-0.663,0-0.994,0.383-0.994,1.16
				c0,0.771,0.331,1.159,0.994,1.159C135.026-45.958,135.249-46.346,135.249-47.117z M135.58-53.582
				c-0.445,0-0.663,0.273-0.663,0.829c0,0.55,0.218,0.829,0.663,0.829C136.684-52.369,136.684-52.919,135.58-53.582z
				 M146.354-71.316c0.109-0.555,0.166-1.051,0.166-1.492c0-1.108-0.331-2.27-0.994-3.48c-0.663-1.217-1.88-1.822-3.646-1.822
				c0,1.326,0.383,2.76,1.16,4.309c0.771,1.543,1.823,2.761,3.149,3.646C146.188-70.38,146.24-70.768,146.354-71.316z
				 M153.149-66.179c0-0.663-0.223-1.108-0.663-1.326c-0.445-0.224-0.663,0.218-0.663,1.326c0,1.103,0.218,1.543,0.663,1.325
				C152.927-65.076,153.149-65.516,153.149-66.179z"/>
			<path fill="#EC008C" d="M86.022-41.768v-0.993c0.44-1.326,1.16-3.149,2.155-5.47c0.994-2.32,1.6-3.48,1.823-3.48h1.657
				c0,1.104,0.383,2.264,1.16,3.48c0.771,1.211,1.709,1.822,2.817,1.822h0.332c0.217-0.223,0.715-0.662,1.491-1.326
				c0.771-0.662,1.27-1.107,1.492-1.326h0.331h0.663c0.44,0.219,0.938,0.664,1.491,1.326c0.55,0.664,0.938,1.104,1.161,1.326
				c0.439-0.886,1.6-1.822,3.48-2.818c1.875-0.993,3.258-1.383,4.144-1.159c0.44,0.218,1.932,0.829,4.475,1.823
				c2.538,0.994,4.03,1.709,4.476,2.154l5.304-5.304c0.663-0.663,1.435-0.166,2.32,1.491c0.881,1.656,1.544,2.486,1.989,2.486h0.663
				c1.988-1.108,3.48-2.047,4.475-2.817c0.995-0.776,2.704-1.16,5.139-1.16h0.663c0.217,0.218,0.828,0.714,1.823,1.491
				c0.994,0.771,1.709,1.16,2.154,1.16c0.44,0,0.938-0.332,1.492-0.994c0.549-0.663,0.828-1.219,0.828-1.657
				c2.652,1.543,3.979,3.313,3.979,5.304c0,1.325-0.446,2.207-1.326,2.651c-0.886,0.44-1.326,1.435-1.326,2.983v0.994
				c0,0.217,0.108,0.549,0.331,0.994c0.44-1.107,1.27-1.988,2.486-2.652c1.212-0.662,2.372-1.107,3.48-1.324
				c-0.445-0.446-0.828-1.439-1.16-2.982c-0.331-1.55-0.279-2.652,0.166-3.316c0.218-0.444,0.994-0.993,2.32-1.656
				c1.326-0.663,2.207-0.994,2.652-0.994c1.326,1.104,2.098,2.206,2.32,3.314c0.218,1.104,1.104,1.767,2.652,1.988
				c0.439-0.662,0.938-1.492,1.491-2.486c0.549-0.993,1.16-1.491,1.823-1.491h0.663c0.218,0.218,0.497,0.44,0.829,0.663
				c0.331,0.218,0.497,0.439,0.497,0.662c0.88,0.882,1.325,1.768,1.325,2.652l-3.646,6.299c-0.224,0.217-0.166,0.496,0.165,0.828
				c0.332,0.332,0.606,0.498,0.829,0.498h1.326v-0.332c1.988,0,3.589-0.389,4.807-1.16c1.212-0.776,2.429-1.658,3.646-2.651
				c1.212-0.994,2.372-1.88,3.48-2.651c1.104-0.777,2.538-1.16,4.31-1.16c0.217,0,0.663,0.496,1.325,1.491
				c0.663,0.994,1.326,2.099,1.989,3.313c0.663,1.213,1.212,2.373,1.657,3.48c0.44,1.104,0.663,1.875,0.663,2.321h0.663h0.663
				c0.218-0.224,0.331-0.663,0.331-1.326v-9.282c0.44,0,0.772,0.109,0.995,0.332c2.429,1.766,4.361,3.48,5.801,5.139
				c1.435,1.656,3.921,2.486,7.459,2.486c0.44,0,1.212-0.332,2.32-0.994c1.104-0.664,1.875-1.219,2.32-1.658
				c0,0.881,0.383,1.767,1.16,2.652c0.771,0.881,1.709,1.325,2.817,1.325c0-0.224,0.109-0.444,0.332-0.663l0.663-0.662
				c0.217-0.445,0.44-1.492,0.663-3.15c0.217-1.656,0.439-2.709,0.662-3.148c0.218,0,0.663-0.057,1.326-0.165
				c0.663-0.114,1.104-0.165,1.326-0.165c1.989,0,3.755,0.496,5.304,1.491c1.544,0.994,3.315,1.491,5.304,1.491
				c0.881,0,1.544-0.223,1.989-0.663c0.44-0.444,0.549-1.55,0.332-3.313c0.662,1.766,1.377,2.869,2.154,3.313
				c0.771,0.44,1.823,0.663,3.149,0.663c1.325,0,2.206-0.279,2.651-0.829c0.44-0.554,1.212-0.828,2.32-0.828
				c0.881,0,1.989,0.828,3.315,2.485c1.326,1.658,2.595,3.533,3.812,5.636c1.213,2.099,2.264,4.194,3.149,6.299
				c0.881,2.099,1.326,3.589,1.326,4.476c0,0.217-0.057,0.715-0.166,1.492c-0.113,0.771-0.165,1.377-0.165,1.822
				c-1.771,0.219-2.983,1.046-3.646,2.486c-0.663,1.435-1.549,2.595-2.652,3.48l-2.651-7.625c-3.315,2.43-5.915,6.02-7.79,10.773
				C235.128-8.013,234.191-3.76,234.191,0c-2.212,0-3.48-0.828-3.812-2.484c-0.332-1.658-0.721-3.481-1.161-5.471h-0.331
				c-0.663,0-1.217,0.383-1.657,1.16c-0.445,0.771-0.886,1.657-1.326,2.65c-0.445,0.996-0.942,1.875-1.492,2.652
				c-0.554,0.771-1.383,1.16-2.485,1.16c-4.424,0-8.898-0.611-13.426-1.822c-4.532-1.218-8.898-1.824-13.094-1.824
				c-0.886,0-1.605,0.166-2.155,0.498c-0.554,0.332-1.273,0.496-2.154,0.496c-2.652,0-5.47-0.388-8.453-1.16
				c-2.983-0.775-5.692-1.159-8.121-1.159c-0.445,0-1.771,0.166-3.979,0.497c-2.211,0.332-3.537,0.605-3.978,0.828h-0.663h-0.331
				c-0.446-0.223-1.161-0.496-2.155-0.828c-0.994-0.331-1.605-0.497-1.823-0.497c-0.223,0-0.663,0.218-1.326,0.663
				c-0.662,0.439-1.108,0.662-1.325,0.662c-1.108,0-1.989-1.107-2.652-3.313c-0.663-2.212-1.88-3.315-3.646-3.315l-0.663,0.664
				l-0.663,0.662c-0.223,0.219-0.497,0.383-0.828,0.498c-0.332,0.107-0.721,0.383-1.16,0.828c-0.663,0.217-1.218,0.549-1.658,0.994
				h-0.331L146.68-6.63l-0.663-0.331c-0.445-0.887-0.663-1.822-0.663-2.816c0-0.996-0.554-1.715-1.657-2.156
				c-1.108,0.441-1.657,1.326-1.657,2.652s0.549,2.651,1.657,3.979c-0.445,0.218-1.108,0.496-1.989,0.828
				c-0.886,0.332-1.549,0.498-1.988,0.498l-1.326-0.664l-1.326-0.662c-0.223-0.223-0.445-0.331-0.663-0.331h-0.663l-0.994,0.331
				l-1.326,1.326c-2.435,0-4.755-0.498-6.961-1.492c-2.212-0.994-4.424-1.491-6.63-1.491c-1.108,0-1.771,0.274-1.989,0.829
				c-0.223,0.549-0.886,0.828-1.989,0.828h-0.331c-0.223-0.223-0.497-0.497-0.829-0.828c-0.331-0.332-0.497-0.611-0.497-0.829
				c-0.445,2.206-1.491,3.424-3.149,3.646c-1.657,0.219-3.148,0.332-4.475,0.332c-2.435,0-4.424-0.664-5.967-1.988
				c-1.549-1.326-2.543-3.206-2.983-5.637l0.663-1.326c0.217-0.444,0.44-0.775,0.663-0.993v-2.983c0-1.988-0.611-3.264-1.823-3.812
				c-1.218-0.553-2.652-1.159-4.31-1.822c-1.658-0.663-3.264-1.714-4.807-3.148c-1.549-1.439-2.652-4.035-3.315-7.789l0.663-1.326
				c0.218-0.445,0.44-0.777,0.663-0.996c0-0.444-0.166-0.941-0.497-1.49c-0.331-0.555-0.611-0.941-0.829-1.16
				c0.44,0,1.104-0.166,1.989-0.496c0.881-0.332,1.435-0.611,1.657-0.83l0.332-0.662l-0.332-0.664
				c-0.223-0.223-0.663-0.444-1.325-0.662c-0.663-0.223-0.995-0.445-0.995-0.664v-0.334H86.022z M104.918-5.303
				c1.543,0,2.538-0.555,2.983-1.657h-1.326c-1.549,0-2.435,0.55-2.652,1.657H104.918z M107.901-38.783
				c-0.445,0-0.663,0.273-0.663,0.828c0,0.549,0.218,0.715,0.663,0.497C108.781-37.902,108.781-38.343,107.901-38.783z
				 M108.896-9.281h1.326v-1.326L108.896-9.281z M117.846-10.607h0.994h0.332c0.44-0.223,0.938-0.444,1.491-0.662
				c0.55-0.223,0.938-0.445,1.16-0.664c-0.445-0.885-0.942-1.77-1.491-2.65c-0.555-0.886-1.383-1.326-2.486-1.326V-10.607z
				 M144.365-43.922c0-0.777-0.223-1.161-0.663-1.161c-0.663,0-0.994,0.384-0.994,1.161c0,0.771,0.331,1.16,0.994,1.16
				C144.143-42.761,144.365-43.15,144.365-43.922z M158.619-9.281c0-0.886-0.331-1.326-0.994-1.326c-0.445,0-0.663,0.44-0.663,1.326
				c0,0.881,0.218,1.326,0.663,1.326C158.288-7.955,158.619-8.4,158.619-9.281z M158.951-16.904h2.651
				c0-1.99-0.886-2.983-2.651-2.983V-16.904z M163.923-9.281c0-0.886-0.445-1.326-1.325-1.326c-0.446,0-0.663,0.44-0.663,1.326
				c0,0.881,0.217,1.326,0.663,1.326C163.478-7.955,163.923-8.4,163.923-9.281z M166.243-23.369c0-0.994-0.223-1.492-0.662-1.492
				c-0.663,0-0.995,0.498-0.995,1.492s0.332,1.491,0.995,1.491C166.021-21.878,166.243-22.375,166.243-23.369z M169.227-32.484
				l-1.325-1.326c-0.886,0.662-1.326,1.656-1.326,2.982C167.679-30.828,168.564-31.382,169.227-32.484z M169.227-36.132
				c-0.445-0.224-0.662-0.058-0.662,0.497c0,0.549,0.217,0.828,0.662,0.828C170.107-35.252,170.107-35.691,169.227-36.132z
				 M170.553-9.281h2.652c0.218,0,0.497-0.662,0.828-1.988c0.332-1.326,0.498-2.436,0.498-3.314c0-1.107-0.389-1.938-1.16-2.486
				c-0.777-0.555-1.715-0.828-2.818-0.828V-9.281z M178.178-34.806c0.217-0.224,0.497-0.445,0.828-0.663
				c0.332-0.223,0.497-0.445,0.497-0.662v-0.663v-0.663c0-0.886-0.445-1.326-1.325-1.326V-34.806z M196.078-34.806h1.326v-2.651
				h-1.326V-34.806z M208.675-34.971c0-0.777-0.332-1.16-0.995-1.16c-0.662,0-0.994,0.383-0.994,1.16c0,0.771,0.332,1.16,0.994,1.16
				C208.343-33.811,208.675-34.199,208.675-34.971z M217.956-16.904h0.663h0.663c0.218-0.225,0.44-0.664,0.663-1.326
				c0.218-0.664,0.331-1.108,0.331-1.326c0-0.445-0.279-0.777-0.828-0.994c-0.555-0.223-1.052-0.332-1.492-0.332V-16.904
				L217.956-16.904z M219.945-8.121c0-0.777-0.223-1.16-0.663-1.16c-0.663,0-0.994,0.383-0.994,1.16c0,0.771,0.331,1.16,0.994,1.16
				C219.723-6.961,219.945-7.35,219.945-8.121z M220.276-14.585c-0.445,0-0.663,0.274-0.663,0.828c0,0.549,0.218,0.829,0.663,0.829
				C221.38-13.373,221.38-13.922,220.276-14.585z M231.05-32.32c0.109-0.554,0.166-1.051,0.166-1.49c0-1.108-0.331-2.27-0.994-3.48
				c-0.663-1.218-1.88-1.822-3.646-1.822c0,1.324,0.383,2.76,1.16,4.309c0.771,1.544,1.823,2.761,3.149,3.646
				C230.885-31.382,230.937-31.771,231.05-32.32z M237.846-27.181c0-0.663-0.223-1.108-0.663-1.326
				c-0.445-0.224-0.663,0.218-0.663,1.326c0,1.103,0.218,1.543,0.663,1.325C237.623-26.078,237.846-26.518,237.846-27.181z"/>
		</g>
	</g>
</pattern>
<path fill="#414042" d="M313.787,402.646c-12.119,21.818-12.529,49.818-12.529,49.818s-16.729-33.145-0.5-67.996
	c17.972-38.594,46.49-78.432,99.466-125.269c1.66-1.468,10.838-7.991,3.809-14.455c-3.854-3.546-10.791-7.945-16.127-13.375
	c-2.332-2.374-16.445-12.819,3.096-32.652c44.669-45.333,37.212-78.696,30.812-99.975c-0.959-3.19,33.949,16.299,20.855-18.358
	c-17-45-28.841,0.818-31.837-2.809c-16.473-19.938-61.407-22.282-81.163-11.191c-10.857,6.096-19.324,15.566-25.456,26.528
	c-0.93,1.665,2.699,9.873,2.206,11.722c-1.001,3.75-8.57,2.177-9.345,4.122c-2.242,5.647-11.563,7.109-12.738,12.961
	c-1.26,6.292,7.666,11.975,7.666,18c0,12.333,9.904,17.618,16.335,18.167c3.502,0.299,13.225-3.927,13-3.333
	c-2.668,7-24.335,4.333-24.335,4.333c-1.666,19.167,28.974,37.075,29.999,41.5c4.924,21.25-4.14,37.927-12.953,45.985
	c-9.734,8.896-35.199,20.566-48.378,21.016c-14.637,0.498-44.33-10.654-54.678-21.016c-7.684-7.695-17.688-33.487-16.321-40.318
	c3.333-16.667,26.666-3,31-28.667c0.968-5.725,10.654-7.308,11-13.5c0.164-2.951-20-4.5-22-7.833c-1.703-2.838,21.5-7.167,19-15.667
	c-1.262-4.29-14.666-1.334-15-7.667c-0.084-1.576,12.679-3.336,13.351-7.394c1.315-7.939-16.101-11.189-16.101-18.939
	c0-4.161,8.724-4.918,8.349-10.364c-0.42-6.125-7.44-21.295-25.004-31.038c-32.928-18.266-65.652-9.785-83.017,5.947
	c-3.741,3.39-9.586-15.289-28.479-10.947c-6.101,1.402,20.347,9.579,11.279,31.739c-17.046,41.663-4.713,83.663,39.621,110.33
	c7.971,4.794,1.56,20.324-3.536,26.318c-6.37,7.495-21.404,6.006-15.404,21.006c13.081,32.702,83.971,86.317,111.562,134.35
	C335.061,564.375,112.55,602.953,112.55,602.953s111.179-45.244,111.12-131.566c-0.048-68.76-115.365-135.18-158.158-225.016
	C41.044,195.006,29.187,134.094,52.352,80.756c3.017-6.945,6.649-12.308,6.649-12.308C46.152-12.52,11.845,5.342,15.273,3.986
	c46.235-18.279,58.836,32.956,84.772,20.301C210.236-29.476,262.52,64.899,262.52,64.899s96.148-110.514,183.072-18.751
	c46.875,49.485,67.883,114.037,13.936,200.222c-14.928,23.849-58.783,55.393-75.133,71.338
	C330.395,370.375,318.339,394.457,313.787,402.646z"/>
<pattern  id="SVGID_1_" xlink:href="#New_Pattern_4" patternTransform="matrix(1 0 0 -1 -214.0347 -17024.2227)">
</pattern>
<path fill="url(#SVGID_1_)" d="M298.754,404.146c-12.118,21.818-12.528,49.818-12.528,49.818s-16.729-33.145-0.5-67.996
	c17.971-38.594,46.49-78.432,99.465-125.269c1.66-1.468,10.838-7.991,3.809-14.455c-3.854-3.546-10.791-7.945-16.127-13.375
	c-2.332-2.374-16.444-12.819,3.097-32.652c44.668-45.333,37.211-78.696,30.812-99.975c-0.959-3.19,33.949,16.299,20.855-18.358
	c-17-45-28.84,0.818-31.836-2.809c-16.474-19.938-61.408-22.282-81.164-11.191c-10.857,6.096-19.324,15.566-25.455,26.528
	c-0.931,1.665,2.698,9.873,2.205,11.722c-1,3.75-8.57,2.177-9.345,4.122c-2.242,5.647-11.563,7.109-12.737,12.961
	c-1.262,6.292,7.666,11.975,7.666,18c0,12.333,9.903,17.618,16.334,18.167c3.502,0.299,13.225-3.927,13-3.333
	c-2.669,7-24.334,4.333-24.334,4.333c-1.666,19.167,28.973,37.075,29.998,41.5c4.924,21.25-4.14,37.927-12.953,45.985
	c-9.734,8.896-35.199,20.566-48.378,21.016c-14.637,0.498-44.33-10.654-54.679-21.016c-7.684-7.695-17.688-33.487-16.32-40.318
	c3.333-16.667,26.664-3,30.999-28.667c0.967-5.725,10.653-7.308,11-13.5c0.163-2.951-20-4.5-22-7.833
	c-1.703-2.838,21.5-7.167,19-15.667c-1.263-4.29-14.666-1.334-15-7.667c-0.083-1.576,12.678-3.336,13.351-7.394
	c1.316-7.939-16.101-11.189-16.101-18.939c0-4.161,8.723-4.918,8.349-10.364c-0.42-6.125-7.44-21.295-25.005-31.038
	c-32.927-18.266-65.652-9.785-83.017,5.947c-3.74,3.39-9.586-15.289-28.479-10.947c-6.101,1.402,20.347,9.579,11.28,31.739
	c-17.047,41.663-4.714,83.663,39.621,110.33c7.97,4.793,1.559,20.324-3.536,26.318c-6.371,7.495-21.405,6.006-15.405,21.006
	c13.081,32.702,83.971,86.317,111.562,134.35C320.027,565.875,97.517,604.453,97.517,604.453s111.179-45.244,111.119-131.566
	c-0.048-68.76-115.365-135.18-158.158-225.016c-24.467-51.364-36.325-112.276-13.16-165.614c3.017-6.945,6.649-12.308,6.649-12.308
	C31.118-11.02-3.188,6.842,0.239,5.486c46.236-18.279,58.836,32.956,84.773,20.301c110.188-53.764,162.474,40.612,162.474,40.612
	s96.148-110.514,183.072-18.751c46.875,49.485,67.883,114.037,13.936,200.222c-14.928,23.849-58.782,55.393-75.133,71.338
	C315.361,371.875,303.305,395.957,298.754,404.146z"/>
</svg>
