<?xml version="1.0" encoding="utf-8"?>
<!-- Generator: Adobe Illustrator 16.0.0, SVG Export Plug-In . SVG Version: 6.00 Build 0)  -->
<!DOCTYPE svg PUBLIC "-//W3C//DTD SVG 1.1//EN" "http://www.w3.org/Graphics/SVG/1.1/DTD/svg11.dtd">
<svg version="1.1" id="Layer_1" xmlns="http://www.w3.org/2000/svg" xmlns:xlink="http://www.w3.org/1999/xlink" x="0px" y="0px"
	 width="533.135px" height="660.918px" viewBox="0 0 533.135 660.918" enable-background="new 0 0 533.135 660.918"
	 xml:space="preserve">
<path opacity="0.92" fill="#FFFFFF" enable-background="new    " d="M267.674,460.367c-3.546-9.871-8.071-20.191-13.686-30.981
	c0,0-3.743-6.491-9.872-17.357c-21.442-38.01-48.107-116.85-54.378-174.96c-41.671-219.109,98.468-148.26,98.468-148.26
	s98.861-154.85,215.952,1.679c36.892,52.454,30.621,134.821-9.511,176.233c-35.7,36.838-60.528,56.145-83.127,77.414
	c-74.084,69.727-79.799,86.086-79.799,86.086c-18.159,38.998,0.562,76.086,0.562,76.086L267.674,460.367z"/>
</svg>
