<?xml version="1.0" encoding="utf-8"?>
<!-- Generator: Adobe Illustrator 16.0.0, SVG Export Plug-In . SVG Version: 6.00 Build 0)  -->
<!DOCTYPE svg PUBLIC "-//W3C//DTD SVG 1.1//EN" "http://www.w3.org/Graphics/SVG/1.1/DTD/svg11.dtd">
<svg version="1.1" id="Layer_1" xmlns="http://www.w3.org/2000/svg" xmlns:xlink="http://www.w3.org/1999/xlink" x="0px" y="0px"
	 width="141.732px" height="141.732px" viewBox="0 0 141.732 141.732" enable-background="new 0 0 141.732 141.732"
	 xml:space="preserve">
<pattern  x="42.52" y="75.613" width="169.393" height="155.989" patternUnits="userSpaceOnUse" id="SVGID_3_" viewBox="84.696 -181.987 169.393 155.989" overflow="visible">
	<g>
		<polygon fill="none" points="84.696,-25.998 254.089,-25.998 254.089,-181.987 84.696,-181.987 		"/>
		<g>
			<polygon fill="none" points="84.696,-181.986 254.089,-181.986 254.089,-25.998 84.696,-25.998 			"/>
			<g>
				<polygon fill="none" points="84.696,-25.998 254.089,-25.998 254.089,-181.986 84.696,-181.986 				"/>
				<g>
					<polygon fill="none" points="84.696,-25.998 254.089,-25.998 254.089,-181.986 84.696,-181.986 					"/>
					<path fill="#E9188D" d="M86.022-197.757v-0.994c0.44-1.326,1.16-3.149,2.155-5.47c0.994-2.32,1.6-3.48,1.823-3.48h1.657
						c0,1.104,0.383,2.264,1.16,3.48c0.771,1.212,1.709,1.822,2.817,1.822h0.332c0.217-0.223,0.715-0.662,1.491-1.326
						c0.771-0.661,1.27-1.107,1.492-1.324h0.331h0.663c0.44,0.217,0.938,0.663,1.491,1.324c0.55,0.664,0.938,1.104,1.161,1.326
						c0.439-0.886,1.6-1.822,3.48-2.816c1.875-0.994,3.258-1.383,4.144-1.16c0.44,0.218,1.932,0.828,4.475,1.823
						c2.538,0.993,4.03,1.709,4.476,2.153l5.304-5.304c0.663-0.663,1.435-0.166,2.32,1.492c0.881,1.657,1.544,2.485,1.989,2.485
						h0.663c1.988-1.108,3.48-2.047,4.475-2.817c0.995-0.776,2.704-1.16,5.139-1.16h0.663c0.217,0.218,0.828,0.716,1.823,1.492
						c0.994,0.771,1.709,1.16,2.154,1.16c0.44,0,0.938-0.332,1.492-0.995c0.549-0.663,0.828-1.217,0.828-1.657
						c2.652,1.544,3.979,3.315,3.979,5.304c0,1.326-0.446,2.207-1.326,2.652c-0.886,0.439-1.326,1.436-1.326,2.982v0.994
						c0,0.219,0.108,0.55,0.331,0.994c0.44-1.107,1.27-1.988,2.486-2.65c1.212-0.663,2.372-1.108,3.48-1.326
						c-0.445-0.445-0.828-1.439-1.16-2.982c-0.331-1.55-0.279-2.651,0.166-3.314c0.218-0.446,0.994-0.995,2.32-1.658
						c1.326-0.663,2.207-0.994,2.652-0.994c1.326,1.104,2.098,2.206,2.32,3.315c0.218,1.103,1.104,1.766,2.652,1.987
						c0.439-0.662,0.938-1.49,1.491-2.485c0.549-0.994,1.16-1.491,1.823-1.491h0.663c0.218,0.218,0.497,0.439,0.829,0.663
						c0.331,0.217,0.497,0.44,0.497,0.663c0.88,0.88,1.325,1.766,1.325,2.65l-3.646,6.299c-0.224,0.218-0.166,0.498,0.165,0.828
						c0.332,0.332,0.606,0.498,0.829,0.498h1.326v-0.332c1.988,0,3.589-0.389,4.807-1.16c1.212-0.776,2.429-1.656,3.646-2.651
						c1.212-0.994,2.372-1.88,3.48-2.651c1.104-0.776,2.538-1.16,4.31-1.16c0.217,0,0.663,0.498,1.325,1.492
						c0.663,0.994,1.326,2.098,1.989,3.314c0.663,1.212,1.212,2.372,1.657,3.48c0.44,1.104,0.663,1.875,0.663,2.319h0.663h0.663
						c0.218-0.224,0.331-0.663,0.331-1.326v-9.28c0.44,0,0.772,0.107,0.995,0.33c2.429,1.768,4.361,3.48,5.801,5.14
						c1.435,1.657,3.921,2.485,7.459,2.485c0.44,0,1.212-0.332,2.32-0.994c1.104-0.664,1.875-1.217,2.32-1.657
						c0,0.881,0.383,1.767,1.16,2.651c0.771,0.881,1.709,1.325,2.817,1.325c0-0.223,0.109-0.444,0.332-0.663l0.663-0.662
						c0.217-0.445,0.44-1.492,0.663-3.148c0.217-1.657,0.439-2.709,0.662-3.149c0.218,0,0.663-0.057,1.326-0.165
						c0.663-0.113,1.104-0.166,1.326-0.166c1.989,0,3.755,0.497,5.304,1.491c1.544,0.994,3.315,1.492,5.304,1.492
						c0.881,0,1.544-0.224,1.989-0.663c0.44-0.445,0.549-1.549,0.332-3.314c0.662,1.767,1.377,2.869,2.154,3.314
						c0.771,0.439,1.823,0.663,3.149,0.663c1.325,0,2.206-0.28,2.651-0.829c0.44-0.555,1.212-0.829,2.32-0.829
						c0.881,0,1.989,0.829,3.315,2.486c1.326,1.657,2.595,3.532,3.812,5.636c1.213,2.098,2.264,4.195,3.149,6.298
						c0.881,2.099,1.326,3.591,1.326,4.476c0,0.219-0.057,0.716-0.166,1.492c-0.113,0.772-0.165,1.378-0.165,1.823
						c-1.771,0.218-2.983,1.047-3.646,2.486c-0.663,1.435-1.549,2.595-2.652,3.48l-2.651-7.624c-3.315,2.43-5.915,6.019-7.79,10.773
						c-1.881,4.75-2.818,9.002-2.818,12.763c-2.212,0-3.48-0.829-3.812-2.486c-0.332-1.657-0.721-3.479-1.161-5.47h-0.331
						c-0.663,0-1.217,0.384-1.657,1.16c-0.445,0.771-0.886,1.657-1.326,2.652c-0.445,0.994-0.942,1.875-1.492,2.651
						c-0.554,0.772-1.383,1.16-2.485,1.16c-4.424,0-8.898-0.61-13.426-1.823c-4.532-1.217-8.898-1.823-13.094-1.823
						c-0.886,0-1.605,0.166-2.155,0.498c-0.554,0.331-1.273,0.497-2.154,0.497c-2.652,0-5.47-0.389-8.453-1.16
						c-2.983-0.777-5.692-1.16-8.121-1.16c-0.445,0-1.771,0.165-3.979,0.497c-2.211,0.331-3.537,0.605-3.978,0.828h-0.663h-0.331
						c-0.446-0.223-1.161-0.497-2.155-0.828c-0.994-0.332-1.605-0.497-1.823-0.497c-0.223,0-0.663,0.217-1.326,0.663
						c-0.662,0.439-1.108,0.662-1.325,0.662c-1.108,0-1.989-1.108-2.652-3.314c-0.663-2.212-1.88-3.314-3.646-3.314l-0.663,0.662
						l-0.663,0.663c-0.223,0.218-0.497,0.384-0.828,0.497c-0.332,0.109-0.721,0.384-1.16,0.829
						c-0.663,0.218-1.218,0.549-1.658,0.994h-0.331l-0.663,0.332l-0.663-0.332c-0.445-0.886-0.663-1.823-0.663-2.817
						c0-0.994-0.554-1.714-1.657-2.154c-1.108,0.44-1.657,1.326-1.657,2.651c0,1.326,0.549,2.652,1.657,3.979
						c-0.445,0.217-1.108,0.497-1.989,0.828c-0.886,0.332-1.549,0.497-1.988,0.497l-1.326-0.662l-1.326-0.663
						c-0.223-0.223-0.445-0.332-0.663-0.332h-0.663l-0.994,0.332l-1.326,1.325c-2.435,0-4.755-0.497-6.961-1.491
						c-2.212-0.994-4.424-1.492-6.63-1.492c-1.108,0-1.771,0.275-1.989,0.829c-0.223,0.549-0.886,0.829-1.989,0.829h-0.331
						c-0.223-0.223-0.497-0.497-0.829-0.829c-0.331-0.331-0.497-0.611-0.497-0.829c-0.445,2.207-1.491,3.424-3.149,3.646
						c-1.657,0.218-3.148,0.332-4.475,0.332c-2.435,0-4.424-0.663-5.967-1.989c-1.549-1.326-2.543-3.206-2.983-5.635l0.663-1.326
						c0.217-0.445,0.44-0.777,0.663-0.995v-2.983c0-1.988-0.611-3.263-1.823-3.812c-1.218-0.555-2.652-1.16-4.31-1.823
						c-1.658-0.663-3.264-1.715-4.807-3.148c-1.549-1.439-2.652-4.035-3.315-7.791l0.663-1.325c0.218-0.445,0.44-0.776,0.663-0.994
						c0-0.445-0.166-0.942-0.497-1.492c-0.331-0.554-0.611-0.942-0.829-1.16c0.44,0,1.104-0.165,1.989-0.497
						c0.881-0.33,1.435-0.611,1.657-0.828l0.332-0.662l-0.332-0.664c-0.223-0.223-0.663-0.444-1.325-0.662
						c-0.663-0.223-0.995-0.445-0.995-0.663v-0.334h0.003V-197.757z M104.918-161.293c1.543,0,2.538-0.555,2.983-1.658h-1.326
						c-1.549,0-2.435,0.55-2.652,1.658H104.918z M107.901-194.773c-0.445,0-0.663,0.274-0.663,0.828
						c0,0.549,0.218,0.715,0.663,0.497C108.781-193.892,108.781-194.334,107.901-194.773z M108.896-165.271h1.326v-1.325
						L108.896-165.271z M117.846-166.596h0.994h0.332c0.44-0.224,0.938-0.446,1.491-0.663c0.55-0.223,0.938-0.445,1.16-0.663
						c-0.445-0.886-0.942-1.771-1.491-2.652c-0.555-0.886-1.383-1.326-2.486-1.326V-166.596z M144.365-199.912
						c0-0.777-0.223-1.16-0.663-1.16c-0.663,0-0.994,0.383-0.994,1.16c0,0.771,0.331,1.16,0.994,1.16
						C144.143-198.752,144.365-199.14,144.365-199.912z M158.619-165.271c0-0.886-0.331-1.325-0.994-1.325
						c-0.445,0-0.663,0.439-0.663,1.325c0,0.881,0.218,1.326,0.663,1.326C158.288-163.944,158.619-164.39,158.619-165.271z
						 M158.951-172.895h2.651c0-1.989-0.886-2.983-2.651-2.983V-172.895z M163.923-165.271c0-0.886-0.445-1.325-1.325-1.325
						c-0.446,0-0.663,0.439-0.663,1.325c0,0.881,0.217,1.326,0.663,1.326C163.478-163.944,163.923-164.39,163.923-165.271z
						 M166.243-179.359c0-0.995-0.223-1.493-0.662-1.493c-0.663,0-0.995,0.498-0.995,1.493c0,0.994,0.332,1.491,0.995,1.491
						C166.021-177.868,166.243-178.365,166.243-179.359z M169.227-188.474l-1.325-1.326c-0.886,0.662-1.326,1.656-1.326,2.982
						C167.679-186.818,168.564-187.372,169.227-188.474z M169.227-192.122c-0.445-0.223-0.662-0.058-0.662,0.497
						c0,0.549,0.217,0.829,0.662,0.829C170.107-191.241,170.107-191.681,169.227-192.122z M170.553-165.271h2.652
						c0.218,0,0.497-0.663,0.828-1.988c0.332-1.326,0.498-2.435,0.498-3.315c0-1.108-0.389-1.937-1.16-2.486
						c-0.777-0.554-1.715-0.828-2.818-0.828V-165.271z M178.178-190.796c0.217-0.224,0.497-0.445,0.828-0.663
						c0.332-0.223,0.497-0.445,0.497-0.663v-0.663v-0.663c0-0.886-0.445-1.325-1.325-1.325V-190.796z M196.078-190.796h1.326v-2.652
						h-1.326V-190.796z M208.675-190.962c0-0.776-0.332-1.16-0.995-1.16c-0.662,0-0.994,0.384-0.994,1.16
						c0,0.771,0.332,1.16,0.994,1.16C208.343-189.8,208.675-190.189,208.675-190.962z M217.956-172.895h0.663h0.663
						c0.218-0.223,0.44-0.663,0.663-1.326c0.218-0.663,0.331-1.108,0.331-1.326c0-0.445-0.279-0.776-0.828-0.994
						c-0.555-0.223-1.052-0.331-1.492-0.331V-172.895L217.956-172.895z M219.945-164.111c0-0.776-0.223-1.16-0.663-1.16
						c-0.663,0-0.994,0.384-0.994,1.16c0,0.772,0.331,1.16,0.994,1.16C219.723-162.951,219.945-163.339,219.945-164.111z
						 M220.276-170.575c-0.445,0-0.663,0.274-0.663,0.829c0,0.549,0.218,0.828,0.663,0.828
						C221.38-169.362,221.38-169.912,220.276-170.575z M231.05-188.308c0.109-0.556,0.166-1.053,0.166-1.492
						c0-1.108-0.331-2.27-0.994-3.48c-0.663-1.217-1.88-1.822-3.646-1.822c0,1.326,0.383,2.761,1.16,4.31
						c0.771,1.543,1.823,2.761,3.149,3.646C230.885-187.372,230.937-187.759,231.05-188.308z M237.846-183.172
						c0-0.663-0.223-1.108-0.663-1.326c-0.445-0.223-0.663,0.218-0.663,1.326c0,1.104,0.218,1.544,0.663,1.326
						C237.623-182.068,237.846-182.507,237.846-183.172z"/>
					<path fill="#E9188D" d="M170.719-158.758v-0.994c0.44-1.326,1.16-3.149,2.155-5.47c0.994-2.32,1.6-3.48,1.823-3.48h1.657
						c0,1.103,0.383,2.263,1.16,3.48c0.771,1.212,1.709,1.823,2.817,1.823h0.332c0.217-0.223,0.715-0.663,1.491-1.326
						c0.771-0.663,1.27-1.108,1.492-1.326h0.331h0.663c0.44,0.218,0.938,0.663,1.491,1.326c0.55,0.663,0.938,1.104,1.161,1.326
						c0.439-0.886,1.6-1.823,3.48-2.818c1.875-0.994,3.258-1.383,4.144-1.16c0.44,0.218,1.932,0.829,4.475,1.823
						c2.538,0.995,4.03,1.71,4.476,2.155l5.304-5.304c0.663-0.663,1.435-0.166,2.32,1.491c0.881,1.657,1.544,2.486,1.989,2.486
						h0.663c1.988-1.108,3.48-2.046,4.475-2.817c0.995-0.777,2.704-1.16,5.139-1.16h0.663c0.217,0.217,0.828,0.714,1.823,1.491
						c0.994,0.771,1.709,1.16,2.154,1.16c0.44,0,0.938-0.331,1.492-0.994c0.549-0.663,0.828-1.218,0.828-1.657
						c2.652,1.543,3.979,3.314,3.979,5.304c0,1.325-0.446,2.206-1.326,2.651c-0.886,0.44-1.326,1.435-1.326,2.983v0.995
						c0,0.217,0.108,0.549,0.331,0.994c0.44-1.108,1.27-1.989,2.486-2.652c1.212-0.662,2.372-1.108,3.48-1.325
						c-0.445-0.446-0.828-1.44-1.16-2.983c-0.331-1.549-0.279-2.652,0.166-3.315c0.218-0.445,0.994-0.994,2.32-1.657
						c1.326-0.663,2.207-0.994,2.652-0.994c1.326,1.103,2.098,2.206,2.32,3.314c0.218,1.104,1.104,1.767,2.652,1.989
						c0.439-0.663,0.938-1.492,1.491-2.486c0.549-0.994,1.16-1.492,1.823-1.492h0.663c0.218,0.218,0.497,0.44,0.829,0.663
						c0.331,0.218,0.497,0.44,0.497,0.663c0.88,0.881,1.325,1.767,1.325,2.652l-3.646,6.298c-0.224,0.218-0.166,0.497,0.165,0.829
						c0.332,0.331,0.606,0.497,0.829,0.497h1.326v-0.331c1.988,0,3.589-0.389,4.807-1.161c1.212-0.776,2.429-1.657,3.646-2.651
						c1.212-0.994,2.372-1.88,3.48-2.652c1.104-0.776,2.538-1.16,4.31-1.16c0.217,0,0.663,0.497,1.325,1.492
						c0.663,0.994,1.326,2.098,1.989,3.314c0.663,1.212,1.212,2.372,1.657,3.48c0.44,1.104,0.663,1.875,0.663,2.321h0.663h0.663
						c0.218-0.223,0.331-0.663,0.331-1.326v-9.282c0.44,0,0.772,0.109,0.995,0.332c2.429,1.766,4.361,3.48,5.801,5.138
						c1.435,1.657,3.921,2.486,7.459,2.486c0.44,0,1.212-0.331,2.32-0.994c1.104-0.663,1.875-1.218,2.32-1.658
						c0,0.881,0.383,1.767,1.16,2.652c0.771,0.881,1.709,1.326,2.817,1.326c0-0.223,0.109-0.445,0.332-0.663l0.663-0.663
						c0.217-0.445,0.44-1.492,0.663-3.149c0.217-1.657,0.439-2.709,0.662-3.149c0.218,0,0.663-0.057,1.326-0.165
						c0.663-0.114,1.104-0.166,1.326-0.166c1.989,0,3.755,0.497,5.304,1.492c1.544,0.994,3.315,1.491,5.304,1.491
						c0.881,0,1.544-0.223,1.989-0.663c0.44-0.445,0.549-1.549,0.332-3.314c0.662,1.766,1.377,2.869,2.154,3.314
						c0.771,0.44,1.823,0.663,3.149,0.663c1.325,0,2.206-0.279,2.651-0.829c0.44-0.554,1.212-0.828,2.32-0.828
						c0.881,0,1.989,0.828,3.315,2.486c1.326,1.657,2.595,3.532,3.812,5.635c1.213,2.098,2.264,4.195,3.149,6.298
						c0.881,2.098,1.326,3.589,1.326,4.475c0,0.218-0.057,0.715-0.166,1.492c-0.113,0.772-0.165,1.378-0.165,1.823
						c-1.771,0.218-2.983,1.046-3.646,2.486c-0.663,1.435-1.549,2.595-2.652,3.48l-2.651-7.624
						c-3.315,2.429-5.915,6.019-7.79,10.773c-1.881,4.75-2.818,9.002-2.818,12.762c-2.212,0-3.48-0.829-3.812-2.486
						c-0.332-1.658-0.721-3.481-1.161-5.47h-0.331c-0.663,0-1.217,0.383-1.657,1.16c-0.445,0.771-0.886,1.657-1.326,2.652
						c-0.445,0.995-0.942,1.875-1.492,2.652c-0.554,0.772-1.383,1.16-2.485,1.16c-4.424,0-8.898-0.611-13.426-1.823
						c-4.532-1.217-8.898-1.823-13.094-1.823c-0.886,0-1.605,0.166-2.155,0.498c-0.554,0.332-1.273,0.497-2.154,0.497
						c-2.652,0-5.47-0.388-8.453-1.16c-2.983-0.777-5.692-1.16-8.121-1.16c-0.445,0-1.771,0.166-3.979,0.497
						c-2.211,0.332-3.537,0.606-3.978,0.829h-0.663h-0.331c-0.446-0.223-1.161-0.497-2.155-0.829
						c-0.994-0.332-1.605-0.497-1.823-0.497c-0.223,0-0.663,0.217-1.326,0.663c-0.662,0.44-1.108,0.663-1.325,0.663
						c-1.108,0-1.989-1.108-2.652-3.314c-0.663-2.212-1.88-3.315-3.646-3.315l-0.663,0.663l-0.663,0.663
						c-0.223,0.218-0.497,0.383-0.828,0.497c-0.332,0.109-0.721,0.383-1.16,0.829c-0.663,0.217-1.218,0.549-1.658,0.994h-0.331
						l-0.663,0.332l-0.663-0.332c-0.445-0.886-0.663-1.823-0.663-2.817c0-0.995-0.554-1.714-1.657-2.155
						c-1.108,0.44-1.657,1.326-1.657,2.652c0,1.326,0.549,2.652,1.657,3.978c-0.445,0.217-1.108,0.497-1.989,0.829
						c-0.886,0.332-1.549,0.497-1.988,0.497l-1.326-0.663l-1.326-0.663c-0.223-0.223-0.445-0.332-0.663-0.332h-0.663l-0.994,0.332
						l-1.326,1.326c-2.435,0-4.755-0.497-6.961-1.492c-2.212-0.994-4.424-1.492-6.63-1.492c-1.108,0-1.771,0.275-1.989,0.829
						c-0.223,0.549-0.886,0.829-1.989,0.829h-0.331c-0.223-0.223-0.497-0.497-0.829-0.829c-0.331-0.332-0.497-0.611-0.497-0.829
						c-0.445,2.207-1.491,3.424-3.149,3.646c-1.657,0.218-3.148,0.332-4.475,0.332c-2.435,0-4.424-0.663-5.967-1.989
						c-1.549-1.326-2.543-3.206-2.983-5.635l0.663-1.326c0.217-0.445,0.44-0.777,0.663-0.995v-2.983
						c0-1.989-0.611-3.263-1.823-3.812c-1.218-0.554-2.652-1.16-4.31-1.823c-1.658-0.663-3.264-1.714-4.807-3.149
						c-1.549-1.44-2.652-4.035-3.315-7.79l0.663-1.326c0.218-0.445,0.44-0.777,0.663-0.995c0-0.445-0.166-0.942-0.497-1.492
						c-0.331-0.554-0.611-0.942-0.829-1.16c0.44,0,1.104-0.166,1.989-0.497c0.881-0.332,1.435-0.611,1.657-0.829l0.332-0.663
						l-0.332-0.663c-0.223-0.223-0.663-0.445-1.325-0.663c-0.663-0.223-0.995-0.445-0.995-0.663v-0.331H170.719L170.719-158.758z
						 M189.614-122.296c1.543,0,2.538-0.554,2.983-1.658h-1.326c-1.549,0-2.435,0.549-2.652,1.658H189.614z M192.598-155.776
						c-0.445,0-0.663,0.274-0.663,0.829c0,0.549,0.218,0.715,0.663,0.497C193.478-154.895,193.478-155.336,192.598-155.776z
						 M193.592-126.274h1.326v-1.326L193.592-126.274z M202.542-127.599h0.994h0.332c0.44-0.223,0.938-0.446,1.491-0.663
						c0.55-0.223,0.938-0.445,1.16-0.663c-0.445-0.886-0.942-1.771-1.491-2.652c-0.555-0.886-1.383-1.326-2.486-1.326V-127.599
						L202.542-127.599z M229.062-160.914c0-0.777-0.223-1.161-0.663-1.161c-0.663,0-0.994,0.384-0.994,1.161
						c0,0.771,0.331,1.16,0.994,1.16C228.839-159.754,229.062-160.142,229.062-160.914z M243.315-126.274
						c0-0.886-0.331-1.326-0.994-1.326c-0.445,0-0.663,0.44-0.663,1.326c0,0.88,0.218,1.326,0.663,1.326
						C242.984-124.946,243.315-125.393,243.315-126.274z M243.647-133.898h2.651c0-1.989-0.886-2.983-2.651-2.983V-133.898z
						 M248.619-126.274c0-0.886-0.445-1.326-1.325-1.326c-0.446,0-0.663,0.44-0.663,1.326c0,0.88,0.217,1.326,0.663,1.326
						C248.174-124.946,248.619-125.393,248.619-126.274z M250.939-140.361c0-0.995-0.223-1.492-0.662-1.492
						c-0.663,0-0.995,0.497-0.995,1.492s0.332,1.492,0.995,1.492C250.717-138.87,250.939-139.367,250.939-140.361z M253.923-149.478
						l-1.325-1.326c-0.886,0.663-1.326,1.657-1.326,2.983C252.375-147.819,253.261-148.375,253.923-149.478z M253.923-153.124
						c-0.445-0.223-0.662-0.057-0.662,0.497c0,0.549,0.217,0.829,0.662,0.829C254.804-152.244,254.804-152.684,253.923-153.124z
						 M255.249-126.274h2.652c0.218,0,0.497-0.663,0.828-1.989c0.332-1.326,0.498-2.435,0.498-3.315c0-1.108-0.389-1.937-1.16-2.486
						c-0.777-0.554-1.715-0.829-2.818-0.829V-126.274z M262.874-151.798c0.217-0.223,0.497-0.445,0.828-0.663
						c0.332-0.223,0.497-0.445,0.497-0.663v-0.663v-0.663c0-0.886-0.445-1.326-1.325-1.326V-151.798z M280.774-151.798h1.326v-2.651
						h-1.326V-151.798z M293.371-151.964c0-0.777-0.332-1.16-0.995-1.16c-0.662,0-0.994,0.383-0.994,1.16
						c0,0.771,0.332,1.16,0.994,1.16C293.039-150.804,293.371-151.193,293.371-151.964z M302.652-133.898h0.663h0.663
						c0.218-0.223,0.44-0.663,0.663-1.326c0.218-0.663,0.331-1.108,0.331-1.326c0-0.445-0.279-0.777-0.828-0.994
						c-0.555-0.223-1.052-0.332-1.492-0.332V-133.898L302.652-133.898z M304.642-125.112c0-0.777-0.223-1.16-0.663-1.16
						c-0.663,0-0.994,0.383-0.994,1.16c0,0.772,0.331,1.16,0.994,1.16C304.419-123.953,304.642-124.34,304.642-125.112z
						 M304.973-131.577c-0.445,0-0.663,0.274-0.663,0.829c0,0.549,0.218,0.829,0.663,0.829
						C306.076-130.365,306.076-130.914,304.973-131.577z M315.746-149.312c0.109-0.554,0.166-1.051,0.166-1.492
						c0-1.108-0.331-2.269-0.994-3.48c-0.663-1.218-1.88-1.823-3.646-1.823c0,1.325,0.383,2.76,1.16,4.309
						c0.771,1.543,1.823,2.761,3.149,3.646C315.581-148.375,315.633-148.763,315.746-149.312z M322.542-144.174
						c0-0.663-0.223-1.108-0.663-1.326c-0.445-0.223-0.663,0.218-0.663,1.326c0,1.103,0.218,1.543,0.663,1.326
						C322.319-143.07,322.542-143.51,322.542-144.174z"/>
					<path fill="#E9188D" d="M1.326-158.758v-0.994c0.44-1.326,1.16-3.149,2.155-5.47c0.994-2.32,1.6-3.48,1.823-3.48h1.657
						c0,1.103,0.383,2.263,1.16,3.48c0.771,1.212,1.709,1.823,2.817,1.823h0.332c0.217-0.223,0.715-0.663,1.491-1.326
						c0.771-0.663,1.27-1.108,1.492-1.326h0.331h0.663c0.44,0.218,0.938,0.663,1.491,1.326c0.55,0.663,0.938,1.104,1.161,1.326
						c0.439-0.886,1.6-1.823,3.48-2.818c1.875-0.994,3.258-1.383,4.144-1.16c0.44,0.218,1.932,0.829,4.475,1.823
						c2.538,0.995,4.03,1.71,4.476,2.155l5.304-5.304c0.663-0.663,1.435-0.166,2.32,1.491c0.881,1.657,1.544,2.486,1.989,2.486
						h0.663c1.988-1.108,3.48-2.046,4.475-2.817c0.995-0.777,2.704-1.16,5.139-1.16h0.663c0.217,0.217,0.828,0.714,1.823,1.491
						c0.994,0.771,1.709,1.16,2.154,1.16c0.44,0,0.938-0.331,1.492-0.994c0.549-0.663,0.828-1.218,0.828-1.657
						c2.652,1.543,3.979,3.314,3.979,5.304c0,1.325-0.446,2.206-1.326,2.651c-0.886,0.44-1.326,1.435-1.326,2.983v0.995
						c0,0.217,0.108,0.549,0.331,0.994c0.44-1.108,1.27-1.989,2.486-2.652c1.212-0.662,2.372-1.108,3.48-1.325
						c-0.445-0.446-0.828-1.44-1.16-2.983c-0.331-1.549-0.279-2.652,0.166-3.315c0.218-0.445,0.994-0.994,2.32-1.657
						c1.326-0.663,2.207-0.994,2.652-0.994c1.326,1.103,2.098,2.206,2.32,3.314c0.218,1.104,1.104,1.767,2.652,1.989
						c0.439-0.663,0.938-1.492,1.491-2.486c0.549-0.994,1.16-1.492,1.823-1.492h0.663c0.218,0.218,0.497,0.44,0.829,0.663
						c0.331,0.218,0.497,0.44,0.497,0.663c0.88,0.881,1.325,1.767,1.325,2.652l-3.646,6.298c-0.224,0.218-0.166,0.497,0.165,0.829
						c0.332,0.331,0.606,0.497,0.829,0.497H83.2v-0.331c1.988,0,3.589-0.389,4.807-1.161c1.212-0.776,2.429-1.657,3.646-2.651
						c1.212-0.994,2.372-1.88,3.48-2.652c1.104-0.776,2.538-1.16,4.31-1.16c0.217,0,0.663,0.497,1.325,1.492
						c0.663,0.994,1.326,2.098,1.989,3.314c0.663,1.212,1.212,2.372,1.657,3.48c0.44,1.104,0.663,1.875,0.663,2.321h0.663h0.663
						c0.218-0.223,0.331-0.663,0.331-1.326v-9.282c0.44,0,0.772,0.109,0.995,0.332c2.429,1.766,4.361,3.48,5.801,5.138
						c1.435,1.657,3.921,2.486,7.459,2.486c0.44,0,1.212-0.331,2.32-0.994c1.104-0.663,1.875-1.218,2.32-1.658
						c0,0.881,0.383,1.767,1.16,2.652c0.771,0.881,1.709,1.326,2.817,1.326c0-0.223,0.109-0.445,0.332-0.663l0.663-0.663
						c0.217-0.445,0.44-1.492,0.663-3.149c0.217-1.657,0.439-2.709,0.662-3.149c0.218,0,0.663-0.057,1.326-0.165
						c0.663-0.114,1.104-0.166,1.326-0.166c1.989,0,3.755,0.497,5.304,1.492c1.544,0.994,3.315,1.491,5.304,1.491
						c0.881,0,1.544-0.223,1.989-0.663c0.44-0.445,0.549-1.549,0.332-3.314c0.662,1.766,1.377,2.869,2.154,3.314
						c0.771,0.44,1.823,0.663,3.149,0.663c1.325,0,2.206-0.279,2.651-0.829c0.44-0.554,1.212-0.828,2.32-0.828
						c0.881,0,1.989,0.828,3.315,2.486c1.326,1.657,2.595,3.532,3.812,5.635c1.213,2.098,2.264,4.195,3.149,6.298
						c0.881,2.098,1.326,3.589,1.326,4.475c0,0.218-0.057,0.715-0.166,1.492c-0.113,0.772-0.165,1.378-0.165,1.823
						c-1.771,0.218-2.983,1.046-3.646,2.486c-0.663,1.435-1.549,2.595-2.652,3.48l-2.651-7.624
						c-3.315,2.429-5.915,6.019-7.79,10.773c-1.881,4.75-2.818,9.002-2.818,12.762c-2.212,0-3.48-0.829-3.812-2.486
						c-0.332-1.658-0.721-3.481-1.161-5.47h-0.331c-0.663,0-1.217,0.383-1.657,1.16c-0.445,0.771-0.886,1.657-1.326,2.652
						c-0.445,0.995-0.942,1.875-1.492,2.652c-0.554,0.772-1.383,1.16-2.485,1.16c-4.424,0-8.898-0.611-13.426-1.823
						c-4.532-1.217-8.898-1.823-13.094-1.823c-0.886,0-1.605,0.166-2.155,0.498c-0.554,0.332-1.273,0.497-2.154,0.497
						c-2.652,0-5.47-0.388-8.453-1.16c-2.983-0.777-5.692-1.16-8.121-1.16c-0.445,0-1.771,0.166-3.979,0.497
						c-2.211,0.332-3.537,0.606-3.978,0.829h-0.663h-0.331c-0.446-0.223-1.161-0.497-2.155-0.829s-1.605-0.497-1.823-0.497
						c-0.223,0-0.663,0.217-1.326,0.663c-0.662,0.44-1.108,0.663-1.325,0.663c-1.108,0-1.989-1.108-2.652-3.314
						c-0.663-2.212-1.88-3.315-3.646-3.315l-0.663,0.663l-0.663,0.663c-0.223,0.218-0.497,0.383-0.828,0.497
						c-0.332,0.109-0.721,0.383-1.16,0.829c-0.663,0.217-1.218,0.549-1.658,0.994h-0.331l-0.663,0.332l-0.663-0.332
						c-0.445-0.886-0.663-1.823-0.663-2.817c0-0.995-0.554-1.714-1.657-2.155c-1.108,0.44-1.657,1.326-1.657,2.652
						c0,1.326,0.549,2.652,1.657,3.978c-0.445,0.217-1.108,0.497-1.989,0.829c-0.886,0.332-1.549,0.497-1.988,0.497l-1.326-0.663
						l-1.326-0.663c-0.223-0.223-0.445-0.332-0.663-0.332H51.05l-0.994,0.332l-1.326,1.326c-2.435,0-4.755-0.497-6.961-1.492
						c-2.212-0.994-4.424-1.492-6.63-1.492c-1.108,0-1.771,0.275-1.989,0.829c-0.223,0.549-0.886,0.829-1.989,0.829H30.83
						c-0.223-0.223-0.497-0.497-0.829-0.829c-0.331-0.332-0.497-0.611-0.497-0.829c-0.445,2.207-1.491,3.424-3.149,3.646
						c-1.657,0.218-3.148,0.332-4.475,0.332c-2.435,0-4.424-0.663-5.967-1.989c-1.549-1.326-2.543-3.206-2.983-5.635l0.663-1.326
						c0.217-0.445,0.44-0.777,0.663-0.995v-2.983c0-1.989-0.611-3.263-1.823-3.812c-1.218-0.554-2.652-1.16-4.31-1.823
						c-1.658-0.663-3.264-1.714-4.807-3.149c-1.549-1.44-2.652-4.035-3.315-7.79l0.663-1.326c0.218-0.445,0.44-0.777,0.663-0.995
						c0-0.445-0.166-0.942-0.497-1.492c-0.332-0.554-0.612-0.942-0.83-1.16c0.44,0,1.104-0.166,1.989-0.497
						c0.881-0.332,1.435-0.611,1.657-0.829l0.332-0.663l-0.332-0.663c-0.223-0.223-0.663-0.445-1.325-0.663
						c-0.663-0.223-0.995-0.445-0.995-0.663V-158.758z M20.222-122.296c1.543,0,2.538-0.554,2.983-1.658h-1.326
						c-1.549,0-2.435,0.549-2.652,1.658H20.222z M23.205-155.776c-0.445,0-0.663,0.274-0.663,0.829c0,0.549,0.218,0.715,0.663,0.497
						C24.085-154.895,24.085-155.336,23.205-155.776z M24.199-126.274h1.326v-1.326L24.199-126.274z M33.149-127.599h0.994h0.332
						c0.44-0.223,0.938-0.446,1.491-0.663c0.55-0.223,0.938-0.445,1.16-0.663c-0.445-0.886-0.942-1.771-1.491-2.652
						c-0.555-0.886-1.383-1.326-2.486-1.326V-127.599z M59.669-160.914c0-0.777-0.223-1.161-0.663-1.161
						c-0.663,0-0.994,0.384-0.994,1.161c0,0.771,0.331,1.16,0.994,1.16C59.446-159.754,59.669-160.142,59.669-160.914z
						 M73.923-126.274c0-0.886-0.331-1.326-0.994-1.326c-0.445,0-0.663,0.44-0.663,1.326c0,0.88,0.218,1.326,0.663,1.326
						C73.592-124.946,73.923-125.393,73.923-126.274z M74.255-133.898h2.651c0-1.989-0.886-2.983-2.651-2.983V-133.898z
						 M79.227-126.274c0-0.886-0.445-1.326-1.325-1.326c-0.446,0-0.663,0.44-0.663,1.326c0,0.88,0.217,1.326,0.663,1.326
						C78.781-124.946,79.227-125.393,79.227-126.274z M81.547-140.361c0-0.995-0.223-1.492-0.662-1.492
						c-0.663,0-0.995,0.497-0.995,1.492s0.332,1.492,0.995,1.492C81.324-138.87,81.547-139.367,81.547-140.361z M84.53-149.478
						l-1.325-1.326c-0.886,0.663-1.326,1.657-1.326,2.983C82.982-147.819,83.868-148.375,84.53-149.478z M84.53-153.124
						c-0.445-0.223-0.662-0.057-0.662,0.497c0,0.549,0.217,0.829,0.662,0.829C85.411-152.244,85.411-152.684,84.53-153.124z
						 M85.856-126.274h2.652c0.218,0,0.497-0.663,0.828-1.989c0.332-1.326,0.498-2.435,0.498-3.315c0-1.108-0.389-1.937-1.16-2.486
						c-0.777-0.554-1.715-0.829-2.818-0.829V-126.274z M93.481-151.798c0.217-0.223,0.497-0.445,0.828-0.663
						c0.332-0.223,0.497-0.445,0.497-0.663v-0.663v-0.663c0-0.886-0.445-1.326-1.325-1.326V-151.798z M111.382-151.798h1.326v-2.651
						h-1.326V-151.798z M123.979-151.964c0-0.777-0.332-1.16-0.995-1.16c-0.662,0-0.994,0.383-0.994,1.16
						c0,0.771,0.332,1.16,0.994,1.16S123.979-151.193,123.979-151.964z M133.26-133.898h0.663h0.663
						c0.218-0.223,0.44-0.663,0.663-1.326c0.218-0.663,0.331-1.108,0.331-1.326c0-0.445-0.279-0.777-0.828-0.994
						c-0.555-0.223-1.052-0.332-1.492-0.332V-133.898L133.26-133.898z M135.249-125.112c0-0.777-0.223-1.16-0.663-1.16
						c-0.663,0-0.994,0.383-0.994,1.16c0,0.772,0.331,1.16,0.994,1.16C135.026-123.953,135.249-124.34,135.249-125.112z
						 M135.58-131.577c-0.445,0-0.663,0.274-0.663,0.829c0,0.549,0.218,0.829,0.663,0.829
						C136.684-130.365,136.684-130.914,135.58-131.577z M146.354-149.312c0.109-0.554,0.166-1.051,0.166-1.492
						c0-1.108-0.331-2.269-0.994-3.48c-0.663-1.218-1.88-1.823-3.646-1.823c0,1.325,0.383,2.76,1.16,4.309
						c0.771,1.543,1.823,2.761,3.149,3.646C146.188-148.375,146.24-148.763,146.354-149.312z M153.149-144.174
						c0-0.663-0.223-1.108-0.663-1.326c-0.445-0.223-0.663,0.218-0.663,1.326c0,1.103,0.218,1.543,0.663,1.326
						C152.927-143.07,153.149-143.51,153.149-144.174z"/>
					<path fill="#E9188D" d="M86.022-119.762v-0.994c0.44-1.326,1.16-3.149,2.155-5.47c0.994-2.32,1.6-3.48,1.823-3.48h1.657
						c0,1.103,0.383,2.263,1.16,3.48c0.771,1.212,1.709,1.823,2.817,1.823h0.332c0.217-0.223,0.715-0.663,1.491-1.326
						c0.771-0.663,1.27-1.108,1.492-1.326h0.331h0.663c0.44,0.217,0.938,0.663,1.491,1.326c0.55,0.663,0.938,1.104,1.161,1.326
						c0.439-0.886,1.6-1.823,3.48-2.818c1.875-0.994,3.258-1.383,4.144-1.16c0.44,0.218,1.932,0.829,4.475,1.823
						c2.538,0.995,4.03,1.709,4.476,2.155l5.304-5.304c0.663-0.663,1.435-0.166,2.32,1.492c0.881,1.657,1.544,2.486,1.989,2.486
						h0.663c1.988-1.108,3.48-2.046,4.475-2.817c0.995-0.777,2.704-1.16,5.139-1.16h0.663c0.217,0.217,0.828,0.714,1.823,1.492
						c0.994,0.771,1.709,1.16,2.154,1.16c0.44,0,0.938-0.332,1.492-0.995c0.549-0.663,0.828-1.217,0.828-1.657
						c2.652,1.543,3.979,3.315,3.979,5.304c0,1.326-0.446,2.207-1.326,2.652c-0.886,0.44-1.326,1.435-1.326,2.983v0.995
						c0,0.217,0.108,0.549,0.331,0.994c0.44-1.108,1.27-1.989,2.486-2.652c1.212-0.663,2.372-1.108,3.48-1.326
						c-0.445-0.446-0.828-1.44-1.16-2.983c-0.331-1.549-0.279-2.652,0.166-3.315c0.218-0.446,0.994-0.995,2.32-1.658
						c1.326-0.663,2.207-0.994,2.652-0.994c1.326,1.103,2.098,2.206,2.32,3.315c0.218,1.104,1.104,1.766,2.652,1.989
						c0.439-0.663,0.938-1.492,1.491-2.486c0.549-0.994,1.16-1.492,1.823-1.492h0.663c0.218,0.218,0.497,0.44,0.829,0.663
						c0.331,0.217,0.497,0.44,0.497,0.663c0.88,0.88,1.325,1.766,1.325,2.652l-3.646,6.298c-0.224,0.217-0.166,0.497,0.165,0.829
						c0.332,0.332,0.606,0.497,0.829,0.497h1.326v-0.331c1.988,0,3.589-0.389,4.807-1.161c1.212-0.777,2.429-1.657,3.646-2.652
						c1.212-0.994,2.372-1.88,3.48-2.652c1.104-0.777,2.538-1.16,4.31-1.16c0.217,0,0.663,0.497,1.325,1.492
						c0.663,0.995,1.326,2.098,1.989,3.315c0.663,1.212,1.212,2.372,1.657,3.48c0.44,1.104,0.663,1.875,0.663,2.321h0.663h0.663
						c0.218-0.223,0.331-0.663,0.331-1.326v-9.282c0.44,0,0.772,0.109,0.995,0.332c2.429,1.766,4.361,3.48,5.801,5.138
						c1.435,1.657,3.921,2.486,7.459,2.486c0.44,0,1.212-0.331,2.32-0.994c1.104-0.663,1.875-1.217,2.32-1.658
						c0,0.881,0.383,1.767,1.16,2.652c0.771,0.881,1.709,1.326,2.817,1.326c0-0.223,0.109-0.445,0.332-0.663l0.663-0.663
						c0.217-0.445,0.44-1.492,0.663-3.149c0.217-1.657,0.439-2.709,0.662-3.149c0.218,0,0.663-0.057,1.326-0.166
						c0.663-0.114,1.104-0.166,1.326-0.166c1.989,0,3.755,0.497,5.304,1.492c1.544,0.994,3.315,1.492,5.304,1.492
						c0.881,0,1.544-0.223,1.989-0.663c0.44-0.445,0.549-1.549,0.332-3.315c0.662,1.766,1.377,2.87,2.154,3.315
						c0.771,0.44,1.823,0.663,3.149,0.663c1.325,0,2.206-0.28,2.651-0.829c0.44-0.554,1.212-0.829,2.32-0.829
						c0.881,0,1.989,0.829,3.315,2.486c1.326,1.657,2.595,3.532,3.812,5.635c1.213,2.098,2.264,4.195,3.149,6.298
						c0.881,2.098,1.326,3.589,1.326,4.475c0,0.218-0.057,0.715-0.166,1.492c-0.113,0.772-0.165,1.378-0.165,1.823
						c-1.771,0.218-2.983,1.046-3.646,2.486c-0.663,1.435-1.549,2.595-2.652,3.48l-2.651-7.624
						c-3.315,2.429-5.915,6.019-7.79,10.773c-1.881,4.75-2.818,9.002-2.818,12.762c-2.212,0-3.48-0.829-3.812-2.486
						c-0.332-1.658-0.721-3.481-1.161-5.47h-0.331c-0.663,0-1.217,0.383-1.657,1.16c-0.445,0.771-0.886,1.657-1.326,2.652
						c-0.445,0.995-0.942,1.875-1.492,2.652c-0.554,0.772-1.383,1.16-2.485,1.16c-4.424,0-8.898-0.611-13.426-1.823
						c-4.532-1.217-8.898-1.823-13.094-1.823c-0.886,0-1.605,0.166-2.155,0.498c-0.554,0.332-1.273,0.497-2.154,0.497
						c-2.652,0-5.47-0.388-8.453-1.16c-2.983-0.777-5.692-1.16-8.121-1.16c-0.445,0-1.771,0.166-3.979,0.497
						c-2.211,0.332-3.537,0.606-3.978,0.829h-0.663h-0.331c-0.446-0.223-1.161-0.497-2.155-0.829s-1.605-0.497-1.823-0.497
						c-0.223,0-0.663,0.217-1.326,0.663c-0.662,0.44-1.108,0.663-1.325,0.663c-1.108,0-1.989-1.108-2.652-3.314
						c-0.663-2.212-1.88-3.315-3.646-3.315l-0.663,0.663l-0.663,0.663c-0.223,0.218-0.497,0.383-0.828,0.497
						c-0.332,0.109-0.721,0.383-1.16,0.829c-0.663,0.217-1.218,0.549-1.658,0.994h-0.331l-0.663,0.332l-0.663-0.332
						c-0.445-0.886-0.663-1.823-0.663-2.817c0-0.995-0.554-1.714-1.657-2.155c-1.108,0.44-1.657,1.326-1.657,2.652
						s0.549,2.652,1.657,3.978c-0.445,0.217-1.108,0.497-1.989,0.829c-0.886,0.332-1.549,0.497-1.988,0.497l-1.326-0.663
						l-1.326-0.663c-0.223-0.223-0.445-0.332-0.663-0.332h-0.663l-0.994,0.332l-1.326,1.326c-2.435,0-4.755-0.497-6.961-1.492
						c-2.212-0.994-4.424-1.492-6.63-1.492c-1.108,0-1.771,0.275-1.989,0.829c-0.223,0.549-0.886,0.829-1.989,0.829h-0.331
						c-0.223-0.223-0.497-0.497-0.829-0.829c-0.331-0.332-0.497-0.611-0.497-0.829c-0.445,2.207-1.491,3.424-3.149,3.646
						c-1.657,0.218-3.148,0.332-4.475,0.332c-2.435,0-4.424-0.663-5.967-1.989c-1.549-1.326-2.543-3.206-2.983-5.635l0.663-1.326
						c0.217-0.445,0.44-0.777,0.663-0.995v-2.983c0-1.989-0.611-3.263-1.823-3.812c-1.218-0.554-2.652-1.16-4.31-1.823
						c-1.658-0.663-3.264-1.714-4.807-3.149c-1.549-1.44-2.652-4.035-3.315-7.79l0.663-1.326c0.218-0.445,0.44-0.777,0.663-0.995
						c0-0.445-0.166-0.942-0.497-1.492c-0.331-0.554-0.611-0.942-0.829-1.16c0.44,0,1.104-0.166,1.989-0.497
						c0.881-0.332,1.435-0.611,1.657-0.829l0.332-0.663l-0.332-0.663c-0.223-0.223-0.663-0.445-1.325-0.663
						c-0.663-0.223-0.995-0.445-0.995-0.663v-0.331H86.022L86.022-119.762z M104.918-83.298c1.543,0,2.538-0.554,2.983-1.658h-1.326
						c-1.549,0-2.435,0.549-2.652,1.658H104.918z M107.901-116.778c-0.445,0-0.663,0.275-0.663,0.829
						c0,0.549,0.218,0.715,0.663,0.497C108.781-115.898,108.781-116.339,107.901-116.778z M108.896-87.276h1.326v-1.326
						L108.896-87.276z M117.846-88.602h0.994h0.332c0.44-0.223,0.938-0.446,1.491-0.663c0.55-0.223,0.938-0.445,1.16-0.663
						c-0.445-0.886-0.942-1.771-1.491-2.652c-0.555-0.886-1.383-1.326-2.486-1.326V-88.602z M144.365-121.917
						c0-0.777-0.223-1.161-0.663-1.161c-0.663,0-0.994,0.383-0.994,1.161c0,0.771,0.331,1.16,0.994,1.16
						C144.143-120.757,144.365-121.145,144.365-121.917z M158.619-87.276c0-0.886-0.331-1.326-0.994-1.326
						c-0.445,0-0.663,0.44-0.663,1.326c0,0.88,0.218,1.326,0.663,1.326C158.288-85.95,158.619-86.396,158.619-87.276z M158.951-94.9
						h2.651c0-1.989-0.886-2.983-2.651-2.983V-94.9z M163.923-87.276c0-0.886-0.445-1.326-1.325-1.326
						c-0.446,0-0.663,0.44-0.663,1.326c0,0.88,0.217,1.326,0.663,1.326C163.478-85.95,163.923-86.396,163.923-87.276z
						 M166.243-101.364c0-0.995-0.223-1.492-0.662-1.492c-0.663,0-0.995,0.497-0.995,1.492s0.332,1.492,0.995,1.492
						C166.021-99.873,166.243-100.37,166.243-101.364z M169.227-110.48l-1.325-1.326c-0.886,0.663-1.326,1.657-1.326,2.983
						C167.679-108.823,168.564-109.377,169.227-110.48z M169.227-114.127c-0.445-0.223-0.662-0.057-0.662,0.497
						c0,0.549,0.217,0.829,0.662,0.829C170.107-113.246,170.107-113.687,169.227-114.127z M170.553-87.276h2.652
						c0.218,0,0.497-0.663,0.828-1.989c0.332-1.326,0.498-2.435,0.498-3.315c0-1.108-0.389-1.938-1.16-2.486
						c-0.777-0.554-1.715-0.829-2.818-0.829V-87.276z M178.178-112.8c0.217-0.223,0.497-0.445,0.828-0.663
						c0.332-0.223,0.497-0.445,0.497-0.663v-0.663v-0.663c0-0.886-0.445-1.326-1.325-1.326V-112.8z M196.078-112.8h1.326v-2.652
						h-1.326V-112.8z M208.675-112.965c0-0.777-0.332-1.16-0.995-1.16c-0.662,0-0.994,0.383-0.994,1.16
						c0,0.771,0.332,1.16,0.994,1.16C208.343-111.806,208.675-112.194,208.675-112.965z M217.956-94.9h0.663h0.663
						c0.218-0.223,0.44-0.663,0.663-1.326c0.218-0.663,0.331-1.108,0.331-1.326c0-0.445-0.279-0.777-0.828-0.994
						c-0.555-0.223-1.052-0.332-1.492-0.332V-94.9L217.956-94.9z M219.945-86.116c0-0.777-0.223-1.16-0.663-1.16
						c-0.663,0-0.994,0.383-0.994,1.16c0,0.772,0.331,1.16,0.994,1.16C219.723-84.956,219.945-85.343,219.945-86.116z
						 M220.276-92.58c-0.445,0-0.663,0.274-0.663,0.829c0,0.549,0.218,0.829,0.663,0.829C221.38-91.368,221.38-91.917,220.276-92.58
						z M231.05-110.315c0.109-0.554,0.166-1.051,0.166-1.492c0-1.108-0.331-2.269-0.994-3.48c-0.663-1.217-1.88-1.823-3.646-1.823
						c0,1.326,0.383,2.761,1.16,4.309c0.771,1.543,1.823,2.761,3.149,3.646C230.885-109.377,230.937-109.766,231.05-110.315z
						 M237.846-105.175c0-0.663-0.223-1.108-0.663-1.326c-0.445-0.223-0.663,0.218-0.663,1.326c0,1.103,0.218,1.543,0.663,1.326
						C237.623-104.073,237.846-104.513,237.846-105.175z"/>
					<path fill="#E9188D" d="M170.719-80.765v-0.994c0.44-1.326,1.16-3.149,2.155-5.47c0.994-2.32,1.6-3.48,1.823-3.48h1.657
						c0,1.103,0.383,2.263,1.16,3.48c0.771,1.212,1.709,1.823,2.817,1.823h0.332c0.217-0.223,0.715-0.663,1.491-1.326
						c0.771-0.663,1.27-1.108,1.492-1.326h0.331h0.663c0.44,0.217,0.938,0.663,1.491,1.326c0.55,0.663,0.938,1.104,1.161,1.326
						c0.439-0.886,1.6-1.823,3.48-2.818c1.875-0.994,3.258-1.383,4.144-1.16c0.44,0.218,1.932,0.829,4.475,1.823
						c2.538,0.995,4.03,1.709,4.476,2.155l5.304-5.304c0.663-0.663,1.435-0.166,2.32,1.492c0.881,1.657,1.544,2.486,1.989,2.486
						h0.663c1.988-1.108,3.48-2.046,4.475-2.817c0.995-0.777,2.704-1.16,5.139-1.16h0.663c0.217,0.217,0.828,0.714,1.823,1.492
						c0.994,0.771,1.709,1.16,2.154,1.16c0.44,0,0.938-0.332,1.492-0.995c0.549-0.663,0.828-1.217,0.828-1.657
						c2.652,1.543,3.979,3.315,3.979,5.304c0,1.326-0.446,2.207-1.326,2.652c-0.886,0.44-1.326,1.435-1.326,2.983v0.995
						c0,0.217,0.108,0.549,0.331,0.994c0.44-1.108,1.27-1.989,2.486-2.652c1.212-0.663,2.372-1.108,3.48-1.326
						c-0.445-0.446-0.828-1.44-1.16-2.983c-0.331-1.549-0.279-2.652,0.166-3.315c0.218-0.446,0.994-0.995,2.32-1.658
						s2.207-0.994,2.652-0.994c1.326,1.103,2.098,2.206,2.32,3.315c0.218,1.103,1.104,1.766,2.652,1.989
						c0.439-0.663,0.938-1.492,1.491-2.486c0.549-0.994,1.16-1.492,1.823-1.492h0.663c0.218,0.218,0.497,0.44,0.829,0.663
						c0.331,0.217,0.497,0.44,0.497,0.663c0.88,0.88,1.325,1.766,1.325,2.652l-3.646,6.298c-0.224,0.217-0.166,0.497,0.165,0.829
						c0.332,0.332,0.606,0.497,0.829,0.497h1.326v-0.331c1.988,0,3.589-0.389,4.807-1.161c1.212-0.777,2.429-1.657,3.646-2.652
						c1.212-0.994,2.372-1.88,3.48-2.652c1.104-0.777,2.538-1.16,4.31-1.16c0.217,0,0.663,0.497,1.325,1.492
						c0.663,0.995,1.326,2.098,1.989,3.315c0.663,1.212,1.212,2.372,1.657,3.48c0.44,1.104,0.663,1.875,0.663,2.321h0.663h0.663
						c0.218-0.223,0.331-0.663,0.331-1.326v-9.282c0.44,0,0.772,0.109,0.995,0.332c2.429,1.766,4.361,3.48,5.801,5.138
						c1.435,1.657,3.921,2.486,7.459,2.486c0.44,0,1.212-0.331,2.32-0.994c1.104-0.663,1.875-1.217,2.32-1.658
						c0,0.881,0.383,1.767,1.16,2.652c0.771,0.881,1.709,1.326,2.817,1.326c0-0.223,0.109-0.445,0.332-0.663l0.663-0.663
						c0.217-0.445,0.44-1.492,0.663-3.149c0.217-1.657,0.439-2.709,0.662-3.149c0.218,0,0.663-0.057,1.326-0.166
						c0.663-0.114,1.104-0.166,1.326-0.166c1.989,0,3.755,0.497,5.304,1.492c1.544,0.994,3.315,1.492,5.304,1.492
						c0.881,0,1.544-0.223,1.989-0.663c0.44-0.445,0.549-1.549,0.332-3.315c0.662,1.766,1.377,2.87,2.154,3.315
						c0.771,0.44,1.823,0.663,3.149,0.663c1.325,0,2.206-0.28,2.651-0.829c0.44-0.554,1.212-0.829,2.32-0.829
						c0.881,0,1.989,0.829,3.315,2.486c1.326,1.657,2.595,3.532,3.812,5.635c1.213,2.098,2.264,4.195,3.149,6.298
						c0.881,2.098,1.326,3.589,1.326,4.475c0,0.218-0.057,0.715-0.166,1.492c-0.113,0.772-0.165,1.378-0.165,1.823
						c-1.771,0.218-2.983,1.046-3.646,2.486c-0.663,1.435-1.549,2.595-2.652,3.48l-2.651-7.624
						c-3.315,2.429-5.915,6.019-7.79,10.773c-1.881,4.75-2.818,9.002-2.818,12.762c-2.212,0-3.48-0.829-3.812-2.486
						c-0.332-1.658-0.721-3.481-1.161-5.47h-0.331c-0.663,0-1.217,0.383-1.657,1.16c-0.445,0.771-0.886,1.657-1.326,2.652
						c-0.445,0.995-0.942,1.875-1.492,2.652c-0.554,0.772-1.383,1.16-2.485,1.16c-4.424,0-8.898-0.611-13.426-1.823
						c-4.532-1.217-8.898-1.823-13.094-1.823c-0.886,0-1.605,0.166-2.155,0.498c-0.554,0.332-1.273,0.497-2.154,0.497
						c-2.652,0-5.47-0.388-8.453-1.16c-2.983-0.777-5.692-1.16-8.121-1.16c-0.445,0-1.771,0.166-3.979,0.497
						c-2.211,0.332-3.537,0.606-3.978,0.829h-0.663h-0.331c-0.446-0.223-1.161-0.497-2.155-0.829
						c-0.994-0.332-1.605-0.497-1.823-0.497c-0.223,0-0.663,0.217-1.326,0.663c-0.662,0.44-1.108,0.663-1.325,0.663
						c-1.108,0-1.989-1.108-2.652-3.314c-0.663-2.212-1.88-3.315-3.646-3.315l-0.663,0.663l-0.663,0.663
						c-0.223,0.218-0.497,0.383-0.828,0.497c-0.332,0.109-0.721,0.383-1.16,0.829c-0.663,0.217-1.218,0.549-1.658,0.994h-0.331
						l-0.663,0.332l-0.663-0.332c-0.445-0.886-0.663-1.823-0.663-2.817c0-0.995-0.554-1.714-1.657-2.155
						c-1.108,0.44-1.657,1.326-1.657,2.652s0.549,2.652,1.657,3.978c-0.445,0.217-1.108,0.497-1.989,0.829
						c-0.886,0.332-1.549,0.497-1.988,0.497l-1.326-0.663l-1.326-0.663c-0.223-0.223-0.445-0.332-0.663-0.332h-0.663l-0.994,0.332
						l-1.326,1.326c-2.435,0-4.755-0.497-6.961-1.492c-2.212-0.994-4.424-1.492-6.63-1.492c-1.108,0-1.771,0.275-1.989,0.829
						c-0.223,0.549-0.886,0.829-1.989,0.829h-0.331c-0.223-0.223-0.497-0.497-0.829-0.829c-0.331-0.332-0.497-0.611-0.497-0.829
						c-0.445,2.207-1.491,3.424-3.149,3.646c-1.657,0.218-3.148,0.332-4.475,0.332c-2.435,0-4.424-0.663-5.967-1.989
						c-1.549-1.326-2.543-3.206-2.983-5.635l0.663-1.326c0.217-0.445,0.44-0.777,0.663-0.995v-2.983
						c0-1.989-0.611-3.263-1.823-3.812c-1.218-0.554-2.652-1.16-4.31-1.823c-1.658-0.663-3.264-1.714-4.807-3.149
						c-1.549-1.44-2.652-4.035-3.315-7.79l0.663-1.326c0.218-0.445,0.44-0.777,0.663-0.995c0-0.445-0.166-0.942-0.497-1.492
						c-0.331-0.554-0.611-0.942-0.829-1.16c0.44,0,1.104-0.166,1.989-0.497c0.881-0.332,1.435-0.611,1.657-0.829l0.332-0.663
						l-0.332-0.663c-0.223-0.223-0.663-0.445-1.325-0.663c-0.663-0.223-0.995-0.445-0.995-0.663v-0.331H170.719L170.719-80.765z
						 M189.614-44.299c1.543,0,2.538-0.554,2.983-1.658h-1.326c-1.549,0-2.435,0.549-2.652,1.658H189.614z M192.598-77.781
						c-0.445,0-0.663,0.275-0.663,0.829c0,0.549,0.218,0.715,0.663,0.497C193.478-76.901,193.478-77.34,192.598-77.781z
						 M193.592-48.278h1.326v-1.326L193.592-48.278z M202.542-49.604h0.994h0.332c0.44-0.223,0.938-0.446,1.491-0.663
						c0.55-0.223,0.938-0.445,1.16-0.663c-0.445-0.886-0.942-1.771-1.491-2.652c-0.555-0.886-1.383-1.326-2.486-1.326V-49.604
						L202.542-49.604z M229.062-82.919c0-0.777-0.223-1.161-0.663-1.161c-0.663,0-0.994,0.383-0.994,1.161
						c0,0.771,0.331,1.16,0.994,1.16C228.839-81.758,229.062-82.148,229.062-82.919z M243.315-48.278
						c0-0.886-0.331-1.326-0.994-1.326c-0.445,0-0.663,0.44-0.663,1.326c0,0.88,0.218,1.326,0.663,1.326
						C242.984-46.952,243.315-47.398,243.315-48.278z M243.647-55.903h2.651c0-1.989-0.886-2.983-2.651-2.983V-55.903z
						 M248.619-48.278c0-0.886-0.445-1.326-1.325-1.326c-0.446,0-0.663,0.44-0.663,1.326c0,0.88,0.217,1.326,0.663,1.326
						C248.174-46.952,248.619-47.398,248.619-48.278z M250.939-62.367c0-0.995-0.223-1.492-0.662-1.492
						c-0.663,0-0.995,0.497-0.995,1.492s0.332,1.492,0.995,1.492C250.717-60.875,250.939-61.372,250.939-62.367z M253.923-71.483
						l-1.325-1.326c-0.886,0.663-1.326,1.657-1.326,2.983C252.375-69.825,253.261-70.38,253.923-71.483z M253.923-75.129
						c-0.445-0.223-0.662-0.057-0.662,0.497c0,0.549,0.217,0.829,0.662,0.829C254.804-74.249,254.804-74.689,253.923-75.129z
						 M255.249-48.278h2.652c0.218,0,0.497-0.663,0.828-1.989c0.332-1.326,0.498-2.435,0.498-3.315c0-1.108-0.389-1.937-1.16-2.486
						c-0.777-0.554-1.715-0.829-2.818-0.829V-48.278z M262.874-73.803c0.217-0.223,0.497-0.445,0.828-0.663
						c0.332-0.223,0.497-0.445,0.497-0.663v-0.663v-0.663c0-0.886-0.445-1.326-1.325-1.326V-73.803z M280.774-73.803h1.326v-2.652
						h-1.326V-73.803z M293.371-73.968c0-0.777-0.332-1.16-0.995-1.16c-0.662,0-0.994,0.383-0.994,1.16
						c0,0.771,0.332,1.16,0.994,1.16C293.039-72.809,293.371-73.196,293.371-73.968z M302.652-55.903h0.663h0.663
						c0.218-0.223,0.44-0.663,0.663-1.326c0.218-0.663,0.331-1.108,0.331-1.326c0-0.445-0.279-0.777-0.828-0.994
						c-0.555-0.223-1.052-0.332-1.492-0.332V-55.903L302.652-55.903z M304.642-47.118c0-0.777-0.223-1.16-0.663-1.16
						c-0.663,0-0.994,0.383-0.994,1.16c0,0.772,0.331,1.16,0.994,1.16C304.419-45.958,304.642-46.346,304.642-47.118z
						 M304.973-53.582c-0.445,0-0.663,0.274-0.663,0.829c0,0.549,0.218,0.829,0.663,0.829
						C306.076-52.37,306.076-52.919,304.973-53.582z M315.746-71.317c0.109-0.554,0.166-1.051,0.166-1.492
						c0-1.108-0.331-2.269-0.994-3.479c-0.663-1.217-1.88-1.823-3.646-1.823c0,1.326,0.383,2.761,1.16,4.309
						c0.771,1.543,1.823,2.761,3.149,3.646C315.581-70.38,315.633-70.768,315.746-71.317z M322.542-66.179
						c0-0.663-0.223-1.108-0.663-1.326c-0.445-0.223-0.663,0.218-0.663,1.326c0,1.103,0.218,1.543,0.663,1.326
						C322.319-65.076,322.542-65.516,322.542-66.179z"/>
					<path fill="#E9188D" d="M1.326-80.765v-0.994c0.44-1.326,1.16-3.149,2.155-5.47c0.994-2.32,1.6-3.48,1.823-3.48h1.657
						c0,1.103,0.383,2.263,1.16,3.48c0.771,1.212,1.709,1.823,2.817,1.823h0.332c0.217-0.223,0.715-0.663,1.491-1.326
						c0.771-0.663,1.27-1.108,1.492-1.326h0.331h0.663c0.44,0.217,0.938,0.663,1.491,1.326c0.55,0.663,0.938,1.104,1.161,1.326
						c0.439-0.886,1.6-1.823,3.48-2.818c1.875-0.994,3.258-1.383,4.144-1.16c0.44,0.218,1.932,0.829,4.475,1.823
						c2.538,0.995,4.03,1.709,4.476,2.155l5.304-5.304c0.663-0.663,1.435-0.166,2.32,1.492c0.881,1.657,1.544,2.486,1.989,2.486
						h0.663c1.988-1.108,3.48-2.046,4.475-2.817c0.995-0.777,2.704-1.16,5.139-1.16h0.663c0.217,0.217,0.828,0.714,1.823,1.492
						c0.994,0.771,1.709,1.16,2.154,1.16c0.44,0,0.938-0.332,1.492-0.995c0.549-0.663,0.828-1.217,0.828-1.657
						c2.652,1.543,3.979,3.315,3.979,5.304c0,1.326-0.446,2.207-1.326,2.652c-0.886,0.44-1.326,1.435-1.326,2.983v0.995
						c0,0.217,0.108,0.549,0.331,0.994c0.44-1.108,1.27-1.989,2.486-2.652c1.212-0.663,2.372-1.108,3.48-1.326
						c-0.445-0.446-0.828-1.44-1.16-2.983c-0.331-1.549-0.279-2.652,0.166-3.315c0.218-0.446,0.994-0.995,2.32-1.658
						s2.207-0.994,2.652-0.994c1.326,1.103,2.098,2.206,2.32,3.315c0.218,1.103,1.104,1.766,2.652,1.989
						c0.439-0.663,0.938-1.492,1.491-2.486c0.549-0.994,1.16-1.492,1.823-1.492h0.663c0.218,0.218,0.497,0.44,0.829,0.663
						c0.331,0.217,0.497,0.44,0.497,0.663c0.88,0.88,1.325,1.766,1.325,2.652l-3.646,6.298c-0.224,0.217-0.166,0.497,0.165,0.829
						c0.332,0.332,0.606,0.497,0.829,0.497H83.2v-0.331c1.988,0,3.589-0.389,4.807-1.161c1.212-0.777,2.429-1.657,3.646-2.652
						c1.212-0.994,2.372-1.88,3.48-2.652c1.104-0.777,2.538-1.16,4.31-1.16c0.217,0,0.663,0.497,1.325,1.492
						c0.663,0.995,1.326,2.098,1.989,3.315c0.663,1.212,1.212,2.372,1.657,3.48c0.44,1.104,0.663,1.875,0.663,2.321h0.663h0.663
						c0.218-0.223,0.331-0.663,0.331-1.326v-9.282c0.44,0,0.772,0.109,0.995,0.332c2.429,1.766,4.361,3.48,5.801,5.138
						c1.435,1.657,3.921,2.486,7.459,2.486c0.44,0,1.212-0.331,2.32-0.994c1.104-0.663,1.875-1.217,2.32-1.658
						c0,0.881,0.383,1.767,1.16,2.652c0.771,0.881,1.709,1.326,2.817,1.326c0-0.223,0.109-0.445,0.332-0.663l0.663-0.663
						c0.217-0.445,0.44-1.492,0.663-3.149c0.217-1.657,0.439-2.709,0.662-3.149c0.218,0,0.663-0.057,1.326-0.166
						c0.663-0.114,1.104-0.166,1.326-0.166c1.989,0,3.755,0.497,5.304,1.492c1.544,0.994,3.315,1.492,5.304,1.492
						c0.881,0,1.544-0.223,1.989-0.663c0.44-0.445,0.549-1.549,0.332-3.315c0.662,1.766,1.377,2.87,2.154,3.315
						c0.771,0.44,1.823,0.663,3.149,0.663c1.325,0,2.206-0.28,2.651-0.829c0.44-0.554,1.212-0.829,2.32-0.829
						c0.881,0,1.989,0.829,3.315,2.486c1.326,1.657,2.595,3.532,3.812,5.635c1.213,2.098,2.264,4.195,3.149,6.298
						c0.881,2.098,1.326,3.589,1.326,4.475c0,0.218-0.057,0.715-0.166,1.492c-0.113,0.772-0.165,1.378-0.165,1.823
						c-1.771,0.218-2.983,1.046-3.646,2.486c-0.663,1.435-1.549,2.595-2.652,3.48l-2.651-7.624
						c-3.315,2.429-5.915,6.019-7.79,10.773c-1.881,4.75-2.818,9.002-2.818,12.762c-2.212,0-3.48-0.829-3.812-2.486
						c-0.332-1.658-0.721-3.481-1.161-5.47h-0.331c-0.663,0-1.217,0.383-1.657,1.16c-0.445,0.771-0.886,1.657-1.326,2.652
						c-0.445,0.995-0.942,1.875-1.492,2.652c-0.554,0.772-1.383,1.16-2.485,1.16c-4.424,0-8.898-0.611-13.426-1.823
						c-4.532-1.217-8.898-1.823-13.094-1.823c-0.886,0-1.605,0.166-2.155,0.498c-0.554,0.332-1.273,0.497-2.154,0.497
						c-2.652,0-5.47-0.388-8.453-1.16c-2.983-0.777-5.692-1.16-8.121-1.16c-0.445,0-1.771,0.166-3.979,0.497
						c-2.211,0.332-3.537,0.606-3.978,0.829h-0.663h-0.331c-0.446-0.223-1.161-0.497-2.155-0.829s-1.605-0.497-1.823-0.497
						c-0.223,0-0.663,0.217-1.326,0.663c-0.662,0.44-1.108,0.663-1.325,0.663c-1.108,0-1.989-1.108-2.652-3.314
						c-0.663-2.212-1.88-3.315-3.646-3.315l-0.663,0.663l-0.663,0.663c-0.223,0.218-0.497,0.383-0.828,0.497
						c-0.332,0.109-0.721,0.383-1.16,0.829c-0.663,0.217-1.218,0.549-1.658,0.994h-0.331l-0.663,0.332l-0.663-0.332
						c-0.445-0.886-0.663-1.823-0.663-2.817c0-0.995-0.554-1.714-1.657-2.155c-1.108,0.44-1.657,1.326-1.657,2.652
						s0.549,2.652,1.657,3.978c-0.445,0.217-1.108,0.497-1.989,0.829c-0.886,0.332-1.549,0.497-1.988,0.497l-1.326-0.663
						l-1.326-0.663c-0.223-0.223-0.445-0.332-0.663-0.332H51.05l-0.994,0.332l-1.326,1.326c-2.435,0-4.755-0.497-6.961-1.492
						c-2.212-0.994-4.424-1.492-6.63-1.492c-1.108,0-1.771,0.275-1.989,0.829c-0.223,0.549-0.886,0.829-1.989,0.829H30.83
						c-0.223-0.223-0.497-0.497-0.829-0.829c-0.331-0.332-0.497-0.611-0.497-0.829c-0.445,2.207-1.491,3.424-3.149,3.646
						c-1.657,0.218-3.148,0.332-4.475,0.332c-2.435,0-4.424-0.663-5.967-1.989c-1.549-1.326-2.543-3.206-2.983-5.635l0.663-1.326
						c0.217-0.445,0.44-0.777,0.663-0.995v-2.983c0-1.989-0.611-3.263-1.823-3.812c-1.218-0.554-2.652-1.16-4.31-1.823
						c-1.658-0.663-3.264-1.714-4.807-3.149c-1.549-1.44-2.652-4.035-3.315-7.79l0.663-1.326c0.218-0.445,0.44-0.777,0.663-0.995
						c0-0.445-0.166-0.942-0.497-1.492c-0.331-0.554-0.611-0.942-0.829-1.16c0.44,0,1.104-0.166,1.989-0.497
						c0.881-0.332,1.435-0.611,1.657-0.829l0.332-0.663l-0.332-0.663c-0.223-0.223-0.663-0.445-1.325-0.663
						c-0.663-0.223-0.995-0.445-0.995-0.663L1.326-80.765L1.326-80.765z M20.222-44.299c1.543,0,2.538-0.554,2.983-1.658h-1.326
						c-1.549,0-2.435,0.549-2.652,1.658H20.222z M23.205-77.781c-0.445,0-0.663,0.275-0.663,0.829c0,0.549,0.218,0.715,0.663,0.497
						C24.085-76.901,24.085-77.34,23.205-77.781z M24.199-48.278h1.326v-1.326L24.199-48.278z M33.149-49.604h0.994h0.332
						c0.44-0.223,0.938-0.446,1.491-0.663c0.55-0.223,0.938-0.445,1.16-0.663c-0.445-0.886-0.942-1.771-1.491-2.652
						c-0.555-0.886-1.383-1.326-2.486-1.326V-49.604z M59.669-82.919c0-0.777-0.223-1.161-0.663-1.161
						c-0.663,0-0.994,0.383-0.994,1.161c0,0.771,0.331,1.16,0.994,1.16C59.446-81.758,59.669-82.148,59.669-82.919z M73.923-48.278
						c0-0.886-0.331-1.326-0.994-1.326c-0.445,0-0.663,0.44-0.663,1.326c0,0.88,0.218,1.326,0.663,1.326
						C73.592-46.952,73.923-47.398,73.923-48.278z M74.255-55.903h2.651c0-1.989-0.886-2.983-2.651-2.983V-55.903z M79.227-48.278
						c0-0.886-0.445-1.326-1.325-1.326c-0.446,0-0.663,0.44-0.663,1.326c0,0.88,0.217,1.326,0.663,1.326
						C78.781-46.952,79.227-47.398,79.227-48.278z M81.547-62.367c0-0.995-0.223-1.492-0.662-1.492
						c-0.663,0-0.995,0.497-0.995,1.492s0.332,1.492,0.995,1.492C81.324-60.875,81.547-61.372,81.547-62.367z M84.53-71.483
						l-1.325-1.326c-0.886,0.663-1.326,1.657-1.326,2.983C82.982-69.825,83.868-70.38,84.53-71.483z M84.53-75.129
						c-0.445-0.223-0.662-0.057-0.662,0.497c0,0.549,0.217,0.829,0.662,0.829C85.411-74.249,85.411-74.689,84.53-75.129z
						 M85.856-48.278h2.652c0.218,0,0.497-0.663,0.828-1.989c0.332-1.326,0.498-2.435,0.498-3.315c0-1.108-0.389-1.937-1.16-2.486
						c-0.777-0.554-1.715-0.829-2.818-0.829V-48.278z M93.481-73.803c0.217-0.223,0.497-0.445,0.828-0.663
						c0.332-0.223,0.497-0.445,0.497-0.663v-0.663v-0.663c0-0.886-0.445-1.326-1.325-1.326V-73.803z M111.382-73.803h1.326v-2.652
						h-1.326V-73.803z M123.979-73.968c0-0.777-0.332-1.16-0.995-1.16c-0.662,0-0.994,0.383-0.994,1.16
						c0,0.771,0.332,1.16,0.994,1.16S123.979-73.196,123.979-73.968z M133.26-55.903h0.663h0.663
						c0.218-0.223,0.44-0.663,0.663-1.326c0.218-0.663,0.331-1.108,0.331-1.326c0-0.445-0.279-0.777-0.828-0.994
						c-0.555-0.223-1.052-0.332-1.492-0.332V-55.903L133.26-55.903z M135.249-47.118c0-0.777-0.223-1.16-0.663-1.16
						c-0.663,0-0.994,0.383-0.994,1.16c0,0.772,0.331,1.16,0.994,1.16C135.026-45.958,135.249-46.346,135.249-47.118z
						 M135.58-53.582c-0.445,0-0.663,0.274-0.663,0.829c0,0.549,0.218,0.829,0.663,0.829
						C136.684-52.37,136.684-52.919,135.58-53.582z M146.354-71.317c0.109-0.554,0.166-1.051,0.166-1.492
						c0-1.108-0.331-2.269-0.994-3.479c-0.663-1.217-1.88-1.823-3.646-1.823c0,1.326,0.383,2.761,1.16,4.309
						c0.771,1.543,1.823,2.761,3.149,3.646C146.188-70.38,146.24-70.768,146.354-71.317z M153.149-66.179
						c0-0.663-0.223-1.108-0.663-1.326c-0.445-0.223-0.663,0.218-0.663,1.326c0,1.103,0.218,1.543,0.663,1.326
						C152.927-65.076,153.149-65.516,153.149-66.179z"/>
					<path fill="#E9188D" d="M86.022-41.767v-0.994c0.44-1.326,1.16-3.149,2.155-5.47c0.994-2.32,1.6-3.48,1.823-3.48h1.657
						c0,1.103,0.383,2.263,1.16,3.48c0.771,1.212,1.709,1.823,2.817,1.823h0.332c0.217-0.223,0.715-0.663,1.491-1.326
						c0.771-0.663,1.27-1.108,1.492-1.326h0.331h0.663c0.44,0.218,0.938,0.663,1.491,1.326c0.55,0.663,0.938,1.104,1.161,1.326
						c0.439-0.886,1.6-1.823,3.48-2.818c1.875-0.994,3.258-1.383,4.144-1.16c0.44,0.218,1.932,0.829,4.475,1.823
						c2.538,0.995,4.03,1.71,4.476,2.155l5.304-5.304c0.663-0.663,1.435-0.166,2.32,1.491c0.881,1.657,1.544,2.486,1.989,2.486
						h0.663c1.988-1.108,3.48-2.046,4.475-2.817c0.995-0.777,2.704-1.16,5.139-1.16h0.663c0.217,0.217,0.828,0.714,1.823,1.491
						c0.994,0.771,1.709,1.16,2.154,1.16c0.44,0,0.938-0.331,1.492-0.994c0.549-0.663,0.828-1.218,0.828-1.657
						c2.652,1.543,3.979,3.314,3.979,5.304c0,1.325-0.446,2.206-1.326,2.651c-0.886,0.44-1.326,1.435-1.326,2.983v0.995
						c0,0.217,0.108,0.549,0.331,0.994c0.44-1.108,1.27-1.989,2.486-2.652c1.212-0.662,2.372-1.108,3.48-1.325
						c-0.445-0.446-0.828-1.44-1.16-2.983c-0.331-1.549-0.279-2.652,0.166-3.315c0.218-0.445,0.994-0.994,2.32-1.657
						c1.326-0.663,2.207-0.994,2.652-0.994c1.326,1.103,2.098,2.206,2.32,3.314c0.218,1.104,1.104,1.767,2.652,1.989
						c0.439-0.663,0.938-1.492,1.491-2.486c0.549-0.994,1.16-1.492,1.823-1.492h0.663c0.218,0.218,0.497,0.44,0.829,0.663
						c0.331,0.218,0.497,0.44,0.497,0.663c0.88,0.881,1.325,1.767,1.325,2.652l-3.646,6.298c-0.224,0.218-0.166,0.497,0.165,0.829
						c0.332,0.331,0.606,0.497,0.829,0.497h1.326v-0.331c1.988,0,3.589-0.389,4.807-1.161c1.212-0.776,2.429-1.657,3.646-2.651
						c1.212-0.994,2.372-1.88,3.48-2.652c1.104-0.776,2.538-1.16,4.31-1.16c0.217,0,0.663,0.497,1.325,1.492
						c0.663,0.994,1.326,2.098,1.989,3.314c0.663,1.212,1.212,2.372,1.657,3.48c0.44,1.104,0.663,1.875,0.663,2.321h0.663h0.663
						c0.218-0.223,0.331-0.663,0.331-1.326v-9.282c0.44,0,0.772,0.109,0.995,0.332c2.429,1.766,4.361,3.48,5.801,5.138
						c1.435,1.657,3.921,2.486,7.459,2.486c0.44,0,1.212-0.331,2.32-0.994c1.104-0.663,1.875-1.218,2.32-1.658
						c0,0.881,0.383,1.767,1.16,2.652c0.771,0.881,1.709,1.326,2.817,1.326c0-0.223,0.109-0.445,0.332-0.663l0.663-0.663
						c0.217-0.445,0.44-1.492,0.663-3.149c0.217-1.657,0.439-2.709,0.662-3.149c0.218,0,0.663-0.057,1.326-0.165
						c0.663-0.114,1.104-0.166,1.326-0.166c1.989,0,3.755,0.497,5.304,1.492c1.544,0.994,3.315,1.491,5.304,1.491
						c0.881,0,1.544-0.223,1.989-0.663c0.44-0.445,0.549-1.549,0.332-3.314c0.662,1.766,1.377,2.869,2.154,3.314
						c0.771,0.44,1.823,0.663,3.149,0.663c1.325,0,2.206-0.279,2.651-0.829c0.44-0.554,1.212-0.828,2.32-0.828
						c0.881,0,1.989,0.828,3.315,2.486c1.326,1.657,2.595,3.532,3.812,5.635c1.213,2.098,2.264,4.195,3.149,6.299
						c0.881,2.098,1.326,3.589,1.326,4.475c0,0.218-0.057,0.715-0.166,1.492c-0.113,0.771-0.165,1.378-0.165,1.823
						c-1.771,0.218-2.983,1.046-3.646,2.486c-0.663,1.435-1.549,2.595-2.652,3.48l-2.651-7.624
						c-3.315,2.429-5.915,6.019-7.79,10.773C235.128-8.013,234.191-3.76,234.191,0c-2.212,0-3.48-0.828-3.812-2.485
						c-0.332-1.658-0.721-3.481-1.161-5.47h-0.331c-0.663,0-1.217,0.383-1.657,1.16c-0.445,0.771-0.886,1.657-1.326,2.651
						c-0.445,0.995-0.942,1.875-1.492,2.652c-0.554,0.771-1.383,1.16-2.485,1.16c-4.424,0-8.898-0.611-13.426-1.823
						c-4.532-1.217-8.898-1.823-13.094-1.823c-0.886,0-1.605,0.166-2.155,0.497c-0.554,0.332-1.273,0.497-2.154,0.497
						c-2.652,0-5.47-0.388-8.453-1.16c-2.983-0.776-5.692-1.16-8.121-1.16c-0.445,0-1.771,0.166-3.979,0.497
						c-2.211,0.332-3.537,0.606-3.978,0.829h-0.663h-0.331c-0.446-0.223-1.161-0.497-2.155-0.829
						c-0.994-0.331-1.605-0.497-1.823-0.497c-0.223,0-0.663,0.218-1.326,0.663c-0.662,0.44-1.108,0.663-1.325,0.663
						c-1.108,0-1.989-1.108-2.652-3.314c-0.663-2.212-1.88-3.315-3.646-3.315l-0.663,0.663l-0.663,0.663
						c-0.223,0.218-0.497,0.383-0.828,0.497c-0.332,0.108-0.721,0.383-1.16,0.829c-0.663,0.217-1.218,0.549-1.658,0.994h-0.331
						L146.68-6.63l-0.663-0.331c-0.445-0.886-0.663-1.823-0.663-2.817c0-0.995-0.554-1.715-1.657-2.155
						c-1.108,0.44-1.657,1.326-1.657,2.652c0,1.326,0.549,2.651,1.657,3.978c-0.445,0.218-1.108,0.497-1.989,0.829
						c-0.886,0.331-1.549,0.497-1.988,0.497l-1.326-0.663l-1.326-0.663c-0.223-0.223-0.445-0.331-0.663-0.331h-0.663l-0.994,0.331
						l-1.326,1.326c-2.435,0-4.755-0.497-6.961-1.492c-2.212-0.994-4.424-1.491-6.63-1.491c-1.108,0-1.771,0.274-1.989,0.829
						c-0.223,0.549-0.886,0.828-1.989,0.828h-0.331c-0.223-0.223-0.497-0.497-0.829-0.828c-0.331-0.332-0.497-0.611-0.497-0.829
						c-0.445,2.206-1.491,3.424-3.149,3.646c-1.657,0.218-3.148,0.331-4.475,0.331c-2.435,0-4.424-0.663-5.967-1.988
						c-1.549-1.326-2.543-3.206-2.983-5.636l0.663-1.326c0.217-0.445,0.44-0.776,0.663-0.994v-2.983
						c0-1.989-0.611-3.264-1.823-3.812c-1.218-0.554-2.652-1.16-4.31-1.823c-1.658-0.663-3.264-1.714-4.807-3.148
						c-1.549-1.44-2.652-4.035-3.315-7.79l0.663-1.326c0.218-0.445,0.44-0.777,0.663-0.995c0-0.445-0.166-0.942-0.497-1.491
						c-0.331-0.555-0.611-0.942-0.829-1.16c0.44,0,1.104-0.166,1.989-0.497c0.881-0.332,1.435-0.611,1.657-0.829l0.332-0.663
						l-0.332-0.663c-0.223-0.223-0.663-0.445-1.325-0.663c-0.663-0.223-0.995-0.445-0.995-0.663v-0.334H86.022L86.022-41.767z
						 M104.918-5.303c1.543,0,2.538-0.554,2.983-1.657h-1.326c-1.549,0-2.435,0.549-2.652,1.657H104.918z M107.901-38.784
						c-0.445,0-0.663,0.274-0.663,0.829c0,0.549,0.218,0.715,0.663,0.497C108.781-37.903,108.781-38.342,107.901-38.784z
						 M108.896-9.281h1.326v-1.326L108.896-9.281z M117.846-10.607h0.994h0.332c0.44-0.223,0.938-0.445,1.491-0.663
						c0.55-0.223,0.938-0.445,1.16-0.663c-0.445-0.886-0.942-1.771-1.491-2.651c-0.555-0.886-1.383-1.326-2.486-1.326V-10.607z
						 M144.365-43.922c0-0.777-0.223-1.161-0.663-1.161c-0.663,0-0.994,0.384-0.994,1.161c0,0.771,0.331,1.16,0.994,1.16
						C144.143-42.76,144.365-43.15,144.365-43.922z M158.619-9.281c0-0.886-0.331-1.326-0.994-1.326
						c-0.445,0-0.663,0.44-0.663,1.326c0,0.88,0.218,1.326,0.663,1.326C158.288-7.955,158.619-8.401,158.619-9.281z M158.951-16.904
						h2.651c0-1.989-0.886-2.983-2.651-2.983V-16.904z M163.923-9.281c0-0.886-0.445-1.326-1.325-1.326
						c-0.446,0-0.663,0.44-0.663,1.326c0,0.88,0.217,1.326,0.663,1.326C163.478-7.955,163.923-8.401,163.923-9.281z M166.243-23.37
						c0-0.994-0.223-1.491-0.662-1.491c-0.663,0-0.995,0.497-0.995,1.491c0,0.995,0.332,1.492,0.995,1.492
						C166.021-21.878,166.243-22.375,166.243-23.37z M169.227-32.485l-1.325-1.326c-0.886,0.663-1.326,1.657-1.326,2.983
						C167.679-30.828,168.564-31.382,169.227-32.485z M169.227-36.132c-0.445-0.223-0.662-0.058-0.662,0.497
						c0,0.549,0.217,0.828,0.662,0.828C170.107-35.252,170.107-35.692,169.227-36.132z M170.553-9.281h2.652
						c0.218,0,0.497-0.663,0.828-1.989c0.332-1.326,0.498-2.435,0.498-3.314c0-1.108-0.389-1.938-1.16-2.486
						c-0.777-0.555-1.715-0.829-2.818-0.829V-9.281z M178.178-34.806c0.217-0.223,0.497-0.445,0.828-0.663
						c0.332-0.223,0.497-0.445,0.497-0.662v-0.663v-0.663c0-0.886-0.445-1.326-1.325-1.326V-34.806z M196.078-34.806h1.326v-2.651
						h-1.326V-34.806z M208.675-34.971c0-0.777-0.332-1.16-0.995-1.16c-0.662,0-0.994,0.383-0.994,1.16
						c0,0.771,0.332,1.16,0.994,1.16C208.343-33.811,208.675-34.2,208.675-34.971z M217.956-16.904h0.663h0.663
						c0.218-0.224,0.44-0.663,0.663-1.326c0.218-0.663,0.331-1.108,0.331-1.326c0-0.445-0.279-0.777-0.828-0.994
						c-0.555-0.223-1.052-0.332-1.492-0.332V-16.904L217.956-16.904z M219.945-8.121c0-0.777-0.223-1.16-0.663-1.16
						c-0.663,0-0.994,0.383-0.994,1.16c0,0.771,0.331,1.16,0.994,1.16C219.723-6.961,219.945-7.349,219.945-8.121z M220.276-14.585
						c-0.445,0-0.663,0.274-0.663,0.828c0,0.549,0.218,0.829,0.663,0.829C221.38-13.373,221.38-13.922,220.276-14.585z
						 M231.05-32.319c0.109-0.554,0.166-1.051,0.166-1.491c0-1.108-0.331-2.269-0.994-3.48c-0.663-1.218-1.88-1.823-3.646-1.823
						c0,1.325,0.383,2.761,1.16,4.309c0.771,1.544,1.823,2.761,3.149,3.646C230.885-31.382,230.937-31.771,231.05-32.319z
						 M237.846-27.181c0-0.663-0.223-1.108-0.663-1.326c-0.445-0.223-0.663,0.218-0.663,1.326c0,1.103,0.218,1.543,0.663,1.325
						C237.623-26.079,237.846-26.518,237.846-27.181z"/>
				</g>
			</g>
		</g>
	</g>
</pattern>
<g>
	<g>
		<g opacity="0.5">
			<path fill-rule="evenodd" clip-rule="evenodd" fill="#EC008C" d="M84.523,54.727c-0.107,0.979-0.332,1.965-0.283,2.937
				c0.041,0.755-0.179,1.14-0.931,1.351c0.818,2.151-0.498,3.59-1.637,5.088c-0.179,0.237-0.438,0.468-0.489,0.733
				c-0.315,1.6-1.377,2.514-2.747,3.216c-1.748,0.898-3.403,2.018-5.508,1.893c-1.071-0.062-2.182,0.112-3.215-0.102
				c-1.826-0.375-3.426-1.29-4.7-2.688c-0.471-0.517-0.883-1.089-1.498-1.856c-0.187,0.557-0.348,0.889-0.405,1.236
				c-0.208,1.237-0.771,2.18-1.952,2.74c-0.277,0.131-0.536,0.509-0.61,0.82c-0.522,2.17-0.996,4.354-1.483,6.534
				c-0.028,0.128-0.053,0.259-0.092,0.449c-1.476,0.001-2.941,0.001-4.465,0c-0.744-2.243-1.609-4.477-2.212-6.78
				c-0.627-2.409-0.1-4.825,0.665-7.119c0.229-0.69,1.082-1.218,1.728-1.715c1.502-1.155,2.683-2.743,4.633-3.309
				c1.428-0.412,2.715-0.256,4.039,0.385c0.925,0.45,1.933,0.736,2.92,1.052c1.32,0.419,2.675,0.733,3.976,1.205
				c0.827,0.3,1.552,0.897,2.382,1.18c0.458,0.157,1.062,0.009,1.564-0.129c0.438-0.122,0.837-0.404,1.23-0.651
				c0.168-0.106,0.319-0.285,0.411-0.466c0.299-0.583,0.566-1.182,0.922-1.937c-0.399-0.539-0.519-1.307,0.096-2.161
				c0.143-0.2,0.025-0.708-0.134-0.979c-0.399-0.681-0.358-1.291-0.055-2.002c0.456-1.075-0.355-1.914-0.688-2.836
				c-0.075-0.21-0.312-0.388-0.326-0.591c-0.106-1.531-0.092-3.075-0.295-4.591c-0.108-0.821-0.116-1.52,0.275-2.267
				c0.142-0.271,0.027-0.726-0.072-1.066c-0.2-0.67-0.434-1.336-0.725-1.971c-0.2-0.438-0.443-0.925-0.808-1.208
				c-0.595-0.463-0.869-0.983-0.826-1.722c0.031-0.503,0.025-1.01,0.002-1.514c-0.073-1.463-1.138-2.143-2.525-1.606
				c-0.938,0.364-1.854,0.794-2.808,1.113c-0.458,0.153-0.979,0.12-1.488,0.171c-0.601,2.159-3.734,1.791-4.919,0.448
				c-1.154,0.259-2.158,0.559-3.184,0.676c-0.394,0.045-1.008-0.214-1.22-0.535c-0.408-0.62-0.9-0.54-1.4-0.387
				c-1.239,0.376-2.413,0.523-3.555-0.315c-0.198-0.146-0.664-0.079-0.932,0.046c-1.538,0.716-2.402,0.549-3.612-0.628
				c-0.312-0.304-0.915-0.637-1.25-0.532c-1.163,0.363-1.842-0.266-2.574-0.938c-0.211-0.193-0.667-0.459-0.754-0.386
				c-0.299,0.251-0.569,0.611-0.684,0.981c-0.089,0.29,0.118,0.658,0.111,0.988c-0.014,0.648,0.092,1.319-0.721,1.713
				c-0.267,0.129-0.356,0.733-0.424,1.137c-0.072,0.42,0.003,0.863-0.024,1.294c-0.044,0.665-0.076,1.336-0.192,1.99
				c-0.173,0.971-0.428,1.926-0.618,2.895c-0.062,0.304-0.157,0.705-0.02,0.924c0.652,1.035,0.555,2.09,0.261,3.187
				c-0.062,0.233-0.109,0.548-0.004,0.735c0.636,1.136,0.515,2.323,0.334,3.527c-0.079,0.521-0.033,0.843,0.537,1.253
				c0.901,0.649,1.482,1.654,1.436,2.919c-0.027,0.734,0.16,1.475,0.273,2.21c0.316,2.022-0.552,5.659-3.046,6.525
				c-1.117,0.388-1.466,1.35-1.611,2.25c-0.177,1.1-0.023,2.265,0.107,3.388c0.044,0.375,0.383,0.829,0.717,1.035
				c1.188,0.732,2.43,1.371,3.62,2.174c-1.375,0.523-2.427-0.468-3.479-1.011c-3.046-1.577-1.863-4.257-1.558-6.769
				c-0.211,0.045-0.421,0.092-0.631,0.139c-0.906,0.194-1.705,0.287-2.348-0.695c-1.261-1.926-1.989-3.923-1.448-6.254
				c0.055-0.236-0.095-0.575-0.246-0.8c-0.943-1.387-0.821-2.927-0.666-4.467c0.021-0.203,0.236-0.385,0.396-0.636
				c-0.358-0.384-0.712-0.763-1.065-1.141c0-1.955,0-3.906,0-5.859c0.469-1.232,0.939-2.463,1.405-3.696
				c0.316-0.832,0.71-1.647,0.906-2.507c0.173-0.755,0.358-1.389,1.12-1.759c0.143-0.069,0.118-0.488,0.166-0.747
				c0.323-1.757-0.019-3.487-0.187-5.228c-0.079-0.834-0.007-1.694-0.174-2.507c-0.264-1.278-0.4-2.503,0.305-3.686
				c0.509-0.851,1.012-1.706,1.494-2.572c0.53-0.952,4.225-2.656,5.309-2.43c0.197,0.042,0.396,0.076,0.592,0.117
				c0.913,0.19,1.819,0.499,2.74,0.542c0.96,0.045,1.622,0.491,2.061,1.217c0.312,0.515,0.524,0.626,1.148,0.568
				c0.563-0.053,1.402,0.211,1.713,0.634c0.634,0.866,1.283,1.469,2.529,1.239c-0.204,0.444-0.317,0.69-0.456,0.99
				c1.768-0.345,3.474-2.074,4.832-0.208c1.029-0.021,1.781-0.041,2.534-0.051c0.456-0.006,0.98,0.153,1.354-0.02
				c0.88-0.407,1.68-0.517,2.592-0.095c1.67,0.773,3.329,0.829,4.891-0.324c0.432-0.32,0.862-0.644,1.294-0.965
				c1.427-1.065,1.427-1.065,2.933-0.166c0.229-1.081,0.415-2.12,0.671-3.142c0.562-2.252,2.012-3.752,4.088-4.7
				c0.537,0,1.076,0,1.614,0c0.154,0.173,0.294,0.358,0.461,0.515c1.008,0.94,1.553,1.954,1.264,3.46
				c-0.241,1.257-1.194,2.481-0.444,3.864c0.016,0.027-0.086,0.103-0.103,0.164c-0.129,0.451-0.312,0.898-0.358,1.359
				c-0.114,1.119-0.184,2.244-0.228,3.368c-0.016,0.383,0.005,0.821,0.177,1.147c0.469,0.893,0.749,1.952,0.114,2.651
				c-0.635,0.699-0.464,1.219-0.272,1.878c0.205,0.708,0.46,1.404,0.618,2.122c0.055,0.252-0.16,0.554-0.179,0.837
				c-0.049,0.814-0.326,1.75-0.026,2.417c0.395,0.877,1.42,1.444,1.422,2.592c0,0.104,0.205,0.239,0.343,0.307
				c1.691,0.848,2.009,1.635,1.485,3.412c-0.116,0.391-0.008,0.866,0.067,1.29c0.102,0.56,0.345,1.102,0.387,1.662
				c0.029,0.381-0.083,0.85-0.302,1.158c-0.853,1.197-0.673,2.175,0.625,2.968C84.522,54.458,84.522,54.592,84.523,54.727z"/>
		</g>
		<polygon fill="#EC008C" points="32.135,33.646 42.075,38.816 39.82,39.418 44.32,41.924 41.918,42.359 46.92,46.428 36.38,41.002 
			38.551,40.6 34.263,38.373 37.029,37.877 		"/>
		<polygon fill="#EC008C" points="83.901,30.869 74.483,37.812 76.907,38.068 72.67,41.382 75.219,41.443 70.718,46.45 
			80.711,39.146 78.409,39.083 82.471,36.09 79.537,36.025 		"/>
	</g>
	<pattern  id="SVGID_1_" xlink:href="#SVGID_3_" patternTransform="matrix(0.094 0 0 -0.094 -23018.0215 -10657.5469)">
	</pattern>
	<path fill="url(#SVGID_1_)" d="M74.795,134.226c-10.383-9.266-11.271-21.076-2.512-31.913c7.85-9.713,15.75-19.355,20.861-30.885
		c4.869-10.979,7.615-22.364,3.904-34.209C91.827,20.56,79.551,12.377,62.76,10.42C44.036,8.237,20.45,20.617,18.829,46.463
		c-1.402,22.367,21.314,40.18,42.629,33.43c0.23-0.07,0.48-0.104,0.682-0.225c1.887-1.119,3.754-0.889,4.318,1.188
		c0.195,0.725-1.646,2.6-2.881,3.021c-9.248,3.176-18.43,2.645-27.258-1.502c-11.342-5.329-18.441-14.202-21.275-26.449
		c-0.152-0.675-0.486-1.308-0.738-1.96c0-4.32,0-8.64,0-12.959c1.914-4.854,3.365-9.978,5.838-14.512
		c13.25-24.313,50.305-30.153,72.51-11.894c6.682,5.494,11.018,12.205,11.842,20.953c0.199,2.117,0.371,4.236,0.621,7.089
		c0.438-1.108,0.633-1.516,0.758-1.94c3.877-13.306-3.312-27.965-17.199-34.139c-4.615-2.052-4.719-1.916-9.602-3.36
		c2.4,0,8.447,0.618,9.107,0.751c15.656,3.188,21.322,13.935,22.795,29.733c0.043,0.477,0.189,0.938,0.293,1.407
		c2.117-9.402-4.225-21.243-9.627-28.144c2.471,2.16,8.016,7.465,9.5,10.25c6.521,12.229,8.111,27.02,4.486,40.425
		c-2.459,9.093-1.463,16.576,4.234,23.865c3.818,4.885,5.777,5.711-2.143,8.914c-1.334,0.539-2.654,3.346-2.707,4.607
		c-0.1,2.299-0.531,3.865-2.707,4.926c-0.555,0.271-2.039,1.105-2.166,1.93c-0.754,4.948,1.5,5-1.016,15.227
		c-0.357,1.463-2.104,3.254-3.578,3.701c-2.869,0.873-6.092,1.541-8.996,1.121c-3.852-0.555-7.545-2.209-11.287-3.436
		c-3.621-1.184-4.709-0.564-5.482,3.199c-1.268,6.172,1.178,11.229,4.758,15.961C86.114,139.732,78.944,137.929,74.795,134.226z"/>
</g>
</svg>
