<?xml version="1.0" encoding="utf-8"?>
<!-- Generator: Adobe Illustrator 16.0.0, SVG Export Plug-In . SVG Version: 6.00 Build 0)  -->
<!DOCTYPE svg PUBLIC "-//W3C//DTD SVG 1.1//EN" "http://www.w3.org/Graphics/SVG/1.1/DTD/svg11.dtd">
<svg version="1.1" id="Layer_1" xmlns="http://www.w3.org/2000/svg" xmlns:xlink="http://www.w3.org/1999/xlink" x="0px" y="0px"
	 width="566.929px" height="542.386px" viewBox="-222.966 -226.458 566.929 542.386"
	 enable-background="new -222.966 -226.458 566.929 542.386" xml:space="preserve">
<g>
	<g>
		<path fill="#EC008B" d="M221.944,89.115c-8.312-8.738-11.582-14.258-16.433-16.953c-41.582-23.156-52.547-46.527-51.992-104.026
			c0.16-18.371-45.839-38.445-58.878-55.687c-26.848-35.425-27.004-75.792-23.691-116.667c1.301-15.93,12.094-25.316,29.242-21.32
			c16.386,3.809,30.968,10.414,25.479,32.117c-1.441,5.75-3.996,11.308-4.711,17.132c-5.241,41.824,7.566,53.296,48.258,43.64
			c52.726-4.844,193.564,68.531,171.299,166.163c-15.062,66-25.922,98.295-75.003,145.358c-9.402,9.012-30.074,64.788-34.977,76.085
			c-14.703,33.875-62.897,60.972-143.525,60.972c-109.468,0-121.284-84.065-152.413-121.693
			c-10.133-12.25-12.008-21.609-26.332-30.312c-6.656-4.066-34.457-18.594-36.496-26.074c-1.754-6.441-1.754-6.441-16.132,19.898
			c-5.652,10.348-11.738,21.156-14.043,32.477c-5.535,27.069-21.516,26.651-42.156,19.245
			c-23.543-8.429-28.269-23.565-15.426-43.784c20.105-31.672,38.55-64.944,62.582-93.409c25.738-30.48,48.699-30.871,81.042-7.57
			c47.48,34.18,100.624,43.715,157.475,39.637c34.597-2.484,69.237-4.465,103.792-7.418
			C198.379,96.111,207.624,92.595,221.944,89.115z"/>
	</g>
	<g>
		<path fill="#D9D9D9" d="M285.839,194.766c-1.516-3.543-5.031-2.105-7.434-2.5c-13.414-2.23-26.109-6.488-38.336-12.301
			c2.781-1.617,4.871-3.859,6.023-6.906c0.992-2.191,1.973-4.383,2.965-6.59c1.984,0.668,4.043,1.203,5.98,2.016
			c13.117,5.512,26.73,9.191,40.855,10.754c9.308,1.035,18.229-1.383,27.081-3.918c2.43,3.066,2.559,6.723,2.664,10.375
			c-5.562,4.086-11.961,6.055-18.648,7.223c-1.301,0.211-2.836-0.164-2.988,1.844c-2.418,0-4.839,0-7.261,0
			c-0.906-1.207-1.812-1.207-2.727,0C291.288,194.766,288.569,194.766,285.839,194.766z"/>
		<path fill="#E81E8E" d="M195.031,64.9c2.699,1.152,5.418,2.266,8.102,3.469c7.835,3.5,13.972,8.809,17.636,16.719
			c0.906,1.977,1.207,3.324-1.219,4.754c-4.629,2.719-7.223,7.105-8.297,12.355c-2.324,0.348-2.453-2.332-4.058-2.973
			c-1.688-2.449-3.973-4.18-6.664-5.398c-7.637-5.133-16.066-5.473-24.773-4.066c-1.957,0.406-3.91,0.801-5.863,1.203
			c-0.078-0.797-0.145-1.586-0.223-2.398c0.422-0.59,0.988-1.152,1.23-1.828c3.098-8.734,8.191-15.789,16.715-20.004
			c0.762-0.379,0.984-1.062,1.066-1.828C190.793,64.9,192.91,64.9,195.031,64.9z"/>
		<path fill="#C6298C" d="M343.963,164.789c-1.266,3.941-2.312,7.953-3.891,11.77c-1.418,3.457-3.102,6.887-5.992,9.48
			c-0.5-1.43-1.484-2.438-2.84-3.098c3.742-5.023,6.629-10.48,8.023-16.594c0.852-3.754,1.215-7.641,1.809-11.465
			c2.32,0.609,1.277,3.398,2.891,4.469C343.963,161.168,343.963,162.973,343.963,164.789z"/>
		<path fill="#C6298C" d="M165.062,86.693c4.238-7.078,8.324-14.27,15.609-18.82c1.496-0.922,2.922-1.98,4.367-2.973
			c1.215,0,2.422,0,3.629,0c-0.078,0.766-0.297,1.445-1.062,1.828c-8.516,4.219-13.613,11.27-16.715,20.004
			c-0.242,0.672-0.812,1.227-1.23,1.828c-1.262-1.559-3.039-0.746-4.602-0.945C165.062,87.302,165.062,87.001,165.062,86.693z"/>
		<path fill="#BF3A93" d="M165.062,87.611c1.566,0.203,3.328-0.609,4.602,0.945c0.086,0.812,0.152,1.602,0.223,2.398l0.074,0.375
			c-1.656,1.301-3.289,1.047-4.898-0.098C165.062,90.029,165.062,88.814,165.062,87.611z"/>
		<path fill="#FFFFFF" d="M294.014,194.766c0.914-1.199,1.82-1.199,2.727,0C295.827,194.766,294.925,194.766,294.014,194.766z"/>
		<path fill="#E81B8D" d="M341.072,154.879c-0.582,3.824-0.957,7.711-1.809,11.465c-1.395,6.113-4.281,11.582-8.023,16.594
			c-1.23,0.66-2.191,1.562-2.762,2.852c-0.93-0.527-1.988,3.148-2.84-0.09c-0.113-3.652-0.234-7.305-2.664-10.367
			c-3.727-11.164-12.379-17.164-22.581-21.539c-2.715-2.016-5.984-2.535-9.152-3.32c-0.754-0.125-1.508-0.246-2.254-0.367
			c4.758-2.047,5.992-7.777,10.52-10.055c0.309-0.227,0.617-0.441,0.934-0.668l-0.039,0.043c1.276,0.039,2.565,0.023,3.632-0.848
			c1.223-0.129,2.418-0.242,3.637-0.355c7.699-0.355,15.227,0.652,22.566,3.004c2.758,1.73,5.523,3.461,8.277,5.191
			C340.513,148.899,340.365,152.024,341.072,154.879z"/>
		<path fill="#E81B8D" d="M249.053,166.469c-0.992,2.211-1.973,4.402-2.965,6.59c-1.121-3.695-3.117-6.469-7.094-7.629
			c-5.445-1.578-9.883-5.09-14.664-7.957c-5.715-3.418-9.754-9.402-16.699-10.906c0.07-2.555,3.148-3.09,3.602-5.391
			c3.09-2.672,6.18-5.359,9.27-8.035c0.898-0.652,1.793-1.293,2.688-1.941c1.453-0.574,2.738-1.41,3.707-2.672
			c0.945-0.426,1.906-0.867,2.875-1.301c0.145,0.035,0.289,0.07,0.445,0.09c4.422,0.797,21.477,11.938,23.273,15.207
			c0.129,1.363,0.246,2.719,0.371,4.086c-0.758,1.441-0.637,3.004-0.574,4.562C251.878,156.274,250.468,161.375,249.053,166.469z"/>
		<path fill="#E2E3E3" d="M330.232,141.235c-7.34-2.352-14.867-3.359-22.566-3.004c-0.812-2.574-0.301-5.801-3.668-7.031
			c2.918-6.008,6.43-11.637,9.992-17.25c6.25,6.387,11.441,13.531,15.281,21.602C330.088,137.258,331.806,139.031,330.232,141.235z"
			/>
		<path fill="#DCDBDB" d="M330.232,141.235c1.566-2.199-0.152-3.977-0.957-5.691c-3.84-8.07-9.035-15.215-15.281-21.602
			c2.059-4.823,2.258-5.007,5.496-1.246c8.586,9.953,15.922,20.664,19.023,33.727C335.756,144.692,332.994,142.965,330.232,141.235z
			"/>
		<path fill="#C6C4C5" d="M226.905,128.52c-0.965,1.262-2.258,2.098-3.707,2.672c-0.543-3.152-3.387-4.484-5.266-6.551
			c-5.023-5.52-9.156-11.578-11.437-18.733c-0.715-2.246-1.543-4.668,0.703-6.68c1.593,0.645,1.726,3.32,4.05,2.973
			c0.109,2.98,2.012,5.316,2.941,8.012c-1.773,1.522-0.094,2.769,0.504,3.862C217.788,119.696,222.245,124.192,226.905,128.52z"/>
		<path fill="#B3B3B4" d="M226.905,128.52c-4.668-4.328-9.125-8.824-12.223-14.434c-0.59-1.098-2.27-2.336-0.504-3.866
			c4.457,6.347,9.961,11.726,15.59,16.999C228.819,127.645,227.862,128.086,226.905,128.52z"/>
		<path fill="#B3B3B4" d="M288.983,150.102c0.754,0.121,1.508,0.242,2.254,0.363c-4.852,3.727-10.488,2.914-15.781,2.043
			c-3.223-0.508-7.316,0.668-9.605-3.066c0.016-0.379,0.047-0.75,0.07-1.121c4.148-0.047,7.859,2.027,11.922,2.477
			C281.608,151.227,285.346,151.653,288.983,150.102z"/>
		<path fill="#A9A6A8" d="M265.917,148.332c-0.023,0.371-0.055,0.746-0.07,1.121c-0.598-0.023-1.211-0.059-1.809-0.086
			c-1.73-1.867-4.113-2.152-6.414-2.668c-1.25-0.039-2.512-0.066-3.762-0.094c-0.125-1.367-0.242-2.723-0.371-4.086
			C257.788,144.125,261.928,146.047,265.917,148.332z"/>
		<path fill="#D8CDD1" d="M304.002,131.199c3.367,1.223,2.863,4.457,3.668,7.031c-1.219,0.113-2.414,0.23-3.637,0.359
			c-0.242-1.422,0.648-3.414-1.828-3.762C302.806,133.614,303.408,132.406,304.002,131.199z"/>
		<path fill="#C6C4C5" d="M302.217,134.828c2.469,0.348,1.574,2.336,1.82,3.762c-1.078,0.859-2.344,0.875-3.632,0.844
			C300.315,137.621,301.533,136.332,302.217,134.828z"/>
		<path fill="#C6C4C5" d="M300.436,139.383c-0.316,0.223-0.625,0.441-0.934,0.668C299.811,139.824,300.12,139.614,300.436,139.383z"
			/>
		<path fill="#D9D9D9" d="M211.245,141.168c-0.457,2.297-3.539,2.84-3.605,5.391c-2.94,2.828-2.655,6.453-2.511,10.055
			c-15.812-13.859-29.211-29.316-34.121-50.573c-1.129-4.902,0.461-9.906-1.055-14.719l-0.078-0.371
			c1.957-0.398,3.91-0.797,5.863-1.199c1.016,3.594,1.828,7.262,3.07,10.777c5.918,16.659,18.512,28.241,30.761,40.069
			C209.96,140.977,210.682,140.992,211.245,141.168z"/>
		<path fill="#C4218A" d="M205.129,156.621c-0.152-3.598-0.438-7.227,2.511-10.055c6.941,1.508,10.977,7.484,16.699,10.906
			c4.781,2.867,9.211,6.383,14.664,7.957c3.977,1.16,5.973,3.934,7.094,7.629c-1.152,3.047-3.242,5.285-6.023,6.906
			c-2.664,0.039-4.969-1.078-7.281-2.203c-7.777-3.781-15.012-8.426-21.793-13.762C208.475,162.008,206.574,159.489,205.129,156.621
			z"/>
		<path fill="#E1E2E2" d="M249.053,166.469c1.414-5.09,2.82-10.203,4.238-15.312c1.566,0.516,3.184,0.914,4.699,1.555
			c9.848,4.086,20.031,6.512,30.742,5.645c4.223-0.34,8.836-0.348,11.652-4.562c10.202,4.367,18.858,10.375,22.581,21.539
			c-8.848,2.531-17.773,4.945-27.081,3.918c-14.125-1.562-27.738-5.25-40.855-10.758
			C253.104,167.668,251.05,167.137,249.053,166.469z"/>
		<path fill="#E2E3E3" d="M211.245,141.168c-0.559-0.18-1.277-0.195-1.656-0.559c-12.261-11.824-24.847-23.41-30.765-40.069
			c-1.242-3.516-2.055-7.184-3.066-10.781c8.719-1.406,17.137-1.066,24.781,4.066c-1.168,10.562,3.879,18.788,9.745,26.89
			c3.176,4.387,8.152,7.203,10.23,12.414C217.421,135.821,214.335,138.5,211.245,141.168z"/>
		<path fill="#D9D9D9" d="M220.514,133.133c-2.078-5.211-7.062-8.027-10.23-12.414c-5.866-8.109-10.913-16.327-9.745-26.89
			c2.684,1.215,4.969,2.949,6.656,5.398c-2.238,2.012-1.41,4.434-0.695,6.68c2.28,7.155,6.409,13.214,11.437,18.733
			c1.883,2.07,4.719,3.402,5.266,6.551C222.307,131.84,221.409,132.485,220.514,133.133z"/>
		<path fill="#D262A4" d="M328.478,185.785c0.574-1.281,1.535-2.191,2.762-2.852c1.355,0.66,2.34,1.664,2.84,3.098
			C332.06,189.461,330.224,188.625,328.478,185.785z"/>
		<path fill="#C6C4C5" d="M300.389,153.797c-2.816,4.215-7.438,4.223-11.652,4.562c-10.711,0.867-20.902-1.559-30.742-5.645
			c-1.523-0.629-3.133-1.039-4.699-1.555c-0.066-1.559-0.18-3.121,0.574-4.562c1.254,0.031,2.516,0.055,3.762,0.086
			c1.273,2.957,3.992,2.445,6.414,2.68c0.602,0.023,1.211,0.059,1.809,0.086c2.289,3.734,6.402,2.559,9.605,3.066
			c5.301,0.871,10.93,1.684,15.785-2.043C294.421,151.262,297.678,151.781,300.389,153.797z"/>
		<path fill="#B3B3B4" d="M264.042,149.367c-2.414-0.234-5.129,0.277-6.414-2.68C259.925,147.219,262.311,147.5,264.042,149.367z"/>
	</g>
</g>
</svg>
