<?xml version="1.0" encoding="utf-8"?>
<!-- Generator: Adobe Illustrator 16.0.0, SVG Export Plug-In . SVG Version: 6.00 Build 0)  -->
<!DOCTYPE svg PUBLIC "-//W3C//DTD SVG 1.1//EN" "http://www.w3.org/Graphics/SVG/1.1/DTD/svg11.dtd">
<svg version="1.1" id="Layer_1" xmlns="http://www.w3.org/2000/svg" xmlns:xlink="http://www.w3.org/1999/xlink" x="0px" y="0px"
	 width="141.734px" height="141.732px" viewBox="-10.369 -26.131 141.734 141.732"
	 enable-background="new -10.369 -26.131 141.734 141.732" xml:space="preserve">
<g>
	<path fill="#EC008B" d="M100.86,55.83c-2.078-2.185-2.896-3.564-4.108-4.238C86.356,45.803,83.615,39.96,83.754,25.585
		c0.04-4.593-11.46-9.611-14.72-13.922c-6.712-8.856-6.751-18.948-5.923-29.167c0.325-3.982,3.023-6.329,7.311-5.33
		c4.097,0.952,7.742,2.604,6.37,8.029c-0.36,1.438-0.999,2.827-1.178,4.283C74.303-0.065,77.506,2.803,87.678,0.389
		c13.182-1.211,48.392,17.133,42.825,41.541c-3.766,16.5-6.48,24.574-18.751,36.34c-2.351,2.253-7.519,16.197-8.744,19.021
		c-3.676,8.469-15.725,15.243-35.882,15.243c-27.367,0-30.321-21.017-38.104-30.424c-2.533-3.062-3.002-5.402-6.583-7.578
		c-1.664-1.017-8.614-4.648-9.124-6.519c-0.438-1.61-0.438-1.61-4.033,4.975c-1.413,2.587-2.935,5.289-3.511,8.119
		c-1.384,6.768-5.379,6.663-10.539,4.812c-5.886-2.107-7.067-5.892-3.856-10.946c5.026-7.918,9.638-16.236,15.646-23.353
		c6.435-7.62,12.175-7.718,20.261-1.893c11.87,8.545,25.156,10.929,39.369,9.909c8.649-0.621,17.31-1.116,25.948-1.854
		C94.969,57.579,97.28,56.7,100.86,55.83z"/>
</g>
<g>
	<path fill="#D9D9D9" d="M116.834,82.243c-0.379-0.886-1.258-0.526-1.858-0.625c-3.354-0.558-6.527-1.622-9.584-3.075
		c0.695-0.404,1.218-0.965,1.506-1.727c0.248-0.548,0.493-1.096,0.741-1.647c0.496,0.167,1.011,0.301,1.495,0.504
		c3.279,1.378,6.683,2.298,10.214,2.688c2.327,0.259,4.558-0.346,6.771-0.979c0.607,0.767,0.64,1.681,0.666,2.594
		c-1.391,1.021-2.99,1.514-4.662,1.806c-0.325,0.053-0.709-0.041-0.747,0.461c-0.604,0-1.21,0-1.815,0
		c-0.227-0.302-0.453-0.302-0.682,0C118.196,82.243,117.516,82.243,116.834,82.243z"/>
	<path fill="#E81E8E" d="M94.132,49.777c0.675,0.288,1.354,0.566,2.025,0.867c1.959,0.875,3.493,2.202,4.409,4.18
		c0.227,0.494,0.302,0.831-0.305,1.188c-1.157,0.68-1.806,1.776-2.074,3.089c-0.581,0.087-0.613-0.583-1.015-0.743
		c-0.422-0.612-0.993-1.045-1.666-1.35c-1.909-1.283-4.017-1.368-6.193-1.017c-0.489,0.102-0.978,0.2-1.466,0.301
		c-0.02-0.199-0.036-0.396-0.056-0.6c0.105-0.147,0.247-0.288,0.308-0.457c0.774-2.184,2.048-3.947,4.179-5.001
		c0.19-0.095,0.246-0.266,0.267-0.457C93.072,49.777,93.601,49.777,94.132,49.777z"/>
	<path fill="#C6298C" d="M131.365,74.749c-0.316,0.985-0.578,1.988-0.973,2.942c-0.354,0.864-0.775,1.722-1.498,2.37
		c-0.125-0.357-0.371-0.609-0.71-0.774c0.936-1.256,1.657-2.62,2.006-4.148c0.213-0.938,0.304-1.91,0.452-2.866
		c0.58,0.152,0.319,0.85,0.723,1.117C131.365,73.844,131.365,74.295,131.365,74.749z"/>
	<path fill="#C6298C" d="M86.639,55.225c1.06-1.77,2.081-3.567,3.902-4.705c0.374-0.23,0.73-0.495,1.092-0.743
		c0.304,0,0.605,0,0.907,0c-0.02,0.191-0.074,0.361-0.266,0.457c-2.129,1.055-3.403,2.817-4.179,5.001
		c-0.061,0.168-0.203,0.307-0.308,0.457c-0.315-0.39-0.76-0.187-1.15-0.236C86.639,55.377,86.639,55.302,86.639,55.225z"/>
	<path fill="#BF3A93" d="M86.639,55.454c0.392,0.051,0.832-0.152,1.15,0.236c0.021,0.203,0.038,0.4,0.056,0.6l0.019,0.094
		c-0.414,0.325-0.822,0.262-1.225-0.024C86.639,56.059,86.639,55.755,86.639,55.454z"/>
	<path fill="#FFFFFF" d="M118.878,82.243c0.229-0.3,0.455-0.3,0.682,0C119.331,82.243,119.105,82.243,118.878,82.243z"/>
	<path fill="#E81B8D" d="M130.642,72.272c-0.146,0.956-0.239,1.928-0.452,2.866c-0.349,1.528-1.07,2.896-2.006,4.148
		c-0.308,0.165-0.548,0.391-0.69,0.713c-0.232-0.132-0.497,0.787-0.71-0.022c-0.028-0.913-0.059-1.826-0.666-2.592
		c-0.932-2.791-3.095-4.291-5.646-5.385c-0.679-0.504-1.496-0.634-2.288-0.83c-0.188-0.031-0.377-0.062-0.563-0.092
		c1.189-0.512,1.498-1.944,2.63-2.514c0.077-0.057,0.154-0.11,0.233-0.167l-0.01,0.011c0.319,0.01,0.642,0.006,0.908-0.212
		c0.306-0.032,0.604-0.061,0.909-0.089c1.925-0.089,3.807,0.163,5.642,0.751c0.689,0.433,1.381,0.865,2.069,1.298
		C130.503,70.777,130.466,71.558,130.642,72.272z"/>
	<path fill="#E81B8D" d="M107.637,75.169c-0.248,0.553-0.493,1.101-0.741,1.647c-0.28-0.924-0.779-1.617-1.773-1.907
		c-1.361-0.395-2.471-1.272-3.666-1.989c-1.429-0.854-2.438-2.351-4.175-2.727c0.018-0.639,0.787-0.772,0.9-1.348
		c0.772-0.668,1.545-1.34,2.317-2.009c0.225-0.163,0.448-0.323,0.672-0.485c0.363-0.144,0.685-0.353,0.927-0.668
		c0.236-0.106,0.477-0.217,0.719-0.325c0.036,0.009,0.072,0.018,0.111,0.022c1.105,0.199,5.369,2.984,5.818,3.802
		c0.032,0.341,0.062,0.68,0.093,1.021c-0.189,0.36-0.159,0.751-0.144,1.141C108.344,72.62,107.991,73.896,107.637,75.169z"/>
	<path fill="#E2E3E3" d="M127.932,68.861c-1.835-0.588-3.717-0.84-5.642-0.751c-0.203-0.644-0.075-1.45-0.917-1.758
		c0.729-1.502,1.607-2.909,2.498-4.312c1.562,1.597,2.86,3.383,3.82,5.4C127.896,67.866,128.326,68.31,127.932,68.861z"/>
	<path fill="#DCDBDB" d="M127.932,68.861c0.392-0.55-0.038-0.994-0.239-1.423c-0.96-2.018-2.259-3.804-3.82-5.4
		c0.515-1.206,0.564-1.252,1.374-0.312c2.146,2.488,3.98,5.166,4.756,8.432C129.313,69.725,128.623,69.293,127.932,68.861z"/>
	<path fill="#C6C4C5" d="M102.1,65.682c-0.241,0.315-0.564,0.524-0.927,0.668c-0.136-0.788-0.847-1.121-1.316-1.638
		c-1.256-1.38-2.289-2.895-2.859-4.684c-0.179-0.562-0.386-1.167,0.176-1.67c0.398,0.161,0.432,0.83,1.013,0.743
		c0.027,0.745,0.503,1.329,0.735,2.003c-0.443,0.381-0.023,0.692,0.126,0.966C99.821,63.476,100.935,64.6,102.1,65.682z"/>
	<path fill="#B3B3B4" d="M102.1,65.682c-1.167-1.082-2.281-2.206-3.056-3.608c-0.147-0.274-0.567-0.584-0.126-0.967
		c1.114,1.587,2.49,2.932,3.897,4.25C102.579,65.463,102.34,65.573,102.1,65.682z"/>
	<path fill="#B3B3B4" d="M117.62,71.077c0.188,0.03,0.377,0.061,0.563,0.091c-1.213,0.932-2.622,0.729-3.945,0.511
		c-0.806-0.127-1.829,0.167-2.401-0.767c0.004-0.095,0.012-0.188,0.018-0.28c1.037-0.012,1.965,0.507,2.98,0.619
		C115.776,71.359,116.711,71.465,117.62,71.077z"/>
	<path fill="#A9A6A8" d="M111.853,70.635c-0.006,0.093-0.014,0.187-0.018,0.28c-0.149-0.006-0.303-0.015-0.452-0.021
		c-0.433-0.467-1.028-0.538-1.604-0.667c-0.312-0.01-0.628-0.017-0.94-0.023c-0.031-0.342-0.061-0.681-0.093-1.021
		C109.821,69.583,110.856,70.064,111.853,70.635z"/>
	<path fill="#D8CDD1" d="M121.375,66.352c0.842,0.306,0.716,1.114,0.917,1.758c-0.305,0.028-0.604,0.058-0.909,0.09
		c-0.061-0.355,0.162-0.854-0.457-0.94C121.076,66.955,121.226,66.654,121.375,66.352z"/>
	<path fill="#C6C4C5" d="M120.928,67.259c0.617,0.087,0.394,0.584,0.455,0.94c-0.27,0.215-0.586,0.219-0.908,0.211
		C120.453,67.957,120.758,67.635,120.928,67.259z"/>
	<path fill="#C6C4C5" d="M120.483,68.398c-0.079,0.056-0.156,0.11-0.233,0.167C120.327,68.508,120.404,68.455,120.483,68.398z"/>
	<path fill="#D9D9D9" d="M98.185,68.844c-0.114,0.574-0.885,0.71-0.901,1.348c-0.735,0.707-0.664,1.613-0.628,2.514
		c-3.953-3.465-7.303-7.329-8.53-12.644c-0.282-1.226,0.115-2.477-0.264-3.68l-0.02-0.093c0.489-0.1,0.978-0.199,1.466-0.3
		c0.254,0.898,0.457,1.815,0.768,2.694c1.479,4.165,4.628,7.061,7.69,10.018C97.864,68.796,98.045,68.8,98.185,68.844z"/>
	<path fill="#C4218A" d="M96.656,72.707c-0.038-0.899-0.109-1.807,0.628-2.514c1.735,0.377,2.744,1.871,4.175,2.727
		c1.195,0.717,2.303,1.596,3.666,1.989c0.994,0.29,1.493,0.983,1.773,1.907c-0.288,0.762-0.811,1.321-1.506,1.727
		c-0.666,0.01-1.242-0.27-1.82-0.551c-1.944-0.945-3.753-2.106-5.448-3.44C97.493,74.054,97.017,73.424,96.656,72.707z"/>
	<path fill="#E1E2E2" d="M107.637,75.169c0.354-1.272,0.705-2.551,1.06-3.828c0.392,0.129,0.796,0.229,1.175,0.389
		c2.462,1.021,5.008,1.628,7.686,1.411c1.056-0.085,2.209-0.087,2.913-1.141c2.551,1.092,4.715,2.594,5.646,5.385
		c-2.212,0.633-4.443,1.236-6.771,0.979c-3.531-0.391-6.935-1.312-10.214-2.689C108.65,75.469,108.136,75.336,107.637,75.169z"/>
	<path fill="#E2E3E3" d="M98.185,68.844c-0.14-0.045-0.319-0.049-0.414-0.14c-3.065-2.956-6.212-5.853-7.691-10.018
		c-0.311-0.879-0.514-1.796-0.767-2.695c2.18-0.352,4.284-0.267,6.195,1.017c-0.292,2.641,0.97,4.697,2.437,6.723
		c0.794,1.097,2.038,1.801,2.558,3.104C99.729,67.507,98.958,68.177,98.185,68.844z"/>
	<path fill="#D9D9D9" d="M100.503,66.835c-0.52-1.303-1.766-2.007-2.558-3.104c-1.467-2.027-2.729-4.082-2.437-6.723
		c0.671,0.304,1.242,0.737,1.664,1.35c-0.56,0.503-0.353,1.108-0.174,1.67c0.57,1.789,1.603,3.304,2.859,4.684
		c0.471,0.518,1.18,0.851,1.316,1.638C100.951,66.512,100.726,66.673,100.503,66.835z"/>
	<path fill="#D262A4" d="M127.494,79.998c0.144-0.32,0.384-0.548,0.69-0.713c0.339,0.165,0.585,0.416,0.71,0.774
		C128.389,80.917,127.93,80.708,127.494,79.998z"/>
	<path fill="#C6C4C5" d="M120.471,72.001c-0.704,1.054-1.859,1.056-2.913,1.141c-2.678,0.217-5.226-0.39-7.686-1.411
		c-0.381-0.157-0.783-0.26-1.175-0.389c-0.017-0.39-0.045-0.78,0.144-1.141c0.313,0.008,0.629,0.014,0.94,0.021
		c0.318,0.739,0.998,0.611,1.604,0.67c0.15,0.006,0.303,0.015,0.452,0.021c0.572,0.934,1.601,0.64,2.401,0.767
		c1.325,0.218,2.732,0.421,3.946-0.511C118.979,71.367,119.794,71.497,120.471,72.001z"/>
	<path fill="#B3B3B4" d="M111.385,70.894c-0.604-0.059-1.282,0.069-1.604-0.67C110.355,70.357,110.952,70.427,111.385,70.894z"/>
</g>
</svg>
