<?xml version="1.0" encoding="utf-8"?>
<!-- Generator: Adobe Illustrator 16.0.0, SVG Export Plug-In . SVG Version: 6.00 Build 0)  -->
<!DOCTYPE svg PUBLIC "-//W3C//DTD SVG 1.1//EN" "http://www.w3.org/Graphics/SVG/1.1/DTD/svg11.dtd">
<svg version="1.1" id="Layer_1" xmlns="http://www.w3.org/2000/svg" xmlns:xlink="http://www.w3.org/1999/xlink" x="0px" y="0px"
	 width="218.304px" height="85.54px" viewBox="0 0 218.304 85.54" enable-background="new 0 0 218.304 85.54" xml:space="preserve">
<g>
	<g>
		<g>
			<g>
				<g>
					<g>
						<path fill="#BD1A8D" d="M14.637,45.854c4.345,0,8.271,1.504,8.48,6.308c0.125,3.05-2.298,5.473-5.933,6.726v0.084
							c6.058,0.668,8.063,5.013,8.063,7.771c0,6.35-5.933,8.855-11.697,8.855c-3.969,0-6.726-0.25-8.94-1.002
							c-0.71-0.251-1.128-0.961-1.128-2.215V50.658c0-1.754-0.835-2.465-2.631-2.757c-0.627-0.167-1.003-0.292-0.794-0.752
							l0.334-0.794c0.167-0.376,0.46-0.501,0.71-0.501H14.637z M9.374,58.344h2.59c3.426,0,5.264-2.59,5.264-5.347
							c0-3.969-1.963-4.888-5.431-4.888H9.374V58.344z M9.374,69.624c0,2.799,1.379,3.718,3.969,3.718
							c3.426,0,5.389-2.506,5.306-6.433c-0.084-3.844-2.591-6.309-6.768-6.309H9.374V69.624z"/>
						<path fill="#BD1A8D" d="M30.711,58.679c0-1.797-0.627-2.089-2.548-2.507c-0.418-0.125-0.836-0.293-0.585-0.794l0.376-0.835
							c0.125-0.335,0.376-0.335,0.626-0.335h7.687v16.418c0,1.796,0.627,2.089,2.674,2.548c0.543,0.084,0.627,0.418,0.46,0.752
							l-0.334,0.836c-0.126,0.209-0.335,0.334-0.711,0.334H28.08c-0.334,0-0.752-0.084-0.543-0.71l0.251-0.71
							c0.167-0.46,0.501-0.502,0.793-0.585c1.045-0.209,2.131-0.878,2.131-2.465V58.679z"/>
						<path fill="#BD1A8D" d="M43.051,58.679c0-1.797-0.626-2.089-2.548-2.507c-0.418-0.125-0.836-0.293-0.585-0.794l0.376-0.835
							c0.125-0.335,0.376-0.335,0.627-0.335h7.687V76.6c0,7.019-5.389,8.939-8.396,8.939v-2.089
							c0.919-0.501,1.754-1.295,2.214-2.256c0.292-0.877,0.626-2.924,0.626-4.887V58.679z"/>
						<g>
							<path fill="#F26522" d="M66.854,45.854c4.345,0,8.271,1.504,8.48,6.308c0.125,3.05-2.298,5.473-5.933,6.726v0.084
								c6.058,0.668,8.063,5.013,8.063,7.771c0,6.35-5.933,8.855-11.697,8.855c-3.969,0-6.726-0.25-8.94-1.002
								c-0.71-0.251-1.128-0.961-1.128-2.215V50.658c0-1.754-0.835-2.465-2.631-2.757c-0.627-0.167-1.003-0.292-0.794-0.752
								l0.334-0.794c0.167-0.376,0.46-0.501,0.71-0.501H66.854z M61.59,58.344h2.59c3.426,0,5.264-2.59,5.264-5.347
								c0-3.969-1.963-4.888-5.431-4.888H61.59V58.344z M61.59,69.624c0,2.799,1.379,3.718,3.969,3.718
								c3.426,0,5.389-2.506,5.306-6.433c-0.084-3.844-2.591-6.309-6.768-6.309H61.59V69.624z"/>
							<path fill="#F26522" d="M88.527,57.968h0.084c1.713-2.423,3.718-4.261,5.556-4.261c1.17,0,1.88,0.543,2.047,1.003
								l0.836,3.133c0.042,0.125,0,0.292-0.084,0.376l-1.629,1.337c-0.46,0.585-1.253-0.293-2.423-0.627
								c-1.922-0.585-3.05-0.083-3.635,0.919c-1.002,1.671-0.794,3.551-0.794,5.682v5.097c0,1.796,0.836,2.089,3.51,2.548
								c0.752,0.084,0.835,0.418,0.626,0.752l-0.459,0.836c-0.167,0.209-0.418,0.334-0.919,0.334H80.297
								c-0.334,0-0.752-0.084-0.543-0.71l0.251-0.71c0.167-0.46,0.501-0.502,0.793-0.585c1.045-0.209,2.131-0.878,2.131-2.465
								V58.679c0-1.797-0.627-2.089-2.548-2.507c-0.418-0.125-0.836-0.293-0.585-0.794l0.376-0.835
								c0.125-0.335,0.376-0.335,0.626-0.335h6.727c0.459,0,1.002-0.041,1.002,0.836V57.968z"/>
							<path fill="#F26522" d="M103.874,64.82c0,4.094,2.048,7.896,6.266,7.896c2.466,0,3.802-0.961,5.265-2.549
								c0.418-0.376,1.629,0.167,1.295,0.836l-1.338,2.715c-0.209,0.376-0.418,0.794-0.877,1.045
								c-0.961,0.459-3.258,0.835-4.888,0.835c-7.435,0-11.613-5.013-11.613-10.735c0-6.977,4.512-11.154,10.694-11.154
								c5.681,0,8.564,3.844,8.564,9.441c0,0.752-0.377,1.671-0.961,1.671H103.874z M110.683,62.564c1.128,0,1.63-0.669,1.63-1.838
								c0-3.76-1.921-4.972-3.718-4.972c-2.966,0-4.721,3.3-4.721,6.81H110.683z"/>
							<path fill="#F26522" d="M127.59,58.261h0.084c1.922-3.134,5.514-4.554,8.229-4.554c3.719,0,5.934,2.172,5.934,7.144v9.775
								c0,1.796,0.625,2.089,2.672,2.548c0.543,0.084,0.627,0.418,0.461,0.752l-0.334,0.836c-0.127,0.209-0.336,0.334-0.711,0.334
								h-10.025c-0.293,0-0.67-0.084-0.502-0.71l0.25-0.71c0.168-0.46,0.461-0.502,0.711-0.585c0.961-0.209,1.922-0.878,1.922-2.465
								v-7.52c0-4.596-1.17-5.724-3.26-5.724c-2.924,0-5.43,2.925-5.43,10.862v2.381c0,1.796,0.543,2.089,2.424,2.548
								c0.459,0.084,0.543,0.418,0.416,0.752l-0.334,0.836c-0.082,0.209-0.291,0.334-0.627,0.334h-10.066
								c-0.334,0-0.752-0.084-0.543-0.71l0.25-0.71c0.168-0.46,0.502-0.502,0.793-0.585c1.045-0.209,2.131-0.878,2.131-2.465V58.679
								c0-1.797-0.627-2.089-2.547-2.507c-0.418-0.125-0.836-0.293-0.586-0.794l0.377-0.835c0.125-0.335,0.375-0.335,0.625-0.335
								h6.686c0.459,0,1.002-0.041,1.002,0.836V58.261z"/>
							<path fill="#F26522" d="M147.912,80.485c0.377-0.626,0.627-1.378,1.17-0.919c0.459,0.376,2.465,3.008,6.727,3.008
								c4.176,0,6.432-2.799,6.432-8.146v-4.262h-0.082c-1.338,3.092-4.639,5.431-7.771,5.431c-5.012,0-8.062-4.679-8.062-9.691
								c0-6.601,5.139-12.198,12.449-12.198c2.799,0,4.805,0.46,6.602,1.128c1.295,0.585,2.422,0.794,2.422,3.509V72.84
								c0,8.104-4.053,12.699-11.822,12.699c-4.428,0-6.434-0.877-8.188-1.754c-0.793-0.418-1.338-0.711-0.836-1.588L147.912,80.485
								z M152.215,64.778c0,4.052,1.504,7.311,4.094,7.311c2.465,0,5.932-3.76,5.932-9.691c0-3.551-0.543-6.518-3.969-6.518
								C154.387,55.879,152.215,60.517,152.215,64.778z"/>
							<path fill="#F26522" d="M177.133,64.82c0,4.094,2.049,7.896,6.268,7.896c2.465,0,3.801-0.961,5.264-2.549
								c0.418-0.376,1.629,0.167,1.295,0.836l-1.338,2.715c-0.209,0.376-0.418,0.794-0.877,1.045
								c-0.961,0.459-3.258,0.835-4.887,0.835c-7.436,0-11.613-5.013-11.613-10.735c0-6.977,4.512-11.154,10.693-11.154
								c5.682,0,8.564,3.844,8.564,9.441c0,0.752-0.377,1.671-0.961,1.671H177.133z M183.943,62.564
								c1.127,0,1.629-0.669,1.629-1.838c0-3.76-1.922-4.972-3.719-4.972c-2.965,0-4.721,3.3-4.721,6.81H183.943z"/>
							<path fill="#F26522" d="M200.848,58.261h0.084c1.922-3.134,5.516-4.554,8.23-4.554c3.717,0,5.932,2.172,5.932,7.144v9.775
								c0,1.796,0.627,2.089,2.674,2.548c0.543,0.084,0.627,0.418,0.459,0.752l-0.334,0.836c-0.125,0.209-0.334,0.334-0.711,0.334
								h-10.025c-0.293,0-0.668-0.084-0.502-0.71l0.252-0.71c0.166-0.46,0.459-0.502,0.709-0.585
								c0.961-0.209,1.922-0.878,1.922-2.465v-7.52c0-4.596-1.17-5.724-3.258-5.724c-2.924,0-5.432,2.925-5.432,10.862v2.381
								c0,1.796,0.545,2.089,2.424,2.548c0.459,0.084,0.543,0.418,0.418,0.752l-0.334,0.836c-0.084,0.209-0.293,0.334-0.627,0.334
								H192.66c-0.334,0-0.752-0.084-0.543-0.71l0.252-0.71c0.166-0.46,0.5-0.502,0.793-0.585c1.045-0.209,2.131-0.878,2.131-2.465
								V58.679c0-1.797-0.627-2.089-2.549-2.507c-0.418-0.125-0.836-0.293-0.584-0.794l0.375-0.835
								c0.125-0.335,0.377-0.335,0.627-0.335h6.684c0.459,0,1.002-0.041,1.002,0.836V58.261z"/>
						</g>
					</g>
				</g>
			</g>
		</g>
	</g>
	<g>
		<radialGradient id="SVGID_1_" cx="36.4136" cy="15.458" r="19.2907" gradientUnits="userSpaceOnUse">
			<stop  offset="0" style="stop-color:#FFFFFF"/>
			<stop  offset="1" style="stop-color:#F26522"/>
		</radialGradient>
		<circle fill="url(#SVGID_1_)" cx="36.536" cy="29.637" r="18.833"/>
		<radialGradient id="SVGID_2_" cx="36.4121" cy="15.458" r="19.2908" gradientUnits="userSpaceOnUse">
			<stop  offset="0" style="stop-color:#FFFFFF"/>
			<stop  offset="1" style="stop-color:#92278F"/>
		</radialGradient>
		<path fill="url(#SVGID_2_)" d="M36.534,48.47c-10.4,0-18.832-8.432-18.832-18.833c0-10.401,8.432-18.833,18.832-18.833"/>
		<g>
			<g>
				<circle fill="#F26522" cx="26.696" cy="3.926" r="3.925"/>
				<circle fill="#92278F" cx="46.186" cy="3.926" r="3.925"/>
				<circle fill="#BD1A8D" cx="36.497" cy="5.437" r="3.926"/>
			</g>
		</g>
		<path fill="#F26522" d="M19.353,16.979c3.6-4.048,8.427-6.36,13.422-6.875c-6.356-2.625-13.943-1.11-18.773,4.32
			c-6.08,6.839-5.491,17.297,1.302,23.41C12.83,30.901,14.115,22.868,19.353,16.979z"/>
		<path fill="#92278F" d="M53.603,16.979c-3.6-4.048-8.427-6.36-13.422-6.875c6.356-2.625,13.943-1.11,18.773,4.32
			c6.08,6.839,5.491,17.297-1.302,23.41C60.126,30.901,58.841,22.868,53.603,16.979z"/>
		<g>
			<defs>
				<circle id="SVGID_3_" cx="36.536" cy="29.637" r="18.833"/>
			</defs>
			<clipPath id="SVGID_4_">
				<use xlink:href="#SVGID_3_"  overflow="visible"/>
			</clipPath>
			<g opacity="0.5" clip-path="url(#SVGID_4_)">
				<g>
					<path fill="#FFFFFF" d="M26.111,10.896c4.247,0,8.086,1.47,8.29,6.167c0.123,2.981-2.246,5.35-5.799,6.575v0.082
						c5.921,0.654,7.882,4.901,7.882,7.596c0,6.208-5.799,8.658-11.435,8.658c-3.879,0-6.575-0.245-8.74-0.98
						c-0.694-0.245-1.103-0.939-1.103-2.165V15.592c0-1.715-0.817-2.409-2.573-2.695c-0.613-0.163-0.98-0.286-0.776-0.735
						l0.327-0.776c0.164-0.368,0.449-0.49,0.694-0.49H26.111z M20.965,23.106h2.532c3.349,0,5.146-2.532,5.146-5.228
						c0-3.88-1.919-4.778-5.309-4.778h-2.369V23.106z M20.965,34.133c0,2.736,1.348,3.635,3.88,3.635
						c3.349,0,5.268-2.45,5.187-6.289c-0.082-3.757-2.532-6.167-6.616-6.167h-2.451V34.133z"/>
				</g>
			</g>
			<g opacity="0.5" clip-path="url(#SVGID_4_)">
				<g>
					<g>
						<path fill="#FFFFFF" d="M60.194,10.907c0.245,0,0.531,0.123,0.694,0.49l0.327,0.776c0.204,0.449-0.163,0.572-0.776,0.735
							c-1.756,0.286-2.573,0.98-2.573,2.695v21.236c0,1.226-0.409,1.919-1.103,2.165c-2.165,0.735-4.86,0.98-8.74,0.98
							c-5.636,0-11.435-2.451-11.435-8.658c0-2.695,1.96-6.942,7.882-7.596v-0.082c-3.553-1.225-5.921-3.594-5.799-6.575
							c0.204-4.696,4.043-6.167,8.29-6.167H60.194z M52.108,25.323h-2.451c-4.083,0-6.534,2.41-6.616,6.167
							c-0.082,3.839,1.838,6.289,5.187,6.289c2.532,0,3.88-0.898,3.88-3.635V25.323z M52.108,13.112h-2.369
							c-3.39,0-5.309,0.898-5.309,4.778c0,2.695,1.797,5.228,5.146,5.228h2.532V13.112z"/>
					</g>
				</g>
			</g>
		</g>
	</g>
	<g>
		<path fill="#846DAB" d="M83.759,40.066c-0.103,0.091-0.347-0.437-0.514-0.771c-0.258-0.515-0.644-0.707-1.171-0.707
			c-0.515,0-1.157,0.334-1.261,0.99c-0.142,0.926,0.527,1.401,1.582,2.109c1.402,0.938,2.251,1.646,2.29,2.843
			c0.064,1.891-1.582,2.739-3.357,2.739c-0.733,0-1.401-0.09-1.826-0.231c-0.669-0.206-0.669-0.219-0.669-0.553v-1.248
			c0-0.142-0.052-0.334,0.077-0.386l0.412-0.154c0.141-0.039,0.205,0.515,0.514,1.042c0.258,0.515,0.759,0.784,1.312,0.784
			c0.951,0,1.659-0.617,1.697-1.518c0.064-1.119-1.093-1.762-2.097-2.47c-0.759-0.54-1.774-0.99-1.774-2.315
			c0-1.17,1.067-2.264,3.112-2.264c0.708,0,1.171,0.104,1.557,0.258s0.592,0.27,0.565,0.488v0.952c0,0.052-0.038,0.09-0.077,0.142
			L83.759,40.066z"/>
		<path fill="#846DAB" d="M90.885,41.16l-0.257,0.257H88.93v3.782c0,0.81,0.296,1.222,0.939,1.222c0.154,0,0.45-0.052,0.501-0.077
			c0.077-0.039,0.193-0.064,0.219,0l0.181,0.36c0.025,0.051,0.013,0.115-0.039,0.141l-0.373,0.193
			c-0.283,0.142-0.682,0.231-1.003,0.231c-1.44,0-2.136-0.669-2.136-2.045v-3.808h-1.093v-0.732h1.093v-1.287l1.106-0.591
			c0.258-0.129,0.604-0.129,0.604,0.025v1.853h1.955V41.16z"/>
		<path fill="#846DAB" d="M93.059,42.061c0-0.554-0.193-0.644-0.785-0.771c-0.129-0.039-0.257-0.091-0.18-0.245l0.115-0.257
			c0.039-0.103,0.116-0.103,0.193-0.103h2.366v5.055c0,0.553,0.193,0.643,0.823,0.784c0.167,0.025,0.193,0.129,0.142,0.231
			l-0.103,0.258c-0.039,0.063-0.104,0.103-0.219,0.103h-3.164c-0.104,0-0.231-0.025-0.167-0.219l0.077-0.219
			c0.051-0.142,0.154-0.154,0.244-0.18c0.321-0.064,0.656-0.271,0.656-0.759V42.061z M93.92,37.854c0.515,0,0.952,0.438,0.952,0.952
			c0,0.488-0.438,0.951-0.939,0.951c-0.527,0-0.965-0.424-0.965-0.951S93.406,37.854,93.92,37.854z"/>
		<path fill="#846DAB" d="M102.974,42.099c0,0.052-0.037,0.104-0.064,0.142l-0.281,0.181c-0.104,0.077-0.283-0.373-0.465-0.644
			c-0.244-0.373-0.643-0.553-1.17-0.553c-1.195,0-1.902,1.157-1.902,2.598c0,1.363,0.693,2.56,1.992,2.56
			c0.76,0,1.172-0.296,1.635-0.784c0.127-0.116,0.488,0.052,0.385,0.257l-0.412,0.836c-0.062,0.116-0.115,0.245-0.256,0.322
			c-0.297,0.142-1.004,0.257-1.506,0.257c-2.354,0-3.652-1.543-3.652-3.37c0-1.98,1.441-3.37,3.705-3.37
			c0.629,0,1.131,0.064,1.582,0.168c0.27,0.064,0.438,0.205,0.41,0.398V42.099z"/>
		<path fill="#846DAB" d="M104.71,37.765c0.039-0.104,0.117-0.104,0.193-0.104h2.059c0.141,0,0.309-0.013,0.309,0.258v4.013h0.025
			c0.592-0.965,1.697-1.402,2.533-1.402c1.146,0,1.829,0.669,1.829,2.2v3.01c0,0.553,0.191,0.643,0.822,0.784
			c0.168,0.025,0.193,0.129,0.141,0.231l-0.102,0.258c-0.039,0.063-0.104,0.103-0.219,0.103h-3.088c-0.09,0-0.205-0.025-0.154-0.219
			l0.078-0.219c0.051-0.142,0.141-0.154,0.218-0.18c0.295-0.064,0.592-0.271,0.592-0.759v-2.315c0-1.415-0.361-1.762-1.003-1.762
			c-0.9,0-1.672,0.9-1.672,3.344v0.733c0,0.553,0.168,0.643,0.746,0.784c0.141,0.025,0.166,0.129,0.129,0.231l-0.104,0.258
			c-0.025,0.063-0.09,0.103-0.193,0.103h-3.1c-0.104,0-0.23-0.025-0.166-0.219l0.076-0.219c0.051-0.142,0.154-0.154,0.244-0.18
			c0.322-0.064,0.656-0.271,0.656-0.759v-6.701c0-0.554-0.193-0.644-0.785-0.772c-0.129-0.038-0.256-0.09-0.18-0.244L104.71,37.765z
			"/>
		<path fill="#846DAB" d="M118.654,41.16l-0.258,0.257h-1.697v3.782c0,0.81,0.295,1.222,0.939,1.222c0.154,0,0.449-0.052,0.5-0.077
			c0.078-0.039,0.193-0.064,0.219,0l0.182,0.36c0.025,0.051,0.012,0.115-0.039,0.141l-0.373,0.193
			c-0.283,0.142-0.682,0.231-1.004,0.231c-1.439,0-2.135-0.669-2.135-2.045v-3.808h-1.094v-0.732h1.094v-1.287l1.105-0.591
			c0.258-0.129,0.605-0.129,0.605,0.025v1.853h1.955V41.16z"/>
		<path fill="#846DAB" d="M120.828,42.061c0-0.554-0.193-0.644-0.785-0.771c-0.129-0.039-0.256-0.091-0.18-0.245l0.115-0.257
			c0.039-0.103,0.117-0.103,0.193-0.103h2.367v5.055c0,0.553,0.193,0.643,0.822,0.784c0.168,0.025,0.193,0.129,0.143,0.231
			l-0.104,0.258c-0.039,0.063-0.104,0.103-0.219,0.103h-3.164c-0.104,0-0.23-0.025-0.166-0.219l0.076-0.219
			c0.051-0.142,0.154-0.154,0.244-0.18c0.322-0.064,0.656-0.271,0.656-0.759V42.061z M121.689,37.854
			c0.516,0,0.953,0.438,0.953,0.952c0,0.488-0.438,0.951-0.939,0.951c-0.527,0-0.965-0.424-0.965-0.951
			S121.176,37.854,121.689,37.854z"/>
		<path fill="#846DAB" d="M127.67,41.932h0.027c0.592-0.965,1.697-1.402,2.533-1.402c1.145,0,1.826,0.669,1.826,2.2v3.01
			c0,0.553,0.193,0.643,0.824,0.784c0.166,0.025,0.191,0.129,0.141,0.231l-0.104,0.258c-0.037,0.063-0.102,0.103-0.219,0.103h-3.086
			c-0.09,0-0.207-0.025-0.154-0.219l0.076-0.219c0.053-0.142,0.143-0.154,0.219-0.18c0.297-0.064,0.592-0.271,0.592-0.759v-2.315
			c0-1.415-0.359-1.762-1.002-1.762c-0.9,0-1.674,0.9-1.674,3.344v0.733c0,0.553,0.168,0.643,0.746,0.784
			c0.143,0.025,0.168,0.129,0.129,0.231l-0.102,0.258c-0.027,0.063-0.092,0.103-0.193,0.103h-3.1c-0.104,0-0.232-0.025-0.168-0.219
			l0.078-0.219c0.051-0.142,0.154-0.154,0.244-0.18c0.32-0.064,0.656-0.271,0.656-0.759v-3.679c0-0.554-0.193-0.644-0.785-0.771
			c-0.129-0.039-0.258-0.091-0.18-0.245l0.115-0.257c0.039-0.103,0.115-0.103,0.193-0.103h2.057c0.143,0,0.309-0.014,0.309,0.257
			V41.932z"/>
		<path fill="#846DAB" d="M135.156,48.775c0.115-0.193,0.193-0.426,0.359-0.283c0.143,0.115,0.76,0.926,2.072,0.926
			c1.285,0,1.98-0.861,1.98-2.508v-1.312h-0.025c-0.412,0.951-1.428,1.672-2.393,1.672c-1.545,0-2.482-1.44-2.482-2.984
			c0-2.032,1.582-3.756,3.832-3.756c0.861,0,1.479,0.142,2.033,0.348c0.398,0.18,0.746,0.244,0.746,1.08v4.464
			c0,2.495-1.248,3.911-3.641,3.911c-1.363,0-1.98-0.271-2.521-0.541c-0.244-0.129-0.412-0.219-0.258-0.488L135.156,48.775z
			 M136.48,43.938c0,1.247,0.463,2.251,1.262,2.251c0.758,0,1.826-1.158,1.826-2.984c0-1.093-0.168-2.007-1.223-2.007
			C137.15,41.198,136.48,42.626,136.48,43.938z"/>
	</g>
</g>
</svg>
