<?xml version="1.0" encoding="utf-8"?>
<!-- Generator: Adobe Illustrator 16.0.0, SVG Export Plug-In . SVG Version: 6.00 Build 0)  -->
<!DOCTYPE svg PUBLIC "-//W3C//DTD SVG 1.1//EN" "http://www.w3.org/Graphics/SVG/1.1/DTD/svg11.dtd">
<svg version="1.1" id="Layer_1" xmlns="http://www.w3.org/2000/svg" xmlns:xlink="http://www.w3.org/1999/xlink" x="0px" y="0px"
	 width="543.905px" height="726.547px" viewBox="-0.001 0 543.905 726.547" enable-background="new -0.001 0 543.905 726.547"
	 xml:space="preserve">
<pattern  x="702.568" y="783.773" width="169.393" height="155.989" patternUnits="userSpaceOnUse" id="SVGID_1_" viewBox="84.696 -181.989 169.393 155.989" overflow="visible">
	<g>
		<polygon fill="none" points="84.696,-26 254.089,-26 254.089,-181.988 84.696,-181.988 		"/>
		<g>
			<polygon fill="none" points="84.696,-181.988 254.089,-181.988 254.089,-26.001 84.696,-26.001 			"/>
			<g>
				<polygon fill="none" points="84.696,-181.988 254.089,-181.988 254.089,-26.001 84.696,-26.001 				"/>
				<path fill="#EC008C" d="M86.022-10.23v0.994c0.44,1.326,1.16,3.149,2.155,5.471c0.994,2.32,1.6,3.48,1.823,3.48h1.657
					c0-1.104,0.383-2.265,1.16-3.48c0.771-1.213,1.709-1.822,2.817-1.822h0.332c0.217,0.223,0.715,0.662,1.491,1.325
					c0.771,0.661,1.27,1.108,1.492,1.325h0.331h0.663c0.44-0.217,0.938-0.664,1.491-1.325c0.55-0.663,0.938-1.104,1.161-1.325
					c0.439,0.885,1.6,1.822,3.48,2.816c1.875,0.994,3.258,1.383,4.144,1.16c0.44-0.219,1.932-0.828,4.475-1.824
					c2.538-0.992,4.03-1.709,4.476-2.152l5.304,5.303c0.663,0.664,1.435,0.166,2.32-1.49c0.881-1.657,1.544-2.485,1.989-2.485h0.663
					c1.988,1.108,3.48,2.047,4.475,2.817c0.995,0.775,2.704,1.158,5.139,1.158h0.663c0.217-0.217,0.828-0.715,1.823-1.49
					c0.994-0.771,1.709-1.16,2.154-1.16c0.44,0,0.938,0.332,1.492,0.994c0.549,0.664,0.828,1.217,0.828,1.656
					c2.652-1.543,3.979-3.313,3.979-5.303c0-1.326-0.446-2.207-1.326-2.652c-0.886-0.439-1.326-1.436-1.326-2.982v-0.993
					c0-0.22,0.108-0.55,0.331-0.994c0.44,1.106,1.27,1.987,2.486,2.649c1.212,0.664,2.372,1.107,3.48,1.326
					c-0.445,0.445-0.828,1.439-1.16,2.982c-0.331,1.549-0.279,2.65,0.166,3.314c0.218,0.445,0.994,0.994,2.32,1.658
					c1.326,0.662,2.207,0.994,2.652,0.994c1.326-1.104,2.098-2.207,2.32-3.316c0.218-1.102,1.104-1.766,2.652-1.986
					c0.439,0.662,0.938,1.49,1.491,2.484c0.549,0.994,1.16,1.492,1.823,1.492h0.663c0.218-0.219,0.497-0.439,0.829-0.664
					c0.331-0.217,0.497-0.439,0.497-0.662c0.88-0.881,1.325-1.766,1.325-2.65l-3.646-6.3c-0.224-0.218-0.166-0.497,0.165-0.827
					c0.332-0.332,0.606-0.498,0.829-0.498h1.326v0.332c1.988,0,3.589,0.389,4.807,1.159c1.212,0.776,2.429,1.657,3.646,2.651
					c1.212,0.994,2.372,1.881,3.48,2.651c1.104,0.776,2.538,1.16,4.31,1.16c0.217,0,0.663-0.498,1.325-1.492
					c0.663-0.993,1.326-2.098,1.989-3.313c0.663-1.213,1.212-2.373,1.657-3.48c0.44-1.104,0.663-1.875,0.663-2.32h0.663h0.663
					c0.218,0.225,0.331,0.664,0.331,1.326v9.281c0.44,0,0.772-0.107,0.995-0.33c2.429-1.768,4.361-3.48,5.801-5.141
					c1.435-1.656,3.921-2.484,7.459-2.484c0.44,0,1.212,0.332,2.32,0.994c1.104,0.663,1.875,1.217,2.32,1.656
					c0-0.881,0.383-1.766,1.16-2.65c0.771-0.881,1.709-1.326,2.817-1.326c0,0.225,0.109,0.445,0.332,0.664l0.663,0.662
					c0.217,0.445,0.44,1.491,0.663,3.148c0.217,1.656,0.439,2.709,0.662,3.147c0.218,0,0.663,0.058,1.326,0.166
					c0.663,0.113,1.104,0.166,1.326,0.166c1.989,0,3.755-0.498,5.304-1.491c1.544-0.994,3.315-1.492,5.304-1.492
					c0.881,0,1.544,0.225,1.989,0.664c0.44,0.444,0.549,1.549,0.332,3.313c0.662-1.767,1.377-2.869,2.154-3.313
					c0.771-0.439,1.823-0.664,3.149-0.664c1.325,0,2.206,0.281,2.651,0.83c0.44,0.555,1.212,0.828,2.32,0.828
					c0.881,0,1.989-0.828,3.315-2.486c1.326-1.656,2.595-3.531,3.812-5.635c1.213-2.099,2.264-4.195,3.149-6.299
					c0.881-2.099,1.326-3.591,1.326-4.477c0-0.219-0.057-0.715-0.166-1.491c-0.113-0.771-0.165-1.377-0.165-1.821
					c-1.771-0.22-2.983-1.048-3.646-2.486c-0.663-1.437-1.549-2.596-2.652-3.48l-2.651,7.625c-3.315-2.431-5.915-6.02-7.79-10.773
					c-1.881-4.75-2.818-9.002-2.818-12.764c-2.212,0-3.48,0.83-3.812,2.486s-0.721,3.48-1.161,5.471h-0.331
					c-0.663,0-1.217-0.385-1.657-1.16c-0.445-0.771-0.886-1.656-1.326-2.652c-0.445-0.993-0.942-1.875-1.492-2.649
					c-0.554-0.772-1.383-1.159-2.485-1.159c-4.424,0-8.898,0.608-13.426,1.821c-4.532,1.218-8.898,1.823-13.094,1.823
					c-0.886,0-1.605-0.166-2.155-0.498c-0.554-0.331-1.273-0.497-2.154-0.497c-2.652,0-5.47,0.39-8.453,1.159
					c-2.983,0.777-5.692,1.16-8.121,1.16c-0.445,0-1.771-0.164-3.979-0.496c-2.211-0.332-3.537-0.604-3.978-0.828h-0.663h-0.331
					c-0.446,0.224-1.161,0.496-2.155,0.828s-1.605,0.496-1.823,0.496c-0.223,0-0.663-0.217-1.326-0.662
					c-0.662-0.438-1.108-0.662-1.325-0.662c-1.108,0-1.989,1.107-2.652,3.312c-0.663,2.213-1.88,3.314-3.646,3.314l-0.663-0.662
					l-0.663-0.662c-0.223-0.219-0.497-0.385-0.828-0.498c-0.332-0.107-0.721-0.384-1.16-0.828c-0.663-0.219-1.218-0.549-1.658-0.994
					h-0.331l-0.663-0.332l-0.663,0.332c-0.445,0.887-0.663,1.822-0.663,2.816s-0.554,1.715-1.657,2.154
					c-1.108-0.439-1.657-1.326-1.657-2.65c0-1.326,0.549-2.652,1.657-3.979c-0.445-0.219-1.108-0.498-1.989-0.828
					c-0.886-0.332-1.549-0.498-1.988-0.498l-1.326,0.662l-1.326,0.664c-0.223,0.223-0.445,0.332-0.663,0.332h-0.663l-0.994-0.332
					l-1.326-1.326c-2.435,0-4.755,0.498-6.961,1.492c-2.212,0.992-4.424,1.49-6.63,1.49c-1.108,0-1.771-0.273-1.989-0.828
					c-0.223-0.549-0.886-0.828-1.989-0.828h-0.331c-0.223,0.223-0.497,0.496-0.829,0.828c-0.331,0.33-0.497,0.611-0.497,0.828
					c-0.445-2.207-1.491-3.424-3.149-3.646c-1.657-0.218-3.148-0.332-4.475-0.332c-2.435,0-4.424,0.663-5.967,1.989
					c-1.549,1.326-2.543,3.205-2.983,5.635l0.663,1.326c0.217,0.445,0.44,0.777,0.663,0.994v2.983c0,1.987-0.611,3.263-1.823,3.812
					c-1.218,0.557-2.652,1.16-4.31,1.824c-1.658,0.662-3.264,1.715-4.807,3.147c-1.549,1.438-2.652,4.034-3.315,7.79l0.663,1.326
					c0.218,0.443,0.44,0.775,0.663,0.994c0,0.443-0.166,0.941-0.497,1.49c-0.331,0.555-0.611,0.943-0.829,1.16
					c0.44,0,1.104,0.166,1.989,0.498c0.881,0.33,1.435,0.609,1.657,0.828l0.332,0.662l-0.332,0.662
					c-0.223,0.225-0.663,0.445-1.325,0.664c-0.663,0.223-0.995,0.445-0.995,0.662v0.334h0.003V-10.23z M104.918-46.693
					c1.543,0,2.538,0.555,2.983,1.658h-1.326c-1.549,0-2.435-0.552-2.652-1.658H104.918z M107.901-13.214
					c-0.445,0-0.663-0.274-0.663-0.828c0-0.549,0.218-0.715,0.663-0.497C108.781-14.094,108.781-13.652,107.901-13.214z
					 M108.896-42.716h1.326v1.323L108.896-42.716z M117.846-41.391h0.994h0.332c0.44,0.225,0.938,0.445,1.491,0.662
					c0.55,0.225,0.938,0.445,1.16,0.664c-0.445,0.887-0.942,1.771-1.491,2.652c-0.555,0.885-1.383,1.325-2.486,1.325V-41.391z
					 M144.365-8.074c0,0.776-0.223,1.16-0.663,1.16c-0.663,0-0.994-0.384-0.994-1.16c0-0.771,0.331-1.16,0.994-1.16
					C144.143-9.234,144.365-8.847,144.365-8.074z M158.619-42.716c0,0.886-0.331,1.323-0.994,1.323
					c-0.445,0-0.663-0.438-0.663-1.323c0-0.882,0.218-1.326,0.663-1.326C158.288-44.042,158.619-43.597,158.619-42.716z
					 M158.951-35.092h2.651c0,1.988-0.886,2.982-2.651,2.982V-35.092z M163.923-42.716c0,0.886-0.445,1.323-1.325,1.323
					c-0.446,0-0.663-0.438-0.663-1.323c0-0.882,0.217-1.326,0.663-1.326C163.478-44.042,163.923-43.597,163.923-42.716z
					 M166.243-28.628c0,0.994-0.223,1.492-0.662,1.492c-0.663,0-0.995-0.498-0.995-1.492c0-0.993,0.332-1.491,0.995-1.491
					C166.021-30.119,166.243-29.621,166.243-28.628z M169.227-19.512l-1.325,1.326c-0.886-0.663-1.326-1.656-1.326-2.982
					C167.679-21.169,168.564-20.615,169.227-19.512z M169.227-15.865c-0.445,0.223-0.662,0.058-0.662-0.496
					c0-0.549,0.217-0.83,0.662-0.83C170.107-16.746,170.107-16.306,169.227-15.865z M170.553-42.716h2.652
					c0.218,0,0.497,0.662,0.828,1.987c0.332,1.326,0.498,2.435,0.498,3.314c0,1.107-0.389,1.938-1.16,2.486
					c-0.777,0.553-1.715,0.826-2.818,0.826V-42.716z M178.178-17.191c0.217,0.225,0.497,0.445,0.828,0.664
					c0.332,0.223,0.497,0.444,0.497,0.662v0.664v0.662c0,0.887-0.445,1.325-1.325,1.325V-17.191z M196.078-17.191h1.326v2.652
					h-1.326V-17.191z M208.675-17.025c0,0.777-0.332,1.16-0.995,1.16c-0.662,0-0.994-0.383-0.994-1.16
					c0-0.771,0.332-1.16,0.994-1.16C208.343-18.186,208.675-17.798,208.675-17.025z M217.956-35.092h0.663h0.663
					c0.218,0.223,0.44,0.664,0.663,1.326c0.218,0.662,0.331,1.107,0.331,1.326c0,0.445-0.279,0.775-0.828,0.994
					c-0.555,0.223-1.052,0.33-1.492,0.33V-35.092L217.956-35.092z M219.945-43.876c0,0.774-0.223,1.16-0.663,1.16
					c-0.663,0-0.994-0.386-0.994-1.16c0-0.772,0.331-1.159,0.994-1.159C219.723-45.035,219.945-44.648,219.945-43.876z
					 M220.276-37.412c-0.445,0-0.663-0.273-0.663-0.828c0-0.549,0.218-0.828,0.663-0.828
					C221.38-38.623,221.38-38.074,220.276-37.412z M231.05-19.678c0.109,0.555,0.166,1.053,0.166,1.492
					c0,1.107-0.331,2.27-0.994,3.48c-0.663,1.217-1.88,1.821-3.646,1.821c0-1.326,0.383-2.761,1.16-4.31
					c0.771-1.543,1.823-2.762,3.149-3.646C230.885-20.615,230.937-20.227,231.05-19.678z M237.846-24.814
					c0,0.662-0.223,1.106-0.663,1.326c-0.445,0.223-0.663-0.22-0.663-1.326c0-1.104,0.218-1.545,0.663-1.326
					C237.623-25.919,237.846-25.479,237.846-24.814z"/>
				<path fill="#EC008C" d="M170.719-49.229v0.994c0.44,1.326,1.16,3.149,2.155,5.471c0.994,2.32,1.6,3.48,1.823,3.48h1.657
					c0-1.104,0.383-2.265,1.16-3.48c0.771-1.213,1.709-1.822,2.817-1.822h0.332c0.217,0.223,0.715,0.662,1.491,1.326
					c0.771,0.662,1.27,1.107,1.492,1.324h0.331h0.663c0.44-0.217,0.938-0.662,1.491-1.324c0.55-0.664,0.938-1.105,1.161-1.326
					c0.439,0.885,1.6,1.822,3.48,2.816c1.875,0.994,3.258,1.385,4.144,1.16c0.44-0.217,1.932-0.828,4.475-1.822
					c2.538-0.994,4.03-1.711,4.476-2.154l5.304,5.303c0.663,0.664,1.435,0.166,2.32-1.49c0.881-1.656,1.544-2.485,1.989-2.485h0.663
					c1.988,1.108,3.48,2.047,4.475,2.817c0.995,0.775,2.704,1.158,5.139,1.158h0.663c0.217-0.217,0.828-0.713,1.823-1.49
					c0.994-0.771,1.709-1.16,2.154-1.16c0.44,0,0.938,0.332,1.492,0.994c0.549,0.664,0.828,1.219,0.828,1.656
					c2.652-1.543,3.979-3.312,3.979-5.303c0-1.326-0.446-2.207-1.326-2.65c-0.886-0.44-1.326-1.436-1.326-2.983v-0.994
					c0-0.218,0.108-0.55,0.331-0.994c0.44,1.106,1.27,1.988,2.486,2.651c1.212,0.662,2.372,1.107,3.48,1.324
					c-0.445,0.445-0.828,1.439-1.16,2.982c-0.331,1.549-0.279,2.652,0.166,3.314c0.218,0.445,0.994,0.994,2.32,1.658
					c1.326,0.662,2.207,0.994,2.652,0.994c1.326-1.104,2.098-2.207,2.32-3.314c0.218-1.104,1.104-1.768,2.652-1.988
					c0.439,0.662,0.938,1.492,1.491,2.484c0.549,0.994,1.16,1.492,1.823,1.492h0.663c0.218-0.217,0.497-0.439,0.829-0.662
					c0.331-0.219,0.497-0.439,0.497-0.664c0.88-0.881,1.325-1.766,1.325-2.65l-3.646-6.299c-0.224-0.219-0.166-0.496,0.165-0.828
					c0.332-0.332,0.606-0.498,0.829-0.498h1.326v0.332c1.988,0,3.589,0.389,4.807,1.16c1.212,0.775,2.429,1.656,3.646,2.65
					c1.212,0.994,2.372,1.881,3.48,2.651c1.104,0.776,2.538,1.16,4.31,1.16c0.217,0,0.663-0.496,1.325-1.491
					c0.663-0.994,1.326-2.099,1.989-3.314c0.663-1.211,1.212-2.371,1.657-3.479c0.44-1.104,0.663-1.875,0.663-2.32h0.663h0.663
					c0.218,0.223,0.331,0.662,0.331,1.324v9.283c0.44,0,0.772-0.109,0.995-0.332c2.429-1.768,4.361-3.48,5.801-5.139
					c1.435-1.656,3.921-2.486,7.459-2.486c0.44,0,1.212,0.332,2.32,0.994c1.104,0.664,1.875,1.219,2.32,1.658
					c0-0.881,0.383-1.768,1.16-2.652c0.771-0.881,1.709-1.326,2.817-1.326c0,0.225,0.109,0.445,0.332,0.664l0.663,0.662
					c0.217,0.445,0.44,1.492,0.663,3.148c0.217,1.658,0.439,2.709,0.662,3.15c0.218,0,0.663,0.057,1.326,0.164
					c0.663,0.114,1.104,0.166,1.326,0.166c1.989,0,3.755-0.496,5.304-1.492c1.544-0.994,3.315-1.49,5.304-1.49
					c0.881,0,1.544,0.223,1.989,0.662c0.44,0.444,0.549,1.549,0.332,3.313c0.662-1.767,1.377-2.869,2.154-3.313
					c0.771-0.439,1.821-0.662,3.147-0.662c1.325,0,2.206,0.279,2.651,0.828c0.438,0.555,1.212,0.828,2.32,0.828
					c0.881,0,1.987-0.828,3.313-2.486c1.326-1.656,2.595-3.531,3.812-5.635c1.213-2.099,2.264-4.194,3.147-6.297
					c0.881-2.099,1.326-3.591,1.326-4.476c0-0.22-0.057-0.716-0.166-1.492c-0.113-0.772-0.165-1.379-0.165-1.823
					c-1.771-0.218-2.983-1.045-3.646-2.486c-0.663-1.434-1.551-2.594-2.652-3.479l-2.651,7.623c-3.313-2.429-5.915-6.02-7.79-10.771
					c-1.881-4.75-2.816-9.002-2.816-12.764c-2.212,0-3.48,0.83-3.812,2.486c-0.332,1.658-0.721,3.48-1.161,5.471h-0.331
					c-0.663,0-1.217-0.383-1.655-1.16c-0.445-0.771-0.888-1.656-1.326-2.651c-0.445-0.994-0.942-1.875-1.492-2.652
					c-0.554-0.771-1.383-1.159-2.485-1.159c-4.424,0-8.896,0.61-13.426,1.823c-4.532,1.218-8.898,1.822-13.094,1.822
					c-0.886,0-1.605-0.166-2.155-0.498c-0.554-0.332-1.273-0.496-2.154-0.496c-2.652,0-5.47,0.388-8.453,1.159
					c-2.983,0.775-5.692,1.16-8.121,1.16c-0.445,0-1.771-0.166-3.979-0.498c-2.211-0.332-3.537-0.604-3.978-0.828H250.6h-0.331
					c-0.446,0.224-1.161,0.496-2.155,0.828c-0.994,0.332-1.605,0.498-1.823,0.498c-0.223,0-0.663-0.219-1.326-0.664
					c-0.662-0.438-1.108-0.662-1.325-0.662c-1.108,0-1.989,1.107-2.652,3.312c-0.663,2.213-1.88,3.315-3.646,3.315l-0.663-0.663
					l-0.663-0.662c-0.223-0.219-0.497-0.384-0.828-0.498c-0.332-0.107-0.721-0.383-1.16-0.828c-0.663-0.217-1.218-0.549-1.658-0.994
					h-0.331l-0.663-0.332l-0.663,0.332c-0.445,0.887-0.663,1.822-0.663,2.816c0,0.995-0.554,1.715-1.657,2.154
					c-1.108-0.439-1.657-1.325-1.657-2.65c0-1.326,0.549-2.652,1.657-3.979c-0.445-0.217-1.108-0.498-1.989-0.83
					c-0.886-0.332-1.549-0.496-1.988-0.496l-1.326,0.662l-1.326,0.664c-0.223,0.223-0.445,0.332-0.663,0.332h-0.663l-0.994-0.332
					l-1.326-1.326c-2.435,0-4.755,0.496-6.961,1.492c-2.212,0.994-4.424,1.492-6.63,1.492c-1.108,0-1.771-0.275-1.989-0.83
					c-0.223-0.549-0.886-0.828-1.989-0.828h-0.331c-0.223,0.223-0.497,0.496-0.829,0.828c-0.331,0.332-0.497,0.61-0.497,0.83
					c-0.445-2.207-1.491-3.425-3.149-3.646c-1.657-0.219-3.148-0.332-4.475-0.332c-2.435,0-4.424,0.662-5.967,1.988
					c-1.549,1.326-2.543,3.207-2.983,5.636l0.663,1.325c0.217,0.445,0.44,0.777,0.663,0.996v2.981c0,1.99-0.611,3.265-1.823,3.812
					c-1.218,0.556-2.652,1.16-4.31,1.822c-1.658,0.664-3.264,1.715-4.807,3.15c-1.549,1.439-2.652,4.033-3.315,7.789l0.663,1.326
					c0.218,0.445,0.44,0.777,0.663,0.994c0,0.444-0.166,0.942-0.497,1.492c-0.331,0.555-0.611,0.942-0.829,1.159
					c0.44,0,1.104,0.166,1.989,0.498c0.881,0.332,1.435,0.61,1.657,0.828l0.332,0.664l-0.332,0.662
					c-0.223,0.223-0.663,0.444-1.325,0.663c-0.663,0.224-0.995,0.445-0.995,0.662v0.332h0.004V-49.229z M189.614-85.691
					c1.543,0,2.538,0.555,2.983,1.658h-1.326c-1.549,0-2.435-0.55-2.652-1.658H189.614z M192.598-52.212
					c-0.445,0-0.663-0.272-0.663-0.827c0-0.55,0.218-0.716,0.663-0.498C193.478-53.092,193.478-52.65,192.598-52.212z
					 M193.592-81.714h1.326v1.326L193.592-81.714z M202.542-80.388h0.994h0.332c0.44,0.224,0.938,0.446,1.491,0.663
					c0.55,0.223,0.938,0.445,1.16,0.662c-0.445,0.887-0.942,1.771-1.491,2.652c-0.555,0.887-1.383,1.325-2.486,1.325V-80.388
					L202.542-80.388z M229.062-47.072c0,0.776-0.223,1.16-0.663,1.16c-0.663,0-0.994-0.384-0.994-1.16
					c0-0.771,0.331-1.16,0.994-1.16C228.839-48.232,229.062-47.844,229.062-47.072z M243.315-81.714
					c0,0.888-0.331,1.326-0.994,1.326c-0.445,0-0.663-0.438-0.663-1.326c0-0.879,0.218-1.325,0.663-1.325
					C242.984-83.039,243.315-82.594,243.315-81.714z M243.647-74.089h2.651c0,1.987-0.886,2.981-2.651,2.981V-74.089z
					 M248.619-81.714c0,0.888-0.445,1.326-1.325,1.326c-0.446,0-0.663-0.438-0.663-1.326c0-0.879,0.217-1.325,0.663-1.325
					C248.174-83.039,248.619-82.594,248.619-81.714z M250.939-67.626c0,0.996-0.223,1.492-0.662,1.492
					c-0.663,0-0.995-0.496-0.995-1.492c0-0.993,0.332-1.491,0.995-1.491C250.717-69.117,250.939-68.619,250.939-67.626z
					 M253.923-58.508l-1.325,1.325c-0.886-0.663-1.326-1.657-1.326-2.983C252.375-60.167,253.261-59.611,253.923-58.508z
					 M253.923-54.863c-0.445,0.224-0.662,0.058-0.662-0.496c0-0.549,0.217-0.83,0.662-0.83
					C254.804-55.742,254.804-55.303,253.923-54.863z M255.249-81.714h2.652c0.218,0,0.497,0.664,0.828,1.989
					c0.332,1.326,0.498,2.436,0.498,3.314c0,1.107-0.389,1.938-1.16,2.486c-0.777,0.553-1.715,0.828-2.818,0.828V-81.714z
					 M262.874-56.189c0.217,0.225,0.497,0.445,0.828,0.664c0.332,0.223,0.497,0.445,0.497,0.662v0.664v0.662
					c0,0.887-0.445,1.325-1.325,1.325V-56.189z M280.774-56.189h1.326v2.652h-1.326V-56.189z M293.371-56.023
					c0,0.777-0.332,1.16-0.995,1.16c-0.662,0-0.994-0.383-0.994-1.16c0-0.771,0.332-1.159,0.994-1.159
					C293.039-57.183,293.371-56.794,293.371-56.023z M302.652-74.089h0.663h0.663c0.218,0.224,0.44,0.662,0.663,1.325
					c0.218,0.662,0.331,1.107,0.331,1.326c0,0.443-0.279,0.775-0.828,0.994c-0.555,0.224-1.052,0.332-1.492,0.332V-74.089
					L302.652-74.089z M304.642-82.874c0,0.776-0.223,1.16-0.663,1.16c-0.663,0-0.994-0.384-0.994-1.16
					c0-0.772,0.331-1.159,0.994-1.159C304.419-84.033,304.642-83.646,304.642-82.874z M304.973-76.41
					c-0.445,0-0.663-0.273-0.663-0.828c0-0.549,0.218-0.83,0.663-0.83C306.076-77.621,306.076-77.072,304.973-76.41z
					 M315.746-58.675c0.109,0.554,0.166,1.051,0.166,1.491c0,1.107-0.331,2.27-0.992,3.479c-0.663,1.219-1.882,1.824-3.646,1.824
					c0-1.326,0.383-2.762,1.16-4.311c0.771-1.543,1.823-2.76,3.147-3.646C315.581-59.611,315.633-59.224,315.746-58.675z
					 M322.542-63.812c0,0.662-0.223,1.107-0.661,1.326c-0.445,0.223-0.663-0.219-0.663-1.326c0-1.104,0.218-1.543,0.663-1.326
					C322.319-64.917,322.542-64.477,322.542-63.812z"/>
				<path fill="#EC008C" d="M1.326-49.229v0.994c0.44,1.326,1.16,3.149,2.155,5.471c0.994,2.32,1.6,3.48,1.823,3.48h1.657
					c0-1.104,0.383-2.265,1.16-3.48c0.771-1.213,1.709-1.822,2.817-1.822h0.332c0.217,0.223,0.715,0.662,1.491,1.326
					c0.771,0.662,1.27,1.107,1.492,1.324h0.331h0.663c0.44-0.217,0.938-0.662,1.491-1.324c0.55-0.664,0.938-1.105,1.161-1.326
					c0.439,0.885,1.6,1.822,3.48,2.816c1.875,0.994,3.258,1.385,4.144,1.16c0.44-0.217,1.932-0.828,4.475-1.822
					c2.538-0.994,4.03-1.711,4.476-2.154l5.304,5.303c0.663,0.664,1.435,0.166,2.32-1.49c0.881-1.656,1.544-2.485,1.989-2.485h0.663
					c1.988,1.108,3.48,2.047,4.475,2.817c0.995,0.775,2.704,1.158,5.139,1.158h0.663c0.217-0.217,0.828-0.713,1.823-1.49
					c0.994-0.771,1.709-1.16,2.154-1.16c0.44,0,0.938,0.332,1.492,0.994c0.549,0.664,0.828,1.219,0.828,1.656
					c2.652-1.543,3.979-3.312,3.979-5.303c0-1.326-0.446-2.207-1.326-2.65c-0.886-0.44-1.326-1.436-1.326-2.983v-0.994
					c0-0.218,0.108-0.55,0.331-0.994c0.44,1.106,1.27,1.988,2.486,2.651c1.212,0.662,2.372,1.107,3.48,1.324
					c-0.445,0.445-0.828,1.439-1.16,2.982c-0.331,1.549-0.279,2.652,0.166,3.314c0.218,0.445,0.994,0.994,2.32,1.658
					c1.326,0.662,2.207,0.994,2.652,0.994c1.326-1.104,2.098-2.207,2.32-3.314c0.218-1.104,1.104-1.768,2.652-1.988
					c0.439,0.662,0.938,1.492,1.491,2.484c0.549,0.994,1.16,1.492,1.823,1.492h0.663c0.218-0.217,0.497-0.439,0.829-0.662
					c0.331-0.219,0.497-0.439,0.497-0.664c0.88-0.881,1.325-1.766,1.325-2.65l-3.646-6.299c-0.224-0.219-0.166-0.496,0.165-0.828
					c0.332-0.332,0.606-0.498,0.829-0.498H83.2v0.332c1.988,0,3.589,0.389,4.807,1.16c1.212,0.775,2.429,1.656,3.646,2.65
					c1.212,0.994,2.372,1.881,3.48,2.651c1.104,0.776,2.538,1.16,4.31,1.16c0.217,0,0.663-0.496,1.325-1.491
					c0.663-0.994,1.326-2.099,1.989-3.314c0.663-1.211,1.212-2.371,1.657-3.479c0.44-1.104,0.663-1.875,0.663-2.32h0.663h0.663
					c0.218,0.223,0.331,0.662,0.331,1.324v9.283c0.44,0,0.772-0.109,0.995-0.332c2.429-1.768,4.361-3.48,5.801-5.139
					c1.435-1.656,3.921-2.486,7.459-2.486c0.44,0,1.212,0.332,2.32,0.994c1.104,0.664,1.875,1.219,2.32,1.658
					c0-0.881,0.383-1.768,1.16-2.652c0.771-0.881,1.709-1.326,2.817-1.326c0,0.225,0.109,0.445,0.332,0.664l0.663,0.662
					c0.217,0.445,0.44,1.492,0.663,3.148c0.217,1.658,0.439,2.709,0.662,3.15c0.218,0,0.663,0.057,1.326,0.164
					c0.663,0.114,1.104,0.166,1.326,0.166c1.989,0,3.755-0.496,5.304-1.492c1.544-0.994,3.315-1.49,5.304-1.49
					c0.881,0,1.544,0.223,1.989,0.662c0.44,0.444,0.549,1.549,0.332,3.313c0.662-1.767,1.377-2.869,2.154-3.313
					c0.771-0.439,1.823-0.662,3.149-0.662c1.325,0,2.206,0.279,2.651,0.828c0.44,0.555,1.212,0.828,2.32,0.828
					c0.881,0,1.989-0.828,3.315-2.486c1.326-1.656,2.595-3.531,3.812-5.635c1.213-2.099,2.264-4.194,3.149-6.297
					c0.881-2.099,1.326-3.591,1.326-4.476c0-0.22-0.057-0.716-0.166-1.492c-0.113-0.772-0.165-1.379-0.165-1.823
					c-1.771-0.218-2.983-1.045-3.646-2.486c-0.663-1.434-1.549-2.594-2.652-3.479l-2.651,7.623c-3.315-2.429-5.915-6.02-7.79-10.771
					c-1.881-4.75-2.818-9.002-2.818-12.764c-2.212,0-3.48,0.83-3.812,2.486c-0.332,1.658-0.721,3.48-1.161,5.471h-0.331
					c-0.663,0-1.217-0.383-1.657-1.16c-0.445-0.771-0.886-1.656-1.326-2.651c-0.445-0.994-0.942-1.875-1.492-2.652
					c-0.554-0.771-1.383-1.159-2.485-1.159c-4.424,0-8.898,0.61-13.426,1.823c-4.532,1.218-8.898,1.822-13.094,1.822
					c-0.886,0-1.605-0.166-2.155-0.498c-0.554-0.332-1.273-0.496-2.154-0.496c-2.652,0-5.47,0.388-8.453,1.159
					c-2.983,0.775-5.692,1.16-8.121,1.16c-0.445,0-1.771-0.166-3.979-0.498c-2.211-0.332-3.537-0.604-3.978-0.828h-0.663h-0.331
					c-0.446,0.224-1.161,0.496-2.155,0.828c-0.994,0.332-1.605,0.498-1.823,0.498c-0.223,0-0.663-0.219-1.326-0.664
					c-0.662-0.438-1.108-0.662-1.325-0.662c-1.108,0-1.989,1.107-2.652,3.312c-0.663,2.213-1.88,3.315-3.646,3.315l-0.663-0.663
					l-0.663-0.662c-0.223-0.219-0.497-0.384-0.828-0.498c-0.332-0.107-0.721-0.383-1.16-0.828c-0.663-0.217-1.218-0.549-1.658-0.994
					h-0.331l-0.663-0.332l-0.663,0.332c-0.445,0.887-0.663,1.822-0.663,2.816c0,0.995-0.554,1.715-1.657,2.154
					c-1.108-0.439-1.657-1.325-1.657-2.65c0-1.326,0.549-2.652,1.657-3.979c-0.445-0.217-1.108-0.498-1.989-0.83
					c-0.886-0.332-1.549-0.496-1.988-0.496l-1.326,0.662l-1.326,0.664c-0.223,0.223-0.445,0.332-0.663,0.332H51.05l-0.994-0.332
					l-1.326-1.326c-2.435,0-4.755,0.496-6.961,1.492c-2.212,0.994-4.424,1.492-6.63,1.492c-1.108,0-1.771-0.275-1.989-0.83
					c-0.223-0.549-0.886-0.828-1.989-0.828H30.83c-0.223,0.223-0.497,0.496-0.829,0.828c-0.331,0.332-0.497,0.61-0.497,0.83
					c-0.445-2.207-1.491-3.425-3.149-3.646c-1.657-0.219-3.148-0.332-4.475-0.332c-2.435,0-4.424,0.662-5.967,1.988
					c-1.549,1.326-2.543,3.207-2.983,5.636l0.663,1.325c0.217,0.445,0.44,0.777,0.663,0.996v2.981c0,1.99-0.611,3.265-1.823,3.812
					c-1.218,0.556-2.652,1.16-4.31,1.822c-1.658,0.664-3.264,1.715-4.807,3.15c-1.549,1.439-2.652,4.033-3.315,7.789l0.663,1.326
					c0.218,0.445,0.44,0.777,0.663,0.994c0,0.444-0.166,0.942-0.497,1.492C0.498-54.145,0.218-53.757,0-53.54
					c0.44,0,1.104,0.166,1.989,0.498c0.881,0.332,1.435,0.61,1.657,0.828l0.332,0.664l-0.332,0.662
					c-0.223,0.223-0.663,0.444-1.325,0.663c-0.663,0.224-0.995,0.445-0.995,0.662V-49.229z M20.222-85.691
					c1.543,0,2.538,0.555,2.983,1.658h-1.326c-1.549,0-2.435-0.55-2.652-1.658H20.222z M23.205-52.212
					c-0.445,0-0.663-0.272-0.663-0.827c0-0.55,0.218-0.716,0.663-0.498C24.085-53.092,24.085-52.65,23.205-52.212z M24.199-81.714
					h1.326v1.326L24.199-81.714z M33.149-80.388h0.994h0.332c0.44,0.224,0.938,0.446,1.491,0.663c0.55,0.223,0.938,0.445,1.16,0.662
					c-0.445,0.887-0.942,1.771-1.491,2.652c-0.555,0.887-1.383,1.325-2.486,1.325V-80.388z M59.669-47.072
					c0,0.776-0.223,1.16-0.663,1.16c-0.663,0-0.994-0.384-0.994-1.16c0-0.771,0.331-1.16,0.994-1.16
					C59.446-48.232,59.669-47.844,59.669-47.072z M73.923-81.714c0,0.888-0.331,1.326-0.994,1.326c-0.445,0-0.663-0.438-0.663-1.326
					c0-0.879,0.218-1.325,0.663-1.325C73.592-83.039,73.923-82.594,73.923-81.714z M74.255-74.089h2.651
					c0,1.987-0.886,2.981-2.651,2.981V-74.089z M79.227-81.714c0,0.888-0.445,1.326-1.325,1.326c-0.446,0-0.663-0.438-0.663-1.326
					c0-0.879,0.217-1.325,0.663-1.325C78.781-83.039,79.227-82.594,79.227-81.714z M81.547-67.626c0,0.996-0.223,1.492-0.662,1.492
					c-0.663,0-0.995-0.496-0.995-1.492c0-0.993,0.332-1.491,0.995-1.491C81.324-69.117,81.547-68.619,81.547-67.626z M84.53-58.508
					l-1.325,1.325c-0.886-0.663-1.326-1.657-1.326-2.983C82.982-60.167,83.868-59.611,84.53-58.508z M84.53-54.863
					c-0.445,0.224-0.662,0.058-0.662-0.496c0-0.549,0.217-0.83,0.662-0.83C85.411-55.742,85.411-55.303,84.53-54.863z
					 M85.856-81.714h2.652c0.218,0,0.497,0.664,0.828,1.989c0.332,1.326,0.498,2.436,0.498,3.314c0,1.107-0.389,1.938-1.16,2.486
					c-0.777,0.553-1.715,0.828-2.818,0.828V-81.714z M93.481-56.189c0.217,0.225,0.497,0.445,0.828,0.664
					c0.332,0.223,0.497,0.445,0.497,0.662v0.664v0.662c0,0.887-0.445,1.325-1.325,1.325V-56.189z M111.382-56.189h1.326v2.652
					h-1.326V-56.189z M123.979-56.023c0,0.777-0.332,1.16-0.995,1.16c-0.662,0-0.994-0.383-0.994-1.16
					c0-0.771,0.332-1.159,0.994-1.159S123.979-56.794,123.979-56.023z M133.26-74.089h0.663h0.663
					c0.218,0.224,0.44,0.662,0.663,1.325c0.218,0.662,0.331,1.107,0.331,1.326c0,0.443-0.279,0.775-0.828,0.994
					c-0.555,0.224-1.052,0.332-1.492,0.332V-74.089L133.26-74.089z M135.249-82.874c0,0.776-0.223,1.16-0.663,1.16
					c-0.663,0-0.994-0.384-0.994-1.16c0-0.772,0.331-1.159,0.994-1.159C135.026-84.033,135.249-83.646,135.249-82.874z
					 M135.58-76.41c-0.445,0-0.663-0.273-0.663-0.828c0-0.549,0.218-0.83,0.663-0.83C136.684-77.621,136.684-77.072,135.58-76.41z
					 M146.354-58.675c0.109,0.554,0.166,1.051,0.166,1.491c0,1.107-0.331,2.27-0.994,3.479c-0.663,1.219-1.88,1.824-3.646,1.824
					c0-1.326,0.383-2.762,1.16-4.311c0.771-1.543,1.823-2.76,3.149-3.646C146.188-59.611,146.24-59.224,146.354-58.675z
					 M153.149-63.812c0,0.662-0.223,1.107-0.663,1.326c-0.445,0.223-0.663-0.219-0.663-1.326c0-1.104,0.218-1.543,0.663-1.326
					C152.927-64.917,153.149-64.477,153.149-63.812z"/>
				<path fill="#EC008C" d="M86.022-88.225v0.994c0.44,1.326,1.16,3.147,2.155,5.471c0.994,2.318,1.6,3.479,1.823,3.479h1.657
					c0-1.103,0.383-2.263,1.16-3.479c0.771-1.213,1.709-1.824,2.817-1.824h0.332c0.217,0.225,0.715,0.664,1.491,1.326
					c0.771,0.664,1.27,1.107,1.492,1.326h0.331h0.663c0.44-0.217,0.938-0.662,1.491-1.326c0.55-0.662,0.938-1.104,1.161-1.326
					c0.439,0.887,1.6,1.824,3.48,2.818c1.875,0.994,3.258,1.383,4.144,1.16c0.44-0.219,1.932-0.83,4.475-1.822
					c2.538-0.996,4.03-1.709,4.476-2.156l5.304,5.305c0.663,0.662,1.435,0.166,2.32-1.492c0.881-1.655,1.544-2.485,1.989-2.485
					h0.663c1.988,1.108,3.48,2.047,4.475,2.817c0.995,0.775,2.704,1.16,5.139,1.16h0.663c0.217-0.219,0.828-0.715,1.823-1.492
					c0.994-0.771,1.709-1.16,2.154-1.16c0.44,0,0.938,0.332,1.492,0.994c0.549,0.664,0.828,1.218,0.828,1.658
					c2.652-1.545,3.979-3.315,3.979-5.305c0-1.326-0.446-2.207-1.326-2.652c-0.886-0.438-1.326-1.436-1.326-2.981v-0.996
					c0-0.217,0.108-0.549,0.331-0.994c0.44,1.108,1.27,1.99,2.486,2.652c1.212,0.663,2.372,1.106,3.48,1.325
					c-0.445,0.445-0.828,1.439-1.16,2.982c-0.331,1.549-0.279,2.652,0.166,3.314c0.218,0.447,0.994,0.996,2.32,1.658
					c1.326,0.664,2.207,0.994,2.652,0.994c1.326-1.103,2.098-2.205,2.32-3.314c0.218-1.104,1.104-1.766,2.652-1.988
					c0.439,0.662,0.938,1.492,1.491,2.485c0.549,0.993,1.16,1.491,1.823,1.491h0.663c0.218-0.217,0.497-0.439,0.829-0.662
					c0.331-0.217,0.497-0.439,0.497-0.664c0.88-0.879,1.325-1.766,1.325-2.65l-3.646-6.299c-0.224-0.217-0.166-0.496,0.165-0.828
					c0.332-0.332,0.606-0.498,0.829-0.498h1.326v0.332c1.988,0,3.589,0.389,4.807,1.16c1.212,0.777,2.429,1.656,3.646,2.652
					c1.212,0.994,2.372,1.879,3.48,2.652c1.104,0.776,2.538,1.159,4.31,1.159c0.217,0,0.663-0.498,1.325-1.491
					c0.663-0.996,1.326-2.099,1.989-3.316c0.663-1.211,1.212-2.371,1.657-3.479c0.44-1.104,0.663-1.875,0.663-2.32h0.663h0.663
					c0.218,0.224,0.331,0.662,0.331,1.324v9.283c0.44,0,0.772-0.109,0.995-0.332c2.429-1.768,4.361-3.48,5.801-5.139
					c1.435-1.656,3.921-2.486,7.459-2.486c0.44,0,1.212,0.332,2.32,0.994c1.104,0.664,1.875,1.217,2.32,1.658
					c0-0.881,0.383-1.768,1.16-2.652c0.771-0.881,1.709-1.326,2.817-1.326c0,0.225,0.109,0.445,0.332,0.664l0.663,0.662
					c0.217,0.445,0.44,1.492,0.663,3.148c0.217,1.658,0.439,2.709,0.662,3.15c0.218,0,0.663,0.057,1.326,0.166
					c0.663,0.112,1.104,0.166,1.326,0.166c1.989,0,3.755-0.498,5.304-1.492c1.544-0.994,3.315-1.492,5.304-1.492
					c0.881,0,1.544,0.223,1.989,0.662c0.44,0.445,0.549,1.549,0.332,3.315c0.662-1.767,1.377-2.87,2.154-3.315
					c0.771-0.439,1.823-0.662,3.149-0.662c1.325,0,2.206,0.279,2.651,0.828c0.44,0.555,1.212,0.83,2.32,0.83
					c0.881,0,1.989-0.83,3.315-2.486s2.595-3.531,3.812-5.635c1.213-2.099,2.264-4.195,3.149-6.299
					c0.881-2.099,1.326-3.588,1.326-4.476c0-0.218-0.057-0.715-0.166-1.492c-0.113-0.771-0.165-1.377-0.165-1.821
					c-1.771-0.22-2.983-1.047-3.646-2.486c-0.663-1.436-1.549-2.596-2.652-3.48l-2.651,7.625c-3.315-2.43-5.915-6.02-7.79-10.773
					c-1.881-4.75-2.818-9.002-2.818-12.762c-2.212,0-3.48,0.828-3.812,2.486s-0.721,3.48-1.161,5.469h-0.331
					c-0.663,0-1.217-0.383-1.657-1.158c-0.445-0.771-0.886-1.658-1.326-2.651c-0.445-0.996-0.942-1.875-1.492-2.651
					c-0.554-0.773-1.383-1.16-2.485-1.16c-4.424,0-8.898,0.61-13.426,1.821c-4.532,1.218-8.898,1.824-13.094,1.824
					c-0.886,0-1.605-0.166-2.155-0.498c-0.554-0.332-1.273-0.498-2.154-0.498c-2.652,0-5.47,0.39-8.453,1.16
					c-2.983,0.776-5.692,1.159-8.121,1.159c-0.445,0-1.771-0.166-3.979-0.496c-2.211-0.332-3.537-0.605-3.978-0.829h-0.663h-0.331
					c-0.446,0.224-1.161,0.497-2.155,0.829s-1.605,0.496-1.823,0.496c-0.223,0-0.663-0.217-1.326-0.662
					c-0.662-0.439-1.108-0.663-1.325-0.663c-1.108,0-1.989,1.108-2.652,3.313c-0.663,2.213-1.88,3.314-3.646,3.314l-0.663-0.662
					l-0.663-0.664c-0.223-0.217-0.497-0.383-0.828-0.496c-0.332-0.109-0.721-0.383-1.16-0.83c-0.663-0.217-1.218-0.549-1.658-0.992
					h-0.331l-0.663-0.332l-0.663,0.332c-0.445,0.885-0.663,1.822-0.663,2.816s-0.554,1.713-1.657,2.154
					c-1.108-0.439-1.657-1.326-1.657-2.652s0.549-2.65,1.657-3.979c-0.445-0.217-1.108-0.496-1.989-0.828
					c-0.886-0.332-1.549-0.497-1.988-0.497l-1.326,0.663l-1.326,0.662c-0.223,0.225-0.445,0.332-0.663,0.332h-0.663l-0.994-0.332
					l-1.326-1.325c-2.435,0-4.755,0.497-6.961,1.491c-2.212,0.994-4.424,1.492-6.63,1.492c-1.108,0-1.771-0.274-1.989-0.828
					c-0.223-0.549-0.886-0.83-1.989-0.83h-0.331c-0.223,0.225-0.497,0.498-0.829,0.83c-0.331,0.332-0.497,0.61-0.497,0.828
					c-0.445-2.207-1.491-3.424-3.149-3.646c-1.657-0.22-3.148-0.332-4.475-0.332c-2.435,0-4.424,0.662-5.967,1.987
					c-1.549,1.326-2.543,3.207-2.983,5.636l0.663,1.325c0.217,0.445,0.44,0.777,0.663,0.996v2.982c0,1.988-0.611,3.264-1.823,3.812
					c-1.218,0.554-2.652,1.16-4.31,1.822c-1.658,0.662-3.264,1.715-4.807,3.148c-1.549,1.439-2.652,4.035-3.315,7.791l0.663,1.325
					c0.218,0.444,0.44,0.776,0.663,0.995c0,0.445-0.166,0.941-0.497,1.492c-0.331,0.553-0.611,0.94-0.829,1.16
					c0.44,0,1.104,0.166,1.989,0.496c0.881,0.331,1.435,0.61,1.657,0.829l0.332,0.662l-0.332,0.664
					c-0.223,0.224-0.663,0.444-1.325,0.662c-0.663,0.224-0.995,0.444-0.995,0.664v0.329h0.003V-88.225z M104.918-124.689
					c1.543,0,2.538,0.555,2.983,1.658h-1.326c-1.549,0-2.435-0.549-2.652-1.658H104.918z M107.901-91.208
					c-0.445,0-0.663-0.274-0.663-0.829c0-0.55,0.218-0.716,0.663-0.496C108.781-92.089,108.781-91.648,107.901-91.208z
					 M108.896-120.712h1.326v1.326L108.896-120.712z M117.846-119.385h0.994h0.332c0.44,0.223,0.938,0.445,1.491,0.663
					c0.55,0.224,0.938,0.444,1.16,0.663c-0.445,0.887-0.942,1.771-1.491,2.652c-0.555,0.885-1.383,1.326-2.486,1.326V-119.385z
					 M144.365-86.07c0,0.776-0.223,1.162-0.663,1.162c-0.663,0-0.994-0.384-0.994-1.162c0-0.771,0.331-1.16,0.994-1.16
					C144.143-87.23,144.365-86.842,144.365-86.07z M158.619-120.712c0,0.888-0.331,1.326-0.994,1.326
					c-0.445,0-0.663-0.438-0.663-1.326c0-0.879,0.218-1.325,0.663-1.325C158.288-122.037,158.619-121.591,158.619-120.712z
					 M158.951-113.087h2.651c0,1.988-0.886,2.981-2.651,2.981V-113.087z M163.923-120.712c0,0.888-0.445,1.326-1.325,1.326
					c-0.446,0-0.663-0.438-0.663-1.326c0-0.879,0.217-1.325,0.663-1.325C163.478-122.037,163.923-121.591,163.923-120.712z
					 M166.243-106.624c0,0.996-0.223,1.492-0.662,1.492c-0.663,0-0.995-0.496-0.995-1.492c0-0.993,0.332-1.491,0.995-1.491
					C166.021-108.113,166.243-107.617,166.243-106.624z M169.227-97.507l-1.325,1.325c-0.886-0.663-1.326-1.657-1.326-2.982
					C167.679-99.164,168.564-98.609,169.227-97.507z M169.227-93.859c-0.445,0.223-0.662,0.057-0.662-0.498
					c0-0.549,0.217-0.828,0.662-0.828C170.107-94.74,170.107-94.299,169.227-93.859z M170.553-120.712h2.652
					c0.218,0,0.497,0.664,0.828,1.989c0.332,1.326,0.498,2.436,0.498,3.314c0,1.107-0.389,1.938-1.16,2.486
					c-0.777,0.553-1.715,0.828-2.818,0.828V-120.712z M178.178-95.186c0.217,0.223,0.497,0.445,0.828,0.662
					c0.332,0.225,0.497,0.445,0.497,0.664v0.662v0.664c0,0.885-0.445,1.325-1.325,1.325V-95.186z M196.078-95.186h1.326v2.652
					h-1.326V-95.186z M208.675-95.021c0,0.777-0.332,1.16-0.995,1.16c-0.662,0-0.994-0.383-0.994-1.16
					c0-0.771,0.332-1.159,0.994-1.159C208.343-96.181,208.675-95.792,208.675-95.021z M217.956-113.087h0.663h0.663
					c0.218,0.224,0.44,0.662,0.663,1.326c0.218,0.662,0.331,1.106,0.331,1.325c0,0.443-0.279,0.775-0.828,0.994
					c-0.555,0.224-1.052,0.332-1.492,0.332V-113.087L217.956-113.087z M219.945-121.871c0,0.776-0.223,1.159-0.663,1.159
					c-0.663,0-0.994-0.383-0.994-1.159c0-0.771,0.331-1.16,0.994-1.16C219.723-123.031,219.945-122.643,219.945-121.871z
					 M220.276-115.406c-0.445,0-0.663-0.274-0.663-0.83c0-0.549,0.218-0.828,0.663-0.828
					C221.38-116.619,221.38-116.07,220.276-115.406z M231.05-97.673c0.109,0.556,0.166,1.052,0.166,1.492
					c0,1.108-0.331,2.271-0.994,3.479c-0.663,1.217-1.88,1.822-3.646,1.822c0-1.326,0.383-2.761,1.16-4.309
					c0.771-1.543,1.823-2.762,3.149-3.646C230.885-98.609,230.937-98.221,231.05-97.673z M237.846-102.811
					c0,0.662-0.223,1.107-0.663,1.326c-0.445,0.223-0.663-0.219-0.663-1.326c0-1.104,0.218-1.543,0.663-1.326
					C237.623-103.914,237.846-103.474,237.846-102.811z"/>
				<path fill="#EC008C" d="M170.719-127.222v0.993c0.44,1.326,1.16,3.15,2.155,5.471c0.994,2.32,1.6,3.48,1.823,3.48h1.657
					c0-1.104,0.383-2.265,1.16-3.48c0.771-1.211,1.709-1.822,2.817-1.822h0.332c0.217,0.223,0.715,0.662,1.491,1.326
					c0.771,0.662,1.27,1.107,1.492,1.326h0.331h0.663c0.44-0.219,0.938-0.664,1.491-1.326c0.55-0.664,0.938-1.104,1.161-1.326
					c0.439,0.887,1.6,1.822,3.48,2.818c1.875,0.992,3.258,1.383,4.144,1.158c0.44-0.217,1.932-0.828,4.475-1.822
					c2.538-0.994,4.03-1.709,4.476-2.154l5.304,5.305c0.663,0.662,1.435,0.166,2.32-1.492c0.881-1.657,1.544-2.485,1.989-2.485
					h0.663c1.988,1.106,3.48,2.045,4.475,2.815c0.995,0.777,2.704,1.16,5.139,1.16h0.663c0.217-0.217,0.828-0.715,1.823-1.492
					c0.994-0.77,1.709-1.159,2.154-1.159c0.44,0,0.938,0.332,1.492,0.995c0.549,0.662,0.828,1.218,0.828,1.656
					c2.652-1.543,3.979-3.313,3.979-5.305c0-1.326-0.446-2.207-1.326-2.65c-0.886-0.44-1.326-1.436-1.326-2.983v-0.994
					c0-0.217,0.108-0.549,0.331-0.993c0.44,1.106,1.27,1.987,2.486,2.651c1.212,0.662,2.372,1.106,3.48,1.325
					c-0.445,0.445-0.828,1.439-1.16,2.982c-0.331,1.549-0.279,2.652,0.166,3.314c0.218,0.445,0.994,0.994,2.32,1.658
					c1.326,0.662,2.207,0.994,2.652,0.994c1.326-1.104,2.098-2.207,2.32-3.314c0.218-1.104,1.104-1.768,2.652-1.99
					c0.439,0.664,0.938,1.492,1.491,2.486c0.549,0.994,1.16,1.492,1.823,1.492h0.663c0.218-0.219,0.497-0.439,0.829-0.664
					c0.331-0.217,0.497-0.439,0.497-0.662c0.88-0.881,1.325-1.766,1.325-2.652l-3.646-6.297c-0.224-0.217-0.166-0.498,0.165-0.83
					c0.332-0.332,0.606-0.496,0.829-0.496h1.326v0.33c1.988,0,3.589,0.391,4.807,1.162c1.212,0.775,2.429,1.656,3.646,2.65
					c1.212,0.994,2.372,1.881,3.48,2.652c1.104,0.776,2.538,1.159,4.31,1.159c0.217,0,0.663-0.495,1.325-1.491
					c0.663-0.994,1.326-2.099,1.989-3.314c0.663-1.213,1.212-2.371,1.657-3.48c0.44-1.104,0.663-1.875,0.663-2.32h0.663h0.663
					c0.218,0.224,0.331,0.664,0.331,1.326v9.281c0.44,0,0.772-0.107,0.995-0.332c2.429-1.766,4.361-3.479,5.801-5.137
					c1.435-1.658,3.921-2.486,7.459-2.486c0.44,0,1.212,0.33,2.32,0.994c1.104,0.662,1.875,1.217,2.32,1.658
					c0-0.883,0.383-1.768,1.16-2.652c0.771-0.881,1.709-1.326,2.817-1.326c0,0.224,0.109,0.445,0.332,0.662l0.663,0.664
					c0.217,0.445,0.44,1.492,0.663,3.148c0.217,1.656,0.439,2.709,0.662,3.148c0.218,0,0.663,0.057,1.326,0.166
					c0.663,0.114,1.104,0.166,1.326,0.166c1.989,0,3.755-0.496,5.304-1.492c1.544-0.994,3.315-1.492,5.304-1.492
					c0.881,0,1.544,0.225,1.989,0.664c0.44,0.445,0.549,1.549,0.332,3.314c0.662-1.767,1.377-2.869,2.154-3.314
					c0.771-0.439,1.821-0.664,3.147-0.664c1.325,0,2.206,0.281,2.651,0.83c0.438,0.555,1.212,0.828,2.32,0.828
					c0.881,0,1.987-0.828,3.313-2.484c1.326-1.658,2.595-3.533,3.812-5.637c1.213-2.098,2.264-4.193,3.147-6.297
					c0.881-2.099,1.326-3.59,1.326-4.476c0-0.219-0.057-0.715-0.166-1.491c-0.113-0.773-0.165-1.38-0.165-1.824
					c-1.771-0.217-2.983-1.045-3.646-2.485c-0.663-1.435-1.551-2.595-2.652-3.479l-2.651,7.623
					c-3.313-2.428-5.915-6.019-7.79-10.771c-1.881-4.75-2.816-9.002-2.816-12.762c-2.212,0-3.48,0.828-3.812,2.484
					c-0.332,1.658-0.721,3.48-1.161,5.471h-0.331c-0.663,0-1.217-0.383-1.655-1.16c-0.445-0.771-0.888-1.656-1.326-2.651
					c-0.445-0.994-0.942-1.875-1.492-2.651c-0.554-0.771-1.383-1.16-2.485-1.16c-4.424,0-8.896,0.61-13.426,1.824
					c-4.532,1.217-8.898,1.821-13.094,1.821c-0.886,0-1.605-0.166-2.155-0.498c-0.554-0.332-1.273-0.496-2.154-0.496
					c-2.652,0-5.47,0.388-8.453,1.16c-2.983,0.776-5.692,1.159-8.121,1.159c-0.445,0-1.771-0.166-3.979-0.497
					c-2.211-0.332-3.537-0.604-3.978-0.828H250.6h-0.331c-0.446,0.224-1.161,0.496-2.155,0.828
					c-0.994,0.332-1.605,0.497-1.823,0.497c-0.223,0-0.663-0.217-1.326-0.663c-0.662-0.438-1.108-0.662-1.325-0.662
					c-1.108,0-1.989,1.106-2.652,3.313c-0.663,2.211-1.88,3.314-3.646,3.314l-0.663-0.664l-0.663-0.662
					c-0.223-0.219-0.497-0.383-0.828-0.498c-0.332-0.107-0.721-0.383-1.16-0.828c-0.663-0.217-1.218-0.549-1.658-0.994h-0.331
					l-0.663-0.332l-0.663,0.332c-0.445,0.887-0.663,1.822-0.663,2.816c0,0.996-0.554,1.715-1.657,2.156
					c-1.108-0.441-1.657-1.326-1.657-2.652s0.549-2.652,1.657-3.979c-0.445-0.217-1.108-0.497-1.989-0.828
					c-0.886-0.332-1.549-0.498-1.988-0.498l-1.326,0.663l-1.326,0.663c-0.223,0.223-0.445,0.332-0.663,0.332h-0.663l-0.994-0.332
					l-1.326-1.326c-2.435,0-4.755,0.497-6.961,1.492c-2.212,0.994-4.424,1.492-6.63,1.492c-1.108,0-1.771-0.275-1.989-0.83
					c-0.223-0.549-0.886-0.828-1.989-0.828h-0.331c-0.223,0.223-0.497,0.496-0.829,0.828c-0.331,0.332-0.497,0.611-0.497,0.83
					c-0.445-2.207-1.491-3.424-3.149-3.646c-1.657-0.218-3.148-0.332-4.475-0.332c-2.435,0-4.424,0.664-5.967,1.989
					c-1.549,1.325-2.543,3.206-2.983,5.636l0.663,1.326c0.217,0.443,0.44,0.775,0.663,0.994v2.982c0,1.989-0.611,3.264-1.823,3.812
					c-1.218,0.555-2.652,1.159-4.31,1.823c-1.658,0.662-3.264,1.713-4.807,3.148c-1.549,1.439-2.652,4.035-3.315,7.789l0.663,1.326
					c0.218,0.445,0.44,0.777,0.663,0.994c0,0.445-0.166,0.943-0.497,1.492c-0.331,0.555-0.611,0.942-0.829,1.16
					c0.44,0,1.104,0.166,1.989,0.498c0.881,0.332,1.435,0.61,1.657,0.827l0.332,0.664l-0.332,0.662
					c-0.223,0.224-0.663,0.444-1.325,0.664c-0.663,0.224-0.995,0.444-0.995,0.662v0.331h0.004V-127.222z M189.614-163.688
					c1.543,0,2.538,0.555,2.983,1.658h-1.326c-1.549,0-2.435-0.549-2.652-1.658H189.614z M192.598-130.205
					c-0.445,0-0.663-0.275-0.663-0.83c0-0.55,0.218-0.716,0.663-0.496C193.478-131.087,193.478-130.646,192.598-130.205z
					 M193.592-159.71h1.326v1.326L193.592-159.71z M202.542-158.383h0.994h0.332c0.44,0.223,0.938,0.445,1.491,0.664
					c0.55,0.223,0.938,0.443,1.16,0.662c-0.445,0.887-0.942,1.771-1.491,2.652c-0.555,0.885-1.383,1.326-2.486,1.326V-158.383
					L202.542-158.383z M229.062-125.068c0,0.776-0.223,1.162-0.663,1.162c-0.663,0-0.994-0.383-0.994-1.162
					c0-0.771,0.331-1.16,0.994-1.16C228.839-126.229,229.062-125.839,229.062-125.068z M243.315-159.71
					c0,0.888-0.331,1.326-0.994,1.326c-0.445,0-0.663-0.438-0.663-1.326c0-0.879,0.218-1.325,0.663-1.325
					C242.984-161.035,243.315-160.589,243.315-159.71z M243.647-152.085h2.651c0,1.99-0.886,2.983-2.651,2.983V-152.085z
					 M248.619-159.71c0,0.888-0.445,1.326-1.325,1.326c-0.446,0-0.663-0.438-0.663-1.326c0-0.879,0.217-1.325,0.663-1.325
					C248.174-161.035,248.619-160.589,248.619-159.71z M250.939-145.619c0,0.993-0.223,1.491-0.662,1.491
					c-0.663,0-0.995-0.498-0.995-1.491c0-0.996,0.332-1.492,0.995-1.492C250.717-147.111,250.939-146.615,250.939-145.619z
					 M253.923-136.505l-1.325,1.326c-0.886-0.662-1.326-1.656-1.326-2.981C252.375-138.162,253.261-137.607,253.923-136.505z
					 M253.923-132.857c-0.445,0.223-0.662,0.057-0.662-0.498c0-0.549,0.217-0.828,0.662-0.828
					C254.804-133.738,254.804-133.298,253.923-132.857z M255.249-159.71h2.652c0.218,0,0.497,0.664,0.828,1.99
					c0.332,1.325,0.498,2.435,0.498,3.313c0,1.107-0.389,1.938-1.16,2.486c-0.777,0.553-1.715,0.828-2.818,0.828V-159.71z
					 M262.874-134.184c0.217,0.223,0.497,0.445,0.828,0.662c0.332,0.225,0.497,0.445,0.497,0.664v0.662v0.664
					c0,0.885-0.445,1.326-1.325,1.326V-134.184z M280.774-134.184h1.326v2.652h-1.326V-134.184z M293.371-134.018
					c0,0.777-0.332,1.16-0.995,1.16c-0.662,0-0.994-0.383-0.994-1.16c0-0.771,0.332-1.16,0.994-1.16
					C293.039-135.178,293.371-134.789,293.371-134.018z M302.652-152.085h0.663h0.663c0.218,0.224,0.44,0.664,0.663,1.326
					c0.218,0.664,0.331,1.108,0.331,1.326c0,0.444-0.279,0.776-0.828,0.993c-0.555,0.224-1.052,0.332-1.492,0.332V-152.085
					L302.652-152.085z M304.642-160.869c0,0.776-0.223,1.159-0.663,1.159c-0.663,0-0.994-0.383-0.994-1.159
					c0-0.771,0.331-1.16,0.994-1.16C304.419-162.029,304.642-161.641,304.642-160.869z M304.973-154.404
					c-0.445,0-0.663-0.273-0.663-0.83c0-0.549,0.218-0.828,0.663-0.828C306.076-155.617,306.076-155.068,304.973-154.404z
					 M315.746-136.671c0.109,0.556,0.166,1.052,0.166,1.492c0,1.108-0.331,2.271-0.992,3.479c-0.663,1.217-1.882,1.822-3.646,1.822
					c0-1.326,0.383-2.76,1.16-4.309c0.771-1.543,1.823-2.762,3.147-3.646C315.581-137.607,315.633-137.219,315.746-136.671z
					 M322.542-141.808c0,0.663-0.223,1.108-0.661,1.325c-0.445,0.225-0.663-0.217-0.663-1.325c0-1.103,0.218-1.544,0.663-1.325
					C322.319-142.91,322.542-142.471,322.542-141.808z"/>
				<path fill="#EC008C" d="M1.326-127.222v0.993c0.44,1.326,1.16,3.15,2.155,5.471c0.994,2.32,1.6,3.48,1.823,3.48h1.657
					c0-1.104,0.383-2.265,1.16-3.48c0.771-1.211,1.709-1.822,2.817-1.822h0.332c0.217,0.223,0.715,0.662,1.491,1.326
					c0.771,0.662,1.27,1.107,1.492,1.326h0.331h0.663c0.44-0.219,0.938-0.664,1.491-1.326c0.55-0.664,0.938-1.104,1.161-1.326
					c0.439,0.887,1.6,1.822,3.48,2.818c1.875,0.992,3.258,1.383,4.144,1.158c0.44-0.217,1.932-0.828,4.475-1.822
					c2.538-0.994,4.03-1.709,4.476-2.154l5.304,5.305c0.663,0.662,1.435,0.166,2.32-1.492c0.881-1.657,1.544-2.485,1.989-2.485
					h0.663c1.988,1.106,3.48,2.045,4.475,2.815c0.995,0.777,2.704,1.16,5.139,1.16h0.663c0.217-0.217,0.828-0.715,1.823-1.492
					c0.994-0.77,1.709-1.159,2.154-1.159c0.44,0,0.938,0.332,1.492,0.995c0.549,0.662,0.828,1.218,0.828,1.656
					c2.652-1.543,3.979-3.313,3.979-5.305c0-1.326-0.446-2.207-1.326-2.65c-0.886-0.44-1.326-1.436-1.326-2.983v-0.994
					c0-0.217,0.108-0.549,0.331-0.993c0.44,1.106,1.27,1.987,2.486,2.651c1.212,0.662,2.372,1.106,3.48,1.325
					c-0.445,0.445-0.828,1.439-1.16,2.982c-0.331,1.549-0.279,2.652,0.166,3.314c0.218,0.445,0.994,0.994,2.32,1.658
					c1.326,0.662,2.207,0.994,2.652,0.994c1.326-1.104,2.098-2.207,2.32-3.314c0.218-1.104,1.104-1.768,2.652-1.99
					c0.439,0.664,0.938,1.492,1.491,2.486c0.549,0.994,1.16,1.492,1.823,1.492h0.663c0.218-0.219,0.497-0.439,0.829-0.664
					c0.331-0.217,0.497-0.439,0.497-0.662c0.88-0.881,1.325-1.766,1.325-2.652l-3.646-6.297c-0.224-0.217-0.166-0.498,0.165-0.83
					c0.332-0.332,0.606-0.496,0.829-0.496H83.2v0.33c1.988,0,3.589,0.391,4.807,1.162c1.212,0.775,2.429,1.656,3.646,2.65
					c1.212,0.994,2.372,1.881,3.48,2.652c1.104,0.776,2.538,1.159,4.31,1.159c0.217,0,0.663-0.495,1.325-1.491
					c0.663-0.994,1.326-2.099,1.989-3.314c0.663-1.213,1.212-2.371,1.657-3.48c0.44-1.104,0.663-1.875,0.663-2.32h0.663h0.663
					c0.218,0.224,0.331,0.664,0.331,1.326v9.281c0.44,0,0.772-0.107,0.995-0.332c2.429-1.766,4.361-3.479,5.801-5.137
					c1.435-1.658,3.921-2.486,7.459-2.486c0.44,0,1.212,0.33,2.32,0.994c1.104,0.662,1.875,1.217,2.32,1.658
					c0-0.883,0.383-1.768,1.16-2.652c0.771-0.881,1.709-1.326,2.817-1.326c0,0.224,0.109,0.445,0.332,0.662l0.663,0.664
					c0.217,0.445,0.44,1.492,0.663,3.148c0.217,1.656,0.439,2.709,0.662,3.148c0.218,0,0.663,0.057,1.326,0.166
					c0.663,0.114,1.104,0.166,1.326,0.166c1.989,0,3.755-0.496,5.304-1.492c1.544-0.994,3.315-1.492,5.304-1.492
					c0.881,0,1.544,0.225,1.989,0.664c0.44,0.445,0.549,1.549,0.332,3.314c0.662-1.767,1.377-2.869,2.154-3.314
					c0.771-0.439,1.823-0.664,3.149-0.664c1.325,0,2.206,0.281,2.651,0.83c0.44,0.555,1.212,0.828,2.32,0.828
					c0.881,0,1.989-0.828,3.315-2.484c1.326-1.658,2.595-3.533,3.812-5.637c1.213-2.098,2.264-4.193,3.149-6.297
					c0.881-2.099,1.326-3.59,1.326-4.476c0-0.219-0.057-0.715-0.166-1.491c-0.113-0.773-0.165-1.38-0.165-1.824
					c-1.771-0.217-2.983-1.045-3.646-2.485c-0.663-1.435-1.549-2.595-2.652-3.479l-2.651,7.623
					c-3.315-2.428-5.915-6.019-7.79-10.771c-1.881-4.75-2.818-9.002-2.818-12.762c-2.212,0-3.48,0.828-3.812,2.484
					c-0.332,1.658-0.721,3.48-1.161,5.471h-0.331c-0.663,0-1.217-0.383-1.657-1.16c-0.445-0.771-0.886-1.656-1.326-2.651
					c-0.445-0.994-0.942-1.875-1.492-2.651c-0.554-0.771-1.383-1.16-2.485-1.16c-4.424,0-8.898,0.61-13.426,1.824
					c-4.532,1.217-8.898,1.821-13.094,1.821c-0.886,0-1.605-0.166-2.155-0.498c-0.554-0.332-1.273-0.496-2.154-0.496
					c-2.652,0-5.47,0.388-8.453,1.16c-2.983,0.776-5.692,1.159-8.121,1.159c-0.445,0-1.771-0.166-3.979-0.497
					c-2.211-0.332-3.537-0.604-3.978-0.828h-0.663h-0.331c-0.446,0.224-1.161,0.496-2.155,0.828
					c-0.994,0.332-1.605,0.497-1.823,0.497c-0.223,0-0.663-0.217-1.326-0.663c-0.662-0.438-1.108-0.662-1.325-0.662
					c-1.108,0-1.989,1.106-2.652,3.313c-0.663,2.211-1.88,3.314-3.646,3.314l-0.663-0.664l-0.663-0.662
					c-0.223-0.219-0.497-0.383-0.828-0.498c-0.332-0.107-0.721-0.383-1.16-0.828c-0.663-0.217-1.218-0.549-1.658-0.994h-0.331
					l-0.663-0.332l-0.663,0.332c-0.445,0.887-0.663,1.822-0.663,2.816c0,0.996-0.554,1.715-1.657,2.156
					c-1.108-0.441-1.657-1.326-1.657-2.652s0.549-2.652,1.657-3.979c-0.445-0.217-1.108-0.497-1.989-0.828
					c-0.886-0.332-1.549-0.498-1.988-0.498l-1.326,0.663l-1.326,0.663c-0.223,0.223-0.445,0.332-0.663,0.332H51.05l-0.994-0.332
					l-1.326-1.326c-2.435,0-4.755,0.497-6.961,1.492c-2.212,0.994-4.424,1.492-6.63,1.492c-1.108,0-1.771-0.275-1.989-0.83
					c-0.223-0.549-0.886-0.828-1.989-0.828H30.83c-0.223,0.223-0.497,0.496-0.829,0.828c-0.331,0.332-0.497,0.611-0.497,0.83
					c-0.445-2.207-1.491-3.424-3.149-3.646c-1.657-0.218-3.148-0.332-4.475-0.332c-2.435,0-4.424,0.664-5.967,1.989
					c-1.549,1.325-2.543,3.206-2.983,5.636l0.663,1.326c0.217,0.443,0.44,0.775,0.663,0.994v2.982c0,1.989-0.611,3.264-1.823,3.812
					c-1.218,0.555-2.652,1.159-4.31,1.823c-1.658,0.662-3.264,1.713-4.807,3.148c-1.549,1.439-2.652,4.035-3.315,7.789l0.663,1.326
					c0.218,0.445,0.44,0.777,0.663,0.994c0,0.445-0.166,0.943-0.497,1.492c-0.331,0.555-0.611,0.942-0.829,1.16
					c0.44,0,1.104,0.166,1.989,0.498c0.881,0.332,1.435,0.61,1.657,0.827l0.332,0.664l-0.332,0.662
					c-0.223,0.224-0.663,0.444-1.325,0.664c-0.663,0.224-0.995,0.444-0.995,0.662L1.326-127.222L1.326-127.222z M20.222-163.688
					c1.543,0,2.538,0.555,2.983,1.658h-1.326c-1.549,0-2.435-0.549-2.652-1.658H20.222z M23.205-130.205
					c-0.445,0-0.663-0.275-0.663-0.83c0-0.55,0.218-0.716,0.663-0.496C24.085-131.087,24.085-130.646,23.205-130.205z
					 M24.199-159.71h1.326v1.326L24.199-159.71z M33.149-158.383h0.994h0.332c0.44,0.223,0.938,0.445,1.491,0.664
					c0.55,0.223,0.938,0.443,1.16,0.662c-0.445,0.887-0.942,1.771-1.491,2.652c-0.555,0.885-1.383,1.326-2.486,1.326V-158.383z
					 M59.669-125.068c0,0.776-0.223,1.162-0.663,1.162c-0.663,0-0.994-0.383-0.994-1.162c0-0.771,0.331-1.16,0.994-1.16
					C59.446-126.229,59.669-125.839,59.669-125.068z M73.923-159.71c0,0.888-0.331,1.326-0.994,1.326
					c-0.445,0-0.663-0.438-0.663-1.326c0-0.879,0.218-1.325,0.663-1.325C73.592-161.035,73.923-160.589,73.923-159.71z
					 M74.255-152.085h2.651c0,1.99-0.886,2.983-2.651,2.983V-152.085z M79.227-159.71c0,0.888-0.445,1.326-1.325,1.326
					c-0.446,0-0.663-0.438-0.663-1.326c0-0.879,0.217-1.325,0.663-1.325C78.781-161.035,79.227-160.589,79.227-159.71z
					 M81.547-145.619c0,0.993-0.223,1.491-0.662,1.491c-0.663,0-0.995-0.498-0.995-1.491c0-0.996,0.332-1.492,0.995-1.492
					C81.324-147.111,81.547-146.615,81.547-145.619z M84.53-136.505l-1.325,1.326c-0.886-0.662-1.326-1.656-1.326-2.981
					C82.982-138.162,83.868-137.607,84.53-136.505z M84.53-132.857c-0.445,0.223-0.662,0.057-0.662-0.498
					c0-0.549,0.217-0.828,0.662-0.828C85.411-133.738,85.411-133.298,84.53-132.857z M85.856-159.71h2.652
					c0.218,0,0.497,0.664,0.828,1.99c0.332,1.325,0.498,2.435,0.498,3.313c0,1.107-0.389,1.938-1.16,2.486
					c-0.777,0.553-1.715,0.828-2.818,0.828V-159.71z M93.481-134.184c0.217,0.223,0.497,0.445,0.828,0.662
					c0.332,0.225,0.497,0.445,0.497,0.664v0.662v0.664c0,0.885-0.445,1.326-1.325,1.326V-134.184z M111.382-134.184h1.326v2.652
					h-1.326V-134.184z M123.979-134.018c0,0.777-0.332,1.16-0.995,1.16c-0.662,0-0.994-0.383-0.994-1.16
					c0-0.771,0.332-1.16,0.994-1.16S123.979-134.789,123.979-134.018z M133.26-152.085h0.663h0.663
					c0.218,0.224,0.44,0.664,0.663,1.326c0.218,0.664,0.331,1.108,0.331,1.326c0,0.444-0.279,0.776-0.828,0.993
					c-0.555,0.224-1.052,0.332-1.492,0.332V-152.085L133.26-152.085z M135.249-160.869c0,0.776-0.223,1.159-0.663,1.159
					c-0.663,0-0.994-0.383-0.994-1.159c0-0.771,0.331-1.16,0.994-1.16C135.026-162.029,135.249-161.641,135.249-160.869z
					 M135.58-154.404c-0.445,0-0.663-0.273-0.663-0.83c0-0.549,0.218-0.828,0.663-0.828
					C136.684-155.617,136.684-155.068,135.58-154.404z M146.354-136.671c0.109,0.556,0.166,1.052,0.166,1.492
					c0,1.108-0.331,2.271-0.994,3.479c-0.663,1.217-1.88,1.822-3.646,1.822c0-1.326,0.383-2.76,1.16-4.309
					c0.771-1.543,1.823-2.762,3.149-3.646C146.188-137.607,146.24-137.219,146.354-136.671z M153.149-141.808
					c0,0.663-0.223,1.108-0.663,1.325c-0.445,0.225-0.663-0.217-0.663-1.325c0-1.103,0.218-1.544,0.663-1.325
					C152.927-142.91,153.149-142.471,153.149-141.808z"/>
				<path fill="#EC008C" d="M86.022-166.219v0.992c0.44,1.326,1.16,3.15,2.155,5.471c0.994,2.32,1.6,3.48,1.823,3.48h1.657
					c0-1.104,0.383-2.264,1.16-3.48c0.771-1.211,1.709-1.822,2.817-1.822h0.332c0.217,0.223,0.715,0.662,1.491,1.326
					c0.771,0.662,1.27,1.107,1.492,1.326h0.331h0.663c0.44-0.219,0.938-0.664,1.491-1.326c0.55-0.664,0.938-1.104,1.161-1.326
					c0.439,0.887,1.6,1.822,3.48,2.818c1.875,0.993,3.258,1.383,4.144,1.158c0.44-0.217,1.932-0.828,4.475-1.822
					c2.538-0.994,4.03-1.709,4.476-2.154l5.304,5.305c0.663,0.662,1.435,0.166,2.32-1.491c0.881-1.656,1.544-2.486,1.989-2.486
					h0.663c1.988,1.108,3.48,2.048,4.475,2.817c0.995,0.775,2.704,1.16,5.139,1.16h0.663c0.217-0.219,0.828-0.715,1.823-1.491
					c0.994-0.771,1.709-1.16,2.154-1.16c0.44,0,0.938,0.332,1.492,0.994c0.549,0.663,0.828,1.219,0.828,1.657
					c2.652-1.543,3.979-3.313,3.979-5.305c0-1.324-0.446-2.207-1.326-2.65c-0.886-0.44-1.326-1.436-1.326-2.983v-0.993
					c0-0.218,0.108-0.55,0.331-0.994c0.44,1.106,1.27,1.987,2.486,2.651c1.212,0.662,2.372,1.106,3.48,1.324
					c-0.445,0.446-0.828,1.438-1.16,2.981c-0.331,1.551-0.279,2.652,0.166,3.316c0.218,0.443,0.994,0.993,2.32,1.656
					c1.326,0.662,2.207,0.994,2.652,0.994c1.326-1.104,2.098-2.207,2.32-3.314c0.218-1.104,1.104-1.768,2.652-1.988
					c0.439,0.662,0.938,1.492,1.491,2.486c0.549,0.993,1.16,1.49,1.823,1.49h0.663c0.218-0.217,0.497-0.439,0.829-0.662
					c0.331-0.219,0.497-0.439,0.497-0.662c0.88-0.882,1.325-1.768,1.325-2.652l-3.646-6.299c-0.224-0.217-0.166-0.496,0.165-0.828
					c0.332-0.332,0.606-0.498,0.829-0.498h1.326v0.332c1.988,0,3.589,0.389,4.807,1.16c1.212,0.775,2.429,1.658,3.646,2.65
					c1.212,0.994,2.372,1.881,3.48,2.652c1.104,0.776,2.538,1.16,4.31,1.16c0.217,0,0.663-0.496,1.325-1.492
					c0.663-0.994,1.326-2.099,1.989-3.312c0.663-1.213,1.212-2.373,1.657-3.48c0.44-1.104,0.663-1.875,0.663-2.32h0.663h0.663
					c0.218,0.224,0.331,0.662,0.331,1.326v9.281c0.44,0,0.772-0.109,0.995-0.332c2.429-1.766,4.361-3.479,5.801-5.139
					c1.435-1.656,3.921-2.486,7.459-2.486c0.44,0,1.212,0.332,2.32,0.994c1.104,0.664,1.875,1.219,2.32,1.658
					c0-0.881,0.383-1.768,1.16-2.652c0.771-0.881,1.709-1.324,2.817-1.324c0,0.224,0.109,0.443,0.332,0.662l0.663,0.662
					c0.217,0.445,0.44,1.492,0.663,3.15c0.217,1.656,0.439,2.709,0.662,3.148c0.218,0,0.663,0.057,1.326,0.164
					c0.663,0.114,1.104,0.166,1.326,0.166c1.989,0,3.755-0.496,5.304-1.492c1.544-0.994,3.315-1.49,5.304-1.49
					c0.881,0,1.544,0.223,1.989,0.662c0.44,0.445,0.549,1.551,0.332,3.314c0.662-1.767,1.377-2.869,2.154-3.314
					c0.771-0.439,1.823-0.662,3.149-0.662c1.325,0,2.206,0.279,2.651,0.828c0.44,0.555,1.212,0.828,2.32,0.828
					c0.881,0,1.989-0.828,3.315-2.484c1.326-1.658,2.595-3.533,3.812-5.637c1.213-2.098,2.264-4.193,3.149-6.299
					c0.881-2.099,1.326-3.588,1.326-4.476c0-0.217-0.057-0.715-0.166-1.491c-0.113-0.771-0.165-1.377-0.165-1.822
					c-1.771-0.219-2.983-1.047-3.646-2.486c-0.663-1.436-1.549-2.596-2.652-3.48l-2.651,7.625c-3.315-2.43-5.915-6.02-7.79-10.772
					c-1.881-4.75-2.818-9.003-2.818-12.763c-2.212,0-3.48,0.828-3.812,2.483c-0.332,1.658-0.721,3.481-1.161,5.472h-0.331
					c-0.663,0-1.217-0.383-1.657-1.16c-0.445-0.771-0.886-1.657-1.326-2.65c-0.445-0.996-0.942-1.875-1.492-2.652
					c-0.554-0.771-1.383-1.16-2.485-1.16c-4.424,0-8.898,0.611-13.426,1.822c-4.532,1.219-8.898,1.824-13.094,1.824
					c-0.886,0-1.605-0.166-2.155-0.498c-0.554-0.332-1.273-0.496-2.154-0.496c-2.652,0-5.47,0.389-8.453,1.16
					c-2.983,0.775-5.692,1.159-8.121,1.159c-0.445,0-1.771-0.166-3.979-0.497c-2.211-0.332-3.537-0.605-3.978-0.828h-0.663h-0.331
					c-0.446,0.223-1.161,0.496-2.155,0.828c-0.994,0.331-1.605,0.497-1.823,0.497c-0.223,0-0.663-0.218-1.326-0.663
					c-0.662-0.439-1.108-0.662-1.325-0.662c-1.108,0-1.989,1.107-2.652,3.312c-0.663,2.213-1.88,3.315-3.646,3.315l-0.663-0.664
					l-0.663-0.661c-0.223-0.22-0.497-0.384-0.828-0.498c-0.332-0.107-0.721-0.384-1.16-0.828c-0.663-0.218-1.218-0.549-1.658-0.994
					h-0.331l-0.663-0.332l-0.663,0.332c-0.445,0.887-0.663,1.822-0.663,2.815c0,0.996-0.554,1.716-1.657,2.156
					c-1.108-0.44-1.657-1.326-1.657-2.651c0-1.326,0.549-2.652,1.657-3.98c-0.445-0.217-1.108-0.495-1.989-0.827
					c-0.886-0.332-1.549-0.498-1.988-0.498l-1.326,0.664l-1.326,0.661c-0.223,0.224-0.445,0.332-0.663,0.332h-0.663l-0.994-0.332
					l-1.326-1.325c-2.435,0-4.755,0.498-6.961,1.491c-2.212,0.994-4.424,1.492-6.63,1.492c-1.108,0-1.771-0.274-1.989-0.83
					c-0.223-0.549-0.886-0.828-1.989-0.828h-0.331c-0.223,0.224-0.497,0.498-0.829,0.828c-0.331,0.332-0.497,0.611-0.497,0.83
					c-0.445-2.207-1.491-3.424-3.149-3.646c-1.657-0.219-3.148-0.332-4.475-0.332c-2.435,0-4.424,0.664-5.967,1.988
					c-1.549,1.326-2.543,3.205-2.983,5.637l0.663,1.326c0.217,0.443,0.44,0.775,0.663,0.992v2.984c0,1.987-0.611,3.264-1.823,3.811
					c-1.218,0.554-2.652,1.16-4.31,1.822c-1.658,0.664-3.264,1.715-4.807,3.148c-1.549,1.439-2.652,4.035-3.315,7.789l0.663,1.326
					c0.218,0.445,0.44,0.777,0.663,0.996c0,0.443-0.166,0.941-0.497,1.49c-0.331,0.555-0.611,0.94-0.829,1.16
					c0.44,0,1.104,0.166,1.989,0.496c0.881,0.331,1.435,0.61,1.657,0.829l0.332,0.662l-0.332,0.664
					c-0.223,0.224-0.663,0.444-1.325,0.662c-0.663,0.223-0.995,0.444-0.995,0.664v0.334h0.003V-166.219z M104.918-202.684
					c1.543,0,2.538,0.555,2.983,1.656h-1.326c-1.549,0-2.435-0.549-2.652-1.656H104.918z M107.901-169.203
					c-0.445,0-0.663-0.273-0.663-0.828c0-0.549,0.218-0.715,0.663-0.498C108.781-170.085,108.781-169.645,107.901-169.203z
					 M108.896-198.705h1.326v1.325L108.896-198.705z M117.846-197.38h0.994h0.332c0.44,0.224,0.938,0.444,1.491,0.662
					c0.55,0.224,0.938,0.444,1.16,0.664c-0.445,0.885-0.942,1.771-1.491,2.649c-0.555,0.887-1.383,1.326-2.486,1.326V-197.38z
					 M144.365-164.064c0,0.777-0.223,1.16-0.663,1.16c-0.663,0-0.994-0.383-0.994-1.16c0-0.771,0.331-1.16,0.994-1.16
					C144.143-165.227,144.365-164.837,144.365-164.064z M158.619-198.705c0,0.885-0.331,1.325-0.994,1.325
					c-0.445,0-0.663-0.44-0.663-1.325c0-0.882,0.218-1.326,0.663-1.326C158.288-200.031,158.619-199.587,158.619-198.705z
					 M158.951-191.083h2.651c0,1.99-0.886,2.983-2.651,2.983V-191.083z M163.923-198.705c0,0.885-0.445,1.325-1.325,1.325
					c-0.446,0-0.663-0.44-0.663-1.325c0-0.882,0.217-1.326,0.663-1.326C163.478-200.031,163.923-199.587,163.923-198.705z
					 M166.243-184.617c0,0.993-0.223,1.491-0.662,1.491c-0.663,0-0.995-0.498-0.995-1.491c0-0.994,0.332-1.492,0.995-1.492
					C166.021-186.109,166.243-185.611,166.243-184.617z M169.227-175.503l-1.325,1.326c-0.886-0.662-1.326-1.656-1.326-2.981
					C167.679-177.158,168.564-176.605,169.227-175.503z M169.227-171.855c-0.445,0.225-0.662,0.059-0.662-0.496
					c0-0.549,0.217-0.828,0.662-0.828C170.107-172.734,170.107-172.296,169.227-171.855z M170.553-198.705h2.652
					c0.218,0,0.497,0.661,0.828,1.987c0.332,1.325,0.498,2.437,0.498,3.313c0,1.107-0.389,1.938-1.16,2.486
					c-0.777,0.555-1.715,0.828-2.818,0.828V-198.705z M178.178-173.181c0.217,0.224,0.497,0.444,0.828,0.663
					c0.332,0.223,0.497,0.445,0.497,0.662v0.662v0.664c0,0.885-0.445,1.326-1.325,1.326V-173.181z M196.078-173.181h1.326v2.651
					h-1.326V-173.181z M208.675-173.016c0,0.777-0.332,1.16-0.995,1.16c-0.662,0-0.994-0.383-0.994-1.16
					c0-0.771,0.332-1.16,0.994-1.16C208.343-174.176,208.675-173.787,208.675-173.016z M217.956-191.083h0.663h0.663
					c0.218,0.226,0.44,0.664,0.663,1.326c0.218,0.664,0.331,1.108,0.331,1.326c0,0.444-0.279,0.776-0.828,0.993
					c-0.555,0.224-1.052,0.332-1.492,0.332V-191.083L217.956-191.083z M219.945-199.865c0,0.776-0.223,1.16-0.663,1.16
					c-0.663,0-0.994-0.384-0.994-1.16c0-0.771,0.331-1.16,0.994-1.16C219.723-201.025,219.945-200.637,219.945-199.865z
					 M220.276-193.402c-0.445,0-0.663-0.273-0.663-0.828c0-0.549,0.218-0.828,0.663-0.828
					C221.38-194.613,221.38-194.064,220.276-193.402z M231.05-175.667c0.109,0.554,0.166,1.052,0.166,1.49
					c0,1.108-0.331,2.271-0.994,3.479c-0.663,1.219-1.88,1.822-3.646,1.822c0-1.324,0.383-2.76,1.16-4.309
					c0.771-1.545,1.823-2.762,3.149-3.646C230.885-176.605,230.937-176.216,231.05-175.667z M237.846-180.806
					c0,0.663-0.223,1.108-0.663,1.325c-0.445,0.225-0.663-0.217-0.663-1.325c0-1.103,0.218-1.543,0.663-1.325
					C237.623-181.908,237.846-181.469,237.846-180.806z"/>
			</g>
		</g>
	</g>
</pattern>
<path fill="#414042" d="M313.786,402.647c-12.118,21.815-12.528,49.817-12.528,49.817s-16.729-33.145-0.5-67.996
	c17.972-38.594,46.489-78.433,99.466-125.27c1.66-1.468,10.838-7.991,3.809-14.455c-3.854-3.546-10.791-7.945-16.127-13.375
	c-2.332-2.374-16.444-12.819,3.097-32.652c44.669-45.333,37.212-78.696,30.812-99.975c-0.959-3.19,33.949,16.299,20.855-18.358
	c-17-45-28.842,0.818-31.838-2.809c-16.473-19.938-61.406-22.282-81.162-11.191c-10.857,6.096-19.324,15.566-25.456,26.528
	c-0.93,1.665,2.698,9.873,2.206,11.722c-1.001,3.75-8.57,2.177-9.345,4.122c-2.242,5.647-11.563,7.109-12.738,12.961
	c-1.26,6.292,7.666,11.975,7.666,18c0,12.333,9.903,17.618,16.335,18.167c3.502,0.299,13.225-3.927,13-3.333
	c-2.668,7-24.335,4.333-24.335,4.333c-1.666,19.167,28.974,37.075,29.998,41.5c4.925,21.25-4.14,37.927-12.952,45.985
	c-9.734,8.896-35.199,20.566-48.378,21.016c-14.637,0.498-44.33-10.654-54.678-21.016c-7.685-7.695-17.688-33.487-16.321-40.318
	c3.333-16.667,26.666-3,31-28.667c0.968-5.725,10.654-7.308,11-13.5c0.164-2.951-20-4.5-22-7.833c-1.703-2.838,21.5-7.167,19-15.667
	c-1.262-4.29-14.666-1.334-15-7.667c-0.084-1.576,12.679-3.336,13.351-7.394c1.315-7.939-16.101-11.189-16.101-18.939
	c0-4.161,8.724-4.918,8.349-10.364c-0.42-6.125-7.439-21.295-25.004-31.038c-32.928-18.266-65.652-9.785-83.017,5.947
	c-3.741,3.39-9.586-15.289-28.479-10.947c-6.101,1.402,20.348,9.579,11.279,31.739c-17.046,41.663-4.713,83.663,39.621,110.33
	c7.971,4.794,1.56,20.324-3.536,26.318c-6.37,7.495-21.404,6.006-15.404,21.006c13.081,32.702,83.972,86.317,111.562,134.35
	c103.77,180.65-118.742,219.228-118.742,219.228s111.179-45.242,111.12-131.566c-0.048-68.758-115.365-135.179-158.158-225.015
	c-24.468-51.365-36.325-112.277-13.16-165.615c3.018-6.945,6.649-12.308,6.649-12.308C46.152-12.52,11.845,5.342,15.273,3.986
	c46.235-18.279,58.836,32.956,84.772,20.301C210.236-29.476,262.52,64.899,262.52,64.899s96.148-110.514,183.072-18.751
	c46.875,49.485,67.883,114.037,13.936,200.222c-14.928,23.849-58.783,55.393-75.133,71.339
	C330.395,370.375,318.339,394.456,313.786,402.647z"/>
<pattern  id="SVGID_2_" xlink:href="#SVGID_1_" patternTransform="matrix(1 0 0 1 302.082 16847.5312)">
</pattern>
<path fill="url(#SVGID_2_)" d="M298.754,404.147c-12.118,21.815-12.528,49.817-12.528,49.817s-16.729-33.145-0.5-67.996
	c17.971-38.594,46.49-78.433,99.465-125.27c1.66-1.468,10.838-7.991,3.81-14.455c-3.854-3.546-10.791-7.945-16.128-13.375
	c-2.332-2.374-16.443-12.819,3.098-32.652c44.668-45.333,37.211-78.696,30.812-99.975c-0.959-3.19,33.949,16.299,20.855-18.358
	c-17-45-28.84,0.818-31.836-2.809c-16.475-19.938-61.408-22.282-81.164-11.191c-10.857,6.096-19.324,15.566-25.455,26.528
	c-0.931,1.665,2.698,9.873,2.205,11.722c-1,3.75-8.57,2.177-9.345,4.122c-2.242,5.647-11.563,7.109-12.737,12.961
	c-1.262,6.292,7.666,11.975,7.666,18c0,12.333,9.903,17.618,16.334,18.167c3.502,0.299,13.225-3.927,13-3.333
	c-2.669,7-24.334,4.333-24.334,4.333c-1.666,19.167,28.973,37.075,29.998,41.5c4.924,21.25-4.141,37.927-12.953,45.985
	c-9.734,8.896-35.199,20.566-48.378,21.016c-14.637,0.498-44.33-10.654-54.679-21.016c-7.685-7.695-17.688-33.487-16.32-40.318
	c3.333-16.667,26.664-3,30.999-28.667c0.967-5.725,10.653-7.308,11-13.5c0.163-2.951-20-4.5-22-7.833
	c-1.703-2.838,21.5-7.167,19-15.667c-1.263-4.29-14.666-1.334-15-7.667c-0.083-1.576,12.678-3.336,13.351-7.394
	c1.316-7.939-16.101-11.189-16.101-18.939c0-4.161,8.723-4.918,8.349-10.364c-0.42-6.125-7.439-21.295-25.005-31.038
	c-32.927-18.266-65.651-9.785-83.017,5.947c-3.74,3.39-9.586-15.289-28.479-10.947c-6.101,1.402,20.348,9.579,11.28,31.739
	c-17.047,41.663-4.714,83.663,39.621,110.33c7.97,4.793,1.559,20.324-3.536,26.318c-6.371,7.495-21.405,6.006-15.405,21.006
	c13.081,32.702,83.972,86.317,111.562,134.35C320.027,565.875,97.517,604.452,97.517,604.452s111.179-45.242,111.119-131.566
	c-0.047-68.759-115.365-135.18-158.158-225.016c-24.467-51.364-36.325-112.276-13.16-165.614c3.018-6.945,6.649-12.308,6.649-12.308
	C31.118-11.02-3.188,6.842,0.239,5.486c46.236-18.279,58.837,32.956,84.773,20.301C195.2-27.977,247.486,66.399,247.486,66.399
	s96.148-110.514,183.072-18.751c46.875,49.485,67.883,114.037,13.936,200.222c-14.928,23.849-58.781,55.393-75.133,71.339
	C315.361,371.875,303.305,395.956,298.754,404.147z"/>
<text transform="matrix(1 0 0 1 357.9382 501.7939)" fill="#414042" font-family="'Chalkduster'" font-size="300">e</text>
</svg>
