<?xml version="1.0" encoding="UTF-8" standalone="no"?>
<!-- Generator: Adobe Illustrator 16.0.0, SVG Export Plug-In . SVG Version: 6.00 Build 0)  -->

<svg
   xmlns:dc="http://purl.org/dc/elements/1.1/"
   xmlns:cc="http://creativecommons.org/ns#"
   xmlns:rdf="http://www.w3.org/1999/02/22-rdf-syntax-ns#"
   xmlns:svg="http://www.w3.org/2000/svg"
   xmlns="http://www.w3.org/2000/svg"
   xmlns:sodipodi="http://sodipodi.sourceforge.net/DTD/sodipodi-0.dtd"
   xmlns:inkscape="http://www.inkscape.org/namespaces/inkscape"
   version="1.1"
   id="Layer_1"
   x="0px"
   y="0px"
   width="2000.134px"
   height="726.548px"
   viewBox="0 0 2000.134 726.548"
   enable-background="new 0 0 2000.134 726.548"
   xml:space="preserve"
   sodipodi:docname="logo-metherapy.svg"
   inkscape:export-filename="/srv/production/view/metherapy/image/logo-metherapy.png"
   inkscape:export-xdpi="176"
   inkscape:export-ydpi="176"
   inkscape:version="0.92.2 5c3e80d, 2017-08-06"><metadata
     id="metadata32"><rdf:RDF><cc:Work
         rdf:about=""><dc:format>image/svg+xml</dc:format><dc:type
           rdf:resource="http://purl.org/dc/dcmitype/StillImage" /></cc:Work></rdf:RDF></metadata><defs
     id="defs30" /><sodipodi:namedview
     pagecolor="#ffffff"
     bordercolor="#666666"
     borderopacity="1"
     objecttolerance="10"
     gridtolerance="10"
     guidetolerance="10"
     inkscape:pageopacity="0"
     inkscape:pageshadow="2"
     inkscape:window-width="1283"
     inkscape:window-height="644"
     id="namedview28"
     showgrid="false"
     inkscape:zoom="0.16198914"
     inkscape:cx="1000.067"
     inkscape:cy="363.27399"
     inkscape:window-x="0"
     inkscape:window-y="0"
     inkscape:window-maximized="0"
     inkscape:current-layer="Layer_1" /><pattern
     x="-181.102"
     y="-71.12"
     width="169.393"
     height="155.989"
     patternUnits="userSpaceOnUse"
     id="New_Pattern_4"
     viewBox="84.696 -181.988 169.393 155.989"
     overflow="visible"><g
       id="g18"><polygon
         fill="none"
         points="84.696,-181.988 254.089,-181.988 254.089,-25.999 84.696,-25.999   "
         id="polygon2" /><path
         fill="#EC008C"
         d="M86.022-10.229v0.994c0.44,1.326,1.16,3.149,2.155,5.47c0.994,2.32,1.6,3.48,1.823,3.48h1.657    c0-1.104,0.383-2.264,1.16-3.48c0.771-1.212,1.709-1.823,2.817-1.823h0.332c0.217,0.223,0.715,0.663,1.491,1.326    c0.771,0.662,1.27,1.108,1.492,1.325h0.331h0.663c0.44-0.217,0.938-0.663,1.491-1.325c0.55-0.663,0.938-1.104,1.161-1.326    c0.439,0.886,1.6,1.823,3.48,2.817c1.875,0.994,3.258,1.383,4.144,1.16c0.44-0.218,1.932-0.828,4.475-1.823    c2.538-0.994,4.03-1.709,4.476-2.154l5.304,5.304c0.663,0.663,1.435,0.166,2.32-1.492c0.881-1.657,1.544-2.485,1.989-2.485h0.663    c1.988,1.108,3.48,2.046,4.475,2.817c0.995,0.776,2.704,1.16,5.139,1.16h0.663c0.217-0.218,0.828-0.715,1.823-1.492    c0.994-0.771,1.709-1.16,2.154-1.16c0.44,0,0.938,0.332,1.492,0.995c0.549,0.663,0.828,1.217,0.828,1.657    c2.652-1.544,3.979-3.315,3.979-5.304c0-1.326-0.446-2.207-1.326-2.652c-0.886-0.44-1.326-1.435-1.326-2.983v-0.994    c0-0.218,0.108-0.549,0.331-0.994c0.44,1.108,1.27,1.988,2.486,2.651c1.212,0.663,2.372,1.108,3.48,1.326    c-0.445,0.445-0.828,1.439-1.16,2.983c-0.331,1.549-0.279,2.651,0.166,3.314c0.218,0.446,0.994,0.995,2.32,1.658    s2.207,0.994,2.652,0.994c1.326-1.104,2.098-2.206,2.32-3.315c0.218-1.103,1.104-1.766,2.652-1.988    c0.439,0.663,0.938,1.491,1.491,2.486c0.549,0.994,1.16,1.491,1.823,1.491h0.663c0.218-0.218,0.497-0.44,0.829-0.663    c0.331-0.217,0.497-0.44,0.497-0.663c0.88-0.88,1.325-1.766,1.325-2.651l-3.646-6.299c-0.224-0.217-0.166-0.497,0.165-0.828    c0.332-0.332,0.606-0.497,0.829-0.497h1.326v0.331c1.988,0,3.589,0.389,4.807,1.16c1.212,0.777,2.429,1.657,3.646,2.652    c1.212,0.994,2.372,1.88,3.48,2.651c1.104,0.777,2.538,1.16,4.31,1.16c0.217,0,0.663-0.497,1.325-1.491    c0.663-0.995,1.326-2.098,1.989-3.315c0.663-1.212,1.212-2.372,1.657-3.48c0.44-1.104,0.663-1.875,0.663-2.32h0.663h0.663    c0.218,0.223,0.331,0.663,0.331,1.326v9.281c0.44,0,0.772-0.108,0.995-0.331c2.429-1.767,4.361-3.48,5.801-5.139    c1.435-1.657,3.921-2.485,7.459-2.485c0.44,0,1.212,0.331,2.32,0.994c1.104,0.663,1.875,1.217,2.32,1.657    c0-0.881,0.383-1.767,1.16-2.651c0.771-0.881,1.709-1.326,2.817-1.326c0,0.223,0.109,0.445,0.332,0.663l0.663,0.663    c0.217,0.445,0.44,1.491,0.663,3.148c0.217,1.657,0.439,2.709,0.662,3.149c0.218,0,0.663,0.057,1.326,0.166    c0.663,0.113,1.104,0.165,1.326,0.165c1.989,0,3.755-0.497,5.304-1.491c1.544-0.994,3.315-1.492,5.304-1.492    c0.881,0,1.544,0.223,1.989,0.663c0.44,0.445,0.549,1.549,0.332,3.315c0.662-1.767,1.377-2.87,2.154-3.315    c0.771-0.44,1.823-0.663,3.149-0.663c1.325,0,2.206,0.28,2.651,0.829c0.44,0.555,1.212,0.829,2.32,0.829    c0.881,0,1.989-0.829,3.315-2.486s2.595-3.532,3.812-5.636c1.213-2.098,2.264-4.195,3.149-6.298    c0.881-2.098,1.326-3.59,1.326-4.476c0-0.218-0.057-0.715-0.166-1.491c-0.113-0.772-0.165-1.378-0.165-1.823    c-1.771-0.218-2.983-1.047-3.646-2.486c-0.663-1.435-1.549-2.595-2.652-3.48l-2.651,7.624c-3.315-2.43-5.915-6.019-7.79-10.773    c-1.881-4.75-2.818-9.002-2.818-12.763c-2.212,0-3.48,0.829-3.812,2.486c-0.332,1.657-0.721,3.48-1.161,5.47h-0.331    c-0.663,0-1.217-0.384-1.657-1.16c-0.445-0.771-0.886-1.657-1.326-2.652c-0.445-0.994-0.942-1.875-1.492-2.651    c-0.554-0.772-1.383-1.16-2.485-1.16c-4.424,0-8.898,0.61-13.426,1.823c-4.532,1.217-8.898,1.823-13.094,1.823    c-0.886,0-1.605-0.166-2.155-0.498c-0.554-0.331-1.273-0.497-2.154-0.497c-2.652,0-5.47,0.389-8.453,1.16    c-2.983,0.777-5.692,1.16-8.121,1.16c-0.445,0-1.771-0.165-3.979-0.497c-2.211-0.331-3.537-0.605-3.978-0.828h-0.663h-0.331    c-0.446,0.223-1.161,0.497-2.155,0.828c-0.994,0.332-1.605,0.497-1.823,0.497c-0.223,0-0.663-0.217-1.326-0.663    c-0.662-0.439-1.108-0.662-1.325-0.662c-1.108,0-1.989,1.108-2.652,3.314c-0.663,2.212-1.88,3.314-3.646,3.314l-0.663-0.662    l-0.663-0.663c-0.223-0.218-0.497-0.384-0.828-0.497c-0.332-0.109-0.721-0.384-1.16-0.829c-0.663-0.218-1.218-0.549-1.658-0.994    h-0.331l-0.663-0.332l-0.663,0.332c-0.445,0.886-0.663,1.823-0.663,2.817s-0.554,1.714-1.657,2.154    c-1.108-0.44-1.657-1.326-1.657-2.651c0-1.326,0.549-2.652,1.657-3.979c-0.445-0.217-1.108-0.497-1.989-0.828    c-0.886-0.332-1.549-0.497-1.988-0.497l-1.326,0.662l-1.326,0.663c-0.223,0.223-0.445,0.332-0.663,0.332h-0.663l-0.994-0.332    l-1.326-1.325c-2.435,0-4.755,0.497-6.961,1.491c-2.212,0.994-4.424,1.492-6.63,1.492c-1.108,0-1.771-0.275-1.989-0.829    c-0.223-0.549-0.886-0.829-1.989-0.829h-0.331c-0.223,0.223-0.497,0.497-0.829,0.829c-0.331,0.331-0.497,0.611-0.497,0.829    c-0.445-2.207-1.491-3.424-3.149-3.646c-1.657-0.218-3.148-0.332-4.475-0.332c-2.435,0-4.424,0.663-5.967,1.989    c-1.549,1.326-2.543,3.206-2.983,5.635l0.663,1.326c0.217,0.445,0.44,0.777,0.663,0.995v2.983c0,1.988-0.611,3.263-1.823,3.812    c-1.218,0.555-2.652,1.16-4.31,1.823s-3.264,1.715-4.807,3.149c-1.549,1.439-2.652,4.035-3.315,7.79l0.663,1.326    c0.218,0.445,0.44,0.776,0.663,0.994c0,0.445-0.166,0.942-0.497,1.492c-0.331,0.554-0.611,0.942-0.829,1.16    c0.44,0,1.104,0.165,1.989,0.497c0.881,0.331,1.435,0.611,1.657,0.829l0.332,0.662l-0.332,0.663    c-0.223,0.223-0.663,0.445-1.325,0.663c-0.663,0.223-0.995,0.445-0.995,0.663V-10.229z M104.918-46.693    c1.543,0,2.538,0.555,2.983,1.658h-1.326c-1.549,0-2.435-0.55-2.652-1.658H104.918z M107.901-13.212    c-0.445,0-0.663-0.275-0.663-0.829c0-0.549,0.218-0.715,0.663-0.497C108.781-14.093,108.781-13.652,107.901-13.212z     M108.896-42.715h1.326v1.325L108.896-42.715z M117.846-41.39h0.994h0.332c0.44,0.224,0.938,0.446,1.491,0.663    c0.55,0.223,0.938,0.445,1.16,0.663c-0.445,0.886-0.942,1.771-1.491,2.652c-0.555,0.886-1.383,1.326-2.486,1.326V-41.39z     M144.365-8.074c0,0.777-0.223,1.16-0.663,1.16c-0.663,0-0.994-0.383-0.994-1.16c0-0.771,0.331-1.16,0.994-1.16    C144.143-9.234,144.365-8.846,144.365-8.074z M158.619-42.715c0,0.886-0.331,1.325-0.994,1.325c-0.445,0-0.663-0.439-0.663-1.325    c0-0.881,0.218-1.326,0.663-1.326C158.288-44.041,158.619-43.596,158.619-42.715z M158.951-35.091h2.651    c0,1.989-0.886,2.983-2.651,2.983V-35.091z M163.923-42.715c0,0.886-0.445,1.325-1.325,1.325c-0.446,0-0.663-0.439-0.663-1.325    c0-0.881,0.217-1.326,0.663-1.326C163.478-44.041,163.923-43.596,163.923-42.715z M166.243-28.627    c0,0.995-0.223,1.492-0.662,1.492c-0.663,0-0.995-0.497-0.995-1.492c0-0.994,0.332-1.491,0.995-1.491    C166.021-30.118,166.243-29.621,166.243-28.627z M169.227-19.511l-1.325,1.326c-0.886-0.663-1.326-1.657-1.326-2.983    C167.679-21.168,168.564-20.614,169.227-19.511z M169.227-15.864c-0.445,0.223-0.662,0.057-0.662-0.497    c0-0.549,0.217-0.829,0.662-0.829C170.107-16.745,170.107-16.305,169.227-15.864z M170.553-42.715h2.652    c0.218,0,0.497,0.663,0.828,1.988c0.332,1.326,0.498,2.435,0.498,3.315c0,1.108-0.389,1.937-1.16,2.486    c-0.777,0.554-1.715,0.828-2.818,0.828V-42.715z M178.178-17.19c0.217,0.223,0.497,0.445,0.828,0.663    c0.332,0.223,0.497,0.445,0.497,0.663v0.663v0.663c0,0.886-0.445,1.326-1.325,1.326V-17.19z M196.078-17.19h1.326v2.652h-1.326    V-17.19z M208.675-17.024c0,0.776-0.332,1.16-0.995,1.16c-0.662,0-0.994-0.384-0.994-1.16c0-0.771,0.332-1.16,0.994-1.16    C208.343-18.185,208.675-17.796,208.675-17.024z M217.956-35.091h0.663h0.663c0.218,0.223,0.44,0.663,0.663,1.326    c0.218,0.663,0.331,1.108,0.331,1.326c0,0.445-0.279,0.776-0.828,0.994c-0.555,0.223-1.052,0.331-1.492,0.331V-35.091z     M219.945-43.875c0,0.776-0.223,1.16-0.663,1.16c-0.663,0-0.994-0.384-0.994-1.16c0-0.772,0.331-1.16,0.994-1.16    C219.723-45.035,219.945-44.647,219.945-43.875z M220.276-37.411c-0.445,0-0.663-0.274-0.663-0.829    c0-0.549,0.218-0.828,0.663-0.828C221.38-38.623,221.38-38.074,220.276-37.411z M231.05-19.677    c0.109,0.555,0.166,1.052,0.166,1.492c0,1.108-0.331,2.269-0.994,3.48c-0.663,1.217-1.88,1.823-3.646,1.823    c0-1.326,0.383-2.761,1.16-4.31c0.771-1.543,1.823-2.761,3.149-3.646C230.885-20.614,230.937-20.226,231.05-19.677z     M237.846-24.814c0,0.663-0.223,1.108-0.663,1.326c-0.445,0.223-0.663-0.218-0.663-1.326c0-1.104,0.218-1.544,0.663-1.326    C237.623-25.918,237.846-25.478,237.846-24.814z"
         id="path4" /><path
         fill="#EC008C"
         d="M170.719-49.227v0.994c0.44,1.326,1.16,3.149,2.155,5.47c0.994,2.32,1.6,3.48,1.823,3.48h1.657    c0-1.103,0.383-2.263,1.16-3.48c0.771-1.212,1.709-1.823,2.817-1.823h0.332c0.217,0.223,0.715,0.663,1.491,1.326    c0.771,0.663,1.27,1.108,1.492,1.326h0.331h0.663c0.44-0.218,0.938-0.663,1.491-1.326c0.55-0.663,0.938-1.104,1.161-1.326    c0.439,0.886,1.6,1.823,3.48,2.818c1.875,0.994,3.258,1.383,4.144,1.16c0.44-0.218,1.932-0.829,4.475-1.823    c2.538-0.995,4.03-1.71,4.476-2.155l5.304,5.304c0.663,0.663,1.435,0.166,2.32-1.491c0.881-1.657,1.544-2.486,1.989-2.486h0.663    c1.988,1.108,3.48,2.046,4.475,2.817c0.995,0.777,2.704,1.16,5.139,1.16h0.663c0.217-0.217,0.828-0.714,1.823-1.491    c0.994-0.771,1.709-1.16,2.154-1.16c0.44,0,0.938,0.331,1.492,0.994c0.549,0.663,0.828,1.218,0.828,1.657    c2.652-1.543,3.979-3.314,3.979-5.304c0-1.325-0.446-2.206-1.326-2.651c-0.886-0.44-1.326-1.435-1.326-2.983v-0.995    c0-0.217,0.108-0.549,0.331-0.994c0.44,1.108,1.27,1.989,2.486,2.652c1.212,0.662,2.372,1.108,3.48,1.325    c-0.445,0.446-0.828,1.44-1.16,2.983c-0.331,1.549-0.279,2.652,0.166,3.315c0.218,0.445,0.994,0.994,2.32,1.657    s2.207,0.994,2.652,0.994c1.326-1.103,2.098-2.206,2.32-3.314c0.218-1.104,1.104-1.767,2.652-1.989    c0.439,0.663,0.938,1.492,1.491,2.486c0.549,0.994,1.16,1.492,1.823,1.492h0.663c0.218-0.218,0.497-0.44,0.829-0.663    c0.331-0.218,0.497-0.44,0.497-0.663c0.88-0.881,1.325-1.767,1.325-2.652l-3.646-6.298c-0.224-0.218-0.166-0.497,0.165-0.829    c0.332-0.331,0.606-0.497,0.829-0.497h1.326v0.331c1.988,0,3.589,0.389,4.807,1.161c1.212,0.776,2.429,1.657,3.646,2.651    c1.212,0.994,2.372,1.88,3.48,2.652c1.104,0.776,2.538,1.16,4.31,1.16c0.217,0,0.663-0.497,1.325-1.492    c0.663-0.994,1.326-2.098,1.989-3.314c0.663-1.212,1.212-2.372,1.657-3.48c0.44-1.104,0.663-1.875,0.663-2.321h0.663h0.663    c0.218,0.223,0.331,0.663,0.331,1.326v9.282c0.44,0,0.772-0.109,0.995-0.332c2.429-1.766,4.361-3.48,5.801-5.138    c1.435-1.657,3.921-2.486,7.459-2.486c0.44,0,1.212,0.331,2.32,0.994c1.104,0.663,1.875,1.218,2.32,1.658    c0-0.881,0.383-1.767,1.16-2.652c0.771-0.881,1.709-1.326,2.817-1.326c0,0.223,0.109,0.445,0.332,0.663l0.663,0.663    c0.217,0.445,0.44,1.492,0.663,3.149c0.217,1.657,0.439,2.709,0.662,3.149c0.218,0,0.663,0.057,1.326,0.165    c0.663,0.114,1.104,0.166,1.326,0.166c1.989,0,3.755-0.497,5.304-1.492c1.544-0.994,3.315-1.491,5.304-1.491    c0.881,0,1.544,0.223,1.989,0.663c0.44,0.445,0.549,1.549,0.332,3.314c0.662-1.766,1.377-2.869,2.154-3.314    c0.771-0.44,1.823-0.663,3.149-0.663c1.325,0,2.206,0.279,2.651,0.829c0.44,0.554,1.212,0.828,2.32,0.828    c0.881,0,1.989-0.828,3.315-2.486c1.326-1.657,2.595-3.532,3.812-5.635c1.213-2.098,2.264-4.195,3.149-6.298    c0.881-2.098,1.326-3.589,1.326-4.475c0-0.218-0.057-0.715-0.166-1.492c-0.113-0.772-0.165-1.378-0.165-1.823    c-1.771-0.218-2.983-1.046-3.646-2.486c-0.663-1.435-1.549-2.595-2.652-3.48l-2.651,7.624c-3.315-2.429-5.915-6.019-7.79-10.773    c-1.881-4.75-2.818-9.002-2.818-12.762c-2.212,0-3.48,0.829-3.812,2.486c-0.332,1.658-0.721,3.481-1.161,5.47h-0.331    c-0.663,0-1.217-0.383-1.657-1.16c-0.445-0.771-0.886-1.657-1.326-2.652c-0.445-0.995-0.942-1.875-1.492-2.652    c-0.554-0.772-1.383-1.16-2.485-1.16c-4.424,0-8.898,0.611-13.426,1.823c-4.532,1.217-8.898,1.823-13.094,1.823    c-0.886,0-1.605-0.166-2.155-0.498c-0.554-0.332-1.273-0.497-2.154-0.497c-2.652,0-5.47,0.388-8.453,1.16    c-2.983,0.777-5.692,1.16-8.121,1.16c-0.445,0-1.771-0.166-3.979-0.497c-2.211-0.332-3.537-0.606-3.978-0.829h-0.663h-0.331    c-0.446,0.223-1.161,0.497-2.155,0.829s-1.605,0.497-1.823,0.497c-0.223,0-0.663-0.217-1.326-0.663    c-0.662-0.44-1.108-0.663-1.325-0.663c-1.108,0-1.989,1.108-2.652,3.314c-0.663,2.212-1.88,3.315-3.646,3.315l-0.663-0.663    l-0.663-0.663c-0.223-0.218-0.497-0.383-0.828-0.497c-0.332-0.109-0.721-0.383-1.16-0.829c-0.663-0.217-1.218-0.549-1.658-0.994    h-0.331l-0.663-0.332l-0.663,0.332c-0.445,0.886-0.663,1.823-0.663,2.817c0,0.995-0.554,1.714-1.657,2.155    c-1.108-0.44-1.657-1.326-1.657-2.652c0-1.326,0.549-2.652,1.657-3.978c-0.445-0.217-1.108-0.497-1.989-0.829    c-0.886-0.332-1.549-0.497-1.988-0.497l-1.326,0.663l-1.326,0.663c-0.223,0.223-0.445,0.332-0.663,0.332h-0.663l-0.994-0.332    l-1.326-1.326c-2.435,0-4.755,0.497-6.961,1.492c-2.212,0.994-4.424,1.492-6.63,1.492c-1.108,0-1.771-0.275-1.989-0.829    c-0.223-0.549-0.886-0.829-1.989-0.829h-0.331c-0.223,0.223-0.497,0.497-0.829,0.829c-0.331,0.332-0.497,0.611-0.497,0.829    c-0.445-2.207-1.491-3.424-3.149-3.646c-1.657-0.218-3.148-0.332-4.475-0.332c-2.435,0-4.424,0.663-5.967,1.989    c-1.549,1.326-2.543,3.206-2.983,5.635l0.663,1.326c0.217,0.445,0.44,0.777,0.663,0.995v2.983c0,1.989-0.611,3.263-1.823,3.812    c-1.218,0.554-2.652,1.16-4.31,1.823s-3.264,1.714-4.807,3.149c-1.549,1.44-2.652,4.035-3.315,7.79l0.663,1.326    c0.218,0.445,0.44,0.777,0.663,0.995c0,0.445-0.166,0.942-0.497,1.492c-0.331,0.554-0.611,0.942-0.829,1.16    c0.44,0,1.104,0.166,1.989,0.497c0.881,0.332,1.435,0.611,1.657,0.829l0.332,0.663l-0.332,0.663    c-0.223,0.223-0.663,0.445-1.325,0.663c-0.663,0.223-0.995,0.445-0.995,0.663V-49.227z M189.614-85.69    c1.543,0,2.538,0.554,2.983,1.658h-1.326c-1.549,0-2.435-0.549-2.652-1.658H189.614z M192.598-52.21    c-0.445,0-0.663-0.274-0.663-0.829c0-0.549,0.218-0.715,0.663-0.497C193.478-53.091,193.478-52.65,192.598-52.21z M193.592-81.712    h1.326v1.326L193.592-81.712z M202.542-80.387h0.994h0.332c0.44,0.223,0.938,0.446,1.491,0.663c0.55,0.223,0.938,0.445,1.16,0.663    c-0.445,0.886-0.942,1.771-1.491,2.652c-0.555,0.886-1.383,1.326-2.486,1.326V-80.387z M229.062-47.072    c0,0.777-0.223,1.161-0.663,1.161c-0.663,0-0.994-0.384-0.994-1.161c0-0.771,0.331-1.16,0.994-1.16    C228.839-48.232,229.062-47.844,229.062-47.072z M243.315-81.712c0,0.886-0.331,1.326-0.994,1.326    c-0.445,0-0.663-0.44-0.663-1.326c0-0.88,0.218-1.326,0.663-1.326C242.984-83.039,243.315-82.593,243.315-81.712z M243.647-74.088    h2.651c0,1.989-0.886,2.983-2.651,2.983V-74.088z M248.619-81.712c0,0.886-0.445,1.326-1.325,1.326    c-0.446,0-0.663-0.44-0.663-1.326c0-0.88,0.217-1.326,0.663-1.326C248.174-83.039,248.619-82.593,248.619-81.712z M250.939-67.624    c0,0.995-0.223,1.492-0.662,1.492c-0.663,0-0.995-0.497-0.995-1.492s0.332-1.492,0.995-1.492    C250.717-69.116,250.939-68.619,250.939-67.624z M253.923-58.508l-1.325,1.326c-0.886-0.663-1.326-1.657-1.326-2.983    C252.375-60.166,253.261-59.611,253.923-58.508z M253.923-54.862c-0.445,0.223-0.662,0.057-0.662-0.497    c0-0.549,0.217-0.829,0.662-0.829C254.804-55.742,254.804-55.302,253.923-54.862z M255.249-81.712h2.652    c0.218,0,0.497,0.663,0.828,1.989c0.332,1.326,0.498,2.435,0.498,3.315c0,1.108-0.389,1.937-1.16,2.486    c-0.777,0.554-1.715,0.829-2.818,0.829V-81.712z M262.874-56.188c0.217,0.223,0.497,0.445,0.828,0.663    c0.332,0.223,0.497,0.445,0.497,0.663v0.663v0.663c0,0.886-0.445,1.326-1.325,1.326V-56.188z M280.774-56.188h1.326v2.651h-1.326    V-56.188z M293.371-56.022c0,0.777-0.332,1.16-0.995,1.16c-0.662,0-0.994-0.383-0.994-1.16c0-0.771,0.332-1.16,0.994-1.16    C293.039-57.182,293.371-56.793,293.371-56.022z M302.652-74.088h0.663h0.663c0.218,0.223,0.44,0.663,0.663,1.326    c0.218,0.663,0.331,1.108,0.331,1.326c0,0.445-0.279,0.777-0.828,0.994c-0.555,0.223-1.052,0.332-1.492,0.332V-74.088z     M304.642-82.873c0,0.777-0.223,1.16-0.663,1.16c-0.663,0-0.994-0.383-0.994-1.16c0-0.772,0.331-1.16,0.994-1.16    C304.419-84.033,304.642-83.645,304.642-82.873z M304.973-76.409c-0.445,0-0.663-0.274-0.663-0.829    c0-0.549,0.218-0.829,0.663-0.829C306.076-77.621,306.076-77.072,304.973-76.409z M315.746-58.674    c0.109,0.554,0.166,1.051,0.166,1.492c0,1.108-0.331,2.269-0.994,3.48c-0.663,1.218-1.88,1.823-3.646,1.823    c0-1.325,0.383-2.76,1.16-4.309c0.771-1.543,1.823-2.761,3.149-3.646C315.581-59.611,315.633-59.223,315.746-58.674z     M322.542-63.812c0,0.663-0.223,1.108-0.663,1.326c-0.445,0.223-0.663-0.218-0.663-1.326c0-1.103,0.218-1.543,0.663-1.326    C322.319-64.915,322.542-64.475,322.542-63.812z"
         id="path6" /><path
         fill="#EC008C"
         d="M1.326-49.227v0.994c0.44,1.326,1.16,3.149,2.155,5.47c0.994,2.32,1.6,3.48,1.823,3.48h1.657    c0-1.103,0.383-2.263,1.16-3.48c0.771-1.212,1.709-1.823,2.817-1.823h0.332c0.217,0.223,0.715,0.663,1.491,1.326    c0.771,0.663,1.27,1.108,1.492,1.326h0.331h0.663c0.44-0.218,0.938-0.663,1.491-1.326c0.55-0.663,0.938-1.104,1.161-1.326    c0.439,0.886,1.6,1.823,3.48,2.818c1.875,0.994,3.258,1.383,4.144,1.16c0.44-0.218,1.932-0.829,4.475-1.823    c2.538-0.995,4.03-1.71,4.476-2.155l5.304,5.304c0.663,0.663,1.435,0.166,2.32-1.491c0.881-1.657,1.544-2.486,1.989-2.486h0.663    c1.988,1.108,3.48,2.046,4.475,2.817c0.995,0.777,2.704,1.16,5.139,1.16h0.663c0.217-0.217,0.828-0.714,1.823-1.491    c0.994-0.771,1.709-1.16,2.154-1.16c0.44,0,0.938,0.331,1.492,0.994c0.549,0.663,0.828,1.218,0.828,1.657    c2.652-1.543,3.979-3.314,3.979-5.304c0-1.325-0.446-2.206-1.326-2.651c-0.886-0.44-1.326-1.435-1.326-2.983v-0.995    c0-0.217,0.108-0.549,0.331-0.994c0.44,1.108,1.27,1.989,2.486,2.652c1.212,0.662,2.372,1.108,3.48,1.325    c-0.445,0.446-0.828,1.44-1.16,2.983c-0.331,1.549-0.279,2.652,0.166,3.315c0.218,0.445,0.994,0.994,2.32,1.657    s2.207,0.994,2.652,0.994c1.326-1.103,2.098-2.206,2.32-3.314c0.218-1.104,1.104-1.767,2.652-1.989    c0.439,0.663,0.938,1.492,1.491,2.486c0.549,0.994,1.16,1.492,1.823,1.492h0.663c0.218-0.218,0.497-0.44,0.829-0.663    c0.331-0.218,0.497-0.44,0.497-0.663c0.88-0.881,1.325-1.767,1.325-2.652l-3.646-6.298c-0.224-0.218-0.166-0.497,0.165-0.829    c0.332-0.331,0.606-0.497,0.829-0.497h1.326v0.331c1.988,0,3.589,0.389,4.807,1.161c1.212,0.776,2.429,1.657,3.646,2.651    c1.212,0.994,2.372,1.88,3.48,2.652c1.104,0.776,2.538,1.16,4.31,1.16c0.217,0,0.663-0.497,1.325-1.492    c0.663-0.994,1.326-2.098,1.989-3.314c0.663-1.212,1.212-2.372,1.657-3.48c0.44-1.104,0.663-1.875,0.663-2.321h0.663h0.663    c0.218,0.223,0.331,0.663,0.331,1.326v9.282c0.44,0,0.772-0.109,0.995-0.332c2.429-1.766,4.361-3.48,5.801-5.138    c1.435-1.657,3.921-2.486,7.459-2.486c0.44,0,1.212,0.331,2.32,0.994c1.104,0.663,1.875,1.218,2.32,1.658    c0-0.881,0.383-1.767,1.16-2.652c0.771-0.881,1.709-1.326,2.817-1.326c0,0.223,0.109,0.445,0.332,0.663l0.663,0.663    c0.217,0.445,0.44,1.492,0.663,3.149c0.217,1.657,0.439,2.709,0.662,3.149c0.218,0,0.663,0.057,1.326,0.165    c0.663,0.114,1.104,0.166,1.326,0.166c1.989,0,3.755-0.497,5.304-1.492c1.544-0.994,3.315-1.491,5.304-1.491    c0.881,0,1.544,0.223,1.989,0.663c0.44,0.445,0.549,1.549,0.332,3.314c0.662-1.766,1.377-2.869,2.154-3.314    c0.771-0.44,1.823-0.663,3.149-0.663c1.325,0,2.206,0.279,2.651,0.829c0.44,0.554,1.212,0.828,2.32,0.828    c0.881,0,1.989-0.828,3.315-2.486c1.326-1.657,2.595-3.532,3.812-5.635c1.213-2.098,2.264-4.195,3.149-6.298    c0.881-2.098,1.326-3.589,1.326-4.475c0-0.218-0.057-0.715-0.166-1.492c-0.113-0.772-0.165-1.378-0.165-1.823    c-1.771-0.218-2.983-1.046-3.646-2.486c-0.663-1.435-1.549-2.595-2.652-3.48l-2.651,7.624c-3.315-2.429-5.915-6.019-7.79-10.773    c-1.881-4.75-2.818-9.002-2.818-12.762c-2.212,0-3.48,0.829-3.812,2.486c-0.332,1.658-0.721,3.481-1.161,5.47h-0.331    c-0.663,0-1.217-0.383-1.657-1.16c-0.445-0.771-0.886-1.657-1.326-2.652c-0.445-0.995-0.942-1.875-1.492-2.652    c-0.554-0.772-1.383-1.16-2.485-1.16c-4.424,0-8.898,0.611-13.426,1.823c-4.532,1.217-8.898,1.823-13.094,1.823    c-0.886,0-1.605-0.166-2.155-0.498c-0.554-0.332-1.273-0.497-2.154-0.497c-2.652,0-5.47,0.388-8.453,1.16    c-2.983,0.777-5.692,1.16-8.121,1.16c-0.445,0-1.771-0.166-3.979-0.497c-2.211-0.332-3.537-0.606-3.978-0.829h-0.663h-0.331    c-0.446,0.223-1.161,0.497-2.155,0.829s-1.605,0.497-1.823,0.497c-0.223,0-0.663-0.217-1.326-0.663    c-0.662-0.44-1.108-0.663-1.325-0.663c-1.108,0-1.989,1.108-2.652,3.314c-0.663,2.212-1.88,3.315-3.646,3.315l-0.663-0.663    l-0.663-0.663c-0.223-0.218-0.497-0.383-0.828-0.497c-0.332-0.109-0.721-0.383-1.16-0.829c-0.663-0.217-1.218-0.549-1.658-0.994    h-0.331l-0.663-0.332l-0.663,0.332c-0.445,0.886-0.663,1.823-0.663,2.817c0,0.995-0.554,1.714-1.657,2.155    c-1.108-0.44-1.657-1.326-1.657-2.652c0-1.326,0.549-2.652,1.657-3.978c-0.445-0.217-1.108-0.497-1.989-0.829    c-0.886-0.332-1.549-0.497-1.988-0.497l-1.326,0.663l-1.326,0.663c-0.223,0.223-0.445,0.332-0.663,0.332H51.05l-0.994-0.332    l-1.326-1.326c-2.435,0-4.755,0.497-6.961,1.492c-2.212,0.994-4.424,1.492-6.63,1.492c-1.108,0-1.771-0.275-1.989-0.829    c-0.223-0.549-0.886-0.829-1.989-0.829h-0.331c-0.223,0.223-0.497,0.497-0.829,0.829c-0.331,0.332-0.497,0.611-0.497,0.829    c-0.445-2.207-1.491-3.424-3.149-3.646c-1.657-0.218-3.148-0.332-4.475-0.332c-2.435,0-4.424,0.663-5.967,1.989    c-1.549,1.326-2.543,3.206-2.983,5.635l0.663,1.326c0.217,0.445,0.44,0.777,0.663,0.995v2.983c0,1.989-0.611,3.263-1.823,3.812    c-1.218,0.554-2.652,1.16-4.31,1.823s-3.264,1.714-4.807,3.149c-1.549,1.44-2.652,4.035-3.315,7.79l0.663,1.326    c0.218,0.445,0.44,0.777,0.663,0.995c0,0.445-0.166,0.942-0.497,1.492C0.498-54.142,0.218-53.754,0-53.536    c0.44,0,1.104,0.166,1.989,0.497c0.881,0.332,1.435,0.611,1.657,0.829l0.332,0.663l-0.332,0.663    c-0.223,0.223-0.663,0.445-1.325,0.663c-0.663,0.223-0.995,0.445-0.995,0.663V-49.227z M20.222-85.69    c1.543,0,2.538,0.554,2.983,1.658h-1.326c-1.549,0-2.435-0.549-2.652-1.658H20.222z M23.205-52.21    c-0.445,0-0.663-0.274-0.663-0.829c0-0.549,0.218-0.715,0.663-0.497C24.085-53.091,24.085-52.65,23.205-52.21z M24.199-81.712    h1.326v1.326L24.199-81.712z M33.149-80.387h0.994h0.332c0.44,0.223,0.938,0.446,1.491,0.663c0.55,0.223,0.938,0.445,1.16,0.663    c-0.445,0.886-0.942,1.771-1.491,2.652c-0.555,0.886-1.383,1.326-2.486,1.326V-80.387z M59.669-47.072    c0,0.777-0.223,1.161-0.663,1.161c-0.663,0-0.994-0.384-0.994-1.161c0-0.771,0.331-1.16,0.994-1.16    C59.446-48.232,59.669-47.844,59.669-47.072z M73.923-81.712c0,0.886-0.331,1.326-0.994,1.326c-0.445,0-0.663-0.44-0.663-1.326    c0-0.88,0.218-1.326,0.663-1.326C73.592-83.039,73.923-82.593,73.923-81.712z M74.255-74.088h2.651    c0,1.989-0.886,2.983-2.651,2.983V-74.088z M79.227-81.712c0,0.886-0.445,1.326-1.325,1.326c-0.446,0-0.663-0.44-0.663-1.326    c0-0.88,0.217-1.326,0.663-1.326C78.781-83.039,79.227-82.593,79.227-81.712z M81.547-67.624c0,0.995-0.223,1.492-0.662,1.492    c-0.663,0-0.995-0.497-0.995-1.492s0.332-1.492,0.995-1.492C81.324-69.116,81.547-68.619,81.547-67.624z M84.53-58.508    l-1.325,1.326c-0.886-0.663-1.326-1.657-1.326-2.983C82.982-60.166,83.868-59.611,84.53-58.508z M84.53-54.862    c-0.445,0.223-0.662,0.057-0.662-0.497c0-0.549,0.217-0.829,0.662-0.829C85.411-55.742,85.411-55.302,84.53-54.862z     M85.856-81.712h2.652c0.218,0,0.497,0.663,0.828,1.989c0.332,1.326,0.498,2.435,0.498,3.315c0,1.108-0.389,1.937-1.16,2.486    c-0.777,0.554-1.715,0.829-2.818,0.829V-81.712z M93.481-56.188c0.217,0.223,0.497,0.445,0.828,0.663    c0.332,0.223,0.497,0.445,0.497,0.663v0.663v0.663c0,0.886-0.445,1.326-1.325,1.326V-56.188z M111.382-56.188h1.326v2.651h-1.326    V-56.188z M123.979-56.022c0,0.777-0.332,1.16-0.995,1.16c-0.662,0-0.994-0.383-0.994-1.16c0-0.771,0.332-1.16,0.994-1.16    C123.646-57.182,123.979-56.793,123.979-56.022z M133.26-74.088h0.663h0.663c0.218,0.223,0.44,0.663,0.663,1.326    c0.218,0.663,0.331,1.108,0.331,1.326c0,0.445-0.279,0.777-0.828,0.994c-0.555,0.223-1.052,0.332-1.492,0.332V-74.088z     M135.249-82.873c0,0.777-0.223,1.16-0.663,1.16c-0.663,0-0.994-0.383-0.994-1.16c0-0.772,0.331-1.16,0.994-1.16    C135.026-84.033,135.249-83.645,135.249-82.873z M135.58-76.409c-0.445,0-0.663-0.274-0.663-0.829    c0-0.549,0.218-0.829,0.663-0.829C136.684-77.621,136.684-77.072,135.58-76.409z M146.354-58.674    c0.109,0.554,0.166,1.051,0.166,1.492c0,1.108-0.331,2.269-0.994,3.48c-0.663,1.218-1.88,1.823-3.646,1.823    c0-1.325,0.383-2.76,1.16-4.309c0.771-1.543,1.823-2.761,3.149-3.646C146.188-59.611,146.24-59.223,146.354-58.674z     M153.149-63.812c0,0.663-0.223,1.108-0.663,1.326c-0.445,0.223-0.663-0.218-0.663-1.326c0-1.103,0.218-1.543,0.663-1.326    C152.927-64.915,153.149-64.475,153.149-63.812z"
         id="path8" /><path
         fill="#EC008C"
         d="M86.022-88.224v0.994c0.44,1.326,1.16,3.149,2.155,5.47c0.994,2.32,1.6,3.48,1.823,3.48h1.657    c0-1.103,0.383-2.263,1.16-3.48c0.771-1.212,1.709-1.823,2.817-1.823h0.332c0.217,0.223,0.715,0.663,1.491,1.326    c0.771,0.663,1.27,1.108,1.492,1.326h0.331h0.663c0.44-0.217,0.938-0.663,1.491-1.326c0.55-0.663,0.938-1.104,1.161-1.326    c0.439,0.886,1.6,1.823,3.48,2.818c1.875,0.994,3.258,1.383,4.144,1.16c0.44-0.218,1.932-0.829,4.475-1.823    c2.538-0.995,4.03-1.709,4.476-2.155l5.304,5.304c0.663,0.663,1.435,0.166,2.32-1.492c0.881-1.657,1.544-2.486,1.989-2.486h0.663    c1.988,1.108,3.48,2.046,4.475,2.817c0.995,0.777,2.704,1.16,5.139,1.16h0.663c0.217-0.217,0.828-0.714,1.823-1.492    c0.994-0.771,1.709-1.16,2.154-1.16c0.44,0,0.938,0.332,1.492,0.995c0.549,0.663,0.828,1.217,0.828,1.657    c2.652-1.543,3.979-3.315,3.979-5.304c0-1.326-0.446-2.207-1.326-2.652c-0.886-0.44-1.326-1.435-1.326-2.983v-0.995    c0-0.217,0.108-0.549,0.331-0.994c0.44,1.108,1.27,1.989,2.486,2.652c1.212,0.663,2.372,1.108,3.48,1.326    c-0.445,0.446-0.828,1.44-1.16,2.983c-0.331,1.549-0.279,2.652,0.166,3.315c0.218,0.446,0.994,0.995,2.32,1.658    s2.207,0.994,2.652,0.994c1.326-1.103,2.098-2.206,2.32-3.315c0.218-1.103,1.104-1.766,2.652-1.989    c0.439,0.663,0.938,1.492,1.491,2.486c0.549,0.994,1.16,1.492,1.823,1.492h0.663c0.218-0.218,0.497-0.44,0.829-0.663    c0.331-0.217,0.497-0.44,0.497-0.663c0.88-0.88,1.325-1.766,1.325-2.652l-3.646-6.298c-0.224-0.217-0.166-0.497,0.165-0.829    c0.332-0.332,0.606-0.497,0.829-0.497h1.326v0.331c1.988,0,3.589,0.389,4.807,1.161c1.212,0.777,2.429,1.657,3.646,2.652    c1.212,0.994,2.372,1.88,3.48,2.652c1.104,0.777,2.538,1.16,4.31,1.16c0.217,0,0.663-0.497,1.325-1.492    c0.663-0.995,1.326-2.098,1.989-3.315c0.663-1.212,1.212-2.372,1.657-3.48c0.44-1.104,0.663-1.875,0.663-2.321h0.663h0.663    c0.218,0.223,0.331,0.663,0.331,1.326v9.282c0.44,0,0.772-0.109,0.995-0.332c2.429-1.766,4.361-3.48,5.801-5.138    c1.435-1.657,3.921-2.486,7.459-2.486c0.44,0,1.212,0.331,2.32,0.994c1.104,0.663,1.875,1.217,2.32,1.658    c0-0.881,0.383-1.767,1.16-2.652c0.771-0.881,1.709-1.326,2.817-1.326c0,0.223,0.109,0.445,0.332,0.663l0.663,0.663    c0.217,0.445,0.44,1.492,0.663,3.149c0.217,1.657,0.439,2.709,0.662,3.149c0.218,0,0.663,0.057,1.326,0.166    c0.663,0.114,1.104,0.166,1.326,0.166c1.989,0,3.755-0.497,5.304-1.492c1.544-0.994,3.315-1.492,5.304-1.492    c0.881,0,1.544,0.223,1.989,0.663c0.44,0.445,0.549,1.549,0.332,3.315c0.662-1.766,1.377-2.87,2.154-3.315    c0.771-0.44,1.823-0.663,3.149-0.663c1.325,0,2.206,0.28,2.651,0.829c0.44,0.554,1.212,0.829,2.32,0.829    c0.881,0,1.989-0.829,3.315-2.486c1.326-1.657,2.595-3.532,3.812-5.635c1.213-2.098,2.264-4.195,3.149-6.298    c0.881-2.098,1.326-3.589,1.326-4.475c0-0.218-0.057-0.715-0.166-1.492c-0.113-0.772-0.165-1.378-0.165-1.823    c-1.771-0.218-2.983-1.046-3.646-2.486c-0.663-1.435-1.549-2.595-2.652-3.48l-2.651,7.624c-3.315-2.429-5.915-6.019-7.79-10.773    c-1.881-4.75-2.818-9.002-2.818-12.762c-2.212,0-3.48,0.829-3.812,2.486c-0.332,1.658-0.721,3.481-1.161,5.47h-0.331    c-0.663,0-1.217-0.383-1.657-1.16c-0.445-0.771-0.886-1.657-1.326-2.652c-0.445-0.995-0.942-1.875-1.492-2.652    c-0.554-0.772-1.383-1.16-2.485-1.16c-4.424,0-8.898,0.611-13.426,1.823c-4.532,1.217-8.898,1.823-13.094,1.823    c-0.886,0-1.605-0.166-2.155-0.498c-0.554-0.332-1.273-0.497-2.154-0.497c-2.652,0-5.47,0.388-8.453,1.16    c-2.983,0.777-5.692,1.16-8.121,1.16c-0.445,0-1.771-0.166-3.979-0.497c-2.211-0.332-3.537-0.606-3.978-0.829h-0.663h-0.331    c-0.446,0.223-1.161,0.497-2.155,0.829s-1.605,0.497-1.823,0.497c-0.223,0-0.663-0.217-1.326-0.663    c-0.662-0.44-1.108-0.663-1.325-0.663c-1.108,0-1.989,1.108-2.652,3.314c-0.663,2.212-1.88,3.315-3.646,3.315l-0.663-0.663    l-0.663-0.663c-0.223-0.218-0.497-0.383-0.828-0.497c-0.332-0.109-0.721-0.383-1.16-0.829c-0.663-0.217-1.218-0.549-1.658-0.994    h-0.331l-0.663-0.332l-0.663,0.332c-0.445,0.886-0.663,1.823-0.663,2.817c0,0.995-0.554,1.714-1.657,2.155    c-1.108-0.44-1.657-1.326-1.657-2.652c0-1.326,0.549-2.652,1.657-3.978c-0.445-0.217-1.108-0.497-1.989-0.829    c-0.886-0.332-1.549-0.497-1.988-0.497l-1.326,0.663l-1.326,0.663c-0.223,0.223-0.445,0.332-0.663,0.332h-0.663l-0.994-0.332    l-1.326-1.326c-2.435,0-4.755,0.497-6.961,1.492c-2.212,0.994-4.424,1.492-6.63,1.492c-1.108,0-1.771-0.275-1.989-0.829    c-0.223-0.549-0.886-0.829-1.989-0.829h-0.331c-0.223,0.223-0.497,0.497-0.829,0.829c-0.331,0.332-0.497,0.611-0.497,0.829    c-0.445-2.207-1.491-3.424-3.149-3.646c-1.657-0.218-3.148-0.332-4.475-0.332c-2.435,0-4.424,0.663-5.967,1.989    c-1.549,1.326-2.543,3.206-2.983,5.635l0.663,1.326c0.217,0.445,0.44,0.777,0.663,0.995v2.983c0,1.989-0.611,3.263-1.823,3.812    c-1.218,0.554-2.652,1.16-4.31,1.823s-3.264,1.714-4.807,3.149c-1.549,1.44-2.652,4.035-3.315,7.79l0.663,1.326    c0.218,0.445,0.44,0.777,0.663,0.995c0,0.445-0.166,0.942-0.497,1.492c-0.331,0.554-0.611,0.942-0.829,1.16    c0.44,0,1.104,0.166,1.989,0.497c0.881,0.332,1.435,0.611,1.657,0.829l0.332,0.663l-0.332,0.663    c-0.223,0.223-0.663,0.445-1.325,0.663c-0.663,0.223-0.995,0.445-0.995,0.663V-88.224z M104.918-124.688    c1.543,0,2.538,0.554,2.983,1.658h-1.326c-1.549,0-2.435-0.549-2.652-1.658H104.918z M107.901-91.207    c-0.445,0-0.663-0.275-0.663-0.829c0-0.549,0.218-0.715,0.663-0.497C108.781-92.088,108.781-91.647,107.901-91.207z     M108.896-120.71h1.326v1.326L108.896-120.71z M117.846-119.384h0.994h0.332c0.44,0.223,0.938,0.446,1.491,0.663    c0.55,0.223,0.938,0.445,1.16,0.663c-0.445,0.886-0.942,1.771-1.491,2.652c-0.555,0.886-1.383,1.326-2.486,1.326V-119.384z     M144.365-86.069c0,0.777-0.223,1.161-0.663,1.161c-0.663,0-0.994-0.383-0.994-1.161c0-0.771,0.331-1.16,0.994-1.16    C144.143-87.229,144.365-86.841,144.365-86.069z M158.619-120.71c0,0.886-0.331,1.326-0.994,1.326    c-0.445,0-0.663-0.44-0.663-1.326c0-0.88,0.218-1.326,0.663-1.326C158.288-122.036,158.619-121.59,158.619-120.71z     M158.951-113.086h2.651c0,1.989-0.886,2.983-2.651,2.983V-113.086z M163.923-120.71c0,0.886-0.445,1.326-1.325,1.326    c-0.446,0-0.663-0.44-0.663-1.326c0-0.88,0.217-1.326,0.663-1.326C163.478-122.036,163.923-121.59,163.923-120.71z     M166.243-106.622c0,0.995-0.223,1.492-0.662,1.492c-0.663,0-0.995-0.497-0.995-1.492s0.332-1.492,0.995-1.492    C166.021-108.113,166.243-107.616,166.243-106.622z M169.227-97.506l-1.325,1.326c-0.886-0.663-1.326-1.657-1.326-2.983    C167.679-99.163,168.564-98.609,169.227-97.506z M169.227-93.859c-0.445,0.223-0.662,0.057-0.662-0.497    c0-0.549,0.217-0.829,0.662-0.829C170.107-94.74,170.107-94.299,169.227-93.859z M170.553-120.71h2.652    c0.218,0,0.497,0.663,0.828,1.989c0.332,1.326,0.498,2.435,0.498,3.315c0,1.108-0.389,1.937-1.16,2.486    c-0.777,0.554-1.715,0.829-2.818,0.829V-120.71z M178.178-95.185c0.217,0.223,0.497,0.445,0.828,0.663    c0.332,0.223,0.497,0.445,0.497,0.663v0.663v0.663c0,0.886-0.445,1.326-1.325,1.326V-95.185z M196.078-95.185h1.326v2.652h-1.326    V-95.185z M208.675-95.02c0,0.777-0.332,1.16-0.995,1.16c-0.662,0-0.994-0.383-0.994-1.16c0-0.771,0.332-1.16,0.994-1.16    C208.343-96.18,208.675-95.791,208.675-95.02z M217.956-113.086h0.663h0.663c0.218,0.223,0.44,0.663,0.663,1.326    c0.218,0.663,0.331,1.108,0.331,1.326c0,0.445-0.279,0.777-0.828,0.994c-0.555,0.223-1.052,0.332-1.492,0.332V-113.086z     M219.945-121.87c0,0.777-0.223,1.16-0.663,1.16c-0.663,0-0.994-0.383-0.994-1.16c0-0.772,0.331-1.16,0.994-1.16    C219.723-123.03,219.945-122.642,219.945-121.87z M220.276-115.406c-0.445,0-0.663-0.274-0.663-0.829    c0-0.549,0.218-0.829,0.663-0.829C221.38-116.618,221.38-116.069,220.276-115.406z M231.05-97.671    c0.109,0.554,0.166,1.051,0.166,1.492c0,1.108-0.331,2.269-0.994,3.48c-0.663,1.217-1.88,1.823-3.646,1.823    c0-1.326,0.383-2.761,1.16-4.309c0.771-1.543,1.823-2.761,3.149-3.646C230.885-98.609,230.937-98.22,231.05-97.671z     M237.846-102.81c0,0.663-0.223,1.108-0.663,1.326c-0.445,0.223-0.663-0.218-0.663-1.326c0-1.103,0.218-1.543,0.663-1.326    C237.623-103.913,237.846-103.473,237.846-102.81z"
         id="path10" /><path
         fill="#EC008C"
         d="M170.719-127.221v0.994c0.44,1.326,1.16,3.149,2.155,5.47c0.994,2.32,1.6,3.48,1.823,3.48h1.657    c0-1.103,0.383-2.263,1.16-3.48c0.771-1.212,1.709-1.823,2.817-1.823h0.332c0.217,0.223,0.715,0.663,1.491,1.326    c0.771,0.663,1.27,1.108,1.492,1.326h0.331h0.663c0.44-0.217,0.938-0.663,1.491-1.326c0.55-0.663,0.938-1.104,1.161-1.326    c0.439,0.886,1.6,1.823,3.48,2.818c1.875,0.994,3.258,1.383,4.144,1.16c0.44-0.218,1.932-0.829,4.475-1.823    c2.538-0.995,4.03-1.709,4.476-2.155l5.304,5.304c0.663,0.663,1.435,0.166,2.32-1.492c0.881-1.657,1.544-2.486,1.989-2.486h0.663    c1.988,1.108,3.48,2.046,4.475,2.817c0.995,0.777,2.704,1.16,5.139,1.16h0.663c0.217-0.217,0.828-0.714,1.823-1.492    c0.994-0.771,1.709-1.16,2.154-1.16c0.44,0,0.938,0.332,1.492,0.995c0.549,0.663,0.828,1.217,0.828,1.657    c2.652-1.543,3.979-3.315,3.979-5.304c0-1.326-0.446-2.207-1.326-2.652c-0.886-0.44-1.326-1.435-1.326-2.983v-0.995    c0-0.217,0.108-0.549,0.331-0.994c0.44,1.108,1.27,1.989,2.486,2.652c1.212,0.663,2.372,1.108,3.48,1.326    c-0.445,0.446-0.828,1.44-1.16,2.983c-0.331,1.549-0.279,2.652,0.166,3.315c0.218,0.446,0.994,0.995,2.32,1.658    s2.207,0.994,2.652,0.994c1.326-1.103,2.098-2.206,2.32-3.315c0.218-1.103,1.104-1.766,2.652-1.989    c0.439,0.663,0.938,1.492,1.491,2.486c0.549,0.994,1.16,1.492,1.823,1.492h0.663c0.218-0.218,0.497-0.44,0.829-0.663    c0.331-0.217,0.497-0.44,0.497-0.663c0.88-0.88,1.325-1.766,1.325-2.652l-3.646-6.298c-0.224-0.217-0.166-0.497,0.165-0.829    c0.332-0.332,0.606-0.497,0.829-0.497h1.326v0.331c1.988,0,3.589,0.389,4.807,1.161c1.212,0.777,2.429,1.657,3.646,2.652    c1.212,0.994,2.372,1.88,3.48,2.652c1.104,0.777,2.538,1.16,4.31,1.16c0.217,0,0.663-0.497,1.325-1.492    c0.663-0.995,1.326-2.098,1.989-3.315c0.663-1.212,1.212-2.372,1.657-3.48c0.44-1.104,0.663-1.875,0.663-2.321h0.663h0.663    c0.218,0.223,0.331,0.663,0.331,1.326v9.282c0.44,0,0.772-0.109,0.995-0.332c2.429-1.766,4.361-3.48,5.801-5.138    c1.435-1.657,3.921-2.486,7.459-2.486c0.44,0,1.212,0.331,2.32,0.994c1.104,0.663,1.875,1.217,2.32,1.658    c0-0.881,0.383-1.767,1.16-2.652c0.771-0.881,1.709-1.326,2.817-1.326c0,0.223,0.109,0.445,0.332,0.663l0.663,0.663    c0.217,0.445,0.44,1.492,0.663,3.149c0.217,1.657,0.439,2.709,0.662,3.149c0.218,0,0.663,0.057,1.326,0.166    c0.663,0.114,1.104,0.166,1.326,0.166c1.989,0,3.755-0.497,5.304-1.492c1.544-0.994,3.315-1.492,5.304-1.492    c0.881,0,1.544,0.223,1.989,0.663c0.44,0.445,0.549,1.549,0.332,3.315c0.662-1.766,1.377-2.87,2.154-3.315    c0.771-0.44,1.823-0.663,3.149-0.663c1.325,0,2.206,0.28,2.651,0.829c0.44,0.554,1.212,0.829,2.32,0.829    c0.881,0,1.989-0.829,3.315-2.486c1.326-1.657,2.595-3.532,3.812-5.635c1.213-2.098,2.264-4.195,3.149-6.298    c0.881-2.098,1.326-3.589,1.326-4.475c0-0.218-0.057-0.715-0.166-1.492c-0.113-0.772-0.165-1.378-0.165-1.823    c-1.771-0.218-2.983-1.046-3.646-2.486c-0.663-1.435-1.549-2.595-2.652-3.48l-2.651,7.624c-3.315-2.429-5.915-6.019-7.79-10.773    c-1.881-4.75-2.818-9.002-2.818-12.762c-2.212,0-3.48,0.829-3.812,2.486c-0.332,1.658-0.721,3.481-1.161,5.47h-0.331    c-0.663,0-1.217-0.383-1.657-1.16c-0.445-0.771-0.886-1.657-1.326-2.652c-0.445-0.995-0.942-1.875-1.492-2.652    c-0.554-0.772-1.383-1.16-2.485-1.16c-4.424,0-8.898,0.611-13.426,1.823c-4.532,1.217-8.898,1.823-13.094,1.823    c-0.886,0-1.605-0.166-2.155-0.498c-0.554-0.332-1.273-0.497-2.154-0.497c-2.652,0-5.47,0.388-8.453,1.16    c-2.983,0.777-5.692,1.16-8.121,1.16c-0.445,0-1.771-0.166-3.979-0.497c-2.211-0.332-3.537-0.606-3.978-0.829h-0.663h-0.331    c-0.446,0.223-1.161,0.497-2.155,0.829s-1.605,0.497-1.823,0.497c-0.223,0-0.663-0.217-1.326-0.663    c-0.662-0.44-1.108-0.663-1.325-0.663c-1.108,0-1.989,1.108-2.652,3.314c-0.663,2.212-1.88,3.315-3.646,3.315l-0.663-0.663    l-0.663-0.663c-0.223-0.218-0.497-0.383-0.828-0.497c-0.332-0.109-0.721-0.383-1.16-0.829c-0.663-0.217-1.218-0.549-1.658-0.994    h-0.331l-0.663-0.332l-0.663,0.332c-0.445,0.886-0.663,1.823-0.663,2.817c0,0.995-0.554,1.714-1.657,2.155    c-1.108-0.44-1.657-1.326-1.657-2.652c0-1.326,0.549-2.652,1.657-3.978c-0.445-0.217-1.108-0.497-1.989-0.829    c-0.886-0.332-1.549-0.497-1.988-0.497l-1.326,0.663l-1.326,0.663c-0.223,0.223-0.445,0.332-0.663,0.332h-0.663l-0.994-0.332    l-1.326-1.326c-2.435,0-4.755,0.497-6.961,1.492c-2.212,0.994-4.424,1.492-6.63,1.492c-1.108,0-1.771-0.275-1.989-0.829    c-0.223-0.549-0.886-0.829-1.989-0.829h-0.331c-0.223,0.223-0.497,0.497-0.829,0.829c-0.331,0.332-0.497,0.611-0.497,0.829    c-0.445-2.207-1.491-3.424-3.149-3.646c-1.657-0.218-3.148-0.332-4.475-0.332c-2.435,0-4.424,0.663-5.967,1.989    c-1.549,1.326-2.543,3.206-2.983,5.635l0.663,1.326c0.217,0.445,0.44,0.777,0.663,0.995v2.983c0,1.989-0.611,3.263-1.823,3.812    c-1.218,0.554-2.652,1.16-4.31,1.823s-3.264,1.714-4.807,3.149c-1.549,1.44-2.652,4.035-3.315,7.79l0.663,1.326    c0.218,0.445,0.44,0.777,0.663,0.995c0,0.445-0.166,0.942-0.497,1.492c-0.331,0.554-0.611,0.942-0.829,1.16    c0.44,0,1.104,0.166,1.989,0.497c0.881,0.332,1.435,0.611,1.657,0.829l0.332,0.663l-0.332,0.663    c-0.223,0.223-0.663,0.445-1.325,0.663c-0.663,0.223-0.995,0.445-0.995,0.663V-127.221z M189.614-163.686    c1.543,0,2.538,0.554,2.983,1.658h-1.326c-1.549,0-2.435-0.549-2.652-1.658H189.614z M192.598-130.205    c-0.445,0-0.663-0.275-0.663-0.829c0-0.549,0.218-0.715,0.663-0.497C193.478-131.085,193.478-130.645,192.598-130.205z     M193.592-159.708h1.326v1.326L193.592-159.708z M202.542-158.382h0.994h0.332c0.44,0.223,0.938,0.446,1.491,0.663    c0.55,0.223,0.938,0.445,1.16,0.663c-0.445,0.886-0.942,1.771-1.491,2.652c-0.555,0.886-1.383,1.326-2.486,1.326V-158.382z     M229.062-125.067c0,0.777-0.223,1.161-0.663,1.161c-0.663,0-0.994-0.383-0.994-1.161c0-0.771,0.331-1.16,0.994-1.16    C228.839-126.227,229.062-125.838,229.062-125.067z M243.315-159.708c0,0.886-0.331,1.326-0.994,1.326    c-0.445,0-0.663-0.44-0.663-1.326c0-0.88,0.218-1.326,0.663-1.326C242.984-161.034,243.315-160.588,243.315-159.708z     M243.647-152.083h2.651c0,1.989-0.886,2.983-2.651,2.983V-152.083z M248.619-159.708c0,0.886-0.445,1.326-1.325,1.326    c-0.446,0-0.663-0.44-0.663-1.326c0-0.88,0.217-1.326,0.663-1.326C248.174-161.034,248.619-160.588,248.619-159.708z     M250.939-145.619c0,0.995-0.223,1.492-0.662,1.492c-0.663,0-0.995-0.497-0.995-1.492s0.332-1.492,0.995-1.492    C250.717-147.111,250.939-146.614,250.939-145.619z M253.923-136.503l-1.325,1.326c-0.886-0.663-1.326-1.657-1.326-2.983    C252.375-138.161,253.261-137.606,253.923-136.503z M253.923-132.857c-0.445,0.223-0.662,0.057-0.662-0.497    c0-0.549,0.217-0.829,0.662-0.829C254.804-133.737,254.804-133.297,253.923-132.857z M255.249-159.708h2.652    c0.218,0,0.497,0.663,0.828,1.989c0.332,1.326,0.498,2.435,0.498,3.315c0,1.108-0.389,1.937-1.16,2.486    c-0.777,0.554-1.715,0.829-2.818,0.829V-159.708z M262.874-134.183c0.217,0.223,0.497,0.445,0.828,0.663    c0.332,0.223,0.497,0.445,0.497,0.663v0.663v0.663c0,0.886-0.445,1.326-1.325,1.326V-134.183z M280.774-134.183h1.326v2.652    h-1.326V-134.183z M293.371-134.017c0,0.777-0.332,1.16-0.995,1.16c-0.662,0-0.994-0.383-0.994-1.16    c0-0.771,0.332-1.16,0.994-1.16C293.039-135.177,293.371-134.789,293.371-134.017z M302.652-152.083h0.663h0.663    c0.218,0.223,0.44,0.663,0.663,1.326c0.218,0.663,0.331,1.108,0.331,1.326c0,0.445-0.279,0.777-0.828,0.994    c-0.555,0.223-1.052,0.332-1.492,0.332V-152.083z M304.642-160.868c0,0.777-0.223,1.16-0.663,1.16    c-0.663,0-0.994-0.383-0.994-1.16c0-0.772,0.331-1.16,0.994-1.16C304.419-162.028,304.642-161.64,304.642-160.868z     M304.973-154.404c-0.445,0-0.663-0.274-0.663-0.829c0-0.549,0.218-0.829,0.663-0.829    C306.076-155.616,306.076-155.067,304.973-154.404z M315.746-136.669c0.109,0.554,0.166,1.051,0.166,1.492    c0,1.108-0.331,2.269-0.994,3.48c-0.663,1.217-1.88,1.823-3.646,1.823c0-1.326,0.383-2.761,1.16-4.309    c0.771-1.543,1.823-2.761,3.149-3.646C315.581-137.606,315.633-137.218,315.746-136.669z M322.542-141.807    c0,0.663-0.223,1.108-0.663,1.326c-0.445,0.223-0.663-0.218-0.663-1.326c0-1.103,0.218-1.543,0.663-1.326    C322.319-142.91,322.542-142.47,322.542-141.807z"
         id="path12" /><path
         fill="#EC008C"
         d="M1.326-127.221v0.994c0.44,1.326,1.16,3.149,2.155,5.47c0.994,2.32,1.6,3.48,1.823,3.48h1.657    c0-1.103,0.383-2.263,1.16-3.48c0.771-1.212,1.709-1.823,2.817-1.823h0.332c0.217,0.223,0.715,0.663,1.491,1.326    c0.771,0.663,1.27,1.108,1.492,1.326h0.331h0.663c0.44-0.217,0.938-0.663,1.491-1.326c0.55-0.663,0.938-1.104,1.161-1.326    c0.439,0.886,1.6,1.823,3.48,2.818c1.875,0.994,3.258,1.383,4.144,1.16c0.44-0.218,1.932-0.829,4.475-1.823    c2.538-0.995,4.03-1.709,4.476-2.155l5.304,5.304c0.663,0.663,1.435,0.166,2.32-1.492c0.881-1.657,1.544-2.486,1.989-2.486h0.663    c1.988,1.108,3.48,2.046,4.475,2.817c0.995,0.777,2.704,1.16,5.139,1.16h0.663c0.217-0.217,0.828-0.714,1.823-1.492    c0.994-0.771,1.709-1.16,2.154-1.16c0.44,0,0.938,0.332,1.492,0.995c0.549,0.663,0.828,1.217,0.828,1.657    c2.652-1.543,3.979-3.315,3.979-5.304c0-1.326-0.446-2.207-1.326-2.652c-0.886-0.44-1.326-1.435-1.326-2.983v-0.995    c0-0.217,0.108-0.549,0.331-0.994c0.44,1.108,1.27,1.989,2.486,2.652c1.212,0.663,2.372,1.108,3.48,1.326    c-0.445,0.446-0.828,1.44-1.16,2.983c-0.331,1.549-0.279,2.652,0.166,3.315c0.218,0.446,0.994,0.995,2.32,1.658    s2.207,0.994,2.652,0.994c1.326-1.103,2.098-2.206,2.32-3.315c0.218-1.103,1.104-1.766,2.652-1.989    c0.439,0.663,0.938,1.492,1.491,2.486c0.549,0.994,1.16,1.492,1.823,1.492h0.663c0.218-0.218,0.497-0.44,0.829-0.663    c0.331-0.217,0.497-0.44,0.497-0.663c0.88-0.88,1.325-1.766,1.325-2.652l-3.646-6.298c-0.224-0.217-0.166-0.497,0.165-0.829    c0.332-0.332,0.606-0.497,0.829-0.497h1.326v0.331c1.988,0,3.589,0.389,4.807,1.161c1.212,0.777,2.429,1.657,3.646,2.652    c1.212,0.994,2.372,1.88,3.48,2.652c1.104,0.777,2.538,1.16,4.31,1.16c0.217,0,0.663-0.497,1.325-1.492    c0.663-0.995,1.326-2.098,1.989-3.315c0.663-1.212,1.212-2.372,1.657-3.48c0.44-1.104,0.663-1.875,0.663-2.321h0.663h0.663    c0.218,0.223,0.331,0.663,0.331,1.326v9.282c0.44,0,0.772-0.109,0.995-0.332c2.429-1.766,4.361-3.48,5.801-5.138    c1.435-1.657,3.921-2.486,7.459-2.486c0.44,0,1.212,0.331,2.32,0.994c1.104,0.663,1.875,1.217,2.32,1.658    c0-0.881,0.383-1.767,1.16-2.652c0.771-0.881,1.709-1.326,2.817-1.326c0,0.223,0.109,0.445,0.332,0.663l0.663,0.663    c0.217,0.445,0.44,1.492,0.663,3.149c0.217,1.657,0.439,2.709,0.662,3.149c0.218,0,0.663,0.057,1.326,0.166    c0.663,0.114,1.104,0.166,1.326,0.166c1.989,0,3.755-0.497,5.304-1.492c1.544-0.994,3.315-1.492,5.304-1.492    c0.881,0,1.544,0.223,1.989,0.663c0.44,0.445,0.549,1.549,0.332,3.315c0.662-1.766,1.377-2.87,2.154-3.315    c0.771-0.44,1.823-0.663,3.149-0.663c1.325,0,2.206,0.28,2.651,0.829c0.44,0.554,1.212,0.829,2.32,0.829    c0.881,0,1.989-0.829,3.315-2.486c1.326-1.657,2.595-3.532,3.812-5.635c1.213-2.098,2.264-4.195,3.149-6.298    c0.881-2.098,1.326-3.589,1.326-4.475c0-0.218-0.057-0.715-0.166-1.492c-0.113-0.772-0.165-1.378-0.165-1.823    c-1.771-0.218-2.983-1.046-3.646-2.486c-0.663-1.435-1.549-2.595-2.652-3.48l-2.651,7.624c-3.315-2.429-5.915-6.019-7.79-10.773    c-1.881-4.75-2.818-9.002-2.818-12.762c-2.212,0-3.48,0.829-3.812,2.486c-0.332,1.658-0.721,3.481-1.161,5.47h-0.331    c-0.663,0-1.217-0.383-1.657-1.16c-0.445-0.771-0.886-1.657-1.326-2.652c-0.445-0.995-0.942-1.875-1.492-2.652    c-0.554-0.772-1.383-1.16-2.485-1.16c-4.424,0-8.898,0.611-13.426,1.823c-4.532,1.217-8.898,1.823-13.094,1.823    c-0.886,0-1.605-0.166-2.155-0.498c-0.554-0.332-1.273-0.497-2.154-0.497c-2.652,0-5.47,0.388-8.453,1.16    c-2.983,0.777-5.692,1.16-8.121,1.16c-0.445,0-1.771-0.166-3.979-0.497c-2.211-0.332-3.537-0.606-3.978-0.829h-0.663h-0.331    c-0.446,0.223-1.161,0.497-2.155,0.829s-1.605,0.497-1.823,0.497c-0.223,0-0.663-0.217-1.326-0.663    c-0.662-0.44-1.108-0.663-1.325-0.663c-1.108,0-1.989,1.108-2.652,3.314c-0.663,2.212-1.88,3.315-3.646,3.315l-0.663-0.663    l-0.663-0.663c-0.223-0.218-0.497-0.383-0.828-0.497c-0.332-0.109-0.721-0.383-1.16-0.829c-0.663-0.217-1.218-0.549-1.658-0.994    h-0.331l-0.663-0.332l-0.663,0.332c-0.445,0.886-0.663,1.823-0.663,2.817c0,0.995-0.554,1.714-1.657,2.155    c-1.108-0.44-1.657-1.326-1.657-2.652c0-1.326,0.549-2.652,1.657-3.978c-0.445-0.217-1.108-0.497-1.989-0.829    c-0.886-0.332-1.549-0.497-1.988-0.497l-1.326,0.663l-1.326,0.663c-0.223,0.223-0.445,0.332-0.663,0.332H51.05l-0.994-0.332    l-1.326-1.326c-2.435,0-4.755,0.497-6.961,1.492c-2.212,0.994-4.424,1.492-6.63,1.492c-1.108,0-1.771-0.275-1.989-0.829    c-0.223-0.549-0.886-0.829-1.989-0.829h-0.331c-0.223,0.223-0.497,0.497-0.829,0.829c-0.331,0.332-0.497,0.611-0.497,0.829    c-0.445-2.207-1.491-3.424-3.149-3.646c-1.657-0.218-3.148-0.332-4.475-0.332c-2.435,0-4.424,0.663-5.967,1.989    c-1.549,1.326-2.543,3.206-2.983,5.635l0.663,1.326c0.217,0.445,0.44,0.777,0.663,0.995v2.983c0,1.989-0.611,3.263-1.823,3.812    c-1.218,0.554-2.652,1.16-4.31,1.823s-3.264,1.714-4.807,3.149c-1.549,1.44-2.652,4.035-3.315,7.79l0.663,1.326    c0.218,0.445,0.44,0.777,0.663,0.995c0,0.445-0.166,0.942-0.497,1.492c-0.331,0.554-0.611,0.942-0.829,1.16    c0.44,0,1.104,0.166,1.989,0.497c0.881,0.332,1.435,0.611,1.657,0.829l0.332,0.663l-0.332,0.663    c-0.223,0.223-0.663,0.445-1.325,0.663c-0.663,0.223-0.995,0.445-0.995,0.663V-127.221z M20.222-163.686    c1.543,0,2.538,0.554,2.983,1.658h-1.326c-1.549,0-2.435-0.549-2.652-1.658H20.222z M23.205-130.205    c-0.445,0-0.663-0.275-0.663-0.829c0-0.549,0.218-0.715,0.663-0.497C24.085-131.085,24.085-130.645,23.205-130.205z     M24.199-159.708h1.326v1.326L24.199-159.708z M33.149-158.382h0.994h0.332c0.44,0.223,0.938,0.446,1.491,0.663    c0.55,0.223,0.938,0.445,1.16,0.663c-0.445,0.886-0.942,1.771-1.491,2.652c-0.555,0.886-1.383,1.326-2.486,1.326V-158.382z     M59.669-125.067c0,0.777-0.223,1.161-0.663,1.161c-0.663,0-0.994-0.383-0.994-1.161c0-0.771,0.331-1.16,0.994-1.16    C59.446-126.227,59.669-125.838,59.669-125.067z M73.923-159.708c0,0.886-0.331,1.326-0.994,1.326    c-0.445,0-0.663-0.44-0.663-1.326c0-0.88,0.218-1.326,0.663-1.326C73.592-161.034,73.923-160.588,73.923-159.708z M74.255-152.083    h2.651c0,1.989-0.886,2.983-2.651,2.983V-152.083z M79.227-159.708c0,0.886-0.445,1.326-1.325,1.326    c-0.446,0-0.663-0.44-0.663-1.326c0-0.88,0.217-1.326,0.663-1.326C78.781-161.034,79.227-160.588,79.227-159.708z M81.547-145.619    c0,0.995-0.223,1.492-0.662,1.492c-0.663,0-0.995-0.497-0.995-1.492s0.332-1.492,0.995-1.492    C81.324-147.111,81.547-146.614,81.547-145.619z M84.53-136.503l-1.325,1.326c-0.886-0.663-1.326-1.657-1.326-2.983    C82.982-138.161,83.868-137.606,84.53-136.503z M84.53-132.857c-0.445,0.223-0.662,0.057-0.662-0.497    c0-0.549,0.217-0.829,0.662-0.829C85.411-133.737,85.411-133.297,84.53-132.857z M85.856-159.708h2.652    c0.218,0,0.497,0.663,0.828,1.989c0.332,1.326,0.498,2.435,0.498,3.315c0,1.108-0.389,1.937-1.16,2.486    c-0.777,0.554-1.715,0.829-2.818,0.829V-159.708z M93.481-134.183c0.217,0.223,0.497,0.445,0.828,0.663    c0.332,0.223,0.497,0.445,0.497,0.663v0.663v0.663c0,0.886-0.445,1.326-1.325,1.326V-134.183z M111.382-134.183h1.326v2.652    h-1.326V-134.183z M123.979-134.017c0,0.777-0.332,1.16-0.995,1.16c-0.662,0-0.994-0.383-0.994-1.16    c0-0.771,0.332-1.16,0.994-1.16C123.646-135.177,123.979-134.789,123.979-134.017z M133.26-152.083h0.663h0.663    c0.218,0.223,0.44,0.663,0.663,1.326c0.218,0.663,0.331,1.108,0.331,1.326c0,0.445-0.279,0.777-0.828,0.994    c-0.555,0.223-1.052,0.332-1.492,0.332V-152.083z M135.249-160.868c0,0.777-0.223,1.16-0.663,1.16    c-0.663,0-0.994-0.383-0.994-1.16c0-0.772,0.331-1.16,0.994-1.16C135.026-162.028,135.249-161.64,135.249-160.868z     M135.58-154.404c-0.445,0-0.663-0.274-0.663-0.829c0-0.549,0.218-0.829,0.663-0.829    C136.684-155.616,136.684-155.067,135.58-154.404z M146.354-136.669c0.109,0.554,0.166,1.051,0.166,1.492    c0,1.108-0.331,2.269-0.994,3.48c-0.663,1.217-1.88,1.823-3.646,1.823c0-1.326,0.383-2.761,1.16-4.309    c0.771-1.543,1.823-2.761,3.149-3.646C146.188-137.606,146.24-137.218,146.354-136.669z M153.149-141.807    c0,0.663-0.223,1.108-0.663,1.326c-0.445,0.223-0.663-0.218-0.663-1.326c0-1.103,0.218-1.543,0.663-1.326    C152.927-142.91,153.149-142.47,153.149-141.807z"
         id="path14" /><path
         fill="#EC008C"
         d="M86.022-166.219v0.994c0.44,1.326,1.16,3.149,2.155,5.47c0.994,2.32,1.6,3.48,1.823,3.48h1.657    c0-1.103,0.383-2.263,1.16-3.48c0.771-1.212,1.709-1.823,2.817-1.823h0.332c0.217,0.223,0.715,0.663,1.491,1.326    c0.771,0.663,1.27,1.108,1.492,1.326h0.331h0.663c0.44-0.218,0.938-0.663,1.491-1.326c0.55-0.663,0.938-1.104,1.161-1.326    c0.439,0.886,1.6,1.823,3.48,2.818c1.875,0.994,3.258,1.383,4.144,1.16c0.44-0.218,1.932-0.829,4.475-1.823    c2.538-0.995,4.03-1.71,4.476-2.155l5.304,5.304c0.663,0.663,1.435,0.166,2.32-1.491c0.881-1.657,1.544-2.486,1.989-2.486h0.663    c1.988,1.108,3.48,2.046,4.475,2.817c0.995,0.777,2.704,1.16,5.139,1.16h0.663c0.217-0.217,0.828-0.714,1.823-1.491    c0.994-0.771,1.709-1.16,2.154-1.16c0.44,0,0.938,0.331,1.492,0.994c0.549,0.663,0.828,1.218,0.828,1.657    c2.652-1.543,3.979-3.314,3.979-5.304c0-1.325-0.446-2.206-1.326-2.651c-0.886-0.44-1.326-1.435-1.326-2.983v-0.995    c0-0.217,0.108-0.549,0.331-0.994c0.44,1.108,1.27,1.989,2.486,2.652c1.212,0.662,2.372,1.108,3.48,1.325    c-0.445,0.446-0.828,1.44-1.16,2.983c-0.331,1.549-0.279,2.652,0.166,3.315c0.218,0.445,0.994,0.994,2.32,1.657    s2.207,0.994,2.652,0.994c1.326-1.103,2.098-2.206,2.32-3.314c0.218-1.104,1.104-1.767,2.652-1.989    c0.439,0.663,0.938,1.492,1.491,2.486c0.549,0.994,1.16,1.492,1.823,1.492h0.663c0.218-0.218,0.497-0.44,0.829-0.663    c0.331-0.218,0.497-0.44,0.497-0.663c0.88-0.881,1.325-1.767,1.325-2.652l-3.646-6.298c-0.224-0.218-0.166-0.497,0.165-0.829    c0.332-0.331,0.606-0.497,0.829-0.497h1.326v0.331c1.988,0,3.589,0.389,4.807,1.161c1.212,0.776,2.429,1.657,3.646,2.651    c1.212,0.994,2.372,1.88,3.48,2.652c1.104,0.776,2.538,1.16,4.31,1.16c0.217,0,0.663-0.497,1.325-1.492    c0.663-0.994,1.326-2.098,1.989-3.314c0.663-1.212,1.212-2.372,1.657-3.48c0.44-1.104,0.663-1.875,0.663-2.321h0.663h0.663    c0.218,0.223,0.331,0.663,0.331,1.326v9.282c0.44,0,0.772-0.109,0.995-0.332c2.429-1.766,4.361-3.48,5.801-5.138    c1.435-1.657,3.921-2.486,7.459-2.486c0.44,0,1.212,0.331,2.32,0.994c1.104,0.663,1.875,1.218,2.32,1.658    c0-0.881,0.383-1.767,1.16-2.652c0.771-0.881,1.709-1.326,2.817-1.326c0,0.223,0.109,0.445,0.332,0.663l0.663,0.663    c0.217,0.445,0.44,1.492,0.663,3.149c0.217,1.657,0.439,2.709,0.662,3.149c0.218,0,0.663,0.057,1.326,0.165    c0.663,0.114,1.104,0.166,1.326,0.166c1.989,0,3.755-0.497,5.304-1.492c1.544-0.994,3.315-1.491,5.304-1.491    c0.881,0,1.544,0.223,1.989,0.663c0.44,0.445,0.549,1.549,0.332,3.314c0.662-1.766,1.377-2.869,2.154-3.314    c0.771-0.44,1.823-0.663,3.149-0.663c1.325,0,2.206,0.279,2.651,0.829c0.44,0.554,1.212,0.828,2.32,0.828    c0.881,0,1.989-0.828,3.315-2.486c1.326-1.657,2.595-3.532,3.812-5.635c1.213-2.098,2.264-4.195,3.149-6.299    c0.881-2.098,1.326-3.589,1.326-4.475c0-0.218-0.057-0.715-0.166-1.492c-0.113-0.771-0.165-1.378-0.165-1.823    c-1.771-0.218-2.983-1.046-3.646-2.486c-0.663-1.435-1.549-2.595-2.652-3.48l-2.651,7.624c-3.315-2.429-5.915-6.019-7.79-10.773    c-1.881-4.749-2.818-9.002-2.818-12.762c-2.212,0-3.48,0.828-3.812,2.485c-0.332,1.658-0.721,3.481-1.161,5.47h-0.331    c-0.663,0-1.217-0.383-1.657-1.16c-0.445-0.771-0.886-1.657-1.326-2.651c-0.445-0.995-0.942-1.875-1.492-2.652    c-0.554-0.771-1.383-1.16-2.485-1.16c-4.424,0-8.898,0.611-13.426,1.823c-4.532,1.217-8.898,1.823-13.094,1.823    c-0.886,0-1.605-0.166-2.155-0.497c-0.554-0.332-1.273-0.497-2.154-0.497c-2.652,0-5.47,0.388-8.453,1.16    c-2.983,0.776-5.692,1.16-8.121,1.16c-0.445,0-1.771-0.166-3.979-0.497c-2.211-0.332-3.537-0.606-3.978-0.829h-0.663h-0.331    c-0.446,0.223-1.161,0.497-2.155,0.829c-0.994,0.331-1.605,0.497-1.823,0.497c-0.223,0-0.663-0.218-1.326-0.663    c-0.662-0.44-1.108-0.663-1.325-0.663c-1.108,0-1.989,1.108-2.652,3.314c-0.663,2.212-1.88,3.315-3.646,3.315l-0.663-0.663    l-0.663-0.663c-0.223-0.218-0.497-0.383-0.828-0.497c-0.332-0.108-0.721-0.383-1.16-0.829c-0.663-0.217-1.218-0.549-1.658-0.994    h-0.331l-0.663-0.331l-0.663,0.331c-0.445,0.886-0.663,1.823-0.663,2.817c0,0.995-0.554,1.715-1.657,2.155    c-1.108-0.44-1.657-1.326-1.657-2.652s0.549-2.651,1.657-3.978c-0.445-0.218-1.108-0.497-1.989-0.829    c-0.886-0.331-1.549-0.497-1.988-0.497l-1.326,0.663l-1.326,0.663c-0.223,0.223-0.445,0.331-0.663,0.331h-0.663l-0.994-0.331    l-1.326-1.326c-2.435,0-4.755,0.497-6.961,1.492c-2.212,0.994-4.424,1.491-6.63,1.491c-1.108,0-1.771-0.274-1.989-0.829    c-0.223-0.549-0.886-0.828-1.989-0.828h-0.331c-0.223,0.223-0.497,0.497-0.829,0.828c-0.331,0.332-0.497,0.611-0.497,0.829    c-0.445-2.206-1.491-3.424-3.149-3.646c-1.657-0.218-3.148-0.331-4.475-0.331c-2.435,0-4.424,0.663-5.967,1.988    c-1.549,1.326-2.543,3.206-2.983,5.636l0.663,1.326c0.217,0.445,0.44,0.776,0.663,0.994v2.983c0,1.989-0.611,3.264-1.823,3.812    c-1.218,0.554-2.652,1.16-4.31,1.823s-3.264,1.714-4.807,3.148c-1.549,1.44-2.652,4.035-3.315,7.79l0.663,1.326    c0.218,0.445,0.44,0.777,0.663,0.995c0,0.445-0.166,0.942-0.497,1.491c-0.331,0.555-0.611,0.942-0.829,1.16    c0.44,0,1.104,0.166,1.989,0.497c0.881,0.332,1.435,0.611,1.657,0.829l0.332,0.663l-0.332,0.663    c-0.223,0.223-0.663,0.445-1.325,0.663c-0.663,0.223-0.995,0.445-0.995,0.663V-166.219z M104.918-202.683    c1.543,0,2.538,0.554,2.983,1.657h-1.326c-1.549,0-2.435-0.549-2.652-1.657H104.918z M107.901-169.202    c-0.445,0-0.663-0.274-0.663-0.829c0-0.549,0.218-0.715,0.663-0.497C108.781-170.083,108.781-169.643,107.901-169.202z     M108.896-198.705h1.326v1.326L108.896-198.705z M117.846-197.379h0.994h0.332c0.44,0.223,0.938,0.445,1.491,0.663    c0.55,0.223,0.938,0.445,1.16,0.663c-0.445,0.886-0.942,1.771-1.491,2.651c-0.555,0.886-1.383,1.326-2.486,1.326V-197.379z     M144.365-164.064c0,0.777-0.223,1.161-0.663,1.161c-0.663,0-0.994-0.384-0.994-1.161c0-0.771,0.331-1.16,0.994-1.16    C144.143-165.225,144.365-164.836,144.365-164.064z M158.619-198.705c0,0.886-0.331,1.326-0.994,1.326    c-0.445,0-0.663-0.44-0.663-1.326c0-0.88,0.218-1.326,0.663-1.326C158.288-200.031,158.619-199.585,158.619-198.705z     M158.951-191.081h2.651c0,1.989-0.886,2.983-2.651,2.983V-191.081z M163.923-198.705c0,0.886-0.445,1.326-1.325,1.326    c-0.446,0-0.663-0.44-0.663-1.326c0-0.88,0.217-1.326,0.663-1.326C163.478-200.031,163.923-199.585,163.923-198.705z     M166.243-184.616c0,0.994-0.223,1.491-0.662,1.491c-0.663,0-0.995-0.497-0.995-1.491c0-0.995,0.332-1.492,0.995-1.492    C166.021-186.108,166.243-185.611,166.243-184.616z M169.227-175.501l-1.325,1.326c-0.886-0.663-1.326-1.657-1.326-2.983    C167.679-177.158,168.564-176.604,169.227-175.501z M169.227-171.854c-0.445,0.223-0.662,0.058-0.662-0.497    c0-0.549,0.217-0.828,0.662-0.828C170.107-172.734,170.107-172.294,169.227-171.854z M170.553-198.705h2.652    c0.218,0,0.497,0.663,0.828,1.989c0.332,1.326,0.498,2.435,0.498,3.314c0,1.108-0.389,1.938-1.16,2.486    c-0.777,0.555-1.715,0.829-2.818,0.829V-198.705z M178.178-173.18c0.217,0.223,0.497,0.445,0.828,0.663    c0.332,0.223,0.497,0.445,0.497,0.662v0.663v0.663c0,0.886-0.445,1.326-1.325,1.326V-173.18z M196.078-173.18h1.326v2.651h-1.326    V-173.18z M208.675-173.015c0,0.777-0.332,1.16-0.995,1.16c-0.662,0-0.994-0.383-0.994-1.16c0-0.771,0.332-1.16,0.994-1.16    C208.343-174.175,208.675-173.786,208.675-173.015z M217.956-191.081h0.663h0.663c0.218,0.224,0.44,0.663,0.663,1.326    c0.218,0.663,0.331,1.108,0.331,1.326c0,0.445-0.279,0.777-0.828,0.994c-0.555,0.223-1.052,0.332-1.492,0.332V-191.081z     M219.945-199.865c0,0.777-0.223,1.16-0.663,1.16c-0.663,0-0.994-0.383-0.994-1.16c0-0.771,0.331-1.16,0.994-1.16    C219.723-201.025,219.945-200.637,219.945-199.865z M220.276-193.401c-0.445,0-0.663-0.274-0.663-0.828    c0-0.549,0.218-0.829,0.663-0.829C221.38-194.613,221.38-194.064,220.276-193.401z M231.05-175.666    c0.109,0.554,0.166,1.051,0.166,1.491c0,1.108-0.331,2.269-0.994,3.48c-0.663,1.218-1.88,1.823-3.646,1.823    c0-1.325,0.383-2.761,1.16-4.309c0.771-1.544,1.823-2.761,3.149-3.646C230.885-176.604,230.937-176.215,231.05-175.666z     M237.846-180.805c0,0.663-0.223,1.108-0.663,1.326c-0.445,0.223-0.663-0.218-0.663-1.326c0-1.103,0.218-1.543,0.663-1.325    C237.623-181.907,237.846-181.468,237.846-180.805z"
         id="path16" /></g></pattern><path
     fill="#414042"
     d="M313.787,402.646c-12.119,21.818-12.529,49.819-12.529,49.819s-16.729-33.145-0.5-67.996  c17.971-38.594,46.49-78.433,99.465-125.27c1.66-1.468,10.838-7.991,3.809-14.455c-3.855-3.546-10.791-7.945-16.127-13.375  c-2.332-2.374-16.445-12.819,3.096-32.652c44.668-45.333,37.211-78.696,30.812-99.975c-0.959-3.19,33.949,16.299,20.855-18.358  c-17-45-28.84,0.818-31.836-2.809c-16.473-19.938-61.408-22.282-81.164-11.191c-10.857,6.096-19.324,15.566-25.455,26.528  c-0.93,1.665,2.699,9.873,2.205,11.722c-1,3.75-8.57,2.177-9.344,4.122c-2.242,5.647-11.564,7.109-12.738,12.961  c-1.26,6.292,7.666,11.975,7.666,18c0,12.333,9.904,17.618,16.334,18.167c3.502,0.299,13.225-3.927,13-3.333  c-2.668,7-24.334,4.333-24.334,4.333c-1.666,19.167,28.973,37.075,29.998,41.5c4.924,21.25-4.139,37.927-12.953,45.985  c-9.734,8.896-35.199,20.566-48.377,21.016c-14.637,0.498-44.33-10.654-54.678-21.016c-7.684-7.695-17.688-33.487-16.321-40.318  c3.333-16.667,26.666-3,31-28.667c0.967-5.725,10.654-7.308,11-13.5c0.164-2.951-20-4.5-22-7.833c-1.703-2.838,21.5-7.167,19-15.667  c-1.262-4.29-14.666-1.334-15-7.667c-0.084-1.576,12.678-3.336,13.35-7.394c1.316-7.939-16.1-11.189-16.1-18.939  c0-4.161,8.723-4.918,8.348-10.364c-0.42-6.125-7.44-21.295-25.004-31.038c-32.927-18.266-65.652-9.785-83.016,5.947  c-3.741,3.39-9.586-15.289-28.479-10.947c-6.1,1.402,20.347,9.579,11.28,31.739c-17.046,41.663-4.713,83.663,39.621,110.33  c7.97,4.794,1.559,20.324-3.536,26.318c-6.371,7.495-21.405,6.006-15.405,21.006c13.081,32.702,83.971,86.317,111.562,134.35  C335.061,564.375,112.55,602.952,112.55,602.952s111.178-45.243,111.12-131.566c-0.048-68.759-115.366-135.18-158.159-225.016  C41.044,195.006,29.187,134.094,52.352,80.756c3.017-6.945,6.65-12.308,6.65-12.308C46.152-12.52,11.845,5.342,15.273,3.986  c46.236-18.279,58.836,32.956,84.773,20.301C210.236-29.476,262.52,64.899,262.52,64.899s96.148-110.514,183.072-18.751  c46.875,49.485,67.883,114.037,13.936,200.222c-14.928,23.849-58.783,55.393-75.133,71.339  C330.395,370.375,318.338,394.456,313.787,402.646z"
     id="path21" /><path
     fill="url(#New_Pattern_4)"
     d="M298.754,404.146c-12.119,21.818-12.529,49.819-12.529,49.819s-16.729-33.145-0.5-67.996  c17.971-38.594,46.49-78.433,99.465-125.27c1.66-1.468,10.838-7.991,3.809-14.455c-3.855-3.546-10.791-7.945-16.127-13.375  c-2.332-2.374-16.445-12.819,3.096-32.652c44.668-45.333,37.211-78.696,30.812-99.975c-0.959-3.19,33.949,16.299,20.855-18.358  c-17-45-28.84,0.818-31.836-2.809c-16.473-19.938-61.408-22.282-81.164-11.191c-10.857,6.096-19.324,15.566-25.455,26.528  c-0.93,1.665,2.699,9.873,2.205,11.722c-1,3.75-8.57,2.177-9.344,4.122c-2.242,5.647-11.564,7.109-12.738,12.961  c-1.261,6.292,7.666,11.975,7.666,18c0,12.333,9.904,17.618,16.334,18.167c3.502,0.299,13.225-3.927,13-3.333  c-2.668,7-24.334,4.333-24.334,4.333c-1.666,19.167,28.973,37.075,29.998,41.5c4.924,21.25-4.139,37.927-12.953,45.985  c-9.734,8.896-35.199,20.566-48.378,21.016c-14.636,0.498-44.33-10.654-54.678-21.016c-7.684-7.695-17.688-33.487-16.321-40.318  c3.333-16.667,26.665-3,30.999-28.667c0.967-5.725,10.654-7.308,11-13.5c0.164-2.951-20-4.5-22-7.833  c-1.703-2.838,21.5-7.167,19-15.667c-1.262-4.29-14.666-1.334-15-7.667c-0.083-1.576,12.678-3.336,13.351-7.394  c1.316-7.939-16.101-11.189-16.101-18.939c0-4.161,8.723-4.918,8.349-10.364c-0.42-6.125-7.44-21.295-25.005-31.038  c-32.927-18.266-65.652-9.785-83.016,5.947c-3.741,3.39-9.586-15.289-28.479-10.947c-6.1,1.402,20.347,9.579,11.28,31.739  c-17.046,41.663-4.713,83.663,39.621,110.33c7.97,4.793,1.559,20.324-3.536,26.318c-6.371,7.495-21.405,6.006-15.405,21.006  c13.081,32.702,83.971,86.317,111.562,134.35C320.027,565.875,97.517,604.452,97.517,604.452s111.179-45.243,111.119-131.566  c-0.047-68.759-115.365-135.18-158.158-225.016C26.011,196.506,14.153,135.594,37.318,82.256c3.017-6.945,6.65-12.308,6.65-12.308  C31.118-11.02-3.188,6.842,0.239,5.486c46.236-18.279,58.836,32.956,84.773,20.301c110.189-53.764,162.474,40.612,162.474,40.612  s96.148-110.514,183.072-18.751c46.875,49.485,67.883,114.037,13.936,200.222c-14.928,23.849-58.783,55.393-75.133,71.339  C315.361,371.875,303.305,395.956,298.754,404.146z"
     id="path23" /><text
     transform="scale(0.93478645,1.0697631)"
     font-size="300"
     id="text25"
     x="383.29703"
     y="489.45572"
     style="font-size:306.31103516px;font-family:Chalkduster;fill:#414042;stroke-width:1.02103686">e Therapy</text>
</svg>