<?xml version="1.0" encoding="utf-8"?>
<!-- Generator: Adobe Illustrator 16.0.0, SVG Export Plug-In . SVG Version: 6.00 Build 0)  -->
<!DOCTYPE svg PUBLIC "-//W3C//DTD SVG 1.1//EN" "http://www.w3.org/Graphics/SVG/1.1/DTD/svg11.dtd">
<svg version="1.1" id="Layer_1" xmlns="http://www.w3.org/2000/svg" xmlns:xlink="http://www.w3.org/1999/xlink" x="0px" y="0px"
	 width="533.135px" height="660.918px" viewBox="0 0 533.135 660.918" enable-background="new 0 0 533.135 660.918"
	 xml:space="preserve">
<linearGradient id="SVGID_1_" gradientUnits="userSpaceOnUse" x1="-6.5969" y1="49.5828" x2="387.4839" y2="443.6636">
	<stop  offset="0" style="stop-color:#8B8989;stop-opacity:0.7"/>
	<stop  offset="1" style="stop-color:#414042"/>
</linearGradient>
<path fill="url(#SVGID_1_)" d="M481.793,51.64c-97.27-102.683-204.856,15.7-204.856,15.7S218.43-32.983,95.129,27.178
	C66.246,41.271,59.213,4.388,16,26.985c5.872-1.652,18.213-17.098,33.201,49.608c0,0-4.066,6.001-7.442,13.771
	c-0.465,1.07-0.914,2.146-1.354,3.222c-0.465,1.618-1.007,3.212-1.589,4.793c-2.126,9.157-4.823,18.17-7.812,27.091
	c-9.562,50.307,3.347,103.753,25.479,150.218c47.888,100.525,171.646,174.851,171.698,251.791
	c0.065,96.595-109.875,133.438-109.875,133.438s219.14-48.053,123.684-231.527c0,0-3.742-6.491-9.871-17.357
	c-21.442-38.01-48.107-116.85-54.379-174.96c-20.7-191.897,98.469-148.26,98.469-148.26S393.374-44.14,490.159,93.49
	c36.893,52.454,29.025,120.702-12.511,174.233c-31.447,40.528-55.528,55.145-78.127,76.414
	c-74.084,69.727-79.799,86.086-79.799,86.086c-18.159,38.998,0.562,76.086,0.562,76.086s0.459-31.333,14.02-55.747
	c5.092-9.165,18.584-36.111,79.01-95.045c18.295-17.844,67.368-53.142,84.073-79.827C557.754,179.247,534.244,107.013,481.793,51.64
	z"/>
</svg>
