<?xml version="1.0" encoding="utf-8"?>
<!-- Generator: Adobe Illustrator 16.0.0, SVG Export Plug-In . SVG Version: 6.00 Build 0)  -->
<!DOCTYPE svg PUBLIC "-//W3C//DTD SVG 1.1//EN" "http://www.w3.org/Graphics/SVG/1.1/DTD/svg11.dtd">
<svg version="1.1" id="Layer_1" xmlns="http://www.w3.org/2000/svg" xmlns:xlink="http://www.w3.org/1999/xlink" x="0px" y="0px"
	 width="491.475px" height="604.451px" viewBox="0 0 491.475 604.451" enable-background="new 0 0 491.475 604.451"
	 xml:space="preserve">
<linearGradient id="SVGID_1_" gradientUnits="userSpaceOnUse" x1="-9.9114" y1="294.3347" x2="465.0959" y2="294.3347" gradientTransform="matrix(1 0 0 -1 24.9448 595.8101)">
	<stop  offset="0" style="stop-color:#A116DF"/>
	<stop  offset="1" style="stop-color:#FFCCFF"/>
</linearGradient>
<path fill="url(#SVGID_1_)" d="M231.291,383.726C335.061,564.375,112.55,602.951,112.55,602.951s111.179-45.242,111.12-131.563
	c-0.048-68.759-115.365-135.182-158.158-225.018c-24.468-51.364-36.325-112.274-13.16-165.614
	c3.019-6.943,6.649-12.309,6.649-12.309C46.152-12.52,11.845,5.342,15.273,3.986c46.235-18.278,58.836,32.956,84.772,20.302
	C210.236-29.476,262.52,64.899,262.52,64.899S362.667-45.615,449.592,46.148c46.875,49.483,56.646,130.577,9.936,200.223
	c-14.928,23.851-58.783,55.395-75.133,71.338c-54,52.666-66.058,76.747-70.605,84.938c-12.119,21.818-12.529,49.819-12.529,49.819
	s-16.729-33.146-0.5-67.996c0,0,5.107-14.619,71.312-76.934c20.195-19.008,42.384-36.261,74.287-69.182
	c35.864-37.008,41.466-110.616,8.5-157.493c-86.496-122.993-192.988-1.5-192.988-1.5s-106.495-38.998-87.994,132.494
	c5.604,51.932,29.433,122.386,48.594,156.355C227.944,377.926,231.291,383.726,231.291,383.726z"/>
</svg>
